<svg width="12" height="12" viewBox="0 0 12 12" fill="none" xmlns="http://www.w3.org/2000/svg">
<g clip-path="url(#clip0_11744_76778)">
<path fill-rule="evenodd" clip-rule="evenodd" d="M5.99998 3.49058C7.38049 3.49082 8.49998 4.61002 8.49998 5.99058C8.49969 7.3709 7.3803 8.49034 5.99998 8.49058C4.61956 8.49045 3.50027 7.37096 3.49998 5.99058C3.49998 4.60995 4.61938 3.49071 5.99998 3.49058ZM5.99998 4.49058C5.17166 4.49071 4.49998 5.16224 4.49998 5.99058C4.50027 6.81868 5.17185 7.49045 5.99998 7.49058C6.82802 7.49034 7.49969 6.81861 7.49998 5.99058C7.49998 5.1623 6.8282 4.49082 5.99998 4.49058Z" fill="black"/>
<path fill-rule="evenodd" clip-rule="evenodd" d="M6.38377 1.07652C6.7257 0.369092 7.57568 0.0707 8.28416 0.410504L8.9492 0.72984C9.65813 1.07018 9.95649 1.92215 9.61424 2.63023C9.4633 2.94275 9.74272 3.30261 10.0928 3.223C10.8574 3.04937 11.6247 3.52618 11.8008 4.29429L11.9638 5.00523C12.1394 5.77247 11.6572 6.53577 10.8916 6.71031C10.5446 6.78923 10.4463 7.23261 10.7207 7.45054C11.3363 7.94002 11.4368 8.83744 10.9453 9.45152L10.4873 10.0238C9.99532 10.6383 9.09847 10.7358 8.48435 10.2484C8.20321 10.0251 7.79422 10.2272 7.79392 10.5765C7.79376 11.3624 7.15594 12.0001 6.3701 12.0003H5.62986C4.84397 12.0001 4.20717 11.3624 4.20701 10.5765C4.20676 10.2273 3.79783 10.0253 3.51658 10.2484C2.90256 10.7361 2.00489 10.6382 1.51267 10.0238L1.05467 9.45152C0.563046 8.83722 0.664153 7.93994 1.28025 7.45054C1.5544 7.23241 1.45573 6.78948 1.10935 6.71031C0.343288 6.53605 -0.138478 5.77261 0.037089 5.00523L0.200175 4.29332C0.376343 3.5253 1.14355 3.04911 1.90818 3.223C2.25761 3.30187 2.53619 2.94237 2.38572 2.63023C2.04355 1.9222 2.34184 1.07106 3.05076 0.730816L3.71678 0.41148C4.42518 0.0718774 5.27527 0.369178 5.61717 1.07652C5.77245 1.39616 6.22876 1.39656 6.38377 1.07652ZM7.85154 1.31285C7.64007 1.21142 7.38635 1.3 7.28416 1.51109C6.76524 2.58456 5.23595 2.5844 4.71678 1.51109C4.6147 1.30004 4.36084 1.21168 4.14939 1.31285L3.48338 1.63218C3.27341 1.73296 3.18497 1.98493 3.28611 2.19468C3.80644 3.27202 2.84166 4.45974 1.6865 4.19761C1.45593 4.14518 1.22676 4.29021 1.17478 4.51695L1.0117 5.22789C0.959807 5.45477 1.10254 5.68261 1.33103 5.73472C2.49069 5.99884 2.83743 7.49063 1.90232 8.23375C1.71978 8.37875 1.69022 8.64452 1.83592 8.82652L2.29392 9.39878C2.43995 9.58074 2.7093 9.61231 2.89451 9.46519C3.82345 8.72766 5.20676 9.38066 5.20701 10.5765C5.20717 10.8101 5.39625 11.0001 5.62986 11.0003H6.3701C6.60365 11.0001 6.79376 10.8101 6.79392 10.5765C6.79422 9.38068 8.17749 8.72729 9.10643 9.46519C9.29169 9.61193 9.56122 9.58091 9.70701 9.39878L10.165 8.82652C10.3104 8.64476 10.2806 8.37878 10.0986 8.23375C9.16297 7.49051 9.5101 5.99946 10.6699 5.7357C10.898 5.68342 11.0407 5.45532 10.9892 5.22886L10.8262 4.51695C10.774 4.29044 10.5449 4.14639 10.3144 4.19859C9.15877 4.46133 8.19298 3.27244 8.71385 2.19468C8.81507 1.98496 8.7264 1.73314 8.51658 1.63218L7.85154 1.31285Z" fill="black"/>
</g>
<defs>
<clipPath id="clip0_11744_76778">
<rect width="12" height="12" fill="white"/>
</clipPath>
</defs>
</svg>
