<svg width="24" height="24" viewBox="0 0 24 24" fill="none" xmlns="http://www.w3.org/2000/svg">
<path d="M17 3C19.7614 3 22 5.23858 22 8V11.9339C22 12.491 21.2626 12.7944 20.7976 12.4877C20.6174 12.3689 20.5 12.1708 20.5 11.955V8C20.5 6.067 18.933 4.5 17 4.5H7C5.067 4.5 3.5 6.067 3.5 8V16C3.5 17.933 5.067 19.5 7 19.5H11.391C11.6617 19.5 11.9012 19.6752 12.0107 19.9228C12.2213 20.3991 11.9017 21 11.381 21H7C4.23858 21 2 18.7614 2 16V8C2 5.23858 4.23858 3 7 3H17Z" fill="black" fill-opacity="0.84"/>
<path d="M10.8346 16C11.2671 16 11.5842 16.401 11.5367 16.8309C11.4965 17.1942 11.2036 17.5 10.8381 17.5H6C5.58591 17.5 5.2502 17.164 5.25 16.75C5.25 16.3358 5.58579 16 6 16H10.8346Z" fill="black" fill-opacity="0.84"/>
<path d="M9.375 8.03711C9.375 7.28603 10.1721 6.8028 10.8379 7.15039L15.5527 9.61328C16.2687 9.98729 16.2687 11.0127 15.5527 11.3867L10.8379 13.8496C10.1721 14.1972 9.375 13.714 9.375 12.9629V8.03711Z" fill="black" fill-opacity="0.84"/>
<path fill-rule="evenodd" clip-rule="evenodd" d="M17.5 22C19.9853 22 22 19.9853 22 17.5C22 15.0147 19.9853 13 17.5 13C15.0147 13 13 15.0147 13 17.5C13 19.9853 15.0147 22 17.5 22ZM15.25 16.75C14.9739 16.75 14.75 16.9739 14.75 17.25V17.75C14.75 18.0261 14.9739 18.25 15.25 18.25H19.75C20.0261 18.25 20.25 18.0261 20.25 17.75V17.25C20.25 16.9739 20.0261 16.75 19.75 16.75H15.25Z" fill="black" fill-opacity="0.84"/>
</svg>
