<svg width="302" height="144" viewBox="0 0 302 144" fill="none" xmlns="http://www.w3.org/2000/svg">
<g opacity="0.8">
<path d="M227.353 13.8676C232.147 6.04096 242.778 0 260.175 0C277.572 0 285.756 6.90207 291.422 14.5989C292.574 16.1645 290.828 18.0074 289.04 17.2367C288.611 17.0514 288.175 16.8618 287.733 16.6691C281.37 13.8985 273.558 10.4965 260.175 10.3068C245.861 10.1038 236.835 13.678 231.151 16.7588C229.236 17.7969 226.217 15.7226 227.353 13.8676Z" fill="#14307E"/>
<path d="M31.4925 23.8808C48.3851 16.8421 61.6616 17.752 71.0475 19.9657C73.0236 20.4318 74.3972 18.3117 72.8166 17.0406C65.5316 11.1818 49.2274 3.90855 27.9627 11.8145C8.99387 18.8669 0.0528876 33.5194 2.47947e-05 43.1531C-0.0124319 45.4232 4.67233 45.616 5.88401 43.694C9.15771 38.5012 14.5998 30.9196 31.4925 23.8808Z" fill="#14307E"/>
<path fill-rule="evenodd" clip-rule="evenodd" d="M274.952 120.938C260.017 120.938 247.904 108.893 247.904 94.0687C247.904 79.2445 260.017 67.1999 274.952 67.1999C289.886 67.1999 302 79.2445 302 94.0687C302 108.893 289.886 120.938 274.952 120.938ZM294.002 85.1676C294.002 81.3292 290.849 78.2188 286.999 78.2188C283.149 78.2188 280.03 81.3292 279.996 85.1676C279.996 89.006 283.149 92.1165 286.999 92.1165C290.882 92.1165 294.002 89.006 294.002 85.1676Z" fill="#14307E"/>
<path fill-rule="evenodd" clip-rule="evenodd" d="M95.7451 112.664C95.7451 129.97 81.6404 144 64.2171 144C46.8269 144 32.689 129.97 32.689 112.664C32.689 95.3581 46.8269 81.328 64.2171 81.328C81.6073 81.328 95.7451 95.3581 95.7451 112.664ZM86.4526 102.274C86.4526 97.8067 82.802 94.1669 78.2885 94.1669C73.8082 94.1669 70.1576 97.7736 70.1244 102.274C70.1244 106.741 73.775 110.381 78.2885 110.381C82.802 110.381 86.4526 106.741 86.4526 102.274Z" fill="#14307E"/>
</g>
</svg>
