<svg width="128" height="96" viewBox="0 0 128 96" fill="none" xmlns="http://www.w3.org/2000/svg">
<path d="M63.3747 16.75C66.3661 16.75 69.4022 17.7493 72.0034 20.3108C74.3648 22.6357 78.1081 24.871 83.0666 26.4822C89.4272 28.5501 93.2274 29.9126 93.8777 38.8696C94.1752 42.9543 93.9982 48.0991 92.5698 53.5032C91.7354 53.3557 90.8767 53.2788 90 53.2788C81.8998 53.2788 75.3332 59.8454 75.3332 67.9456C75.3332 70.3965 75.9346 72.7069 76.9975 74.7375C71.9114 77.8092 66.7167 79.25 63.3747 79.25C57.2863 79.25 45.0487 74.4654 38.5215 63.7544C33.1607 54.9523 32.3884 45.5059 32.872 38.8696C33.5223 29.9166 37.3224 28.5501 43.6831 26.4822C48.6375 24.871 52.3849 22.6357 54.7463 20.3108C57.3475 17.7493 60.3834 16.75 63.3747 16.75Z" fill="#589D88"/>
<path d="M40.1292 22.8941C40.2225 22.8699 40.323 22.8785 40.4099 22.9227C40.4967 22.9669 40.5628 23.0422 40.5938 23.1332C40.6247 23.2242 40.6183 23.3242 40.5764 23.4122C40.5346 23.5002 40.4605 23.5683 40.3718 23.6061C40.0715 23.7333 39.782 23.8559 39.4837 23.9815C36.8491 25.1043 34.1488 26.1812 32.4363 28.2147C30.704 30.2321 30.0071 33.0391 29.5628 35.8368C29.5143 36.1473 29.4695 36.4555 29.4268 36.7796C29.4122 36.8887 29.3591 36.9906 29.2744 37.0626C29.1899 37.1345 29.0814 37.1708 28.9719 37.1632C28.8625 37.1556 28.7599 37.1047 28.686 37.0218C28.6122 36.9389 28.5736 36.8306 28.5742 36.7206C28.5772 36.3861 28.5844 36.0665 28.5977 35.7428C28.731 32.8472 29.2626 29.6957 31.3259 27.2657C33.4105 24.8315 36.4488 23.9135 39.1936 23.1434C39.5081 23.0572 39.8132 22.9768 40.1292 22.8941Z" fill="#247A64"/>
<path d="M63.3747 16C66.5451 16 69.7761 17.0647 72.5298 19.7764C74.788 21.9997 78.42 24.1837 83.2983 25.7688L83.8823 25.9592C86.776 26.9064 89.2791 27.8068 91.1274 29.5461C93.1444 31.4442 94.2934 34.2386 94.6257 38.8149L94.6477 39.1328C94.9169 43.2141 94.7138 48.3043 93.3061 53.6528C92.8207 53.541 92.326 53.4537 91.8235 53.3914C93.2451 48.0579 93.4243 42.9699 93.1296 38.9241C92.8116 34.5436 91.7353 32.178 90.0996 30.6387C88.5234 29.1555 86.3472 28.3469 83.4284 27.3892L82.8347 27.1953C77.9537 25.6093 74.1839 23.414 71.7124 21.0723L71.4773 20.8452C69.0286 18.4339 66.187 17.5 63.3747 17.5C60.6065 17.5 57.81 18.405 55.3877 20.7332L55.2724 20.8452C52.8078 23.2718 48.9491 25.5583 43.915 27.1953C40.6956 28.242 38.3316 29.0575 36.6504 30.6401C35.0145 32.18 33.9381 34.5454 33.6201 38.9238C33.1435 45.4634 33.9085 54.7386 39.1618 63.3643L39.312 63.6079C42.4867 68.7033 46.9975 72.414 51.4726 74.8608C56.0318 77.3536 60.4894 78.5 63.3747 78.5C66.2602 78.5 70.7179 77.3546 75.2771 74.8623C75.7401 74.6092 76.2032 74.3419 76.6655 74.0615C76.8755 74.5186 77.1081 74.9632 77.3623 75.3936C76.9073 75.6679 76.4518 75.9297 75.9968 76.1785C71.2833 78.7551 66.5777 80 63.3747 80C60.1717 80 55.4663 78.7541 50.7529 76.177C46.0263 73.5927 41.2267 69.6348 37.8811 64.1448L37.8808 64.1445C32.4126 55.166 31.6333 45.5478 32.124 38.8149C32.4563 34.2406 33.6052 31.4464 35.622 29.5479C37.5936 27.6921 40.31 26.79 43.4511 25.7688C48.3258 24.1836 51.9619 21.9996 54.2199 19.7764C56.9736 17.0647 60.2044 16 63.3747 16Z" fill="#11604D"/>
<path d="M63.9387 21.002C64.2068 20.9855 64.4703 21.0748 64.6689 21.2505C64.8676 21.4262 64.9852 21.6738 64.998 21.9387C65.0377 22.7554 65.0746 23.5771 65.1084 24.395C65.6626 39.1412 65.6321 53.8642 64.6313 68.5959C64.5638 69.3914 64.4873 70.244 64.3716 71.0498C64.3573 71.1469 64.3046 71.235 64.2258 71.2944C64.1469 71.3539 64.0482 71.3799 63.9509 71.3669C63.8536 71.3539 63.7653 71.3027 63.7048 71.2246C63.6443 71.1465 63.6166 71.0477 63.6284 70.9502C63.7191 70.1769 63.7748 69.327 63.8208 68.5388C64.4434 53.8637 64.0991 39.1437 63.1738 24.4998C63.1194 23.6874 63.0621 22.8717 63.0019 22.0613C62.9823 21.7968 63.0688 21.5366 63.2446 21.3379C63.4202 21.1393 63.6706 21.0184 63.9387 21.002Z" fill="#11604D"/>
<path d="M37.3735 39.2368C37.4433 39.2417 37.5089 39.2742 37.5571 39.3271C37.6053 39.3801 37.6316 39.4491 37.6357 39.5195C37.6647 40.0033 37.6952 40.4953 37.728 40.9766C37.8589 42.9174 38.0173 44.8272 38.206 46.7363C38.7205 51.953 40.1517 57.0842 42.6592 61.7178C43.357 63.0097 44.1591 64.2502 45.0532 65.4275C45.345 65.8118 45.6466 66.1895 45.9575 66.5601C46.0044 66.616 46.0297 66.688 46.0259 66.7615C46.022 66.8349 45.9896 66.9039 45.9358 66.9531C45.8819 67.0024 45.8105 67.0283 45.737 67.0256C45.6635 67.0229 45.5941 66.9917 45.5425 66.9399C45.1944 66.5905 44.8554 66.2312 44.5261 65.8625C43.5171 64.7332 42.5997 63.5146 41.7934 62.2214C38.9154 57.6191 37.2426 52.2873 36.7134 46.8843C36.5175 44.9062 36.558 42.9109 36.8286 40.9443C36.8961 40.4568 36.9785 39.9618 37.0747 39.4805C37.0886 39.4113 37.124 39.3465 37.1792 39.3008C37.2343 39.255 37.3037 39.232 37.3735 39.2368Z" fill="#11604D"/>
<path d="M81.1299 30.5093C81.1937 30.4755 81.268 30.4675 81.3376 30.4827C81.9405 30.6144 82.5431 30.7564 83.1389 30.9114C84.7834 31.4158 86.5967 31.6532 88.0569 33.2805C88.6182 33.9864 88.8917 34.7623 89.0996 35.5107C89.4107 36.6819 89.545 37.8459 89.6262 39.0046C89.953 43.8353 89.4702 48.7644 88.0857 53.4028C87.6799 53.4557 87.2794 53.525 86.8847 53.6104C88.1377 48.8961 88.5083 43.9565 88.1443 39.1113C88.059 38.0118 87.9226 36.9178 87.6513 35.9014C87.4762 35.2539 87.2444 34.6211 86.9145 34.1685C86.1325 33.0993 84.3556 32.4706 82.8423 31.7612C82.2873 31.5146 81.724 31.2671 81.1623 31.0173C81.0973 30.9884 81.0424 30.938 81.011 30.873C80.9795 30.808 80.974 30.7341 80.9961 30.6667C81.0181 30.5994 81.0661 30.5431 81.1299 30.5093Z" fill="#11604D"/>
<path d="M90 80C96.6274 80 102 74.6274 102 68C102 61.3726 96.6274 56 90 56C83.3726 56 78 61.3726 78 68C78 74.6274 83.3726 80 90 80Z" fill="#39B25E"/>
<path d="M94.5401 63.4197C94.8768 62.982 95.5047 62.8999 95.9424 63.2366C96.3802 63.5734 96.462 64.2012 96.1253 64.639L89.959 72.6551C89.314 73.4936 88.0611 73.5269 87.3726 72.7237L83.9068 68.6802C83.5474 68.2609 83.5959 67.6295 84.0152 67.2701C84.4345 66.9107 85.0659 66.9592 85.4253 67.3785L88.6241 71.1104L94.5401 63.4197Z" fill="white"/>
</svg>
