<svg width="128" height="96" viewBox="0 0 128 96" fill="none" xmlns="http://www.w3.org/2000/svg">
<path d="M69.1297 20.1631C73.1345 19.1058 77.2215 21.4994 78.2576 25.5097L87.0564 59.5732C80.5018 60.9087 75.5371 66.6163 75.3396 73.5176L57.0847 78.3369C51.745 79.7463 46.2971 76.5542 44.9158 71.207L35.9929 36.6679C34.9569 32.6575 37.364 28.5495 41.3689 27.4922L69.1297 20.1631Z" fill="#9F6EB8"/>
<path d="M80.4551 15.5498C84.5811 15.1869 88.2198 18.2372 88.583 22.3633L91.8418 59.3936C91.2385 59.318 90.6238 59.2783 90 59.2783C81.8999 59.2784 75.334 65.8452 75.334 73.9453C75.334 75.6599 75.6282 77.3056 76.1689 78.835L55.4619 80.6582C51.3359 81.0214 47.6964 77.9707 47.333 73.8447L43.1533 26.3613C42.7904 22.2355 45.841 18.5968 49.9668 18.2334L80.4551 15.5498Z" fill="#D3B9EB"/>
<path fill-rule="evenodd" clip-rule="evenodd" d="M80.2927 14.5635C84.8314 14.164 88.8345 17.5199 89.2341 22.0586L92.529 59.4961C92.03 59.4094 91.5224 59.3485 91.0075 59.3135L87.7399 22.1905C87.413 18.477 84.138 15.7308 80.4245 16.0577L49.9899 18.7364C46.2767 19.0635 43.5314 22.3395 43.8581 26.0528L48.0807 74.0332C48.4077 77.7467 51.6837 80.4929 55.3972 80.1661L76.0075 78.3516C76.1642 78.8496 76.3466 79.3361 76.5534 79.8096L55.529 81.6602C54.1107 81.785 52.7442 81.5428 51.5241 81.0127C48.2662 79.8904 45.6123 77.2138 44.6657 73.6221L34.8542 36.3916C33.6935 31.9859 36.3192 27.4537 40.7184 26.2686L42.3405 25.8311C42.14 21.4395 45.4384 17.6314 49.8591 17.2422L80.2927 14.5635ZM41.1003 27.7188C37.501 28.6886 35.3536 32.3973 36.3034 36.002L46.114 73.2325C46.2541 73.7644 46.4385 74.2734 46.6608 74.7559C46.6297 74.5615 46.6041 74.3642 46.5866 74.1651L42.4665 27.3506L41.1003 27.7188Z" fill="#682A7A"/>
<path d="M62.9147 67.3682C65.1253 67.1737 67.347 67.1056 69.5798 67.1631C69.8279 67.1695 70.0765 67.1771 70.3249 67.1866C70.3954 67.1893 70.4654 67.2145 70.5192 67.2618C70.573 67.309 70.6059 67.3747 70.612 67.4444C70.618 67.514 70.597 67.5839 70.5524 67.6397C70.5077 67.6956 70.4426 67.7321 70.3737 67.7471C70.1311 67.7998 69.8881 67.8508 69.6452 67.9004C67.4567 68.3471 65.2563 68.6678 63.0456 68.8623C60.835 69.0569 58.6133 69.126 56.3806 69.0684C56.1325 69.062 55.8838 69.0545 55.6354 69.045C55.565 69.0421 55.4949 69.017 55.4411 68.9698C55.3873 68.9225 55.3535 68.8569 55.3473 68.7872C55.3413 68.7176 55.3633 68.6476 55.4079 68.5918C55.4527 68.5359 55.5177 68.4995 55.5866 68.4844C55.8293 68.4317 56.0722 68.3797 56.3151 68.3301C58.5036 67.8834 60.704 67.5628 62.9147 67.3682Z" fill="#682A7A"/>
<path d="M84.2575 53.0811C84.3299 53.0793 84.4012 53.1038 84.4567 53.1514C84.5121 53.1989 84.547 53.2651 84.5534 53.337C84.5597 53.409 84.5372 53.4816 84.4909 53.5381C84.4446 53.5944 84.3786 53.6307 84.3073 53.6416C83.8135 53.7165 83.319 53.7896 82.8249 53.8614C78.3778 54.5069 73.9192 55.0266 69.4499 55.42C64.9807 55.8133 60.4999 56.0805 56.0085 56.2217C55.5096 56.2374 55.0105 56.2511 54.5114 56.2637C54.439 56.2655 54.3667 56.242 54.3112 56.1944C54.2558 56.1468 54.2209 56.0797 54.2145 56.0079C54.2082 55.9361 54.231 55.8641 54.277 55.8077C54.3233 55.7512 54.3902 55.7141 54.4616 55.7032C54.9554 55.6283 55.45 55.5552 55.944 55.4834C60.3909 54.838 64.849 54.3192 69.3181 53.9258C73.7872 53.5325 78.2681 53.2643 82.7595 53.1231C83.2584 53.1074 83.7582 53.0937 84.2575 53.0811Z" fill="#682A7A"/>
<path d="M83.1325 40.3008C83.2048 40.2991 83.2763 40.3236 83.3317 40.3711C83.3871 40.4186 83.422 40.4849 83.4284 40.5567C83.4347 40.6287 83.4122 40.7013 83.3659 40.7579C83.3196 40.8143 83.2528 40.8505 83.1813 40.8614C82.6877 40.9362 82.1938 41.0094 81.6999 41.0811C77.2528 41.7266 72.7942 42.2463 68.3249 42.6397C63.8556 43.0331 59.3749 43.3002 54.8835 43.4414C54.3845 43.4571 53.8847 43.4709 53.3854 43.4834C53.3133 43.4851 53.2416 43.4615 53.1862 43.4141C53.1308 43.3666 53.0959 43.2994 53.0895 43.2276C53.0832 43.1557 53.1059 43.0839 53.152 43.0274C53.1984 42.9708 53.265 42.9338 53.3366 42.9229C53.8304 42.8481 54.3249 42.7749 54.819 42.7032C59.2659 42.0577 63.724 41.5389 68.1931 41.1455C72.6623 40.7522 77.143 40.484 81.6345 40.3428C82.1335 40.3271 82.6332 40.3134 83.1325 40.3008Z" fill="#682A7A"/>
<path d="M53.6061 29.5498C54.0363 29.512 54.4781 29.6003 54.9304 29.8145C54.9804 29.8382 55.0304 29.8639 55.0807 29.8907C55.1378 29.9216 55.1937 29.9564 55.236 30.001C55.2782 30.0457 55.3044 30.0973 55.3093 30.1524C55.3141 30.2076 55.2972 30.2631 55.2634 30.3145C55.2295 30.3658 55.1813 30.4098 55.1306 30.4502C55.0855 30.4855 55.0401 30.5196 54.9948 30.5518C54.587 30.8417 54.168 31.0061 53.738 31.044C53.3078 31.0818 52.8661 30.9936 52.4138 30.7793C52.3636 30.7556 52.3128 30.73 52.2624 30.7032C52.2055 30.6723 52.1504 30.6374 52.1081 30.5928C52.0658 30.5481 52.0397 30.4958 52.0348 30.4405C52.0301 30.3854 52.046 30.3297 52.0798 30.2784C52.1137 30.227 52.1628 30.1831 52.2136 30.1426C52.2585 30.1074 52.3031 30.0732 52.3483 30.0411C52.7562 29.7511 53.176 29.5878 53.6061 29.5498Z" fill="#682A7A"/>
<path d="M81.6882 27.5489C81.76 27.5486 81.8314 27.5727 81.8864 27.6202C81.9414 27.6676 81.9758 27.7344 81.9821 27.8057C81.9882 27.8768 81.9653 27.9477 81.9196 28.0039C81.8738 28.0602 81.8086 28.0972 81.738 28.1094C81.3664 28.1735 80.9946 28.236 80.6227 28.2969C77.2752 28.8456 73.9163 29.2679 70.5466 29.5645C67.1768 29.8611 63.7959 30.0318 60.404 30.0762C60.0272 30.0812 59.6502 30.0842 59.2731 30.086C59.2014 30.0863 59.1298 30.0622 59.0749 30.0147C59.0201 29.9673 58.9855 29.9012 58.9792 29.8301C58.9729 29.7589 58.9959 29.6872 59.0417 29.6309C59.0874 29.5747 59.1528 29.5387 59.2233 29.5264C59.5949 29.4624 59.9668 29.3989 60.3386 29.3379C63.686 28.7892 67.0451 28.3669 70.4147 28.0704C73.7843 27.7738 77.1655 27.6031 80.5573 27.5586C80.934 27.5537 81.3112 27.5507 81.6882 27.5489Z" fill="#682A7A"/>
<path d="M34.1955 59.0375C34.2641 59.0141 34.3398 59.019 34.406 59.0507C34.4721 59.0824 34.5233 59.1386 34.5507 59.206C34.69 59.5489 34.8287 59.8922 34.9668 60.2355C35.828 62.3771 36.6656 64.5268 37.4797 66.6845L37.4709 66.6603C38.6825 69.5087 39.8521 72.3734 40.9799 75.2543C41.1597 75.7134 41.3261 76.1776 41.479 76.6471L41.4553 76.5939C41.7158 77.2211 42.0554 77.8524 42.465 78.4206C42.6652 78.6937 42.8865 78.9589 43.1355 79.1444C43.1928 79.183 43.2405 79.2379 43.2649 79.3039C43.2891 79.3697 43.2886 79.4409 43.2624 79.5033C43.2361 79.5658 43.1855 79.6159 43.1215 79.6444C43.0576 79.673 42.9854 79.6768 42.9179 79.6625C42.4884 79.5519 42.1318 79.3308 41.8051 79.0888C41.139 78.5817 40.6004 77.9459 40.187 77.2121C40.1824 77.2012 40.167 77.1696 40.1633 77.1584C39.9567 76.7097 39.7637 76.2558 39.5839 75.7968C38.4561 72.916 37.3698 70.0187 36.3256 67.1054C36.3239 67.1006 36.3184 67.0862 36.3169 67.0812C35.6294 64.8803 34.9655 62.6713 34.3252 60.4543C34.2225 60.0989 34.1204 59.7434 34.019 59.3876C33.9991 59.3176 34.0048 59.2419 34.0376 59.1764C34.0703 59.111 34.1269 59.0609 34.1955 59.0375Z" fill="#7D4794"/>
<path d="M31.9831 53.1728C32.047 53.1467 32.1195 53.147 32.1858 53.1728C32.252 53.1985 32.3061 53.2481 32.3422 53.308C32.3635 53.3434 32.3848 53.379 32.4055 53.4147C32.592 53.7357 32.7548 54.0664 32.8945 54.4064C33.0342 54.7465 33.1507 55.0961 33.2436 55.4552C33.2539 55.4951 33.2641 55.5352 33.2739 55.5753C33.2903 55.6434 33.2864 55.7167 33.2573 55.7814C33.2282 55.846 33.1768 55.8967 33.113 55.9228C33.049 55.9488 32.9764 55.9486 32.9101 55.9228C32.8439 55.897 32.7898 55.8474 32.7536 55.7875C32.7323 55.7521 32.7113 55.7165 32.6906 55.6808C32.5041 55.3599 32.3408 55.0294 32.2011 54.6894C32.0614 54.3493 31.9454 53.9994 31.8525 53.6403C31.8422 53.6004 31.832 53.5603 31.8222 53.5202C31.8058 53.4522 31.8094 53.3788 31.8386 53.3141C31.8677 53.2495 31.9192 53.1988 31.9831 53.1728Z" fill="#7D4794"/>
<path d="M102 74C102 80.6274 96.6274 86 90 86C83.3726 86 78 80.6274 78 74C78 67.3726 83.3726 62 90 62C96.6274 62 102 67.3726 102 74Z" fill="#FAB341"/>
<path d="M89.9997 78C90.736 78 91.3325 78.5968 91.3327 79.333C91.3327 80.0694 90.7361 80.667 89.9997 80.667C89.2633 80.667 88.6667 80.0694 88.6667 79.333C88.6669 78.5968 89.2635 78 89.9997 78Z" fill="black"/>
<path d="M89.9997 67C90.3777 67 90.7384 67.1407 90.988 67.3906C91.2383 67.6407 91.3572 67.9795 91.3327 68.333C91.3244 68.4551 91.3166 68.5772 91.3083 68.6992C91.1583 70.8992 91.0081 73.0998 90.8581 75.2998C90.8498 75.4219 90.841 75.5439 90.8327 75.666C90.8184 75.8725 90.7182 76.0708 90.5622 76.2168C90.4057 76.3626 90.2063 76.4443 89.9997 76.4443C89.7932 76.4442 89.5936 76.3626 89.4372 76.2168C89.2813 76.0708 89.181 75.8724 89.1667 75.666C89.1584 75.5439 89.1496 75.4219 89.1413 75.2998C88.9913 73.0998 88.8411 70.8992 88.6911 68.6992C88.6828 68.5772 88.675 68.4551 88.6667 68.333C88.6423 67.9796 88.7613 67.6406 89.0114 67.3906C89.261 67.1407 89.6218 67.0001 89.9997 67Z" fill="black"/>
</svg>
