<svg width="390" height="284" viewBox="0 0 390 284" fill="none" xmlns="http://www.w3.org/2000/svg">
<g clip-path="url(#clip0_139_4302)">
<g filter="url(#filter0_nn_139_4302)">
<path d="M102.67 211.89C51.2253 180.825 -28.3788 179.631 -43 198.15V284H433V214.28C382.097 182.618 329.027 207.709 253.214 242.358C202.27 265.641 145.488 237.746 102.67 211.89Z" fill="#C9E3FF"/>
</g>
<path d="M148.199 234.961C144.524 234.382 142.59 238.823 148.199 245.002C151.101 244.422 160.385 242.684 174.312 240.368C175.472 237.085 173.973 227.385 168.406 228.612C163.803 229.628 162.771 233.803 162.513 234.961C162.126 233.61 160.463 230.559 156.903 229.169C152.455 227.431 148.199 228.01 148.199 234.961Z" fill="#14735D"/>
<path d="M152.965 232.986C152.97 232.926 152.948 232.864 152.91 232.815C152.871 232.765 152.817 232.732 152.758 232.722C152.699 232.712 152.637 232.726 152.584 232.761C152.531 232.795 152.491 232.846 152.476 232.905C152.476 232.905 152.476 232.905 152.476 232.905C152.43 233.089 152.422 233.282 152.426 233.454C152.834 236.528 154.376 239.084 155.497 241.699C155.554 241.833 155.619 241.983 155.66 242.099C155.77 242.382 155.985 242.598 156.272 242.693C156.558 242.789 156.893 242.755 157.189 242.607C157.485 242.459 157.713 242.211 157.807 241.924C157.903 241.637 157.858 241.335 157.698 241.078C157.603 240.922 157.502 240.769 157.412 240.636C155.776 238.219 153.856 235.979 153.008 233.389C152.978 233.254 152.96 233.107 152.965 232.986Z" fill="#82B8B9"/>
<path d="M167.506 234.434C167.518 234.379 167.506 234.316 167.477 234.262C167.448 234.208 167.404 234.167 167.351 234.146C167.298 234.126 167.238 234.127 167.18 234.147C167.123 234.167 167.072 234.205 167.043 234.255C167.043 234.255 167.043 234.255 167.043 234.255C166.994 234.341 166.945 234.426 166.898 234.513C166.042 236.083 165.332 237.694 164.876 239.571C164.853 239.682 164.831 239.794 164.816 239.942C164.768 240.244 164.847 240.534 165.061 240.748C165.274 240.961 165.605 241.081 165.955 241.081C166.305 241.081 166.636 240.961 166.849 240.748C167.063 240.534 167.142 240.244 167.095 239.942C167.095 239.942 167.095 239.942 167.095 239.942C167.08 239.899 167.069 239.817 167.06 239.738C166.944 238.164 167.112 236.398 167.446 234.717C167.465 234.622 167.485 234.529 167.506 234.434Z" fill="#82B8B9"/>
<path d="M174.966 237.973C214.012 230.013 256.312 235.32 308.916 254.557V284.409H26.9163C36.6779 269.815 57.2856 270.478 90.3663 266.498C123.447 262.518 135.92 245.934 174.966 237.973Z" fill="#CFEBDA"/>
<path d="M106.572 263.76C106.64 263.74 106.698 263.695 106.733 263.632C106.768 263.57 106.777 263.497 106.758 263.429C106.739 263.36 106.694 263.302 106.632 263.267C106.57 263.232 106.497 263.222 106.428 263.24C106.428 263.24 106.428 263.24 106.428 263.24C105.351 263.515 104.244 263.776 103.149 264.017C92.2376 266.352 81.1127 267.639 70.0063 268.692C66.7628 268.984 63.4764 269.258 60.2442 269.421C54.3323 269.751 48.5243 270.919 42.9331 272.79C41.858 273.17 40.7835 273.565 39.7648 274.135C39.6937 274.176 39.6407 274.243 39.6181 274.322C39.5956 274.402 39.6051 274.487 39.6448 274.559C39.6846 274.63 39.7513 274.684 39.8304 274.707C39.9095 274.73 39.9945 274.721 40.0672 274.683C40.0672 274.683 40.0672 274.683 40.0672 274.683C41.0234 274.195 42.1034 273.837 43.1673 273.502C48.7277 271.852 54.5205 270.831 60.2925 270.583C63.5648 270.458 66.8597 270.204 70.1173 269.91C81.2633 268.854 92.4104 267.374 103.302 264.659C104.395 264.379 105.499 264.078 106.572 263.76Z" fill="#82B8B9"/>
<path d="M261.943 240.764C262.013 240.778 262.086 240.764 262.145 240.725C262.205 240.687 262.247 240.626 262.262 240.556C262.277 240.487 262.264 240.414 262.225 240.354C262.187 240.294 262.126 240.252 262.057 240.236C262.057 240.236 262.057 240.236 262.057 240.236C260.694 239.922 259.251 239.599 257.883 239.304C244.016 236.295 229.905 234.463 215.695 234.144C204.118 233.881 192.512 234.633 181.092 236.518C179.673 236.752 178.279 237 176.862 237.269C176.781 237.285 176.709 237.331 176.662 237.398C176.615 237.466 176.596 237.55 176.61 237.631C176.624 237.712 176.67 237.784 176.738 237.832C176.805 237.879 176.888 237.898 176.97 237.885C176.97 237.885 176.97 237.885 176.97 237.885C178.389 237.66 179.784 237.454 181.204 237.26C192.625 235.694 204.156 235.106 215.667 235.367C229.796 235.684 243.841 237.316 257.752 239.95C259.125 240.208 260.573 240.491 261.943 240.764Z" fill="#82B8B9"/>
<path d="M288.525 231.251C316.712 222.376 351.983 221.176 397 256.737L397 284L141 284C146.966 266.812 163.237 261.478 199.576 266.812C235.915 272.146 256.525 241.327 288.525 231.251Z" fill="#4D9DFF"/>
<path d="M172.877 235.334C172.908 235.543 173.019 235.731 173.188 235.859C173.356 235.986 173.568 236.042 173.777 236.014C173.985 235.985 174.175 235.875 174.303 235.707C174.431 235.539 174.488 235.327 174.462 235.118C174.462 235.118 174.462 235.118 174.462 235.118C174.392 234.549 174.309 233.975 174.198 233.398C173.954 232.176 173.616 230.905 172.819 229.741C172.054 228.561 170.555 227.725 169.15 227.676C166.115 227.495 163.984 229.84 162.754 231.944C162.199 232.899 161.762 233.909 161.441 234.96L163.111 234.86C161.41 230.763 156.809 226.918 152.011 228.373C151.42 228.558 150.852 228.829 150.345 229.194C150.234 229.274 150.156 229.393 150.13 229.528C150.103 229.663 150.13 229.803 150.206 229.917C150.281 230.031 150.399 230.111 150.534 230.139C150.669 230.168 150.809 230.142 150.926 230.072C150.926 230.072 150.926 230.072 150.926 230.072C151.356 229.816 151.833 229.634 152.326 229.52C156.327 228.651 159.964 231.884 161.479 235.593L162.457 237.747L163.149 235.493C163.443 234.578 163.839 233.685 164.32 232.857C165.404 230.975 167.13 229.306 169.038 229.443C171.065 229.447 172.142 231.499 172.589 233.728C172.703 234.252 172.795 234.79 172.877 235.334Z" fill="#11604D"/>
</g>
<g clip-path="url(#clip1_139_4302)">
<g clip-path="url(#clip2_139_4302)">
<path d="M95.853 83.8784C95.5593 79.403 91.1201 76.4041 86.8322 77.6971L75.4455 81.122C91.0547 59.889 96.4909 36.1828 88.7028 18.4364C86.9018 14.3342 81.025 11.5991 78.1163 15.7126C74.2749 21.1341 57.5584 47.0648 32.4557 61.5681C13.3775 72.5892 -17.4382 84.0895 -56.8181 75.6239C-90.3243 68.999 -118.674 44.8454 -134.898 17.623C-140.815 7.69206 -153.768 7.55125 -159.107 17.8174C-164.291 27.7758 -166.419 35.2949 -168.576 46.9185C-180.708 113.305 -113.33 187.43 -47.0017 194.382C15.276 200.915 42.6386 181.641 51.2029 160.977C52.8809 156.819 50.1845 152.189 45.7639 151.479L38.512 150.323C74.0484 136.856 97.5527 109.415 95.8722 83.8804L95.8658 83.8797L95.853 83.8784Z" fill="white"/>
<path d="M31.9114 151.967C31.8222 151.997 31.7446 152.057 31.6968 152.14C31.649 152.222 31.6348 152.319 31.6576 152.41C31.6804 152.501 31.7386 152.58 31.8196 152.63C31.9006 152.68 31.9976 152.697 32.0905 152.682C32.0905 152.682 32.0905 152.682 32.0905 152.682C34.0591 152.355 36.0105 151.894 37.9155 151.257C38.1962 151.163 38.4758 151.065 38.7541 150.963C39.0856 150.841 39.4155 150.717 39.7436 150.589C67.5776 139.637 97.2454 116.617 96.5444 83.8362L96.5073 83.2696L95.9422 83.2102C95.9401 83.2099 95.9379 83.2097 95.9358 83.2095C95.9315 83.209 95.9273 83.2086 95.923 83.2081L96.5252 83.8343C96.3701 80.7284 94.0639 77.9163 91.1033 77.055C89.6581 76.6113 88.0737 76.6588 86.6665 77.1486C86.6651 77.1491 86.6633 77.1498 86.6616 77.1504C84.7894 77.7998 82.9266 78.4807 81.0516 79.1206C80.9786 79.1456 80.9176 79.1998 80.8816 79.2696C80.8457 79.3396 80.8378 79.4195 80.86 79.4934C80.8822 79.5673 80.9329 79.6295 81.0015 79.6681C81.07 79.7065 81.1507 79.718 81.2254 79.6986C81.2254 79.6986 81.2254 79.6986 81.2254 79.6986C83.1424 79.198 85.0717 78.7382 86.9915 78.2471C86.9933 78.2467 86.9951 78.2462 86.9969 78.2458C88.2311 77.9317 89.5196 77.9768 90.7121 78.3414C93.1639 79.0594 95.0536 81.3685 95.1801 83.9226L95.2175 84.4896L95.7824 84.5488C95.7866 84.5492 95.7909 84.5497 95.7952 84.5501C95.7973 84.5503 95.7994 84.5506 95.8016 84.5508L95.1994 83.9247C95.9508 115.584 66.8061 138.511 39.2438 149.303C38.9193 149.429 38.5944 149.556 38.2692 149.683C38.0019 149.788 37.7336 149.891 37.4647 149.993C35.6393 150.686 33.7826 151.331 31.9114 151.967Z" fill="black"/>
<path d="M42.1955 150.537C42.1031 150.535 42.01 150.561 41.9353 150.618C41.8607 150.674 41.8108 150.756 41.7963 150.847C41.7819 150.937 41.8039 151.031 41.8572 151.108C41.9105 151.185 41.9908 151.239 42.0794 151.265C42.0794 151.265 42.0794 151.265 42.0794 151.265C43.2629 151.616 44.4558 151.907 45.6581 152.14C45.6706 152.143 45.6839 152.145 45.6972 152.148C46.0543 152.22 46.4048 152.316 46.7459 152.435C50.0325 153.493 51.9496 157.542 50.5635 160.72C44.0269 176.746 27.83 186.527 11.4641 190.848C10.6363 191.074 9.81261 191.329 8.99686 191.587C7.80653 191.963 6.65269 192.341 5.43891 192.667C5.36592 192.687 5.3023 192.737 5.26151 192.803C5.22075 192.869 5.20617 192.946 5.2215 193.02C5.23682 193.094 5.28095 193.16 5.3447 193.204C5.40842 193.249 5.48654 193.269 5.56135 193.258C5.56135 193.258 5.56135 193.258 5.56135 193.258C6.81114 193.073 8.02504 192.919 9.26862 192.7C10.121 192.551 10.9776 192.374 11.8172 192.145C28.3952 187.78 45.0597 177.823 51.8387 161.241C53.5313 157.339 51.2036 152.424 47.1987 151.132C46.7835 150.987 46.3526 150.884 45.9181 150.825C45.9019 150.823 45.8857 150.821 45.8695 150.818C44.6537 150.666 43.4293 150.572 42.1955 150.537Z" fill="black"/>
<path d="M-34.542 78.1714C-34.6378 78.1703 -34.7315 78.2046 -34.8028 78.2697C-34.8741 78.3346 -34.9171 78.4245 -34.9222 78.52C-34.9274 78.6156 -34.8944 78.7096 -34.8305 78.7819C-34.7666 78.8542 -34.6771 78.8984 -34.5818 78.9077C-34.5818 78.9077 -34.5818 78.9077 -34.5818 78.9077C-30.8094 79.2734 -27.0028 79.3299 -23.2142 79.1198C-21.9884 79.0518 -20.761 78.9556 -19.5404 78.8332C-1.1907 76.8593 16.6668 71.1148 32.7991 62.1636C51.8015 51.0461 66.5127 34.0639 78.6712 16.1063C80.9946 12.499 86.6127 15.1071 88.0805 18.7096C95.8256 36.7572 89.5874 57.5856 79.58 73.7983C78.2104 76.0185 76.7823 78.2152 75.2939 80.3588C75.194 80.5026 75.0938 80.6463 74.9931 80.79L75.0067 80.7722C72.8323 83.5919 70.5526 86.3985 67.7498 88.5665C67.6871 88.6136 67.6454 88.6846 67.6335 88.7629C67.6216 88.8413 67.6404 88.9207 67.6863 88.9844C67.7323 89.048 67.8017 89.0909 67.8798 89.1044C67.9579 89.1178 68.0384 89.1006 68.1029 89.0559C68.1029 89.0559 68.1029 89.0559 68.1029 89.0559C71.0837 86.927 73.5464 84.2314 75.8833 81.4722L75.8969 81.4544C76.0051 81.314 76.1128 81.1734 76.22 81.0326C77.818 78.9345 79.3354 76.7547 80.7242 74.5044C90.8501 58.0779 97.3215 36.8875 89.3241 18.1638C88.3316 15.9609 86.4789 14.2502 84.2194 13.4111C82.0112 12.4852 78.9101 13.1642 77.5601 15.3198C65.4308 33.2308 50.8385 50.0206 32.1113 60.973C16.2067 69.7998 -1.56505 75.5188 -19.6781 77.4603C-20.8835 77.5813 -22.094 77.6889 -23.3024 77.7814C-27.0376 78.0671 -30.7848 78.2121 -34.542 78.1714Z" fill="black"/>
</g>
</g>
<defs>
<filter id="filter0_nn_139_4302" x="-43" y="186" width="476" height="98" filterUnits="userSpaceOnUse" color-interpolation-filters="sRGB">
<feFlood flood-opacity="0" result="BackgroundImageFix"/>
<feBlend mode="normal" in="SourceGraphic" in2="BackgroundImageFix" result="shape"/>
<feTurbulence type="fractalNoise" baseFrequency="0.35962474346160889 0.35962474346160889" stitchTiles="stitch" numOctaves="3" result="noise" seed="2151" />
<feComponentTransfer in="noise" result="coloredNoise1">
<feFuncR type="linear" slope="2" intercept="-0.5" />
<feFuncG type="linear" slope="2" intercept="-0.5" />
<feFuncB type="linear" slope="2" intercept="-0.5" />
<feFuncA type="discrete" tableValues="1 1 1 1 1 1 1 1 1 1 1 1 1 1 1 1 1 1 1 1 1 1 1 1 1 1 1 1 1 1 1 1 1 1 1 1 1 1 1 1 1 1 1 1 1 1 1 1 1 1 1 0 0 0 0 0 0 0 0 0 0 0 0 0 0 0 0 0 0 0 0 0 0 0 0 0 0 0 0 0 0 0 0 0 0 0 0 0 0 0 0 0 0 0 0 0 0 0 0 0 "/>
</feComponentTransfer>
<feComposite operator="in" in2="shape" in="coloredNoise1" result="noise1Clipped" />
<feComponentTransfer in="noise1Clipped" result="color1">
<feFuncA type="table" tableValues="0 0.1" />
</feComponentTransfer>
<feMerge result="effect1_noise_139_4302">
<feMergeNode in="shape" />
<feMergeNode in="color1" />
</feMerge>
<feTurbulence type="fractalNoise" baseFrequency="0.18526121973991394 0.18526121973991394" stitchTiles="stitch" numOctaves="3" result="noise" seed="3494" />
<feColorMatrix in="noise" type="luminanceToAlpha" result="alphaNoise" />
<feComponentTransfer in="alphaNoise" result="coloredNoise1">
<feFuncA type="discrete" tableValues="0 0 0 0 0 0 0 0 0 0 0 0 0 0 0 0 0 1 1 1 1 1 1 1 1 1 1 1 1 1 1 1 0 0 0 0 0 0 0 0 0 0 0 0 0 0 0 0 0 0 0 0 0 0 0 0 0 0 0 0 0 0 0 0 0 0 0 0 0 0 0 0 0 0 0 0 0 0 0 0 0 0 0 0 0 0 0 0 0 0 0 0 0 0 0 0 0 0 0 0 "/>
</feComponentTransfer>
<feComposite operator="in" in2="effect1_noise_139_4302" in="coloredNoise1" result="noise1Clipped" />
<feFlood flood-color="rgba(255, 255, 255, 0.18)" result="color1Flood" />
<feComposite operator="in" in2="noise1Clipped" in="color1Flood" result="color1" />
<feMerge result="effect2_noise_139_4302">
<feMergeNode in="effect1_noise_139_4302" />
<feMergeNode in="color1" />
</feMerge>
</filter>
<clipPath id="clip0_139_4302">
<rect width="390" height="197" fill="white" transform="translate(0 87)"/>
</clipPath>
<clipPath id="clip1_139_4302">
<rect width="104" height="196" fill="white" transform="translate(0 8)"/>
</clipPath>
<clipPath id="clip2_139_4302">
<rect width="184" height="171.034" fill="white" transform="translate(87.7671 -18) rotate(65.5026)"/>
</clipPath>
</defs>
</svg>
