<svg width="128" height="96" viewBox="0 0 128 96" fill="none" xmlns="http://www.w3.org/2000/svg">
<path d="M55.4425 17.6941C56.6289 14.7391 59.6609 12.9577 62.8197 13.3601L86.1191 16.3282C91.0006 16.95 93.98 22.0146 92.1523 26.5835L81.4443 53.3492C80.9691 53.3027 80.4873 53.2788 79.9999 53.2788C71.8998 53.2789 65.3334 59.8454 65.3334 67.9456C65.3334 71.9486 66.9373 75.5767 69.5373 78.2232C67.7629 79.3248 65.6229 79.831 63.4369 79.5525L41.1877 76.7181C36.6432 76.1391 33.872 71.4218 35.5788 67.1704L55.4425 17.6941Z" fill="#75B6EB"/>
<path d="M55.4788 18.0401C56.7722 14.8979 60.0117 13.0129 63.3826 13.4412L84.1346 16.0782C87.9843 16.5673 90.2995 20.6006 88.7806 24.1717L76.1866 53.7798C69.9354 55.4585 65.3333 61.1647 65.3333 67.9458C65.3333 69.8187 65.6844 71.6095 66.3243 73.2561C65.0433 73.9792 63.5352 74.3015 61.9981 74.1082L41.4502 71.5247C37.625 71.0437 35.3027 67.0587 36.7701 63.4935L55.4788 18.0401Z" fill="#F5FBFE"/>
<path d="M39.0368 47.3112C39.1022 47.3098 39.1699 47.3223 39.2282 47.3566C39.2865 47.391 39.3307 47.4438 39.352 47.5063C39.3732 47.5687 39.3706 47.6377 39.3456 47.7011C39.3206 47.7646 39.2749 47.8168 39.2226 47.8566C39.1389 47.9198 39.0546 47.9818 38.9699 48.0419C38.2075 48.5836 37.4033 49.0025 36.5573 49.2988C35.7112 49.595 34.8232 49.7687 33.8935 49.8195C33.7902 49.8252 33.6863 49.8291 33.582 49.8317C33.5165 49.8331 33.4489 49.8207 33.3905 49.7863C33.3322 49.752 33.2881 49.6994 33.2668 49.6369C33.2455 49.5744 33.2482 49.5055 33.2731 49.4421C33.2981 49.3785 33.3438 49.3264 33.3962 49.2866C33.4798 49.2234 33.5639 49.1614 33.6486 49.1013C34.411 48.5596 35.2154 48.1404 36.0614 47.8442C36.9075 47.5479 37.7955 47.3743 38.7253 47.3234C38.8286 47.3178 38.9325 47.3138 39.0368 47.3112Z" fill="#1074CC"/>
<path d="M33.6589 35.3447C33.774 35.3549 33.8886 35.3666 34.0024 35.3801C35.0261 35.5009 35.9957 35.7509 36.9111 36.1293C37.8265 36.5078 38.688 37.015 39.495 37.6511C39.5847 37.7217 39.6736 37.794 39.7619 37.8679C39.8085 37.9071 39.8462 37.9615 39.8625 38.029C39.8787 38.0965 39.8725 38.1707 39.8442 38.238C39.8159 38.3051 39.7672 38.3617 39.7074 38.3976C39.6476 38.4337 39.5818 38.4456 39.5209 38.4404C39.4059 38.4301 39.2916 38.4181 39.1779 38.4047C38.1541 38.2839 37.1842 38.0342 36.2687 37.6557C35.3533 37.2773 34.492 36.7702 33.685 36.1342C33.5953 36.0636 33.5064 35.991 33.4181 35.9172C33.3715 35.878 33.3338 35.8235 33.3175 35.756C33.3013 35.6886 33.3073 35.6143 33.3356 35.5471C33.3639 35.4798 33.4128 35.4232 33.4726 35.3872C33.5324 35.3511 33.5979 35.3394 33.6589 35.3447Z" fill="#1074CC"/>
<path d="M42.5258 24.592C42.5912 24.6002 42.6482 24.6319 42.6935 24.674C42.7695 24.7452 42.844 24.8174 42.9172 24.8903C43.5762 25.5475 44.1224 26.2777 44.5551 27.0812C44.9878 27.8848 45.3071 28.7617 45.5133 29.7116C45.5363 29.8171 45.5579 29.9236 45.578 30.031C45.5898 30.0948 45.5875 30.1649 45.5624 30.2316C45.5374 30.2983 45.4921 30.3559 45.434 30.3935C45.3758 30.4311 45.3078 30.4466 45.2424 30.4384C45.177 30.4302 45.1199 30.3985 45.0746 30.3564C44.9986 30.2852 44.9242 30.2128 44.851 30.1398C44.1919 29.4827 43.646 28.7522 43.2133 27.9487C42.7807 27.1452 42.4613 26.2686 42.255 25.3188C42.2321 25.2133 42.2105 25.1066 42.1904 24.9992C42.1786 24.9354 42.1806 24.8655 42.2057 24.7988C42.2308 24.7321 42.276 24.6745 42.3341 24.6369C42.3923 24.5993 42.4604 24.5838 42.5258 24.592Z" fill="#1074CC"/>
<path d="M45.9598 39.4704C46.1165 39.087 46.5544 38.9033 46.9379 39.0598C47.3212 39.2164 47.5051 39.6542 47.3485 40.0376L36.4242 66.7917C34.8367 70.6798 37.2438 75.0392 41.3771 75.7693L63.3302 78.5017L63.5194 78.5212C65.395 78.6957 67.2222 78.278 68.7858 77.3977C69.1166 77.7898 69.4677 78.1642 69.8373 78.5195C67.8867 79.7086 65.5521 80.2648 63.1603 79.9919L63.1564 79.9917L63.1527 79.9912L41.1696 77.2551L41.1513 77.2529L41.1332 77.2497C36.0483 76.3624 33.0843 71.0033 35.0355 66.2246L45.9598 39.4704Z" fill="#045EB2"/>
<path d="M51.0653 72.497C51.8235 72.5625 52.5825 72.6232 53.3412 72.6843C54.7182 72.7952 56.0954 72.9074 57.4686 73.0495C58.4318 73.1492 59.3953 73.2476 60.3576 73.3452C60.9748 73.4066 61.5923 73.4678 62.2096 73.529C63.5775 73.6802 64.9477 73.3388 66.1046 72.6506C66.2492 73.0777 66.4133 73.4958 66.5951 73.9043C65.2067 74.6241 63.6125 74.9328 62.0707 74.6975C61.4563 74.6126 60.8418 74.5275 60.2262 74.4426C59.2673 74.3083 58.3082 74.1745 57.349 74.0422C55.9813 73.8536 54.617 73.6349 53.2531 73.415C52.5016 73.2939 51.7501 73.1725 50.9982 73.0556C50.927 73.0445 50.8618 73.0046 50.8175 72.9463C50.7733 72.8878 50.7532 72.8152 50.7619 72.7436C50.7705 72.6721 50.8073 72.6065 50.8641 72.5603C50.921 72.5141 50.9935 72.4909 51.0653 72.497Z" fill="#045EB2"/>
<path d="M48.8139 71.9741C48.9702 71.9871 49.1219 72.059 49.2684 72.1897C49.2847 72.2042 49.3009 72.2196 49.317 72.2356C49.363 72.2818 49.4071 72.3286 49.4381 72.3786C49.4691 72.4288 49.4846 72.4803 49.4804 72.5315C49.476 72.5826 49.4521 72.6307 49.4132 72.675C49.3743 72.7192 49.3233 72.7581 49.2704 72.7961C49.2518 72.8092 49.2332 72.8216 49.2147 72.8332C49.0486 72.9378 48.8872 72.9837 48.7308 72.9707C48.5745 72.9576 48.423 72.8855 48.2765 72.7549C48.2602 72.7404 48.2438 72.7251 48.2277 72.7092C48.1817 72.663 48.1379 72.6162 48.1068 72.5661C48.0758 72.5159 48.0603 72.4645 48.0646 72.4133C48.0689 72.3621 48.0926 72.3141 48.1315 72.2697C48.1704 72.2255 48.2216 72.1866 48.2745 72.1487C48.2931 72.1356 48.3116 72.1231 48.33 72.1115C48.4961 72.0069 48.6575 71.9611 48.8139 71.9741Z" fill="#045EB2"/>
<path d="M79.3429 46.2761C79.4114 46.2494 79.4873 46.2505 79.5543 46.2793C79.6213 46.3081 79.6747 46.3625 79.7025 46.4306C79.7303 46.4987 79.7301 46.575 79.7042 46.6433C79.4338 47.3549 79.1616 48.066 78.8881 48.7763C78.2696 50.3823 77.6431 51.9847 77.0084 53.5837C76.5436 53.68 76.0869 53.7983 75.6393 53.9375C76.482 52.1137 77.3356 50.2947 78.2003 48.4804C78.5278 47.7934 78.8568 47.1066 79.1874 46.4209C79.2191 46.3552 79.2744 46.3028 79.3429 46.2761Z" fill="#045EB2"/>
<path d="M54.6149 18.2253C56.0608 14.7156 59.6242 12.5675 63.3903 12.9133L63.57 12.9316L63.5729 12.9321L63.5758 12.9323L85.7142 15.6069L85.7191 15.6074C91.3048 16.319 94.7274 22.0988 92.6661 27.3388L92.6652 27.3415L92.6639 27.3442L82.1742 53.4384C81.6632 53.3625 81.1436 53.313 80.6168 53.2912L91.2701 26.7898C92.9729 22.4612 90.1474 17.6868 85.5346 17.0959L63.3959 14.4216C60.2315 14.0675 57.2147 15.8519 56.0016 18.7964L48.682 36.5637C48.5242 36.9466 48.0859 37.1291 47.703 36.9714C47.3201 36.8136 47.1376 36.3751 47.2953 35.9922L54.6149 18.2253Z" fill="#045EB2"/>
<path d="M68.2208 17.4316C68.3458 17.4438 68.4709 17.4558 68.5958 17.468C70.8463 17.6873 73.097 17.9068 75.3475 18.1262C75.4725 18.1384 75.5978 18.1504 75.7228 18.1626C75.9208 18.1818 76.1011 18.2792 76.2235 18.436C76.3459 18.5926 76.4007 18.7959 76.3759 18.9983C76.351 19.2006 76.2486 19.3849 76.0919 19.5073C75.9352 19.6298 75.7367 19.6805 75.5399 19.6513C75.4157 19.633 75.2913 19.6148 75.1671 19.5964L68.0839 18.5481C67.9399 18.5267 67.8089 18.4477 67.7196 18.3305C67.6303 18.2133 67.5901 18.0672 67.6078 17.9228C67.6255 17.7785 67.7 17.6469 67.8148 17.5547C67.9298 17.4626 68.076 17.4176 68.2208 17.4316Z" fill="#045EB2"/>
<path fill-rule="evenodd" clip-rule="evenodd" d="M76.1758 45.289C73.796 51.8922 66.2842 56.1722 59.3904 54.8527C52.4966 53.5332 48.8401 47.1157 51.2199 40.5125C53.5997 33.9093 61.1115 29.6294 68.0053 30.9488C74.8991 32.2683 78.5556 38.6858 76.1758 45.289ZM73.0563 44.692C71.8514 48.0354 68.8895 50.5855 65.5013 51.5842C65.8667 50.9108 66.3309 49.3462 65.9856 48.5661C65.9146 48.4035 64.3996 48.9206 63.4612 49.3121C63.3622 49.1194 63.1168 48.9731 62.56 48.9534C62.508 48.9507 62.4594 48.9508 62.4127 48.9508C62.3794 48.9509 62.347 48.9509 62.3149 48.95C62.3473 48.087 62.4531 47.3437 62.6812 46.8907C62.2059 46.4831 61.9413 46.0661 61.9167 45.9186C61.8689 45.6736 62.1188 45.6097 62.207 45.6886C62.211 45.6956 62.221 45.7037 62.2371 45.713C62.7344 46.1496 63.591 46.6861 64.9019 47.0053C65.0574 47.0413 65.219 47.0784 65.3827 47.1097C67.5414 47.5043 69.0854 46.9431 69.0115 46.5006C68.9757 46.2946 68.5116 46.2566 67.8173 46.1998C67.0395 46.1362 65.9727 46.049 64.8951 45.6754C63.386 45.1507 63.4796 44.4236 63.7864 44.1657C64.2535 43.7758 64.8177 43.9095 65.6252 44.1008C66.0517 44.2019 66.5462 44.319 67.1301 44.3836C68.8192 44.5703 69.912 44.3076 70.6304 43.8429C71.01 43.599 71.2464 43.3028 71.2124 43.0914C71.1761 42.9044 70.9262 42.7883 70.0476 42.9243C69.4368 43.0185 68.5323 43.1185 67.403 43.0327C68.0075 41.913 68.9527 37.6178 66.0947 36.3941C66.0846 36.386 66.0746 36.3779 66.0667 36.3639C65.5872 35.1504 64.1115 34.3045 62.411 34.0779C63.8857 33.7166 65.4268 33.6494 66.9284 33.9368C72.097 34.9261 74.8405 39.7413 73.0563 44.692ZM63.737 50.813C63.6701 50.9986 64.7224 51.5548 65.2208 51.6631C64.3111 51.9066 63.3736 52.0382 62.4336 52.0435C62.4213 51.9021 62.4097 51.7627 62.3993 51.6294C62.0302 51.6643 61.5405 51.6202 61.1968 51.5669C60.9392 51.5175 60.7341 51.4659 60.6773 51.2998C60.4051 51.4314 60.0581 51.5683 59.7049 51.6866C59.1373 51.8766 58.5537 52.0189 58.2381 52.015C58.1329 52.0137 58.0575 51.9962 58.0223 51.9588C57.8851 51.8164 57.8424 51.4224 57.8686 50.9503C57.9181 50.0595 58.2131 48.8904 58.5818 48.6079C58.7085 48.508 58.8871 48.4801 59.0874 48.4998C58.6481 49.1793 58.4362 51.0261 58.6078 51.2514C58.7754 51.4697 60.7652 50.8448 60.772 50.6102C60.7939 50.1177 60.9446 49.6996 61.057 49.4417C61.155 49.3674 61.4078 49.273 61.5682 49.2416C61.533 49.3032 61.5019 49.3717 61.4786 49.4542C61.3802 49.7271 61.2471 50.2045 61.2466 50.4217C61.2536 50.69 61.2981 50.8723 61.761 50.9547C62.2299 51.0382 63.0173 51.0834 63.2037 50.908C63.3901 50.7326 63.5273 49.9021 63.5224 49.628L63.5118 49.4956C63.5099 49.4829 63.508 49.4701 63.5041 49.4631L63.6663 49.4942C63.8899 49.5929 64.062 49.7313 63.737 50.813ZM54.3394 41.1096C53.0134 44.7889 54.1882 48.3933 57.0007 50.4081C57.0793 49.2957 57.2094 47.6574 57.4217 45.4246C57.8925 40.4675 58.3646 36.4418 63.418 36.1239C63.4707 36.1216 63.5077 36.0728 63.4818 36.0368C63.1157 35.4701 62.2416 35.2159 61.2957 35.2149C61.2511 35.2126 61.2313 35.1777 61.2438 35.1429C61.248 35.1313 61.2522 35.1196 61.2685 35.1103C61.5833 34.8664 62.0448 34.7188 62.3537 34.6351C62.2406 34.4623 62.0629 34.3226 61.8963 34.2168C58.5073 35.2151 55.5446 37.7655 54.3394 41.1096ZM74.6161 44.9905C72.5345 50.7663 65.9588 54.5129 59.9288 53.3587C53.8989 52.2046 50.6981 46.5868 52.7796 40.811C54.8612 35.0353 61.4369 31.2887 67.4669 32.4428C73.4968 33.5969 76.6976 39.2147 74.6161 44.9905ZM67.7228 39.3939L67.7029 39.3794C67.568 39.2806 67.4008 39.1581 67.062 39.0874C66.7063 39.0131 66.4506 39.0573 66.2779 39.1049C66.221 39.1189 66.165 39.0585 66.206 39.0167C66.3942 38.854 66.7133 38.7599 67.1499 38.8435C67.5864 38.927 67.7319 39.1349 67.8064 39.3416C67.8242 39.3823 67.7589 39.4194 67.7228 39.3939ZM67.3846 41.3034C67.2569 41.6576 66.8491 41.89 66.4732 41.818C66.0973 41.7461 65.8988 41.3977 66.0265 41.0434C66.1541 40.6891 66.5619 40.4568 66.9379 40.5287C67.3138 40.6007 67.5144 40.9433 67.3846 41.3034ZM61.5415 39.856C61.9781 39.9395 62.2083 40.3437 62.0576 40.7618C61.9069 41.18 61.4339 41.4495 60.9973 41.3659C60.5608 41.2824 60.3305 40.8782 60.4812 40.4601C60.6259 40.0408 61.105 39.7724 61.5415 39.856ZM61.2151 38.3159C60.73 38.4031 60.5296 38.5634 60.4008 38.6691C60.3537 38.7098 60.2406 38.682 60.2594 38.6297C60.3432 38.3974 60.6952 38.0861 61.2288 38.0082C61.8314 37.9186 62.1749 38.1706 62.3044 38.3506C62.3364 38.3878 62.2812 38.4331 62.2369 38.4122C62.0253 38.3158 61.7002 38.2288 61.2151 38.3159ZM67.262 41.0502C67.2285 41.1431 67.1225 41.2035 67.0255 41.1849C66.9285 41.1663 66.8768 41.0758 66.9103 40.9828C66.9438 40.8899 67.0499 40.8295 67.1469 40.8481C67.2439 40.8666 67.2955 40.9572 67.262 41.0502ZM61.9194 40.4621C61.8796 40.5725 61.7572 40.6422 61.642 40.6201C61.5268 40.5981 61.4673 40.4936 61.5071 40.3832C61.5468 40.2729 61.6692 40.2032 61.7844 40.2252C61.8996 40.2473 61.9591 40.3518 61.9194 40.4621Z" fill="#F05F2B"/>
<path d="M80 80C86.6274 80 92 74.6274 92 68C92 61.3726 86.6274 56 80 56C73.3726 56 68 61.3726 68 68C68 74.6274 73.3726 80 80 80Z" fill="#39B25E"/>
<path d="M84.5406 63.4197C84.8773 62.982 85.5052 62.8999 85.9429 63.2366C86.3807 63.5734 86.4625 64.2012 86.1258 64.639L79.9595 72.6551C79.3145 73.4936 78.0616 73.5269 77.3731 72.7237L73.9073 68.6802C73.5479 68.2609 73.5964 67.6295 74.0157 67.2701C74.435 66.9107 75.0664 66.9592 75.4258 67.3785L78.6246 71.1104L84.5406 63.4197Z" fill="white"/>
</svg>
