<svg width="60" height="60" viewBox="0 0 60 60" fill="none" xmlns="http://www.w3.org/2000/svg">
<g filter="url(#filter0_d_595_179)">
<rect x="10" y="5" width="40" height="40" rx="8" fill="white"/>
<g clip-path="url(#clip0_595_179)">
<path d="M29.1645 17.7285C29.3657 16.9238 30.5093 16.9238 30.7105 17.7285L31.1564 19.512C31.7512 21.8911 33.6088 23.7488 35.9879 24.3436L37.7714 24.7895C38.5762 24.9907 38.5762 26.1343 37.7714 26.3355L35.9879 26.7814L35.8768 26.8103C33.5511 27.4344 31.7419 29.271 31.1564 31.6129L30.7105 33.3964L30.7005 33.4335C30.4775 34.1888 29.3975 34.1888 29.1745 33.4335L29.1645 33.3964L28.7186 31.6129C28.1331 29.271 26.3239 27.4344 23.9981 26.8103L23.887 26.7814L22.1036 26.3355C21.2988 26.1343 21.2988 24.9907 22.1036 24.7895L23.887 24.3436C26.229 23.7581 28.0656 21.9489 28.6897 19.6231L28.7186 19.512L29.1645 17.7285ZM29.9375 20.362C29.1448 22.8318 27.2068 24.7698 24.737 25.5625C27.2068 26.3552 29.1447 28.2931 29.9375 30.7629C30.7302 28.2931 32.6681 26.3552 35.1379 25.5625C32.6681 24.7697 30.7302 22.8318 29.9375 20.362ZM36.4299 16.2012C36.4969 15.9329 36.878 15.9329 36.9451 16.2012L37.0939 16.7957C37.2921 17.5887 37.9113 18.2079 38.7043 18.4061L39.2988 18.5549C39.567 18.6219 39.567 19.003 39.2988 19.0701L38.7043 19.2188L38.6304 19.2386C37.873 19.456 37.2859 20.0611 37.0939 20.8293L36.9795 21.2863L36.9451 21.4238L36.938 21.4481C36.8573 21.6839 36.5177 21.6839 36.437 21.4481L36.4299 21.4238L36.3954 21.2863L36.2811 20.8293C36.0891 20.0611 35.502 19.456 34.7446 19.2386L34.6707 19.2188L34.0762 19.0701C33.8079 19.003 33.8079 18.6219 34.0762 18.5549L34.2135 18.5204L34.6707 18.4061C35.4389 18.2141 36.044 17.627 36.2614 16.8696L36.2811 16.7957L36.4299 16.2012Z" fill="url(#paint0_linear_595_179)" fill-opacity="0.84"/>
</g>
</g>
<defs>
<filter id="filter0_d_595_179" x="0" y="0" width="60" height="60" filterUnits="userSpaceOnUse" color-interpolation-filters="sRGB">
<feFlood flood-opacity="0" result="BackgroundImageFix"/>
<feColorMatrix in="SourceAlpha" type="matrix" values="0 0 0 0 0 0 0 0 0 0 0 0 0 0 0 0 0 0 127 0" result="hardAlpha"/>
<feOffset dy="5"/>
<feGaussianBlur stdDeviation="5"/>
<feColorMatrix type="matrix" values="0 0 0 0 0 0 0 0 0 0 0 0 0 0 0 0 0 0 0.06 0"/>
<feBlend mode="normal" in2="BackgroundImageFix" result="effect1_dropShadow_595_179"/>
<feBlend mode="normal" in="SourceGraphic" in2="effect1_dropShadow_595_179" result="shape"/>
</filter>
<linearGradient id="paint0_linear_595_179" x1="30.5" y1="16" x2="30.5" y2="34" gradientUnits="userSpaceOnUse">
<stop stop-color="#AC33DF"/>
<stop offset="1" stop-color="#5881E5"/>
</linearGradient>
<clipPath id="clip0_595_179">
<rect width="18" height="18" fill="white" transform="translate(21.5 16)"/>
</clipPath>
</defs>
</svg>
