<svg width="205" height="195" viewBox="0 0 205 195" fill="none" xmlns="http://www.w3.org/2000/svg">
<path d="M131.951 34.5542C133.456 28.533 141.794 28.3452 143.726 33.9902L143.893 34.5542L145.801 42.1879C146.476 44.8863 148.583 46.9933 151.281 47.6682L158.915 49.5762C165.13 51.1301 165.13 59.9644 158.915 61.5183L156.13 62.2141C160.514 70.5477 163 80.0361 163 90.1066C163 123.244 136.137 150.107 103 150.107C69.8629 150.107 43 123.244 43 90.1066C43.0003 56.9697 69.8631 30.1066 103 30.1066C113.231 30.1066 122.863 32.6699 131.292 37.1854L131.951 34.5542Z" fill="#DE5833"/>
<path fill-rule="evenodd" clip-rule="evenodd" d="M111.438 134.766C111.438 134.297 111.553 134.19 110.063 131.22C106.103 123.29 102.123 112.11 103.933 104.9C104.263 103.59 100.203 56.39 97.3328 54.87C94.1428 53.17 90.2178 50.4733 86.6278 49.8733C84.8064 49.5819 82.4182 49.7199 80.5512 49.9713C80.2194 50.016 80.2056 50.6124 80.5228 50.7199C81.7485 51.1351 83.2368 51.8561 84.1139 52.9463C84.2799 53.1526 84.0571 53.4772 83.7925 53.487C82.9657 53.5176 81.4657 53.8642 79.4867 55.5451C79.2579 55.7395 79.448 56.1005 79.7426 56.0422C83.9956 55.2008 88.339 55.6153 90.8987 57.9419C91.0648 58.0929 90.978 58.3638 90.7614 58.4226C68.5481 64.4592 72.9454 83.7822 78.8589 107.495C84.1503 128.713 87.1831 138.551 87.9048 140.9C87.9664 141.1 88.108 141.257 88.3036 141.333C95.921 144.29 111.438 141.116 111.438 135.938V134.766Z" fill="#DDDDDD"/>
<path fill-rule="evenodd" clip-rule="evenodd" d="M90.1463 138.737C88.8672 133.963 84.3707 120.408 80.1695 103.186C80.0296 102.612 79.8897 102.041 79.7506 101.473L79.7471 101.459C74.6618 80.6874 70.5083 63.722 93.2725 58.3923C93.4806 58.3435 93.5824 58.0947 93.4446 57.9313C90.8328 54.8327 85.9398 53.8171 79.7529 55.9515C79.4991 56.0391 79.2788 55.7832 79.4364 55.5659C80.6496 53.8937 83.0205 52.6079 84.191 52.0443C84.4329 51.9278 84.4182 51.5735 84.1619 51.4933C83.3963 51.2537 82.0928 50.8869 80.6265 50.6503C80.2796 50.5943 80.2483 49.9997 80.5966 49.9529C89.3676 48.7728 98.5267 51.4061 103.123 57.1957C103.166 57.2503 103.229 57.2884 103.297 57.303C120.127 60.9174 121.333 87.5232 119.394 88.7351C119.012 88.9739 117.786 88.8369 116.171 88.6561C109.622 87.9234 96.6537 86.4725 107.357 106.419C107.462 106.616 107.322 106.877 107.101 106.911C101.087 107.847 108.747 126.631 114.426 139.09C116.621 143.906 91.5942 144.14 90.1463 138.737Z" fill="white"/>
<path d="M122.013 115.029C120.732 114.436 115.805 117.969 112.535 120.681C111.852 119.714 110.563 119.011 107.657 119.516C105.113 119.959 103.709 120.572 103.082 121.63C99.0669 120.107 92.312 117.758 90.6801 120.027C88.8963 122.507 91.1259 134.24 93.4951 135.763C94.7321 136.559 100.649 132.756 103.739 130.133C104.237 130.835 105.04 131.237 106.689 131.199C109.185 131.141 113.232 130.56 113.86 129.398C113.898 129.328 113.931 129.244 113.959 129.149C117.135 130.336 122.724 131.592 123.973 131.405C127.227 130.916 123.519 115.727 122.013 115.029Z" fill="#3CA82B"/>
<path d="M112.835 121.028C112.969 121.268 113.078 121.521 113.17 121.779C113.622 123.045 114.36 127.073 113.802 128.068C113.244 129.063 109.622 129.544 107.387 129.582C105.152 129.621 104.649 128.803 104.196 127.537C103.834 126.524 103.655 124.143 103.66 122.779C103.568 120.757 104.307 120.045 107.723 119.493C110.251 119.084 111.587 119.559 112.358 120.374C115.947 117.695 121.935 113.915 122.519 114.606C125.431 118.051 125.799 126.25 125.168 129.549C124.962 130.628 115.32 128.481 115.32 127.318C115.32 122.488 114.067 121.163 112.835 121.028Z" fill="#4CBA3C"/>
<path d="M91.7129 119.52C92.5026 118.27 98.9068 119.824 102.422 121.388C102.422 121.388 101.7 124.661 102.85 128.517C103.186 129.645 94.7621 134.665 93.6626 133.801C92.3918 132.803 90.053 122.147 91.7129 119.52Z" fill="#4CBA3C"/>
<path fill-rule="evenodd" clip-rule="evenodd" d="M94.8146 94.1313C95.3327 91.8782 97.7464 87.6325 106.366 87.7356C110.723 87.7175 116.136 87.7337 119.724 87.3261C125.058 86.7202 129.017 85.4301 131.655 84.4245C135.386 83.0011 136.71 83.3185 137.175 84.1702C137.685 85.1061 137.084 86.7221 135.78 88.2096C133.29 91.0511 128.813 93.2528 120.907 93.9063C113 94.5598 107.762 92.4389 105.507 95.8919C104.535 97.3811 105.287 100.891 112.933 101.996C123.265 103.487 131.751 100.2 132.799 102.185C133.847 104.171 127.808 108.211 117.459 108.296C107.11 108.38 100.646 104.672 98.3538 102.829C95.4455 100.491 94.144 97.0805 94.8146 94.1313Z" fill="#FFCC33"/>
<g opacity="0.8">
<path d="M107.994 69.4939C108.571 68.5487 109.851 67.8191 111.946 67.8191C114.041 67.8191 115.027 68.6526 115.709 69.5822C115.848 69.7713 115.637 69.9938 115.422 69.9007C115.37 69.8784 115.318 69.8555 115.265 69.8322C114.498 69.4976 113.558 69.0867 111.946 69.0638C110.223 69.0393 109.136 69.471 108.451 69.843C108.221 69.9684 107.857 69.7179 107.994 69.4939Z" fill="#14307E"/>
<path d="M84.4102 70.7031C86.4443 69.8531 88.0429 69.963 89.1731 70.2303C89.4111 70.2866 89.5765 70.0306 89.3861 69.8771C88.5089 69.1695 86.5457 68.2911 83.9852 69.2459C81.7011 70.0976 80.6245 71.8672 80.6182 73.0306C80.6167 73.3048 81.1808 73.3281 81.3267 73.096C81.7209 72.4688 82.3762 71.5532 84.4102 70.7031Z" fill="#14307E"/>
<path fill-rule="evenodd" clip-rule="evenodd" d="M113.726 82.4246C111.927 82.4246 110.469 80.9699 110.469 79.1796C110.469 77.3893 111.927 75.9347 113.726 75.9347C115.524 75.9347 116.982 77.3893 116.982 79.1796C116.982 80.9699 115.524 82.4246 113.726 82.4246ZM116.019 78.1047C116.019 77.6411 115.64 77.2655 115.176 77.2655C114.713 77.2655 114.337 77.6411 114.333 78.1047C114.333 78.5682 114.713 78.9439 115.176 78.9439C115.644 78.9439 116.019 78.5682 116.019 78.1047Z" fill="#14307E"/>
<path fill-rule="evenodd" clip-rule="evenodd" d="M92.147 81.4254C92.147 83.5154 90.4486 85.2098 88.3506 85.2098C86.2567 85.2098 84.5543 83.5154 84.5543 81.4254C84.5543 79.3354 86.2567 77.641 88.3506 77.641C90.4446 77.641 92.147 79.3354 92.147 81.4254ZM91.0281 80.1706C91.0281 79.6311 90.5885 79.1915 90.045 79.1915C89.5055 79.1915 89.066 79.6271 89.062 80.1706C89.062 80.71 89.5015 81.1496 90.045 81.1496C90.5885 81.1496 91.0281 80.71 91.0281 80.1706Z" fill="#14307E"/>
</g>
<path d="M103 34.687C112.744 34.687 121.897 37.2093 129.848 41.6322C130.007 41.7206 130.086 41.9044 130.043 42.0808C129.898 42.6599 129.687 43.2114 129.418 43.7272C128.673 45.1547 126.837 45.3013 125.394 44.5881C118.642 41.2516 111.041 39.3745 103 39.3745C75.4779 39.3745 53.0851 61.3371 52.3915 88.6921L52.375 89.9995C52.375 117.959 75.0406 140.625 103 140.625C130.959 140.625 153.625 117.959 153.625 89.9995C153.625 82.1198 151.823 74.6614 148.611 68.0117C147.929 66.5993 148.061 64.8187 149.43 64.0531C150.004 63.7319 150.625 63.4833 151.281 63.3192C151.373 63.2955 151.469 63.3367 151.514 63.4197C155.846 71.308 158.312 80.3652 158.312 89.9995C158.312 120.548 133.548 145.312 103 145.312C72.4518 145.312 47.6875 120.548 47.6875 89.9995C47.6877 59.4515 72.4519 34.687 103 34.687Z" fill="white"/>
<path d="M136.499 35.5839C136.869 34.1027 138.974 34.1027 139.345 35.5839L141.253 43.2166C142.347 47.5953 145.766 51.0141 150.145 52.1088L157.778 54.017C159.259 54.3873 159.259 56.4922 157.778 56.8625L150.145 58.7707C145.766 59.8653 142.347 63.2842 141.253 67.6629L139.345 75.2956C138.974 76.7767 136.869 76.7767 136.499 75.2956L134.591 67.6629C133.496 63.2842 130.077 59.8653 125.699 58.7707L118.066 56.8625C116.585 56.4922 116.585 54.3873 118.066 54.017L125.699 52.1088C130.077 51.0141 133.496 47.5952 134.591 43.2166L136.499 35.5839Z" fill="white"/>
<path fill-rule="evenodd" clip-rule="evenodd" d="M143.486 174.037C147.876 174.037 150.373 176.208 150.449 180.025V192.001H147.497V190.204C146.059 191.701 144.092 192.45 141.821 192.45C138.795 192.45 135.616 190.429 135.616 186.612C135.616 183.768 137.508 180.774 141.821 180.774C144.243 180.774 146.135 181.522 147.497 182.944V180.174C147.497 178.079 145.756 176.657 143.183 176.657C141.065 176.657 139.4 177.405 137.886 179.052L137.811 179.127L136.373 177.031L136.449 176.956C138.341 174.935 140.611 174.037 143.486 174.037ZM142.73 182.869C140.308 182.869 138.568 184.366 138.568 186.537C138.568 188.707 140.232 190.204 142.73 190.204C144.697 190.204 146.438 189.456 147.422 188.109V184.965C146.438 183.618 144.697 182.869 142.73 182.869Z" fill="#333333"/>
<path d="M130.47 188.109C131.605 188.109 132.589 189.082 132.589 190.204C132.589 191.327 131.605 192.3 130.47 192.3C129.335 192.3 128.351 191.327 128.351 190.204C128.351 189.082 129.335 188.109 130.47 188.109Z" fill="#333333"/>
<path d="M74.8485 184.217C74.8486 187.585 76.8919 189.53 80.1458 189.531C83.2485 189.381 85.3677 187.096 85.3677 183.952V174.71H88.3186V191.851H85.5192L85.4431 189.232L85.3677 189.456C84.0056 191.177 81.8862 192.226 79.6159 192.226H79.5405C74.8487 192.226 71.8976 189.156 71.8976 184.217V174.71H74.8485V184.217Z" fill="#333333"/>
<path fill-rule="evenodd" clip-rule="evenodd" d="M56.0811 167.45C64.6324 167.45 68.5679 173.737 68.4922 179.576C68.4921 185.713 64.708 192 56.0811 192H47V167.45H56.0811ZM50.2539 188.857H56.2326C62.5892 188.857 65.4652 184.141 65.4652 179.426C65.4652 175.085 62.4375 170.444 56.1565 170.444H50.2539V188.857Z" fill="#333333"/>
<path d="M101.108 174.186C103.53 174.186 105.573 175.01 107.389 176.656L107.465 176.732L105.573 178.677L105.497 178.603C104.286 177.555 102.773 176.956 101.183 176.956C97.5512 176.956 94.9787 179.576 94.9787 183.168C94.9787 187.509 98.0809 189.381 101.183 189.381C102.924 189.381 104.589 188.782 105.649 187.734L107.541 189.381L107.465 189.456C105.876 191.103 103.605 192 101.183 192H101.108C96.492 192 91.9518 189.306 91.9516 183.094C91.9516 177.779 95.6595 174.186 101.108 174.186Z" fill="#333333"/>
<path d="M113.898 181.896L120.935 174.71H124.794L116.622 182.794L125.703 191.626V191.926H122.07L113.898 183.917V191.926H110.946V167.525H113.898V181.896Z" fill="#333333"/>
<path d="M158.47 174.412V191.926H155.519V174.412H158.47Z" fill="#333333"/>
<path d="M157.033 167.899C158.092 167.9 159 168.797 159 169.845C159 170.893 158.092 171.791 157.033 171.791C155.973 171.791 155.065 170.893 155.065 169.845C155.065 168.723 155.973 167.899 157.033 167.899Z" fill="#333333"/>
</svg>
