<svg width="44" height="44" viewBox="0 0 44 44" fill="none" xmlns="http://www.w3.org/2000/svg">
<path d="M23.2475 3.76654C27.5951 3.76654 31.215 6.85576 32.0131 10.9472C32.1179 11.4848 32.4875 11.9408 32.997 12.1421C37.0057 13.7259 39.8401 17.617 39.8401 22.1677C39.8401 27.367 36.1403 31.7036 31.2163 32.7228C30.7162 32.8263 30.2957 33.1698 30.0877 33.6363C28.6001 36.9709 25.2445 39.2976 21.3398 39.2977C17.9199 39.2977 14.9197 37.5134 13.2276 34.83C12.8103 34.1683 11.9575 33.8779 11.1966 34.0597C10.7659 34.1627 10.3163 34.2173 9.85371 34.2173C6.68261 34.2173 4.11157 31.6611 4.11157 28.5076C4.11158 27.5075 4.3706 26.5679 4.82506 25.7506C5.08241 25.2878 5.1358 24.7272 4.92692 24.2406C4.40249 23.0188 4.11163 21.6742 4.11157 20.2618C4.11157 14.6555 8.68171 10.11 14.3192 10.11C14.5349 10.11 14.727 9.97431 14.7972 9.7704C15.9997 6.27791 19.3281 3.7667 23.2475 3.76654Z" fill="#4397E0"/>
<path d="M23.7103 3.51269C28.2028 3.71225 31.8945 6.97299 32.7292 11.2532C32.7902 11.5659 33.0055 11.8251 33.2885 11.9369C37.5563 13.6226 40.5793 17.7675 40.5794 22.62L40.5679 23.1364C40.3317 28.4487 36.4701 32.8152 31.391 33.8663C31.1135 33.9239 30.8738 34.117 30.7549 34.3834C29.1579 37.9648 25.5551 40.4634 21.3631 40.4635L21.0202 40.4581C17.4912 40.343 14.412 38.4572 12.6528 35.6656C12.414 35.2868 11.8806 35.0764 11.3698 35.1991C10.8857 35.3154 10.3804 35.3778 9.86134 35.3779C6.41849 35.3777 3.60098 32.6875 3.4283 29.2978L3.41986 28.9678C3.41989 28.0331 3.62215 27.1444 3.98459 26.3429C3.97522 26.2103 4.00497 26.0765 4.07053 25.9547C4.12233 25.8569 4.17552 25.7597 4.23013 25.6638C4.27172 25.5907 4.31506 25.5187 4.35827 25.4467C4.37254 25.3175 4.36359 25.1901 4.32988 25.0723L4.29381 24.9694C3.73211 23.6614 3.41988 22.2216 3.41986 20.7109C3.41999 14.7552 8.2388 9.92507 14.2019 9.85519C15.5359 6.15139 19.0938 3.50272 23.2737 3.50272L23.7103 3.51269ZM23.2737 5.07414C19.7733 5.07414 16.7958 7.29117 15.6805 10.3877L15.3107 11.4136L14.2204 11.4266C9.10861 11.4865 4.99142 15.6251 4.99129 20.7109C4.9913 21.8099 5.18516 22.8627 5.53761 23.84C6.33863 22.9353 7.27488 22.1724 8.27917 21.5665C8.36916 21.512 8.45967 21.4582 8.55079 21.4061C8.61371 21.3705 8.69174 21.3616 8.76487 21.3785C8.83805 21.3956 8.90072 21.4378 8.94135 21.4974C8.98191 21.5571 8.9976 21.631 8.98662 21.7054C8.97543 21.7795 8.93851 21.8487 8.88226 21.8941C8.80432 21.957 8.72671 22.0205 8.65054 22.0852C7.49424 23.0634 6.55042 24.2562 5.92509 25.5649C5.89078 25.9421 5.77633 26.3081 5.59515 26.6337C5.21036 27.3254 4.99132 28.1201 4.99129 28.9678C4.99134 31.635 7.16698 33.8063 9.86134 33.8064C10.2546 33.8064 10.637 33.7594 11.0031 33.6714L11.2087 33.6299C12.1769 33.4737 13.233 33.8255 13.8559 34.6451L13.9825 34.8277L14.1298 35.0541C15.692 37.3695 18.348 38.8921 21.3631 38.8921C24.9153 38.892 27.9668 36.7763 29.3193 33.7435L29.3837 33.6108C29.4318 33.5182 29.4853 33.4289 29.5441 33.3437C27.645 32.9242 25.9337 31.8481 24.7439 30.395C24.6447 30.2728 24.5489 30.1468 24.4577 30.019C24.4148 29.9586 24.3973 29.8817 24.4078 29.8065C24.4185 29.7312 24.4558 29.6631 24.5137 29.617C24.5716 29.5709 24.6465 29.5499 24.7224 29.5564C24.7979 29.563 24.8689 29.5971 24.918 29.6523C25.0144 29.7602 25.1146 29.8652 25.2173 29.9669C27.069 31.7977 29.8667 32.6079 32.2043 31.9519C32.3337 31.916 32.4611 31.8758 32.5872 31.8314C32.6648 31.8047 32.7448 31.7915 32.8243 31.7907C36.455 30.3056 39.0079 26.7582 39.008 22.62C39.0079 18.4388 36.4035 14.8571 32.7107 13.3986C31.9157 13.0845 31.3478 12.379 31.1869 11.5548V11.554C30.4676 7.865 27.2011 5.07434 23.2737 5.07414ZM25.7306 10.9854C26.079 10.96 26.4291 10.9587 26.7749 10.9831C26.8493 10.9888 26.9214 11.019 26.9752 11.0721C27.029 11.1253 27.06 11.1966 27.0619 11.2709C27.0637 11.3451 27.0362 11.4177 26.9852 11.4734C26.9339 11.5292 26.8628 11.5632 26.7887 11.5724C26.4716 11.6128 26.1582 11.6735 25.8519 11.7519C23.0963 12.4783 20.8206 14.5186 19.7564 16.9934C19.4292 17.7641 19.2277 18.58 19.174 19.4111C19.1568 19.6898 18.935 20.0102 18.6684 20.0933C17.0149 20.59 15.6019 22.2093 15.4596 24.0947C15.4373 24.397 15.4488 24.7047 15.4971 25.0109C15.5093 25.0845 15.4969 25.1616 15.458 25.2265C15.4191 25.2914 15.3571 25.3384 15.2854 25.3577C15.2136 25.377 15.1367 25.3674 15.0705 25.3308C15.0042 25.2942 14.9542 25.2335 14.9278 25.1636C14.8039 24.8286 14.7219 24.4741 14.6838 24.1131C14.4626 22.0148 15.719 19.8506 17.7008 18.8855C17.7634 18.0223 17.9737 17.1707 18.3101 16.3795C19.601 13.359 22.5778 11.2274 25.7306 10.9854Z" fill="#034180"/>
</svg>
