<svg width="96" height="96" viewBox="0 0 96 96" fill="none" xmlns="http://www.w3.org/2000/svg">
<path d="M61.1677 56.8376C59.9988 58.9433 59.333 61.367 59.333 63.946C59.3331 69.1013 61.993 73.6351 66.0152 76.2505H22.4492C17.6972 76.2505 14.48 71.4087 16.3211 67.0278L20.6038 56.8376H61.1677Z" fill="#4397E0"/>
<path d="M69.3208 20.0195C72.5331 20.0195 75.1372 22.6237 75.1372 25.8359V49.3228C74.7619 49.294 74.3825 49.2793 73.9998 49.2793C68.479 49.2793 63.6707 52.3297 61.1682 56.8369H20.6895V25.8359C20.6895 22.6237 23.2936 20.0196 26.5059 20.0195H69.3208Z" fill="#4397E0"/>
<path d="M67.7195 23.0312C70.014 23.0313 71.874 24.8913 71.874 27.1858V49.4314C69.2392 49.8139 66.8314 50.8969 64.8455 52.4854H26.4458C25.0691 52.4853 23.9531 51.3691 23.9531 49.9924V27.1858C23.9531 24.8913 25.8132 23.0312 28.1077 23.0312H67.7195Z" fill="#FBF7FF"/>
<path d="M16.2243 67.5107C17.3408 69.8075 19.8326 72.4852 23.0095 72.9873C25.3095 73.3506 48.6572 73.407 62.6638 73.2519C63.6193 74.4146 64.7503 75.4274 66.0161 76.2505H23.0095C18.3697 76.2505 14.833 71.8235 16.2243 67.5107Z" fill="#1074CC"/>
<path d="M17.591 31.8545C17.6422 31.8545 17.6918 31.8743 17.7392 31.9092C17.7865 31.9441 17.8297 31.9914 17.8723 32.0408C17.891 32.0628 17.9089 32.0851 17.9258 32.1072C18.0775 32.306 18.1535 32.505 18.1535 32.7038C18.1535 32.9027 18.0776 33.1017 17.9258 33.3005C17.9089 33.3226 17.891 33.3449 17.8723 33.3669C17.8297 33.4163 17.7865 33.4636 17.7392 33.4985C17.6918 33.5334 17.6422 33.5532 17.591 33.5532C17.5399 33.5532 17.4903 33.5334 17.4429 33.4985C17.3956 33.4636 17.3524 33.4163 17.3098 33.3669C17.2911 33.3449 17.2732 33.3226 17.2563 33.3005C17.1045 33.1016 17.0286 32.9027 17.0285 32.7038C17.0285 32.505 17.1045 32.3061 17.2563 32.1072C17.2732 32.0851 17.2911 32.0628 17.3098 32.0408C17.3524 31.9914 17.3956 31.9441 17.4429 31.9092C17.4903 31.8743 17.5399 31.8545 17.591 31.8545Z" fill="#1074CC"/>
<path d="M22.8794 17.0869C23.1561 17.0702 23.4311 17.0731 23.7043 17.095C23.7736 17.1011 23.8419 17.1274 23.8943 17.175C23.9466 17.2226 23.9791 17.287 23.9844 17.3555C23.9896 17.4239 23.9674 17.4926 23.9231 17.5476C23.8787 17.6027 23.8153 17.6393 23.7478 17.656C23.5022 17.7179 23.264 17.7898 23.031 17.8716C21.7925 18.3072 20.7313 19.0098 19.8694 19.9009C18.7825 21.021 18.123 22.5426 18.0635 24.1296C18.0056 25.6831 17.9218 27.2366 17.812 28.79C17.7937 29.0493 17.7746 29.3086 17.7549 29.5679C17.7494 29.6396 17.7189 29.7085 17.6667 29.7593C17.6146 29.81 17.5453 29.8385 17.4736 29.8386C17.4019 29.8386 17.3324 29.81 17.2803 29.7593C17.2281 29.7085 17.1979 29.6396 17.1924 29.5679C17.1726 29.3086 17.1534 29.0493 17.135 28.79C17.025 27.2366 16.9409 25.6831 16.8828 24.1296C16.807 22.2434 17.5459 20.3145 18.8801 18.9458C19.9319 17.848 21.4064 17.1692 22.8794 17.0869Z" fill="#1074CC"/>
<path d="M55.8795 62.2188C56.2502 62.2188 56.5759 62.4643 56.6781 62.8206L58.0495 67.6018C58.354 68.6637 57.5568 69.7217 56.4521 69.7217H39.5712C38.4594 69.7217 37.661 68.651 37.9784 67.5854L39.4005 62.8123C39.5055 62.4601 39.8294 62.2188 40.1969 62.2188H55.8795Z" fill="#75B6EB"/>
<path d="M69.1696 19.3984C72.8585 19.3984 75.8881 22.2569 75.8881 25.9885V49.4001C75.3953 49.3368 74.8949 49.2981 74.3881 49.2849V25.9885C74.3881 23.1277 72.073 20.8984 69.1696 20.8984H26.6586C23.7552 20.8985 21.4403 23.1277 21.4403 25.9885V56.8376C21.4403 56.9348 21.4214 57.0311 21.3847 57.1211C20.0358 60.4242 18.734 63.6571 17.2623 66.9307C16.4045 69.2951 16.8824 71.3468 18.2609 72.8274C19.6696 74.3404 22.1073 75.3464 25.2973 75.3464H64.7719C65.4697 75.912 66.2204 76.415 67.0155 76.8464H25.2973C21.8173 76.8464 18.9314 75.749 17.163 73.8496C15.3681 71.9218 14.8139 69.2592 15.8605 66.3965L15.8808 66.3464C17.3247 63.1367 18.603 59.9663 19.9403 56.6904V25.9885C19.9403 22.257 22.9697 19.3985 26.6586 19.3984H69.1696Z" fill="#045EB2"/>
<path d="M18.9791 70.7852C19.053 70.7863 19.1234 70.8166 19.1759 70.8679C19.8538 71.5307 20.6664 72.0448 21.5429 72.3716C22.353 72.6745 23.2169 72.8174 24.0719 72.7937C32.0394 72.5899 40.007 72.488 47.9745 72.488C52.701 72.488 57.4276 72.524 62.1542 72.5957C62.4775 73.0378 62.8251 73.461 63.1947 73.8635C58.1213 73.9462 53.0479 73.988 47.9745 73.988C40.007 73.988 32.0394 73.8862 24.0719 73.6824C23.1021 73.6595 22.142 73.4446 21.2631 73.0574C20.312 72.6395 19.4566 72.0198 18.7697 71.2571C18.7206 71.2025 18.6935 71.1309 18.6955 71.0571C18.6975 70.9833 18.7282 70.9133 18.7811 70.8625C18.8341 70.8118 18.9054 70.784 18.9791 70.7852Z" fill="#045EB2"/>
<path d="M55.2826 61.937C55.8831 61.9079 56.5019 62.1823 56.893 62.668C57.0668 62.8813 57.1972 63.1332 57.2719 63.4019C57.6681 64.7805 58.0566 66.1609 58.4376 67.5432C58.8387 68.854 57.7184 70.374 56.2912 70.3545C53.0679 70.4335 49.8445 70.4731 46.6212 70.4731C44.2713 70.4731 41.9211 70.4212 39.5712 70.3174C38.1172 70.3169 37.0689 68.7084 37.5687 67.4648C37.6281 67.3037 37.6878 67.1426 37.7477 66.9817C37.9309 66.4893 38.1166 65.9975 38.3048 65.5066C38.3306 65.4394 38.3795 65.3821 38.444 65.3484C38.5084 65.3147 38.583 65.3069 38.6517 65.3274C38.7205 65.3479 38.7786 65.395 38.8141 65.4585C38.8496 65.522 38.8591 65.5969 38.8439 65.6672C38.7327 66.1811 38.6192 66.6944 38.5031 67.2068C38.4651 67.3742 38.4268 67.5417 38.3883 67.709C38.2057 68.4829 38.8967 69.2073 39.5712 69.1289C41.9211 69.0251 44.2713 68.9731 46.6212 68.9731C49.8445 68.9731 53.0679 69.0127 56.2912 69.0918C56.9255 69.1431 57.527 68.4763 57.3756 67.7996C57.0842 66.3956 56.8003 64.9899 56.5241 63.5823C56.4926 63.4101 56.4258 63.2436 56.3266 63.0952C56.1037 62.758 55.7095 62.5257 55.2826 62.5032C55.2708 62.5026 55.2588 62.502 55.247 62.5015C55.1742 62.4979 55.1043 62.4676 55.0529 62.4153C55.0015 62.3629 54.9723 62.2929 54.9723 62.2202C54.9723 62.1475 55.0014 62.0773 55.0529 62.0249C55.1043 61.9725 55.1742 61.9426 55.247 61.939C55.2588 61.9384 55.2708 61.9376 55.2826 61.937Z" fill="#045EB2"/>
<path d="M48.976 61.7207C50.4029 61.7207 51.83 61.7725 53.257 61.8762C53.5223 61.8955 53.7878 61.9166 54.0531 61.9395C54.1245 61.9457 54.193 61.9762 54.2435 62.0283C54.294 62.0804 54.3224 62.1493 54.3224 62.2207C54.3224 62.2921 54.2941 62.3612 54.2435 62.4133C54.193 62.4654 54.1245 62.4958 54.0531 62.502C53.7878 62.5248 53.5223 62.5459 53.257 62.5652C51.83 62.6689 50.4029 62.7207 48.976 62.7207C46.2527 62.7207 43.5293 62.6795 40.806 62.5967C40.3205 62.5722 39.8209 62.8525 39.5856 63.3062C39.558 63.3583 39.5336 63.4124 39.5128 63.4683C39.4471 63.6495 39.381 63.8306 39.3148 64.0117C39.2897 64.0804 39.2397 64.1382 39.174 64.1714C39.1083 64.2045 39.0326 64.2107 38.963 64.1885C38.8935 64.1662 38.8353 64.1171 38.8012 64.052C38.767 63.9868 38.7598 63.9108 38.7792 63.8403C38.8306 63.6545 38.8822 63.4684 38.934 63.2827C38.9575 63.2001 38.9865 63.1187 39.0209 63.0396C39.3113 62.3511 40.0341 61.8565 40.806 61.845C43.5293 61.7622 46.2527 61.7207 48.976 61.7207Z" fill="#045EB2"/>
<path d="M40.9457 56.0039C46.0635 56.0039 51.1814 56.1304 56.2992 56.3835C56.8678 56.4117 57.4365 56.4414 58.005 56.4727C58.0776 56.4767 58.1473 56.5068 58.1986 56.5591C58.2499 56.6114 58.2787 56.6814 58.2787 56.7539C58.2787 56.8264 58.2499 56.8964 58.1986 56.9487C58.1473 57.0011 58.0776 57.0311 58.005 57.0352C57.4365 57.0664 56.8678 57.0961 56.2992 57.1243C51.1814 57.3774 46.0635 57.5039 40.9457 57.5039C35.8279 57.5039 30.7099 57.3774 25.5922 57.1243C25.0236 57.0961 24.4547 57.0664 23.8861 57.0352C23.8136 57.0311 23.7438 57.0011 23.6925 56.9487C23.6412 56.8964 23.6124 56.8264 23.6124 56.7539C23.6124 56.6814 23.6412 56.6114 23.6925 56.5591C23.7438 56.5068 23.8136 56.4767 23.8861 56.4727C24.4547 56.4414 25.0236 56.4117 25.5922 56.3835C30.7099 56.1304 35.8279 56.0039 40.9457 56.0039Z" fill="#045EB2"/>
<path d="M28.1088 22.3218C41.3127 22.3708 54.5167 22.4655 67.7206 22.606C69.592 22.599 71.3626 23.8719 71.9655 25.6167C72.146 26.12 72.2343 26.6548 72.2282 27.1868C72.2052 29.1378 72.1814 31.089 72.1564 33.04C72.1554 33.1141 72.1255 33.1854 72.0729 33.2378C72.0203 33.2901 71.9491 33.3195 71.8751 33.3196C71.8011 33.3196 71.7298 33.2902 71.6771 33.2378C71.6245 33.1854 71.5948 33.1141 71.5939 33.04C71.5689 31.089 71.5448 29.1378 71.5219 27.1868C71.5163 26.7366 71.4313 26.2905 71.2709 25.8738C70.7318 24.4271 69.2425 23.4188 67.7206 23.4585C54.5167 23.5989 41.3127 23.6936 28.1088 23.7427C26.2747 23.7061 24.6341 25.3647 24.6852 27.1868C24.6978 32.0981 24.7042 37.0096 24.7042 41.9209C24.7042 44.8887 24.702 47.8567 24.6974 50.8245C24.6831 51.3129 25.125 51.7588 25.6161 51.7478C38.9225 51.7746 52.2289 51.848 65.5353 51.9675C65.0767 52.2922 64.6377 52.6427 64.2201 53.0166C51.3521 53.1293 38.4841 53.1987 25.6161 53.2246C24.337 53.2566 23.1824 52.1063 23.2111 50.8245C23.2065 47.8567 23.2042 44.8887 23.2042 41.9209C23.2042 37.0096 23.2106 32.0981 23.2233 27.1868C23.1669 24.583 25.5171 22.2508 28.1088 22.3218Z" fill="#045EB2"/>
<path d="M71.8751 36.0151C71.9492 36.0152 72.0203 36.0448 72.0729 36.0972C72.1255 36.1495 72.1554 36.2206 72.1564 36.2947C72.1876 38.7364 72.2174 41.1782 72.2455 43.6199C72.2676 45.5386 72.2883 47.4574 72.3085 49.3762C72.0164 49.4098 71.7269 49.452 71.4403 49.5024C71.4609 47.5416 71.4822 45.5807 71.5048 43.6199C71.5329 41.1782 71.5626 38.7364 71.5939 36.2947C71.5949 36.2207 71.6246 36.1495 71.6771 36.0972C71.7298 36.0448 71.8011 36.0152 71.8751 36.0151Z" fill="#045EB2"/>
<path d="M52.5148 32.0887C52.51 32.0794 52.5179 32.0686 52.5286 32.0702C53.0017 32.1385 53.4977 32.293 54.0599 32.5758C54.3785 32.736 54.6759 32.9511 54.9598 33.2211C55.2256 33.4739 55.5183 34.0331 55.2273 34.2582C54.9984 34.4353 54.7466 34.6567 54.4491 34.9666C54.1515 35.2765 53.9226 35.6529 53.6937 36.1399C53.4648 36.6269 53.3732 37.1803 53.3732 37.8223C53.3732 38.575 53.5106 39.1948 53.7852 39.7261C54.0599 40.2574 54.3804 40.6559 54.7466 40.988C55.1129 41.32 55.4333 41.5414 55.708 41.6742C56.0074 41.819 56.1114 42.0925 55.9953 42.3973C55.9329 42.5609 55.8669 42.7315 55.8225 42.8475C55.5936 43.4452 55.2502 44.0651 54.7466 44.7735C54.3117 45.3933 53.831 45.9468 53.3274 46.4781C52.8239 47.0094 52.2058 47.2529 51.5191 47.2529C51.0384 47.2529 50.6493 47.1865 50.3517 47.0536C50.0541 46.9208 49.7337 46.788 49.4132 46.6552C49.0928 46.5223 48.6578 46.4559 48.1085 46.4559C47.5591 46.4559 47.1471 46.5223 46.7809 46.6552C46.4146 46.788 46.0942 46.9208 45.7737 47.0758C45.4532 47.2307 45.087 47.275 44.6521 47.275C43.9883 47.275 43.416 47.0315 42.9353 46.5223C42.4546 46.0132 41.9281 45.4155 41.4246 44.7292C40.8294 43.888 40.3029 42.8918 39.8909 41.6964C39.4789 40.501 39.25 39.2834 39.25 38.0658C39.25 36.7597 39.5018 35.675 40.0054 34.7674C40.509 33.8597 41.1728 33.2177 41.9739 32.7529C42.7751 32.288 43.5991 32.0666 44.469 32.0666C44.9268 32.0666 45.3617 32.133 45.7508 32.288C46.1399 32.4429 46.5291 32.5758 46.8953 32.7307C47.2615 32.8857 47.5591 32.9521 47.8567 32.9521C48.1543 32.9521 48.4518 32.8635 48.8181 32.7086C49.1843 32.5536 49.5963 32.3987 50.0541 32.2437C50.512 32.0887 50.9926 32.0223 51.5191 32.0223C51.7215 32.0223 52.0343 32.0437 52.5009 32.1074C52.5116 32.1088 52.5197 32.0981 52.5148 32.0887ZM49.4476 31.325C49.44 31.3323 49.4312 31.3385 49.4217 31.3433C48.9005 31.6041 48.4017 31.7345 47.9254 31.7345C47.8797 31.7345 47.834 31.7345 47.7883 31.7318C47.7066 31.7269 47.6538 31.655 47.6278 31.5796C47.6049 31.5132 47.6278 31.4468 47.6278 31.3582C47.6278 30.849 47.7422 30.3399 47.9711 29.8529C48.2 29.3658 48.4747 28.9674 48.7723 28.6353C49.1385 28.1926 49.6192 27.8384 50.1915 27.5506C50.6119 27.3392 51.0199 27.1994 51.4064 27.1314C51.6404 27.0902 51.8625 27.2531 51.8625 27.4842C51.8625 27.9933 51.7709 28.5025 51.5649 28.9895C51.3589 29.4765 51.0842 29.9193 50.7637 30.2956C50.4235 30.6905 49.9934 31.0418 49.4733 31.3067C49.4639 31.3115 49.4551 31.3177 49.4476 31.325Z" fill="#682A7A"/>
<path d="M62 64C62 57.3726 67.3726 52 74 52C80.6274 52 86 57.3726 86 64C86 70.6274 80.6274 76 74 76C67.3726 76 62 70.6274 62 64Z" fill="#F05F2B"/>
<path fill-rule="evenodd" clip-rule="evenodd" d="M74 53.5332C68.2194 53.5332 63.5332 58.2194 63.5332 64C63.5332 69.7807 68.2194 74.4669 74 74.4669C79.7807 74.4669 84.4669 69.7807 84.4669 64C84.4669 58.2194 79.7807 53.5332 74 53.5332ZM64.967 64C64.967 59.0112 69.0112 54.967 74 54.967C78.9888 54.967 83.0331 59.0112 83.0331 64C83.0331 68.4193 79.8595 72.0974 75.6671 72.8796C74.5775 70.3778 73.4423 67.3819 74.5533 67.0508C73.2307 64.6663 73.4981 63.1 76.2431 63.5828L76.2473 63.5833C76.5549 63.6183 76.7881 63.6448 76.861 63.5984C77.2327 63.3618 77.0021 58.1669 73.775 57.4613C70.8051 53.787 67.9784 57.9779 69.4122 57.6911C70.5592 57.4044 71.411 57.6691 71.3715 57.6805C66.3052 58.3193 68.6609 66.3014 69.9612 70.7073C70.14 71.3134 70.2989 71.8517 70.4158 72.294C67.21 70.9068 64.967 67.7154 64.967 64Z" fill="white"/>
<path d="M77.9673 71.566C77.9354 71.7719 77.8644 71.9092 77.7381 71.9284C77.4986 71.965 76.4272 71.7197 75.8183 71.4882C75.749 71.8067 74.1168 72.1082 73.8584 71.6804C73.2661 72.1924 72.1313 72.9351 71.8941 72.7795C71.4397 72.4821 71.0123 70.1914 71.3543 69.7073C71.8738 69.2351 72.9659 69.7489 73.7321 70.0203C73.9919 69.581 75.2498 69.4144 75.5109 69.775C76.1989 69.252 77.3471 68.5144 77.459 68.6489C78.0172 69.3216 78.0877 70.9222 77.9669 71.5664L77.9673 71.566Z" fill="#4CBA3C"/>
<path fill-rule="evenodd" clip-rule="evenodd" d="M72.147 64.6533C72.3812 62.9918 75.5198 63.5116 76.9233 63.3249C77.9461 63.2064 78.7052 62.9547 79.2108 62.7584C80.3716 62.2816 80.5693 62.7548 80.0017 63.4974C78.3991 65.3973 74.8349 64.0145 74.1968 64.9969C74.0103 65.2879 74.1545 65.9729 75.6205 66.1889C77.6014 66.4799 79.2287 65.8379 79.4296 66.226C78.978 68.2997 71.4572 67.5937 72.1461 64.6537L72.147 64.6533Z" fill="#FFCC33"/>
<path d="M76.1543 59.8598C75.9467 59.41 74.8793 59.4132 74.6753 59.8424C74.6567 59.9311 74.731 59.9077 74.8726 59.8631C75.1208 59.785 75.5756 59.6418 76.0995 59.9221C76.1408 59.9399 76.1808 59.8969 76.1543 59.8598Z" fill="#14307E"/>
<path d="M70.9387 59.9678C70.7405 59.9535 70.4188 59.9303 70.1529 60.078C69.7628 60.2441 69.637 60.423 69.5615 60.5457C69.5336 60.591 69.4258 60.5864 69.4258 60.5329C69.4523 59.8172 70.6657 59.4722 71.107 59.917C71.1605 59.9838 71.0819 59.9781 70.9387 59.9678Z" fill="#14307E"/>
<path d="M75.7742 62.3669C74.9576 62.3628 74.9576 61.104 75.7742 61.0999C76.5907 61.104 76.5907 62.3628 75.7742 62.3669Z" fill="#14307E"/>
<path d="M71.6362 62.1717C71.62 63.1426 70.1967 63.1426 70.1805 62.1717C70.185 61.2052 71.6317 61.2057 71.6362 62.1717Z" fill="#14307E"/>
</svg>
