<svg width="12" height="12" viewBox="0 0 12 12" fill="none" xmlns="http://www.w3.org/2000/svg">
<path fill-rule="evenodd" clip-rule="evenodd" d="M7.23242 3.00685L7.38867 3.02736C8.16197 3.16161 8.80028 3.73736 8.96191 4.54982C9.13484 5.41984 8.72343 6.28651 7.96191 6.95704C7.69777 7.18961 7.47811 7.37995 7.30273 7.53224C6.91181 7.87171 6.41754 7.99616 5.99805 7.99708C5.57883 7.99795 5.08187 7.8755 4.68848 7.53224C4.51434 7.38024 4.29715 7.19007 4.03027 6.95021C3.27816 6.27415 2.8643 5.41017 3.03809 4.54103C3.21276 3.66817 3.93542 3.08533 4.76758 3.00685C5.31858 2.95497 5.73507 3.20804 6 3.45118C6.24585 3.22557 6.622 2.99108 7.11523 3.00001L7.23242 3.00685ZM7.13867 4.00197C6.7421 3.96458 6.4406 4.41249 6.24805 4.83107C6.17704 4.98533 5.91245 5.00443 5.79297 4.88868L5.75195 4.83107C5.55943 4.41253 5.25784 3.96472 4.86133 4.00197C4.01108 4.08223 3.52014 5.14729 4.69922 6.20704C4.96034 6.44173 5.17291 6.62751 5.3457 6.77833C5.65931 7.05198 6.23328 7.0671 6.58008 6.82814L6.64648 6.77736L7.30078 6.20704C8.47966 5.16903 7.98881 4.08235 7.13867 4.00197Z" fill="black"/>
<path fill-rule="evenodd" clip-rule="evenodd" d="M8.97754 1.02443C10.6482 1.02927 12 2.385 12 4.05568V6.98048C12 8.66361 10.6288 10.0239 8.94629 10.0127C8.27036 10.0082 7.59031 10.0044 7.08887 10.002C6.83995 10.0008 6.58078 10.1106 6.3584 10.3125C5.50416 11.0881 4.53935 11.5953 3.75488 11.917C3.26332 12.1186 2.79704 11.927 2.54297 11.5762C2.30198 11.2434 2.24671 10.7716 2.45898 10.3545C2.52365 10.2274 2.57885 10.1042 2.62305 9.98829C1.13429 9.86074 -3.60293e-07 8.60885 0 7.09767V4.0381C0.000211305 2.3608 1.3627 1.00208 3.04004 1.00685L8.97754 1.02443ZM3.03711 2.00685C1.91316 2.00366 1.00021 2.9142 1 4.0381V7.09767C1 8.15584 1.83119 9.00001 2.87402 9.00001C3.09607 9.00002 3.31185 9.08852 3.46777 9.23927C3.6298 9.39612 3.75112 9.65091 3.68262 9.94532C3.61393 10.2404 3.48775 10.5391 3.35059 10.8086C3.31061 10.8872 3.32907 10.9578 3.35254 10.9902C3.35452 10.993 3.35592 10.9954 3.35742 10.9971C3.3613 10.9962 3.36781 10.9955 3.37598 10.9922C4.0916 10.6987 4.94485 10.2457 5.68652 9.57228C6.05428 9.23841 6.54561 8.99934 7.09375 9.00197C7.5962 9.00437 8.27708 9.00821 8.95312 9.01271C10.0813 9.02018 11 8.10817 11 6.98048V4.05568C11 2.93614 10.0941 2.02766 8.97461 2.02443L3.03711 2.00685Z" fill="black"/>
</svg>
