<svg width="24" height="24" viewBox="0 0 24 24" fill="none" xmlns="http://www.w3.org/2000/svg">
<path d="M8.5 16.8008C8.93818 17.0494 9.42811 17.1936 9.93164 17.2217C9.94457 17.4106 9.96817 17.5988 10 17.7852V21.2188C10 21.633 9.66421 21.9688 9.25 21.9688C8.83579 21.9688 8.5 21.633 8.5 21.2188V16.8008ZM4.25 6C4.66421 6 5 6.33579 5 6.75V17.25C5 17.6642 4.66421 18 4.25 18C3.83579 18 3.5 17.6642 3.5 17.25V6.75C3.5 6.33579 3.83579 6 4.25 6ZM9.25 2.03125C9.66421 2.03125 10 2.36704 10 2.78125V9.44727L8.5 10.9473V2.78125C8.5 2.36704 8.83579 2.03125 9.25 2.03125ZM19.25 6C19.6642 6 20 6.33579 20 6.75V10.917C19.6779 10.701 19.3347 10.5163 18.9746 10.3672C18.8187 10.3026 18.6603 10.2451 18.5 10.1943V6.75C18.5 6.33579 18.8358 6 19.25 6Z" fill="black"/>
<path d="M13.6631 8.62297C13.9575 8.56449 14.2627 8.59412 14.54 8.7089C14.8175 8.82383 15.0548 9.01882 15.2217 9.26847C15.3886 9.51821 15.4784 9.81185 15.4785 10.1122V10.5634C15.4787 10.8568 15.5952 11.1381 15.8027 11.3456C16.0104 11.5532 16.2923 11.6707 16.5859 11.6708H16.7178C17.2622 11.6696 17.8017 11.7759 18.3047 11.9843C18.8077 12.1927 19.2644 12.4988 19.6484 12.8847L19.7012 12.9394C19.9532 13.218 20.0937 13.5814 20.0937 13.9589C20.0937 14.3364 19.9533 14.6998 19.7012 14.9784L19.6484 15.0331L17.8711 16.8105L21.749 20.6884C22.0418 20.9813 22.0419 21.4561 21.749 21.7489C21.4562 22.0418 20.9814 22.0417 20.6885 21.7489L16.8105 17.871L15.0332 19.6484C14.7597 19.9219 14.3916 20.0808 14.0049 20.0927C13.6183 20.1044 13.2418 19.9681 12.9521 19.7118C12.9509 19.7108 12.9494 19.71 12.9482 19.7089C12.5261 19.33 12.1924 18.8623 11.9717 18.3398C11.7535 17.823 11.6512 17.2644 11.6709 16.704V16.5849L11.6689 16.5302C11.6552 16.2566 11.5403 15.9973 11.3457 15.8027C11.1511 15.6081 10.8917 15.4931 10.6182 15.4794L10.5635 15.4784H10.1123C9.81199 15.4783 9.51823 15.3885 9.26855 15.2216C9.01886 15.0547 8.82391 14.8175 8.70898 14.54C8.59408 14.2624 8.56446 13.9566 8.62304 13.662C8.68167 13.3677 8.82592 13.097 9.03808 12.8847L12.8848 9.038L12.9258 8.99894C13.1316 8.80801 13.387 8.67786 13.6631 8.62297ZM13.9453 10.0995L10.0996 13.9452H10.0986C10.0961 13.9479 10.0945 13.9514 10.0937 13.955C10.093 13.9586 10.0934 13.9624 10.0947 13.9657C10.0962 13.9693 10.0994 13.9724 10.1025 13.9745C10.1057 13.9766 10.1095 13.9784 10.1133 13.9784H10.5635C11.2547 13.9787 11.9175 14.2534 12.4062 14.7421C12.895 15.2309 13.1706 15.8937 13.1709 16.5849V16.7148C13.1709 16.7248 13.1703 16.735 13.1699 16.745C13.156 17.0913 13.2187 17.4365 13.3535 17.7558C13.4877 18.0734 13.6902 18.3579 13.9463 18.5888C13.9498 18.5918 13.9543 18.5937 13.959 18.5937C13.9639 18.5935 13.9692 18.5912 13.9726 18.5878L18.5879 13.9726C18.5914 13.969 18.5937 13.9639 18.5937 13.9589C18.5937 13.9538 18.5915 13.9488 18.5879 13.9452L18.5869 13.9433C18.3424 13.6973 18.0509 13.5028 17.7305 13.37C17.4101 13.2373 17.0665 13.1699 16.7197 13.1708H16.585C15.8937 13.1705 15.2309 12.8949 14.7422 12.4062C14.2535 11.9174 13.9788 11.2546 13.9785 10.5634V10.1132L13.9746 10.1025C13.9725 10.0994 13.9702 10.0961 13.9668 10.0946C13.9633 10.0932 13.9588 10.0929 13.9551 10.0937L13.9453 10.0995Z" fill="black"/>
</svg>
