<svg fill="none" viewBox="0 0 12 12" xmlns="http://www.w3.org/2000/svg">
  <g fill="#000" clip-path="url(#a)">
    <path d="M3.25 8.25a.5.5 0 0 1 .5.5v1a.5.5 0 0 1-.5.5h-1a.5.5 0 0 1-.5-.5v-1a.5.5 0 0 1 .5-.5z"/>
    <path fill-rule="evenodd" d="M3.875 6.5c.897 0 1.625.728 1.625 1.625v2.25C5.5 11.273 4.772 12 3.875 12h-2.25A1.625 1.625 0 0 1 0 10.375v-2.25C0 7.228.728 6.5 1.625 6.5zm-2.25 1A.625.625 0 0 0 1 8.125v2.25c0 .345.28.625.625.625h2.25c.345 0 .625-.28.625-.625v-2.25a.625.625 0 0 0-.625-.625z" clip-rule="evenodd"/>
    <path d="M7 9.5a.5.5 0 0 1 .5.5v.75c0 .138.112.25.25.25H8a.5.5 0 0 1 0 1h-.25c-.69 0-1.25-.56-1.25-1.25V10a.5.5 0 0 1 .5-.5m4.5.5a.5.5 0 0 1 .5.5v.25c0 .69-.56 1.25-1.25 1.25H10a.5.5 0 0 1 0-1h.75a.25.25 0 0 0 .25-.25v-.25a.5.5 0 0 1 .5-.5M9.75 8.25a.5.5 0 0 1 .5.5v1a.5.5 0 0 1-.5.5h-1a.5.5 0 0 1-.5-.5v-1a.5.5 0 0 1 .5-.5zm1-1.75c.69 0 1.25.56 1.25 1.25v.75a.5.5 0 0 1-1 0v-.75a.25.25 0 0 0-.25-.25h-.25a.5.5 0 0 1 0-1zm-2.25 0a.5.5 0 0 1 0 1h-.75a.25.25 0 0 0-.25.25V8a.5.5 0 0 1-1 0v-.25c0-.69.56-1.25 1.25-1.25zM3.25 1.75a.5.5 0 0 1 .5.5v1a.5.5 0 0 1-.5.5h-1a.5.5 0 0 1-.5-.5v-1a.5.5 0 0 1 .5-.5z"/>
    <path fill-rule="evenodd" d="M3.875 0C4.772 0 5.5.728 5.5 1.625v2.25c0 .897-.728 1.625-1.625 1.625h-2.25A1.625 1.625 0 0 1 0 3.875v-2.25C0 .728.728 0 1.625 0zm-2.25 1A.625.625 0 0 0 1 1.625v2.25c0 .345.28.625.625.625h2.25c.345 0 .625-.28.625-.625v-2.25A.625.625 0 0 0 3.875 1z" clip-rule="evenodd"/>
    <path d="M9.75 1.75a.5.5 0 0 1 .5.5v1a.5.5 0 0 1-.5.5h-1a.5.5 0 0 1-.5-.5v-1a.5.5 0 0 1 .5-.5z"/>
    <path fill-rule="evenodd" d="M10.375 0C11.273 0 12 .728 12 1.625v2.25c0 .897-.727 1.625-1.625 1.625h-2.25A1.625 1.625 0 0 1 6.5 3.875v-2.25C6.5.728 7.228 0 8.125 0zm-2.25 1a.625.625 0 0 0-.625.625v2.25c0 .345.28.625.625.625h2.25c.345 0 .625-.28.625-.625v-2.25A.625.625 0 0 0 10.375 1z" clip-rule="evenodd"/>
  </g>
  <defs>
    <clipPath id="a">
      <path fill="#fff" d="M0 0h12v12H0z"/>
    </clipPath>
  </defs>
</svg>
