<svg width="16" height="16" viewBox="0 0 16 16" fill="none" xmlns="http://www.w3.org/2000/svg">
<path d="M15.5 8C15.5 12.1421 12.1421 15.5 8 15.5C3.85786 15.5 0.5 12.1421 0.5 8C0.5 3.85786 3.85786 0.5 8 0.5C12.1421 0.5 15.5 3.85786 15.5 8Z" fill="#4397E0"/>
<path d="M8 0C12.4183 0 16 3.58172 16 8C16 12.4183 12.4183 16 8 16C3.58172 16 0 12.4183 0 8C0 3.58172 3.58172 0 8 0ZM8 1C4.13401 1 1 4.13401 1 8C1 11.866 4.13401 15 8 15C11.866 15 15 11.866 15 8C15 4.13401 11.866 1 8 1Z" fill="#045EB2"/>
<path d="M8.00025 10.7002C8.49724 10.7003 8.90015 11.1031 8.90015 11.6001C8.9001 12.0971 8.49721 12.4999 8.00025 12.5C7.50322 12.5 7.10039 12.0971 7.10034 11.6001C7.10034 11.103 7.50319 10.7002 8.00025 10.7002ZM8.15894 3.5C8.61418 3.5 8.97492 3.88509 8.94507 4.33936L8.64575 8.89502C8.62334 9.23539 8.34039 9.5 7.99927 9.5C7.6581 9.49996 7.37556 9.23499 7.35327 8.89453L7.05493 4.33887C7.02525 3.88476 7.38551 3.50009 7.84058 3.5H8.15894Z" fill="white"/>
</svg>
