<svg width="24" height="24" viewBox="0 0 24 24" fill="none" xmlns="http://www.w3.org/2000/svg">
<path d="M20.5 10.9061C20.5 13.9008 18.4243 16.5984 15.2585 17.747L15.2004 17.7682L15.1443 17.7941C14.1262 18.2617 12.2276 18.7805 10.052 19.2655C8.58752 19.592 7.063 19.8891 5.71753 20.1352L6.20581 19.5719C7.15714 18.475 6.88172 16.9296 5.94238 16.0973C4.4062 14.7363 3.5 12.8975 3.5 10.9061C3.50005 6.97444 7.13756 3.4999 12 3.4999V1.9999C6.47719 1.9999 2.00005 5.9874 2 10.9061C2 13.2968 3.05775 15.4673 4.77905 17.067L4.94775 17.2199C5.33426 17.5623 5.41697 18.1485 5.10425 18.5509L5.07275 18.5893L3.45532 20.454C2.9033 21.0905 3.4377 22.0583 4.26807 21.9157C7.58838 21.3453 13.4075 20.2424 15.7703 19.1571C19.4242 17.8314 22 14.6369 22 10.9061C21.9999 5.9874 17.5228 1.9999 12 1.9999V3.4999C16.7865 3.4999 20.386 6.86678 20.4973 10.7223L20.5 10.9061Z" fill="black" fill-opacity="0.84"/>
</svg>
