<svg width="354" height="206" viewBox="0 0 354 206" fill="none" xmlns="http://www.w3.org/2000/svg">
<path fill-rule="evenodd" clip-rule="evenodd" d="M1.43206 88.5271C5.72414 69.8633 25.7177 34.6945 97.1137 35.5485C133.209 35.3983 178.045 35.5329 207.77 32.1564C251.951 27.1379 284.745 16.4512 306.598 8.1216C337.504 -3.66939 348.471 -1.03986 352.317 6.01538C356.542 13.767 351.563 27.1531 340.764 39.4751C320.137 63.012 283.055 81.2498 217.562 86.663C152.07 92.0761 108.682 74.5081 90.005 103.111C81.9498 115.446 88.1775 144.52 151.513 153.676C237.098 166.028 307.387 138.793 316.072 155.241C324.757 171.69 274.729 205.156 189.005 205.856C103.281 206.557 49.7373 175.843 30.7491 160.575C6.6582 141.205 -4.12241 112.956 1.43206 88.5271Z" fill="#FFCC33"/>
</svg>
