<svg width="160" height="739" viewBox="0 0 160 739" fill="none" xmlns="http://www.w3.org/2000/svg">
<path d="M45.2043 51.9565C96.5625 34.2843 137.18 42.6931 158.861 68.3481C160.005 69.7012 159.16 71.7618 157.433 72.1655C-31.5356 116.294 2.9426 256.763 45.1564 428.744L45.1857 428.862C46.3405 433.567 47.5013 438.296 48.6632 443.046C83.7317 586.428 119.24 699.719 131.69 738.037C122.963 735.833 114.879 733.294 107.744 730.446C106.082 729.782 104.877 728.419 104.363 726.705C99.1851 709.435 82.8319 652.975 39.4933 478.395C-9.24044 282.082 -45.4791 122.111 137.585 72.1352C139.37 71.648 140.086 69.4054 138.717 68.1557C117.622 48.8943 81.8264 45.4623 46.7765 52.4282C46.0408 52.5744 45.3855 52.3998 44.88 52.0434C44.9869 52.0207 45.0955 51.9939 45.2043 51.9565ZM52.6662 8.09907C64.7522 10.0595 75.4849 13.0716 81.8039 15.0444C83.9311 15.7086 84.0534 18.6413 82.0451 19.6059C80.7978 20.205 79.3859 20.9016 77.8517 21.6918C70.6951 15.4628 61.2631 11.1079 53.2062 8.36567C53.0104 8.29903 52.8314 8.20753 52.6662 8.09907ZM61.132 1.25142C68.8405 0.452463 77.1704 -0.0524833 85.213 0.00434709C77.2037 0.0456085 69.1586 0.459404 61.132 1.25142Z" fill="#DDDDDD"/>
</svg>
