<svg width="284" height="160" viewBox="0 0 284 160" fill="none" xmlns="http://www.w3.org/2000/svg">
<path d="M179.683 53.7073C180.799 55.6914 181.696 57.7838 182.459 59.911C186.209 70.3655 192.317 103.625 187.698 111.84C183.078 120.056 153.074 124.023 134.565 124.341C116.056 124.66 111.889 117.91 108.14 107.456C105.14 99.0924 103.663 79.4284 103.699 68.1693C102.94 51.4683 109.061 45.5968 137.349 41.0329C158.284 37.6555 169.352 41.5837 175.741 48.3062C205.461 26.1902 255.05 -5.01989 259.886 0.683914C284.002 29.1259 287.051 96.8316 281.829 124.071C280.122 132.977 200.267 115.248 200.267 105.645C200.267 65.7665 189.888 54.8263 179.683 53.7073Z" fill="#4CBA3C"/>
<path d="M4.75789 41.2541C11.2982 30.934 64.3361 43.7682 93.4502 56.686C93.4502 56.686 87.4677 83.71 96.9927 115.548C99.7786 124.861 30.011 166.311 20.9047 159.18C10.3801 150.938 -8.98937 62.9462 4.75789 41.2541Z" fill="#4CBA3C"/>
</svg>
