<svg width="24" height="24" viewBox="0 0 24 24" fill="none" xmlns="http://www.w3.org/2000/svg">
<path d="M5.75863 15.0223C5.8154 14.6818 6.1374 14.4519 6.47787 14.5086C6.81833 14.5654 7.04829 14.8874 6.99154 15.2278L6.68221 17.0837C6.53233 17.983 6.93659 18.8845 7.70773 19.3709C8.76371 20.037 10.1596 19.7225 10.828 18.668L12.0971 16.6655C12.2819 16.3739 12.6681 16.2873 12.9597 16.4721C13.2512 16.6569 13.3378 17.0431 13.153 17.3347L11.8838 19.3371C10.8464 20.9739 8.67987 21.462 7.04086 20.4282C5.84399 19.6732 5.21669 18.274 5.4493 16.8782L5.75863 15.0223Z" fill="#783B13"/>
<path d="M16.375 4.4375L2.625 10.456V13.5595L16.375 19.5V4.4375Z" fill="#FFC95C"/>
<path d="M16.375 3C16.7202 3 17 3.27982 17 3.625V20.375C17 20.7202 16.7202 21 16.375 21C16.0298 21 15.75 20.7202 15.75 20.375V19.9258L3.25 14.5112V14.6238C3.25 14.969 2.97018 15.2488 2.625 15.2488C2.27982 15.2488 2 14.969 2 14.6238V9.37378C2 9.0286 2.27982 8.74878 2.625 8.74878C2.97018 8.74878 3.25 9.0286 3.25 9.37378V9.50317L15.75 4.07446V3.625C15.75 3.27982 16.0298 3 16.375 3ZM3.25 10.866V13.149L15.7142 18.5481V5.45276L3.25 10.866Z" fill="#B66A1F"/>
<path d="M18.5449 16.3915C18.6731 16.0711 19.0369 15.9152 19.3574 16.0434L20.9196 16.6683C21.2401 16.7965 21.396 17.1603 21.2678 17.4808C21.1396 17.8012 20.7759 17.9571 20.4554 17.8289L18.893 17.2039C18.5726 17.0757 18.4167 16.712 18.5449 16.3915ZM21.3752 10.9993C21.7204 10.9993 22.0002 11.2791 22.0002 11.6243C22.0002 11.9695 21.7204 12.2493 21.3752 12.2493H19.7502C19.405 12.2493 19.1252 11.9695 19.1252 11.6243C19.1252 11.2791 19.405 10.9993 19.7502 10.9993H21.3752ZM20.4554 5.73211C20.7759 5.60394 21.1395 5.75982 21.2678 6.08026C21.396 6.40075 21.2401 6.76456 20.9196 6.89276L19.3574 7.51764C19.0369 7.64583 18.6731 7.48998 18.5449 7.16949C18.4167 6.84903 18.5726 6.48533 18.893 6.35711L20.4554 5.73211Z" fill="#888888"/>
</svg>
