<svg width="128" height="96" viewBox="0 0 128 96" fill="none" xmlns="http://www.w3.org/2000/svg">
<path opacity="0.2" d="M16.912 31.0485C16.3283 30.4648 16.3283 29.5185 16.912 28.9348C17.4956 28.3512 18.4419 28.3512 19.0256 28.9348L20.9579 30.8671L22.8902 28.9348C23.4739 28.3512 24.4202 28.3512 25.0038 28.9348C25.5875 29.5185 25.5875 30.4648 25.0038 31.0485L23.0716 32.9808L25.0039 34.9131C25.5876 35.4968 25.5876 36.4431 25.0039 37.0268C24.4203 37.6105 23.474 37.6105 22.8903 37.0268L20.9579 35.0944L19.0255 37.0268C18.4419 37.6105 17.4955 37.6105 16.9119 37.0268C16.3282 36.4431 16.3282 35.4968 16.9119 34.9131L18.8443 32.9808L16.912 31.0485Z" fill="#888888"/>
<path opacity="0.2" d="M0.581701 52.9088C-0.00196865 52.3252 -0.00196964 51.3788 0.581699 50.7952C1.16537 50.2115 2.11168 50.2115 2.69535 50.7952L3.98682 52.0866L5.27829 50.7952C5.86196 50.2115 6.80827 50.2115 7.39194 50.7952C7.97561 51.3788 7.97561 52.3252 7.39194 52.9088L6.10047 54.2003L7.39233 55.4921C7.976 56.0758 7.976 57.0221 7.39233 57.6058C6.80866 58.1895 5.86235 58.1895 5.27868 57.6058L3.98682 56.3139L2.69496 57.6058C2.11129 58.1895 1.16497 58.1895 0.581305 57.6058C-0.00236315 57.0221 -0.00236198 56.0758 0.581308 55.4921L1.87316 54.2003L0.581701 52.9088Z" fill="#888888"/>
<path opacity="0.2" d="M105.554 37.4577C104.971 36.874 104.971 35.9277 105.554 35.344C106.138 34.7603 107.084 34.7603 107.668 35.344L108.959 36.6355L110.251 35.344C110.835 34.7603 111.781 34.7603 112.365 35.344C112.948 35.9277 112.948 36.874 112.365 37.4577L111.073 38.7491L112.365 40.041C112.949 40.6246 112.949 41.5709 112.365 42.1546C111.781 42.7383 110.835 42.7383 110.251 42.1546L108.959 40.8628L107.668 42.1546C107.084 42.7383 106.138 42.7383 105.554 42.1546C104.97 41.5709 104.97 40.6246 105.554 40.041L106.846 38.7491L105.554 37.4577Z" fill="#888888"/>
<path opacity="0.2" d="M124.5 54C123.675 54 123 53.325 123 52.5C123 51.675 123.675 51 124.5 51C125.325 51 126 51.675 126 52.5C126 53.325 125.325 54 124.5 54Z" fill="#888888"/>
<path opacity="0.2" d="M24 67C22.9 67 22 66.1 22 65C22 63.9 22.9 63 24 63C25.1 63 26 63.9 26 65C26 66.1 25.1 67 24 67Z" fill="#888888"/>
<path d="M63.5 70.8021C65.4454 70.8021 66.9837 69.214 67.3412 67.3018C69.076 58.0229 77.2178 51 87 51H91.9593C94.1849 51 96 49.2256 96 47C96 46.9735 95.9927 37.9782 94.6618 32.9964C93.9243 30.241 91.7588 28.0757 89.0035 27.3382C84.0145 26 63.9999 26 63.9999 26C63.9999 26 43.9855 26 38.9964 27.3382C36.241 28.0757 34.0757 30.241 33.3382 32.9964C32 37.9855 32 48.401 32 48.401C32 48.401 32 58.8166 33.3382 63.8058C34.0757 66.5611 36.241 68.7264 38.9964 69.4638C43.9855 70.8021 63.5 70.8021 63.5 70.8021Z" fill="#FF0000"/>
<path d="M57.5938 58.0006L74.2207 48.4017L57.5938 38.8027V58.0006Z" fill="white"/>
<path d="M103 71C103 79.8366 95.8366 87 87 87C78.1634 87 71 79.8366 71 71C71 62.1634 78.1634 55 87 55C95.8366 55 103 62.1634 103 71Z" fill="#EB102D"/>
<path d="M89 77.7998C89 78.9044 88.1046 79.7998 87 79.7998C85.8954 79.7998 85 78.9044 85 77.7998C85 76.6952 85.8954 75.7998 87 75.7998C88.1046 75.7998 89 76.6952 89 77.7998Z" fill="white"/>
<path d="M86.9612 73.4002C86.2548 73.4002 85.627 72.9102 85.5485 72.2802L84.6067 63.5302C84.5282 62.8302 85.1561 62.2002 86.0194 62.2002H87.9814C88.7663 62.2002 89.4726 62.8302 89.3941 63.5302L88.4524 72.2802C88.2954 72.9102 87.6675 73.4002 86.9612 73.4002Z" fill="white"/>
<path d="M108.501 59C108.799 59 109.096 59.12 109.324 59.3539C109.778 59.8219 109.778 60.5837 109.324 61.0517L106.991 63.4512C106.536 63.9192 105.796 63.9192 105.341 63.4512C104.886 62.9833 104.886 62.2215 105.341 61.7535L107.673 59.3539C107.901 59.12 108.198 59 108.496 59H108.501Z" fill="#CCCCCC"/>
<path d="M107.335 69.7982H110.834C111.475 69.7982 112 70.3381 112 70.998C112 71.6579 111.475 72.1978 110.834 72.1978H107.335C106.694 72.1978 106.169 71.6579 106.169 70.998C106.169 70.3381 106.694 69.7982 107.335 69.7982Z" fill="#CCCCCC"/>
<path d="M105.353 78.5518C105.58 78.3178 105.878 78.1978 106.175 78.1978H106.181C106.478 78.1978 106.776 78.3178 107.003 78.5518L109.336 80.9513C109.79 81.4193 109.79 82.1811 109.336 82.6491C108.881 83.117 108.14 83.117 107.685 82.6491L105.353 80.2495C104.898 79.7815 104.898 79.0197 105.353 78.5518Z" fill="#CCCCCC"/>
</svg>
