<svg width="12" height="12" viewBox="0 0 12 12" fill="none" xmlns="http://www.w3.org/2000/svg">
<path d="M4 8C4.27614 8 4.5 8.22386 4.5 8.5C4.5 8.77614 4.27614 9 4 9H2.5C2.22386 9 2 8.77614 2 8.5C2 8.22386 2.22386 8 2.5 8H4Z" fill="black"/>
<path d="M5.75 8C6.02614 8 6.25 8.22386 6.25 8.5C6.25 8.77614 6.02614 9 5.75 9H5.5C5.22386 9 5 8.77614 5 8.5C5 8.22386 5.22386 8 5.5 8H5.75Z" fill="black"/>
<path d="M9.5 8C9.77614 8 10 8.22386 10 8.5C10 8.77614 9.77614 9 9.5 9H7.5C7.22386 9 7 8.77614 7 8.5C7 8.22386 7.22386 8 7.5 8H9.5Z" fill="black"/>
<path d="M4.625 5C4.83211 5 5 5.16789 5 5.375V6.625C5 6.83211 4.83211 7 4.625 7H2.375C2.16789 7 2 6.83211 2 6.625V5.375C2 5.16789 2.16789 5 2.375 5H4.625Z" fill="black"/>
<path fill-rule="evenodd" clip-rule="evenodd" d="M9.1543 1.00391C10.7394 1.08421 12 2.39489 12 4V8C12 9.65685 10.6569 11 9 11H3C1.34315 11 6.44256e-08 9.65685 0 8V4C6.44266e-08 2.34315 1.34315 1 3 1H9L9.1543 1.00391ZM3 2C1.89543 2 1 2.89543 1 4V8C1 9.10457 1.89543 10 3 10H9C10.1046 10 11 9.10457 11 8V4C11 2.96435 10.2128 2.113 9.2041 2.01074L9 2H3Z" fill="black"/>
</svg>
