<svg width="128" height="96" viewBox="0 0 128 96" fill="none" xmlns="http://www.w3.org/2000/svg">
<path d="M32.375 46.3809C32.375 43.6194 34.6136 41.3809 37.375 41.3809H87.8956C92.0377 41.3809 95.3956 44.7387 95.3956 48.8809V57.2111C95.3956 60.2486 92.9332 62.711 89.8956 62.711V55.7121H41.3125V62.711H39.875C35.7329 62.711 32.375 59.3532 32.375 55.211V46.3809Z" fill="#C19EDB"/>
<path d="M68 55.5C68.138 55.5 68.25 55.6119 68.25 55.75V73.906C68.25 74.0245 68.1667 74.1266 68.0508 74.1506L63.0508 75.1877C62.8956 75.2199 62.75 75.1013 62.75 74.9429V55.75C62.75 55.6119 62.8619 55.5 63 55.5H68Z" fill="#F7F5F2"/>
<path d="M79.25 55.5C79.388 55.5 79.5 55.6119 79.5 55.75V73.9956C79.4999 74.1261 79.3994 74.2348 79.2693 74.2449L73.0193 74.7292C72.8741 74.7405 72.75 74.6256 72.75 74.48V55.75C72.75 55.6119 72.8619 55.5 73 55.5H79.25Z" fill="#F7F5F2"/>
<path d="M48.25 55.5C48.388 55.5 48.5 55.6119 48.5 55.75V73.4741C48.5 73.6218 48.3726 73.7373 48.2256 73.7229L41.9756 73.1086C41.8476 73.0961 41.75 72.9882 41.75 72.8596V55.75C41.75 55.6119 41.8619 55.5 42 55.5H48.25Z" fill="#F7F5F2"/>
<path d="M89.25 55.5C89.388 55.5 89.5 55.6119 89.5 55.75V70.958C89.5 71.0808 89.4108 71.1854 89.2895 71.2048L83.0395 72.2039C82.8876 72.2281 82.75 72.1106 82.75 71.9568V55.75C82.75 55.6119 82.8619 55.5 83 55.5H89.25Z" fill="#F7F5F2"/>
<path d="M58.5 55.75C58.638 55.75 58.75 55.8619 58.75 56V71.25C58.75 71.3881 58.638 71.5 58.5 71.5H52.5C52.3619 71.5 52.25 71.3881 52.25 71.25V56C52.25 55.8619 52.3619 55.75 52.5 55.75H58.5Z" fill="#F7F5F2"/>
<path d="M76.4597 20.75C80.8147 20.75 84.9777 22.9882 86.4136 27.0996C89.0422 34.6268 89.5 42.8611 89.5 46.5H41.7788C41.7788 43.3332 41.34 35.1631 38.8547 27.6443C37.8131 24.4932 40.0083 20.75 43.3271 20.75H76.4597Z" fill="#F7F5F2"/>
<path d="M68.75 55.4995C68.8881 55.4995 69 55.6114 69 55.7495V63.4541C69 63.6086 68.8612 63.7262 68.7088 63.7007L62.7088 62.6938C62.5884 62.6736 62.5001 62.5693 62.5 62.4473V55.7495C62.5 55.6115 62.612 55.4995 62.75 55.4995H68.75Z" fill="#D3B9EB"/>
<path d="M79.25 55.4995C79.3881 55.4995 79.5 55.6114 79.5 55.7495V57.9727C79.5 58.066 79.4481 58.1516 79.3653 58.1946L73.3653 61.3098C73.1989 61.3962 73.0001 61.2756 73 61.0881V55.7495C73 55.6115 73.112 55.4995 73.25 55.4995H79.25Z" fill="#D3B9EB"/>
<path d="M58.4998 55.4995C58.6379 55.4995 58.7498 55.6114 58.7498 55.7495V59.9041C58.7497 60.0742 58.5833 60.1946 58.4217 60.1414L52.4849 58.1858C52.3757 58.1498 52.305 58.0439 52.3137 57.9292L52.4822 55.7305C52.4922 55.6002 52.6008 55.4995 52.7315 55.4995H58.4998Z" fill="#D3B9EB"/>
<path d="M64.8648 26.623C79.7653 26.6231 83.4905 39.5203 83.4905 45.969H73.9387C73.2795 42.7353 70.7044 41.0664 68.7647 40.3306C68.5583 40.2525 68.5071 39.9953 68.6587 39.8384C69.525 38.9474 69.9938 36.9723 69.8943 35.6296C69.7228 33.2804 67.7741 30.309 64.5862 30.908C61.3985 31.5069 60.5992 33.5837 60.7346 36.1733C60.8039 37.484 61.4521 39.3703 62.3872 40.1545C62.5503 40.2917 62.5154 40.5509 62.324 40.6453C60.5906 41.5067 58.3495 43.2564 57.7232 45.969H47.658C47.185 39.5203 49.9643 26.6231 64.8648 26.623Z" fill="#D3B9EB"/>
<path d="M41.1882 50.6284C42.1444 50.6284 43.1007 50.7549 44.0569 51.0081C44.1631 51.0362 44.2695 51.0659 44.3757 51.0972C44.4402 51.1163 44.5021 51.1496 44.5476 51.2002C44.5931 51.2507 44.6187 51.3136 44.6187 51.3784C44.6187 51.4432 44.5931 51.5061 44.5476 51.5566C44.5021 51.6072 44.4402 51.6405 44.3757 51.6597C44.2695 51.6909 44.1631 51.7207 44.0569 51.7488C43.1007 52.0019 42.1444 52.1284 41.1882 52.1284C40.232 52.1284 39.2758 52.0019 38.3196 51.7488C38.2133 51.7207 38.107 51.6909 38.0007 51.6597C37.9363 51.6405 37.8744 51.6072 37.8289 51.5566C37.7834 51.5061 37.7578 51.4432 37.7578 51.3784C37.7578 51.3136 37.7834 51.2507 37.8289 51.2002C37.8744 51.1496 37.9363 51.1163 38.0007 51.0972C38.107 51.0659 38.2133 51.0362 38.3196 51.0081C39.2758 50.755 40.232 50.6284 41.1882 50.6284Z" fill="#682A7A"/>
<path fill-rule="evenodd" clip-rule="evenodd" d="M76.7573 20C81.1652 20.0001 85.5553 22.1897 87.1084 26.5198C88.8407 31.3497 89.6454 36.6515 89.9985 40.7156C92.9597 40.9587 95.5102 43.1986 95.8586 46.2246L95.8745 46.3779L95.8774 46.4421L95.9194 57.5068V57.657C95.8857 60.8059 93.5087 63.4196 90.27 63.4197C90.2635 63.4197 90.257 63.4191 90.2505 63.4189V70.375C90.2505 70.7892 89.9147 71.125 89.5005 71.125C89.0863 71.125 88.7505 70.7892 88.7505 70.375V56.1636H83.5005V71.4827C83.5005 71.8969 83.1647 72.2327 82.7505 72.2327C82.3363 72.2327 82.0005 71.8969 82.0005 71.4827V56.1636H79.9534L80.2505 73.6951C80.2575 74.1092 79.9273 74.4505 79.5132 74.4575C79.099 74.4645 78.7575 74.1346 78.7505 73.7205L78.4531 56.1636H73.2505V74C73.2505 74.4142 72.9147 74.75 72.5005 74.75C72.0863 74.75 71.7505 74.4142 71.7505 74V56.1636H69.5005V73.4285C69.5005 73.8427 69.1647 74.1785 68.7505 74.1785C68.3363 74.1785 68.0005 73.8427 68.0005 73.4285V56.1636H63.0005V74.5C63.0005 74.9142 62.6647 75.25 62.2505 75.25C61.8363 75.25 61.5005 74.9142 61.5005 74.5V56.1636H59.5005V70.75C59.5005 71.1642 59.1647 71.5 58.7505 71.5C58.3363 71.5 58.0005 71.1642 58.0005 70.75V56.1636H53.0005V70.75C53.0005 71.1642 52.6647 71.5 52.2505 71.5C51.8363 71.5 51.5005 71.1642 51.5005 70.75V56.1636H49.2505V73C49.2505 73.4142 48.9147 73.75 48.5005 73.75C48.0863 73.75 47.7505 73.4142 47.7505 73V56.1636H42.5005V72.3047C42.5005 72.7189 42.1647 73.0547 41.7505 73.0547C41.3363 73.0547 41.0005 72.7189 41.0005 72.3047V63.6238L39.8218 63.5369C35.655 63.229 32.2283 59.8449 32.061 55.6367C32.0606 55.6263 32.0605 55.6159 32.0605 55.6055L32.0781 46.9988L32.0784 46.98C32.1204 45.4264 32.8837 43.9099 33.9668 42.783C35.0484 41.6576 36.5295 40.8382 38.1011 40.7949L40.752 40.708C40.4194 37.109 39.7231 32.4717 38.333 28.1455C37.7402 26.3004 38.0954 24.2821 39.0579 22.7283C40.0231 21.17 41.6542 20 43.6626 20H76.7573ZM38.1499 42.2939C38.1484 42.294 38.147 42.2939 38.1455 42.2939C37.0624 42.3228 35.9323 42.9025 35.0483 43.8223C34.1662 44.7401 33.6093 45.9142 33.5779 47.0154L33.5605 55.5872C33.7013 58.9956 36.4961 61.7869 39.9324 62.0408L41.0005 62.1196V55.75C41.0005 55.5936 41.0484 55.4483 41.1304 55.3281C41.1728 54.9542 41.4902 54.6636 41.8755 54.6636H89.5425C89.9567 54.6636 90.2925 54.9994 90.2925 55.4136C90.2925 55.5041 90.2755 55.5905 90.2461 55.6709C90.2488 55.6969 90.2505 55.7233 90.2505 55.75V61.9202C90.257 61.92 90.2635 61.9197 90.27 61.9197C92.6508 61.9196 94.4512 59.9809 94.4194 57.5261C94.4194 57.5238 94.4194 57.5216 94.4194 57.5193L94.3774 46.4846C94.1644 44.2627 92.3419 42.5229 90.1145 42.2354C90.2162 43.7866 90.2505 45.0831 90.2505 46C90.2505 46.1494 90.2061 46.2881 90.1309 46.405C90.1376 46.4453 90.1411 46.4866 90.1411 46.5288C90.1411 46.943 89.8053 47.2788 89.3911 47.2788H41.7698C41.3556 47.2788 41.0198 46.943 41.0198 46.5288C41.0198 46.4306 41.0389 46.3369 41.0732 46.251C41.0453 46.1724 41.0295 46.0881 41.0295 46C41.0295 45.1503 40.991 43.8299 40.8748 42.2046L38.1499 42.2939ZM43.6626 21.5C42.2826 21.5 41.0876 22.3 40.333 23.5181C39.5757 24.7407 39.3175 26.3055 39.7612 27.6865C42.0536 34.8207 42.5074 42.72 42.5283 45.7788H88.7495C88.7296 42.3128 88.2373 34.1104 85.6965 27.0264C84.4185 23.4631 80.7351 21.5001 76.7573 21.5H43.6626Z" fill="#682A7A"/>
<path d="M35.0408 27.444C35.1054 27.4209 35.1772 27.4242 35.2419 27.4525C35.3067 27.4808 35.3585 27.5323 35.3926 27.5929C35.4837 27.7554 35.5736 27.9212 35.6606 28.0863C36.4448 29.5781 37.0552 31.1502 37.4641 32.7823C37.869 34.4122 38.0847 36.112 37.9761 37.8187C37.9635 38.0085 37.9465 38.1984 37.9245 38.3854C37.9162 38.4544 37.8881 38.5216 37.8391 38.5726C37.7902 38.6235 37.7252 38.6541 37.6567 38.6576C37.5882 38.661 37.5203 38.6372 37.4665 38.5914C37.4127 38.5456 37.378 38.4815 37.3628 38.4137C37.3226 38.2364 37.2807 38.0575 37.2378 37.8797C36.8474 36.2858 36.4014 34.7276 36.009 33.1461C35.613 31.5654 35.2598 29.9672 34.9607 28.329C34.9275 28.1475 34.8945 27.9637 34.8628 27.7818C34.8508 27.7134 34.8584 27.6409 34.8906 27.578C34.9228 27.5151 34.9761 27.467 35.0408 27.444Z" fill="#7D4794"/>
</svg>
