<svg width="24" height="24" viewBox="0 0 24 24" fill="none" xmlns="http://www.w3.org/2000/svg">
<path d="M12 2.625C6.82233 2.625 2.625 6.82233 2.625 12C2.625 12.2048 2.87318 12.3045 3.03126 12.1743C4.11058 11.2851 5.49234 10.75 7 10.75C10.4518 10.75 13.25 13.5482 13.25 17C13.25 18.5077 12.7149 19.8894 11.8257 20.9687C11.6955 21.1268 11.7952 21.375 12 21.375C17.1777 21.375 21.375 17.1777 21.375 12C21.375 6.82233 17.1777 2.625 12 2.625Z" fill="#1074CC"/>
<path d="M12 2C6.47715 2 2 6.47715 2 12C2 12.4414 2.55684 12.6269 2.87718 12.3232C3.00942 12.1978 3.13947 12.0827 3.25098 11.999C3.2515 7.16698 7.16784 3.25 12 3.25C16.8325 3.25 20.75 7.16751 20.75 12C20.75 16.8325 16.8325 20.75 12 20.75C11.9006 20.8824 11.7959 21.0105 11.6863 21.1343C11.4036 21.4536 11.5735 22 12 22C17.5228 22 22 17.5228 22 12C22 6.47715 17.5228 2 12 2Z" fill="#045EB2"/>
<path d="M11.5359 4.80287C11.4468 4.78638 11.3519 4.80002 11.2723 4.84584C11.1929 4.89187 11.1341 4.96619 11.1092 5.05287C11.0846 5.1397 11.0943 5.23453 11.1375 5.31557C11.1809 5.39644 11.2544 5.45824 11.3387 5.49135C11.554 5.57805 11.7611 5.68351 11.9598 5.8058C13.733 6.95164 14.7565 9.01934 15.3651 11.0675C15.3742 11.0996 15.3835 11.1321 15.3924 11.1642C14.3124 11.6142 13.1841 11.9869 12.0594 12.3312C11.8294 12.399 11.5983 12.4643 11.367 12.5294C11.7386 12.8925 12.0655 13.3014 12.3377 13.7472C12.3825 13.7343 12.4278 13.7233 12.4725 13.7101C13.5638 13.3747 14.6491 12.982 15.6893 12.4835C15.9771 14.1366 15.9528 15.8469 15.4666 17.4572C15.3963 17.6867 15.3161 17.9152 15.2254 18.1388C15.1837 18.2409 15.1781 18.3567 15.2147 18.4621C15.2514 18.5672 15.3264 18.6549 15.4246 18.7042C15.5227 18.7533 15.6379 18.762 15.744 18.7287C15.8501 18.6949 15.9391 18.6198 15.9959 18.5255C16.1336 18.2937 16.2605 18.054 16.3738 17.8087C17.2363 15.9281 17.3812 13.7906 17.0067 11.7736C17.5324 11.4556 18.0428 11.1029 18.5281 10.7042C18.7281 10.5349 18.9201 10.3571 19.0984 10.1701C19.1804 10.0831 19.2305 9.96751 19.2342 9.84682C19.2376 9.72587 19.1939 9.60765 19.1131 9.51967C19.0321 9.43184 18.9185 9.3788 18.7977 9.37221C18.6767 9.36577 18.5573 9.40673 18.4637 9.48158C18.2895 9.61927 18.1035 9.7526 17.909 9.88002C17.5241 10.124 17.1238 10.348 16.7137 10.5568C16.0233 8.30026 14.6548 6.0371 12.3387 5.04115C12.0781 4.93657 11.8088 4.85595 11.5359 4.80287Z" fill="#A1D0F7"/>
<path d="M8.34943 5.77064C8.25781 5.77891 8.17268 5.82292 8.10919 5.88783C7.91654 6.08829 7.7426 6.30855 7.58966 6.54408C6.79448 7.8364 6.5474 9.30624 6.63458 10.7609C6.75538 10.7539 6.87727 10.7501 6.99982 10.7501C7.33851 10.7501 7.67085 10.7774 7.99493 10.8292C7.80018 9.50462 7.84906 8.1666 8.33966 6.95228C8.43178 6.73788 8.53963 6.53191 8.66583 6.33705C8.71578 6.26144 8.74136 6.16839 8.73028 6.07728C8.71891 5.98642 8.67222 5.90357 8.60236 5.84682C8.53204 5.79013 8.44094 5.76256 8.34943 5.77064Z" fill="#A1D0F7"/>
<circle cx="5" cy="5" r="5" transform="matrix(-1 0 0 1 12 12)" fill="black"/>
<path fill-rule="evenodd" clip-rule="evenodd" d="M7 13.5C5.96447 13.5 5.125 14.3395 5.125 15.375V16.3975H5.01953C4.5379 16.3975 4.14748 16.7879 4.14746 17.2695V18.9805C4.14748 19.4621 4.5379 19.8525 5.01953 19.8525H8.98047C9.4621 19.8525 9.85252 19.4621 9.85254 18.9805V17.2695C9.85252 16.7879 9.4621 16.3975 8.98047 16.3975H8.875V15.375C8.875 14.3395 8.03553 13.5 7 13.5ZM7 14.5C7.48325 14.5 7.875 14.8918 7.875 15.375V16.3975H6.125V15.375C6.125 14.8918 6.51675 14.5 7 14.5Z" fill="white"/>
</svg>
