<svg fill="none" viewBox="0 0 16 16" xmlns="http://www.w3.org/2000/svg">
  <path fill="#000" d="M10.25 0C11.769 0 13 1.231 13 2.75v10.5c0 1.519-1.231 2.75-2.75 2.75h-4.5C4.231 16 3 14.769 3 13.25V2.75C3 1.231 4.231 0 5.75 0zm-4.5 1.25c-.828 0-1.5.672-1.5 1.5v10.5c0 .828.672 1.5 1.5 1.5h4.5c.828 0 1.5-.672 1.5-1.5V2.75c0-.828-.672-1.5-1.5-1.5zm1.455 4.661c.44-.439 1.152-.439 1.59 0l1.522 1.522c.244.244.244.64 0 .884s-.64.244-.883 0l-.809-.808v4.616c0 .345-.28.625-.625.625s-.625-.28-.625-.625V7.509l-.808.808c-.244.244-.64.244-.883 0-.244-.244-.244-.64 0-.884zM10 2.5c.414 0 .75.336.75.75S10.414 4 10 4H6c-.414 0-.75-.336-.75-.75s.336-.75.75-.75z"/>
</svg>
