<svg width="12" height="12" viewBox="0 0 12 12" fill="none" xmlns="http://www.w3.org/2000/svg">
<path fill-rule="evenodd" clip-rule="evenodd" d="M9.1543 1.00391C10.7394 1.08421 12 2.39489 12 4V8C12 9.65685 10.6569 11 9 11H3C1.34315 11 6.44256e-08 9.65685 0 8V6.5C0 6.22386 0.223858 6 0.5 6C0.776142 6 1 6.22386 1 6.5V8H11V4C11 2.96435 10.2128 2.113 9.2041 2.01074L9 2H3.00872C2.14376 2 1.86022 1.09263 2.72149 1.01284C2.81317 1.00434 2.90606 1 3 1H9L9.1543 1.00391ZM1.26953 9C1.61546 9.59733 2.26007 10 3 10H9C9.73993 10 10.3845 9.59733 10.7305 9H1.26953Z" fill="black"/>
<path d="M4.5 3C5.88071 3 7 4.11929 7 5.5V5.56641L7.72266 5.08398C7.95228 4.93115 8.26284 4.99326 8.41602 5.22266C8.56885 5.45228 8.50674 5.76284 8.27734 5.91602L6.77734 6.91602L6.71191 6.95215C6.55531 7.0256 6.36958 7.01383 6.22266 6.91602L4.72266 5.91602C4.49308 5.76289 4.43111 5.45236 4.58398 5.22266C4.73718 4.99325 5.04772 4.9311 5.27734 5.08398L6 5.56445V5.5C6 4.67157 5.32843 4 4.5 4H0.5C0.223858 4 0 3.77614 0 3.5C0 3.22386 0.223858 3 0.5 3H4.5Z" fill="black"/>
</svg>
