<svg width="12" height="12" viewBox="0 0 12 12" fill="none" xmlns="http://www.w3.org/2000/svg">
<g clip-path="url(#clip0_5102_1503)">
<path d="M2.38861 11.1855C2.48326 10.9446 2.75538 10.8259 2.99634 10.9206C3.22917 11.012 3.48313 11.0625 3.75 11.0625H4.82144C5.08032 11.0625 5.29019 11.2724 5.29019 11.5312C5.29019 11.7901 5.08032 12 4.82144 12H3.75C3.36392 12 2.99381 11.9268 2.65356 11.7932C2.41262 11.6985 2.29399 11.4265 2.38861 11.1855ZM7.56528 7.4328C7.71172 7.28637 7.9492 7.28636 8.09564 7.4328L11.0626 10.3997V8.62491C11.0626 8.4178 11.2305 8.24991 11.4376 8.24991H11.6252C11.8322 8.24996 12.0001 8.41777 12.0001 8.62482V11.6249C12.0001 11.832 11.8322 11.9999 11.6251 11.9999H8.62509C8.418 11.9999 8.2501 11.832 8.25009 11.6249V11.4374C8.2501 11.2303 8.41801 11.0624 8.62509 11.0624L10.3994 11.0623L7.43271 8.09564C7.2863 7.9492 7.2863 7.71181 7.43271 7.56537L7.56528 7.4328ZM1.21875 7.81696C1.47763 7.81696 1.6875 8.02683 1.6875 8.28571V9C1.6875 9.26687 1.73795 9.52083 1.82941 9.75366C1.92406 9.99462 1.80541 10.2667 1.56445 10.3614C1.3235 10.456 1.05146 10.3374 0.956818 10.0964C0.82317 9.75619 0.75 9.38608 0.75 9V8.28571C0.750005 8.02683 0.95987 7.81696 1.21875 7.81696ZM5.8125 6.75C6.07138 6.75 6.28125 6.95987 6.28125 7.21875C6.28125 7.47763 6.07138 7.6875 5.8125 7.6875H3.46875C3.20987 7.6875 3 7.47763 3 7.21875C3 6.95987 3.20987 6.75 3.46875 6.75H5.8125ZM1.21875 4.81696C1.47763 4.81696 1.6875 5.02683 1.6875 5.28571V6.71429C1.68749 6.97317 1.47763 7.18304 1.21875 7.18304C0.95987 7.18304 0.750005 6.97317 0.75 6.71429V5.28571C0.750005 5.02683 0.95987 4.81696 1.21875 4.81696ZM10.7812 4.81696C11.0401 4.81696 11.25 5.02683 11.25 5.28571V6.34552C10.9622 6.16703 10.6472 6.02844 10.3125 5.93738V5.28571C10.3125 5.02683 10.5224 4.81696 10.7812 4.81696ZM7.03125 4.5C7.29013 4.5 7.5 4.70987 7.5 4.96875C7.5 5.22763 7.29013 5.4375 7.03125 5.4375H3.46875C3.20987 5.4375 3 5.22763 3 4.96875C3 4.70987 3.20987 4.5 3.46875 4.5H7.03125ZM0.956818 1.90356C1.05146 1.66262 1.3235 1.54399 1.56445 1.63861C1.80541 1.73326 1.92406 2.00538 1.82941 2.24634C1.73795 2.47917 1.6875 2.73313 1.6875 3V3.71429C1.68749 3.97317 1.47763 4.18304 1.21875 4.18304C0.95987 4.18304 0.750005 3.97317 0.75 3.71429V3C0.75 2.61392 0.82317 2.24381 0.956818 1.90356ZM10.4355 1.63861C10.6765 1.54399 10.9485 1.66262 11.0432 1.90356C11.1768 2.24381 11.25 2.61392 11.25 3V3.71429C11.25 3.97317 11.0401 4.18304 10.7812 4.18304C10.5224 4.18304 10.3125 3.97317 10.3125 3.71429V3C10.3125 2.73313 10.262 2.47917 10.1706 2.24634C10.0759 2.00538 10.1946 1.73326 10.4355 1.63861ZM8.53125 2.25C8.79013 2.25 9 2.45987 9 2.71875C9 2.97763 8.79013 3.1875 8.53125 3.1875H3.46875C3.20987 3.1875 3 2.97763 3 2.71875C3 2.45987 3.20987 2.25 3.46875 2.25H8.53125ZM4.82144 0C5.08032 7.36716e-06 5.29019 0.209872 5.29019 0.46875C5.29019 0.727628 5.08032 0.937493 4.82144 0.9375H3.75C3.48313 0.9375 3.22917 0.987953 2.99634 1.07941C2.75538 1.17406 2.48326 1.05541 2.38861 0.814453C2.29399 0.573503 2.41262 0.301462 2.65356 0.206818C2.99381 0.0731702 3.36392 9.36207e-08 3.75 0H4.82144ZM8.25 0C8.63608 7.8935e-08 9.00619 0.0731701 9.34644 0.206818C9.58738 0.301462 9.70601 0.573503 9.61139 0.814453C9.51674 1.05541 9.24462 1.17406 9.00366 1.07941C8.77083 0.987953 8.51687 0.9375 8.25 0.9375H7.17856C6.91968 0.937493 6.70981 0.727629 6.70981 0.46875C6.70981 0.209872 6.91968 7.28672e-06 7.17856 0H8.25Z" fill="black"/>
</g>
<defs>
<clipPath id="clip0_5102_1503">
<rect width="12" height="12" fill="white"/>
</clipPath>
</defs>
</svg>
