<svg fill="none" viewBox="0 0 24 24" xmlns="http://www.w3.org/2000/svg">
  <path fill="#000" d="M17.5 5.75c0-1.243-1.007-2.25-2.25-2.25h-6.5C7.507 3.5 6.5 4.507 6.5 5.75v12.5c0 1.243 1.007 2.25 2.25 2.25h6.5c1.243 0 2.25-1.007 2.25-2.25zm1.5 12.5c0 2.071-1.679 3.75-3.75 3.75h-6.5C6.679 22 5 20.321 5 18.25V5.75C5 3.679 6.679 2 8.75 2h6.5C17.321 2 19 3.679 19 5.75z"/>
  <path fill="#000" d="M8.25 6c0-.414.336-.75.75-.75h6c.414 0 .75.336.75.75s-.336.75-.75.75H9c-.414 0-.75-.336-.75-.75m2.482 3.427c.683-.683 1.79-.683 2.474 0l2.263 2.262c.292.293.292.767 0 1.06-.293.293-.768.293-1.06 0l-1.659-1.658v6.41c0 .413-.336.75-.75.75s-.75-.337-.75-.75v-6.472l-1.72 1.72c-.292.293-.767.293-1.06 0s-.293-.767 0-1.06z"/>
</svg>
