<svg width="128" height="96" viewBox="0 0 128 96" fill="none" xmlns="http://www.w3.org/2000/svg">
<path d="M79.4497 20.5941C88.0361 20.1354 95.2497 26.974 95.2497 35.5726V52.6866C95.2497 53.1207 95.231 53.5504 95.1948 53.9752C93.5801 53.3635 91.8293 53.0286 90.0002 53.0286C81.9052 53.0286 75.3418 59.5869 75.3335 67.68L41.7121 67.6358C35.2486 67.6273 30.1214 62.1869 30.4958 55.7342L31.8064 33.1531C32.1384 27.4333 36.716 22.8768 42.4372 22.5711L79.4497 20.5941Z" fill="#F5FBFE"/>
<path d="M76.5889 61.7494C75.782 63.5667 75.3335 65.5784 75.3335 67.6949C75.3335 71.2505 76.5988 74.5105 78.7036 77.0494C78.2375 77.2487 77.6606 77.3558 76.9895 77.3558L63.1592 77.3829L63.1582 77.3827L50.5676 77.4076C50.3816 77.4079 50.241 77.2391 50.2751 77.0562C50.4986 75.8614 51.5004 74.9681 52.7129 74.8824L58.5017 74.4732C59.3919 74.4103 59.8625 73.3898 59.3323 72.672L55.5103 67.4994H41.106C37.1529 67.4993 33.5356 65.2762 31.75 61.7494H76.5889Z" fill="#4397E0"/>
<path d="M79.4495 20.5941C88.036 20.1352 95.25 26.9738 95.25 35.5726V53.9957C93.7788 53.4316 92.1937 53.0977 90.5386 53.0379L91.4773 33.7437C91.8371 26.348 85.7254 20.2628 78.3323 20.6537L79.4495 20.5941Z" fill="#4397E0"/>
<path d="M78.325 20.6541L67.8669 21.2132L78.3323 20.6537C78.3298 20.6538 78.3274 20.654 78.325 20.6541Z" fill="#4397E0"/>
<path d="M79.4095 19.8451C88.4249 19.3638 95.9989 26.5446 95.9991 35.5729V52.6867C95.9991 53.2221 95.9721 53.7512 95.92 54.2729C95.4465 54.0637 94.9599 53.879 94.4617 53.7201C94.4862 53.3789 94.4991 53.0342 94.4991 52.6867V35.5729C94.4989 27.4045 87.6464 20.9077 79.4896 21.3432L42.4774 23.3202C37.1375 23.6055 32.865 27.8585 32.555 33.1969L31.2444 55.7777C30.8949 61.8003 35.6803 66.8781 41.713 66.8861L75.3528 66.9301C75.3398 67.1836 75.3333 67.4388 75.3333 67.6955C75.3333 67.9417 75.3394 68.1866 75.3514 68.4298L73.2974 68.4274C74.1698 69.6818 74.9934 70.9629 75.7669 72.2712C76.368 73.2433 75.867 74.6836 74.7637 75.0788C74.5438 75.1634 74.3094 75.2063 74.0806 75.2094C71.9493 75.234 69.8157 75.1479 67.6802 74.9508C67.4268 74.9275 67.173 74.9024 66.9195 74.8759C66.8493 74.8685 66.7813 74.8389 66.7308 74.788C66.6802 74.7371 66.6511 74.6697 66.6497 74.5995C66.6485 74.5295 66.6752 74.461 66.7237 74.4084C66.7723 74.3557 66.8391 74.3234 66.909 74.3134C67.1613 74.2774 67.4139 74.243 67.6663 74.2101C69.793 73.9335 71.922 73.7678 74.0528 73.7128C74.1165 73.7105 74.1732 73.6985 74.2259 73.6784C74.4859 73.5854 74.6526 73.2357 74.5147 72.9543C73.8114 71.5515 73.1605 70.1198 72.5626 68.6596C72.5308 68.582 72.4993 68.5042 72.4678 68.4264L57.0408 68.4062L59.9439 72.4491C60.8163 73.6644 59.9919 75.363 58.4974 75.4298L52.1924 75.7109C51.7844 75.7291 51.4231 75.9494 51.2154 76.2814L76.9459 76.3036C77.3847 76.3036 77.7448 76.2578 78.0374 76.183C78.3448 76.6154 78.6749 77.0305 79.0262 77.4264C78.4293 77.6853 77.715 77.8038 76.9456 77.8039L50.7527 77.7812C49.9938 77.7805 49.4304 77.0775 49.595 76.3366C49.8616 75.138 50.8992 74.2673 52.1258 74.2126L58.4307 73.9313C58.735 73.9175 58.9029 73.5717 58.7254 73.3241L55.1927 68.4037L41.711 68.3861C34.8165 68.377 29.3477 62.5737 29.7471 55.6908L31.0574 33.11C31.4117 27.009 36.2946 22.1482 42.3973 21.8222L79.4095 19.8451Z" fill="#045EB2"/>
<path d="M91.4683 37.1281C91.5403 37.1306 91.6091 37.1616 91.6595 37.2143C91.7099 37.267 91.7377 37.3374 91.7401 37.4096C91.7549 37.8974 91.7693 38.3732 91.7825 38.8485C91.9021 43.1579 91.9507 47.4757 91.7249 51.7878C91.703 52.2328 91.6789 52.6771 91.6531 53.121C91.1636 53.0661 90.6668 53.0354 90.1639 53.0299C90.184 52.5915 90.2051 52.153 90.2266 51.714C90.4515 47.4208 90.6555 43.1342 91.0423 38.8256C91.0853 38.3514 91.1304 37.8767 91.178 37.3905C91.1853 37.3187 91.2177 37.2503 91.2715 37.2011C91.3255 37.152 91.3963 37.1257 91.4683 37.1281Z" fill="#045EB2"/>
<path fill-rule="evenodd" clip-rule="evenodd" d="M66.342 30.1349C71.4508 30.1623 75.2831 34.1569 75.1667 39.2621C75.05 44.3773 70.4079 48.4834 65.3095 48.4562C64.701 48.4529 63.7217 48.2617 62.8683 48.0538C62.2399 47.9008 61.5865 48.2711 61.4157 48.8795L61.3857 48.9987C61.2135 49.6069 60.5435 49.9427 59.957 49.6998L59.0285 49.3153C58.2714 49.0019 57.4749 49.7159 57.7026 50.504L57.8969 51.1762C57.944 51.3389 57.9864 51.5421 57.9299 51.7472C57.8293 52.1124 57.5577 52.4074 57.2089 52.5416C56.9081 52.6573 56.6022 52.5494 56.3759 52.4367L55.5141 52.0075C54.8126 51.6579 53.9936 52.2485 54.0981 53.0287L54.152 53.4313C54.164 53.5207 54.1715 53.6186 54.1628 53.7194C54.1288 54.1107 53.9874 54.435 53.7485 54.6735C53.5102 54.9112 53.1877 55.0511 52.8134 55.0973C52.6245 55.1206 52.4527 55.1441 52.2932 55.2003L49.9328 56.0336C48.7071 56.4661 47.4626 55.5048 47.5798 54.216L47.8268 51.496C47.8682 51.0414 48.0814 50.6164 48.4228 50.3082L56.1662 43.3168C56.5729 42.9496 56.7748 42.3749 56.7792 41.807C56.7834 41.2749 56.8193 40.641 56.8557 40.0709C56.892 39.5007 56.9282 38.9989 56.935 38.7138C56.8301 36.4737 57.9612 34.3215 59.7182 32.7377C61.4774 31.1519 63.8786 30.1217 66.342 30.1349ZM68.0356 34.3744C66.5688 34.3666 65.3527 35.5491 65.3193 37.0155C65.2859 38.4819 66.4477 39.6771 67.9145 39.6849C69.3813 39.6928 70.5976 38.5103 70.631 37.0438C70.6645 35.5774 69.5023 34.3823 68.0356 34.3744Z" fill="#1074CC"/>
<path d="M41.3005 19.5001C41.6143 19.4996 41.9285 19.5007 42.2426 19.5033C42.3139 19.504 42.3845 19.5281 42.4391 19.5753C42.4938 19.6225 42.5281 19.6883 42.5346 19.7589C42.5411 19.8295 42.5192 19.9003 42.4741 19.9567C42.4289 20.013 42.3638 20.0497 42.2939 20.0634C41.9855 20.123 41.6768 20.1811 41.3681 20.2377C40.9435 20.3155 40.5186 20.3904 40.0934 20.4623C37.8311 20.85 35.7509 21.8499 34.0683 23.3117C32.0805 25.0339 30.6447 27.3986 30.0676 30.0741C30.0032 30.3712 29.9491 30.671 29.9057 30.976C29.8957 31.0465 29.8624 31.1132 29.8085 31.1613C29.7546 31.2093 29.6848 31.2349 29.614 31.2321C29.5431 31.2292 29.4757 31.1983 29.4257 31.1461C29.3758 31.0939 29.348 31.0247 29.3437 30.9535C29.3253 30.631 29.3212 30.3088 29.3322 29.985C29.4145 27.0659 30.8088 24.1346 33.0854 22.1786C34.9993 20.5067 37.5153 19.5473 40.0063 19.5114C40.4374 19.5047 40.8689 19.5009 41.3005 19.5001Z" fill="#1074CC"/>
<path d="M90 80C96.6274 80 102 74.6274 102 68C102 61.3726 96.6274 56 90 56C83.3726 56 78 61.3726 78 68C78 74.6274 83.3726 80 90 80Z" fill="black"/>
<path d="M97 67.0533C97.5523 67.0533 97.9999 67.5011 98 68.0533C98 72.4172 94.4528 75.9498 90.0833 75.9498C88.8745 75.9498 87.7272 75.6789 86.7007 75.1945L86.8943 75.5817C87.1412 76.0757 86.941 76.6764 86.447 76.9232C85.9531 77.17 85.3525 76.9694 85.1055 76.4755L83.772 73.809C83.758 73.781 83.7458 73.7525 83.7346 73.724C83.7295 73.7109 83.7247 73.6978 83.7202 73.6847C83.593 73.3135 83.697 72.9058 83.9731 72.6405C83.9849 72.6292 83.9971 72.6181 84.0095 72.6073C84.0344 72.5857 84.0605 72.5651 84.0879 72.5458C84.1289 72.5168 84.1727 72.4906 84.219 72.4674L86.8857 71.1342C87.3796 70.8872 87.9804 71.0875 88.2275 71.5814C88.4747 72.0754 88.2747 72.676 87.7808 72.923L87.2095 73.2084C88.0596 73.6803 89.0384 73.9498 90.0833 73.9498C93.3537 73.9498 96 71.3071 96 68.0533C96.0001 67.5011 96.4477 67.0533 97 67.0533Z" fill="white"/>
<path d="M93.5637 59.0455C94.0606 58.8049 94.6589 59.0125 94.8999 59.5094L96.2334 62.2596C96.2442 62.2819 96.2537 62.3046 96.2627 62.3273C96.2654 62.3339 96.268 62.3406 96.2705 62.3473C96.2731 62.3542 96.2754 62.3613 96.2778 62.3683C96.2813 62.3784 96.2849 62.3884 96.2881 62.3986C96.2895 62.403 96.2909 62.4075 96.2922 62.412C96.2955 62.4228 96.2987 62.4336 96.3015 62.4445C96.3032 62.4509 96.3046 62.4575 96.3062 62.464C96.3085 62.474 96.3109 62.484 96.313 62.494C96.345 62.6486 96.3389 62.8059 96.2993 62.9537C96.2978 62.9594 96.2963 62.9651 96.2947 62.9708C96.2877 62.9953 96.2796 63.0195 96.2708 63.0433C96.2684 63.0497 96.2662 63.0561 96.2637 63.0624C96.2482 63.1016 96.2303 63.1398 96.21 63.1769C96.2076 63.1811 96.2053 63.1854 96.2029 63.1896C96.1896 63.2129 96.1753 63.2356 96.1602 63.2579C96.1565 63.2633 96.1529 63.2687 96.1492 63.274C96.1345 63.2947 96.119 63.3148 96.1028 63.3343C96.0984 63.3397 96.0939 63.345 96.0894 63.3502C96.0606 63.3834 96.0297 63.415 95.9963 63.4445C95.9935 63.4469 95.9906 63.4493 95.9878 63.4518C95.9401 63.493 95.888 63.5301 95.8315 63.5624C95.829 63.5638 95.8265 63.5651 95.824 63.5665C95.8139 63.5722 95.8038 63.5778 95.7935 63.5831C95.7893 63.5853 95.7852 63.5876 95.781 63.5897L93.1145 64.923C92.6207 65.1699 92.02 64.9698 91.7727 64.4759C91.5255 63.982 91.7251 63.3811 92.219 63.1342L92.8308 62.828C92.8191 62.8225 92.8072 62.8171 92.7957 62.8112C91.9844 62.3933 91.0629 62.1569 90.0833 62.1569C86.7731 62.1569 84.0001 64.7938 84 68.0087C84 68.5609 83.5523 69.0087 83 69.0087C82.4477 69.0087 82 68.5609 82 68.0087C82.0001 63.606 85.7536 60.1569 90.0833 60.1569C91.2374 60.1569 92.3361 60.4042 93.3271 60.8488L93.1003 60.381C92.8594 59.884 93.0669 59.2862 93.5637 59.0455Z" fill="white"/>
</svg>
