<svg width="12" height="12" viewBox="0 0 12 12" fill="none" xmlns="http://www.w3.org/2000/svg">
<g clip-path="url(#clip0_11743_75240)">
<path d="M11.5 5.9679C11.7759 5.9679 11.9996 6.19211 12 6.4679V8.9679C12 10.6248 10.6569 11.9679 9 11.9679H4C2.34315 11.9679 1 10.6248 1 8.9679V6.4679C1.00042 6.19211 1.22412 5.9679 1.5 5.9679C1.77588 5.9679 1.99958 6.19211 2 6.4679V8.9679C2 10.0725 2.89543 10.9679 4 10.9679H9C10.1046 10.9679 11 10.0725 11 8.9679V6.4679C11.0004 6.19211 11.2241 5.9679 11.5 5.9679Z" fill="black"/>
<path d="M5.44727 0.43079C6.03114 -0.144248 6.96886 -0.144248 7.55273 0.43079L10.1318 2.97278C10.3282 3.16639 10.3308 3.4831 10.1377 3.67981C9.94397 3.87635 9.62735 3.87914 9.43066 3.68567L7 1.28919V7.49915C7 7.77529 6.77614 7.99915 6.5 7.99915C6.22386 7.99915 6 7.77529 6 7.49915V1.28919L3.56934 3.68567C3.37265 3.87914 3.05603 3.87635 2.8623 3.67981C2.6692 3.4831 2.67175 3.16639 2.86816 2.97278L5.44727 0.43079Z" fill="black"/>
</g>
<defs>
<clipPath id="clip0_11743_75240">
<rect width="12" height="12" fill="white"/>
</clipPath>
</defs>
</svg>
