<svg width="128" height="96" viewBox="0 0 128 96" fill="none" xmlns="http://www.w3.org/2000/svg">
<path d="M37.0819 33.9026C36.2336 36.3161 39.2329 37.7616 41.2768 36.2231C51.63 28.43 62.8253 29.8238 71.1149 41.5462C71.8736 42.6283 71.5108 44.023 70.3965 44.5849L66.2592 47.3592C64.5762 48.4877 64.6965 50.9977 66.4835 51.9528C72.2223 55.0196 82.753 60.6013 87.7443 62.9539C89.0846 63.5856 90.5156 62.859 90.8955 61.4269C92.3571 55.9176 95.5517 43.5135 97.4045 36.3029C97.969 34.106 95.7262 32.2509 93.6675 33.2028L91.0245 34.4249C89.9698 34.9524 88.592 34.517 87.8908 33.4692C74.0218 12.6372 44.2157 13.6057 37.0819 33.9026Z" fill="#FF8D5C"/>
<path d="M35.585 41.5457C51.6761 16.9424 78.5421 29.0087 71.5664 43.243C64.2136 27.689 45.9259 27.8774 35.585 41.5457Z" fill="#F05F2B"/>
<path d="M39.5537 27.5326C50.2782 12.6879 75.9346 14.1596 88.5134 33.0516C89.0351 33.8313 90.0185 34.0886 90.6882 33.7538L93.0278 32.5587C93.0388 32.5531 93.05 32.5479 93.0613 32.5428C96.0357 31.2047 99.1113 34.0947 98.3037 37.1371C97.755 39.2041 96.3467 44.1563 94.9172 49.2062C93.485 54.2659 92.0315 59.4239 91.386 61.9237C91.2824 62.3246 90.8734 62.5657 90.4724 62.4623C90.0713 62.3587 89.83 61.9495 89.9336 61.5484C90.5846 59.0275 92.044 53.8489 93.4739 48.7977C94.9065 43.7367 96.3094 38.8034 96.854 36.7521C97.3658 34.8239 95.4047 33.1446 93.688 33.9059L91.365 35.0924C91.3631 35.0933 91.361 35.0944 91.3591 35.0953C89.9195 35.8152 88.1474 35.2018 87.2668 33.8858L87.2658 33.8844C75.127 15.6511 50.757 14.6183 40.7832 28.392C39.4726 30.4822 38.7992 31.5956 38.0281 33.1495C37.8439 33.5205 37.3937 33.672 37.0227 33.4879C36.6517 33.3038 36.5002 32.8535 36.6843 32.4825C37.4936 30.8518 38.2034 29.6827 39.5261 27.5733L39.5537 27.5326Z" fill="#9E2B08"/>
<path d="M48.8235 31.3077C57.045 28.8635 66.0188 31.442 71.5002 40.6102C72.6673 42.5623 72.353 44.6621 70.7969 45.6463C69.6299 46.3844 68.7871 46.8452 67.405 47.756C66.3016 48.4831 66.1584 49.3698 66.1838 49.9349C66.2137 50.2842 66.3289 50.5797 66.6008 50.89C66.8956 51.2263 67.3894 51.5962 68.2112 52.0309C70.7828 53.3913 78.8888 57.7058 85.0412 60.7826C85.4116 60.9679 85.5616 61.4185 85.3764 61.7889C85.1912 62.1593 84.7408 62.3093 84.3703 62.1241C78.1987 59.0377 70.0738 54.7132 67.5097 53.3568C66.6196 52.8859 65.942 52.4141 65.4726 51.8785C64.9834 51.3202 64.7413 50.7162 64.6875 50.0428C64.6869 50.0352 64.6864 50.0275 64.686 50.0199C64.6388 49.0613 64.9228 47.5953 66.5796 46.5035C67.9486 45.6013 68.9337 45.05 69.9951 44.3788C70.6671 43.9537 71.0927 42.8517 70.2129 41.38C65.099 32.8267 56.8452 30.4878 49.2507 32.7457C48.1591 33.0702 47.243 33.5233 46.5996 33.8963C46.2788 34.0823 46.0282 34.247 45.8601 34.3634C45.7761 34.4215 45.7129 34.4676 45.6721 34.4979C45.6518 34.513 45.6369 34.5242 45.6279 34.5311C45.6235 34.5345 45.6202 34.5369 45.6186 34.5382H45.6181L45.6184 34.5384H45.6179L45.6181 34.5387L45.6174 34.5392C45.2925 34.7952 44.8215 34.7398 44.5649 34.4151C44.3081 34.0902 44.3632 33.6185 44.6882 33.3617L45.1343 33.9259C44.6883 33.3616 44.6885 33.3614 44.6885 33.3614L44.6887 33.3612L44.6894 33.3607C44.6899 33.3603 44.6907 33.3598 44.6914 33.3592C44.6928 33.3581 44.6948 33.3566 44.697 33.3548C44.7014 33.3514 44.7074 33.3466 44.7148 33.3409C44.7298 33.3295 44.7509 33.3136 44.7776 33.2938C44.8311 33.2541 44.9079 33.1981 45.0063 33.13C45.2032 32.9937 45.4877 32.8071 45.8471 32.5987C46.5645 32.1829 47.5906 31.6742 48.8235 31.3077Z" fill="#9E2B08"/>
<path d="M87.7225 25.7337C87.7884 25.7339 87.8532 25.7552 87.912 25.785C87.9861 25.8231 88.0591 25.8626 88.1307 25.9034C88.7759 26.2709 89.3187 26.744 89.7453 27.305C90.1718 27.8659 90.4823 28.5149 90.6647 29.2342C90.685 29.3142 90.7037 29.3952 90.7208 29.4769C90.7339 29.5414 90.7372 29.6095 90.7199 29.6729C90.7025 29.7364 90.6663 29.79 90.6151 29.8243C90.5639 29.8586 90.5005 29.8719 90.4352 29.8638C90.3699 29.8557 90.3083 29.8265 90.2536 29.7899C90.1851 29.7439 90.1179 29.6976 90.0519 29.6504C89.4579 29.2263 88.9612 28.7523 88.5512 28.2129C88.141 27.6736 87.8177 27.0687 87.567 26.3836C87.5392 26.3075 87.5118 26.2302 87.4857 26.1522C87.465 26.0896 87.4535 26.0224 87.463 25.9573C87.4726 25.8922 87.5023 25.8347 87.549 25.7945C87.5956 25.7543 87.6568 25.7336 87.7225 25.7337Z" fill="#CC3B0A"/>
<path d="M56.9257 14.4319C61.6685 13.1634 66.7776 13.3902 71.5075 14.7274C76.2459 16.0678 80.6636 18.5539 84.193 21.929C84.5858 22.3043 84.9658 22.6886 85.3361 23.085C85.3855 23.1381 85.415 23.2079 85.4159 23.2811C85.4169 23.3543 85.3895 23.4247 85.3395 23.4771C85.2895 23.5295 85.2205 23.5601 85.1474 23.5626C85.0742 23.5651 85.0032 23.5389 84.9479 23.492C84.5415 23.1475 84.1299 22.8148 83.7099 22.4903C79.9344 19.577 75.6299 17.4566 71.0988 16.1705C66.5714 14.8963 61.7802 14.4201 57.0807 15.1561C56.5593 15.239 56.0383 15.3379 55.5233 15.4529C55.4525 15.4688 55.3775 15.4591 55.3139 15.4229C55.2503 15.3868 55.2035 15.3277 55.1835 15.2581C55.1635 15.1885 55.1719 15.1135 55.2067 15.0491C55.2415 14.9847 55.3001 14.9365 55.3685 14.9124C55.8789 14.7337 56.4002 14.5733 56.9257 14.4319Z" fill="#CC3B0A"/>
<path d="M91.1794 61.7677C92.0901 59.3369 89.0702 57.816 86.9681 59.3388C76.3781 67.0101 65.0736 65.3376 56.9517 53.396C56.2075 52.2922 56.5995 50.8873 57.733 50.3339L61.75 48.25C63.7502 47.2859 62.9544 43.4289 61 42.375C54.7376 38.9979 45.4553 33.971 40.3661 31.5238C39.0168 30.875 37.5599 31.5874 37.1509 33.0276C35.5722 38.5857 32.1073 51.1304 30.106 58.3916C29.498 60.5978 31.719 62.5135 33.8187 61.6032L36.7519 60.3316C37.8247 59.8124 39.2051 60.2706 39.892 61.339C53.4642 82.5599 83.5576 82.1119 91.1794 61.7677Z" fill="#75B6EB"/>
<path d="M39.8789 61.1504C39.8789 61.1504 66.2905 87.263 90.9883 62.1885C84.2008 80.8529 54.5277 84.8519 39.8789 61.1504Z" fill="#4397E0"/>
<path fill-rule="evenodd" clip-rule="evenodd" d="M36.3197 33.1699C36.9101 31.1216 39.051 30.0507 41.025 31.009C46.0863 33.4663 55.3405 38.7226 61.5116 42.0474C62.9054 42.7984 63.5801 44.2691 63.5877 45.666C63.5953 47.0593 62.9369 48.5198 61.5011 49.2224L61.5013 49.2227L58.0787 50.9995L58.0706 51.0037L58.0623 51.0078C57.3448 51.3581 57.0801 52.2444 57.5738 52.9766C62.7333 60.6288 68.2838 63.6078 74.19 63.4731C78.2517 63.3805 82.1499 61.6614 85.5081 59.1936C86.9607 58.1263 88.782 58.2047 90.0675 58.9568C90.7155 59.3359 91.2599 59.9046 91.5455 60.6248C91.8359 61.3571 91.8369 62.1939 91.4781 63.0437C87.497 72.471 78.7113 77.6233 69.1739 78.168C59.6392 78.7124 49.3188 74.6616 42.1551 65.675L42.1461 65.6638L42.1375 65.6523L39.2882 61.7837L39.2743 61.7644L39.2613 61.7444C38.7507 60.9501 37.7641 60.675 37.0787 61.0066L37.0618 61.0146L37.0448 61.022L34.6246 62.0474C31.662 63.3027 28.555 60.5811 29.4293 57.4778C31.4542 50.2902 34.7239 38.706 36.3197 33.1699ZM40.37 32.3584C39.289 31.8336 38.1112 32.3707 37.7611 33.5854C36.1669 39.1162 32.8985 50.6954 30.8731 57.8845C30.3418 59.7705 32.2293 61.4332 34.0394 60.6663L36.4464 59.6462C37.8916 58.9611 39.6368 59.588 40.5028 60.9033L43.3353 64.749C50.1907 73.3429 60.0354 77.1874 69.0885 76.6704C78.1421 76.1534 86.3698 71.2846 90.0963 62.4602C90.31 61.9542 90.2892 61.5258 90.1512 61.1777C90.0083 60.8174 89.7171 60.4897 89.3099 60.2515C88.4847 59.7687 87.316 59.7266 86.3963 60.4023C82.8759 62.9893 78.6854 64.8711 74.2242 64.9729C67.6599 65.1226 61.6817 61.7523 56.3302 53.8152C55.3381 52.3437 55.852 50.4266 57.3919 49.666L60.8101 47.8914L60.8202 47.8862L60.8302 47.8813C61.6489 47.4867 62.0929 46.6272 62.0877 45.6743C62.0825 44.7187 61.6231 43.8114 60.8001 43.3679C54.5649 40.0086 45.3955 34.7983 40.37 32.3584Z" fill="#045EB2"/>
<path d="M44.0417 73.7019C44.1147 73.701 44.185 73.7284 44.2395 73.7759C44.5926 74.0843 44.952 74.3823 45.3186 74.6712C48.6184 77.2707 52.4313 79.0781 56.4292 80.1751C60.4305 81.2688 64.6289 81.6697 68.8254 81.3442C69.2915 81.3077 69.7582 81.2617 70.2238 81.2066C70.2957 81.198 70.3694 81.2153 70.4292 81.2573C70.4888 81.2993 70.5297 81.3623 70.5429 81.4331C70.5561 81.504 70.541 81.5777 70.5005 81.6384C70.4599 81.6992 70.3972 81.7416 70.3271 81.7595C69.8644 81.8777 69.3972 81.9839 68.9277 82.0776C64.6994 82.9221 60.2353 82.7739 56.0324 81.6216C51.8332 80.4753 47.8812 78.2917 44.8259 75.2241C44.4864 74.884 44.1588 74.5343 43.8422 74.1741C43.7946 74.1197 43.7667 74.0493 43.7675 73.9763C43.7684 73.9034 43.7972 73.8338 43.8481 73.7827C43.8991 73.7317 43.9687 73.7029 44.0417 73.7019Z" fill="#1074CC"/>
<path d="M39.5249 68.2952C39.5869 68.2977 39.6494 68.317 39.7099 68.3406C39.7648 68.3623 39.8184 68.3848 39.8708 68.408C40.3422 68.6168 40.713 68.8893 40.9912 69.2359C41.2694 69.5824 41.455 70.003 41.5573 70.5081C41.5687 70.5642 41.579 70.6215 41.5883 70.6797C41.5984 70.7438 41.6039 70.8091 41.593 70.8701C41.582 70.9313 41.555 70.9838 41.5127 71.0208C41.4703 71.0577 41.4145 71.077 41.3525 71.0796C41.2906 71.0821 41.2267 71.0679 41.1645 71.0493C41.1076 71.0316 41.0518 71.0128 40.9973 70.9927C40.5061 70.8119 40.1111 70.5353 39.8215 70.1746C39.532 69.8139 39.3477 69.3689 39.2771 68.8506C39.2692 68.793 39.2628 68.7344 39.2578 68.6751C39.253 68.6103 39.2527 68.5446 39.2685 68.4846C39.2844 68.4246 39.3153 68.3745 39.3606 68.3411C39.4058 68.3076 39.4628 68.2927 39.5249 68.2952Z" fill="#1074CC"/>
</svg>
