<svg width="96" height="96" viewBox="0 0 96 96" fill="none" xmlns="http://www.w3.org/2000/svg">
<path d="M22.6581 22.8703C23.0029 20.383 25.2989 18.6461 27.7863 18.9909L66.2074 24.3166C68.6948 24.6614 70.4318 26.9574 70.0871 29.4447L66.5631 54.8652C68.2882 54.9559 70.1808 55.5051 72.1588 56.654L75.903 46.7838C76.9485 44.8241 79.57 43.0254 83.1452 44.4005C85.4682 45.0506 85.5148 48.1708 84.1391 50.2367L76.8444 60.9872C81.192 67.4923 79.0311 76.4414 78.2218 79.1564C78.0744 79.651 77.6058 79.9691 77.0753 79.9692H56.0917C50.381 79.9691 47.4609 77.005 46.8041 73.569L20.7221 69.9535C18.2347 69.6087 16.4977 67.313 16.8424 64.8256L22.6581 22.8703Z" fill="#EADAFD"/>
<path d="M26.1746 24.8172C26.415 23.1605 27.953 22.0122 29.6097 22.2525L63.9043 27.2266C65.5611 27.4669 66.7093 29.0049 66.469 30.6617L62.878 55.4202C60.0372 56.5008 58.131 58.9887 57.8255 61.7412C57.7341 62.5642 56.9654 63.2501 56.1136 63.2107C50.8652 62.9678 47.5163 66.5465 46.8038 70.458L23.116 67.0225C21.4593 66.7821 20.311 65.2441 20.5513 63.5874L26.1746 24.8172Z" fill="#C19EDB"/>
<path d="M24.7166 34.8706C25.4602 29.7434 31.8764 27.8509 35.2835 31.7539L58.8491 58.75C58.2966 59.6648 57.9429 60.6838 57.8255 61.7417C57.8012 61.96 57.7289 62.1684 57.6204 62.3564L47.2244 51.7168C43.279 47.679 37.4165 46.1686 32.0112 47.7973L31.6826 47.8965C26.0594 49.5909 21.921 54.3815 21.062 60.1914L20.5611 63.5803C20.3158 65.2395 21.4647 66.7826 23.1245 67.0234L46.8037 70.4577V70.4582L23.1162 67.0229C21.4596 66.7826 20.3111 65.2445 20.5513 63.5879L24.7166 34.8706Z" fill="#9F6EB8"/>
<path d="M72.5969 33.6841C74.9394 34.5888 76.0845 37.213 75.1546 39.5456L68.8926 55.2524C68.0895 55.0297 67.3112 54.9043 66.5642 54.865L69.6577 32.5488L72.5969 33.6841Z" fill="#9F6EB8"/>
<path d="M59.079 37.7907C58.6952 40.6547 56.0622 42.6654 53.1982 42.2815C50.3341 41.8977 48.3235 39.2647 48.7073 36.4007C49.0912 33.5366 51.7241 31.526 54.5882 31.9099C57.4522 32.2937 59.4628 34.9266 59.079 37.7907Z" fill="#FFEAB8"/>
<path d="M21.7564 22.5271C22.1581 19.6296 24.8327 17.6062 27.7302 18.0078L66.553 23.3892C69.4506 23.7909 71.4739 26.4657 71.0723 29.3633L70.687 32.1419L72.8738 32.9866C75.6027 34.0405 76.9368 37.0978 75.8535 39.8152L69.6101 55.4754C69.1164 55.3054 68.6311 55.1721 68.1555 55.0733L74.4541 39.2749C75.2306 37.3271 74.2744 35.1356 72.3184 34.3801L70.4754 33.6682L67.5237 54.961C67.0108 54.8854 66.5104 54.8499 66.0247 54.8511L69.5865 29.1572C69.8743 27.0802 68.424 25.1629 66.347 24.875L27.5242 19.4937C25.4472 19.2059 23.5299 20.6562 23.242 22.7332L17.3665 65.1199C17.0786 67.1969 18.5292 69.1141 20.6062 69.4021L46.7195 73.0217C46.7837 73.5537 46.9004 74.0776 47.0711 74.5847L20.4002 70.888C17.5026 70.4862 15.4793 67.8114 15.8809 64.9138L21.7564 22.5271Z" fill="#682A7A"/>
<path d="M21.1067 63.2327C21.1314 63.2327 21.1554 63.2421 21.1834 63.2586C21.2111 63.275 21.2434 63.2975 21.2771 63.3208C21.296 63.3341 21.3143 63.3476 21.3313 63.3609C21.4847 63.4809 21.5612 63.6012 21.5613 63.7212C21.5613 63.8412 21.4847 63.9613 21.3313 64.0813C21.3143 64.0947 21.2961 64.108 21.2771 64.1214C21.2433 64.1447 21.2111 64.1671 21.1834 64.1836C21.1553 64.2001 21.1314 64.2095 21.1067 64.2095C21.082 64.2094 21.0581 64.2001 21.0301 64.1836C21.0024 64.1671 20.97 64.1446 20.9363 64.1214C20.9174 64.1081 20.8991 64.0946 20.8821 64.0813C20.7289 63.9613 20.6522 63.8412 20.6521 63.7212C20.6522 63.6012 20.7288 63.4809 20.8821 63.3609C20.8991 63.3475 20.9174 63.3341 20.9363 63.3208C20.9701 63.2975 21.0023 63.2751 21.0301 63.2586C21.0581 63.2421 21.082 63.2327 21.1067 63.2327Z" fill="#682A7A"/>
<path d="M31.7991 47.1836C34.133 46.4343 36.652 46.2523 39.0742 46.6604C42.358 47.2033 45.4478 48.8435 47.7285 51.2503C50.8611 54.5439 53.9625 57.8686 57.0323 61.2236C57.2765 61.4906 57.5206 61.7578 57.7644 62.0252C57.6959 62.2463 57.579 62.4508 57.4268 62.6257C57.1184 62.3312 56.8103 62.0363 56.5025 61.7412C53.2194 58.5946 49.9673 55.417 46.7471 52.209C44.6049 50.0696 41.7987 48.6326 38.8264 48.1397C36.6336 47.7708 34.3584 47.9109 32.2219 48.5496C27.2894 49.9767 23.2474 54.2026 22.0637 59.3333C22.0029 59.589 21.9487 59.8452 21.9011 60.1045C21.7953 60.6835 21.6888 61.2625 21.5816 61.8413C21.5682 61.9134 21.5283 61.9787 21.4688 62.0222C21.4093 62.0658 21.3354 62.0842 21.263 62.0735C21.1906 62.0628 21.1251 62.0237 21.0808 61.9649C21.0366 61.906 21.0169 61.832 21.0249 61.7593C21.0898 61.1742 21.1554 60.5888 21.2217 60.0039C21.253 59.7298 21.2915 59.4582 21.3377 59.1861C22.2096 53.7236 26.3935 48.8566 31.7991 47.1836Z" fill="#682A7A"/>
<path d="M57.1232 62.5752C56.8765 56.7459 63.829 52.8417 68.9872 54.6648C69.8287 54.9105 70.6343 55.2647 71.371 55.7197C71.4328 55.758 71.4782 55.8176 71.4962 55.887C71.5143 55.9563 71.504 56.0295 71.467 56.0908C71.4299 56.152 71.369 56.1967 71.2978 56.2152C71.2266 56.2336 71.1508 56.2242 71.0863 56.1905C70.3633 55.8137 69.5901 55.5362 68.7965 55.3593C63.7884 54.0639 58.1492 57.7214 58.5609 62.7326L58.56 62.6982C58.6038 63.0733 58.3486 63.5724 58.0028 63.7654C57.6645 63.9737 57.3222 64.0124 57.0033 63.9789C55.1589 63.7716 53.3059 64.0183 51.7267 64.8383C48.63 66.3929 46.9128 70.1373 47.6527 73.4813C48.2881 76.9285 51.8447 79.1919 55.5199 79.403C55.7657 79.4251 56.018 79.4414 56.2743 79.4516C56.8652 79.4713 57.4561 79.4918 58.047 79.513C58.1202 79.5156 58.1903 79.5448 58.2421 79.5957C58.2939 79.6466 58.3231 79.7149 58.3232 79.7859C58.3232 79.857 58.2939 79.9253 58.2421 79.9762C58.1903 80.0271 58.1202 80.0563 58.047 80.0589C57.4561 80.0801 56.8651 80.1006 56.2719 80.1203C56.0017 80.127 55.7368 80.1271 55.4772 80.1208C51.6517 80.1888 47.2615 77.8267 46.3756 73.7657C45.3781 69.8858 47.2892 65.4423 51.0221 63.5531C52.8993 62.5772 55.0736 62.3183 57.1232 62.5752ZM57.132 62.7525C57.1317 62.7591 57.1319 62.7642 57.1325 62.7671C57.1323 62.7641 57.1321 62.7585 57.132 62.7525Z" fill="#7D4794"/>
<path d="M78.2603 47.2762L71.5229 63.4682C70.8893 64.7765 70.145 66.704 71.5228 67.124C72.7961 67.5121 74.1343 66.9358 74.8965 65.7912L85.4167 50.2866C86.7926 48.2206 85.7407 45.2944 83.4174 44.6444C81.0987 43.9001 79.3058 45.3164 78.2603 47.2762Z" fill="#47210A"/>
<path d="M81.3948 79.8782L63.2003 79.6085C59.2194 78.9198 59.0915 75.6026 59.5094 74.0268C61.8171 65.3257 67.8087 59.1562 74.4458 59.1562C80.2008 59.1562 81.4534 64.3898 80.4716 68.6724C79.7662 71.7492 79.996 75.7824 82.3995 78.1827C82.8908 79.2174 82.1992 79.8782 81.3948 79.8782Z" fill="#FFD885"/>
<path fill-rule="evenodd" clip-rule="evenodd" d="M70.2416 58.828C72.084 58.1392 74.0992 57.9497 76.2818 58.3941C76.2978 58.3965 76.3138 58.3993 76.3296 58.4028C80.7478 59.3702 82.6279 63.4768 81.2064 69.0817C80.5874 71.5221 80.7009 73.7859 81.1991 75.5905C81.7026 77.4138 82.5767 78.6945 83.3918 79.2386C83.7014 79.4452 83.7169 79.8975 83.4264 80.2486C83.3081 80.3915 83.1571 80.4947 82.999 80.554C82.8473 80.6516 82.6721 80.7091 82.4971 80.7065L64.9577 80.4402C60.6012 80.374 57.6434 76.8872 59.3012 72.4584C60.6358 68.8934 62.611 64.9604 65.382 62.1207C66.7778 60.6904 68.3935 59.519 70.2416 58.828ZM75.6906 59.8479C73.7338 59.4436 72.0161 59.6256 70.505 60.1906C68.9897 60.7572 67.6232 61.7313 66.3909 62.9941C65.4711 63.9368 64.6366 65.0299 63.8838 66.2095C63.9242 66.2726 63.9658 66.3357 64.0109 66.3999C65.1613 68.2854 67.7186 67.2183 70.2562 66.6446C72.8037 65.9963 75.7215 65.986 77.6649 67.2761C77.8835 67.4122 78.0851 67.5551 78.2899 67.7149C78.3393 67.7542 78.3716 67.8119 78.3759 67.8798C78.3802 67.9478 78.3567 68.02 78.3098 68.0813C78.2629 68.1426 78.1956 68.1889 78.1223 68.2112C78.049 68.2335 77.9757 68.2295 77.9154 68.2043C77.6804 68.1055 77.4544 68.0225 77.2186 67.9452C75.0948 67.2163 72.7449 67.4777 70.2884 68.0767C69.0542 68.3512 67.7642 68.7248 66.3814 68.7458C65.0528 68.8238 63.8135 68.0653 63.385 67.0235C62.3293 68.8163 61.4501 70.7656 60.7384 72.6669C59.5051 75.9615 61.5712 78.7607 65.0404 78.9543C63.8742 77.9986 63.3271 76.2931 63.7273 74.6192C63.8239 74.1424 64.038 73.67 64.345 73.2437C64.438 73.1141 64.5386 72.9902 64.6479 72.8693C64.6972 72.8164 64.755 72.7682 64.8197 72.7382C64.8845 72.7082 64.9507 72.6986 65.0079 72.7127C65.0651 72.7269 65.1102 72.7638 65.1375 72.8165C65.1649 72.8692 65.1717 72.9334 65.1681 72.9975C65.1613 73.1336 65.154 73.2647 65.144 73.3945C65.1117 73.8222 65.0584 74.2192 64.9786 74.6115C64.5994 76.3537 65.0865 78.0236 66.5078 78.973C66.5127 78.9764 66.5178 78.9797 66.5228 78.9831L73.4421 79.088C72.268 78.2528 71.5259 76.8143 71.7112 75.2089C71.767 74.4591 72.0338 73.699 72.4489 73.0143C72.5398 72.8642 72.6379 72.7176 72.7424 72.5747C72.7863 72.5159 72.8431 72.4628 72.9097 72.4294C72.9762 72.396 73.0463 72.3849 73.1073 72.3989C73.1683 72.413 73.2169 72.4516 73.2448 72.5067C73.2726 72.5618 73.2769 72.6289 73.2661 72.6952C73.2425 72.8458 73.2205 72.9938 73.1995 73.1402C73.1038 73.809 73.0302 74.4359 72.9841 75.0473C72.8127 76.8232 73.6758 78.3325 75.2766 79.1159L81.0521 79.2038C80.495 78.4158 80.0251 77.4045 79.7056 76.2473C79.1555 74.2549 79.028 71.7551 79.7149 69.0464C81.0035 63.9658 79.2702 60.6444 75.7127 59.8517C75.7054 59.8505 75.6979 59.8494 75.6906 59.8479Z" fill="#B66A1F"/>
</svg>
