<svg width="16" height="16" viewBox="0 0 16 16" fill="none" xmlns="http://www.w3.org/2000/svg">
<path d="M12 1C14.2091 1 16 2.79086 16 5V11C16 13.2091 14.2091 15 12 15H4C1.79086 15 9.6639e-08 13.2091 0 11V5C9.66449e-08 2.79086 1.79086 1 4 1H12ZM4 2.25C2.48122 2.25 1.25 3.48122 1.25 5V11C1.25 12.5188 2.48122 13.75 4 13.75H12C13.5188 13.75 14.75 12.5188 14.75 11V6.3125C14.75 5.7257 14.2743 5.25 13.6875 5.25H10.427C9.1625 5.24998 8.00656 4.53554 7.44104 3.40454C7.08727 2.697 6.36405 2.25002 5.573 2.25H4ZM7.375 10C7.72018 10 8 10.2798 8 10.625C8 10.9702 7.72018 11.25 7.375 11.25H3.625C3.27982 11.25 3 10.9702 3 10.625C3 10.2798 3.27982 10 3.625 10H7.375ZM9.375 7C9.72018 7 10 7.27982 10 7.625C10 7.97018 9.72018 8.25 9.375 8.25H3.625C3.27982 8.25 3 7.97018 3 7.625C3 7.27982 3.27982 7 3.625 7H9.375ZM8.17761 2.25C8.3237 2.43222 8.45191 2.63137 8.55896 2.84546C8.91273 3.553 9.63595 3.99998 10.427 4H13.6875C14.0239 4 14.3435 4.07189 14.6318 4.20105C14.2895 3.07196 13.2409 2.25 12 2.25H8.17761Z" fill="black" fill-opacity="0.84"/>
</svg>
