<svg width="12" height="12" viewBox="0 0 12 12" fill="none" xmlns="http://www.w3.org/2000/svg">
<g clip-path="url(#clip0_12445_26082)">
<path fill-rule="evenodd" clip-rule="evenodd" d="M6 11.9999C9.31371 11.9999 12 9.31365 12 5.99994C12 2.68623 9.31371 -6.10352e-05 6 -6.10352e-05C2.68629 -6.10352e-05 0 2.68623 0 5.99994C0 9.31365 2.68629 11.9999 6 11.9999Z" fill="#FAFAFA"/>
<path d="M5.18365 3.58815C4.99072 3.41554 4.69434 3.43203 4.52172 3.62495L3.2636 5.03111C2.91331 5.42262 2.91331 6.01491 3.2636 6.40641L4.52172 7.81257C4.69434 8.0055 4.99072 8.02198 5.18365 7.84938C5.37657 7.67676 5.39306 7.38038 5.22045 7.18745L4.32571 6.18751H6.46484C7.34504 6.18752 8.05859 6.90106 8.05859 7.78126C8.05859 8.04014 8.26846 8.25001 8.52734 8.25001C8.78623 8.25001 8.99609 8.04014 8.99609 7.78126C8.99609 6.3833 7.86281 5.25002 6.46484 5.25001H4.32571L5.22045 4.25008C5.39306 4.05714 5.37657 3.76077 5.18365 3.58815Z" fill="black" fill-opacity="0.84"/>
</g>
<defs>
<clipPath id="clip0_12445_26082">
<rect width="12" height="12" fill="white"/>
</clipPath>
</defs>
</svg>
