<svg width="128" height="96" viewBox="0 0 128 96" fill="none" xmlns="http://www.w3.org/2000/svg">
<path d="M87.2935 61.5958C86.4463 62.2883 85.5718 63.1329 84.5905 63.5711C84.5905 63.5711 84.5819 63.5746 84.5785 63.5763C84.575 63.5763 84.5716 63.5797 84.5682 63.5797C84.3963 63.6536 84.221 63.7275 84.0389 63.8014C84.0372 63.8048 84.0337 63.8066 84.0303 63.8048C74.8382 67.6009 53.0566 72.502 39.6972 75.3151C34.9869 76.3101 31.1118 71.5775 33.0141 67.1541C38.24 55.008 46.9423 35.4913 52.5136 26.7735C52.5136 26.7718 52.5136 26.7701 52.5153 26.7684C52.8109 26.3078 53.0944 25.8782 53.3694 25.4813C53.634 25.086 54.0189 24.5928 54.4348 24.1065C54.4348 24.1065 54.4348 24.103 54.4382 24.103C54.8902 23.5755 55.3765 23.0565 55.7855 22.687C58.8599 19.8979 63.2952 19.3377 68.0502 20.5956C68.0588 20.5956 68.0674 20.5991 68.0743 20.6008C73.8535 21.814 80.2558 26.3636 85.0864 32.2631C92.7563 42.6066 94.1997 53.786 87.2935 61.5958Z" fill="#FFC95C"/>
<path d="M60.8418 24.4026C65.3056 20.7477 74.5544 24.661 81.4995 33.1433C86.2695 38.969 88.7121 45.4347 88.3281 50.0974C88.3512 54.8673 87.0109 62.2555 80.2485 65.1848L80.0315 65.2766C69.5213 68.796 51.3829 72.8568 39.6938 75.3176C37.0337 75.8778 34.6399 74.6145 33.4043 72.6108C36.0782 74.4221 47.9992 68.7426 57.1672 65.1784C66.2468 61.6482 74.2957 56.0945 68.2773 49.5769C67.2659 48.6002 66.2786 47.532 65.3345 46.3789C58.3893 37.8966 56.378 28.0575 60.8418 24.4026Z" fill="#FAB341"/>
<path d="M38.369 61.9003C38.4332 61.8752 38.5054 61.8764 38.5712 61.903C38.637 61.9296 38.6903 61.9796 38.7257 62.0397C38.8248 62.2073 38.9254 62.3733 39.0272 62.5378C39.9325 63.9965 40.928 65.3408 41.9894 66.6332C42.0043 66.6514 42.0194 66.6696 42.0343 66.6877C43.1145 67.9944 44.26 69.2448 45.5394 70.4247C45.6817 70.5557 45.8259 70.6855 45.9718 70.8144C46.0241 70.8605 46.0636 70.9223 46.0773 70.9919C46.0909 71.0614 46.0783 71.1326 46.0416 71.1908C46.0049 71.2491 45.9462 71.2911 45.8776 71.3088C45.8089 71.3264 45.7361 71.3178 45.672 71.2905C45.487 71.2108 45.3038 71.1261 45.1227 71.0368C43.4909 70.2318 42.0389 69.0506 40.8773 67.6423C40.8612 67.6228 40.8452 67.6032 40.8292 67.5837C39.6907 66.1891 38.8241 64.5615 38.3475 62.832C38.2939 62.6373 38.2452 62.4414 38.2018 62.2448C38.187 62.1767 38.1923 62.1036 38.2225 62.0395C38.2528 61.9754 38.3049 61.9255 38.369 61.9003Z" fill="#B66A1F"/>
<path d="M43.4493 51.0234C43.518 51.0038 43.5922 51.0121 43.6561 51.0463C43.7201 51.0806 43.7684 51.1384 43.7938 51.2055C43.9245 51.5496 44.0622 51.8906 44.2059 52.2282C45.5058 55.2667 47.2754 58.0404 49.3375 60.569C49.3432 60.576 49.3491 60.5833 49.3549 60.5903C51.4188 63.1063 53.7777 65.3862 56.4884 67.2607C56.7905 67.4689 57.0972 67.6718 57.4083 67.8686C57.4689 67.9069 57.5158 67.9656 57.5367 68.0351C57.5576 68.1046 57.5511 68.1792 57.5182 68.2426C57.4852 68.306 57.4281 68.3542 57.3592 68.3771C57.2904 68.4 57.2155 68.3954 57.1493 68.3678C56.8011 68.2223 56.4565 68.0665 56.1161 67.9011C53.0575 66.4118 50.3582 64.1809 48.1945 61.5405C48.1884 61.5331 48.1822 61.5256 48.1761 61.5182C46.01 58.8672 44.3561 55.7688 43.5043 52.4655C43.4101 52.099 43.326 51.73 43.2528 51.3598C43.2391 51.2894 43.2496 51.2149 43.2858 51.152C43.322 51.0892 43.3807 51.043 43.4493 51.0234Z" fill="#B66A1F"/>
<path d="M61.8531 22.9799C62.8447 22.6214 63.892 22.5212 64.9069 22.5646C64.9693 22.5674 65.0294 22.5957 65.0734 22.6418C65.1172 22.6879 65.1417 22.7483 65.1415 22.8107C65.1412 22.8731 65.1162 22.9334 65.0719 22.9792C65.0276 23.0248 64.9673 23.0526 64.9049 23.0549C63.9387 23.0895 62.9877 23.2944 62.1393 23.6843C61.6314 23.9168 61.1611 24.2143 60.7391 24.5671C60.7313 24.5736 60.7236 24.5804 60.7159 24.5868C57.7326 27.1752 58.3878 31.839 59.6542 35.4279C60.9852 39.1531 63.1499 42.5776 65.6669 45.6559C65.6708 45.6607 65.6819 45.6746 65.6854 45.6794C65.8054 45.8381 65.9272 45.996 66.0507 46.1525C70.6481 51.7209 78.1753 57.7766 85.3014 54.8437C85.3051 54.8416 85.3157 54.8355 85.3195 54.8337C86.241 54.3894 86.9973 53.6273 87.4828 52.695C87.9102 51.8723 88.1794 50.9031 88.1405 49.9919C88.1356 49.9272 88.1551 49.8624 88.1962 49.8117C88.2373 49.761 88.2965 49.7285 88.361 49.7214C88.4254 49.7143 88.4902 49.7331 88.5414 49.7736C88.5925 49.8141 88.6258 49.8732 88.6351 49.9374C88.7496 51.0044 88.5229 52.0343 88.1017 52.9955C87.6267 54.0661 86.7992 55.0182 85.7428 55.6022C77.657 59.2851 69.7344 52.8958 64.8729 47.0815C64.7448 46.9191 64.6186 46.7551 64.4943 46.59C61.8972 43.3943 59.734 39.7871 58.4571 35.8293C57.2695 32.0339 56.5938 26.9053 60.1669 23.9164C60.176 23.9091 60.1855 23.9017 60.1947 23.8945C60.6949 23.4999 61.2614 23.1932 61.8531 22.9799Z" fill="#B66A1F"/>
<path d="M85.7274 55.6113C85.7325 55.6084 85.7377 55.6051 85.7428 55.6022C85.7437 55.6018 85.7448 55.6016 85.7457 55.6012L85.7274 55.6113Z" fill="#B66A1F"/>
<path fill-rule="evenodd" clip-rule="evenodd" d="M55.7855 22.6869C58.8598 19.8979 63.2952 19.3377 68.0502 20.5956C68.0587 20.5956 68.0673 20.599 68.0741 20.6008C73.8533 21.814 80.5057 26.6136 85.3363 32.5131C93.5683 42.5823 95.0462 57.989 84.5782 63.5761C84.4064 63.65 84.2208 63.7276 84.0387 63.8014C84.0369 63.8047 84.0335 63.8065 84.0301 63.8049C74.838 67.6009 53.0564 72.502 39.6971 75.3151C34.9869 76.31 31.1118 71.5772 33.014 67.154C38.2399 55.0079 46.9423 35.4912 52.5135 26.7734C52.5135 26.7717 52.5137 26.7699 52.5153 26.7682C52.8108 26.3078 53.0943 25.878 53.3693 25.4811C53.6339 25.0859 54.0189 24.5926 54.4347 24.1064C54.4347 24.1064 54.435 24.103 54.4381 24.103C54.8335 23.6414 55.2553 23.1863 55.6285 22.8322L55.7855 22.6869ZM67.6664 22.0456C63.21 20.8667 59.3641 21.4656 56.7933 23.7978L56.7909 23.8C56.4476 24.1101 56.0074 24.5767 55.5773 25.0788L55.5448 25.1164C55.1632 25.5646 54.8304 25.9951 54.6156 26.3158L54.6024 26.3354C54.3861 26.6477 54.1618 26.9848 53.9271 27.3469L53.7775 27.5812C48.2862 36.1739 39.6343 55.5626 34.392 67.747C32.97 71.0542 35.8678 74.5906 39.3871 73.8473H39.3881C50.4219 71.5239 67.0098 67.8133 77.5768 64.4933C71.4956 64.8482 65.4386 61.7979 61.0663 57.7028C59.7855 56.5211 58.6006 55.2375 57.5106 53.8825C54.1559 49.7053 51.6985 44.7417 50.8092 39.4636C50.6802 38.6887 50.5869 37.9083 50.5333 37.1266C50.5284 37.0537 50.5506 36.9805 50.597 36.9235C50.6436 36.8665 50.7105 36.8301 50.7831 36.8222C50.8557 36.8143 50.9287 36.8356 50.9864 36.8813C51.0441 36.9269 51.0815 36.9934 51.0924 37.0656C51.2062 37.8224 51.3553 38.5734 51.535 39.3158C52.7717 44.3684 55.3408 48.9993 58.6361 52.9611C59.7101 54.2487 60.8587 55.4701 62.0836 56.6003C67.0101 61.1766 73.7093 64.533 80.5218 63.2807C81.2656 63.1425 82.0004 62.9497 82.7198 62.7016C82.742 62.6939 82.7649 62.6891 82.788 62.6869C82.8599 62.6586 82.9315 62.6311 83.0021 62.603L83.464 62.4157L83.7892 62.2814C83.8354 62.262 83.8812 62.2424 83.9259 62.2233C88.4986 59.7552 90.5535 55.1347 90.4701 49.7487C90.3858 44.3123 88.0998 38.2636 84.1757 33.4633L83.9537 33.1948C79.3052 27.6169 73.1034 23.238 67.8883 22.0956H67.8551L67.6664 22.0456Z" fill="#B66A1F"/>
<path d="M65.5732 36.1891C65.0483 36.1891 64.5318 35.9425 64.2086 35.4793C63.6804 34.7261 63.862 33.6864 64.6151 33.1583C70.9483 28.7145 70.3785 22.5063 70.3518 22.2447C70.2468 21.33 70.9017 20.5085 71.8164 20.4019C72.7311 20.2953 73.5576 20.9567 73.6642 21.8698C73.7042 22.2097 74.5356 30.2674 66.5312 35.8858C66.2397 36.0907 65.9064 36.1891 65.5748 36.1891H65.5732Z" fill="#F05F2B"/>
<path d="M93.8498 49.4762C93.5199 49.4762 93.185 49.3779 92.8951 49.1746C89.3494 46.6887 85.3522 45.9139 81.0135 46.872C77.6727 47.6101 75.3651 49.1463 75.3417 49.1613C74.5803 49.6745 73.5439 49.4746 73.0291 48.7131C72.5142 47.9517 72.7108 46.9203 73.4706 46.4038C73.5822 46.3288 76.2382 44.541 80.162 43.6479C85.4255 42.4499 90.4891 43.4163 94.8078 46.4471C95.561 46.9753 95.7442 48.015 95.2144 48.7681C94.8895 49.2296 94.373 49.4779 93.8481 49.4779L93.8498 49.4762Z" fill="#9F6EB8"/>
<path d="M72.3235 40.8791C71.4271 40.8791 70.6873 40.1676 70.659 39.2645C70.6307 38.3448 71.3521 37.5767 72.2719 37.5467L78.3601 37.3567C78.6034 37.3484 78.7234 37.1934 78.7733 37.1018C78.8233 37.0102 78.8883 36.8252 78.7634 36.6169L77.5487 34.5809C76.8956 33.4862 76.8289 32.1432 77.3738 30.9902C77.9186 29.8372 78.995 29.0341 80.2563 28.8425L84.5617 28.1877C84.775 28.156 84.8783 28.0127 84.9216 27.9311C84.9649 27.8495 85.0216 27.6828 84.9266 27.4896L82.7339 23.0192C82.329 22.1927 82.6706 21.1947 83.4953 20.7898C84.3218 20.3849 85.3198 20.7248 85.7247 21.5513L87.9174 26.0216C88.4589 27.1263 88.4422 28.386 87.8724 29.4757C87.3026 30.5653 86.2762 31.2968 85.0599 31.4817L80.7545 32.1366C80.5295 32.1699 80.4279 32.3232 80.3862 32.4115C80.3446 32.4998 80.2929 32.6764 80.4079 32.8713L81.6225 34.9058C82.324 36.0804 82.3507 37.4984 81.6942 38.6997C81.0377 39.901 79.8281 40.6425 78.4601 40.6841L72.3719 40.8741C72.3535 40.8741 72.3369 40.8741 72.3185 40.8741L72.3235 40.8791Z" fill="#FFC95C"/>
<path d="M71.7703 20.0041C72.8633 19.8328 73.9896 20.6987 74.1089 21.8188C74.3888 25.0608 73.5348 28.2685 71.876 31.0129C70.6098 33.102 68.8366 34.8648 66.844 36.2309C66.8281 36.2418 66.8122 36.2528 66.7964 36.2636C66.4418 36.5096 66.0056 36.6431 65.5755 36.6367C65.5749 36.6367 65.5743 36.6367 65.5738 36.6367C64.8981 36.6336 64.2347 36.2788 63.8648 35.7219C63.2177 34.8161 63.4893 33.4422 64.4029 32.8564C65.4383 32.162 66.3945 31.3476 67.2173 30.4089C67.6048 29.967 67.9623 29.4984 68.2845 29.0058C68.3208 28.9503 68.3782 28.9113 68.4436 28.8969C68.5091 28.8826 68.5771 28.8941 68.6333 28.9294C68.6895 28.9646 68.7296 29.0208 68.7451 29.0859C68.7607 29.151 68.7505 29.2197 68.7163 29.2766C68.4005 29.8017 68.0476 30.3049 67.6621 30.7827C66.8438 31.7975 65.8805 32.6929 64.8282 33.4626C64.264 33.861 64.1466 34.7164 64.554 35.2397C64.7884 35.5644 65.1809 35.7537 65.5738 35.7438C65.5743 35.7438 65.5749 35.7438 65.5755 35.7438C65.8252 35.7391 66.0668 35.6569 66.2674 35.5102C66.2824 35.4994 66.2974 35.4885 66.3123 35.4777C68.1845 34.124 69.806 32.4283 70.9908 30.4743C72.5429 27.9245 73.3845 24.8641 73.2205 21.9228C73.1753 21.2752 72.5322 20.7256 71.8633 20.8019C71.1911 20.845 70.6195 21.5056 70.6949 22.2065L70.6953 22.2109C70.7325 22.8171 70.691 23.386 70.6172 23.9619C70.5362 24.5734 70.4072 25.1747 70.2344 25.7643C70.2158 25.8274 70.1742 25.8817 70.117 25.9147C70.0597 25.9478 69.9918 25.957 69.9283 25.9404C69.8647 25.9237 69.8103 25.8822 69.7766 25.8254C69.743 25.7685 69.7331 25.7007 69.7478 25.6367C69.88 25.062 69.9703 24.4814 70.0161 23.8981C70.0525 23.4229 70.0635 22.933 70.0276 22.475L70.0098 22.2851C69.8384 21.2282 70.6769 20.1218 71.7703 20.0041Z" fill="#9E2B08"/>
<path d="M80.0485 43.148C82.9543 42.453 86.0504 42.4021 88.9733 43.1475C91.181 43.7031 93.2689 44.6984 95.1122 46.0133C96.0832 46.6682 96.3275 48.1334 95.6303 49.0609C95.231 49.6299 94.5394 49.9793 93.85 49.9681C93.4108 49.9652 92.974 49.8224 92.6198 49.5677C90.0739 47.7055 86.9303 46.6849 83.7435 46.8072C82.9606 46.8312 82.1776 46.9153 81.4003 47.0513C81.3344 47.0629 81.2661 47.049 81.2103 47.0116C81.1546 46.9741 81.1161 46.9162 81.1029 46.8507C81.0898 46.7852 81.1031 46.717 81.14 46.661C81.177 46.6049 81.2345 46.5657 81.2997 46.5509C82.0915 46.3715 82.8969 46.2462 83.7101 46.1849C87.0167 45.9044 90.431 46.8732 93.1708 48.7818C93.3711 48.9177 93.611 48.9886 93.85 48.9845C94.2284 48.9802 94.5903 48.7854 94.7987 48.4757C95.1587 47.9755 95.0107 47.2101 94.5035 46.8809C92.7392 45.659 90.7739 44.7404 88.7025 44.2188C85.9607 43.5204 83.0573 43.537 80.276 44.1478C77.9737 44.6555 75.6995 45.5302 73.7062 46.7503C73.1412 47.0955 72.952 47.9331 73.3373 48.505C73.6925 49.0933 74.5669 49.2967 75.1644 48.898L75.1701 48.8944C75.2644 48.8355 75.3649 48.7767 75.4623 48.7213C76.1754 48.3183 76.9118 47.978 77.6659 47.6803C77.7277 47.656 77.7969 47.6561 77.8585 47.6815C77.9201 47.7068 77.9692 47.7552 77.995 47.8162C78.0208 47.8774 78.0215 47.9465 77.9967 48.0084C77.9719 48.0702 77.9236 48.1197 77.8632 48.1471C77.1446 48.4729 76.4424 48.8393 75.7806 49.2537C75.6896 49.3112 75.6026 49.3674 75.5136 49.4285L75.5194 49.4246C74.6698 50.0519 73.3245 49.8262 72.7211 48.9215C72.0782 48.0515 72.3106 46.6719 73.2372 46.0562C75.3277 44.6798 77.6327 43.7309 80.0485 43.148Z" fill="#521A61"/>
<path d="M84.2413 20.003C85.0882 19.9992 85.9144 20.5153 86.2767 21.281C87.0031 22.7734 87.7243 24.2684 88.4435 25.7644C89.0535 26.997 89.0196 28.5339 88.3646 29.732C87.7348 30.9452 86.4849 31.8194 85.1405 32.0008C85.1344 32.0017 85.1282 32.0026 85.1222 32.0035C83.6936 32.2108 82.2652 32.4189 80.8348 32.627C81.2338 33.3054 81.6327 33.9838 82.0311 34.6624C82.8029 35.9361 82.8192 37.6307 82.0826 38.9109C81.3789 40.212 79.9326 41.068 78.4737 41.0708C77.6181 41.0835 76.7625 41.095 75.9068 41.1065C74.732 41.1222 73.557 41.1378 72.3822 41.1558L72.3734 41.156C72.3556 41.1558 72.3379 41.1554 72.3202 41.1551C71.3083 41.1875 70.3724 40.297 70.359 39.2737C70.3427 38.8737 70.454 38.4658 70.6739 38.1282C71.0139 37.5956 71.6267 37.2441 72.2633 37.2244C74.2922 37.1453 76.3212 37.0663 78.349 36.9871C78.4106 36.9796 78.415 36.9724 78.4469 36.9227C78.4687 36.8682 78.4688 36.8626 78.4405 36.8103C78.0303 36.1348 77.6201 35.4592 77.2098 34.7837C76.4855 33.6094 76.3952 32.0655 76.9894 30.8077C77.5638 29.5427 78.804 28.5995 80.1888 28.3887C80.7988 28.2905 81.4087 28.1922 82.0186 28.0938C82.8287 27.9631 83.6382 27.829 84.4493 27.6936C83.6993 26.2231 82.9461 24.754 82.2018 23.2803C81.6366 22.217 82.1223 20.7513 83.2264 20.2376C83.5387 20.0831 83.8905 20.0008 84.2413 20.003ZM84.2354 21.2349C84.0743 21.2341 83.9148 21.2703 83.7679 21.3414C83.26 21.5715 83.0152 22.2467 83.2689 22.7574C83.9823 24.256 84.6869 25.7591 85.3944 27.2603C85.5319 27.5269 85.5279 27.9036 85.3758 28.1712C85.2452 28.4321 84.9346 28.6562 84.6393 28.6875C83.8131 28.8009 82.987 28.9156 82.1615 29.0335C81.5499 29.1208 80.9384 29.2084 80.3268 29.2959C79.2348 29.4425 78.239 30.1673 77.7613 31.1724C77.2697 32.1696 77.3174 33.4124 77.8907 34.3775C78.2902 35.0594 78.6897 35.7414 79.0887 36.4224C79.2444 36.6592 79.2492 37.0391 79.1029 37.2806C78.9769 37.5328 78.6546 37.7309 78.3731 37.7261C76.3433 37.7736 74.3134 37.821 72.284 37.8685C71.8521 37.875 71.4326 38.1056 71.1917 38.4685C71.0369 38.6984 70.9555 38.9755 70.962 39.2549C70.9596 39.9656 71.5988 40.6023 72.3202 40.5926C72.3379 40.5923 72.3556 40.5921 72.3734 40.5918H72.3646C73.5382 40.5366 74.7118 40.479 75.8853 40.4214C76.74 40.3795 77.5948 40.3377 78.4498 40.2969C79.6501 40.2504 80.7648 39.5365 81.3089 38.4881C81.8753 37.4498 81.8358 36.1425 81.2169 35.1487C80.807 34.4736 80.3975 33.7981 79.9881 33.1226L79.9869 33.1204C79.8234 32.8666 79.8034 32.4733 79.9413 32.2007C80.0564 31.9257 80.3801 31.6775 80.6812 31.6451C82.1089 31.4184 83.5368 31.1922 84.9644 30.9651C84.9705 30.9642 84.9765 30.9632 84.9825 30.9622C86.0116 30.8056 86.922 30.141 87.3834 29.2188C87.8594 28.303 87.8601 27.1886 87.3946 26.2786C86.6519 24.7943 85.9111 23.309 85.1756 21.8208C85.0053 21.4674 84.6263 21.2341 84.2354 21.2349ZM84.4891 27.6873C84.4923 27.6843 84.4887 27.6857 84.4837 27.688C84.4855 27.6877 84.4874 27.6876 84.4891 27.6873Z" fill="#783B13"/>
<path d="M95.3601 39.0659C95.7716 39.0121 96.1505 39.0481 96.4966 39.174C97.3245 39.4753 98.1089 39.8962 98.8499 40.4365C98.9083 40.479 98.9666 40.5223 99.0245 40.5664C99.0793 40.6084 99.1269 40.6626 99.1529 40.7275C99.1789 40.7923 99.1812 40.8619 99.1585 40.9243C99.1358 40.9867 99.0892 41.0385 99.0276 41.0715C98.966 41.1044 98.8947 41.1153 98.8257 41.1123C98.7531 41.1088 98.6807 41.1047 98.6087 41.0998C97.6937 41.0375 96.8222 40.8557 95.9942 40.5544C95.6481 40.4284 95.3347 40.2126 95.054 39.9069C95.0011 39.8494 94.9493 39.7885 94.8987 39.7246C94.852 39.6646 94.8094 39.6005 94.7859 39.5317C94.7626 39.4628 94.7605 39.3939 94.783 39.332C94.8056 39.27 94.8517 39.2188 94.9139 39.1811C94.9761 39.1434 95.0497 39.1216 95.1241 39.1057C95.2039 39.0892 95.2826 39.076 95.3601 39.0659Z" fill="#F5A031"/>
<path d="M99.917 32.184C99.9867 32.1744 100.06 32.1813 100.124 32.2126C100.188 32.2438 100.238 32.2959 100.263 32.3596C100.288 32.4233 100.287 32.4954 100.262 32.562C100.236 32.6286 100.187 32.6839 100.13 32.7243C100.053 32.7778 99.9769 32.8302 99.8995 32.8818C98.9183 33.5362 97.8721 34.0386 96.8062 34.4294C96.3601 34.593 95.8844 34.6689 95.3731 34.6623C95.2765 34.6612 95.1792 34.6567 95.0799 34.6498C95.0035 34.6442 94.9262 34.629 94.8597 34.5932C94.7932 34.5574 94.7428 34.504 94.7171 34.4389C94.6914 34.3738 94.6921 34.3003 94.7164 34.2287C94.7406 34.1572 94.7864 34.0933 94.8384 34.0371C94.9074 33.9639 94.9773 33.8944 95.0491 33.8278C95.429 33.4751 95.849 33.216 96.3003 33.0505C97.3818 32.6541 98.4936 32.398 99.6441 32.2236C99.735 32.2098 99.8254 32.1969 99.917 32.184Z" fill="#F5A031"/>
<path d="M94.9561 25.7829C95.026 25.7782 95.0933 25.7976 95.1458 25.8388C95.1982 25.88 95.2329 25.9409 95.2449 26.01C95.2569 26.079 95.2449 26.1505 95.2198 26.215C95.1922 26.285 95.1638 26.3545 95.1351 26.4235C94.7698 27.3001 94.3048 28.0984 93.7395 28.8178C93.5033 29.1185 93.1916 29.3603 92.805 29.5429C92.7321 29.5773 92.6564 29.6096 92.5782 29.6398C92.5071 29.6667 92.4332 29.688 92.3601 29.6892C92.287 29.6902 92.2199 29.6707 92.1675 29.6296C92.1152 29.5884 92.0803 29.5278 92.064 29.4565C92.0478 29.3852 92.0513 29.3083 92.0606 29.2329C92.0714 29.1498 92.0849 29.0688 92.1011 28.9899C92.187 28.571 92.3482 28.2111 92.5845 27.9103C93.1498 27.1909 93.8149 26.5498 94.5801 25.9875C94.6404 25.9432 94.7015 25.8995 94.763 25.8561C94.8198 25.8164 94.8861 25.7876 94.9561 25.7829Z" fill="#F5A031"/>
</svg>
