<svg fill="none" viewBox="0 0 24 24" xmlns="http://www.w3.org/2000/svg">
  <path fill="#f05f2b" d="M3 8c0-2.761 2.239-5 5-5h8c2.761 0 5 2.239 5 5v8c0 2.761-2.239 5-5 5H8c-2.761 0-5-2.239-5-5z"/>
  <path fill="#671907" d="M15.463 9.578c.716.374.716 1.399 0 1.773l-4.715 2.463c-.666.348-1.463-.135-1.463-.887V8.001c0-.75.797-1.234 1.463-.886z"/>
  <path fill="#9e2b08" fill-rule="evenodd" d="M16 2.25c3.176 0 5.75 2.574 5.75 5.75v8c0 3.176-2.574 5.75-5.75 5.75H8c-3.176 0-5.75-2.574-5.75-5.75V8c0-3.176 2.574-5.75 5.75-5.75zm-8 1.5C5.653 3.75 3.75 5.653 3.75 8v8q0 .255.03.5H16c2.241 0 3.54-.785 4.25-1.827V8c0-2.347-1.903-4.25-4.25-4.25z" clip-rule="evenodd"/>
  <path fill="#ffd885" d="M10.39 18.333q1.843 0 3.685.269.213.03.425.065c.082.013.16.05.218.111s.09.14.09.222-.033.16-.09.222c-.058.06-.136.098-.218.111q-.212.035-.425.065-1.842.27-3.684.269-1.983 0-3.966-.274-.213-.03-.425-.062c-.081-.012-.16-.05-.217-.11-.057-.061-.09-.14-.09-.221s.033-.16.09-.22c.058-.062.136-.099.217-.111l.425-.062q1.983-.273 3.966-.274m6.642 0q.434 0 .867.269.05.03.1.065c.063.044.123.092.168.148.044.057.07.12.07.185q-.002.099-.07.185c-.045.056-.105.104-.168.148q-.05.035-.1.065-.433.27-.867.269-.466 0-.933-.274l-.1-.062c-.064-.042-.125-.089-.17-.145q-.069-.086-.07-.186.001-.099.07-.186c.045-.056.106-.103.17-.145l.1-.062q.466-.273.933-.274"/>
</svg>
