<svg width="96" height="96" viewBox="0 0 96 96" fill="none" xmlns="http://www.w3.org/2000/svg">
<path d="M70.4803 18.7643C74.5277 18.497 78.025 21.5613 78.2918 25.6088L80.2142 54.7762C78.2641 53.8172 76.07 53.2785 73.7501 53.2784C65.6499 53.2784 59.0833 59.8448 59.0833 67.945C59.0833 70.3895 59.6816 72.6942 60.7393 74.7211L33.2025 76.5399C29.155 76.8073 25.6575 73.7429 25.3907 69.6954L22.7271 29.2789C22.4604 25.2314 25.5251 21.7336 29.5726 21.4662L70.4803 18.7643Z" fill="#FAB341"/>
<path d="M69.9713 18.7975C74.0187 18.5302 77.516 21.5947 77.7828 25.6422L79.6866 54.5294C77.8716 53.7251 75.8631 53.2782 73.7501 53.2782C65.6499 53.2782 59.0833 59.8446 59.0833 67.9447C59.0833 70.3892 59.6816 72.694 60.7393 74.7208L25.4617 77.0509C21.4143 77.3182 17.9168 74.2539 17.65 70.2064L14.9864 29.7899C14.7196 25.7424 17.7844 22.2445 21.8318 21.9772L69.9713 18.7975Z" fill="#FFC95C"/>
<path d="M17.85 73.2357L14.9885 29.8183C14.721 25.76 17.8025 22.2565 21.8617 22.0038L59.4973 19.6603C26.5547 26.1163 16.0785 46.3569 17.85 73.2357Z" fill="#FFD885"/>
<path d="M32.6351 56.3728C33.5496 56.3841 34.2818 57.1354 34.2706 58.0508C34.2594 58.9662 33.509 59.6992 32.5946 59.688C31.6802 59.6768 30.9479 58.9254 30.9591 58.01C30.9704 57.0947 31.7208 56.3617 32.6351 56.3728Z" fill="#F05F2B"/>
<path d="M46.3622 24.9317C53.6635 24.4334 59.9865 29.9485 60.4847 37.2498C60.983 44.551 55.4679 50.8738 48.1666 51.3721C40.8654 51.8703 34.5426 46.3555 34.0443 39.0542C33.546 31.753 39.0609 25.43 46.3622 24.9317Z" fill="#F05F2B"/>
<path fill-rule="evenodd" clip-rule="evenodd" d="M46.5527 27.2335C40.5237 27.645 35.9698 32.866 36.3813 38.895C36.7927 44.924 42.0137 49.4779 48.0427 49.0664C54.0717 48.6549 58.6256 43.4339 58.2142 37.4049C57.8027 31.3759 52.5817 26.822 46.5527 27.2335ZM37.8767 38.7929C37.5216 33.5898 41.4516 29.084 46.6547 28.7289C51.8578 28.3738 56.3637 32.3039 56.7188 37.507C57.0333 42.1161 53.9852 46.1781 49.6684 47.2922C48.3539 44.7605 46.9567 41.7168 48.0919 41.2924C46.5428 38.8996 46.7102 37.247 49.6074 37.5551L49.6118 37.5553C49.9351 37.5699 50.1802 37.581 50.253 37.5274C50.6238 37.2542 50.0136 31.8525 46.5975 31.3463C43.2386 27.7256 40.5887 32.2977 42.0637 31.8966C43.2396 31.5159 44.1468 31.7313 44.1065 31.746C38.8679 32.7729 41.893 40.9302 43.5628 45.4329C43.7925 46.0522 43.9965 46.6024 44.1498 47.0553C40.7076 45.8367 38.1411 42.6678 37.8767 38.7929Z" fill="white"/>
<path d="M51.9743 45.7593C51.9556 45.9764 51.8914 46.1246 51.761 46.1536C51.5138 46.2089 50.3789 46.0293 49.7274 45.8312C49.6779 46.1683 47.997 46.5989 47.697 46.1711C47.1157 46.7473 45.9851 47.6026 45.7265 47.4573C45.2315 47.1794 44.6227 44.8208 44.9449 44.2915C45.4531 43.762 46.6287 44.2202 47.4471 44.4487C47.6868 43.9721 48.9868 43.7088 49.2848 44.0663C49.9652 43.4718 51.1102 42.6208 51.2365 42.7531C51.8665 43.4149 52.0541 45.0793 51.9738 45.7598L51.9743 45.7593Z" fill="#4CBA3C"/>
<path fill-rule="evenodd" clip-rule="evenodd" d="M45.4113 38.9623C45.5372 37.2128 48.8477 37.5316 50.2982 37.2369C51.3565 37.0405 52.1303 36.724 52.6436 36.4833C53.8203 35.9034 54.0602 36.3828 53.5211 37.1977C51.9849 39.2933 48.1692 38.1048 47.5735 39.1748C47.3997 39.4916 47.5989 40.1958 49.1432 40.3167C51.23 40.4792 52.8815 39.6938 53.1187 40.0842C52.7952 42.2792 44.9011 42.0782 45.4104 38.9629L45.4113 38.9623Z" fill="#FFCC33"/>
<path d="M49.2492 33.6786C49.0006 33.2243 47.8876 33.3036 47.7054 33.7658C47.6923 33.8595 47.7681 33.8298 47.9127 33.7733C48.1659 33.6741 48.6301 33.4924 49.1964 33.7474C49.2408 33.7631 49.2794 33.7154 49.2492 33.6786Z" fill="#14307E"/>
<path d="M43.8172 34.1625C43.6095 34.1617 43.2723 34.1604 43.0055 34.3334C42.6105 34.5344 42.492 34.7299 42.422 34.8632C42.3961 34.9124 42.2833 34.9153 42.2795 34.8595C42.2562 34.1112 43.4972 33.665 43.9891 34.0975C44.0497 34.1633 43.9672 34.163 43.8172 34.1625Z" fill="#14307E"/>
<path d="M49.0311 36.3205C48.1792 36.3743 48.0896 35.0614 48.941 34.999C49.7929 34.9452 49.8825 36.258 49.0311 36.3205Z" fill="#14307E"/>
<path d="M44.7015 36.4114C44.7537 37.4252 43.2693 37.5265 43.1833 36.515C43.1192 35.5067 44.628 35.4042 44.7015 36.4114Z" fill="#14307E"/>
<path d="M14.3552 72.9015C14.4238 72.8909 14.4943 72.9079 14.5528 72.9484C14.6114 72.989 14.6524 73.0499 14.673 73.1169C14.7361 73.3198 14.8051 73.5171 14.8801 73.7122C15.5549 75.4653 16.7031 76.9077 18.1365 77.945C19.5299 78.9522 21.2005 79.5798 23.0178 79.6989C23.0736 79.7022 23.1295 79.7056 23.1853 79.7091C23.403 79.7229 23.621 79.7383 23.8389 79.7553C23.9088 79.7608 23.9773 79.7875 24.0297 79.8359C24.082 79.8842 24.114 79.9494 24.1186 80.0187C24.1231 80.0879 24.1 80.1568 24.0544 80.2115C24.0089 80.2663 23.9445 80.3019 23.8759 80.3165C23.6621 80.362 23.4481 80.4059 23.234 80.4482C23.1791 80.4591 23.1242 80.4698 23.0693 80.4804C21.1068 80.8622 18.9266 80.3809 17.2575 79.1606C15.5264 77.9229 14.3687 75.9266 14.1593 73.8826C14.1346 73.6557 14.1208 73.4302 14.1172 73.2033C14.1166 73.1332 14.1372 73.0624 14.1808 73.006C14.2243 72.9497 14.2866 72.9122 14.3552 72.9015Z" fill="#F5A031"/>
<path d="M34.9109 63.8077C36.2597 63.7146 37.4285 64.7326 37.5215 66.0814L37.6082 67.3392C37.7009 68.6879 36.6828 69.8569 35.334 69.95L32.281 70.1607C30.9323 70.2537 29.7634 69.2355 29.6705 67.8868L29.5838 66.6292C29.491 65.2805 30.5093 64.1116 31.858 64.0184L34.9109 63.8077Z" fill="#FFFBF0"/>
<path d="M45.0948 63.1043C46.4436 63.0112 47.6124 64.0294 47.7054 65.3782L47.792 66.6358C47.8848 67.9846 46.8666 69.1535 45.5179 69.2467L42.3914 69.4625C41.0427 69.5554 39.8738 68.5373 39.7808 67.1885L39.6941 65.931C39.6014 64.5822 40.6196 63.4134 41.9683 63.3201L45.0948 63.1043Z" fill="#FFFBF0"/>
<path d="M55.3638 62.3961C56.7127 62.303 57.8814 63.3212 57.9744 64.67L58.0611 65.9276C58.1539 67.2764 57.1357 68.4455 55.7869 68.5386L52.4676 68.7676C51.1188 68.8606 49.95 67.8425 49.857 66.4937L49.7703 65.2362C49.6775 63.8874 50.6958 62.7185 52.0445 62.6253L55.3638 62.3961Z" fill="#FFFBF0"/>
<path fill-rule="evenodd" clip-rule="evenodd" d="M64.9422 52.9447C66.1074 52.8692 67.134 53.6219 67.4488 54.6976C65.2338 55.753 63.3251 57.3476 61.8926 59.3116L31.4832 61.2796C30.1341 61.3668 28.9696 60.3438 28.8824 58.9947L28.8011 57.7366C28.714 56.3875 29.7373 55.223 31.0865 55.1356L64.9422 52.9447ZM32.6353 56.3734C31.7209 56.3622 30.9705 57.095 30.9593 58.0103C30.9481 58.9257 31.6804 59.677 32.5948 59.6883C33.5091 59.6995 34.2595 58.9664 34.2708 58.0511C34.282 57.1357 33.5497 56.3846 32.6353 56.3734Z" fill="#FFFBF0"/>
<path d="M69.948 18.5663C74.6079 18.2795 78.3662 21.5509 78.6704 26.2177L80.7341 55.0451C80.2324 54.7729 79.7129 54.5295 79.178 54.3163L77.1746 26.3249C77.1744 26.3232 77.1742 26.3212 77.1741 26.3195C76.9262 22.484 73.886 19.8269 70.041 20.0631L70.0413 20.0634L22.2742 23.0827C18.5228 23.3553 15.7756 26.5574 15.9326 30.3288L15.9424 30.5087V30.5109L18.3955 69.465L18.4097 69.6442C18.7521 73.3936 22.018 76.2102 25.7974 75.9748L60.2715 73.7367C60.4868 74.2371 60.729 74.7232 60.9966 75.193L25.8926 77.4718L25.8906 77.4721C21.2266 77.7626 17.2063 74.2266 16.8989 69.5636L16.8987 69.5614L14.4458 30.6071L14.4456 30.6073C14.14 25.9703 17.4989 21.9236 22.1697 21.5863L22.1763 21.5858L69.9468 18.5663H69.948Z" fill="#B66A1F"/>
<path d="M62.5068 52.7052C62.5797 52.7055 62.6511 52.7323 62.7048 52.7824C62.7586 52.8324 62.7905 52.9016 62.7937 52.9743C62.7968 53.0469 62.7709 53.1182 62.7219 53.1728C62.6728 53.2273 62.6041 53.2606 62.5315 53.2672C61.8632 53.328 61.1948 53.3871 60.5264 53.4447C54.5098 53.9635 48.4874 54.3556 42.4597 54.6215C39.6148 54.747 36.7685 54.8443 33.9211 54.9135C32.7391 54.9681 31.5469 55.1056 30.5769 55.58C29.7715 55.9565 29.3198 57.0062 29.2937 58.0509C29.291 58.1392 29.2898 58.2275 29.2905 58.3153C29.2942 58.9175 29.4498 59.521 29.7971 59.9877C29.8033 59.996 29.8095 60.0045 29.8157 60.0126C30.1577 60.4784 30.7132 60.7708 31.322 61.0077C31.3899 61.0342 31.4466 61.085 31.4788 61.151C31.5109 61.2171 31.5161 61.293 31.4929 61.362C31.4697 61.4309 31.4197 61.4882 31.3542 61.5214C31.2887 61.5546 31.2127 61.5609 31.1426 61.5409C30.4902 61.354 29.7664 61.0744 29.2495 60.4899C29.2405 60.48 29.2313 60.4699 29.2224 60.4599C28.7029 59.8723 28.4484 59.1075 28.3872 58.3593C28.3788 58.2592 28.3727 58.1587 28.3684 58.0587C28.3153 56.8168 28.7218 55.3172 30.0315 54.5653C31.2596 53.884 32.5801 53.6991 33.8481 53.5849C33.8507 53.5848 33.8579 53.5844 33.8603 53.5844C36.7036 53.4025 39.5483 53.2487 42.394 53.1232C48.4216 52.8573 54.4549 52.7177 60.4936 52.7047C61.1646 52.7033 61.8358 52.7035 62.5068 52.7052Z" fill="#B66A1F"/>
<path d="M49.7649 25.0783C50.3609 25.1319 50.9288 25.2189 51.5134 25.3512C56.791 26.4361 60.9675 31.4234 61.4565 36.8681C62.1603 42.344 58.7593 47.9578 53.8313 49.9921C53.2799 50.2418 52.7593 50.4398 52.1855 50.6278C52.1164 50.6502 52.0406 50.647 51.9739 50.6166C51.9072 50.5862 51.8552 50.5314 51.8291 50.4638C51.8031 50.3961 51.8049 50.3203 51.834 50.2531C51.8631 50.1859 51.9172 50.1327 51.9834 50.1029C52.5167 49.8635 52.9931 49.6196 53.4939 49.3327C57.955 46.8957 60.5541 41.9055 59.9646 37.0229C59.4982 32.163 56.1427 27.5988 51.3157 26.0648C50.778 25.8872 50.2491 25.7473 49.6855 25.6352C49.6143 25.621 49.5498 25.5813 49.5063 25.5224C49.463 25.4634 49.4441 25.39 49.4543 25.3183C49.4646 25.2465 49.5029 25.1812 49.561 25.1366C49.6192 25.0921 49.6925 25.072 49.7649 25.0783Z" fill="#B66A1F"/>
<path d="M73.75 80C80.3774 80 85.75 74.6274 85.75 68C85.75 61.3726 80.3774 56 73.75 56C67.1226 56 61.75 61.3726 61.75 68C61.75 74.6274 67.1226 80 73.75 80Z" fill="black"/>
<path d="M77.583 69.0005C79.1478 69.0005 80.4163 70.2692 80.4163 71.834C80.4162 73.3987 79.1477 74.6672 77.583 74.6672C76.3285 74.6672 75.265 73.8516 74.8923 72.7219H74.8918C74.8901 72.7165 74.8885 72.711 74.8867 72.7056C74.8794 72.6829 74.8725 72.6601 74.8657 72.6372C74.8598 72.6173 74.8543 72.5972 74.8489 72.5771C74.8438 72.5585 74.8387 72.5398 74.834 72.521C74.8264 72.4905 74.8194 72.4598 74.8127 72.429C74.8107 72.4193 74.8081 72.4098 74.8062 72.4001C74.7979 72.3596 74.7909 72.3187 74.7844 72.2776C74.7825 72.2651 74.7806 72.2525 74.7788 72.24C74.7739 72.2061 74.7696 72.172 74.7659 72.1377C74.7648 72.128 74.7639 72.1183 74.7629 72.1086C74.7594 72.0721 74.7565 72.0353 74.7544 71.9983C74.7539 71.989 74.7534 71.9797 74.7529 71.9705C74.7508 71.9253 74.7493 71.8799 74.7493 71.8342L74.7529 71.6882C74.7577 71.5944 74.7673 71.5018 74.781 71.4106C74.7826 71.3997 74.7846 71.3888 74.7864 71.3779C74.7916 71.3461 74.7972 71.3144 74.8035 71.283C74.8067 71.2663 74.8101 71.2497 74.8137 71.2332C74.8195 71.2066 74.8258 71.1803 74.8323 71.1541C74.8371 71.1345 74.842 71.1151 74.8472 71.0957C74.8526 71.0757 74.8584 71.0558 74.8643 71.0359C74.8713 71.012 74.8784 70.9882 74.886 70.9646C74.8912 70.9484 74.8968 70.9323 74.9023 70.9163C74.911 70.8909 74.9196 70.8656 74.929 70.8406C74.9325 70.8311 74.9365 70.8217 74.9402 70.8123C75.3502 69.7525 76.3785 69.0005 77.583 69.0005Z" fill="white"/>
<path d="M73.2214 70.7219C73.131 71.0777 73.0828 71.4503 73.0828 71.8342C73.0828 72.1381 73.1132 72.4349 73.1707 72.7219H68.083C67.5308 72.7219 67.083 72.2742 67.083 71.7219C67.083 71.1697 67.5308 70.722 68.083 70.7219H73.2214Z" fill="white"/>
<path d="M69.9167 61.334C71.1713 61.334 72.2348 62.1496 72.6074 63.2793C72.608 63.281 72.6086 63.2827 72.6091 63.2844C72.618 63.3113 72.6262 63.3385 72.6343 63.3657C72.639 63.3818 72.6435 63.3981 72.6479 63.4143C72.6541 63.4367 72.6604 63.4591 72.666 63.4817C72.6708 63.5007 72.6751 63.5199 72.6794 63.5391C72.6869 63.5719 72.6937 63.6049 72.7 63.6382C72.7051 63.6654 72.7104 63.6927 72.7148 63.7202C72.7175 63.737 72.7196 63.7539 72.7219 63.7708C72.7259 63.7989 72.7295 63.8273 72.7327 63.8557C72.7342 63.8694 72.7358 63.8832 72.7371 63.897C72.7404 63.9315 72.7428 63.9663 72.7449 64.0012C72.7454 64.0106 72.7464 64.0199 72.7468 64.0293C72.7491 64.0751 72.7505 64.1211 72.7505 64.1675L72.7468 64.3135C72.742 64.4077 72.7321 64.5005 72.7183 64.592C72.7169 64.6008 72.7153 64.6095 72.7139 64.6182C72.7088 64.6499 72.7034 64.6815 72.6973 64.7129C72.6945 64.7273 72.6915 64.7416 72.6885 64.7559C72.6818 64.7872 72.6744 64.8184 72.6667 64.8494C72.6623 64.8672 72.6578 64.8849 72.6531 64.9026C72.6471 64.9248 72.6408 64.9468 72.6343 64.9688C72.6278 64.9907 72.6212 65.0125 72.6143 65.0342C72.6093 65.0497 72.6041 65.0652 72.5989 65.0806C72.59 65.1066 72.5811 65.1325 72.5715 65.1582C72.5667 65.1711 72.5614 65.1837 72.5564 65.1965C72.1444 66.2523 71.1184 67.0007 69.9167 67.0007C68.352 67.0007 67.0835 65.732 67.0835 64.1672C67.0835 62.6025 68.352 61.334 69.9167 61.334Z" fill="white"/>
<path d="M79.4167 63.2793C79.969 63.2793 80.4167 63.727 80.4167 64.2793C80.4167 64.8316 79.969 65.2793 79.4167 65.2793H74.2786C74.3689 64.9237 74.417 64.5512 74.417 64.1675C74.417 63.8634 74.3866 63.5664 74.3291 63.2793H79.4167Z" fill="white"/>
</svg>
