<svg width="12" height="12" viewBox="0 0 12 12" fill="none" xmlns="http://www.w3.org/2000/svg">
<path d="M9.64645 1.64657C9.84171 1.45131 10.1582 1.45131 10.3535 1.64657C10.5487 1.84184 10.5487 2.15836 10.3535 2.3536L6.70699 6.00009L10.3535 9.64658L10.3877 9.68467C10.5478 9.88105 10.5365 10.1706 10.3535 10.3536C10.1705 10.5366 9.88092 10.5479 9.68454 10.3878L9.64645 10.3536L5.99996 6.70712L2.35347 10.3536L2.31538 10.3878C2.11902 10.5479 1.82949 10.5366 1.64644 10.3536C1.46339 10.1706 1.45211 9.88105 1.61226 9.68467L1.64644 9.64658L5.29293 6.00009L1.64644 2.3536C1.45118 2.15835 1.4512 1.84183 1.64644 1.64657C1.8417 1.45131 2.15821 1.45131 2.35347 1.64657L5.99996 5.29306L9.64645 1.64657Z" fill="black"/>
</svg>
