<svg width="16" height="16" viewBox="0 0 16 16" fill="none" xmlns="http://www.w3.org/2000/svg">
<g clip-path="url(#clip0_11447_72900)">
<path d="M7.59693 1.0005C8.53293 1.01235 9.42758 1.19582 10.251 1.52064C10.0917 1.64341 9.90672 1.73468 9.70484 1.78517L8.97034 1.96888C8.88075 1.99129 8.79768 2.01893 8.72095 2.05079C8.32535 1.97636 7.91722 1.93739 7.5 1.93739C3.87565 1.93739 0.93753 4.87555 0.9375 8.49989C0.937501 11.3158 2.71109 13.7172 5.20203 14.6486C5.00335 13.94 4.66527 12.6944 4.21289 10.8818C3.40699 7.65428 2.80754 5.02211 5.83264 4.20033C5.86436 4.19236 5.87622 4.15669 5.85242 4.13685C5.50306 3.8193 4.91149 3.76367 4.33191 3.87879C4.30414 3.88274 4.2843 3.86293 4.2843 3.83912C4.2843 3.83121 4.28433 3.82323 4.29224 3.81532C4.43119 3.62081 4.68135 3.46985 4.85205 3.37855C4.73296 3.27138 4.57405 3.19999 4.43909 3.15235C4.39945 3.13643 4.39948 3.06899 4.43518 3.05311C4.43914 3.04915 4.44313 3.04518 4.45105 3.04518C5.64202 2.88638 6.89258 3.24365 7.50794 4.02967C7.51586 4.0376 7.52382 4.04158 7.53174 4.04554C9.55239 4.47825 9.92162 7.34048 9.79859 8.13063C10.5092 8.04726 11.0412 7.87266 11.3945 7.73768C11.9026 7.54318 12.0814 7.58682 12.1449 7.70192C12.2124 7.83292 12.133 8.05134 11.9543 8.2538C11.6169 8.63887 11.0054 8.94051 9.92957 9.02784C9.55771 9.05803 9.22901 9.04368 8.94544 9.03126C8.40863 9.00775 8.03353 8.99137 7.8335 9.29786C7.7025 9.50034 7.80571 9.97672 8.84583 10.1276C9.58832 10.2345 10.261 10.1598 10.7515 10.1052C11.1892 10.0566 11.4818 10.0241 11.5493 10.1514C11.6922 10.4253 10.8705 10.9732 9.46118 10.9851C9.354 10.9851 9.24678 10.9812 9.14356 10.9772C8.27018 10.9335 7.62704 10.6953 7.22608 10.4769C7.21417 10.473 7.20624 10.4689 7.20227 10.465C7.13082 10.4253 6.99192 10.4968 7.0752 10.6476C7.12284 10.7389 7.37695 10.9732 7.75806 11.1757C7.71837 11.4933 7.81759 11.9816 7.98828 12.5374C8.0081 12.5341 8.02795 12.53 8.04834 12.5259C8.07695 12.5201 8.10672 12.5142 8.13916 12.5095C8.48451 12.454 8.66716 12.5175 8.77039 12.6287C9.25862 12.2635 10.0724 11.7475 10.152 11.8425C10.549 12.3149 10.6005 13.4305 10.5132 13.8792C10.5092 13.8871 10.5013 13.895 10.4855 13.903C10.2989 13.9824 9.27092 13.7016 9.27063 13.5547C9.23093 12.8233 9.09495 12.7557 8.93616 12.72H8.82996C8.8339 12.7239 8.83785 12.7319 8.8418 12.7398L8.87757 12.8231C8.94107 12.9978 9.04032 13.5456 8.96497 13.6807C8.88954 13.8157 8.39725 13.8831 8.09155 13.8871C7.78986 13.8911 7.72233 13.78 7.65882 13.6093C7.61119 13.4703 7.58729 13.1487 7.58728 12.9622C7.58332 12.9066 7.5874 12.8589 7.59534 12.8152C7.50405 12.8549 7.37 12.9462 7.3263 13.0057C7.31439 13.1844 7.31441 13.4703 7.40967 13.7879C7.45731 13.9387 6.37645 14.5819 6.22559 14.4628C6.07075 14.3395 5.79291 13.1328 5.91199 12.6445C5.785 12.6565 5.68181 12.6962 5.62622 12.7755C5.40327 13.0834 5.62818 14.4293 5.91589 14.8698C6.04683 14.9022 6.17932 14.9308 6.31323 14.9552C6.65659 14.8333 7.19369 14.5053 7.50403 14.2405C7.5755 14.3397 7.71242 14.3477 7.88111 14.3477C8.10342 14.3397 8.41312 14.308 8.63147 14.2405C8.7159 14.4383 8.8245 14.6818 8.92615 14.9069C11.8648 14.2557 14.0625 11.6345 14.0625 8.49989C14.0625 8.08486 14.0238 7.67882 13.9501 7.28517C13.98 7.20943 14.0073 7.1245 14.031 7.02955L14.2147 6.29505C14.2652 6.09312 14.3564 5.90794 14.4793 5.74867C14.8153 6.60049 15 7.52865 15 8.49989L14.9994 8.59681C14.9475 12.6943 11.6098 15.9999 7.5 15.9999L7.40308 15.9993C3.33787 15.9478 0.052097 12.662 0.000610352 8.59681L0 8.49989C2.92492e-05 4.35778 3.35788 0.999887 7.5 0.999887L7.59693 1.0005ZM5.50708 6.81666C5.22128 6.81666 4.98705 7.04686 4.99097 7.33265C4.99097 7.61849 5.22124 7.84877 5.50708 7.84877C5.79292 7.84876 6.02319 7.61849 6.02319 7.33265C6.02314 7.04686 5.79288 6.81667 5.50708 6.81666ZM8.96094 6.58631C8.71483 6.58632 8.5164 6.78486 8.51636 7.02699C8.51636 7.26915 8.71481 7.46766 8.96094 7.46766C9.20708 7.46766 9.40564 7.26916 9.40564 7.02699C9.4056 6.78089 9.20705 6.58631 8.96094 6.58631ZM5.73731 7.02296C5.81271 7.02296 5.87227 7.08258 5.87232 7.15797C5.87232 7.2334 5.81274 7.29298 5.73731 7.29298C5.66189 7.29296 5.6023 7.23339 5.6023 7.15797C5.60234 7.08259 5.66192 7.02297 5.73731 7.02296ZM9.15943 6.76503C9.22293 6.76503 9.27451 6.81664 9.27454 6.88014C9.27452 6.94364 9.22293 6.99525 9.15943 6.99525C9.09594 6.99523 9.04433 6.94363 9.04431 6.88014C9.04434 6.81666 9.09594 6.76505 9.15943 6.76503ZM12.1816 0.273447C12.2645 -0.0579468 12.7355 -0.0579448 12.8184 0.273447L13.0021 1.00794C13.247 1.98781 14.0121 2.75297 14.9919 2.99793L15.7264 3.18153C16.0579 3.26439 16.0579 3.73551 15.7264 3.81837L14.9919 4.00196C14.0121 4.24693 13.2471 5.01199 13.0021 5.99183L12.8184 6.72645C12.7355 7.05784 12.2645 7.05776 12.1816 6.72633L11.998 5.99183C11.7531 5.01198 10.9879 4.24693 10.0081 4.00196L9.27356 3.81837C8.94211 3.73551 8.94211 3.26439 9.27356 3.18153L10.0081 2.99793C10.9879 2.75297 11.7531 1.98781 11.998 1.00794L12.1816 0.273447ZM5.64209 5.76063C5.52298 5.66139 5.25692 5.54224 4.90759 5.67323C4.59798 5.78834 4.45109 6.03054 4.45105 6.18934C4.45105 6.22507 4.52654 6.22904 4.54639 6.19728C4.60197 6.1139 4.68934 5.98681 4.96716 5.87171C5.24504 5.75661 5.46341 5.77251 5.61426 5.80824C5.646 5.81617 5.66981 5.78049 5.64209 5.76063ZM8.71875 5.48268C8.43296 5.48268 8.25824 5.58198 8.17883 5.70899C8.16299 5.74075 8.21068 5.77248 8.24243 5.7566C8.33771 5.705 8.4846 5.64546 8.71875 5.64942C8.94191 5.65321 9.07147 5.71104 9.17591 5.7577C9.18105 5.76 9.18614 5.7623 9.19116 5.76454C9.21895 5.77645 9.25081 5.74466 9.23096 5.72084C9.13965 5.59778 9.00455 5.48268 8.71875 5.48268Z" fill="black"/>
</g>
<defs>
<clipPath id="clip0_11447_72900">
<rect width="16" height="16" fill="white"/>
</clipPath>
</defs>
</svg>
