<svg width="128" height="96" viewBox="0 0 128 96" fill="none" xmlns="http://www.w3.org/2000/svg">
<path d="M64.0001 79.2088C81.2699 79.2088 95.2698 65.2361 95.2698 47.9999C95.2698 30.7637 81.2699 16.791 64.0001 16.791C46.7304 16.791 32.7305 30.7637 32.7305 47.9999C32.7305 65.2361 46.7304 79.2088 64.0001 79.2088Z" fill="#84BBA8"/>
<path d="M49.5635 40.8911C49.5635 32.7467 56.3338 26.1812 64.562 26.492C72.3148 26.7863 78.4871 33.2444 78.4375 40.9854C78.406 45.8925 75.9163 50.2178 72.136 52.7954C71.2183 53.422 71.4054 54.8109 72.4556 55.178C79.0802 57.4943 84.4576 62.456 87.3152 68.7949C81.5917 75.1868 73.2674 79.2095 64.0005 79.2095C54.7336 79.2095 46.4076 75.187 40.6841 68.7935C43.545 62.4512 48.9289 57.4876 55.5586 55.1729C56.6055 54.8074 56.7859 53.4253 55.8699 52.8003C52.0631 50.2062 49.5635 45.8396 49.5635 40.8911Z" fill="#247A64"/>
<path d="M30.9131 59.7984C30.9817 59.7751 31.0574 59.7798 31.1245 59.8111C31.1917 59.8424 31.2442 59.8983 31.2759 59.9641C31.3539 60.1267 31.4325 60.2885 31.5115 60.45C32.5136 62.4997 33.5877 64.4704 34.7375 66.3965C35.2183 67.2016 35.6495 68.0367 36.042 68.918C36.1159 69.084 36.1887 69.2518 36.26 69.4212C36.2909 69.4946 36.3044 69.577 36.2888 69.6565C36.2732 69.736 36.2304 69.8057 36.1677 69.8518C36.105 69.8979 36.0258 69.9178 35.9453 69.909C35.8647 69.9001 35.7902 69.8625 35.7292 69.8111C35.5869 69.6897 35.448 69.5649 35.3127 69.437C34.5948 68.7582 33.9775 67.9887 33.4766 67.1497C32.2775 65.1429 31.3844 62.9521 30.8467 60.6873C30.8042 60.5088 30.7641 60.33 30.7261 60.1507C30.7111 60.0792 30.7187 60.003 30.7529 59.9373C30.7871 59.8715 30.8444 59.8217 30.9131 59.7984Z" fill="#247A64"/>
<path d="M81.3071 22.0044C89.7242 27.5961 95.2705 37.1509 95.2705 48.0003C95.2705 55.9876 92.2639 63.2758 87.3157 68.7947C86.6795 67.3811 85.9174 66.0369 85.0427 64.7737C89.2918 59.4449 91.8313 52.6942 91.8313 45.355C91.8313 36.0631 87.7628 27.7201 81.3071 22.0044Z" fill="#247A64"/>
<path d="M85.2266 19.9361C85.3062 19.9183 85.3895 19.9302 85.4636 19.9607C85.6549 20.0405 85.844 20.1251 86.0305 20.2141C87.0204 20.6864 87.9399 21.2869 88.7649 21.9964C89.4913 22.621 90.1821 23.2869 90.8325 23.9888C91.9496 25.1941 92.9476 26.507 93.8059 27.8994C93.9128 28.0729 94.0178 28.2477 94.1203 28.4236C94.1572 28.4871 94.1733 28.5624 94.1606 28.6358C94.148 28.7091 94.1083 28.7741 94.0495 28.8174C93.9908 28.8606 93.9168 28.8792 93.843 28.8694C93.7692 28.8596 93.7022 28.8219 93.6526 28.7678C93.517 28.6201 93.3809 28.4731 93.2444 28.3269C92.1491 27.1543 91.0232 26.0316 89.865 24.9524C89.1903 24.3238 88.5048 23.7096 87.8074 23.1099C87.0152 22.4288 86.2556 21.7102 85.5102 20.9424C85.3698 20.7978 85.2297 20.6514 85.0901 20.5032C85.0351 20.4448 84.9941 20.3711 84.9824 20.2903C84.9707 20.2096 84.9883 20.1288 85.0329 20.064C85.0776 19.9992 85.1469 19.9539 85.2266 19.9361Z" fill="#247A64"/>
<path d="M51.7915 31.874C54.7044 27.8892 59.7046 25.5562 64.5859 25.8823C67.4209 26.0378 70.1846 27.0481 72.4299 28.7178C73.3795 29.4207 74.2398 30.2364 74.9878 31.1389C75.0345 31.1954 75.0589 31.2678 75.0542 31.3413C75.0495 31.4149 75.0161 31.4835 74.9614 31.5322C74.9068 31.5809 74.8348 31.606 74.7612 31.6023C74.6876 31.5985 74.6186 31.566 74.5679 31.5132C73.7866 30.6996 72.9144 29.9803 71.9753 29.373C69.7525 27.9308 67.1481 27.1402 64.5398 27.1008C60.0394 26.9899 55.6276 29.182 52.9961 32.7683C51.2601 35.0955 50.2987 37.981 50.293 40.8906C50.2352 45.3437 52.5241 49.7406 56.2175 52.2915C57.5201 53.0903 57.1985 55.3229 55.75 55.719C51.5186 57.1276 47.6633 59.6939 44.698 63.0803C43.9504 63.9326 43.2584 64.8356 42.6287 65.7822C42.5878 65.8436 42.5247 65.8874 42.4524 65.9033C42.3801 65.9192 42.3045 65.9062 42.2422 65.8667C42.1799 65.8272 42.1356 65.7644 42.1191 65.6921C42.1027 65.6199 42.1154 65.5441 42.1536 65.481C42.7549 64.4863 43.4252 63.5317 44.1582 62.6257C47.0641 59.0261 50.9786 56.2156 55.3687 54.626C55.9456 54.4438 56.0251 53.5925 55.5242 53.3083C51.4398 50.6316 48.8142 45.8186 48.8352 40.8906C48.8107 37.676 49.8651 34.4541 51.7915 31.874Z" fill="#11604D"/>
<path fill-rule="evenodd" clip-rule="evenodd" d="M64.0002 16.041C81.6828 16.0411 96.0198 30.3482 96.0198 48C96.0197 65.6517 81.6828 79.9587 64.0002 79.9587C46.3177 79.9587 31.9805 65.6518 31.9805 48C31.9805 30.3482 46.3177 16.041 64.0002 16.041ZM64.0002 17.541C47.1433 17.541 33.4805 31.1794 33.4805 48C33.4805 58.966 39.2879 68.579 48.0012 73.9426C51.8456 75.6282 56.0946 76.5635 60.5618 76.5635C70.2573 76.5635 78.9224 72.1597 84.6577 65.2456C83.3687 63.5514 81.9167 62.002 80.3257 60.6128C77.9542 58.5415 75.2292 56.8567 72.2595 55.74C70.8104 55.2936 70.5659 53.0939 71.8372 52.3557C72.4636 51.9471 73.0571 51.486 73.6084 50.9775C76.3679 48.4543 78.0379 44.7602 78.0847 40.9824C78.1094 39.6148 77.9324 38.2421 77.5576 36.9224C77.3617 36.2316 77.1122 35.5551 76.8125 34.9011C76.7818 34.8341 76.7791 34.7571 76.8044 34.6875C76.8299 34.6179 76.8814 34.5613 76.948 34.5298C77.0146 34.4983 77.0912 34.4945 77.1611 34.519C77.2311 34.5436 77.2887 34.5946 77.321 34.6609C77.6485 35.3335 77.9247 36.032 78.1455 36.7483C78.5678 38.1168 78.7858 39.5507 78.7915 40.9871C78.8302 44.9526 77.1623 48.912 74.2854 51.6912C73.7105 52.2512 73.0921 52.7676 72.436 53.2334C71.8958 53.5873 72.0731 54.4797 72.6528 54.6145C75.8125 55.638 78.795 57.2837 81.312 59.4829C83.5822 61.4621 85.4394 63.9121 86.718 66.6094C86.8982 66.9889 87.0667 67.3734 87.2241 67.7617C91.7731 62.4421 94.5198 55.5411 94.5198 48C94.5198 31.1794 80.8571 17.5411 64.0002 17.541Z" fill="#11604D"/>
</svg>
