<svg width="24" height="24" viewBox="0 0 24 24" fill="none" xmlns="http://www.w3.org/2000/svg">
<path fill-rule="evenodd" clip-rule="evenodd" d="M12.6199 2C13.3823 2.00002 14.1137 2.30289 14.6528 2.84204L19.158 7.34717C19.6971 7.88632 20 8.61766 20 9.38013V11.024C20 11.5009 19.5074 11.824 19.0465 11.7014C18.7377 11.6193 18.5 11.3492 18.5 11.0296V10H15.75C13.6789 10 12 8.32107 12 6.25V3.5H9C7.067 3.5 5.5 5.067 5.5 7V17C5.5 18.933 7.067 20.5 9 20.5H11.9543C12.1701 20.5 12.3682 20.6174 12.487 20.7976C12.7936 21.2627 12.4901 22 11.9331 22H9C6.23858 22 4 19.7614 4 17V7C4 4.23858 6.23858 2 9 2H12.6199ZM13.5 6.25C13.5 7.49264 14.5074 8.5 15.75 8.5H18.1809C18.1544 8.46825 18.1266 8.43743 18.0972 8.40796L13.592 3.90283C13.5625 3.87333 13.5318 3.84535 13.5 3.81885V6.25Z" fill="black" fill-opacity="0.84"/>
<path fill-rule="evenodd" clip-rule="evenodd" d="M21.9999 17.5C21.9999 15.0147 19.9852 13 17.4999 13C15.0146 13 12.9999 15.0147 12.9999 17.5C12.9999 19.9853 15.0146 22 17.4999 22C19.9852 22 21.9999 19.9853 21.9999 17.5ZM14.757 16.9798C14.5618 17.1751 14.5618 17.4917 14.757 17.6869L15.1106 18.0405C15.3059 18.2357 15.6224 18.2357 15.8177 18.0405L16.7498 17.1084L16.7498 19.75C16.7498 20.0261 16.9737 20.25 17.2498 20.25L17.7498 20.25C18.0259 20.25 18.2498 20.0261 18.2498 19.75L18.2498 17.1082L19.1859 18.0443C19.3812 18.2396 19.6978 18.2396 19.893 18.0443L20.2466 17.6908C20.4419 17.4955 20.4419 17.1789 20.2466 16.9837L18.2123 14.9493L18.207 14.944L17.8535 14.5905C17.7564 14.4934 17.6294 14.4446 17.5021 14.444C17.3734 14.4435 17.2445 14.4923 17.1463 14.5905L16.7927 14.944L16.7875 14.9493L14.757 16.9798Z" fill="black" fill-opacity="0.84"/>
</svg>
