<svg width="12" height="12" viewBox="0 0 12 12" fill="none" xmlns="http://www.w3.org/2000/svg">
<g clip-path="url(#clip0_11738_74750)">
<path fill-rule="evenodd" clip-rule="evenodd" d="M6 0C9.31371 0 12 2.68629 12 6C12 9.31371 9.31371 12 6 12C2.68629 12 0 9.31371 0 6C0 2.68629 2.68629 0 6 0ZM6.25 7.5C4.66619 7.5 3.26412 8.27548 2.40039 9.46875C3.30985 10.4123 4.586 11 6 11C7.55755 11 8.94824 10.2874 9.86523 9.1709C8.99334 8.14823 7.6978 7.5 6.25 7.5ZM6 1C3.23858 1 1 3.23858 1 6C1 6.97608 1.28007 7.88659 1.76367 8.65625C2.52427 7.70799 3.57824 7.00368 4.79004 6.68652C4.02116 6.26014 3.5 5.44149 3.5 4.5C3.5 3.11929 4.61929 2 6 2C7.38071 2 8.5 3.11929 8.5 4.5C8.5 5.38532 8.03797 6.1603 7.34375 6.60449C8.5515 6.83718 9.62416 7.44779 10.4346 8.30762C10.7947 7.61702 11 6.83274 11 6C11 3.23858 8.76142 1 6 1ZM6 3C5.17157 3 4.5 3.67157 4.5 4.5C4.5 5.32843 5.17157 6 6 6C6.82843 6 7.5 5.32843 7.5 4.5C7.5 3.67157 6.82843 3 6 3Z" fill="black"/>
</g>
<defs>
<clipPath id="clip0_11738_74750">
<rect width="12" height="12" fill="white"/>
</clipPath>
</defs>
</svg>
