<svg width="12" height="12" viewBox="0 0 12 12" fill="none" xmlns="http://www.w3.org/2000/svg">
<g clip-path="url(#clip0_324_80)">
<path fill-rule="evenodd" clip-rule="evenodd" d="M9 2C10.6569 2 12 3.34315 12 5V10.2266C12 11.6398 10.4219 12.4807 9.24902 11.6924L8.42676 11.1396C8.16856 10.9662 7.83144 10.9662 7.57324 11.1396L6.75098 11.6924C5.61467 12.4561 4.0984 11.6909 4.00488 10.3574L4 10.2266V5C4 3.34315 5.34315 2 7 2H9ZM7 3C5.89543 3 5 3.89543 5 5V10.2266L5.00781 10.3389C5.0849 10.8824 5.71563 11.1825 6.19238 10.8623L7.01465 10.3096C7.61025 9.90924 8.38975 9.90924 8.98535 10.3096L9.80762 10.8623C10.3162 11.2039 11 10.8393 11 10.2266V5C11 3.89543 10.1046 3 9 3H7Z" fill="black" fill-opacity="0.84"/>
<path d="M5 0C5.44237 8.60077e-09 5.86185 0.096075 6.23926 0.268555C6.71589 0.486472 6.52003 1.0892 6 1.1543C5.8819 1.16903 5.76289 1.14826 5.65039 1.10938C5.44662 1.03886 5.22774 1 5 1H3C1.89543 1 1 1.89543 1 3V8.22656L1.00781 8.33887C1.0849 8.88243 1.71563 9.1825 2.19238 8.8623L2.2207 8.84375C2.55301 8.62034 3 8.85837 3 9.25879C2.99988 9.42495 2.91706 9.57992 2.7793 9.67285L2.75098 9.69238C1.61467 10.4561 0.0983974 9.69092 0.00488281 8.35742L0 8.22656V3C0 1.34315 1.34315 3.22127e-08 3 0H5Z" fill="black" fill-opacity="0.84"/>
</g>
<defs>
<clipPath id="clip0_324_80">
<rect width="12" height="12" fill="white"/>
</clipPath>
</defs>
</svg>
