<svg width="24" height="24" viewBox="0 0 24 24" fill="none" xmlns="http://www.w3.org/2000/svg">
<path d="M19.7205 3.21869C20.0134 2.9258 20.4891 2.9258 20.782 3.21869C21.0746 3.51151 21.0746 3.9864 20.782 4.27924L4.27716 20.7831C3.98426 21.076 3.5095 21.076 3.21661 20.7831C2.92398 20.4902 2.9238 20.0154 3.21661 19.7226L19.7205 3.21869ZM18.1746 9.00385C18.6252 9.69415 18.5494 10.6406 17.9461 11.2441L15.1248 14.0644L20.7801 19.7197C21.0728 20.0126 21.0729 20.4874 20.7801 20.7802C20.4873 21.073 20.0124 21.0729 19.7195 20.7802L14.0643 15.1249L11.244 17.9462C10.6435 18.5467 9.69826 18.6273 9.0047 18.1738L18.1746 9.00385ZM8.72149 3.55365C9.51303 2.76245 10.8515 2.90516 11.4656 3.82319C11.6817 4.14657 11.745 4.48694 11.7645 4.75776C11.7811 4.99002 11.7665 5.29747 11.7664 5.41987C11.7667 5.87697 11.9976 6.3817 12.4031 6.7851C12.7146 7.09468 13.0848 7.29877 13.4422 7.37787L12.283 8.53705C11.9344 8.35522 11.6167 8.11814 11.3455 7.84858C10.7226 7.22898 10.2669 6.36064 10.2664 5.42084V5.41987C10.2664 5.31256 10.2708 5.18624 10.2723 5.10346C10.274 5.00814 10.2731 4.93188 10.2684 4.86518C10.2589 4.73358 10.2352 4.68216 10.2186 4.65717C10.1775 4.59582 10.1038 4.54955 10.0096 4.53998C9.91627 4.5307 9.83573 4.56056 9.78204 4.6142L4.61407 9.78217C4.5604 9.83588 4.53053 9.91635 4.53985 10.0097C4.54942 10.1039 4.59565 10.1776 4.65704 10.2187C4.68204 10.2353 4.73344 10.259 4.86505 10.2685C4.93175 10.2733 5.008 10.2741 5.10333 10.2724C5.18611 10.2709 5.31242 10.2666 5.41974 10.2665H5.42071C6.36044 10.2671 7.22883 10.7218 7.84845 11.3447C8.1182 11.6159 8.35507 11.9342 8.53692 12.2831L7.37774 13.4423C7.29877 13.0846 7.09484 12.7139 6.78497 12.4023C6.38158 11.9968 5.87678 11.7668 5.41974 11.7665C5.29733 11.7666 4.98988 11.7812 4.75763 11.7646C4.48681 11.7451 4.14644 11.6818 3.82306 11.4658C2.90496 10.8517 2.76224 9.51318 3.55352 8.72162L8.72149 3.55365Z" fill="black" fill-opacity="0.84"/>
</svg>
