<svg width="16" height="16" viewBox="0 0 16 16" fill="none" xmlns="http://www.w3.org/2000/svg">
<g clip-path="url(#clip0_13193_106782)">
<path fill-rule="evenodd" clip-rule="evenodd" d="M8 15C11.866 15 15 11.866 15 8C15 4.13401 11.866 1 8 1C4.13401 1 1 4.13401 1 8C1 11.866 4.13401 15 8 15Z" fill="#006B4B"/>
<path fill-rule="evenodd" clip-rule="evenodd" d="M8 15C11.866 15 15 11.866 15 8C15 4.13401 11.866 1 8 1C4.13401 1 1 4.13401 1 8C1 11.866 4.13401 15 8 15Z" fill="#269B61"/>
<path opacity="0.7" d="M7.41999 0.035975C8.11719 -0.0159077 8.81819 0.0238261 9.50506 0.154161L8.01367 8.01392L7.41999 0.035975Z" fill="#81D59E"/>
<path opacity="0.8" d="M9.50506 0.15416C10.1919 0.284495 10.8588 0.504306 11.4885 0.807976L8.01367 8.01392L9.50506 0.15416Z" fill="#81D59E"/>
<path opacity="0.2" d="M15.1674 4.43251C15.4804 5.05768 15.71 5.72118 15.8505 6.40605L8.01367 8.01355L15.1674 4.43251Z" fill="#006B4B"/>
<path opacity="0.4" d="M13.9964 2.70255C14.4606 3.22539 14.8542 3.80681 15.1672 4.43197L8.01367 8.01355L13.9964 2.70255Z" fill="#006B4B"/>
<path opacity="0.9" d="M11.4885 0.807609C12.1182 1.11128 12.7054 1.49619 13.2351 1.9525L8.01367 8.01355L11.4885 0.807609Z" fill="#81D59E"/>
<path opacity="0.4" d="M1.95262 2.79221C2.40893 2.26253 2.9327 1.79495 3.51056 1.40141L8.01367 8.01367L1.95262 2.79221Z" fill="#81D59E"/>
<path opacity="0.5" d="M3.51056 1.40141C4.08841 1.00788 4.71536 0.691793 5.37538 0.461229L8.01367 8.01367L3.51056 1.40141Z" fill="#81D59E"/>
<path opacity="0.6" d="M5.37538 0.461107C6.03539 0.230543 6.72279 0.0874912 7.41999 0.0356085L8.01367 8.01355L5.37538 0.461107Z" fill="#81D59E"/>
<path opacity="0.1" d="M0.0357313 8.60735C-0.0161514 7.91015 0.0235822 7.20916 0.153917 6.52228L8.01367 8.01367L0.0357313 8.60735Z" fill="#81D59E"/>
<path opacity="0.2" d="M0.153916 6.52228C0.284251 5.83541 0.504062 5.16858 0.807731 4.53884L8.01367 8.01367L0.153916 6.52228Z" fill="#81D59E"/>
<path opacity="0.3" d="M0.807732 4.53885C1.1114 3.90911 1.49631 3.3219 1.95262 2.79221L8.01367 8.01367L0.807732 4.53885Z" fill="#81D59E"/>
<path d="M13.5034 3.20269L8.5874 8.11874C8.53201 8.39278 8.29002 8.59937 7.99965 8.59937C7.66847 8.59927 7.40005 8.33061 7.39999 7.99943C7.39999 7.70887 7.60646 7.4659 7.88076 7.41072L12.7964 2.4957L13.5034 3.20269Z" fill="white"/>
<path d="M8 0C12.4183 0 16 3.58172 16 8C16 12.4183 12.4183 16 8 16C3.58172 16 0 12.4183 0 8C4.02687e-08 3.58172 3.58172 4.02661e-08 8 0ZM8 1C4.13401 1 1 4.13401 1 8C1 11.866 4.13401 15 8 15C11.866 15 15 11.866 15 8C15 4.13401 11.866 1 8 1Z" fill="#006B4B"/>
<path d="M8.9 3.00005C8.9 3.38665 8.5866 3.70005 8.2 3.70005C7.8134 3.70005 7.5 3.38665 7.5 3.00005C7.5 2.61345 7.8134 2.30005 8.2 2.30005C8.5866 2.30005 8.9 2.61345 8.9 3.00005Z" fill="white"/>
<path opacity="0.4" d="M7.6998 13C7.6998 13.3866 7.3864 13.7 6.9998 13.7C6.61321 13.7 6.2998 13.3866 6.2998 13C6.2998 12.6134 6.61321 12.3 6.9998 12.3C7.3864 12.3 7.6998 12.6134 7.6998 13Z" fill="#81D59E"/>
<path d="M6.5001 3.79998C6.5001 4.18657 6.1867 4.49998 5.8001 4.49998C5.4135 4.49998 5.1001 4.18657 5.1001 3.79998C5.1001 3.41338 5.4135 3.09998 5.8001 3.09998C6.1867 3.09998 6.5001 3.41338 6.5001 3.79998Z" fill="white"/>
<path opacity="0.9" d="M5.2999 7.00005C5.2999 7.38665 4.9865 7.70005 4.5999 7.70005C4.2133 7.70005 3.8999 7.38665 3.8999 7.00005C3.8999 6.61345 4.2133 6.30005 4.5999 6.30005C4.9865 6.30005 5.2999 6.61345 5.2999 7.00005Z" fill="#81D59E"/>
<path opacity="0.7" d="M3.6998 8.60002C3.6998 8.98662 3.3864 9.30002 2.9998 9.30002C2.61321 9.30002 2.2998 8.98662 2.2998 8.60002C2.2998 8.21343 2.61321 7.90002 2.9998 7.90002C3.3864 7.90002 3.6998 8.21343 3.6998 8.60002Z" fill="#81D59E"/>
<path opacity="0.3" d="M5.6998 11C5.6998 11.3866 5.3864 11.7 4.9998 11.7C4.61321 11.7 4.2998 11.3866 4.2998 11C4.2998 10.6134 4.61321 10.3 4.9998 10.3C5.3864 10.3 5.6998 10.6134 5.6998 11Z" fill="#81D59E"/>
</g>
<defs>
<clipPath id="clip0_13193_106782">
<rect width="16" height="16" fill="white"/>
</clipPath>
</defs>
</svg>
