<svg width="128" height="96" viewBox="0 0 128 96" fill="none" xmlns="http://www.w3.org/2000/svg">
<path d="M61.6159 21.0468C79.6514 20.095 95.3711 31.9222 96.727 47.4638C97.2387 53.3305 95.6301 58.8877 92.4594 63.5844C91.956 64.3301 91.8713 65.2996 92.2909 66.1371L95.7506 73.0417C96.246 74.0306 95.4252 75.1023 94.3373 74.8869L83.661 72.7724C83.0562 72.6526 82.4406 72.7557 81.9179 73.0424C77.4527 75.4919 72.2134 77.0281 66.525 77.3283C62.8807 77.5206 59.3309 77.1909 55.975 76.4145C57.6697 74.0223 58.6659 71.1002 58.6659 67.9455C58.6659 59.8454 52.0993 53.279 43.9992 53.279C39.6925 53.279 35.8193 55.1352 33.1361 58.0912C32.2234 55.8193 31.6323 53.4134 31.414 50.9111C30.0583 35.3694 43.5802 21.9987 61.6159 21.0468Z" fill="#C19EDB"/>
<path d="M61.5387 20.3043C79.8926 19.3356 96.0808 31.3852 97.4811 47.4366C98.0085 53.4822 96.3489 59.1985 93.0966 64.0162C92.7261 64.5651 92.6775 65.2575 92.9672 65.8355L96.4267 72.7401C97.1865 74.2569 95.9592 75.8989 94.3036 75.6297L94.2245 75.6153L83.548 73.5008C83.1292 73.4179 82.6916 73.4873 82.3114 73.6959C77.7506 76.1978 72.4039 77.7645 66.6036 78.0706C62.768 78.2731 59.027 77.9065 55.4957 77.054C55.8238 76.6406 56.1301 76.209 56.4127 75.7611C59.606 76.4708 62.9798 76.7686 66.4481 76.5855C72.0245 76.2912 77.1561 74.7857 81.5255 72.3888C82.1907 72.0239 82.9847 71.8867 83.7755 72.0433L94.452 74.158C94.9323 74.253 95.2946 73.7796 95.0758 73.3429L91.6163 66.4386C91.0668 65.3416 91.1874 64.0943 91.8236 63.1519C94.9126 58.5762 96.4702 53.1783 95.974 47.4906C94.6627 32.4587 79.4115 20.8541 61.6942 21.7892C43.972 22.7245 30.8557 35.8373 32.1681 50.8839C32.3684 53.1801 32.8945 55.3961 33.7045 57.4998C33.3116 57.8871 32.9403 58.2964 32.5929 58.7257C31.5638 56.2746 30.8991 53.664 30.6613 50.9378C29.2624 34.9011 43.1898 21.2728 61.5387 20.3043Z" fill="#682A7A"/>
<path d="M61.0426 35.3282C61.6908 35.1673 62.3971 35.4656 62.7252 36.0426C63.6508 37.7036 64.3553 39.3994 65.3324 40.8951C65.9546 41.8446 66.6972 42.7179 67.6461 43.2396C67.7428 43.2925 67.8151 43.3828 67.8475 43.4893C67.88 43.5959 67.87 43.7099 67.8192 43.8077C67.7685 43.9055 67.6809 43.9794 67.5751 44.0142C67.4693 44.0489 67.3539 44.0418 67.255 43.9933C66.0926 43.4168 65.2146 42.4614 64.4909 41.4806C63.3601 39.9351 62.5377 38.2425 61.5766 36.7288C61.539 36.6778 61.4429 36.6542 61.391 36.6812C61.3389 36.7099 61.3584 36.7237 61.3654 36.7313C61.5407 39.5256 62.7259 42.6083 61.0812 45.8683C61.0765 45.8762 61.0718 45.8842 61.067 45.8922C59.231 48.4904 56.5055 48.9557 54.3866 50.0086C56.8371 49.8994 59.5442 48.9854 62.4891 50.2992C65.5508 52.0941 66.5194 55.1869 67.9498 57.5977C67.7802 54.9079 66.8309 51.9232 68.4276 48.8045C68.4311 48.7988 68.4347 48.793 68.4381 48.7872C70.3993 46.0405 73.3229 45.7894 75.526 44.6729C75.5355 44.6734 75.5364 44.6824 75.547 44.6739C75.5564 44.6658 75.5666 44.6405 75.5609 44.6038C75.5572 44.5793 75.5477 44.5536 75.5324 44.5304C75.5245 44.5184 75.5151 44.5072 75.505 44.4974C75.4738 44.4675 75.4424 44.4485 75.4052 44.4388C74.5108 44.416 73.5695 44.4232 72.6256 44.4449C72.528 44.4471 72.4299 44.4081 72.3539 44.3412C72.2779 44.2739 72.2297 44.184 72.2199 44.087C72.21 43.99 72.239 43.8923 72.2999 43.8111C72.3609 43.7302 72.449 43.6722 72.5451 43.6546C73.4643 43.4886 74.3841 43.2578 75.3622 43.1681C75.6948 43.1447 76.0344 43.2482 76.298 43.4408C76.386 43.5045 76.4671 43.5774 76.5394 43.658C76.6793 43.8138 76.7875 43.9995 76.8541 44.2013C77.073 44.7907 76.8159 45.6162 76.1764 45.9381C73.8297 47.2257 71.0628 47.9964 69.9689 49.7074C69.9667 49.7111 69.9645 49.7149 69.9623 49.7186C68.7859 51.8201 69.5694 54.9021 69.7474 57.8795C69.815 58.6539 69.211 59.4077 68.5043 59.5641C67.7762 59.7556 66.9684 59.4329 66.5817 58.7725C65.0182 56.1231 63.913 53.0966 61.673 51.8631C59.7038 50.8926 56.9061 51.6556 54.1215 51.7645C53.3474 51.7942 52.6614 51.2642 52.4496 50.5643C52.2161 49.9003 52.5252 48.985 53.2355 48.6451C55.658 47.4205 58.4589 46.757 59.5892 45.0084C59.5924 45.0032 59.5954 44.998 59.5985 44.9928C60.7752 42.8817 60.029 39.782 59.9164 36.8226C59.8626 36.1236 60.4114 35.4587 61.0426 35.3282Z" fill="#682A7A"/>
<path d="M92.1336 17.5571C92.2356 17.5337 92.3453 17.5374 92.4434 17.5786C92.5414 17.6197 92.6196 17.6939 92.6619 17.7875C92.7041 17.8813 92.7077 17.989 92.6736 18.0898C92.6395 18.1906 92.5697 18.2752 92.4847 18.3361C92.4004 18.3963 92.3156 18.4556 92.2305 18.5139C91.4644 19.0388 90.6645 19.4892 89.8311 19.8649C88.9977 20.2407 88.1249 20.5293 87.2129 20.7307C87.1116 20.753 87.0096 20.7742 86.9073 20.7944C86.8177 20.8119 86.7223 20.8076 86.637 20.7712C86.5517 20.7348 86.4839 20.6705 86.4473 20.5893C86.4107 20.508 86.4073 20.4146 86.4366 20.3266C86.4658 20.2386 86.5258 20.1641 86.5982 20.1086C86.6811 20.0453 86.7643 19.9829 86.8482 19.9218C87.603 19.3717 88.3973 18.9089 89.2307 18.5331C90.0642 18.1574 90.9314 17.8563 91.8321 17.6298C91.9321 17.6047 92.0327 17.5804 92.1336 17.5571Z" fill="#7D4794"/>
<path d="M83.9868 10.1557C84.0846 10.1166 84.1908 10.1139 84.2854 10.1498C84.3801 10.1859 84.4577 10.2585 84.5047 10.3527C84.5517 10.447 84.5631 10.5547 84.5493 10.6574C84.5372 10.7461 84.5243 10.8346 84.5103 10.9226C84.3843 11.7142 84.1816 12.4767 83.9026 13.2102C83.6236 13.9436 83.2554 14.6433 82.7976 15.3088C82.7468 15.3827 82.6949 15.4562 82.6419 15.5292C82.5886 15.6022 82.5175 15.665 82.4322 15.6984C82.3469 15.7319 82.2552 15.7337 82.1734 15.7026C82.0915 15.6715 82.0242 15.6092 81.9827 15.5275C81.9412 15.4458 81.9298 15.3518 81.9385 15.2619C81.9474 15.1721 81.9574 15.0826 81.9685 14.9936C82.0688 14.1921 82.2584 13.4244 82.5374 12.6909C82.8164 11.9574 83.1721 11.2529 83.604 10.5776C83.652 10.5026 83.7009 10.428 83.7508 10.3537C83.8087 10.2678 83.889 10.1948 83.9868 10.1557Z" fill="#7D4794"/>
<path d="M72.7505 10.3784C72.8379 10.3307 72.9416 10.3187 73.0428 10.3432C73.144 10.3677 73.2333 10.4274 73.3045 10.5014C73.3582 10.5576 73.4112 10.6144 73.4632 10.6716C73.931 11.1864 74.3272 11.7404 74.6514 12.3337C74.9756 12.927 75.2159 13.5664 75.3723 14.2514C75.3897 14.3275 75.4061 14.4044 75.4214 14.4816C75.4385 14.5695 75.4385 14.6628 75.4082 14.748C75.378 14.8332 75.3208 14.9028 75.2454 14.944C75.17 14.9852 75.0805 14.9957 74.9925 14.975C74.9044 14.9545 74.8259 14.904 74.7613 14.8422C74.7046 14.7877 74.6487 14.7324 74.594 14.6767C74.102 14.1751 73.6936 13.6277 73.3694 13.0344C73.0452 12.441 72.7927 11.8082 72.6121 11.1364C72.592 11.0618 72.573 10.9866 72.5547 10.9111C72.5309 10.8113 72.529 10.7041 72.563 10.6057C72.597 10.5072 72.6631 10.4261 72.7505 10.3784Z" fill="#7D4794"/>
<path d="M44 80C50.6274 80 56 74.6274 56 68C56 61.3726 50.6274 56 44 56C37.3726 56 32 61.3726 32 68C32 74.6274 37.3726 80 44 80Z" fill="black"/>
<path fill-rule="evenodd" clip-rule="evenodd" d="M43.9992 61.5889C44.474 61.5901 44.9452 61.771 45.2831 62.1152C45.8361 62.6787 46.3157 62.9714 46.797 63.1206C47.2802 63.2704 47.8655 63.3066 48.6898 63.2017C49.1585 63.142 49.6452 63.26 50.0265 63.5464C50.4112 63.8354 50.6619 64.28 50.6661 64.7781C50.6929 67.9117 50.2365 69.9668 49.2396 71.4575C48.1863 73.0327 46.4963 73.8864 45.045 74.6196C44.9761 74.6545 44.907 74.6895 44.8392 74.7239C44.3175 74.9884 43.6837 74.9884 43.162 74.7239C43.0938 74.6893 43.025 74.6544 42.9557 74.6194C41.5045 73.8862 39.8152 73.0326 38.7618 71.4575C37.765 69.9668 37.3084 67.9118 37.3351 64.7783C37.3393 64.2807 37.5895 63.8365 37.9738 63.5474C38.3546 63.2609 38.8408 63.1426 39.3092 63.2017C40.1382 63.3062 40.7253 63.2636 41.2086 63.1091C41.6891 62.9556 42.1645 62.6604 42.7123 62.1086C43.052 61.7664 43.5242 61.5877 43.9992 61.5889ZM44.0709 64.7993C43.5186 64.7993 43.0709 65.247 43.0709 65.7993V67.1853H41.6852C41.1329 67.1853 40.6852 67.6331 40.6852 68.1853C40.6852 68.7376 41.1329 69.1853 41.6852 69.1853H43.0709V70.5713C43.071 71.1236 43.5187 71.5713 44.0709 71.5713C44.6231 71.5712 45.0709 71.1235 45.0709 70.5713V69.1853H46.3168C46.869 69.1852 47.3168 68.7376 47.3168 68.1853C47.3167 67.6331 46.869 67.1854 46.3168 67.1853H45.0709V65.7993C45.0709 65.2471 44.6232 64.7994 44.0709 64.7993Z" fill="white"/>
</svg>
