<svg width="128" height="96" viewBox="0 0 128 96" fill="none" xmlns="http://www.w3.org/2000/svg">
<path d="M67.1546 19.6198C70.869 15.4927 77.652 16.8859 79.4389 22.1429L95.0164 67.9717C96.8054 73.235 92.264 78.4767 86.7995 77.4555L38.2109 68.3758C32.6094 67.329 30.3143 60.5539 34.1263 56.3183L67.1546 19.6198Z" fill="#FAB341"/>
<path d="M67.3299 19.0978C70.8717 15.0751 77.4893 16.8667 78.5178 22.1268L85.5463 58.0703C86.808 64.5225 81.6195 70.4211 75.0591 69.9929L39.0226 67.6409C33.4512 67.2772 30.7233 60.6757 34.4128 56.4852L67.3299 19.0978Z" fill="#FFD885"/>
<path d="M63.4373 59.1744C65.3607 58.6525 66.951 59.5802 67.7601 61.3939C64.7002 59.0171 60.9632 63.7616 60.9434 63.7867C60.2263 61.8213 61.3428 59.7563 63.4373 59.1744Z" fill="#F5A031"/>
<path d="M63.7056 39.6734C63.3459 43.8375 62.99 48.0003 62.5796 52.1803C62.5796 52.1803 62.4139 45.6705 63.7056 39.6734Z" fill="#F5A031"/>
<path d="M64.6885 28.8238C65.1828 25.9591 67.4303 25.23 69.5628 25.5448C73.3038 25.191 73.5649 27.9775 73.126 30.097C67.6042 28.4786 64.9636 33.8329 63.7056 39.6734C64.0176 36.0618 64.3326 32.4492 64.6885 28.8238Z" fill="#F5A031"/>
<path d="M39.9983 27.5658C41.7117 27.5371 43.4093 27.6324 45.0911 27.8512C46.773 28.07 48.4394 28.4125 50.0896 28.8787C50.2729 28.9305 50.4563 28.9838 50.6392 29.0387C50.7067 29.059 50.769 29.0987 50.8113 29.1553C50.8536 29.212 50.8728 29.2804 50.8643 29.3475C50.8557 29.4146 50.8198 29.4761 50.7647 29.5201C50.7095 29.5641 50.6393 29.5863 50.5689 29.5887C50.3782 29.5949 50.1876 29.5997 49.9974 29.6029C48.2839 29.6315 46.5859 29.5363 44.9041 29.3175C43.2223 29.0986 41.556 28.7561 39.9058 28.2899C39.7225 28.2381 39.5392 28.1848 39.3562 28.13C39.2888 28.1096 39.2265 28.0702 39.1841 28.0135C39.1418 27.9569 39.1229 27.8882 39.1314 27.8211C39.14 27.754 39.1759 27.6925 39.231 27.6485C39.2862 27.6046 39.3562 27.5823 39.4266 27.5799C39.6173 27.5737 39.808 27.5689 39.9983 27.5658Z" fill="#F5A031"/>
<path d="M47.4349 16.3512C47.5057 16.3528 47.5732 16.3806 47.6277 16.4237C47.7752 16.5405 47.9216 16.6585 48.0667 16.7774C49.373 17.8476 50.585 19.002 51.7022 20.2408C52.8195 21.4797 53.8422 22.8032 54.7703 24.2108C54.8734 24.3671 54.9755 24.5245 55.0762 24.6829C55.1133 24.7415 55.1338 24.8114 55.1277 24.8817C55.1217 24.9518 55.0901 25.0164 55.0389 25.0621C54.9876 25.1077 54.9197 25.1321 54.8489 25.1304C54.7781 25.1288 54.7103 25.101 54.6558 25.0579C54.5084 24.9411 54.362 24.8231 54.2168 24.7042C52.9105 23.634 51.6986 22.4796 50.5813 21.2408C49.4641 20.0019 48.4414 18.6784 47.5132 17.2708C47.4101 17.1145 47.3081 16.9569 47.2073 16.7984C47.1703 16.7399 47.1498 16.6701 47.1558 16.5999C47.1619 16.5298 47.1935 16.465 47.2447 16.4193C47.2959 16.3736 47.3641 16.3495 47.4349 16.3512Z" fill="#F5A031"/>
<path fill-rule="evenodd" clip-rule="evenodd" d="M59.4343 61.6091C59.6732 59.2715 61.7751 57.4974 64.1577 57.729C66.6187 57.9683 68.2526 60.0373 67.999 62.5207C67.8648 63.8341 67.3415 64.9002 66.5017 65.6172C65.6632 66.3329 64.5765 66.6431 63.424 66.5705C60.8828 66.4105 59.1838 64.0614 59.4343 61.6091ZM64.0122 59.2217C63.6957 59.1909 63.3861 59.2158 63.0923 59.2868C62.1963 59.6234 61.5104 60.2449 61.1132 61.0051C61.0183 61.2429 60.9538 61.4964 60.9267 61.7614C60.8639 62.3767 60.9759 62.9622 61.217 63.4655C61.9586 62.6315 64.0992 60.4816 66.2531 60.7514C65.8546 59.9 65.0449 59.3221 64.0122 59.2217Z" fill="#B66A1F"/>
<path fill-rule="evenodd" clip-rule="evenodd" d="M66.2194 25.0859C67.2583 24.1708 68.606 23.8833 70.1176 24.1064C71.7619 24.3491 72.8986 25.2015 73.5127 26.4177C74.1086 27.5982 74.1714 29.0366 73.8835 30.4319C72.3125 38.0464 70.542 45.5752 68.7151 53.1206C68.5245 54.0021 67.9368 54.7165 67.2302 55.1745C66.5165 55.6371 65.617 55.8821 64.7331 55.7517C62.9979 55.4955 61.672 53.8657 61.8325 52.124C62.4222 44.3015 63.0093 37.7726 64.3237 29.1535C64.5939 27.3816 65.2028 25.9816 66.2194 25.0859ZM69.8984 25.5901C68.708 25.4144 67.8401 25.6571 67.2111 26.2112C66.56 26.7849 66.0487 27.7938 65.8069 29.3794C65.4828 31.5044 65.2032 33.5016 64.957 35.4226C66.406 31.7778 68.7295 29.1917 72.4516 29.9306C72.6464 28.829 72.5479 27.836 72.1731 27.0935C71.7939 26.3425 71.0941 25.7665 69.8984 25.5901Z" fill="#B66A1F"/>
<path fill-rule="evenodd" clip-rule="evenodd" d="M64.8401 20.2883C69.8029 13.9831 78.42 15.3622 80.5608 21.8064L95.3591 66.3528C97.5009 72.8002 91.9354 79.1795 85.257 77.9319L85.2563 77.9316L39.2631 69.2878L39.261 69.2873C32.4451 67.9848 29.6377 59.759 34.2351 54.5613L34.2375 54.5586L64.8401 20.2883ZM79.1374 22.279C77.4388 17.166 70.3624 15.6741 66.0046 21.2339C65.9947 21.2465 65.9843 21.2588 65.9736 21.2707L35.3584 55.5549L35.3586 55.5551C31.5321 59.8814 33.8677 66.7276 39.5398 67.8134L85.5324 76.4572C91.0877 77.4951 95.7171 72.1888 93.9355 66.8257L79.1374 22.279Z" fill="#B66A1F"/>
</svg>
