<svg width="24" height="24" viewBox="0 0 24 24" fill="none" xmlns="http://www.w3.org/2000/svg">
<path d="M11.2649 3.57399C11.4562 2.80867 12.5438 2.80867 12.7351 3.57399L13.6117 7.08015C14.0189 8.70914 15.2909 9.98106 16.9199 10.3883L20.426 11.2649C21.1913 11.4562 21.1913 12.5438 20.426 12.7351L16.9199 13.6117C15.2909 14.0189 14.0189 15.2909 13.6117 16.9199L12.7351 20.426C12.5438 21.1913 11.4562 21.1913 11.2649 20.426L10.3883 16.9199C9.98106 15.2909 8.70914 14.0189 7.08014 13.6117L3.57399 12.7351C2.80867 12.5438 2.80867 11.4562 3.57399 11.2649L7.08015 10.3883C8.70914 9.98106 9.98106 8.70914 10.3883 7.08014L11.2649 3.57399Z" fill="#4397E0"/>
<path fill-rule="evenodd" clip-rule="evenodd" d="M10.5371 3.39152C10.9181 1.8693 13.0819 1.86931 13.4629 3.39152L14.3389 6.89836C14.679 8.25853 15.7414 9.32096 17.1016 9.66106L20.6084 10.537C22.1306 10.918 22.1306 13.0819 20.6084 13.4628L17.1016 14.3388C15.7414 14.6789 14.679 15.7413 14.3389 17.1015L13.4629 20.6083C13.0819 22.1304 10.9181 22.1304 10.5371 20.6083L9.66114 17.1015C9.32105 15.7413 8.25866 14.6789 6.89844 14.3388L3.39161 13.4628C1.86945 13.0818 1.86948 10.918 3.39161 10.537L6.89844 9.66106C8.25863 9.32098 9.32103 8.25853 9.66114 6.89836L10.5371 3.39152ZM11.9922 3.75578L11.1162 7.26164C10.6418 9.15931 9.1594 10.6417 7.26172 11.1161L3.75586 11.9921C3.75374 11.9926 3.7516 11.9926 3.75 11.9931V12.0058C3.75167 12.0063 3.75361 12.0072 3.75586 12.0077L7.26172 12.8837C9.15943 13.3581 10.6418 14.8405 11.1162 16.7382L11.9922 20.2441C11.9926 20.2458 11.9928 20.2476 11.9932 20.2489C11.9952 20.2492 11.9974 20.2499 12 20.2499C12.0022 20.2499 12.0041 20.2492 12.0059 20.2489C12.0063 20.2475 12.0073 20.2459 12.0078 20.2441L12.8838 16.7382C13.3582 14.8405 14.8406 13.3582 16.7383 12.8837L20.2441 12.0077C20.246 12.0073 20.2476 12.0062 20.249 12.0058C20.2492 12.004 20.25 12.0021 20.25 11.9999C20.25 11.9974 20.2493 11.9951 20.249 11.9931C20.2476 11.9927 20.2459 11.9925 20.2441 11.9921L16.7383 11.1161C14.8406 10.6417 13.3582 9.15931 12.8838 7.26164L12.0078 3.75578C12.0073 3.75354 12.0064 3.75158 12.0059 3.74992H11.9932C11.9927 3.75152 11.9927 3.75367 11.9922 3.75578ZM19.2549 1.69133C19.3187 1.43622 19.6813 1.43622 19.7451 1.69133L20.0371 2.86027C20.1729 3.40302 20.5969 3.82701 21.1397 3.96281L22.3086 4.25481C22.5637 4.31858 22.5637 4.68126 22.3086 4.74504L21.1397 5.03703C20.5969 5.17286 20.1729 5.59677 20.0371 6.13957L19.7451 7.30852C19.6813 7.56362 19.3187 7.56362 19.2549 7.30852L18.9629 6.13957C18.8271 5.59674 18.4032 5.17282 17.8604 5.03703L16.6914 4.74504C16.4363 4.68126 16.4363 4.31858 16.6914 4.25481L17.8604 3.96281C18.4032 3.82704 18.8271 3.40305 18.9629 2.86027L19.2549 1.69133Z" fill="#045EB2"/>
<path d="M12 3.68457C12.1133 3.68461 12.2226 3.73045 12.3057 3.81055C12.3887 3.89066 12.4376 3.99906 12.4492 4.1123C12.4709 4.33832 12.4878 4.55168 12.498 4.7793C12.5954 6.74877 12.1951 9.03226 10.5781 10.625C8.96289 12.2187 6.6878 12.593 4.7207 12.4863C4.49321 12.4748 4.28006 12.4564 4.05469 12.4336C3.94596 12.4219 3.84153 12.3749 3.76465 12.2949C3.68784 12.2151 3.64453 12.1097 3.64453 12.001C3.64464 11.8925 3.68799 11.7878 3.76465 11.708C3.84153 11.6281 3.94597 11.581 4.05469 11.5693C4.26894 11.5464 4.46937 11.5203 4.68066 11.4912C6.53427 11.2337 8.31358 10.6946 9.48828 9.51953C10.6786 8.36151 11.2264 6.58771 11.4756 4.7373C11.5039 4.52654 11.5289 4.32652 11.5508 4.1123C11.5624 3.999 11.6112 3.89067 11.6943 3.81055C11.7774 3.73041 11.8867 3.68457 12 3.68457Z" fill="#A1D0F7"/>
</svg>
