<svg width="16" height="16" viewBox="0 0 16 16" fill="none" xmlns="http://www.w3.org/2000/svg">
<path d="M12.1035 1.12598C14.2648 1.18087 16 2.95047 16 5.125V11L15.999 11.1035C15.9441 13.2648 14.1745 15 12 15H4C1.82547 15 0.0558748 13.2648 0.000976562 11.1035L0 11V5.125C5.23493e-08 2.91586 1.79086 1.125 4 1.125H12L12.1035 1.12598ZM4 2.375C2.48122 2.375 1.25 3.60622 1.25 5.125V11C1.25 12.5188 2.48122 13.75 4 13.75H12C13.5188 13.75 14.75 12.5188 14.75 11V5.125C14.75 3.60622 13.5188 2.375 12 2.375H4ZM12.375 10.75C12.7202 10.75 13 11.0298 13 11.375C13 11.7202 12.7202 12 12.375 12H3.625C3.27982 12 3 11.7202 3 11.375C3 11.0298 3.27982 10.75 3.625 10.75H12.375ZM6 5.10059C6.00001 4.54015 6.59277 4.17756 7.0918 4.43262L10.3184 6.08203C10.8632 6.36053 10.8632 7.13947 10.3184 7.41797L7.0918 9.06738C6.59278 9.32244 6.00004 8.95983 6 8.39941V5.10059Z" fill="black" fill-opacity="0.84"/>
</svg>
