<svg width="128" height="96" viewBox="0 0 128 96" fill="none" xmlns="http://www.w3.org/2000/svg">
<path d="M83.847 18.8715C84.0407 18.1887 85.2255 18.1887 85.4193 18.8715L86.3486 22.4719C86.7609 23.9253 87.9652 25.1633 89.6145 25.5266L92.8926 26.2743C93.6675 26.445 93.6675 27.3121 92.8926 27.4828L89.6145 28.2304C87.9652 28.5938 86.7609 29.7974 86.3486 31.2507L85.4193 35.3851C85.2255 36.0679 84.0407 36.0679 83.847 35.3851L82.9594 31.2507C82.5471 29.7974 81.3011 28.5938 79.6517 28.2304L76.3736 27.4828C75.5988 27.3121 75.5988 26.445 76.3737 26.2743L79.6517 25.5266C81.3011 25.1633 82.5471 23.9253 82.9594 22.4719L83.847 18.8715Z" fill="#4397E0"/>
<path d="M61.0952 18.4589C61.721 15.6333 66.3287 15.6226 66.9718 18.4452L70.1221 32.2747C71.5012 38.3285 76.9948 43.0103 83.9364 44.0478L93.3438 45.4539C96.6657 45.9504 96.6657 50.1333 93.3438 50.6298L83.9364 52.0359C76.9948 53.0734 71.5012 57.7552 70.1221 63.809L66.9718 77.6385C66.3287 80.4612 61.721 80.4503 61.0952 77.6248L58.053 63.8888C56.7032 57.7945 51.1855 53.0718 44.2034 52.035L34.7445 50.6303C31.4185 50.1364 31.4185 45.9473 34.7445 45.4534L44.2034 44.0488C51.1855 43.0119 56.7032 38.2893 58.053 32.1949L61.0952 18.4589Z" fill="#4397E0"/>
<path d="M79.6526 25.5264L76.3746 26.274L80.7766 26.6542C83.0778 26.8529 84.9371 24.8073 84.5202 22.5355L83.8479 18.8712L82.9604 22.4717C82.548 23.925 81.302 25.163 79.6526 25.5264Z" fill="#75B6EB"/>
<path d="M64.0079 31.8321C64.0079 40.75 56.717 47.9467 47.7999 47.8308L34.7419 47.661C31.7425 47.661 32.3918 45.8155 34.7419 45.4535L44.1493 44.0474C51.0909 43.0099 56.5845 38.328 57.9636 32.2743L61.0176 18.4447C61.7074 16.1652 64.0079 15.5775 64.0079 17.9824V31.8321Z" fill="#75B6EB"/>
<path d="M84.6329 17.7333C85.1373 17.7058 85.8503 17.9804 86.0648 18.6882C86.0656 18.6913 86.0683 18.7006 86.069 18.7038C86.4246 19.8859 86.7581 21.0738 87.0697 22.2673L87.1012 22.371C87.1122 22.4054 87.1236 22.4397 87.1356 22.4738C87.5378 23.6254 88.5334 24.5624 89.7548 24.8896C89.7557 24.8898 89.7584 24.8903 89.7594 24.8905C90.8411 25.1879 91.9187 25.5036 92.9921 25.8376L92.9889 25.8368C93.4362 25.9358 93.8788 26.4093 93.8436 26.9164C93.8397 27.4419 93.3656 27.8413 92.953 27.8769C92.8821 27.8854 92.8089 27.8703 92.7487 27.8302C92.6884 27.7902 92.646 27.7292 92.6307 27.6598C92.6154 27.5904 92.6283 27.5173 92.6661 27.4557C92.704 27.3941 92.764 27.3496 92.8319 27.3276C93.0569 27.2472 93.1358 27.0714 93.1031 26.9323C93.0675 26.7944 92.9672 26.7269 92.796 26.7116C92.7953 26.7115 92.7935 26.7109 92.7928 26.7109C91.6809 26.5464 90.573 26.3635 89.4694 26.1625L89.474 26.1635C87.7962 25.8787 86.291 24.6211 85.7213 22.9731C85.6868 22.8753 85.6554 22.7764 85.6273 22.6764C85.6263 22.673 85.6236 22.6625 85.6227 22.6591C85.3161 21.4582 85.0316 20.2516 84.7694 19.0392L84.7736 19.0546C84.7792 19.0583 84.8041 19.0679 84.7823 19.0431C84.7624 19.0213 84.7003 18.9928 84.6329 18.9853C84.5654 18.9763 84.4955 18.9874 84.4579 19.0002C84.4189 19.0153 84.4135 19.0101 84.3961 19.0273L84.4012 19.008C84.13 19.8809 83.8466 20.7511 83.5511 21.6181C83.4464 21.9255 83.3403 22.2326 83.2325 22.5392C83.2088 22.6066 83.1628 22.6655 83.1002 22.7018C83.0377 22.7382 82.9642 22.7491 82.8951 22.7321C82.8262 22.7151 82.7664 22.6712 82.7279 22.61C82.6894 22.5488 82.6759 22.4751 82.6862 22.4045C82.7332 22.0829 82.782 21.7617 82.8321 21.4408C82.9735 20.5359 83.1268 19.6338 83.2924 18.7348C83.2935 18.731 83.2962 18.7192 83.2975 18.7155C83.4598 18.0533 84.1249 17.738 84.6329 17.7333Z" fill="#1074CC"/>
<path d="M81.6714 24.2384C81.7444 24.2438 81.8123 24.2772 81.8601 24.3317C81.9079 24.3861 81.9324 24.4575 81.9285 24.5306C81.9245 24.6038 81.892 24.6723 81.8404 24.7233C81.4227 25.1323 80.9238 25.4664 80.3758 25.6988C80.1693 25.7865 79.9559 25.8599 79.7381 25.9183L79.741 25.9176C78.6606 26.2204 77.5787 26.5169 76.4954 26.807C76.4946 26.8072 76.492 26.8078 76.4912 26.808C76.4469 26.8208 76.4136 26.8385 76.3914 26.8544C76.4094 26.8628 76.4469 26.8792 76.5047 26.8876C76.5055 26.8878 76.5081 26.8883 76.5091 26.8885C77.6095 27.1037 78.7086 27.325 79.8062 27.5528L79.801 27.5519C81.5676 27.8937 83.1669 29.2358 83.6795 31.046C83.6821 31.0554 83.6891 31.0835 83.6912 31.0931C83.76 31.4086 83.8282 31.7242 83.896 32.0399C84.119 33.0789 84.3363 34.1191 84.5479 35.1605C84.5691 35.1686 84.6004 35.1771 84.6331 35.1781C84.6858 35.1815 84.7378 35.1668 84.7515 35.1605C85.081 33.8116 85.4203 32.4645 85.7693 31.12C85.771 31.1135 85.7754 31.0945 85.7774 31.0883C86.3038 29.3723 87.8521 28.1056 89.5279 27.8368C89.53 27.8364 89.5366 27.8349 89.5388 27.8346C89.7526 27.8044 89.9664 27.7742 90.1802 27.7445C90.725 27.6687 91.2701 27.5945 91.8154 27.5218C91.8874 27.5123 91.9615 27.5289 92.0217 27.5707C92.0819 27.6124 92.1233 27.6756 92.137 27.7467C92.1506 27.8178 92.1354 27.8918 92.095 27.9528C92.0545 28.0138 91.9918 28.0566 91.9214 28.0743C91.3878 28.2084 90.8538 28.341 90.3196 28.472C90.1099 28.5235 89.9002 28.5747 89.6904 28.6256L89.7012 28.6234C88.3326 28.9881 87.2447 30.0885 86.928 31.3805L86.7276 32.4213C86.5254 33.4616 86.3178 34.5009 86.1043 35.5387C86.1027 35.5464 86.0965 35.5688 86.0945 35.5763C85.8957 36.3071 85.1657 36.6228 84.6331 36.6153C84.1016 36.6323 83.3573 36.3287 83.1431 35.5843C83.1404 35.5752 83.1337 35.5475 83.1316 35.5382C82.8916 34.4784 82.6575 33.4172 82.4295 32.3549C82.3636 32.0478 82.2981 31.7407 82.2332 31.4335C81.8897 30.2105 80.7945 29.2123 79.5022 28.9083C79.5012 28.9081 79.4984 28.9073 79.4973 28.9071C78.4096 28.6365 77.3232 28.3596 76.2383 28.0763L76.2427 28.0773C75.8067 27.9932 75.1984 27.5604 75.2132 26.878C75.2226 26.1958 75.8337 25.8017 76.2561 25.7399L76.252 25.7406C77.354 25.5323 78.4576 25.3305 79.5625 25.1349C79.5632 25.1347 79.5649 25.1343 79.5654 25.1341C79.7519 25.1035 79.9369 25.06 80.1187 25.004C80.6012 24.8557 81.0617 24.6176 81.469 24.3009C81.5262 24.2561 81.5983 24.2329 81.6714 24.2384ZM84.5225 35.1478C84.5234 35.1488 84.5251 35.1493 84.5269 35.1505C84.5212 35.1449 84.5181 35.1427 84.5225 35.1478ZM76.3613 26.8829C76.3502 26.9025 76.3674 26.8961 76.3718 26.878C76.3729 26.8751 76.3724 26.872 76.3728 26.8693C76.3675 26.8744 76.3636 26.879 76.3613 26.8829Z" fill="#1074CC"/>
<path d="M95.4333 46.6664C95.4952 46.6341 95.568 46.6273 95.6377 46.6466C95.7071 46.666 95.768 46.7098 95.8044 46.7694C96.3308 47.6218 96.3777 48.8224 95.7907 49.7428C95.5532 50.1229 95.2215 50.4429 94.8418 50.6715C94.399 50.9388 93.913 51.0961 93.425 51.174C90.2945 51.6776 87.165 52.1882 84.0346 52.693C80.1158 53.3194 76.3946 55.234 73.8249 58.1998C72.3845 59.8564 71.3253 61.8395 70.8252 63.9686C69.74 68.5704 68.6288 73.1664 67.5317 77.7655C67.5159 77.8324 67.4983 77.8982 67.4787 77.9628C67.1414 79.1651 65.9741 79.9652 64.8718 80.1093C63.8697 80.2598 62.8361 80.0361 62.0334 79.4511C61.9765 79.4087 61.9382 79.3434 61.9257 79.2719C61.9134 79.2002 61.9277 79.1277 61.967 79.0687C62.0063 79.0098 62.0677 78.9684 62.1386 78.9523C62.2095 78.9363 62.2844 78.9468 62.3454 78.983C63.0485 79.3946 63.9332 79.4512 64.6867 79.2345C65.5353 78.9959 66.1815 78.396 66.3796 77.64C66.3914 77.5979 66.4021 77.5546 66.4116 77.5104C67.4147 72.8899 68.4036 68.2659 69.4187 63.6481C69.939 61.2675 71.1027 59.0433 72.6919 57.2169C75.5303 53.9428 79.6288 51.9503 83.8381 51.3776C86.9792 50.945 90.1212 50.5181 93.2622 50.0844C93.6359 50.0335 93.9879 49.9242 94.2949 49.7477C94.558 49.5964 94.7916 49.4083 94.9829 49.1762C95.4474 48.6281 95.6296 47.7713 95.3059 47.0297C95.2778 46.9657 95.2767 46.8907 95.3005 46.8226C95.3245 46.7545 95.3714 46.6987 95.4333 46.6664Z" fill="#045EB2"/>
<path d="M32.6936 46.3024C32.7663 46.2929 32.8391 46.3111 32.8969 46.3539C32.9548 46.3967 32.9935 46.461 33.0056 46.5333C33.0176 46.6056 33.0021 46.68 32.9614 46.7394C32.5515 47.3323 32.4811 48.1168 32.75 48.7492C33.0851 49.5704 33.9241 50.0494 34.8188 50.1303C36.1959 50.2802 37.5716 50.4397 38.9433 50.6259C40.7304 50.8684 42.5177 51.1099 44.3044 51.3544C47.4445 51.7829 50.5082 52.9848 53.0461 54.942C55.8584 57.0946 58.0074 60.2197 58.7551 63.7338C59.0889 65.2791 59.4215 66.8247 59.7541 68.3703C60.238 70.6188 60.5957 72.8956 60.967 75.1691C61.0975 75.9683 61.2298 76.7673 61.3698 77.5643C61.3821 77.6347 61.3652 77.7085 61.3247 77.7692C61.284 77.8298 61.223 77.8724 61.1533 77.8878C61.0836 77.9032 61.0104 77.8905 60.948 77.8527C60.8856 77.8148 60.8391 77.7549 60.8205 77.6859C60.6109 76.9043 60.3934 76.1242 60.1743 75.3446C59.5509 73.127 58.9138 70.9122 58.403 68.6696C58.0519 67.128 57.7008 65.5863 57.3508 64.0446C56.646 60.8996 54.6997 58.0986 52.1303 56.13C49.8134 54.3433 47.0178 53.1828 44.1023 52.7162C42.3216 52.4309 40.5411 52.1426 38.7607 51.8554C37.3941 51.6348 36.0313 51.3876 34.6701 51.131C33.5385 50.9489 32.3894 50.1642 32.0405 49.0043C31.7513 48.1139 31.9441 47.1089 32.5092 46.4049C32.5541 46.3486 32.6209 46.312 32.6936 46.3024Z" fill="#045EB2"/>
<path d="M62.771 16.1815C63.5831 15.8634 64.4998 15.8197 65.361 16.0839C66.3239 16.361 67.2261 17.1859 67.486 18.2445C67.8194 19.4579 68.1413 20.6739 68.4314 21.8971C69.2385 25.301 70.0479 28.7045 70.8396 32.111C71.1769 33.555 71.7685 34.9367 72.5651 36.1923C74.976 40.0059 79.194 42.5546 83.6877 43.3473C83.8021 43.3679 83.9171 43.3877 84.0324 43.4066C86.3694 43.7899 88.6934 44.26 91.0192 44.7179C91.8076 44.8731 92.5961 45.0269 93.3855 45.1754C93.4561 45.1887 93.5195 45.2306 93.562 45.2902C93.6044 45.3499 93.6224 45.4225 93.6118 45.4935C93.6012 45.5646 93.5628 45.6288 93.5048 45.6735C93.4468 45.7181 93.3739 45.7397 93.3025 45.7318C92.5042 45.643 91.705 45.5593 90.9057 45.4772C88.5477 45.235 86.1877 45.0051 83.8408 44.6884C83.717 44.6716 83.5936 44.6534 83.4707 44.6339C78.6519 43.8875 73.9817 41.2327 71.2981 36.9953C70.4141 35.6025 69.7629 34.054 69.4047 32.4369C68.6516 29.0207 67.9158 25.6004 67.1779 22.1808C66.9128 20.952 66.6794 19.7159 66.4577 18.4779C66.3469 17.7557 65.8308 17.1322 65.0935 16.8246C64.4431 16.5469 63.6615 16.4987 62.9585 16.7118C62.89 16.7329 62.8143 16.7253 62.749 16.6925C62.6837 16.6596 62.6339 16.604 62.6101 16.5365C62.5863 16.469 62.5902 16.3946 62.6203 16.328C62.6505 16.2615 62.7045 16.2082 62.771 16.1815Z" fill="#045EB2"/>
<path d="M60.9475 18.1473C61.0099 18.1094 61.0833 18.0963 61.153 18.1117C61.2228 18.1271 61.2838 18.1697 61.3244 18.2304C61.365 18.291 61.3819 18.365 61.3696 18.4354C61.2453 19.1433 61.1267 19.8525 61.0092 20.5619C60.6617 22.6613 60.3256 24.7634 59.893 26.8441C59.5116 28.6787 59.1306 30.5136 58.7453 32.3483C58.2115 34.8913 56.9415 37.2602 55.1985 39.1644C52.3663 42.2712 48.3717 44.1277 44.2939 44.6596C43.7009 44.7378 43.1078 44.8161 42.5149 44.8947C40.6595 45.1405 38.7947 45.3224 36.9306 45.5097C36.2154 45.5815 35.5001 45.6542 34.7856 45.7316C34.7143 45.7392 34.6416 45.7176 34.5837 45.673C34.5258 45.6282 34.4875 45.564 34.477 45.4931C34.4665 45.4222 34.4844 45.3496 34.5268 45.2899C34.5692 45.2304 34.6326 45.1886 34.7031 45.1752C35.4091 45.0416 36.1146 44.9034 36.8198 44.7643C38.6578 44.4018 40.4951 44.0338 42.3418 43.7299C42.932 43.6327 43.5223 43.5354 44.1125 43.4379C47.9256 42.8116 51.5263 40.9679 54.0903 38.1537C55.6715 36.4248 56.8351 34.318 57.3601 32.0424C57.7806 30.2164 58.2052 28.3912 58.6294 26.5661C59.1105 24.496 59.6884 22.447 60.2546 20.3956C60.4459 19.7025 60.6358 19.009 60.8203 18.3143C60.8387 18.2453 60.8852 18.1853 60.9475 18.1473Z" fill="#045EB2"/>
</svg>
