<svg width="128" height="96" viewBox="0 0 128 96" fill="none" xmlns="http://www.w3.org/2000/svg">
<path d="M79.4497 20.5941C88.0361 20.1354 95.2497 26.974 95.2497 35.5726V45.1524C97.9612 45.4578 99.8288 48.1438 99.0647 50.8475L92.5603 73.8602C92.0125 75.7981 90.2436 77.1363 88.2297 77.1363H79.8525C76.8996 77.1363 74.7471 74.3401 75.5022 71.4854L76.5083 67.6815L41.7121 67.6358C35.2486 67.6273 30.1214 62.1869 30.4958 55.7342L31.8064 33.1531C32.1384 27.4333 36.716 22.8768 42.4372 22.5711L79.4497 20.5941Z" fill="#F5FBFE"/>
<path d="M76.5564 67.4994H76.1421C76.2344 67.6553 76.3299 67.8171 76.4282 67.9832L75.5022 71.485C74.8411 73.984 76.4083 76.4378 78.79 77.0106C78.3095 77.2347 77.7027 77.3558 76.9895 77.3558L63.1592 77.3829L63.1582 77.3827L50.5676 77.4076C50.3816 77.4079 50.241 77.2391 50.2751 77.0562C50.4986 75.8614 51.5004 74.9681 52.7129 74.8824L58.5017 74.4732C59.3919 74.4103 59.8625 73.3898 59.3323 72.672L55.5103 67.4994H41.106C37.1529 67.4993 33.5356 65.2762 31.75 61.7494H78.0776L76.5564 67.4994Z" fill="#4397E0"/>
<path d="M79.4495 20.5941C88.036 20.1352 95.25 26.9738 95.25 35.5726V45.1519C95.0812 45.1329 94.909 45.1229 94.7341 45.1229H90.9236L91.4773 33.7437C91.8371 26.348 85.7254 20.2628 78.3323 20.6537L79.4495 20.5941Z" fill="#4397E0"/>
<path d="M78.325 20.6541L67.8669 21.2132L78.3323 20.6537C78.3298 20.6538 78.3274 20.654 78.325 20.6541Z" fill="#4397E0"/>
<path d="M97.019 45.123C99.9653 45.1231 102.117 47.9076 101.373 50.7585L94.6499 76.5439C94.1332 78.5257 92.3434 79.9084 90.2954 79.9084H79.0688C76.1225 79.9084 73.971 77.1242 74.7144 74.2732L81.0342 50.0356C81.1912 49.4333 81.4291 48.869 81.7339 48.3528C81.5723 48.6845 81.4409 49.0354 81.3438 49.4026L75.5022 71.4851C74.7471 74.3398 76.8996 77.1357 79.8525 77.1357H88.2297C90.2436 77.1357 92.0125 75.7978 92.5603 73.8599L99.0647 50.8469C99.8763 47.9751 97.7185 45.123 94.7341 45.123H97.019Z" fill="#75B6EB"/>
<path d="M95.0342 65.091C95.0988 65.0562 95.1741 65.0478 95.244 65.068C95.3138 65.0883 95.3731 65.1359 95.409 65.1999C95.4449 65.2639 95.4544 65.3392 95.4376 65.4101C95.365 65.7149 95.2917 66.0197 95.2176 66.3241C94.6356 68.7145 94.006 71.0912 93.3289 73.454C93.265 73.6767 93.1881 73.8953 93.0982 74.1088C92.4427 75.6851 91.0383 76.8919 89.4383 77.3754C88.8899 77.5445 88.3177 77.6307 87.7476 77.6327C86.8733 77.6347 85.9987 77.6354 85.1243 77.6366C84.8113 77.6371 84.4981 77.6374 84.1851 77.6381C84.1124 77.6382 84.0417 77.609 83.9888 77.5578C83.936 77.5064 83.9051 77.4371 83.9031 77.3644C83.9012 77.2917 83.9283 77.221 83.9783 77.1669C84.0284 77.1129 84.0973 77.0796 84.17 77.0758C84.4827 77.0598 84.7955 77.0435 85.1082 77.0273C85.9814 76.9818 86.8547 76.9358 87.7278 76.891C88.2255 76.8648 88.7167 76.7663 89.1819 76.6C90.5457 76.1171 91.6352 75.0238 92.1766 73.7209C92.2514 73.5431 92.3161 73.3614 92.3707 73.1759C93.0641 70.8179 93.8053 68.4734 94.5938 66.143C94.6942 65.8462 94.7956 65.5496 94.8975 65.2533C94.9213 65.1844 94.9696 65.1258 95.0342 65.091Z" fill="#045EB2"/>
<path fill-rule="evenodd" clip-rule="evenodd" d="M79.4097 19.8451C88.4251 19.3638 95.9988 26.5447 95.9991 35.5729V44.3737H96.3721C100.137 44.3738 102.886 47.9315 101.936 51.5744L95.4732 76.36C94.8129 78.8921 92.526 80.659 89.9092 80.6591H79.7161C77.5564 80.6591 75.7313 79.488 74.7466 77.8019L50.7527 77.7812C49.9939 77.7803 49.4304 77.0774 49.595 76.3366C49.8616 75.1382 50.8993 74.2674 52.1258 74.2126L58.4307 73.9313C58.735 73.9175 58.9029 73.5716 58.7254 73.3241L55.1927 68.4037L41.7112 68.3861C34.8168 68.3769 29.3477 62.5737 29.7471 55.6908L31.0574 33.11C31.4117 27.0091 36.295 22.1482 42.3975 21.8222L79.4097 19.8451ZM86.9517 45.8737C84.5624 45.8737 82.4743 47.487 81.8714 49.799L75.6036 73.8368C74.9015 76.5294 76.9335 79.1591 79.7161 79.1591H89.9092C91.8434 79.159 93.5337 77.8531 94.0218 75.9816L100.485 51.196C101.187 48.5034 99.1547 45.8738 96.3721 45.8737H86.9517ZM59.9439 72.4491C60.8163 73.6644 59.9919 75.363 58.4974 75.4298L52.1924 75.7108C51.7845 75.7292 51.4231 75.9495 51.2154 76.2814L74.1336 76.3009C74.0449 75.9473 73.9898 75.5823 73.9708 75.2101C71.8762 75.2306 69.7791 75.1444 67.6805 74.9508C67.4271 74.9275 67.1732 74.9024 66.9197 74.8759C66.8496 74.8684 66.7815 74.8388 66.731 74.788C66.6805 74.7371 66.6513 74.6696 66.65 74.5995C66.6487 74.5295 66.6754 74.461 66.7239 74.4084C66.7725 74.3558 66.8395 74.3234 66.9092 74.3134C67.1615 74.2774 67.4143 74.2429 67.6666 74.2101C69.7931 73.9335 71.9223 73.7678 74.053 73.7128C74.0666 73.7123 74.0799 73.7112 74.0928 73.7099C74.1108 73.6261 74.1303 73.5423 74.1522 73.4584L74.3633 72.6481C73.7181 71.3433 73.1174 70.0138 72.5628 68.6596C72.5311 68.582 72.4995 68.5041 72.4681 68.4264L57.0408 68.4062L59.9439 72.4491ZM73.2977 68.4274C73.8345 69.1994 74.3524 69.9819 74.8519 70.7743L75.4632 68.4301L73.2977 68.4274ZM94.4991 35.5729C94.4988 27.4046 87.6465 20.9077 79.4898 21.3432L42.4776 23.3202C37.1379 23.6055 32.865 27.8586 32.555 33.1969L31.2444 55.7777C30.8949 61.8002 35.6806 66.8781 41.7132 66.8861L75.8541 66.9306L80.42 49.4206C81.1951 46.448 83.8797 44.3737 86.9517 44.3737H90.629C90.7439 42.5269 90.8762 40.6782 91.0425 38.8256C91.0855 38.3514 91.1306 37.8767 91.1783 37.3905C91.1855 37.3187 91.2179 37.2502 91.2718 37.2011C91.3257 37.1521 91.3966 37.1257 91.4686 37.1281C91.5405 37.1307 91.6094 37.1617 91.6597 37.2143C91.7101 37.2669 91.7379 37.3375 91.7403 37.4096C91.7551 37.8973 91.7695 38.3732 91.7828 38.8485C91.8339 40.689 91.8717 42.5312 91.8809 44.3737H94.4991V35.5729Z" fill="#045EB2"/>
<path fill-rule="evenodd" clip-rule="evenodd" d="M89.0873 54.3019C89.5439 54.2978 89.9502 54.4605 90.186 54.7758C90.5718 55.2918 90.9575 55.5575 91.3818 55.6906C91.8078 55.8241 92.3615 55.8512 93.1818 55.745C93.6482 55.6846 94.0858 55.7887 94.3784 56.0499C94.6736 56.3136 94.7996 56.7228 94.6745 57.1842C93.8876 60.0872 92.9154 61.996 91.5698 63.3881C90.1479 64.859 88.3006 65.6685 86.7143 66.3637C86.6389 66.3967 86.5635 66.4297 86.4894 66.4623C85.9189 66.7131 85.3093 66.72 84.8759 66.4806C84.8193 66.4493 84.7619 66.4178 84.7043 66.3861C83.4983 65.7226 82.0946 64.9502 81.4897 63.5023C80.9172 62.132 81.0108 60.2329 81.8491 57.3295C81.9822 56.8684 82.3383 56.454 82.7829 56.182C83.2235 55.9125 83.7218 55.7977 84.1572 55.8473C84.9277 55.9351 85.5037 55.8892 86.0087 55.7409C86.5108 55.5933 87.0447 55.3147 87.7148 54.7975C88.1304 54.4767 88.6308 54.306 89.0873 54.3019ZM87.9902 57.0851C87.636 57.0891 87.2714 57.369 87.176 57.7101L86.8303 58.9452C86.7348 59.2863 86.37 59.5662 86.0158 59.5702L84.7331 59.5849C84.3789 59.5889 84.0144 59.8685 83.9189 60.2096L83.746 60.8273C83.6506 61.1684 83.8603 61.4419 84.2145 61.4379L85.4973 61.4232C85.8514 61.4192 86.0612 61.6925 85.9658 62.0336L85.6201 63.2689C85.5246 63.6101 85.7343 63.8835 86.0886 63.8795L86.7299 63.8722C87.0841 63.8682 87.4487 63.5883 87.5441 63.2472L87.8898 62.0119C87.9853 61.6707 88.3498 61.3909 88.704 61.3869L89.9868 61.3724C90.341 61.3684 90.7057 61.0886 90.8012 60.7474L90.9741 60.1298C91.0695 59.7887 90.8597 59.5154 90.5056 59.5194L89.2228 59.5338C88.8686 59.5378 88.6589 59.2646 88.7543 58.9235L89.1 57.6881C89.1955 57.347 88.9857 57.0738 88.6315 57.0778L87.9902 57.0851Z" fill="#1074CC"/>
<path fill-rule="evenodd" clip-rule="evenodd" d="M61.8718 28.9127C62.8913 28.89 63.8854 29.2533 64.5776 29.9738C65.7104 31.153 66.712 31.7552 67.7309 32.0497C68.7539 32.3454 70.0072 32.3919 71.7873 32.1229C72.7995 31.97 73.8332 32.1972 74.6242 32.7914C75.4223 33.391 75.9175 34.3311 75.8786 35.3993C75.6334 42.1203 74.4549 46.5532 72.1706 49.8043C69.7568 53.2397 66.046 55.1613 62.8593 56.8117C62.7079 56.8901 62.5565 56.9687 62.4077 57.046C61.2619 57.6413 59.9008 57.6749 58.8061 57.1351C58.6631 57.0647 58.5187 56.9939 58.3732 56.9225C55.3282 55.4268 51.7833 53.6855 49.6738 50.3624C47.6774 47.2176 46.8957 42.8335 47.2556 36.11C47.3127 35.0422 47.893 34.0758 48.746 33.4352C49.5914 32.8003 50.6466 32.5207 51.6467 32.6224C53.4166 32.8025 54.6812 32.68 55.7338 32.3229C56.7803 31.9679 57.8294 31.3093 59.0588 30.0963C59.8212 29.344 60.8522 28.9355 61.8718 28.9127ZM60.8696 35.3663C60.0791 35.386 59.4095 36.0421 59.374 36.8319L59.2453 39.6923C59.2098 40.4821 58.54 41.1385 57.7495 41.1581L54.8867 41.2289C54.0961 41.2485 53.4266 41.9049 53.3911 42.6947L53.3266 44.1249C53.2911 44.9147 53.903 45.5392 54.6935 45.5197L57.5563 45.4486C58.3469 45.429 58.9588 46.0533 58.9233 46.8432L58.7946 49.7035C58.7591 50.4933 59.3711 51.1178 60.1616 51.0983L61.593 51.0626C62.3835 51.043 63.0532 50.3869 63.0888 49.5971L63.2175 46.7367C63.253 45.9468 63.9228 45.2905 64.7133 45.2709L67.5761 45.1998C68.3666 45.1802 69.0361 44.5241 69.0717 43.7343L69.1362 42.3041C69.1717 41.5142 68.5597 40.8897 67.7692 40.9093L64.9064 40.9804C64.1159 41 63.5037 40.3757 63.5392 39.5858L63.6682 36.7255C63.7037 35.9356 63.0915 35.3111 62.301 35.3307L60.8696 35.3663Z" fill="#1074CC"/>
<path d="M41.3005 19.5001C41.6143 19.4996 41.9285 19.5007 42.2426 19.5033C42.3139 19.504 42.3845 19.5281 42.4391 19.5753C42.4938 19.6225 42.5281 19.6883 42.5346 19.7589C42.5411 19.8295 42.5192 19.9003 42.4741 19.9567C42.4289 20.013 42.3638 20.0497 42.2939 20.0634C41.9855 20.123 41.6768 20.1811 41.3681 20.2377C40.9435 20.3155 40.5186 20.3904 40.0934 20.4623C37.8311 20.85 35.7509 21.8499 34.0683 23.3117C32.0805 25.0339 30.6447 27.3986 30.0676 30.0741C30.0032 30.3712 29.9491 30.671 29.9057 30.976C29.8957 31.0465 29.8624 31.1132 29.8085 31.1613C29.7546 31.2093 29.6848 31.2349 29.614 31.2321C29.5431 31.2292 29.4757 31.1983 29.4257 31.1461C29.3758 31.0939 29.348 31.0247 29.3437 30.9535C29.3253 30.631 29.3212 30.3088 29.3322 29.985C29.4145 27.0659 30.8088 24.1346 33.0854 22.1786C34.9993 20.5067 37.5153 19.5473 40.0063 19.5114C40.4374 19.5047 40.8689 19.5009 41.3005 19.5001Z" fill="#1074CC"/>
</svg>
