<svg width="128" height="96" viewBox="0 0 128 96" fill="none" xmlns="http://www.w3.org/2000/svg">
<path d="M79.4404 18.4289C80.2433 15.2176 84.6903 15.1174 85.7207 18.1282L85.8096 18.4289L86.8272 22.5002C87.1872 23.9394 88.3108 25.0631 89.75 25.4231L93.8213 26.4407C97.136 27.2694 97.136 31.9811 93.8213 32.8098L92.3359 33.1809C94.6742 37.6255 96 42.686 96 48.0569C96 65.73 81.6731 80.0569 64 80.0569C46.3269 80.0569 32 65.73 32 48.0569C32.0002 30.3839 46.327 16.0569 64 16.0569C69.4565 16.0569 74.5935 17.424 79.0889 19.8323L79.4404 18.4289Z" fill="#F05F2B"/>
<path fill-rule="evenodd" clip-rule="evenodd" d="M68.4996 71.875C68.4996 71.625 68.561 71.568 67.7663 69.984C65.6543 65.7547 63.5316 59.792 64.497 55.9467C64.673 55.248 62.5076 30.0747 60.977 29.264C59.2756 28.3573 57.1823 26.9191 55.2677 26.5991C54.2962 26.4437 53.0225 26.5173 52.0268 26.6514C51.8498 26.6752 51.8425 26.9933 52.0116 27.0506C52.6653 27.2721 53.4591 27.6566 53.9269 28.238C54.0154 28.3481 53.8966 28.5211 53.7555 28.5264C53.3145 28.5427 52.5145 28.7276 51.4591 29.624C51.337 29.7277 51.4384 29.9202 51.5955 29.8892C53.8638 29.4404 56.1803 29.6615 57.5455 30.9024C57.6341 30.9829 57.5877 31.1273 57.4722 31.1587C45.6251 34.3783 47.9704 44.6838 51.1242 57.3306C54.0378 69.0142 55.1068 72.5658 55.3997 73.5289C55.4106 73.5646 55.4349 73.5913 55.4693 73.6055C59.496 75.2711 68.4996 75.2866 68.4996 72.5V71.875Z" fill="#DDDDDD"/>
<path d="M64 18.4999C69.1966 18.4999 74.0784 19.8451 78.3188 22.204C78.4035 22.2511 78.4459 22.3491 78.4229 22.4432C78.3456 22.752 78.2328 23.0461 78.0894 23.3211C77.6924 24.0825 76.7131 24.1607 75.9434 23.7804C72.3425 22.0009 68.2884 20.9999 64 20.9999C49.3215 20.9999 37.3787 32.7132 37.0088 47.3026L37 47.9999C37 60.526 45.5302 71.0592 57.0984 74.109C56.1713 71.1856 53.9381 63.6996 51.8237 55.0326C51.7491 54.7266 51.6745 54.422 51.6003 54.119L51.5984 54.1114C48.8862 43.0334 46.6712 33.9852 58.812 31.1427C58.923 31.1167 58.9773 30.9838 58.9038 30.8966C57.5108 29.2441 54.9012 28.7026 51.6016 29.8409C51.4662 29.8876 51.3488 29.751 51.4329 29.6351C52.0799 28.7433 53.3443 28.0575 53.9685 27.7569C54.0975 27.6948 54.0897 27.5061 53.9531 27.4632C53.5448 27.3354 52.8494 27.1397 52.0674 27.0135C51.8825 26.9836 51.8658 26.6664 52.0515 26.6415C56.7294 26.0121 61.6141 27.4167 64.0654 30.5045C64.0885 30.5336 64.1219 30.5538 64.1582 30.5616C73.1344 32.4893 73.7774 46.6783 72.7434 47.3253C72.5396 47.4527 71.8862 47.3797 71.0244 47.2833C67.5317 46.8925 60.6153 46.1187 66.3235 56.7569C66.3799 56.862 66.3053 57.0011 66.1875 57.0194C63.0244 57.5112 67.1048 67.6491 70.1228 74.3023C82.0849 71.5288 91 60.8055 91 47.9999C91 43.7974 90.039 39.8196 88.3259 36.2731C87.9621 35.5198 88.0324 34.5701 88.7625 34.1617C89.0687 33.9904 89.4001 33.8579 89.75 33.7704C89.7988 33.7577 89.85 33.7797 89.8743 33.8238C92.1842 38.031 93.5 42.8615 93.5 47.9999C93.5 64.2922 80.2924 77.4999 64 77.4999C47.7076 77.4999 34.5 64.2922 34.5 47.9999C34.5001 31.7076 47.7077 18.4999 64 18.4999Z" fill="white"/>
<path d="M81.8662 18.9781C82.0637 18.1883 83.1865 18.1883 83.384 18.9781L84.4016 23.0489C84.9854 25.3842 86.8088 27.2078 89.144 27.7916L93.2148 28.8092C94.0048 29.0067 94.0048 30.1293 93.2148 30.3268L89.144 31.3446C86.8088 31.9284 84.9854 33.7518 84.4016 36.087L83.384 40.1578C83.1865 40.9478 82.0637 40.9478 81.8662 40.1578L80.8486 36.087C80.2648 33.7518 78.4414 31.9284 76.1062 31.3446L72.0354 30.3268C71.2455 30.1293 71.2455 29.0067 72.0354 28.8092L76.1062 27.7916C78.4415 27.2078 80.2648 25.3842 80.8486 23.0489L81.8662 18.9781Z" fill="white"/>
<path d="M74.1413 61.3487C73.458 61.032 70.8305 62.9164 69.0866 64.3628C68.7221 63.8472 68.0349 63.4723 66.4847 63.7419C65.128 63.9778 64.379 64.3049 64.0448 64.8689C61.9034 64.057 58.3008 62.804 57.4305 64.0141C56.4791 65.3369 57.6682 71.5943 58.9318 72.4068C59.5915 72.831 62.7471 70.8027 64.3949 69.404C64.6608 69.7786 65.0888 69.993 65.9688 69.9726C67.2995 69.9417 69.458 69.632 69.793 69.0122C69.8134 68.9746 69.8309 68.9301 69.8458 68.8794C71.5395 69.5124 74.5205 70.1824 75.1865 70.0823C76.9219 69.8217 74.9447 61.721 74.1413 61.3487Z" fill="#33A055"/>
<path d="M69.2451 64.5481C69.317 64.6763 69.3747 64.8114 69.4238 64.9488C69.6653 65.6241 70.0587 67.7724 69.7612 68.303C69.4637 68.8337 67.5315 69.0899 66.3395 69.1105C65.1476 69.131 64.8793 68.6951 64.6378 68.0198C64.4446 67.4796 64.3495 66.2095 64.3519 65.4823C64.303 64.4035 64.6971 64.0243 66.5189 63.7295C67.867 63.5113 68.5797 63.765 68.9912 64.1993C70.9051 62.7708 74.0985 60.7549 74.41 61.1233C75.963 62.9604 76.1593 67.3336 75.823 69.0931C75.7131 69.6682 70.5706 68.5231 70.5706 67.9028C70.5706 65.327 69.9022 64.6204 69.2451 64.5481Z" fill="#39B25E"/>
<path d="M57.9802 63.7438C58.4014 63.0772 61.8169 63.9062 63.6918 64.7405C63.6918 64.7405 63.3066 66.486 63.92 68.5425C64.0994 69.144 59.6065 71.8214 59.02 71.3607C58.3423 70.8284 57.0949 65.1449 57.9802 63.7438Z" fill="#39B25E"/>
<path fill-rule="evenodd" clip-rule="evenodd" d="M59.6344 50.2034C59.9108 49.0017 61.1981 46.7373 65.795 46.7923C68.119 46.7826 71.0058 46.7913 72.9197 46.5739C75.7643 46.2508 77.8758 45.5627 79.2828 45.0264C81.2727 44.2672 81.9788 44.4365 82.2264 44.8908C82.4985 45.3899 82.1779 46.2518 81.4826 47.0451C80.1545 48.5606 77.7669 49.7348 73.5502 50.0834C69.3334 50.4319 66.5398 49.3008 65.3373 51.1423C64.8186 51.9366 65.2196 53.8086 69.2975 54.398C74.808 55.1933 79.3336 53.4398 79.8928 54.4988C80.452 55.5579 77.2309 57.7126 71.7115 57.7577C66.1921 57.8028 62.7446 55.8253 61.522 54.8423C59.9709 53.5951 59.2768 51.7762 59.6344 50.2034Z" fill="#FFC95C"/>
<g opacity="0.8">
<path d="M66.663 37.0636C66.9709 36.5595 67.6536 36.1704 68.7708 36.1704C69.888 36.1704 70.4136 36.615 70.7775 37.1107C70.8515 37.2116 70.7394 37.3303 70.6245 37.2806C70.5969 37.2687 70.569 37.2565 70.5406 37.2441C70.132 37.0656 69.6303 36.8465 68.7708 36.8343C67.8516 36.8212 67.2719 37.0514 66.9069 37.2498C66.7839 37.3167 66.5901 37.1831 66.663 37.0636Z" fill="#034180"/>
<path d="M54.0849 37.7086C55.1698 37.2552 56.0224 37.3138 56.6251 37.4564C56.752 37.4864 56.8403 37.3499 56.7388 37.268C56.2709 36.8906 55.2239 36.4222 53.8582 36.9314C52.6401 37.3856 52.0659 38.3294 52.0625 38.9499C52.0617 39.0961 52.3626 39.1085 52.4404 38.9847C52.6506 38.6503 53.0001 38.1619 54.0849 37.7086Z" fill="#034180"/>
<path fill-rule="evenodd" clip-rule="evenodd" d="M69.7198 43.96C68.7607 43.96 67.9828 43.1842 67.9828 42.2294C67.9828 41.2745 68.7607 40.4987 69.7198 40.4987C70.6789 40.4987 71.4568 41.2745 71.4568 42.2294C71.4568 43.1842 70.6789 43.96 69.7198 43.96ZM70.9432 41.656C70.9432 41.4088 70.7407 41.2085 70.4934 41.2085C70.2462 41.2085 70.0459 41.4088 70.0437 41.656C70.0437 41.9033 70.2462 42.1036 70.4934 42.1036C70.7428 42.1036 70.9432 41.9033 70.9432 41.656Z" fill="#034180"/>
<path fill-rule="evenodd" clip-rule="evenodd" d="M58.2112 43.4271C58.2112 44.5418 57.3054 45.4454 56.1865 45.4454C55.0697 45.4454 54.1618 44.5418 54.1618 43.4271C54.1618 42.3124 55.0697 41.4087 56.1865 41.4087C57.3033 41.4087 58.2112 42.3124 58.2112 43.4271ZM57.6144 42.7579C57.6144 42.4701 57.38 42.2357 57.0902 42.2357C56.8024 42.2357 56.568 42.468 56.5659 42.7579C56.5659 43.0456 56.8003 43.28 57.0902 43.28C57.38 43.28 57.6144 43.0456 57.6144 42.7579Z" fill="#034180"/>
</g>
</svg>
