<svg width="128" height="96" viewBox="0 0 128 96" fill="none" xmlns="http://www.w3.org/2000/svg">
<path d="M56.1901 17.6941C57.3765 14.7391 60.4085 12.9577 63.5673 13.3601L86.8666 16.3282C91.7481 16.95 94.7276 22.0146 92.8998 26.5835L82.1918 53.3492C81.7167 53.3027 81.2348 53.2788 80.7475 53.2788C72.6473 53.2789 66.081 59.8454 66.081 67.9456C66.081 71.9486 67.6849 75.5767 70.2848 78.2232C68.5105 79.3248 66.3704 79.831 64.1845 79.5525L41.9352 76.7181C37.3908 76.1391 34.6195 71.4218 36.3263 67.1704L56.1901 17.6941Z" fill="#75B6EB"/>
<path d="M56.2264 18.0396C57.5198 14.8974 60.7593 13.0124 64.1302 13.4407L84.8821 16.0777C88.7318 16.5669 91.0471 20.6002 89.5281 24.1712L76.9341 53.7793C70.6829 55.458 66.0809 61.1643 66.0809 67.9454C66.0809 69.8182 66.432 71.609 67.0718 73.2557C65.7908 73.9787 64.2828 74.301 62.7457 74.1077L42.1978 71.5242C38.3725 71.0432 36.0502 67.0582 37.5176 63.493L56.2264 18.0396Z" fill="#F5FBFE"/>
<path d="M46.7074 39.4709C46.864 39.0875 47.302 38.9037 47.6854 39.0603C48.0688 39.2169 48.2526 39.6546 48.0961 40.0381L37.1718 66.7922C35.5842 70.6803 37.9914 75.0397 42.1246 75.7697L64.0778 78.5022L64.267 78.5217C66.1426 78.6962 67.9698 78.2785 69.5333 77.3982C69.8642 77.7903 70.2152 78.1647 70.5848 78.52C68.6343 79.709 66.2997 80.2653 63.9078 79.9924L63.9039 79.9922L63.9003 79.9917L41.9171 77.2556L41.8988 77.2534L41.8807 77.2502C36.7959 76.3629 33.8319 71.0038 35.7831 66.2251L46.7074 39.4709Z" fill="#045EB2"/>
<path d="M51.8129 72.4975C52.5711 72.5629 53.33 72.6237 54.0888 72.6848C55.4658 72.7957 56.8429 72.9079 58.2162 73.05C59.1793 73.1497 60.1429 73.2481 61.1051 73.3457C61.7224 73.407 62.3399 73.4683 62.9572 73.5295C64.325 73.6807 65.6953 73.3393 66.8522 72.6511C66.9968 73.0782 67.1608 73.4963 67.3427 73.9048C65.9543 74.6245 64.3601 74.9333 62.8182 74.698C62.2038 74.613 61.5893 74.528 60.9738 74.4431C60.0148 74.3088 59.0557 74.175 58.0966 74.0427C56.7289 73.854 55.3645 73.6354 54.0006 73.4155C53.2492 73.2944 52.4977 73.173 51.7457 73.0561C51.6745 73.045 51.6094 73.0051 51.5651 72.9467C51.5208 72.8883 51.5008 72.8157 51.5094 72.7441C51.5181 72.6726 51.5548 72.607 51.6117 72.5608C51.6686 72.5146 51.7411 72.4914 51.8129 72.4975Z" fill="#045EB2"/>
<path d="M49.5614 71.9746C49.7177 71.9876 49.8695 72.0595 50.016 72.1902C50.0322 72.2046 50.0485 72.2201 50.0646 72.2361C50.1105 72.2823 50.1546 72.3291 50.1857 72.3791C50.2166 72.4293 50.2322 72.4808 50.2279 72.532C50.2236 72.5831 50.1997 72.6311 50.1608 72.6755C50.1219 72.7197 50.0709 72.7586 50.018 72.7966C49.9994 72.8097 49.9807 72.8221 49.9623 72.8337C49.7962 72.9383 49.6347 72.9842 49.4784 72.9712C49.3221 72.9581 49.1706 72.886 49.0241 72.7553C49.0078 72.7408 48.9914 72.7256 48.9752 72.7097C48.9293 72.6635 48.8854 72.6166 48.8544 72.5666C48.8234 72.5164 48.8079 72.465 48.8121 72.4138C48.8164 72.3626 48.8402 72.3146 48.879 72.2702C48.9179 72.226 48.9691 72.1871 49.0221 72.1491C49.0406 72.1361 49.0591 72.1236 49.0775 72.112C49.2436 72.0074 49.4051 71.9616 49.5614 71.9746Z" fill="#045EB2"/>
<path d="M80.0905 46.2766C80.1589 46.2499 80.2349 46.251 80.3019 46.2798C80.3689 46.3086 80.4223 46.363 80.4501 46.4311C80.4778 46.4992 80.4777 46.5755 80.4518 46.6438C80.1814 47.3554 79.9092 48.0665 79.6356 48.7768C79.0171 50.3828 78.3906 51.9852 77.756 53.5842C77.2912 53.6805 76.8344 53.7988 76.3868 53.938C77.2295 52.1142 78.0832 50.2952 78.9479 48.4809C79.2754 47.7938 79.6043 47.1071 79.9349 46.4214C79.9667 46.3557 80.022 46.3033 80.0905 46.2766Z" fill="#045EB2"/>
<path d="M55.3624 18.2258C56.8083 14.716 60.3718 12.568 64.1378 12.9138L64.3175 12.9321L64.3204 12.9326L64.3234 12.9328L86.4618 15.6074L86.4667 15.6079C92.0524 16.3195 95.4749 22.0993 93.4137 27.3393L93.4127 27.342L93.4115 27.3447L82.9218 53.4389C82.4108 53.363 81.8912 53.3135 81.3644 53.2917L92.0177 26.7903C93.7205 22.4617 90.895 17.6872 86.2821 17.0964L64.1434 14.4221C60.9791 14.0679 57.9623 15.8524 56.7492 18.7968L49.4296 36.5642C49.2717 36.9471 48.8335 37.1296 48.4506 36.9719C48.0677 36.8141 47.8851 36.3756 48.0429 35.9926L55.3624 18.2258Z" fill="#045EB2"/>
<path d="M68.9684 17.4321C69.0933 17.4443 69.2185 17.4563 69.3434 17.4685C71.5939 17.6878 73.8446 17.9073 76.0951 18.1267C76.2201 18.1389 76.3454 18.1509 76.4703 18.1631C76.6683 18.1823 76.8486 18.2797 76.9711 18.4365C77.0935 18.5931 77.1482 18.7964 77.1234 18.9987C77.0986 19.2011 76.9962 19.3854 76.8395 19.5078C76.6828 19.6303 76.4842 19.681 76.2875 19.6518C76.1633 19.6334 76.0389 19.6153 75.9147 19.5969L68.8314 18.5486C68.6875 18.5272 68.5565 18.4482 68.4672 18.331C68.3779 18.2137 68.3377 18.0677 68.3554 17.9233C68.3731 17.779 68.4475 17.6473 68.5624 17.5551C68.6773 17.4631 68.8236 17.4181 68.9684 17.4321Z" fill="#045EB2"/>
<path d="M51.9882 45.3759L58.6862 45.9921C59.1619 46.0357 59.2588 46.6363 58.8402 46.9389L57.1051 48.2033C56.8389 48.4014 56.7505 48.7608 56.9296 48.9824C59.2518 51.8269 63.7619 52.1095 67.2641 49.55L67.2746 49.5456C68.4312 48.7026 69.329 47.6504 69.9635 46.507C70.2959 45.8984 70.9455 45.5126 71.5937 45.5702L74.1757 45.8054C74.6272 45.8483 74.8646 46.2886 74.6833 46.7324C73.6942 49.1251 71.9983 51.3526 69.6708 53.0502C63.9476 57.2281 56.5663 56.669 52.9215 51.8713C52.7561 51.6548 52.4284 51.6246 52.1764 51.811L50.4767 53.0546C50.0581 53.3572 49.5459 53.0692 49.6627 52.5925L51.328 45.8605C51.3969 45.5706 51.6917 45.349 51.9882 45.3759Z" fill="#1074CC"/>
<path d="M39.7843 47.3112C39.8498 47.3098 39.9174 47.3223 39.9757 47.3566C40.034 47.3909 40.0782 47.4438 40.0995 47.5063C40.1207 47.5687 40.1181 47.6377 40.0932 47.7011C40.0682 47.7646 40.0224 47.8168 39.9701 47.8566C39.8865 47.9198 39.8021 47.9818 39.7174 48.0419C38.9551 48.5835 38.1508 49.0025 37.3048 49.2988C36.4588 49.595 35.5707 49.7687 34.641 49.8195C34.5378 49.8252 34.4338 49.8291 34.3295 49.8317C34.264 49.8331 34.1964 49.8207 34.1381 49.7863C34.0798 49.752 34.0356 49.6994 34.0143 49.6369C33.993 49.5745 33.9957 49.5055 34.0207 49.4421C34.0456 49.3786 34.0914 49.3264 34.1437 49.2866C34.2273 49.2234 34.3115 49.1614 34.3961 49.1013C35.1585 48.5596 35.963 48.1404 36.809 47.8442C37.655 47.5479 38.5431 47.3743 39.4728 47.3234C39.5761 47.3178 39.68 47.3138 39.7843 47.3112Z" fill="#1074CC"/>
<path d="M34.4064 35.3447C34.5215 35.3549 34.6362 35.3666 34.7499 35.3801C35.7737 35.5009 36.7432 35.7509 37.6586 36.1293C38.574 36.5078 39.4355 37.015 40.2426 37.6511C40.3322 37.7217 40.4211 37.794 40.5094 37.8679C40.556 37.9071 40.5938 37.9615 40.61 38.029C40.6262 38.0964 40.62 38.1708 40.5917 38.238C40.5634 38.3051 40.5147 38.3617 40.455 38.3976C40.3952 38.4336 40.3293 38.4456 40.2685 38.4404C40.1535 38.4301 40.0391 38.4181 39.9254 38.4047C38.9016 38.2839 37.9317 38.0342 37.0163 37.6557C36.1009 37.2773 35.2395 36.7702 34.4325 36.1342C34.3429 36.0636 34.254 35.991 34.1657 35.9172C34.1191 35.878 34.0814 35.8235 34.0651 35.756C34.0488 35.6886 34.0549 35.6143 34.0832 35.5471C34.1114 35.4799 34.1604 35.4232 34.2201 35.3871C34.2799 35.3511 34.3455 35.3394 34.4064 35.3447Z" fill="#1074CC"/>
<path d="M43.2733 24.592C43.3387 24.6002 43.3958 24.6319 43.4411 24.674C43.517 24.7452 43.5915 24.8174 43.6647 24.8903C44.3237 25.5475 44.87 26.2777 45.3026 27.0812C45.7353 27.8847 46.0546 28.7617 46.2609 29.7116C46.2838 29.8171 46.3055 29.9237 46.3256 30.0309C46.3373 30.0947 46.3351 30.1649 46.31 30.2316C46.2849 30.2982 46.2396 30.3559 46.1815 30.3935C46.1234 30.431 46.0553 30.4466 45.9899 30.4384C45.9245 30.4302 45.8674 30.3985 45.8222 30.3564C45.7462 30.2852 45.6717 30.2128 45.5985 30.1398C44.9395 29.4827 44.3935 28.7522 43.9608 27.9487C43.5282 27.1452 43.2088 26.2686 43.0026 25.3188C42.9797 25.2133 42.958 25.1065 42.9379 24.9992C42.9262 24.9354 42.9282 24.8654 42.9533 24.7988C42.9783 24.7321 43.0236 24.6745 43.0817 24.6369C43.1398 24.5993 43.2079 24.5838 43.2733 24.592Z" fill="#1074CC"/>
<path d="M60.1067 38.3684C63.536 35.8053 67.9087 36.0445 70.127 38.8376C70.2981 39.0552 70.2077 39.4115 69.947 39.6098L68.2481 40.8762C67.8383 41.1793 67.9248 41.7723 68.3859 41.8112L74.8774 42.361C75.1647 42.385 75.4534 42.1633 75.5237 41.8758L77.2218 35.2016C77.341 34.7289 76.8475 34.4485 76.4377 34.7517L74.7733 35.9971C74.5266 36.1837 74.2091 36.1568 74.0513 35.9442C70.5737 31.2308 63.4185 30.7436 57.8144 34.9275C55.5352 36.6276 53.8627 38.8462 52.8737 41.222C52.6923 41.6626 52.9171 42.0958 53.3547 42.1343L55.8571 42.344C56.4853 42.3953 57.1205 42.0077 57.4504 41.4027C58.08 40.266 58.9638 39.2172 60.0964 38.373L60.1067 38.3684Z" fill="#4397E0"/>
<path d="M80.7476 80C87.375 80 92.7476 74.6274 92.7476 68C92.7476 61.3726 87.375 56 80.7476 56C74.1201 56 68.7476 61.3726 68.7476 68C68.7476 74.6274 74.1201 80 80.7476 80Z" fill="#38B26A"/>
<path d="M85.5406 63.4192C85.8773 62.9815 86.5052 62.8995 86.9429 63.2361C87.3807 63.5729 87.4625 64.2007 87.1258 64.6385L80.9595 72.6546C80.3145 73.4931 79.0616 73.5264 78.3731 72.7232L74.9073 68.6797C74.5479 68.2604 74.5964 67.629 75.0157 67.2696C75.435 66.9102 76.0664 66.9587 76.4258 67.378L79.6246 71.1099L85.5406 63.4192Z" fill="white"/>
</svg>
