<svg width="24" height="24" viewBox="0 0 24 24" fill="none" xmlns="http://www.w3.org/2000/svg">
<path d="M12 2.625C17.1777 2.625 21.375 6.82233 21.375 12C21.375 12.2048 21.1268 12.3045 20.9687 12.1743C19.8894 11.2851 18.5077 10.75 17 10.75C13.5482 10.75 10.75 13.5482 10.75 17C10.75 18.5077 11.2851 19.8894 12.1743 20.9687C12.3045 21.1268 12.2048 21.375 12 21.375C6.82233 21.375 2.625 17.1777 2.625 12C2.625 6.82233 6.82233 2.625 12 2.625Z" fill="#1074CC"/>
<path d="M12 2C17.5228 2 22 6.47715 22 12C22 12.4414 21.4432 12.6269 21.1228 12.3232C20.9906 12.1978 20.8605 12.0827 20.749 11.999C20.7485 7.16698 16.8322 3.25 12 3.25C7.16751 3.25 3.25 7.16751 3.25 12C3.25 16.8325 7.16751 20.75 12 20.75C12.0994 20.8824 12.2041 21.0105 12.3137 21.1343C12.5964 21.4537 12.4265 22 12 22C6.47715 22 2 17.5228 2 12C2 6.47715 6.47715 2 12 2Z" fill="#045EB2"/>
<path d="M12.4636 4.80311C12.5527 4.78663 12.6476 4.80026 12.7272 4.84608C12.8066 4.89211 12.8654 4.96643 12.8903 5.05311C12.915 5.13994 12.9052 5.23477 12.862 5.31581C12.8187 5.39668 12.7451 5.45848 12.6608 5.49159C12.4455 5.57829 12.2384 5.68376 12.0397 5.80604C10.2665 6.95188 9.24305 9.01959 8.63446 11.0678C8.62535 11.0998 8.61601 11.1323 8.60712 11.1644C9.68709 11.6144 10.8154 11.9871 11.9401 12.3314C12.1702 12.3992 12.4012 12.4645 12.6325 12.5297C12.2609 12.8928 11.9341 13.3016 11.6618 13.7475C11.617 13.7345 11.5717 13.7235 11.527 13.7103C10.4357 13.3749 9.35044 12.9823 8.31024 12.4838C8.02244 14.1368 8.04672 15.8472 8.5329 17.4574C8.6032 17.687 8.68343 17.9155 8.77411 18.1391C8.81577 18.2411 8.82138 18.357 8.78485 18.4623C8.74816 18.5675 8.67308 18.6552 8.57489 18.7045C8.47679 18.7535 8.36161 18.7623 8.25555 18.7289C8.14942 18.6952 8.06045 18.6201 8.0036 18.5258C7.86589 18.294 7.73906 18.0542 7.62567 17.809C6.76319 15.9283 6.61834 13.7908 6.99286 11.7738C6.46716 11.4559 5.95676 11.1031 5.47137 10.7045C5.27143 10.5352 5.07938 10.3574 4.90106 10.1703C4.81908 10.0833 4.76903 9.96776 4.76532 9.84706C4.76193 9.72611 4.80561 9.60789 4.88641 9.51991C4.96744 9.43208 5.08101 9.37905 5.20184 9.37245C5.32281 9.36601 5.44218 9.40698 5.53583 9.48183C5.71004 9.61951 5.89603 9.75284 6.09052 9.88026C6.47536 10.1243 6.87574 10.3482 7.28583 10.557C7.97617 8.30051 9.34475 6.03735 11.6608 5.0414C11.9214 4.93681 12.1907 4.8562 12.4636 4.80311Z" fill="#A1D0F7"/>
<path d="M15.6501 5.77089C15.7417 5.77916 15.8268 5.82316 15.8903 5.88808C16.083 6.08854 16.2569 6.30879 16.4099 6.54433C17.205 7.83664 17.4521 9.30648 17.3649 10.7611C17.2441 10.7542 17.1222 10.7504 16.9997 10.7504C16.661 10.7504 16.3287 10.7776 16.0046 10.8295C16.1993 9.50486 16.1504 8.16684 15.6599 6.95253C15.5677 6.73812 15.4599 6.53215 15.3337 6.33729C15.2837 6.26169 15.2581 6.16864 15.2692 6.07753C15.2806 5.98666 15.3273 5.90381 15.3972 5.84706C15.4675 5.79037 15.5586 5.76281 15.6501 5.77089Z" fill="#A1D0F7"/>
<circle cx="17" cy="17" r="5" fill="black"/>
<path fill-rule="evenodd" clip-rule="evenodd" d="M17 13.5C18.0355 13.5 18.875 14.3395 18.875 15.375V16.3975H18.9805C19.4621 16.3975 19.8525 16.7879 19.8525 17.2695V18.9805C19.8525 19.4621 19.4621 19.8525 18.9805 19.8525H15.0195C14.5379 19.8525 14.1475 19.4621 14.1475 18.9805V17.2695C14.1475 16.7879 14.5379 16.3975 15.0195 16.3975H15.125V15.375C15.125 14.3395 15.9645 13.5 17 13.5ZM17 14.5C16.5168 14.5 16.125 14.8918 16.125 15.375V16.3975H17.875V15.375C17.875 14.8918 17.4832 14.5 17 14.5Z" fill="white"/>
</svg>
