<svg width="24" height="24" viewBox="0 0 24 24" fill="none" xmlns="http://www.w3.org/2000/svg">
<path d="M12 2.625C17.1207 2.625 21.2824 6.73055 21.3733 11.8296C20.1447 10.548 18.4156 9.75 16.5 9.75C12.7721 9.75 9.75 12.7721 9.75 16.5C9.75 18.4156 10.548 20.1447 11.8296 21.3733C6.73055 21.2824 2.625 17.1207 2.625 12C2.625 6.82233 6.82233 2.625 12 2.625Z" fill="#1074CC"/>
<path d="M12 2C17.5228 2 22 6.47715 22 12C22 12.1893 21.9945 12.3773 21.9841 12.564C21.6241 12.0632 21.1971 11.6137 20.7163 11.2286C20.3258 6.75743 16.5726 3.25 12 3.25C7.16751 3.25 3.25 7.16751 3.25 12C3.25 16.5726 6.75743 20.3258 11.2286 20.7163C11.6137 21.1971 12.0632 21.6241 12.564 21.9841C12.3773 21.9945 12.1893 22 12 22C6.47715 22 2 17.5228 2 12C2 6.47715 6.47715 2 12 2Z" fill="#045EB2"/>
<path d="M9.87912 17.8207C9.9337 18.0958 10.0051 18.3649 10.092 18.627C9.97519 18.6739 9.85546 18.7164 9.73251 18.7529C9.64335 18.7785 9.54431 18.7665 9.45871 18.7232C9.37306 18.6796 9.30782 18.6083 9.27585 18.5214C9.24389 18.4344 9.24754 18.3377 9.28463 18.249C9.32182 18.1606 9.38939 18.0874 9.47384 18.0491C9.61164 17.985 9.7471 17.9073 9.87912 17.8207ZM12.4621 4.94446C12.7352 4.91482 13.0103 4.90394 13.2843 4.91357C13.3775 4.91738 13.4681 4.95994 13.5357 5.02844C13.6034 5.09715 13.6426 5.1862 13.645 5.27942C13.6474 5.37264 13.6127 5.46355 13.5487 5.53564C13.4846 5.60751 13.3965 5.65474 13.3036 5.66333C13.0697 5.68601 12.8379 5.72818 12.6106 5.78674C11.7707 6.00384 11.0017 6.4361 10.3165 6.9613C10.2582 7.00605 10.2003 7.05167 10.1429 7.0979C9.22807 7.83715 8.49988 8.78703 7.91378 9.79956C7.91362 9.79985 7.91347 9.80024 7.9133 9.80054C7.56457 10.4049 7.26298 11.0434 7.03781 11.7061C7.16731 11.8262 7.29939 11.9445 7.43319 12.0608C8.28947 12.8021 9.24239 13.4354 10.2203 14.0192C10.0316 14.4965 9.89585 15.0006 9.82003 15.5241C8.68108 14.8532 7.63455 14.0301 6.69369 13.0895C6.68281 13.1594 6.67279 13.2295 6.66391 13.2998C6.55732 14.1551 6.55837 15.0349 6.78317 15.8734C6.84417 16.1001 6.92158 16.3226 7.01754 16.5372C7.0559 16.6219 7.05856 16.7217 7.02804 16.8127C6.99731 16.9039 6.93589 16.979 6.85421 17.0232C6.77255 17.0674 6.67623 17.0777 6.5831 17.0536C6.49015 17.0293 6.40792 16.9726 6.358 16.8942C6.21211 16.662 6.08299 16.4187 5.97091 16.1676C5.55729 15.2406 5.377 14.2118 5.41769 13.2013C5.43704 12.7309 5.49326 12.2625 5.58468 11.8014C5.20579 11.2821 4.87631 10.718 4.6484 10.0867C4.54872 9.80236 4.47248 9.50187 4.44711 9.18555C4.44061 9.09203 4.47307 8.99715 4.53402 8.92236C4.59517 8.84756 4.67983 8.79877 4.77267 8.7865C4.86549 8.77426 4.95996 8.79937 5.03842 8.85571C5.11667 8.91211 5.17265 8.99531 5.19064 9.08728C5.23712 9.31135 5.32529 9.53699 5.43673 9.75476C5.57597 10.0229 5.74569 10.2791 5.93539 10.5253C6.11665 10.0143 6.34358 9.51985 6.61459 9.05005C6.61479 9.04971 6.615 9.04929 6.6152 9.04895C7.3009 7.86474 8.26936 6.85134 9.40536 6.08874C9.47676 6.04088 9.54898 5.99427 9.62191 5.94897C10.4795 5.41631 11.4542 5.0541 12.4621 4.94446ZM16.1436 6.63074C16.2344 6.61508 16.3283 6.63595 16.4088 6.68799C16.489 6.74009 16.5493 6.81915 16.5722 6.90845C16.6339 7.16003 16.6685 7.4126 16.6872 7.66272C16.7369 8.37467 16.6714 9.07356 16.5349 9.75024C16.5232 9.75019 16.5116 9.75 16.5 9.75C16.0665 9.75 15.6426 9.79083 15.2319 9.8689C15.2519 9.8138 15.2719 9.75878 15.2915 9.70386C15.5291 9.03089 15.7459 8.34406 15.8204 7.65649C15.8423 7.44678 15.8493 7.23736 15.8331 7.03613C15.8247 6.94431 15.855 6.84942 15.9132 6.77344C15.9715 6.69747 16.0529 6.64641 16.1436 6.63074Z" fill="#A1D0F7"/>
<path d="M22 16.5C22 19.5376 19.5376 22 16.5 22C13.4624 22 11 19.5376 11 16.5C11 13.4624 13.4624 11 16.5 11C19.5376 11 22 13.4624 22 16.5Z" fill="black"/>
<path d="M13 20.9133C13 20.8453 13.0794 20.8076 13.1332 20.8492C13.1952 20.8973 13.1602 21 13.0818 21C13.037 21 13 20.9636 13 20.9188V20.9133ZM19.8668 20.8492C19.9206 20.8076 20 20.8453 20 20.9133V20.9188C20 20.9636 19.963 21 19.9182 21C19.8398 21 19.8048 20.8973 19.8668 20.8492ZM16.5 12.125C17.8807 12.125 19 13.2443 19 14.625V16H19.375C19.7202 16 20 16.2798 20 16.625V18.7164C20 18.8432 19.9625 18.9679 19.8857 19.0688C19.1096 20.0903 17.8819 20.75 16.5 20.75C15.1181 20.75 13.8904 20.0903 13.1143 19.0688C13.0375 18.9679 13 18.8432 13 18.7164V16.625C13 16.2798 13.2798 16 13.625 16H14V14.625C14 13.2443 15.1193 12.125 16.5 12.125ZM16.5 17.25C16.2239 17.25 16 17.4739 16 17.75V18.75C16 19.0261 16.2239 19.25 16.5 19.25C16.7761 19.25 17 19.0261 17 18.75V17.75C17 17.4739 16.7761 17.25 16.5 17.25ZM16.5 13.125C15.6716 13.125 15 13.7966 15 14.625V16H18V14.625C18 13.7966 17.3284 13.125 16.5 13.125Z" fill="white"/>
</svg>
