<svg width="16" height="16" viewBox="0 0 16 16" fill="none" xmlns="http://www.w3.org/2000/svg">
<path d="M15.5 8C15.5 12.1421 12.1421 15.5 8 15.5C3.85786 15.5 0.5 12.1421 0.5 8C0.5 3.85786 3.85786 0.5 8 0.5C12.1421 0.5 15.5 3.85786 15.5 8Z" fill="#38B26A"/>
<path fill-rule="evenodd" clip-rule="evenodd" d="M11.8536 5.7402C12.0488 5.93546 12.0488 6.25204 11.8536 6.4473L6.85355 11.4473C6.65829 11.6426 6.34171 11.6426 6.14645 11.4473L4.14645 9.4473C3.95118 9.25204 3.95118 8.93546 4.14645 8.7402C4.34171 8.54493 4.65829 8.54493 4.85355 8.7402L6.5 10.3866L11.1464 5.7402C11.3417 5.54493 11.6583 5.54493 11.8536 5.7402Z" fill="#006B4B"/>
<path fill-rule="evenodd" clip-rule="evenodd" d="M11.8536 4.97457C12.0488 5.16983 12.0488 5.48642 11.8536 5.68168L6.85355 10.6817C6.65829 10.8769 6.34171 10.8769 6.14645 10.6817L4.14645 8.68168C3.95118 8.48642 3.95118 8.16983 4.14645 7.97457C4.34171 7.77931 4.65829 7.77931 4.85355 7.97457L6.5 9.62102L11.1464 4.97457C11.3417 4.77931 11.6583 4.77931 11.8536 4.97457Z" fill="white"/>
<path fill-rule="evenodd" clip-rule="evenodd" d="M8 1C4.13401 1 1 4.13401 1 8C1 11.866 4.13401 15 8 15C11.866 15 15 11.866 15 8C15 4.13401 11.866 1 8 1ZM0 8C0 3.58172 3.58172 0 8 0C12.4183 0 16 3.58172 16 8C16 12.4183 12.4183 16 8 16C3.58172 16 0 12.4183 0 8Z" fill="#006B4B"/>
</svg>
