<svg width="96" height="96" viewBox="0 0 96 96" fill="none" xmlns="http://www.w3.org/2000/svg">
<path d="M39.4425 17.6941C40.6289 14.7391 43.6609 12.9577 46.8197 13.3601L70.1191 16.3282C75.0006 16.95 77.98 22.0146 76.1523 26.5835L65.4443 53.3492C64.9691 53.3027 64.4873 53.2788 63.9999 53.2788C55.8998 53.2789 49.3334 59.8454 49.3334 67.9456C49.3334 71.9486 50.9373 75.5767 53.5373 78.2232C51.7629 79.3248 49.6229 79.831 47.4369 79.5525L25.1877 76.7181C20.6432 76.1391 17.872 71.4218 19.5788 67.1704L39.4425 17.6941Z" fill="#75B6EB"/>
<path d="M39.4788 18.0401C40.7722 14.8979 44.0117 13.0129 47.3826 13.4412L68.1346 16.0782C71.9843 16.5673 74.2995 20.6006 72.7806 24.1717L60.1866 53.7798C53.9354 55.4585 49.3333 61.1647 49.3333 67.9458C49.3333 69.8187 49.6844 71.6095 50.3243 73.2561C49.0433 73.9792 47.5352 74.3015 45.9981 74.1082L25.4502 71.5247C21.625 71.0437 19.3027 67.0587 20.7701 63.4935L39.4788 18.0401Z" fill="#F5FBFE"/>
<path d="M29.9598 39.4704C30.1165 39.087 30.5544 38.9033 30.9379 39.0598C31.3212 39.2164 31.5051 39.6542 31.3485 40.0376L20.4242 66.7917C18.8367 70.6798 21.2438 75.0392 25.3771 75.7693L47.3302 78.5017L47.5194 78.5212C49.395 78.6957 51.2222 78.278 52.7858 77.3977C53.1166 77.7898 53.4677 78.1642 53.8373 78.5195C51.8867 79.7086 49.5521 80.2648 47.1603 79.9919L47.1564 79.9917L47.1527 79.9912L25.1696 77.2551L25.1513 77.2529L25.1332 77.2497C20.0483 76.3624 17.0843 71.0033 19.0355 66.2246L29.9598 39.4704Z" fill="#045EB2"/>
<path d="M35.0653 72.497C35.8235 72.5625 36.5825 72.6232 37.3412 72.6843C38.7182 72.7952 40.0954 72.9074 41.4686 73.0495C42.4318 73.1492 43.3953 73.2476 44.3576 73.3452C44.9748 73.4066 45.5923 73.4678 46.2096 73.529C47.5775 73.6802 48.9477 73.3388 50.1046 72.6506C50.2492 73.0777 50.4133 73.4958 50.5951 73.9043C49.2067 74.6241 47.6125 74.9328 46.0707 74.6975C45.4563 74.6126 44.8418 74.5275 44.2262 74.4426C43.2673 74.3083 42.3082 74.1745 41.349 74.0422C39.9813 73.8536 38.617 73.6349 37.2531 73.415C36.5016 73.2939 35.7501 73.1725 34.9982 73.0556C34.927 73.0445 34.8618 73.0046 34.8175 72.9463C34.7733 72.8878 34.7532 72.8152 34.7619 72.7436C34.7705 72.6721 34.8073 72.6065 34.8641 72.5603C34.921 72.5141 34.9935 72.4909 35.0653 72.497Z" fill="#045EB2"/>
<path d="M32.8139 71.9741C32.9702 71.9871 33.1219 72.059 33.2684 72.1897C33.2847 72.2042 33.3009 72.2196 33.317 72.2356C33.363 72.2818 33.4071 72.3286 33.4381 72.3786C33.4691 72.4288 33.4846 72.4803 33.4804 72.5315C33.476 72.5826 33.4521 72.6307 33.4132 72.675C33.3743 72.7192 33.3233 72.7581 33.2704 72.7961C33.2518 72.8092 33.2332 72.8216 33.2147 72.8332C33.0486 72.9378 32.8872 72.9837 32.7308 72.9707C32.5745 72.9576 32.423 72.8855 32.2765 72.7549C32.2602 72.7404 32.2438 72.7251 32.2277 72.7092C32.1817 72.663 32.1379 72.6162 32.1068 72.5661C32.0758 72.5159 32.0603 72.4645 32.0646 72.4133C32.0689 72.3621 32.0926 72.3141 32.1315 72.2697C32.1704 72.2255 32.2216 72.1866 32.2745 72.1487C32.2931 72.1356 32.3116 72.1231 32.33 72.1115C32.4961 72.0069 32.6575 71.9611 32.8139 71.9741Z" fill="#045EB2"/>
<path d="M63.3429 46.2761C63.4114 46.2494 63.4873 46.2505 63.5543 46.2793C63.6213 46.3081 63.6747 46.3625 63.7025 46.4306C63.7303 46.4987 63.7301 46.575 63.7042 46.6433C63.4338 47.3549 63.1616 48.066 62.8881 48.7763C62.2696 50.3823 61.6431 51.9847 61.0084 53.5837C60.5436 53.68 60.0869 53.7983 59.6393 53.9375C60.482 52.1137 61.3356 50.2947 62.2003 48.4804C62.5278 47.7934 62.8568 47.1066 63.1874 46.4209C63.2191 46.3552 63.2744 46.3028 63.3429 46.2761Z" fill="#045EB2"/>
<path d="M38.6149 18.2253C40.0608 14.7156 43.6242 12.5675 47.3903 12.9133L47.57 12.9316L47.5729 12.9321L47.5758 12.9323L69.7142 15.6069L69.7191 15.6074C75.3048 16.319 78.7274 22.0988 76.6661 27.3388L76.6652 27.3415L76.6639 27.3442L66.1742 53.4384C65.6632 53.3625 65.1436 53.313 64.6168 53.2912L75.2701 26.7898C76.9729 22.4612 74.1474 17.6868 69.5346 17.0959L47.3959 14.4216C44.2315 14.0675 41.2147 15.8519 40.0016 18.7964L32.682 36.5637C32.5242 36.9466 32.0859 37.1291 31.703 36.9714C31.3201 36.8136 31.1376 36.3751 31.2953 35.9922L38.6149 18.2253Z" fill="#045EB2"/>
<path d="M52.2208 17.4316C52.3458 17.4438 52.4709 17.4558 52.5958 17.468C54.8463 17.6873 57.097 17.9068 59.3475 18.1262C59.4725 18.1384 59.5978 18.1504 59.7228 18.1626C59.9208 18.1818 60.1011 18.2792 60.2235 18.436C60.3459 18.5926 60.4007 18.7959 60.3759 18.9983C60.351 19.2006 60.2486 19.3849 60.0919 19.5073C59.9352 19.6298 59.7367 19.6805 59.5399 19.6513C59.4157 19.633 59.2913 19.6148 59.1671 19.5964L52.0839 18.5481C51.9399 18.5267 51.8089 18.4477 51.7196 18.3305C51.6303 18.2133 51.5901 18.0672 51.6078 17.9228C51.6255 17.7785 51.7 17.6469 51.8148 17.5547C51.9298 17.4626 52.076 17.4176 52.2208 17.4316Z" fill="#045EB2"/>
<path d="M34.1022 64.2519C34.7674 62.4062 36.7337 61.1844 38.496 61.5217C40.2583 61.859 41.147 63.6271 40.4818 65.4728C39.8166 67.3186 37.8504 68.5404 36.088 68.2031C34.3257 67.8657 33.437 66.0976 34.1022 64.2519Z" fill="#1074CC"/>
<path d="M23.0368 47.3112C23.1022 47.3098 23.1698 47.3223 23.2282 47.3566C23.2865 47.3909 23.3307 47.4438 23.352 47.5063C23.3732 47.5687 23.3706 47.6377 23.3456 47.7011C23.3206 47.7646 23.2749 47.8168 23.2226 47.8566C23.1389 47.9198 23.0545 47.9818 22.9699 48.0419C22.2075 48.5835 21.4032 49.0025 20.5573 49.2988C19.7112 49.595 18.8231 49.7687 17.8935 49.8195C17.7902 49.8252 17.6862 49.8291 17.5819 49.8317C17.5165 49.8331 17.4489 49.8207 17.3905 49.7863C17.3322 49.752 17.2881 49.6994 17.2667 49.6369C17.2455 49.5745 17.2482 49.5055 17.2731 49.4421C17.2981 49.3786 17.3438 49.3264 17.3961 49.2866C17.4798 49.2234 17.5639 49.1614 17.6486 49.1013C18.411 48.5596 19.2154 48.1404 20.0614 47.8442C20.9075 47.5479 21.7955 47.3743 22.7252 47.3234C22.8285 47.3178 22.9325 47.3138 23.0368 47.3112Z" fill="#1074CC"/>
<path d="M17.6588 35.3447C17.7739 35.3549 17.8886 35.3666 18.0023 35.3801C19.0261 35.5009 19.9956 35.7509 20.911 36.1293C21.8265 36.5078 22.6879 37.015 23.495 37.6511C23.5846 37.7217 23.6736 37.794 23.7619 37.8679C23.8085 37.9071 23.8462 37.9615 23.8624 38.029C23.8787 38.0964 23.8724 38.1708 23.8441 38.238C23.8158 38.3051 23.7671 38.3617 23.7074 38.3976C23.6476 38.4336 23.5818 38.4456 23.5209 38.4404C23.4059 38.4301 23.2915 38.4181 23.1779 38.4047C22.1541 38.2839 21.1841 38.0342 20.2687 37.6557C19.3533 37.2773 18.492 36.7702 17.685 36.1342C17.5953 36.0636 17.5064 35.991 17.4181 35.9172C17.3715 35.878 17.3338 35.8235 17.3175 35.756C17.3013 35.6886 17.3073 35.6143 17.3356 35.5471C17.3639 35.4799 17.4128 35.4232 17.4726 35.3871C17.5323 35.3511 17.5979 35.3394 17.6588 35.3447Z" fill="#1074CC"/>
<path d="M26.5258 24.592C26.5912 24.6002 26.6482 24.6319 26.6935 24.674C26.7695 24.7452 26.844 24.8174 26.9171 24.8903C27.5762 25.5475 28.1224 26.2777 28.5551 27.0812C28.9877 27.8847 29.3071 28.7617 29.5133 29.7116C29.5362 29.8171 29.5579 29.9237 29.578 30.0309C29.5897 30.0947 29.5875 30.1649 29.5624 30.2316C29.5373 30.2982 29.4921 30.3559 29.434 30.3935C29.3759 30.431 29.3077 30.4466 29.2423 30.4384C29.177 30.4302 29.1199 30.3985 29.0746 30.3564C28.9986 30.2852 28.9242 30.2128 28.851 30.1398C28.1919 29.4827 27.6459 28.7522 27.2133 27.9487C26.7807 27.1452 26.4613 26.2686 26.255 25.3188C26.2321 25.2133 26.2104 25.1065 26.1903 24.9992C26.1786 24.9354 26.1807 24.8654 26.2057 24.7988C26.2307 24.7321 26.2761 24.6745 26.3341 24.6369C26.3923 24.5993 26.4604 24.5838 26.5258 24.592Z" fill="#1074CC"/>
<path d="M42.5142 65.4379C43.1794 63.5922 45.1459 62.3703 46.9082 62.7076C48.6705 63.045 49.5593 64.8133 48.8941 66.659C48.2289 68.5048 46.2624 69.7266 44.5 69.3893C42.7378 69.0519 41.849 67.2835 42.5142 65.4379Z" fill="#4397E0"/>
<path d="M25.8116 63.0995C26.4768 61.2538 28.4433 60.0319 30.2056 60.3693C31.9679 60.7066 32.8566 62.475 32.1914 64.3207C31.5262 66.1664 29.5597 67.3882 27.7974 67.0509C26.0352 66.7135 25.1464 64.9452 25.8116 63.0995Z" fill="#4397E0"/>
<path d="M43.2112 24.2032C43.6539 22.8302 45.0565 22.0522 46.4432 22.1981L64.3702 23.9955C65.7568 24.1414 66.604 25.3703 66.2622 26.7403C65.9205 28.1104 64.5193 29.1028 63.1326 28.9569L45.0025 26.9513C43.6158 26.8054 42.7685 25.5763 43.2112 24.2032Z" fill="#4397E0"/>
<path d="M64 80C70.6274 80 76 74.6274 76 68C76 61.3726 70.6274 56 64 56C57.3726 56 52 61.3726 52 68C52 74.6274 57.3726 80 64 80Z" fill="black"/>
<path fill-rule="evenodd" clip-rule="evenodd" d="M62.0792 74.8496C62.0792 75.6088 62.6947 76.2246 63.4539 76.2246H64.5461C65.3053 76.2246 65.9207 75.6087 65.9207 74.8496C65.9207 73.6983 67.2516 73.0567 68.1516 73.7746C68.7449 74.248 69.6098 74.1506 70.0829 73.557L70.7643 72.702C71.2376 72.1083 71.14 71.2432 70.5464 70.7697C69.6461 70.0514 69.9746 68.6106 71.0974 68.3542C71.8376 68.1851 72.3007 67.4481 72.1317 66.7079L71.8884 65.6414C71.7195 64.9013 70.9826 64.4383 70.2425 64.6074C69.1201 64.8637 68.1993 63.7081 68.6985 62.6706C69.0278 61.9865 68.7405 61.1645 68.0565 60.835L67.0717 60.3607C66.3881 60.0314 65.5668 60.3188 65.2377 61.0026C64.7385 62.04 63.2613 62.04 62.7621 61.0027C62.433 60.3189 61.6118 60.0315 60.9281 60.3608L59.9435 60.8351C59.2594 61.1646 58.9721 61.9866 59.3013 62.6708C59.8007 63.7083 58.8798 64.8641 57.7572 64.6077C57.0171 64.4386 56.2801 64.9017 56.1112 65.6418L55.8678 66.7082C55.6989 67.4484 56.162 68.1854 56.9021 68.3544C58.0248 68.6109 58.3532 70.0517 57.4529 70.7699C56.8594 71.2434 56.7617 72.1085 57.235 72.7023L57.9162 73.557C58.3894 74.1507 59.2544 74.2482 59.8479 73.7747C60.748 73.0566 62.0792 73.6981 62.0792 74.8496ZM63.9996 64.6032C62.1203 64.6032 60.5968 66.1274 60.5968 68.0076C60.5968 69.8877 62.1203 71.4119 63.9996 71.4119C65.879 71.4119 67.4025 69.8877 67.4025 68.0076C67.4025 66.1274 65.879 64.6032 63.9996 64.6032Z" fill="white"/>
</svg>
