<svg width="24" height="24" viewBox="0 0 24 24" fill="none" xmlns="http://www.w3.org/2000/svg">
<path d="M0 8.4C0 5.45972 0 3.98959 0.572216 2.86655C1.07555 1.8787 1.8787 1.07555 2.86655 0.572216C3.98959 0 5.45972 0 8.4 0H15.6C18.5403 0 20.0104 0 21.1334 0.572216C22.1213 1.07555 22.9244 1.8787 23.4278 2.86655C24 3.98959 24 5.45972 24 8.4V15.6C24 18.5403 24 20.0104 23.4278 21.1334C22.9244 22.1213 22.1213 22.9244 21.1334 23.4278C20.0104 24 18.5403 24 15.6 24H8.4C5.45972 24 3.98959 24 2.86655 23.4278C1.8787 22.9244 1.07555 22.1213 0.572216 21.1334C0 20.0104 0 18.5403 0 15.6V8.4Z" fill="#DE5833"/>
<path fill-rule="evenodd" clip-rule="evenodd" d="M14.5487 22.0815C14.0736 21.1576 13.6192 20.3076 13.3371 19.7453C12.5874 18.244 11.8339 16.1275 12.1766 14.7625C12.2391 14.5145 11.4705 5.57876 10.9271 5.291C10.3232 4.96917 9.58015 4.45863 8.9005 4.34504C8.55567 4.28986 8.10354 4.316 7.75009 4.3636C7.68727 4.37206 7.68467 4.48497 7.74471 4.50531C7.97675 4.58393 8.25852 4.72043 8.42457 4.92681C8.456 4.96587 8.41382 5.02731 8.36371 5.02917C8.20719 5.03496 7.92322 5.10058 7.54857 5.4188C7.50524 5.4556 7.54123 5.52394 7.597 5.51291C8.40217 5.35362 9.22445 5.4321 9.70905 5.87256C9.74049 5.90114 9.72405 5.95243 9.68305 5.96357C5.47771 7.10639 6.31019 10.7645 7.4297 15.2538C8.48453 19.4836 8.98485 21.1519 9.04514 21.3499C9.0492 21.3632 9.05661 21.3734 9.0688 21.3801C9.93556 21.8558 14.493 22.1446 14.2997 21.6L14.5487 22.0815Z" fill="#DDDDDD"/>
<path d="M14.2199 21.3302C13.7096 21.5299 12.6583 21.6357 12.0815 21.6357C11.2358 21.6357 10.0609 21.5095 9.61723 21.3099C9.34321 20.4666 8.48765 17.7577 7.67781 14.438C7.65131 14.3294 7.62484 14.2213 7.5985 14.1137L7.59784 14.111C6.63511 10.1787 5.84878 6.96684 10.1584 5.95783C10.1978 5.94861 10.2171 5.9015 10.191 5.87056C9.69653 5.28395 8.77021 5.09169 7.59893 5.49576C7.55089 5.51234 7.50918 5.4639 7.53902 5.42276C7.7687 5.10618 8.21755 4.86276 8.43913 4.75606C8.48493 4.734 8.48215 4.66694 8.43363 4.65175C8.28869 4.60638 8.04191 4.53695 7.76432 4.49215C7.69864 4.48155 7.69272 4.36899 7.75865 4.36012C9.41915 4.13672 11.1531 4.63524 12.0232 5.73131C12.0314 5.74163 12.0433 5.74885 12.0562 5.75161C15.2425 6.43589 15.4706 11.4728 15.1036 11.7022C15.0312 11.7474 14.7993 11.7215 14.4934 11.6873C13.2536 11.5485 10.7985 11.2739 12.8248 15.0501C12.8448 15.0874 12.8183 15.1368 12.7765 15.1433C11.6338 15.3209 13.1437 18.9718 14.2199 21.3302Z" fill="white"/>
<path d="M15.5995 16.6802C15.357 16.5678 14.4243 17.2366 13.8053 17.7501C13.6759 17.567 13.4319 17.434 12.8817 17.5297C12.4001 17.6134 12.1342 17.7295 12.0156 17.9297C11.2555 17.6415 9.97664 17.1968 9.6677 17.6263C9.33 18.0958 9.7521 20.317 10.2006 20.6054C10.4348 20.756 11.5549 20.036 12.1399 19.5395C12.2342 19.6725 12.3862 19.7486 12.6985 19.7414C13.1709 19.7304 13.9371 19.6205 14.056 19.4005C14.0632 19.3871 14.0695 19.3713 14.0748 19.3533C14.676 19.578 15.7341 19.8158 15.9705 19.7803C16.5865 19.6878 15.8847 16.8123 15.5995 16.6802Z" fill="#3CA82B"/>
<path d="M13.8619 17.8158C13.8875 17.8613 13.908 17.9093 13.9254 17.958C14.0111 18.1977 14.1507 18.9603 14.0451 19.1487C13.9396 19.337 13.2537 19.428 12.8306 19.4353C12.4075 19.4426 12.3122 19.2878 12.2265 19.0481C12.1579 18.8564 12.1242 18.4055 12.125 18.1474C12.1077 17.7645 12.2476 17.6298 12.8942 17.5252C13.3728 17.4478 13.6258 17.5378 13.7718 17.692C14.4512 17.1849 15.5848 16.4693 15.6953 16.6001C16.2466 17.2522 16.3163 18.8046 16.1969 19.4291C16.1579 19.6333 14.3325 19.2268 14.3325 19.0066C14.3325 18.0923 14.0952 17.8415 13.8619 17.8158Z" fill="#4CBA3C"/>
<path d="M9.86328 17.5303C10.0128 17.2937 11.2252 17.5879 11.8907 17.8841C11.8907 17.8841 11.754 18.5037 11.9717 19.2337C12.0354 19.4472 10.4405 20.3976 10.2324 20.2341C9.9918 20.0451 9.54903 18.0276 9.86328 17.5303Z" fill="#4CBA3C"/>
<path fill-rule="evenodd" clip-rule="evenodd" d="M10.4504 12.7238C10.5485 12.2972 11.0054 11.4935 12.6372 11.513C13.4621 11.5096 14.4869 11.5126 15.1662 11.4355C16.176 11.3208 16.9255 11.0765 17.4249 10.8861C18.1313 10.6167 18.3819 10.6768 18.4698 10.838C18.5664 11.0152 18.4526 11.3211 18.2058 11.6027C17.7343 12.1407 16.8868 12.5575 15.39 12.6812C13.8932 12.8049 12.9016 12.4034 12.4747 13.0571C12.2906 13.339 12.4329 14.0035 13.8805 14.2128C15.8365 14.4951 17.443 13.8726 17.6415 14.2486C17.84 14.6245 16.6966 15.3893 14.7373 15.4053C12.7781 15.4214 11.5544 14.7194 11.1204 14.3705C10.5698 13.9278 10.3234 13.2821 10.4504 12.7238Z" fill="#FFCC33"/>
<g opacity="0.8">
<path d="M12.9455 8.05962C13.0548 7.88067 13.2972 7.74255 13.6937 7.74255C14.0903 7.74255 14.2769 7.90036 14.406 8.07634C14.4323 8.11213 14.3925 8.15426 14.3517 8.13664C14.342 8.13241 14.332 8.12807 14.3219 8.12367C14.1769 8.06032 13.9988 7.98254 13.6937 7.9782C13.3674 7.97356 13.1617 8.05528 13.0321 8.12572C12.9885 8.14945 12.9196 8.10203 12.9455 8.05962Z" fill="#14307E"/>
<path d="M8.48072 8.28855C8.8658 8.12762 9.16845 8.14843 9.38241 8.19904C9.42746 8.20969 9.45877 8.16122 9.42274 8.13216C9.25667 7.99821 8.885 7.83192 8.40025 8.01267C7.96784 8.17392 7.76402 8.50892 7.76282 8.72918C7.76253 8.78109 7.86933 8.78549 7.89695 8.74155C7.97158 8.62283 8.09563 8.44948 8.48072 8.28855Z" fill="#14307E"/>
<path fill-rule="evenodd" clip-rule="evenodd" d="M14.0306 10.5076C13.6901 10.5076 13.414 10.2322 13.414 9.89329C13.414 9.55436 13.6901 9.27898 14.0306 9.27898C14.371 9.27898 14.6472 9.55436 14.6472 9.89329C14.6472 10.2322 14.371 10.5076 14.0306 10.5076ZM14.4648 9.68978C14.4648 9.60202 14.393 9.53091 14.3052 9.53091C14.2175 9.53091 14.1463 9.60202 14.1456 9.68978C14.1456 9.77754 14.2175 9.84865 14.3052 9.84865C14.3937 9.84865 14.4648 9.77754 14.4648 9.68978Z" fill="#14307E"/>
<path fill-rule="evenodd" clip-rule="evenodd" d="M9.94541 10.3184C9.94541 10.7141 9.62388 11.0349 9.2267 11.0349C8.83028 11.0349 8.50799 10.7141 8.50799 10.3184C8.50799 9.92277 8.83028 9.60199 9.2267 9.60199C9.62313 9.60199 9.94541 9.92277 9.94541 10.3184ZM9.73358 10.0809C9.73358 9.97875 9.65036 9.89553 9.54747 9.89553C9.44534 9.89553 9.36212 9.978 9.36136 10.0809C9.36136 10.183 9.44458 10.2662 9.54747 10.2662C9.65036 10.2662 9.73358 10.183 9.73358 10.0809Z" fill="#14307E"/>
</g>
<path fill-rule="evenodd" clip-rule="evenodd" d="M12.0001 21.4728C17.2639 21.4728 21.5312 17.2056 21.5312 11.9417C21.5312 6.67783 17.2639 2.41061 12.0001 2.41061C6.73618 2.41061 2.46896 6.67783 2.46896 11.9417C2.46896 17.2056 6.73618 21.4728 12.0001 21.4728ZM12.0001 22.3689C17.7588 22.3689 22.4272 17.7005 22.4272 11.9417C22.4272 6.18294 17.7588 1.51453 12.0001 1.51453C6.24129 1.51453 1.57288 6.18294 1.57288 11.9417C1.57288 17.7005 6.24129 22.3689 12.0001 22.3689Z" fill="white"/>
</svg>
