<svg width="24" height="24" viewBox="0 0 24 24" fill="none" xmlns="http://www.w3.org/2000/svg">
<path d="M14.4062 2.625C16.7362 2.625 18.625 4.51381 18.625 6.84378V10.3119C18.625 10.6408 18.3124 10.8797 17.9876 10.828C17.666 10.7768 17.3361 10.7501 17 10.7501C13.5482 10.7501 10.75 13.5483 10.75 17.0001C10.75 17.6872 10.861 18.3483 11.0658 18.9667C11.1552 19.2363 11.0285 19.5367 10.7725 19.6596C9.9972 20.0316 9.25871 20.5517 8.52344 20.9679C7.11726 21.7639 5.375 20.7478 5.375 19.132V6.84378C5.375 4.51381 7.2638 2.625 9.59375 2.625H14.4062Z" fill="#4397E0"/>
<path d="M14.4062 2C17.0814 2 19.25 4.1686 19.25 6.84371V10.1473C19.25 10.6389 18.7535 10.9796 18.2721 10.88C18.1821 10.8614 18.0914 10.8447 18 10.83V6.84371C18 4.85895 16.391 3.24999 14.4062 3.24999H9.59375C7.60898 3.24999 6 4.85895 6 6.84371V19.244C6 20.383 7.23017 21.0981 8.21973 20.534L10.6982 19.1209C10.8159 19.0539 10.9375 18.9963 11.0615 18.9481C11.107 19.0868 11.1571 19.2233 11.2118 19.3575C11.3813 19.774 11.2441 20.2701 10.8495 20.4857C10.575 20.6358 10.2799 20.7984 10.0781 20.9134L8.83887 21.6199C7.01599 22.6591 4.75 21.3423 4.75 19.244V6.84371C4.75 4.1686 6.91862 2 9.59375 2H14.4062Z" fill="#045EB2"/>
<path d="M22 17C22 19.7614 19.7614 22 17 22C14.2386 22 12 19.7614 12 17C12 14.2386 14.2386 12 17 12C19.7614 12 22 14.2386 22 17Z" fill="#38B26A"/>
<path fill-rule="evenodd" clip-rule="evenodd" d="M17 12C19.7614 12 22 14.2386 22 17C22 19.7614 19.7614 22 17 22C14.2386 22 12 19.7614 12 17C12 14.2386 14.2386 12 17 12ZM17 13.25C14.9289 13.25 13.25 14.9289 13.25 17C13.25 19.0711 14.9289 20.75 17 20.75C19.0711 20.75 20.75 19.0711 20.75 17C20.75 14.9289 19.0711 13.25 17 13.25Z" fill="#138356"/>
<path d="M18.4331 15.4643C18.6771 15.2202 19.0728 15.2202 19.3168 15.4643C19.5609 15.7084 19.5609 16.104 19.3168 16.3481L16.9731 18.6918C16.729 18.9359 16.3334 18.9359 16.0893 18.6918L14.6831 17.2856C14.439 17.0415 14.439 16.6459 14.6831 16.4018C14.9195 16.1654 15.2982 16.1579 15.5435 16.3796L15.5668 16.4018L16.5312 17.3662L18.4331 15.4643Z" fill="white"/>
</svg>
