<svg width="128" height="96" viewBox="0 0 128 96" fill="none" xmlns="http://www.w3.org/2000/svg">
<path d="M40.4928 24.56C50.3853 14.6295 66.4551 14.5985 76.3856 24.4909L78.2018 26.3002C87.3112 35.3747 88.0901 49.6468 80.5209 59.6103C83.5665 61.8977 90.3686 67.3248 92.7831 69.4807C95.5831 71.9807 98.3832 74.1808 99.1833 76.3808C99.9832 78.5808 98.5832 81.9809 96.3832 82.9809C94.1832 83.9809 91.083 83.2808 89.683 81.8808C85.2226 77.0239 76.9504 66.783 75.3246 64.7331C65.4086 72.0414 51.3742 71.2236 42.3781 62.2619L40.5619 60.4526C30.6314 50.5601 30.6005 34.4905 40.4928 24.56Z" fill="#4397E0"/>
<path d="M46.8125 60.1804C41.1238 41.9421 55.2815 28.7196 66.0992 25.7691C67.4031 25.4135 67.9363 23.8058 66.7626 23.1357C60.2036 19.391 48.2748 20.1367 41.5128 28.4567C33.7046 38.0638 35.6211 54.4046 46.8125 60.1804Z" fill="#75B6EB"/>
<path d="M92.3697 74.9822C93.0995 74.5711 93.9465 74.411 94.7477 74.4826C94.8811 74.4939 95.0086 74.5115 95.14 74.5344C95.1938 74.5446 95.2465 74.5675 95.2867 74.6059C95.3269 74.6444 95.3515 74.6947 95.3551 74.7478C95.3587 74.8009 95.3411 74.8541 95.3065 74.8977C95.2719 74.9412 95.2229 74.9711 95.171 74.9885C95.0519 75.0286 94.9398 75.0689 94.8246 75.1106C94.1319 75.364 93.5082 75.6438 92.9244 75.9709C92.3796 76.2761 91.9027 76.6881 91.5297 77.1841C91.1254 77.7203 90.6937 78.2966 90.4618 79.0056C90.4249 79.1186 90.3934 79.2341 90.3688 79.3513C90.36 79.3936 90.3328 79.4332 90.2963 79.4612C90.2596 79.4891 90.2165 79.5032 90.1735 79.5005C90.1304 79.4976 90.0895 79.4778 90.0568 79.4453C90.0242 79.4128 90.0023 79.3702 89.9991 79.3271C89.9906 79.198 89.985 79.0676 89.9835 78.9363C89.9709 78.1255 90.136 77.2378 90.6361 76.5337C91.0882 75.8935 91.69 75.3623 92.3697 74.9822Z" fill="#045EB2"/>
<path d="M56.9654 20.4748C58.7058 20.4278 60.4488 20.5938 62.142 20.9695C62.2141 20.9855 62.2777 21.0289 62.3185 21.0908C62.3592 21.1528 62.3739 21.2283 62.3592 21.3008C62.3445 21.3732 62.3015 21.4369 62.2399 21.478C62.1782 21.5191 62.1028 21.5343 62.0301 21.521C60.3697 21.2157 58.6757 21.1141 56.9974 21.2148C51.7973 21.5104 46.7915 23.8279 43.2093 27.5351C36.1426 34.5138 35.29 46.6486 41.4222 54.3725C41.9655 55.0803 42.5506 55.7463 43.1832 56.3779C50.6677 64.203 64.4473 64.1041 72.0721 56.2881C74.4813 53.9384 76.3258 51 77.3773 47.7788C77.901 46.1811 78.2335 44.5168 78.3632 42.8332C78.3688 42.7596 78.4024 42.6906 78.4579 42.6416C78.5135 42.5925 78.5863 42.5672 78.66 42.5715C78.7338 42.5759 78.803 42.6093 78.8524 42.6645C78.9019 42.7198 78.9274 42.7924 78.9244 42.8662C78.8546 44.5986 78.5724 46.3264 78.0848 47.9978C77.107 51.3669 75.2741 54.4958 72.8107 57.0237C65.0386 65.457 50.2088 65.8661 42.1268 57.4387C41.4463 56.7619 40.8162 56.0468 40.232 55.2856C33.6144 46.9622 34.7406 33.9032 42.3783 26.7075C46.2423 22.8754 51.5754 20.6009 56.9654 20.4748Z" fill="#045EB2"/>
<path fill-rule="evenodd" clip-rule="evenodd" d="M39.9615 24.0305C50.1463 13.8066 66.691 13.7749 76.9149 23.9597L78.7311 25.7688C87.927 34.9295 88.8763 49.2346 81.5633 59.4585C84.8502 61.9622 91.0014 66.8848 93.2821 68.9211C94.6567 70.1485 96.0922 71.3547 97.2601 72.51C98.4235 73.6608 99.4276 74.8589 99.8878 76.1245C100.372 77.456 100.171 79.0586 99.5992 80.4211C99.0263 81.7852 98.0164 83.0621 96.6932 83.6636C95.4203 84.2421 93.9323 84.3138 92.5973 84.0686C91.2685 83.8245 89.9886 83.2474 89.1522 82.4111C89.1447 82.4036 89.1374 82.396 89.1302 82.3882C84.9686 77.8565 77.5234 68.6833 75.1813 65.7571C65.0116 72.8259 50.9343 71.8442 41.8485 62.7932L40.0326 60.9839C29.8086 50.7991 29.7768 34.2545 39.9615 24.0305ZM78.9589 59.3992C78.1619 58.8539 77.5132 58.7891 76.985 58.9116C76.4245 59.0416 75.8962 59.4078 75.423 59.9001C74.8491 60.4973 74.1922 62.0951 75.8702 64.2148C77.3895 66.1339 85.7399 76.4764 90.2223 81.3596C90.7873 81.9192 91.7532 82.3884 92.8683 82.5932C93.9832 82.798 95.1454 82.7194 96.0724 82.2981C96.9492 81.8995 97.7393 80.9762 98.2164 79.8403C98.6941 78.7028 98.7937 77.5054 98.4779 76.6369C98.1381 75.7025 97.342 74.7006 96.2054 73.5764C95.0733 72.4566 93.7085 71.3127 92.2831 70.04C89.5006 67.5557 80.8261 60.6767 78.9589 59.3992ZM75.8563 25.0224C66.2193 15.4223 50.6244 15.4521 41.0243 25.0891C31.4242 34.7262 31.4541 50.3212 41.0912 59.9214L42.9073 61.7304C51.4555 70.2458 64.6907 71.1838 74.2723 64.5617C72.6705 62.1151 73.3056 59.9386 74.3417 58.8606C74.9235 58.2552 75.6954 57.671 76.6461 57.4504C77.6291 57.2224 78.703 57.4067 79.806 58.1614C79.9538 58.2625 80.1412 58.3965 80.3627 58.5586C87.2335 48.9235 86.3319 35.4578 77.6725 26.8315L75.8563 25.0224Z" fill="#045EB2"/>
<path d="M88.6673 22.8849C89.705 22.6689 90.7688 22.5775 91.8584 22.6105C91.9443 22.6131 92.0306 22.6164 92.1167 22.6205C92.1865 22.6241 92.257 22.6439 92.3145 22.6854C92.372 22.727 92.4117 22.7864 92.4256 22.8529C92.4394 22.9194 92.4267 22.9896 92.3906 23.0507C92.3545 23.1118 92.2975 23.158 92.2349 23.1891C92.1576 23.2273 92.0801 23.265 92.0025 23.3017C91.0165 23.7667 90.0046 24.1071 88.9668 24.3231C88.533 24.4134 88.0795 24.41 87.6067 24.3131C87.5176 24.2949 87.4277 24.2731 87.3372 24.2482C87.2637 24.2275 87.1912 24.1984 87.1326 24.152C87.0741 24.1056 87.0343 24.0455 87.0203 23.9782C87.0062 23.9107 87.0186 23.8395 87.0537 23.7736C87.0889 23.7076 87.144 23.652 87.2031 23.6037C87.2761 23.5447 87.3497 23.4889 87.4241 23.4367C87.8189 23.1591 88.2334 22.9752 88.6673 22.8849Z" fill="#1074CC"/>
<path d="M87.9495 13.3668C88.0213 13.359 88.0922 13.3773 88.1482 13.4191C88.2042 13.4609 88.242 13.5237 88.2549 13.5949C88.2678 13.666 88.2541 13.7394 88.2237 13.8036C88.1756 13.9041 88.1269 14.0032 88.0772 14.1024C87.4475 15.3607 86.6768 16.5198 85.8328 17.5958C85.4796 18.0462 85.0553 18.4377 84.5586 18.7787C84.4649 18.8432 84.3691 18.9053 84.27 18.9664C84.2041 19.0067 84.1303 19.0373 84.0532 19.0431C83.9762 19.0489 83.9024 19.0296 83.8443 18.9862C83.7862 18.9428 83.7469 18.8776 83.7305 18.8021C83.7141 18.7266 83.7223 18.647 83.7422 18.5724C83.7734 18.4591 83.8069 18.3487 83.844 18.2396C84.0399 17.6623 84.3202 17.1443 84.6768 16.6896C85.5311 15.6005 86.4876 14.6168 87.5139 13.6774C87.595 13.6032 87.6759 13.5298 87.7581 13.4559C87.811 13.4085 87.8776 13.3747 87.9495 13.3668Z" fill="#1074CC"/>
<path d="M78.8074 9.99476C78.8752 10.0024 78.9383 10.0368 78.9851 10.0905C79.0319 10.1441 79.058 10.2127 79.0674 10.2821C79.0792 10.3707 79.0904 10.4593 79.1006 10.5477C79.2306 11.6701 79.2341 12.7782 79.1114 13.8722C79.06 14.3295 78.9137 14.7763 78.6724 15.2123C78.6269 15.2944 78.5781 15.3763 78.5259 15.4577C78.4843 15.5218 78.4344 15.5823 78.3718 15.6239C78.3092 15.6655 78.2388 15.6849 78.1697 15.6771C78.1007 15.6694 78.0367 15.6349 77.9849 15.5805C77.9331 15.526 77.8978 15.4559 77.8714 15.3842C77.8385 15.2933 77.8089 15.2026 77.7827 15.1124C77.644 14.6339 77.6003 14.1659 77.6516 13.7086C77.7744 12.6146 78.0234 11.5346 78.3989 10.4689C78.4285 10.385 78.4591 10.3012 78.4903 10.2174C78.5149 10.1518 78.5555 10.0906 78.6131 10.0487C78.6706 10.0068 78.7396 9.98717 78.8074 9.99476Z" fill="#1074CC"/>
</svg>
