<svg width="128" height="96" viewBox="0 0 128 96" fill="none" xmlns="http://www.w3.org/2000/svg">
<path d="M63.683 16.75C80.9789 16.7501 95 30.7411 95 48C95 65.2589 80.9789 79.2499 63.683 79.25C46.3871 79.25 32.3661 65.2589 32.3661 48C32.3661 30.7411 46.3871 16.75 63.683 16.75Z" fill="#4397E0"/>
<path d="M28.8586 47.7871C28.9386 47.7871 29.0158 47.8188 29.0736 47.8752C29.1314 47.9318 29.1648 48.0087 29.1693 48.0886C29.2003 48.6459 29.2427 49.1962 29.297 49.7493C29.7822 54.7116 31.2294 59.5179 33.5331 63.874C35.8339 68.2318 39.0147 72.1267 42.8624 75.281C43.2899 75.6316 43.7255 75.9728 44.1691 76.3049C44.2604 76.3733 44.3241 76.4738 44.3441 76.5867C44.3641 76.6996 44.339 76.8154 44.2743 76.9092C44.2096 77.0029 44.11 77.0675 43.9971 77.0891C43.8843 77.1107 43.7676 77.0872 43.671 77.0264C43.1903 76.7231 42.7175 76.4072 42.2527 76.0789C38.0672 73.1271 34.5658 69.1547 32.162 64.5952C29.7482 60.0407 28.4851 54.8874 28.5001 49.7874C28.5009 49.2189 28.5169 48.6557 28.5478 48.0886C28.5523 48.0086 28.5857 47.9318 28.6435 47.8752C28.7013 47.8188 28.7785 47.7871 28.8586 47.7871Z" fill="#4397E0"/>
<path d="M80.1139 17.2236C80.2223 17.1902 80.3391 17.1999 80.4415 17.2454C80.7004 17.3608 80.9575 17.4804 81.2127 17.6042C83.51 18.7183 85.6556 20.1724 87.5512 21.8997C89.4477 23.626 91.0701 25.6516 92.331 27.8662C92.4711 28.1122 92.6068 28.3604 92.7381 28.6108C92.7743 28.6803 92.7878 28.7613 92.7709 28.8389C92.754 28.9164 92.7086 28.984 92.6439 29.0273C92.5792 29.0707 92.4993 29.087 92.421 29.0732C92.3426 29.0595 92.2728 29.0163 92.2221 28.9565C92.0422 28.7446 91.8614 28.5344 91.6794 28.3257C90.0414 26.4474 88.3197 24.6942 86.5063 23.042C84.6925 21.3903 82.7623 19.8654 80.7099 18.4734C80.4819 18.3187 80.2524 18.1657 80.0212 18.0144C79.9274 17.953 79.8559 17.8601 79.8255 17.751C79.7951 17.6419 79.8076 17.5262 79.8612 17.4282C79.9148 17.3303 80.0056 17.2571 80.1139 17.2236Z" fill="#4397E0"/>
<path d="M81.0343 50.0367C81.7888 47.1432 84.4019 45.124 87.3922 45.124H97.019C99.9653 45.124 102.117 47.9084 101.373 50.7594L94.6498 76.5449C94.1331 78.5267 92.3434 79.9095 90.2954 79.9095H79.0688C76.1224 79.9095 73.971 77.1251 74.7144 74.2741L81.0343 50.0367Z" fill="#75B6EB"/>
<path d="M81.3432 49.4035C82.0105 46.881 84.2927 45.124 86.902 45.124H94.7337C97.7181 45.124 99.8758 47.9761 99.0641 50.848L92.5597 73.8607C92.0119 75.7987 90.2433 77.1368 88.2293 77.1368H79.852C76.8991 77.1368 74.7465 74.3407 75.5017 71.486L81.3432 49.4035Z" fill="#F5FBFE"/>
<path d="M95.0339 65.0908C95.0985 65.0561 95.1739 65.0477 95.2437 65.0679C95.3135 65.0882 95.3727 65.1357 95.4087 65.1997C95.4446 65.2637 95.4541 65.3391 95.4373 65.4099C95.3647 65.7148 95.2914 66.0196 95.2173 66.324C94.6353 68.7144 94.0057 71.0911 93.3286 73.4539C93.2647 73.6766 93.1877 73.8952 93.0979 74.1086C92.4424 75.685 91.038 76.8917 89.438 77.3752C88.8896 77.5444 88.3174 77.6306 87.7473 77.6326C86.873 77.6345 85.9984 77.6353 85.124 77.6365C84.811 77.6369 84.4978 77.6373 84.1848 77.6379C84.1121 77.638 84.0413 77.6089 83.9885 77.5576C83.9357 77.5062 83.9048 77.437 83.9028 77.3643C83.9009 77.2916 83.9281 77.2208 83.978 77.1667C84.028 77.1128 84.0971 77.0795 84.1697 77.0757C84.4823 77.0596 84.7953 77.0434 85.1079 77.0271C85.9811 76.9816 86.8544 76.9356 87.7275 76.8909C88.2252 76.8646 88.7164 76.7661 89.1816 76.5999C90.5454 76.1169 91.6349 75.0237 92.1763 73.7207C92.2511 73.543 92.3158 73.3612 92.3704 73.1758C93.0638 70.8177 93.805 68.4733 94.5935 66.1428C94.6939 65.8461 94.7953 65.5495 94.8972 65.2532C94.921 65.1843 94.9693 65.1256 95.0339 65.0908Z" fill="#045EB2"/>
<path fill-rule="evenodd" clip-rule="evenodd" d="M44.1584 27.0994C44.2434 27.0203 44.3655 26.9953 44.4746 27.0349C44.5856 27.0753 44.6962 27.1165 44.8062 27.1592C45.4146 27.397 46.0095 27.6683 46.5908 27.9724C49.4341 29.5223 52.0357 31.4119 54.4968 33.4651C56.8434 31.6676 59.328 30.0885 61.8904 28.6382C62.2921 28.4127 62.698 28.1911 63.1062 27.9746C63.3192 27.8617 63.5798 27.9896 63.6545 28.2188C63.7232 28.4295 63.8105 28.6319 63.9143 28.824C64.017 29.014 63.9579 29.2586 63.7671 29.3599C63.3894 29.5602 63.0129 29.7657 62.6396 29.9746C60.234 31.3314 57.8831 32.8197 55.6841 34.4763C56.8349 35.4767 57.9577 36.5076 59.063 37.5505C61.4341 39.8174 63.7052 42.1865 65.875 44.6428C66.1193 44.6846 66.3635 44.7268 66.6077 44.7698C66.6164 44.7714 66.6253 44.7731 66.634 44.7747C70.3787 45.4549 74.083 46.342 77.7371 47.4082C77.8343 47.4366 77.9314 47.4652 78.0286 47.4939C78.3254 47.5817 78.4588 47.9257 78.3491 48.2151C78.2991 48.3472 78.2564 48.4829 78.2217 48.6218C78.1473 48.9195 77.8463 49.1248 77.553 49.0347C77.4612 49.0065 77.3694 48.9783 77.2776 48.9504C74.0374 47.9672 70.7497 47.1309 67.4329 46.4424C67.6885 46.7436 67.9433 47.0455 68.196 47.3491C70.457 50.0697 72.5538 52.9192 74.4819 55.8721C74.9027 56.5168 75.3152 57.1667 75.7185 57.8208C75.7377 57.8519 75.745 57.8896 75.738 57.9258C75.731 57.9619 75.71 57.9939 75.6799 58.0146C75.6498 58.0353 75.6125 58.0432 75.5762 58.0369C75.5398 58.0305 75.5076 58.01 75.4854 57.981C75.0203 57.3717 74.5497 56.7663 74.0745 56.165C71.8968 53.4117 69.6247 50.7423 67.2573 48.1707C66.5904 47.4473 65.9184 46.7287 65.2422 46.0144C59.0485 44.8726 52.7479 44.1094 46.4463 43.8621C43.5967 47.7049 41.3067 51.9821 39.8538 56.5757C39.6538 57.2154 39.4725 57.8592 39.3123 58.5049C39.2931 58.582 39.2431 58.649 39.1748 58.6912C39.1064 58.7333 39.0248 58.7473 38.9473 58.7297C38.8697 58.7121 38.8021 58.6644 38.7585 58.5969C38.715 58.5294 38.6991 58.4473 38.7151 58.3694C38.8516 57.7058 39.0076 57.043 39.1812 56.3826C40.3591 51.9467 42.2544 47.6732 44.7952 43.8135C41.9424 43.749 39.0775 43.7579 36.2568 44.1445C36.0338 44.176 35.8103 44.2109 35.5872 44.2488C35.4273 44.2759 35.2854 44.141 35.3083 43.9805C35.3221 43.8844 35.3931 43.8066 35.4875 43.7842C35.7137 43.7305 35.9405 43.68 36.1667 43.6323C39.2367 42.9984 42.3822 42.7784 45.5051 42.7698C46.5393 41.2979 47.6703 39.8922 48.8938 38.5674C50.1629 37.1951 51.5117 35.9092 52.9426 34.7061C53.069 34.6008 53.1959 34.4963 53.3232 34.3926C51.0396 32.3519 48.6823 30.4071 46.1604 28.7097C45.6364 28.3695 45.0919 28.0521 44.5339 27.7632C44.4365 27.713 44.3384 27.6637 44.24 27.6152C44.0411 27.5172 43.9962 27.2504 44.1584 27.0994ZM54.4646 35.4255C54.2819 35.5726 54.1003 35.721 53.9202 35.8706C52.5357 37.0309 51.23 38.2705 49.9993 39.5928C49.0461 40.6183 48.1321 41.6853 47.2642 42.7908C52.7293 42.9076 58.1726 43.434 63.5703 44.2681C61.7371 42.3745 59.8702 40.5156 57.968 38.697C56.8076 37.6017 55.6439 36.5042 54.4646 35.4255Z" fill="#045EB2"/>
<path d="M67.1479 24.604C68.516 24.604 69.625 25.713 69.625 27.0811C69.625 28.4491 68.516 29.5583 67.1479 29.5583C65.7799 29.5583 64.6709 28.4491 64.6709 27.0811C64.6709 25.713 65.7799 24.604 67.1479 24.604Z" fill="#045EB2"/>
<path d="M79.125 24.0154C79.1878 24.0156 79.2492 24.0341 79.3018 24.0684C79.5631 24.2388 79.4528 24.6406 79.1421 24.6689C76.3558 24.9226 73.6017 25.5663 70.9438 26.3826C70.8494 26.4123 70.7505 26.3524 70.7283 26.2559C70.6573 25.9468 70.5473 25.6525 70.4038 25.3787C70.3216 25.2217 70.4026 25.0213 70.5759 24.9841C73.3972 24.3989 76.2571 24.0067 79.125 24.0154Z" fill="#045EB2"/>
<path fill-rule="evenodd" clip-rule="evenodd" d="M63.75 16C80.197 16 93.7461 28.408 95.5469 44.3738H96.3718C100.137 44.3738 102.886 47.9316 101.936 51.5745L95.4729 76.3601C94.8126 78.8922 92.5257 80.6591 89.9089 80.6592H79.7158C77.6468 80.6591 75.8848 79.5844 74.8748 78.0117C71.4097 79.2967 67.6621 80 63.75 80C46.0769 80 31.75 65.6731 31.75 48C31.75 30.3269 46.0769 16 63.75 16ZM86.9514 45.8738C84.5621 45.8738 82.474 47.4871 81.8711 49.7991L75.6033 73.8369C74.9013 76.5295 76.9332 79.1591 79.7158 79.1592H89.9089C91.8431 79.1591 93.5334 77.8532 94.0215 75.9817L100.484 51.196C101.186 48.5035 99.1544 45.8738 96.3718 45.8738H86.9514ZM63.75 17.5C46.9053 17.5 33.25 31.1553 33.25 48C33.25 64.8447 46.9053 78.5 63.75 78.5C67.4334 78.5 70.9639 77.8459 74.2329 76.6494C73.9163 75.6579 73.8641 74.5622 74.1519 73.4585L79.9617 51.1763C79.5565 50.7383 79.3089 50.1527 79.3088 49.509C79.3088 48.2212 80.2997 47.1653 81.5605 47.0608C82.8076 45.4073 84.783 44.3738 86.9514 44.3738H94.0359C92.2429 29.2384 79.3676 17.5 63.75 17.5Z" fill="#045EB2"/>
<path d="M89.1038 54C92.8655 54 95.1754 56.9566 94.2654 60.6066C93.3553 64.2565 89.571 67.2132 85.8093 67.2132C82.0476 67.2132 79.7377 64.2565 80.6477 60.6066C81.5578 56.9566 85.342 54 89.1038 54ZM88.9552 54.542C85.5033 54.5421 82.028 57.2572 81.1929 60.6066C80.3578 63.9559 82.4792 66.6711 85.9311 66.6712C89.383 66.6712 92.8583 63.956 93.6934 60.6066C94.5285 57.2572 92.4071 54.542 88.9552 54.542ZM88.8253 55.0632C91.9805 55.0632 93.9196 57.545 93.1563 60.6066C92.5004 63.2372 90.0628 65.4397 87.388 66.0076C87.3375 65.7796 87.2724 65.4764 87.2289 65.2484C87.0333 65.303 86.7687 65.3287 86.5818 65.3351C86.4412 65.3351 86.3287 65.3287 86.2892 65.2484C85.8541 65.547 85.0269 65.9451 84.9046 65.852C84.6699 65.6786 84.7416 64.3433 85.0196 64.064C85.0819 63.9998 85.176 63.9677 85.2843 63.9581C85.0866 64.3529 85.0748 65.3284 85.1789 65.4282C85.2807 65.5245 86.3111 65.0044 86.3018 64.8824C86.2865 64.6257 86.3442 64.3946 86.3901 64.2502C86.4386 64.202 86.5686 64.1281 86.6527 64.096C86.6373 64.1313 86.6241 64.1699 86.6162 64.2149C86.5786 64.3658 86.5336 64.6258 86.5453 64.7382C86.5639 64.8762 86.598 64.9659 86.8502 64.9627C87.1057 64.9595 87.5294 64.905 87.6195 64.796C87.7096 64.6868 87.7374 64.2436 87.7197 64.1024L87.7067 64.0351C87.705 64.0287 87.7032 64.0222 87.7007 64.019H87.7893C87.9144 64.0479 88.014 64.1026 87.8996 64.6939C87.87 64.8126 88.6704 65.0397 88.8419 64.9755C88.8567 64.9691 88.8649 64.9628 88.8698 64.9563C89.0331 64.5936 89.215 63.6915 88.9794 63.3095C88.9325 63.2324 88.1502 63.6497 87.6696 63.9451C87.606 63.8552 87.4665 63.8039 87.1674 63.8489C87.1395 63.8526 87.1134 63.8575 87.0885 63.8621C87.0706 63.8655 87.0533 63.8687 87.0361 63.8714C87.0059 63.422 87.0217 63.0271 87.1187 62.7703C86.8419 62.6066 86.6774 62.4171 86.6561 62.3432C86.6171 62.2213 86.7473 62.1635 86.7989 62.1956C86.8014 62.1988 86.8072 62.2019 86.8163 62.2051C87.1064 62.3817 87.5945 62.5744 88.3136 62.6097C88.3988 62.6129 88.4873 62.6161 88.5766 62.6161C89.7535 62.6065 90.5488 62.1634 90.4849 61.9419C90.4544 61.839 90.2038 61.8654 89.8292 61.9047C89.4095 61.9488 88.8337 62.0092 88.2366 61.9227C87.4002 61.8007 87.4103 61.4156 87.5603 61.2519C87.7888 61.004 88.098 61.0173 88.5406 61.0363C88.7744 61.0463 89.0456 61.0579 89.3616 61.0335C90.2757 60.9628 90.846 60.719 91.2049 60.4076C91.3946 60.2439 91.5049 60.0672 91.4751 59.9613C91.4454 59.8682 91.3051 59.8329 90.8424 59.9902C90.5208 60.0993 90.0423 60.2407 89.4333 60.3081C89.6952 59.6693 89.9645 57.3546 88.3678 57.0047C88.362 57.0015 88.356 56.9983 88.351 56.9919C87.9966 56.3563 87.0266 56.0673 86.0021 56.1957C85.9955 56.1957 85.9914 56.1989 85.9873 56.2021C85.9544 56.215 85.9407 56.2695 85.9705 56.2824C86.0734 56.3209 86.1914 56.3789 86.2691 56.4655C86.1084 56.5394 85.8695 56.6612 85.7145 56.8185C85.7063 56.8249 85.7047 56.8313 85.7031 56.8377C85.6983 56.8569 85.7107 56.8731 85.7346 56.8699C86.2409 56.7768 86.7228 56.8218 86.9499 57.0786C86.9657 57.0947 86.9485 57.1236 86.9205 57.13C84.2338 57.7945 84.2027 59.9229 84.2236 62.5327C84.2374 64.277 84.2778 65.372 84.3002 65.8584C82.2291 65.1172 81.1218 63.0458 81.73 60.6066C82.4933 57.5451 85.67 55.0632 88.8253 55.0632ZM86.1219 59.2454C86.36 59.2455 86.5053 59.4317 86.4477 59.6628C86.3901 59.8939 86.1519 60.0799 85.9138 60.08C85.6756 60.08 85.53 59.8939 85.5876 59.6628C85.6419 59.4317 85.8836 59.2454 86.1219 59.2454ZM89.0465 59.0592C89.2516 59.0592 89.3778 59.2165 89.3282 59.4155C89.2794 59.6113 89.0739 59.772 88.8687 59.772C88.6637 59.772 88.5384 59.6113 88.5873 59.4155C88.6361 59.2197 88.8414 59.0593 89.0465 59.0592ZM86.2721 59.4124C86.2093 59.4124 86.1476 59.4605 86.1324 59.5214C86.1172 59.5824 86.1549 59.6306 86.2177 59.6306C86.2805 59.6305 86.342 59.5824 86.3572 59.5214C86.3724 59.4605 86.3349 59.4125 86.2721 59.4124ZM89.176 59.2037C89.123 59.2037 89.0696 59.2455 89.0568 59.2968C89.044 59.3482 89.0766 59.3899 89.1295 59.3899C89.1824 59.3899 89.2359 59.3482 89.2487 59.2968C89.2615 59.2455 89.2289 59.2037 89.176 59.2037ZM85.8526 58.3208C86.1701 58.2149 86.3678 58.3112 86.4471 58.3914C86.4662 58.4075 86.4391 58.4365 86.4143 58.4301C86.2958 58.4012 86.1171 58.3884 85.8624 58.4815C85.6076 58.5746 85.5091 58.6772 85.4459 58.7446C85.423 58.7703 85.361 58.7671 85.3682 58.7382C85.4002 58.6098 85.5714 58.4139 85.8526 58.3208ZM89.0673 58.1669C89.3054 58.1669 89.3947 58.26 89.446 58.3595C89.4577 58.3787 89.4248 58.4044 89.404 58.3948C89.4003 58.393 89.3965 58.3912 89.3927 58.3893C89.3151 58.3516 89.2188 58.3047 89.0337 58.3017C88.8393 58.2985 88.7047 58.3466 88.6148 58.3884C88.5852 58.4011 88.5521 58.3754 88.5717 58.3497C88.6635 58.2471 88.8291 58.1669 89.0673 58.1669Z" fill="#034180"/>
</svg>
