<svg width="12" height="12" viewBox="0 0 12 12" fill="none" xmlns="http://www.w3.org/2000/svg">
<g clip-path="url(#clip0_324_212)">
<path d="M9.5 5C10.4862 5 11.2861 5.81421 11.2861 6.81836V8.50098H11.3916C11.7276 8.50109 12 8.6578 12 9V11.3799C12 11.7221 11.7276 11.9998 11.3916 12H7.6084C7.27235 11.9998 7 11.7221 7 11.3799V9C7 8.6578 7.27236 8.50109 7.6084 8.50098H10.3926V6.81836C10.3926 6.31628 9.99311 5.90918 9.5 5.90918C9.00689 5.90918 8.60742 6.31628 8.60742 6.81836V7.5H7.71387V6.81836C7.71387 5.81421 8.51378 5 9.5 5Z" fill="black" fill-opacity="0.84"/>
<path fill-rule="evenodd" clip-rule="evenodd" d="M6.00293 0C8.35401 0.000129989 10.3872 1.35235 11.3711 3.32129C11.5315 3.64225 11.2816 3.99805 10.9229 3.99805C10.7164 3.99804 10.5319 3.87448 10.4365 3.69141C9.90617 2.67387 9.03754 1.86134 7.97754 1.40527C8.07157 1.56483 8.15875 1.7317 8.2373 1.90332C8.46353 2.39769 8.64534 2.97168 8.77637 3.60059C8.82596 3.83864 8.63805 4.06426 8.40234 4.12402C8.12773 4.19362 7.84605 4.0249 7.78613 3.74805C7.66979 3.20905 7.51423 2.72602 7.32812 2.31934C6.8887 1.35933 6.38334 1.00026 6.00293 1C5.62246 1 5.11635 1.35894 4.67676 2.31934C4.27129 3.20542 4.00481 4.45169 3.9873 5.85645C4.56155 5.9131 5.13757 5.94461 5.71387 5.95215C6.03079 5.95629 6.26074 6.26217 6.18652 6.57031C6.13599 6.78008 5.95109 6.95263 5.73535 6.9502C5.16251 6.94346 4.58969 6.9142 4.01855 6.86133C4.10195 7.97305 4.3413 8.95251 4.67676 9.68555C4.95272 10.2885 5.2553 10.6542 5.53613 10.8428C5.76498 10.9965 6 11.2273 6 11.5029C5.99981 11.7795 5.7747 12.0062 5.49902 11.9834C2.41989 11.7275 0.000236486 9.14809 0 6.00293C0 5.93235 0.00246629 5.86198 0.00488281 5.79199C-0.00332595 5.73352 -0.000138919 5.67298 0.0136719 5.6123C0.214923 2.47918 2.81901 0 6.00293 0ZM1.01465 6.36816C1.15216 8.27071 2.35291 9.87706 4.02637 10.5977C3.93273 10.4386 3.84583 10.2725 3.76758 10.1016C3.35396 9.19772 3.0848 8.0285 3.00879 6.74316C2.34003 6.64922 1.67449 6.52537 1.01465 6.36816ZM4.02734 1.40527C2.43957 2.08853 1.27719 3.57025 1.04395 5.34473C1.68768 5.50503 2.33713 5.63257 2.99023 5.72949C3.02186 4.26102 3.30435 2.91561 3.76758 1.90332C3.84613 1.73171 3.93329 1.56482 4.02734 1.40527Z" fill="black" fill-opacity="0.84"/>
</g>
<defs>
<clipPath id="clip0_324_212">
<rect width="12" height="12" fill="white"/>
</clipPath>
</defs>
</svg>
