<svg width="128" height="96" viewBox="0 0 128 96" fill="none" xmlns="http://www.w3.org/2000/svg">
<path fill-rule="evenodd" clip-rule="evenodd" d="M62.8577 15.9902C67.2552 14.081 72.4049 15.0919 77.1618 18.2228C81.8176 21.2873 86.1177 26.3937 89.016 32.8425L89.0179 32.8366L89.2066 33.2695C92.1051 39.9208 92.9725 46.7142 92.0232 52.3243C91.089 57.845 88.3895 62.2428 84.11 64.1997L83.9049 64.291C79.2644 66.3049 73.7898 65.0689 68.8197 61.5232L45.5723 65.0639C42.0206 65.6056 37.9714 64.5523 36.1633 61.462L36.0786 61.3138C34.297 58.1311 35.2099 53.5469 37.5713 50.7668L54.4153 30.9317C54.791 23.9438 57.707 18.2268 62.8577 15.9902Z" fill="#FF8D5C"/>
<path d="M52.8464 63.956C55.0769 68.0662 56.8761 71.8666 57.8242 75.0845L57.9389 75.5843C58.0727 76.4511 57.8564 77.3588 57.314 78.1981L57.2539 78.2845C56.5749 79.2358 55.4799 80.0699 54.2602 80.4763C53.0359 80.8863 51.7478 80.9168 50.6348 80.5623C49.4119 80.1727 48.505 79.3404 48.1435 78.2764C46.911 74.9435 46.1208 70.0902 45.4395 65.0831C45.4838 65.0769 45.5282 65.0707 45.5724 65.064L52.8464 63.956Z" fill="#F05F2B"/>
<path fill-rule="evenodd" clip-rule="evenodd" d="M66.2304 19.1473C72.6312 15.1095 87.0536 27.3177 88.1969 43.0062C88.292 43.7194 88.3646 44.4738 88.4215 45.2603C88.7969 50.4334 86.7876 55.6879 83.19 57.249C79.2463 58.9604 73.5767 57.3924 69.5467 52.4674C66.7799 50.1105 63.817 46.0704 62.14 39.1636C57.1546 24.2068 63.8077 20.6754 66.2304 19.1473ZM75.7369 39.2158C74.3856 36.6055 71.9568 35.1773 70.312 36.0258C68.6672 36.8744 68.4291 39.6785 69.7804 42.2888C71.1317 44.8991 73.5607 46.3275 75.2055 45.4789C76.8503 44.6303 77.0881 41.8261 75.7369 39.2158Z" fill="#F05F2B"/>
<path d="M51.8284 72.9811C52.6636 72.7256 53.6005 72.7614 54.4009 73.1198C54.4896 73.1594 54.5762 73.2031 54.6607 73.2502C54.7179 73.2837 54.771 73.3278 54.8055 73.3849C54.8398 73.442 54.853 73.5067 54.8418 73.5685C54.8306 73.6304 54.7952 73.6863 54.743 73.7277C54.6907 73.7691 54.6257 73.7921 54.5603 73.8034C54.4749 73.8196 54.3907 73.8366 54.3079 73.8544C53.5626 74.0178 52.9171 74.2209 52.2637 74.4167C52.2163 74.4311 52.1688 74.4456 52.1226 74.4597C51.5173 74.6467 50.9085 74.8282 50.2454 75.0822C50.1661 75.1128 50.0861 75.1447 50.0054 75.1779C49.9445 75.2041 49.8774 75.22 49.8111 75.2138C49.7447 75.2076 49.6846 75.1802 49.6414 75.1345C49.5983 75.0887 49.5741 75.0272 49.5718 74.9606C49.5695 74.894 49.5895 74.828 49.6192 74.7687C49.6641 74.6834 49.7131 74.5997 49.7654 74.5182C50.2023 73.8361 50.8838 73.3138 51.6475 73.041C51.7073 73.0196 51.7677 72.9995 51.8284 72.9811Z" fill="#9E2B08"/>
<path d="M66.0816 18.8017C69.7839 17.2462 73.7782 18.981 76.6573 21.1804C77.8127 22.0588 78.87 23.0545 79.8418 24.1235C79.886 24.1721 79.9089 24.237 79.906 24.3029C79.9031 24.3689 79.8745 24.4309 79.8262 24.4755C79.7779 24.52 79.7139 24.5435 79.648 24.5412C79.582 24.5388 79.5194 24.5108 79.4744 24.4628C78.5036 23.429 77.4532 22.4718 76.3167 21.6359C73.4768 19.5257 69.6499 18.0232 66.3794 19.488C66.3469 19.5024 66.3145 19.5172 66.2823 19.5319C57.7563 23.8299 60.9225 35.3616 64.1448 42.7861C64.2681 43.0681 64.3936 43.3477 64.5215 43.6244C67.856 50.6167 74.1885 60.0081 82.5977 57.1103C82.642 57.0905 82.6864 57.0705 82.7305 57.0497C82.7332 57.0485 82.741 57.0448 82.7437 57.0436C86.6789 55.348 87.9947 50.4934 88.0691 46.3381C88.0986 44.9228 88.0004 43.5079 87.802 42.1005C87.7929 42.0354 87.8101 41.9689 87.8497 41.916C87.8892 41.8631 87.9479 41.828 88.013 41.8183C88.078 41.8087 88.1444 41.8251 88.1976 41.8642C88.2507 41.9033 88.2865 41.962 88.2967 42.027C88.5188 43.4553 88.6388 44.8962 88.6282 46.3461C88.5914 50.5835 87.401 55.718 83.0411 57.7292L83.0542 57.7231C83.0063 57.7466 82.9581 57.7696 82.91 57.7922C73.5666 61.0693 66.8535 51.3079 63.387 44.1489C63.2552 43.8637 63.1258 43.5756 62.9996 43.2848C61.233 39.1795 59.8907 34.7897 59.8008 30.2399C59.614 25.8027 61.5187 20.6105 65.9766 18.8469C66.0114 18.8317 66.0465 18.8166 66.0816 18.8017Z" fill="#9E2B08"/>
<path d="M65.7217 35.7875C67.5152 34.7673 69.7741 34.4909 71.8221 35.089C73.8423 35.6553 75.6371 37.0631 76.6761 38.9118C77.8434 40.9408 78.0664 43.4871 77.2774 45.6603C76.6452 47.4641 75.3467 49.001 73.733 49.9113C73.3379 50.1361 72.9251 50.3254 72.5015 50.4767C72.4336 50.5008 72.3583 50.5004 72.2908 50.4731C72.2233 50.4457 72.169 50.3937 72.1402 50.3278C72.1113 50.2619 72.1096 50.1868 72.1353 50.1186C72.1609 50.0504 72.2122 49.995 72.2759 49.9614C72.6458 49.7653 72.9977 49.5408 73.3274 49.2914C74.6753 48.2765 75.6368 46.8403 76.065 45.2741C76.5967 43.3823 76.3301 41.3283 75.3716 39.6523C74.5114 38.129 73.0977 36.9335 71.4234 36.3408C69.7276 35.7268 67.7863 35.749 66.0442 36.4543C65.6606 36.6085 65.2869 36.7944 64.9283 37.0104C64.8666 37.0478 64.7927 37.0631 64.721 37.05C64.6493 37.0368 64.5858 36.9966 64.5442 36.9379C64.5026 36.8793 64.4858 36.8061 64.4971 36.7341C64.5084 36.6621 64.5472 36.5975 64.6028 36.5517C64.9508 36.2666 65.3256 36.0103 65.7217 35.7875Z" fill="#9E2B08"/>
<path fill-rule="evenodd" clip-rule="evenodd" d="M62.5586 15.3024C67.2645 13.2593 72.6856 14.3792 77.5735 17.5964C82.3647 20.7499 86.7515 25.9753 89.6997 32.5351L89.7005 32.5368L89.8912 32.964L89.8938 32.9699C92.842 39.735 93.7394 46.6758 92.7625 52.4494C91.8024 58.1232 89.0002 62.7879 84.4214 64.8818L84.4148 64.8849L84.2098 64.976L84.2032 64.9792C79.3177 67.0993 73.6684 65.813 68.6343 62.31L54.01 64.5373C55.9418 68.1658 57.5227 71.5641 58.4378 74.5253L58.5428 74.8725L58.5491 74.8942L58.669 75.4164L58.6748 75.4431L58.6792 75.4697C58.845 76.5432 58.5705 77.6339 57.9427 78.6054L57.9429 78.6059L57.8787 78.7028C57.8771 78.7052 57.8754 78.7077 57.8738 78.7101L57.8714 78.7084C57.1004 79.7942 55.871 80.7292 54.4971 81.1872L54.4974 81.1874C53.1389 81.6424 51.687 81.685 50.4063 81.277C49 80.829 47.8929 79.8506 47.439 78.5363C46.236 75.2831 45.4541 70.6597 44.7952 65.9123C41.3415 66.2205 37.5353 65.3019 35.6592 62.3085L35.6512 62.2956L35.6438 62.2824L35.5589 62.1342L35.5572 62.1313L35.5555 62.1281C34.5975 60.4167 34.1428 58.5232 34.3912 56.551C34.6387 54.5854 35.5766 52.6026 37.3008 50.6899L53.6807 30.6445C54.1197 23.6135 57.1079 17.6693 62.5586 15.3024ZM46.2825 65.7143C46.9416 70.4587 47.7038 74.9283 48.8457 78.0163L48.8494 78.0256L48.8526 78.0351C49.1259 78.8395 49.8287 79.5188 50.8616 79.8478C51.8068 80.1489 52.9308 80.1301 54.0208 79.7651L54.022 79.7646C55.1155 79.4002 56.0981 78.6373 56.6802 77.7941C57.1346 77.0928 57.295 76.3745 57.199 75.7184L57.0977 75.2768C56.2053 72.257 54.5359 68.683 52.4358 64.777L46.2825 65.7143ZM76.7491 18.8493C72.1955 15.8522 67.3974 14.9317 63.3482 16.5971L63.156 16.6782C58.3693 18.7568 55.5315 24.1346 55.1639 30.9719L55.1612 31.0224C55.1669 31.43 55.1756 31.8374 55.1866 32.249C55.6368 42.5927 60.1035 53.0184 67.9478 59.8537C68.3203 60.1759 68.6948 60.4845 69.0796 60.7875L69.2549 60.9125C74.0968 64.3667 79.2876 65.4744 83.6011 63.6049L83.8042 63.5146C87.7807 61.6929 90.3755 57.5639 91.2832 52.1994C92.2046 46.7543 91.368 40.1108 88.5213 33.5754L88.3316 33.1501L88.1971 32.8539C85.3514 26.6569 81.1989 21.7782 76.7491 18.8493ZM38.4529 51.6508L38.4412 51.6652L38.4285 51.6791C36.8616 53.4124 36.0826 55.1253 35.8794 56.7385C35.6765 58.3506 36.041 59.9244 36.8645 61.3957L36.9361 61.5214C38.5045 64.0118 42.0281 64.8457 45.4588 64.3224L67.0245 61.0378C67.0052 61.0212 66.9856 61.0049 66.9664 60.9882C58.9204 53.9508 54.3623 43.5362 53.7229 32.9636L38.4529 51.6508Z" fill="#9E2B08"/>
<path d="M95.626 36.2266C96.1138 36.1371 96.5817 36.141 97.0289 36.2384C98.0985 36.4712 99.1412 36.8285 100.157 37.3099C100.237 37.3478 100.317 37.3866 100.397 37.4261C100.459 37.4574 100.516 37.504 100.552 37.5655C100.587 37.627 100.599 37.6976 100.585 37.7642C100.57 37.8309 100.53 37.8899 100.472 37.931C100.414 37.9721 100.343 37.9911 100.273 37.9935C100.184 37.9963 100.095 37.9983 100.007 37.9996C98.8831 38.0153 97.7863 37.9067 96.7166 37.6739C96.2694 37.5766 95.8424 37.3858 95.4358 37.1016C95.3592 37.0481 95.2832 36.9909 95.208 36.9307C95.1487 36.8826 95.0938 36.8268 95.0589 36.7603C95.024 36.6938 95.0119 36.6221 95.0267 36.5543C95.0414 36.4865 95.0822 36.4262 95.1416 36.3802C95.201 36.3343 95.2742 36.3065 95.3482 36.2874C95.4415 36.2639 95.5341 36.2435 95.626 36.2266Z" fill="#CC3B0A"/>
<path d="M99.3843 27.5245C99.4522 27.5035 99.5267 27.5004 99.5953 27.5233C99.6638 27.5462 99.7208 27.5925 99.7542 27.6539C99.7876 27.7153 99.7954 27.788 99.7774 27.858C99.7594 27.9281 99.7165 27.9889 99.6619 28.0345C99.5757 28.106 99.4899 28.1765 99.4026 28.2462C98.2983 29.1299 97.1071 29.8639 95.8841 30.4923C95.3723 30.7553 94.8206 30.9349 94.2242 31.0386C94.1115 31.0583 93.998 31.075 93.8819 31.0894C93.8051 31.0986 93.7249 31.0959 93.6524 31.0689C93.58 31.0419 93.5213 30.9933 93.4866 30.9295C93.452 30.8658 93.4433 30.7901 93.46 30.7147C93.4767 30.6392 93.5178 30.5705 93.5672 30.5111C93.6433 30.4208 93.7206 30.3342 93.8003 30.2503C94.2222 29.8062 94.6958 29.4511 95.2124 29.1856C96.4502 28.5498 97.7367 28.0524 99.0682 27.6243C99.1734 27.5905 99.2783 27.5576 99.3843 27.5245Z" fill="#CC3B0A"/>
<path d="M93.1543 20.3096C93.2241 20.2955 93.2948 20.3067 93.3533 20.3419C93.4118 20.3771 93.4549 20.4345 93.4751 20.5028C93.4954 20.5711 93.4902 20.6444 93.4698 20.7115C93.4434 20.7972 93.4164 20.8827 93.3887 20.9676C93.0367 22.046 92.5758 23.0589 92.0059 24.0062C91.7676 24.4022 91.4471 24.7491 91.045 25.0465C90.9693 25.1024 90.8906 25.1568 90.8091 25.2093C90.7446 25.2503 90.6741 25.2847 90.5999 25.2965C90.5256 25.3082 90.4534 25.2964 90.3938 25.2606C90.3343 25.2247 90.2903 25.1664 90.2659 25.0953C90.2416 25.0242 90.2389 24.9459 90.2449 24.8697C90.2531 24.773 90.2641 24.6777 90.2781 24.5845C90.3525 24.09 90.5089 23.6446 90.7471 23.2486C91.3171 22.3013 91.9961 21.4197 92.784 20.6036C92.846 20.5393 92.9088 20.4754 92.9722 20.4119C93.0219 20.3625 93.0845 20.3237 93.1543 20.3096Z" fill="#CC3B0A"/>
</svg>
