<svg fill="none" viewBox="0 0 128 80" xmlns="http://www.w3.org/2000/svg">
  <rect width="127" height="79" x=".5" y=".5" fill="#A1CFF7" fill-opacity=".08" rx="19.5"/>
  <rect width="127" height="79" x=".5" y=".5" stroke="#75B6EB" rx="19.5"/>
  <path fill="#75B6EB" fill-opacity=".2" d="M94.645 14.727c10.69 0 19.355 9.978 19.355 22.286V78c-1.547.458-3.329 1-5 1H19c-1.67 0-3.453-.542-5-1V37.013c0-12.308 8.666-22.286 19.355-22.286z"/>
  <path fill="#222" d="M25.429 39C21.879 39 19 41.93 19 45.545v4.91C19 54.069 21.878 57 25.429 57h77.142c3.551 0 6.429-2.93 6.429-6.545v-4.91c0-3.614-2.878-6.545-6.429-6.545z"/>
  <path fill="#4397E0" d="M28.2 43.09c2.32 0 4.2 1.924 4.2 4.296 0 1.04-.36 1.992-.96 2.734l2.043 2.09.051.065c.103.158.086.374-.051.514s-.348.158-.503.053l-.063-.053-2.044-2.09c-.726.614-1.657.983-2.673.983-2.32 0-4.2-1.923-4.2-4.296 0-2.372 1.88-4.295 4.2-4.295m0 .819c-1.878 0-3.4 1.557-3.4 3.477s1.522 3.477 3.4 3.477 3.4-1.556 3.4-3.477-1.522-3.477-3.4-3.477"/>
  <path fill="#75B6EB" d="M94.4 13.09c11.487 0 20.8 9.525 20.8 21.274V77.56c-1.03.372-2.099.631-3.2.82V34.364c0-9.942-7.88-18-17.6-18H33.6c-9.72 0-17.6 8.058-17.6 18V78.38c-1.102-.189-2.17-.452-3.2-.824V34.364c0-11.75 9.312-21.273 20.8-21.273z"/>
</svg>
