<svg width="96" height="96" viewBox="0 0 96 96" fill="none" xmlns="http://www.w3.org/2000/svg">
<path d="M46.3002 23.9284C64.8207 22.7005 80.5622 32.6802 81.4598 46.2187C81.8223 51.6865 79.708 56.8982 75.8386 61.25C75.2007 61.9674 75.0425 63.0065 75.5013 63.8497L77.8679 68.1997C78.5107 69.3813 77.3933 70.7466 76.108 70.3499L68.5393 68.0141C67.9707 67.8387 67.3568 67.9075 66.8313 68.1865C61.8843 70.8127 55.972 72.5301 49.5507 72.9559C46.9681 73.1271 44.4397 73.08 41.9979 72.8361C42.5388 71.3064 42.8334 69.6604 42.8334 67.9454C42.8334 59.8453 36.2669 53.2788 28.1667 53.2788C23.5899 53.2788 19.5027 55.3752 16.813 58.6601C15.4246 56.1998 14.5798 53.5112 14.3912 50.6653C13.4936 37.1268 27.7797 25.1563 46.3002 23.9284Z" fill="#C19EDB"/>
<path d="M67.1298 68.0255C62.1228 70.7421 56.1015 72.521 49.5503 72.9554C46.9679 73.1266 44.4395 73.0796 41.9979 72.8358C42.4634 71.5193 42.7462 70.1166 42.816 68.658C45.7698 69.3354 49.0522 69.7708 52.6705 69.923C58.0131 70.1477 62.8969 69.4519 67.1298 68.0255Z" fill="#9F6EB8"/>
<path d="M46.2998 23.9279C48.6095 23.7748 50.8761 23.7959 53.0759 23.9765C52.75 23.9535 52.4224 23.933 52.0931 23.9157C34.5484 22.9923 22.1861 34.2279 22.1861 46.9722C22.1861 49.4274 22.6014 51.8112 23.4434 54.056C20.8205 54.9476 18.5314 56.5613 16.8129 58.6603C15.4243 56.1998 14.5794 53.5111 14.3907 50.665C13.4931 37.1265 27.7793 25.1558 46.2998 23.9279Z" fill="#9F6EB8"/>
<path d="M66.5936 67.9511C67.2441 67.6207 68.0258 67.5487 68.7163 67.7807C69.089 67.9055 69.4617 68.0305 69.8341 68.1557C70.5408 68.3934 71.2474 68.6322 71.9534 68.8719C71.9999 68.8877 72.0391 68.9207 72.0618 68.9643C72.0846 69.008 72.0893 69.0588 72.0749 69.1056C72.0604 69.1524 72.0279 69.1917 71.9845 69.215C71.9411 69.2382 71.8902 69.2434 71.8429 69.2303C71.1246 69.0304 70.4064 68.8294 69.6886 68.6276C69.3103 68.5212 68.9319 68.4144 68.5537 68.3074C67.9991 68.1504 67.3893 68.2362 66.8918 68.5164C61.8881 71.2884 56.2539 72.8847 50.5539 73.3807C50.2306 73.4088 49.908 73.4333 49.5838 73.4544C47.0051 73.6222 44.405 73.567 41.8345 73.2759C41.9475 72.9863 42.0515 72.6923 42.1463 72.3942C44.5979 72.6061 47.0664 72.6219 49.5177 72.4577C49.835 72.4362 50.1507 72.4119 50.4671 72.3844C56.0466 71.8971 61.5633 70.4631 66.5936 67.9511Z" fill="#521A61"/>
<path d="M76.1899 34.096C76.2391 34.0983 76.2854 34.1199 76.3193 34.1552C76.815 34.6731 77.2876 35.2143 77.7331 35.7781C80.0753 38.7207 81.635 42.3719 81.9145 46.1888C82.1302 48.9214 81.7022 51.7023 80.7296 54.2617C79.7274 56.9148 78.1708 59.3289 76.2934 61.4188C75.7096 62.0516 75.5385 63.0474 75.9451 63.8063C76.6232 65.1004 77.2973 66.3967 77.9676 67.695C78.6894 68.9384 77.6157 70.63 76.2435 70.5579C76.0436 70.5545 75.8464 70.5183 75.661 70.456C75.1518 70.2837 74.6427 70.1108 74.1339 69.9373C74.0876 69.9215 74.0485 69.8885 74.0257 69.8449C74.0029 69.8012 73.9982 69.7504 74.0127 69.7036C74.0271 69.6568 74.0596 69.6176 74.103 69.5944C74.1464 69.5712 74.1974 69.5659 74.2446 69.5789C74.7627 69.7223 75.2806 69.8664 75.7983 70.0109C75.9446 70.0511 76.0939 70.0695 76.2409 70.0641C77.2463 70.0577 77.9213 68.8104 77.3896 68.0094C76.6637 66.7414 75.9415 65.4713 75.2233 64.199C74.6104 63.1356 74.8173 61.7237 75.6129 60.8214C77.3817 58.7594 78.8406 56.4322 79.7943 53.908C80.7191 51.4717 81.152 48.8529 81.005 46.2492C80.818 42.6159 79.4737 39.0728 77.3377 36.074C76.9317 35.5003 76.4983 34.9441 76.041 34.4065C76.0092 34.3692 75.9925 34.321 75.9953 34.2718C75.998 34.2226 76.0199 34.1765 76.0563 34.1437C76.0927 34.1109 76.1408 34.0938 76.1899 34.096Z" fill="#521A61"/>
<path fill-rule="evenodd" clip-rule="evenodd" d="M46.9556 33.7615C46.859 33.2431 47.6919 32.9448 47.9424 33.4088C52.0407 41.0002 55.6631 43.7719 64.4154 43.726C64.9613 43.7233 65.1358 44.6128 64.6287 44.8151C57.5219 47.6491 55.9198 50.4429 57.7721 59.2342C57.881 59.7513 57.0301 60.079 56.7656 59.6216C51.8252 51.0725 47.5739 49.2061 39.5558 49.6386C38.9284 49.6725 38.6849 48.5438 39.2661 48.305C47.0329 45.1131 48.4435 41.7495 46.9556 33.7615ZM46.7365 48.1476C46.5869 48.143 46.4366 48.1432 46.2873 48.1487C46.2253 48.1512 46.1651 48.1754 46.1198 48.2187C46.0745 48.2621 46.0479 48.3208 46.0457 48.3826C46.0436 48.4444 46.066 48.5048 46.1081 48.5512C46.1502 48.5977 46.2087 48.626 46.2703 48.6328C46.4088 48.6484 46.5472 48.6677 46.6844 48.6906C47.9214 48.8993 49.0946 49.3719 50.1815 49.9868C51.2641 50.6081 52.2894 51.3555 53.1248 52.2942C53.2173 52.3998 53.3063 52.5077 53.3906 52.6172C53.4209 52.6568 53.4642 52.6861 53.5137 52.6968C53.5631 52.7074 53.6144 52.6987 53.6566 52.6725C53.6987 52.6463 53.729 52.6041 53.7414 52.5552C53.7537 52.5061 53.7467 52.4543 53.7246 52.4096C53.6581 52.2766 53.5845 52.1449 53.5057 52.0159C52.7912 50.8643 51.7462 49.9537 50.5799 49.2856C49.411 48.6228 48.0884 48.1915 46.7365 48.1476Z" fill="#521A61"/>
<path d="M46.2705 23.4747C54.7109 22.9615 63.4433 24.7083 70.5926 29.3097C71.96 30.1967 73.259 31.192 74.4543 32.2957C74.4905 32.3292 74.5125 32.3757 74.515 32.4251C74.5174 32.4746 74.5003 32.523 74.4673 32.5597C74.4342 32.5964 74.3879 32.6185 74.3385 32.6212C74.2891 32.6239 74.2406 32.607 74.2034 32.5745C72.9973 31.5171 71.6944 30.5686 70.3286 29.727C63.1895 25.3644 54.604 23.7993 46.3306 24.3823C40.2544 24.8169 34.2452 26.4242 28.9062 29.3263C21.0596 33.5015 14.1919 41.4252 14.79 50.6391C14.9303 53.3614 15.7473 55.9899 17.0462 58.3828C16.8931 58.5606 16.7443 58.7423 16.5998 58.9274C15.1374 56.4232 14.1874 53.6253 13.9928 50.692C13.2275 41.0367 20.3799 32.7181 28.4279 28.4482C33.9123 25.4673 40.0713 23.8572 46.2705 23.4747Z" fill="#521A61"/>
<path d="M15.5273 29.7447C16.0557 29.6522 16.5801 29.6231 17.1001 29.6575C17.6201 29.6918 18.1364 29.7837 18.6488 29.9332C18.7057 29.9498 18.7627 29.9672 18.8195 29.9853C18.8827 30.0055 18.9422 30.0412 18.9844 30.0938C19.0265 30.1464 19.048 30.2107 19.0438 30.2753C19.0395 30.3398 19.0098 30.4008 18.9611 30.4473C18.9124 30.494 18.8485 30.5217 18.7832 30.5334C18.7245 30.5438 18.6658 30.5534 18.6073 30.5624C18.0797 30.6432 17.5558 30.6666 17.0358 30.6322C16.5158 30.5979 15.9998 30.5001 15.4881 30.3389C15.4313 30.321 15.3744 30.3024 15.3177 30.2829C15.2603 30.263 15.206 30.2298 15.1676 30.1815C15.1293 30.1333 15.1099 30.0746 15.1138 30.0159C15.1176 29.957 15.1447 29.9013 15.1891 29.8585C15.2335 29.8157 15.2916 29.7899 15.3511 29.7777C15.4098 29.7659 15.4687 29.755 15.5273 29.7447Z" fill="#682A7A"/>
<path d="M19.8743 22.4216C19.9364 22.428 19.994 22.4564 20.041 22.4958C20.0938 22.5403 20.1461 22.5853 20.1976 22.6308C20.6612 23.0394 21.0739 23.4863 21.4357 23.9709C21.7975 24.4556 22.1132 24.9748 22.3825 25.5285C22.4124 25.5901 22.4419 25.6521 22.4707 25.7144C22.4986 25.7753 22.511 25.8445 22.4987 25.9115C22.4864 25.9785 22.4509 26.0374 22.3983 26.0767C22.3456 26.116 22.279 26.1333 22.2113 26.126C22.1435 26.1188 22.0807 26.0873 22.0303 26.0432C21.9787 25.9979 21.9276 25.952 21.8771 25.9058C21.4228 25.4902 21.0147 25.0399 20.6528 24.5552C20.291 24.0705 19.9802 23.5477 19.7202 22.987C19.6913 22.9248 19.663 22.862 19.6354 22.7987C19.611 22.7425 19.6 22.6792 19.6115 22.6179C19.623 22.5566 19.6554 22.5027 19.7034 22.4669C19.7515 22.431 19.8123 22.4152 19.8743 22.4216Z" fill="#682A7A"/>
<path d="M28.0876 20.1845C28.1478 20.1931 28.2028 20.2254 28.2423 20.2745C28.2819 20.3235 28.302 20.3853 28.3055 20.4472C28.3099 20.5269 28.3135 20.6066 28.3164 20.6861C28.3421 21.4016 28.305 22.1081 28.2049 22.8056C28.1048 23.5031 27.9474 24.1926 27.7331 24.8738C27.7093 24.9494 27.6849 25.0249 27.6597 25.1003C27.6381 25.1644 27.5985 25.2233 27.5422 25.2628C27.4858 25.3022 27.418 25.3191 27.352 25.3096C27.2861 25.3002 27.2259 25.2648 27.1829 25.2112C27.1399 25.1575 27.1185 25.0899 27.1159 25.0224C27.1129 24.9429 27.1106 24.8634 27.109 24.7841C27.0949 24.0702 27.1377 23.3644 27.2378 22.6669C27.3379 21.9694 27.501 21.2809 27.7269 20.6015C27.752 20.526 27.7779 20.4505 27.8045 20.3752C27.8253 20.3169 27.862 20.2632 27.9137 20.2273C27.9655 20.1913 28.0273 20.1758 28.0876 20.1845Z" fill="#682A7A"/>
<path d="M16.1665 68C16.1665 61.3726 21.5391 56 28.1665 56C34.7939 56 40.1665 61.3726 40.1665 68C40.1665 74.6274 34.7939 80 28.1665 80C21.5391 80 16.1665 74.6274 16.1665 68Z" fill="#F05F2B"/>
<path fill-rule="evenodd" clip-rule="evenodd" d="M28.1665 57.5332C22.3859 57.5332 17.6997 62.2194 17.6997 68C17.6997 73.7807 22.3859 78.4669 28.1665 78.4669C33.9472 78.4669 38.6334 73.7807 38.6334 68C38.6334 62.2194 33.9472 57.5332 28.1665 57.5332ZM19.1335 68C19.1335 63.0112 23.1777 58.967 28.1665 58.967C33.1553 58.967 37.1996 63.0112 37.1996 68C37.1996 72.4193 34.026 76.0974 29.8336 76.8796C28.744 74.3778 27.6088 71.3819 28.7198 71.0508C27.3972 68.6663 27.6646 67.1 30.4096 67.5828L30.4138 67.5833C30.7214 67.6183 30.9546 67.6448 31.0275 67.5984C31.3992 67.3618 31.1686 62.1669 27.9415 61.4613C24.9716 57.787 22.1449 61.9779 23.5787 61.6911C24.7257 61.4044 25.5775 61.6691 25.538 61.6805C20.4717 62.3193 22.8274 70.3014 24.1277 74.7073C24.3065 75.3134 24.4654 75.8517 24.5823 76.294C21.3765 74.9068 19.1335 71.7154 19.1335 68Z" fill="white"/>
<path d="M32.1343 75.567C32.1024 75.7729 32.0314 75.9102 31.9051 75.9294C31.6656 75.966 30.5942 75.7207 29.9852 75.4892C29.916 75.8077 28.2838 76.1092 28.0254 75.6814C27.4331 76.1934 26.2983 76.936 26.0611 76.7805C25.6067 76.483 25.1793 74.1924 25.5213 73.7083C26.0408 73.2361 27.1329 73.7499 27.8991 74.0213C28.1589 73.582 29.4168 73.4154 29.6779 73.776C30.3659 73.253 31.5141 72.5154 31.626 72.6499C32.1842 73.3225 32.2547 74.9232 32.1339 75.5674L32.1343 75.567Z" fill="#4CBA3C"/>
<path fill-rule="evenodd" clip-rule="evenodd" d="M26.3135 68.6518C26.5477 66.9903 29.6863 67.5101 31.0898 67.3235C32.1126 67.2049 32.8717 66.9533 33.3773 66.757C34.5381 66.2802 34.7358 66.7533 34.1682 67.496C32.5656 69.3958 29.0014 68.013 28.3633 68.9955C28.1768 69.2865 28.321 69.9715 29.787 70.1874C31.7679 70.4785 33.3952 69.8365 33.5961 70.2245C33.1445 72.2983 25.6237 71.5922 26.3126 68.6523L26.3135 68.6518Z" fill="#FFCC33"/>
<path d="M30.3203 63.8598C30.1127 63.41 29.0454 63.4132 28.8413 63.8424C28.8227 63.9311 28.897 63.9077 29.0386 63.8631C29.2868 63.785 29.7416 63.6418 30.2655 63.9221C30.3068 63.9399 30.3468 63.8969 30.3203 63.8598Z" fill="#14307E"/>
<path d="M25.1047 63.9678C24.9065 63.9535 24.5848 63.9303 24.3189 64.078C23.9289 64.2441 23.803 64.423 23.7275 64.5457C23.6997 64.591 23.5918 64.5864 23.5918 64.5329C23.6183 63.8172 24.8317 63.4722 25.273 63.917C25.3266 63.9838 25.2479 63.9781 25.1047 63.9678Z" fill="#14307E"/>
<path d="M29.9402 66.3669C29.1236 66.3628 29.1236 65.104 29.9402 65.0999C30.7568 65.104 30.7568 66.3628 29.9402 66.3669Z" fill="#14307E"/>
<path d="M25.8022 66.1717C25.786 67.1426 24.3627 67.1426 24.3466 66.1717C24.3511 65.2052 25.7977 65.2057 25.8022 66.1717Z" fill="#14307E"/>
</svg>
