<svg width="96" height="96" viewBox="0 0 96 96" fill="none" xmlns="http://www.w3.org/2000/svg">
<path opacity="0.53" d="M79.7183 47.9706C79.8164 49.0835 78.9086 50 77.7914 50H71C59.9543 50 51 58.9543 51 70V77.9376C51 79.0617 50.1254 79.9998 49.0012 79.9998C44.953 79.9998 40.9445 79.2357 37.2045 77.751C33.4644 76.2663 30.0662 74.0902 27.2037 71.3468C24.3412 68.6035 22.0705 65.3467 20.5213 61.7624C18.9722 58.178 18.1748 54.3363 18.1748 50.4567C18.1748 42.6214 21.4226 35.107 27.2037 29.5666C32.9847 24.0261 40.8255 20.9136 49.0012 20.9136C53.0494 20.9136 57.0579 21.6777 60.798 23.1624C64.538 24.6471 67.9363 26.8232 70.7988 29.5666C73.6613 32.3099 75.9319 35.5667 77.4811 39.151C78.6984 41.9675 79.4515 44.9428 79.7183 47.9706Z" fill="black"/>
<path d="M78.7733 50C79.9856 50 81 49.0604 81 47.8481C81 43.6658 80.1723 39.5244 78.5641 35.6604C76.956 31.7964 74.5989 28.2855 71.6274 25.3281C68.6559 22.3707 65.1283 20.0248 61.2459 18.4243C57.3634 16.8238 53.2023 16 49 16C40.5131 16 32.3737 19.3554 26.3726 25.3281C20.3714 31.3008 17 39.4015 17 47.8481C17 56.2948 20.3714 64.3955 26.3726 70.3681C32.3737 76.3408 40.5131 79.6962 49 79.6962C50.1249 79.6962 51 78.7575 51 77.6327V70C51 58.9543 59.9543 50 71 50H78.7733Z" fill="url(#paint0_linear_5930_7380)" stroke="#CDCDCD" stroke-width="0.351543" stroke-linecap="round" stroke-linejoin="round"/>
<path d="M78.4126 50C78.4653 49.2863 78.4919 48.5686 78.4919 47.8481C78.4919 40.0634 75.3846 32.5974 69.8537 27.0928C64.3228 21.5881 56.8213 18.4956 48.9993 18.4956C41.1775 18.4956 33.6759 21.5881 28.145 27.0928C22.6141 32.5974 19.5068 40.0634 19.5068 47.8481C19.5068 55.6329 22.6141 63.0988 28.145 68.6035C33.6759 74.1082 41.1775 77.2006 48.9993 77.2006C49.6689 77.2006 50.3362 77.178 51 77.1331V70C51 58.9543 59.9543 50 71 50H78.4126Z" fill="url(#paint1_radial_5930_7380)"/>
<path d="M48.5698 20.4543C48.5698 20.2172 48.7615 20.0264 48.9997 20.0264C49.238 20.0264 49.4297 20.2172 49.4297 20.4543V25.3905C49.4297 25.6276 49.238 25.8185 48.9997 25.8185C48.7615 25.8185 48.5698 25.6276 48.5698 25.3905V20.4543Z" fill="#F4F2F3"/>
<path d="M46.0993 20.2037C46.1289 20.2003 46.1583 20.2003 46.1868 20.2033C46.3861 20.2226 46.5501 20.3786 46.5718 20.5849L46.7884 22.65C46.8131 22.8858 46.6423 23.0954 46.4053 23.12C46.1684 23.1447 45.9578 22.9746 45.933 22.7388L45.7163 20.6737C45.6915 20.4379 45.8624 20.2283 46.0993 20.2037Z" fill="#F4F2F3"/>
<path d="M51.4471 20.5867C51.469 20.3804 51.633 20.2245 51.8324 20.2053C51.8609 20.2028 51.89 20.2028 51.9196 20.2059C52.1565 20.2307 52.3274 20.4403 52.3025 20.6761L52.0842 22.7412C52.0593 22.977 51.8487 23.1469 51.6118 23.1221C51.3748 23.0973 51.204 22.8875 51.2289 22.6517L51.4471 20.5867Z" fill="#F4F2F3"/>
<path d="M43.2103 20.6295C43.2394 20.6234 43.2685 20.6206 43.2971 20.6204C43.4974 20.6188 43.6769 20.7566 43.7201 20.9596L44.7472 25.7888C44.7966 26.0208 44.6487 26.2469 44.4156 26.296C44.1825 26.3451 43.9552 26.1979 43.9058 25.966L42.8787 21.1369C42.8293 20.9049 42.9772 20.6786 43.2103 20.6295Z" fill="#F4F2F3"/>
<path d="M54.2987 20.9635C54.3421 20.7606 54.5215 20.6224 54.7219 20.6244C54.7505 20.6244 54.7796 20.6277 54.8087 20.6338C55.0417 20.6831 55.1895 20.9095 55.14 21.1414L54.1093 25.9699C54.0598 26.2018 53.8323 26.3489 53.5993 26.2996C53.3663 26.2503 53.2185 26.024 53.268 25.7921L54.2987 20.9635Z" fill="#F4F2F3"/>
<path d="M40.3696 21.414C40.4263 21.3953 40.4837 21.3892 40.5394 21.3942C40.7064 21.4084 40.8562 21.5195 40.9113 21.6886L41.556 23.6634C41.6296 23.8889 41.5066 24.1294 41.2801 24.2027C41.0535 24.276 40.8118 24.1534 40.7382 23.9279L40.0935 21.9531C40.0199 21.7276 40.1431 21.4873 40.3696 21.414Z" fill="#F4F2F3"/>
<path d="M57.0921 21.6897C57.1473 21.5206 57.297 21.4094 57.464 21.3953C57.5196 21.3906 57.5774 21.3965 57.634 21.4148C57.8605 21.4881 57.9836 21.7287 57.9099 21.9542L57.2648 23.9289C57.1912 24.1544 56.9495 24.2769 56.723 24.2036C56.4964 24.1303 56.3733 23.8897 56.447 23.6643L57.0921 21.6897Z" fill="#F4F2F3"/>
<path d="M37.6455 22.4248C37.6999 22.4007 37.7565 22.3885 37.8123 22.3874C37.9799 22.3842 38.1405 22.4795 38.213 22.642L40.2276 27.1526C40.3244 27.3693 40.2268 27.6212 40.0092 27.7175C39.7915 27.8138 39.5385 27.7169 39.4417 27.5002L37.4273 22.9896C37.3305 22.7729 37.4279 22.521 37.6455 22.4248Z" fill="#F4F2F3"/>
<path d="M59.8208 22.6566C59.8936 22.4942 60.0543 22.3995 60.2218 22.4026C60.2777 22.4038 60.3343 22.416 60.3887 22.4401C60.6062 22.5367 60.7032 22.7887 60.6062 23.0053L58.5856 27.5132C58.4885 27.7297 58.2353 27.8262 58.0177 27.7296C57.8002 27.633 57.7032 27.381 57.8002 27.1645L59.8208 22.6566Z" fill="#F4F2F3"/>
<path d="M35.0361 23.7771C35.1135 23.7326 35.1985 23.7143 35.2811 23.7204C35.4187 23.73 35.549 23.8054 35.6234 23.9338L36.6666 25.732C36.7857 25.9373 36.7155 26.198 36.5092 26.3165C36.3029 26.4351 36.041 26.3653 35.9219 26.1599L34.8787 24.3617C34.7596 24.1564 34.8298 23.8957 35.0361 23.7771Z" fill="#F4F2F3"/>
<path d="M62.3762 23.9337C62.4507 23.8054 62.5808 23.7296 62.7184 23.7204C62.801 23.7147 62.8862 23.7327 62.9636 23.7771C63.1699 23.8957 63.2401 24.1564 63.121 24.3617L62.0778 26.1599C61.9587 26.3652 61.6968 26.4351 61.4905 26.3165C61.2842 26.198 61.2138 25.9373 61.3329 25.7319L62.3762 23.9337Z" fill="#F4F2F3"/>
<path d="M32.5852 25.3278C32.6575 25.2757 32.7403 25.2492 32.8231 25.2462C32.9609 25.2415 33.0983 25.303 33.1857 25.423L36.0982 29.4186C36.2381 29.6105 36.1955 29.877 36.0026 30.0162C35.8098 30.1554 35.5418 30.113 35.4019 29.9211L32.4896 25.9255C32.3497 25.7336 32.3923 25.4671 32.5852 25.3278Z" fill="#F4F2F3"/>
<path d="M64.8444 25.4442C64.932 25.3244 65.0694 25.2629 65.2072 25.268C65.2899 25.2709 65.3727 25.2978 65.445 25.35C65.6375 25.4895 65.6799 25.7561 65.5398 25.9479L62.6221 29.9396C62.482 30.1312 62.214 30.1732 62.0214 30.0337C61.8287 29.8942 61.7864 29.6276 61.9266 29.4358L64.8444 25.4442Z" fill="#F4F2F3"/>
<path d="M30.3157 27.1897C30.4042 27.1104 30.5163 27.0739 30.626 27.08C30.7358 27.0858 30.8434 27.1333 30.9231 27.2214L32.3189 28.7646C32.4783 28.9408 32.464 29.2105 32.287 29.3691C32.1099 29.5278 31.8391 29.5136 31.6798 29.3374L30.2839 27.7941C30.1244 27.6178 30.1387 27.3484 30.3157 27.1897Z" fill="#F4F2F3"/>
<path d="M67.0795 27.2245C67.1592 27.1364 67.2669 27.0892 67.3766 27.0831C67.4864 27.0773 67.5983 27.1135 67.6868 27.1928C67.8638 27.3515 67.8781 27.6211 67.7187 27.7973L66.3226 29.3403C66.1632 29.5164 65.8924 29.5307 65.7154 29.372C65.5383 29.2134 65.5242 28.9437 65.6836 28.7675L67.0795 27.2245Z" fill="#F4F2F3"/>
<path d="M28.2233 29.2346C28.303 29.1465 28.4105 29.0992 28.5203 29.0931C28.63 29.0874 28.7419 29.1236 28.8305 29.2029L32.5168 32.5054C32.6939 32.6641 32.7079 32.9336 32.5485 33.1098C32.3892 33.2859 32.1184 33.3001 31.9413 33.1415L28.2552 29.8389C28.0782 29.6803 28.0639 29.4108 28.2233 29.2346Z" fill="#F4F2F3"/>
<path d="M69.1821 29.2171C69.2707 29.1379 69.3828 29.1015 69.4926 29.1076C69.6024 29.1134 69.7098 29.1611 69.7895 29.2492C69.9488 29.4255 69.9344 29.695 69.7572 29.8535L66.0687 33.1535C65.8915 33.312 65.6205 33.2977 65.4613 33.1214C65.302 32.9451 65.3166 32.6756 65.4938 32.5171L69.1821 29.2171Z" fill="#F4F2F3"/>
<path d="M26.4063 31.5107C26.4938 31.3908 26.6313 31.329 26.7691 31.3341C26.8518 31.337 26.9348 31.3637 27.0071 31.4159L28.6949 32.6364C28.8876 32.7758 28.9299 33.0425 28.7899 33.2343C28.6499 33.4261 28.3821 33.4682 28.1894 33.3288L26.5015 32.1083C26.3088 31.969 26.2663 31.7025 26.4063 31.5107Z" fill="#F4F2F3"/>
<path d="M71.0041 31.4313C71.0764 31.379 71.1593 31.3527 71.242 31.3496C71.3799 31.345 71.5172 31.4065 71.6047 31.5264C71.7445 31.7183 71.7021 31.9849 71.5092 32.1241L69.8205 33.3435C69.6277 33.4827 69.3598 33.4404 69.2199 33.2485C69.0801 33.0566 69.1227 32.7899 69.3156 32.6507L71.0041 31.4313Z" fill="#F4F2F3"/>
<path d="M24.7905 33.9378C24.865 33.8095 24.9951 33.7336 25.1327 33.7245C25.2153 33.7188 25.3005 33.7368 25.3779 33.7812L29.6731 36.2493C29.8794 36.3678 29.9496 36.6285 29.8304 36.8339C29.7113 37.0392 29.4494 37.109 29.2431 36.9905L24.9479 34.5224C24.7416 34.4038 24.6714 34.1431 24.7905 33.9378Z" fill="#F4F2F3"/>
<path d="M72.6216 33.7812C72.699 33.7367 72.7842 33.7184 72.8668 33.7245C73.0044 33.7341 73.1347 33.8095 73.2092 33.9379C73.3283 34.1432 73.2581 34.4039 73.0518 34.5224L68.7564 36.9905C68.5501 37.1091 68.2882 37.0392 68.169 36.8339C68.0499 36.6286 68.1201 36.3679 68.3264 36.2493L72.6216 33.7812Z" fill="#F4F2F3"/>
<path d="M23.4944 36.5262C23.5672 36.3638 23.7279 36.2683 23.8955 36.2724C23.9513 36.2735 24.008 36.2855 24.0623 36.3097L25.9676 37.1556C26.1852 37.2522 26.2824 37.5043 26.1853 37.7208C26.0883 37.9373 25.835 38.0338 25.6174 37.9372L23.7119 37.0913C23.4944 36.9948 23.3974 36.7427 23.4944 36.5262Z" fill="#F4F2F3"/>
<path d="M73.9453 36.3273C73.9998 36.3032 74.0565 36.291 74.1124 36.29C74.2799 36.2867 74.4404 36.3817 74.513 36.5441C74.6099 36.7607 74.5128 37.0127 74.2952 37.1091L72.3893 37.9537C72.1717 38.0502 71.9184 37.9533 71.8214 37.7367C71.7245 37.5201 71.8218 37.2682 72.0395 37.1717L73.9453 36.3273Z" fill="#F4F2F3"/>
<path d="M22.4207 39.2294C22.476 39.0604 22.6257 38.9493 22.7928 38.9354C22.8484 38.9307 22.9062 38.9368 22.9628 38.9552L27.6785 40.4845C27.905 40.5579 28.0278 40.7985 27.9541 41.024C27.8803 41.2493 27.6385 41.3716 27.412 41.2982L22.6963 39.7689C22.4697 39.6955 22.3469 39.4549 22.4207 39.2294Z" fill="#F4F2F3"/>
<path d="M75.0432 38.9734C75.0999 38.9547 75.1574 38.9486 75.213 38.9537C75.38 38.9678 75.5299 39.079 75.5851 39.2481C75.6588 39.4735 75.5355 39.7141 75.309 39.7874L70.5923 41.3134C70.3658 41.3867 70.1241 41.2642 70.0504 41.0387C69.9768 40.8132 70.0998 40.5727 70.3264 40.4994L75.0432 38.9734Z" fill="#F4F2F3"/>
<path d="M21.6824 42.0701C21.7258 41.8672 21.9054 41.7288 22.1058 41.7308C22.1344 41.7308 22.1635 41.7343 22.1926 41.7404L24.2332 42.1721C24.4662 42.2213 24.614 42.4477 24.5645 42.6796C24.5149 42.9115 24.2875 43.0586 24.0545 43.0093L22.0137 42.5777C21.7807 42.5284 21.6329 42.302 21.6824 42.0701Z" fill="#F4F2F3"/>
<path d="M75.8081 41.744C75.8372 41.739 75.8661 41.7351 75.8947 41.7349C76.095 41.7332 76.2747 41.8708 76.318 42.0737C76.3675 42.3056 76.2196 42.532 75.9866 42.5813L73.946 43.0127C73.7129 43.062 73.4855 42.9148 73.436 42.6829C73.3865 42.4509 73.5342 42.2248 73.7672 42.1755L75.8081 41.744Z" fill="#F4F2F3"/>
<path d="M21.2003 44.9237C21.2222 44.7174 21.3863 44.5617 21.5858 44.5427C21.6143 44.54 21.6434 44.54 21.673 44.543L26.6053 45.062C26.8422 45.0869 27.0128 45.2969 26.9878 45.5326C26.9627 45.7684 26.7518 45.9382 26.5149 45.9133L21.5826 45.3943C21.3457 45.3694 21.1753 45.1595 21.2003 44.9237Z" fill="#F4F2F3"/>
<path d="M76.3309 44.5799C76.3606 44.5765 76.3899 44.5765 76.4184 44.5796C76.6178 44.5989 76.7816 44.7548 76.8032 44.9611C76.8279 45.1969 76.6571 45.4066 76.4202 45.4312L71.4873 45.9435C71.2504 45.9682 71.0398 45.7981 71.015 45.5623C70.9903 45.3265 71.1611 45.1169 71.3981 45.0923L76.3309 44.5799Z" fill="#F4F2F3"/>
<path d="M21.0723 47.8489C21.0723 47.6118 21.264 47.421 21.5022 47.421H23.5885C23.8267 47.421 24.0187 47.6118 24.0187 47.8489C24.0187 48.086 23.8267 48.2768 23.5885 48.2768H21.5022C21.264 48.2768 21.0723 48.086 21.0723 47.8489Z" fill="#F4F2F3"/>
<path d="M73.981 47.8489C73.981 47.6118 74.1728 47.421 74.411 47.421H76.4972C76.7355 47.421 76.9272 47.6118 76.9272 47.8489C76.9272 48.086 76.7355 48.2768 76.4972 48.2768H74.411C74.1728 48.2768 73.981 48.086 73.981 47.8489Z" fill="#F4F2F3"/>
<path d="M26.5123 49.7542C26.5419 49.7508 26.571 49.7508 26.5995 49.7539C26.7989 49.7732 26.9629 49.9291 26.9846 50.1354C27.0093 50.3712 26.8385 50.5809 26.6015 50.6055L21.6685 51.1178C21.4316 51.1425 21.2209 50.9724 21.1962 50.7366C21.1715 50.5008 21.3423 50.2912 21.5792 50.2666L26.5123 49.7542Z" fill="#F4F2F3"/>
<path d="M71.0646 50C71.1324 49.8798 71.256 49.7976 71.3974 49.7842C71.4259 49.7815 71.4552 49.7815 71.4848 49.7845L73.5323 50H71.0646Z" fill="#F4F2F3"/>
<path d="M24.0538 52.6844C24.0829 52.6783 24.112 52.6755 24.1406 52.6752C24.3409 52.6736 24.5204 52.8113 24.5637 53.0143C24.6132 53.2462 24.4655 53.4725 24.2325 53.5218L22.1917 53.9531C21.9587 54.0023 21.7313 53.8553 21.6817 53.6234C21.6322 53.3915 21.7799 53.1651 22.013 53.1158L24.0538 52.6844Z" fill="#F4F2F3"/>
<path d="M27.4073 54.3846C27.464 54.3659 27.5215 54.3598 27.5771 54.3648C27.7441 54.379 27.894 54.4901 27.9492 54.6592C28.0229 54.8847 27.8997 55.1252 27.6731 55.1985L22.9564 56.7245C22.7299 56.7978 22.4882 56.6753 22.4146 56.4499C22.3409 56.2244 22.464 55.9838 22.6905 55.9105L27.4073 54.3846Z" fill="#F4F2F3"/>
<path d="M25.6104 57.7442C25.6648 57.7201 25.7213 57.7082 25.7772 57.7071C25.9448 57.7038 26.1054 57.7988 26.1781 57.9613C26.275 58.1779 26.1778 58.4299 25.9602 58.5262L24.0541 59.3707C23.8365 59.4671 23.5834 59.3704 23.4864 59.1539C23.3896 58.9373 23.4867 58.6852 23.7043 58.5889L25.6104 57.7442Z" fill="#F4F2F3"/>
<path d="M29.2431 58.7075C29.3205 58.663 29.4057 58.6447 29.4882 58.6508C29.6258 58.6603 29.756 58.7358 29.8304 58.8641C29.9495 59.0694 29.8794 59.3303 29.6731 59.4489L25.3779 61.9168C25.1716 62.0353 24.9096 61.9655 24.7905 61.7602C24.6714 61.5549 24.7416 61.2942 24.9479 61.1756L29.2431 58.7075Z" fill="#F4F2F3"/>
<path d="M28.179 62.3545C28.2513 62.3023 28.3341 62.2757 28.4169 62.2727C28.5547 62.268 28.6922 62.3297 28.7797 62.4496C28.9196 62.6415 28.8769 62.9081 28.6841 63.0473L26.9953 64.2666C26.8025 64.4059 26.5347 64.3635 26.3948 64.1716C26.2549 63.9797 26.2976 63.7131 26.4904 63.5739L28.179 62.3545Z" fill="#F4F2F3"/>
<path d="M31.931 62.5444C32.0196 62.4652 32.1315 62.4288 32.2413 62.4349C32.351 62.4407 32.4586 62.4884 32.5382 62.5765C32.6975 62.7529 32.6831 63.0224 32.5059 63.1809L28.8174 66.4809C28.6402 66.6394 28.3694 66.625 28.2102 66.4487C28.0509 66.2724 28.0653 66.0029 28.2425 65.8444L31.931 62.5444Z" fill="#F4F2F3"/>
<path d="M35.3776 65.7579C35.4651 65.6381 35.6027 65.5766 35.7406 65.5817C35.8233 65.5846 35.9061 65.6114 35.9783 65.6637C36.1708 65.8032 36.213 66.0698 36.0729 66.2615L33.1552 70.2532C33.0151 70.445 32.7471 70.4869 32.5545 70.3475C32.3619 70.208 32.3198 69.9413 32.4599 69.7496L35.3776 65.7579Z" fill="#F4F2F3"/>
<path d="M31.6769 66.3576C31.7566 66.2695 31.8643 66.2222 31.9741 66.2161C32.0838 66.2104 32.1957 66.2465 32.2842 66.3258C32.4612 66.4844 32.4755 66.7541 32.3161 66.9303L30.92 68.4733C30.7606 68.6495 30.4898 68.6637 30.3128 68.5051C30.1357 68.3465 30.1216 68.0768 30.281 67.9006L31.6769 66.3576Z" fill="#F4F2F3"/>
<path d="M39.4141 68.1837C39.4869 68.0213 39.6474 67.9259 39.8149 67.9299C39.8708 67.9311 39.9276 67.9431 39.9819 67.9673C40.1995 68.0638 40.2965 68.3159 40.1994 68.5324L38.1787 73.0403C38.0816 73.2569 37.8284 73.3534 37.6108 73.2568C37.3933 73.1602 37.2963 72.9081 37.3933 72.6916L39.4141 68.1837Z" fill="#F4F2F3"/>
<path d="M35.9219 69.537C35.9963 69.4087 36.1265 69.3328 36.2641 69.3237C36.3466 69.318 36.4319 69.336 36.5092 69.3804C36.7155 69.4989 36.7857 69.7596 36.6666 69.965L35.6234 71.7632C35.5043 71.9685 35.2424 72.0383 35.0361 71.9198C34.8298 71.8013 34.7596 71.5406 34.8787 71.3352L35.9219 69.537Z" fill="#F4F2F3"/>
<path d="M43.8904 69.7273C43.9337 69.5243 44.1132 69.3861 44.3135 69.3882C44.3421 69.3882 44.3713 69.3915 44.4004 69.3976C44.6334 69.4468 44.7812 69.6732 44.7316 69.9051L43.7009 74.7337C43.6514 74.9655 43.424 75.1127 43.191 75.0633C42.958 75.0141 42.8102 74.7877 42.8597 74.5558L43.8904 69.7273Z" fill="#F4F2F3"/>
<path d="M48.5698 70.3062C48.5698 70.0691 48.7615 69.8783 48.9997 69.8783C49.238 69.8783 49.4297 70.0691 49.4297 70.3062V75.2424C49.4297 75.4795 49.238 75.6704 48.9997 75.6704C48.7615 75.6704 48.5698 75.4795 48.5698 75.2424V70.3062Z" fill="#F4F2F3"/>
<path d="M40.7346 71.7677C40.7899 71.5986 40.9397 71.4874 41.1067 71.4733C41.1624 71.4686 41.2199 71.4748 41.2765 71.4931C41.503 71.5664 41.6261 71.8069 41.5525 72.0324L40.9076 74.007C40.834 74.2324 40.5923 74.3551 40.3657 74.2818C40.1392 74.2085 40.0161 73.968 40.0898 73.7425L40.7346 71.7677Z" fill="#F4F2F3"/>
<path d="M45.9152 72.9554C45.937 72.7491 46.1013 72.5933 46.3007 72.5742C46.3292 72.5715 46.3583 72.5715 46.3879 72.5746C46.6248 72.5994 46.7955 72.8092 46.7706 73.045L46.5525 75.1099C46.5276 75.3457 46.3168 75.5156 46.0799 75.4907C45.8429 75.4659 45.6723 75.2563 45.6972 75.0205L45.9152 72.9554Z" fill="#F4F2F3"/>
<g opacity="0.409" filter="url(#filter0_f_5930_7380)">
<path d="M69.1527 30.73L45.6273 44.3334L30.7529 67.6388L52.513 51.5978L69.1527 30.73Z" fill="black"/>
</g>
<path d="M52.3711 51.3619L45.6279 44.3338L69.5484 28.3188L52.3711 51.3619Z" fill="#FF5150"/>
<path d="M52.3712 51.3621L45.628 44.334L28.4507 67.3771L52.3712 51.3621Z" fill="#F1F1F1"/>
<path opacity="0.243" d="M28.4507 67.3769L52.3712 51.3619L69.5486 28.3188L28.4507 67.3769Z" fill="black"/>
<path d="M92.5015 58C92.7989 58 93.0962 58.12 93.3236 58.3539C93.7785 58.8219 93.7785 59.5837 93.3236 60.0517L90.9913 62.4512C90.5364 62.9192 89.7959 62.9192 89.3411 62.4512C88.8863 61.9833 88.8863 61.2215 89.3411 60.7535L91.6735 58.3539C91.9009 58.12 92.1983 58 92.4957 58H92.5015Z" fill="#CCCCCC"/>
<path d="M91.3352 68.7982H94.8338C95.4752 68.7982 96 69.3381 96 69.998C96 70.6579 95.4752 71.1978 94.8338 71.1978H91.3352C90.6938 71.1978 90.169 70.6579 90.169 69.998C90.169 69.3381 90.6938 68.7982 91.3352 68.7982Z" fill="#CCCCCC"/>
<path d="M89.353 77.5518C89.5804 77.3178 89.8778 77.1978 90.1751 77.1978H90.181C90.4783 77.1978 90.7757 77.3178 91.0031 77.5518L93.3355 79.9513C93.7903 80.4193 93.7903 81.1811 93.3355 81.6491C92.8807 82.117 92.1402 82.117 91.6854 81.6491L89.353 79.2495C88.8982 78.7815 88.8982 78.0197 89.353 77.5518Z" fill="#CCCCCC"/>
<rect x="55" y="54" width="32" height="32" rx="16" fill="#DE5833"/>
<path d="M74.8144 69.4641C74.7167 69.5264 74.4033 69.4904 73.9905 69.4434C70.3305 68.7997 69.974 70.8881 71.7374 74.0674C70.1406 74.5433 72.0239 79.1478 73.5596 82.6052C71.8801 83.2001 68.7882 83.072 67.3578 82.5442C67.3555 82.5369 67.3531 82.5284 67.3507 82.521C67.0367 82.4051 66.6472 82.4063 66.465 82.158C65.9731 78.775 59.1098 62.6309 67.4951 61.5736C67.5477 61.5585 66.412 61.2055 64.8826 61.5879C62.9708 61.9702 66.7398 56.3823 70.6996 61.2814C75.0025 62.2222 75.3105 69.1481 74.815 69.4635L74.8144 69.4641Z" fill="white"/>
<path d="M76.2901 80.0891C76.2475 80.3637 76.1529 80.5467 75.9845 80.5723C75.6651 80.6211 74.2366 80.2941 73.4247 79.9854C73.3324 80.41 71.1561 80.8121 70.8115 80.2417C70.0218 80.9244 68.5088 81.9146 68.1924 81.7071C67.5866 81.3106 67.0168 78.2564 67.4728 77.6109C68.1654 76.9812 69.6215 77.6664 70.6432 78.0282C70.9895 77.4425 72.6667 77.2204 73.0148 77.7012C73.9322 77.0038 75.4632 76.0203 75.6124 76.1997C76.3566 77.0965 76.4507 79.2307 76.2895 80.0897L76.2901 80.0891Z" fill="#4CBA3C"/>
<path fill-rule="evenodd" clip-rule="evenodd" d="M68.5294 70.8694C68.8415 68.6541 73.0264 69.3472 74.8977 69.0983C76.2615 68.9402 77.2736 68.6047 77.9477 68.3429C79.4954 67.7072 79.7591 68.3381 79.0023 69.3283C76.8655 71.8614 72.1132 70.0177 71.2623 71.3276C71.0137 71.7156 71.206 72.629 73.1606 72.9169C75.8019 73.3049 77.9716 72.449 78.2395 72.9663C77.6373 75.7313 67.6096 74.79 68.5282 70.87L68.5294 70.8694Z" fill="#FFCC33"/>
<path d="M73.8713 64.4794C73.5944 63.8797 72.1713 63.884 71.8993 64.4563C71.8745 64.5744 71.9735 64.5432 72.1624 64.4838C72.4932 64.3797 73.0997 64.1888 73.7982 64.5624C73.8533 64.5862 73.9066 64.5289 73.8713 64.4794Z" fill="#14307E"/>
<path d="M66.9171 64.6234C66.6529 64.6043 66.2239 64.5734 65.8694 64.7704C65.3493 64.9918 65.1815 65.2304 65.0809 65.3939C65.0437 65.4543 64.8999 65.4482 64.8999 65.3768C64.9353 64.4226 66.5531 63.9626 67.1415 64.5556C67.2129 64.6447 67.108 64.6371 66.9171 64.6234Z" fill="#14307E"/>
<path d="M73.3644 67.8222C72.2757 67.8167 72.2757 66.1383 73.3644 66.1328C74.4532 66.1383 74.4532 67.8167 73.3644 67.8222Z" fill="#14307E"/>
<path d="M67.8471 67.5619C67.8255 68.8565 65.9278 68.8565 65.9062 67.5619C65.9122 66.2733 67.8411 66.2739 67.8471 67.5619Z" fill="#14307E"/>
<path fill-rule="evenodd" clip-rule="evenodd" d="M70.9997 57.9557C64.348 57.9557 58.9557 63.348 58.9557 69.9997C58.9557 76.6515 64.348 82.0438 70.9997 82.0438C77.6515 82.0438 83.0438 76.6515 83.0438 69.9997C83.0438 63.348 77.6515 57.9557 70.9997 57.9557ZM57.0439 69.9997C57.0439 62.2922 63.2922 56.0439 70.9997 56.0439C78.7073 56.0439 84.9555 62.2922 84.9555 69.9997C84.9555 77.7073 78.7073 83.9555 70.9997 83.9555C63.2922 83.9555 57.0439 77.7073 57.0439 69.9997Z" fill="white"/>
<defs>
<filter id="filter0_f_5930_7380" x="28.2081" y="28.1851" width="43.4893" height="41.9984" filterUnits="userSpaceOnUse" color-interpolation-filters="sRGB">
<feFlood flood-opacity="0" result="BackgroundImageFix"/>
<feBlend mode="normal" in="SourceGraphic" in2="BackgroundImageFix" result="shape"/>
<feGaussianBlur stdDeviation="1.27242" result="effect1_foregroundBlur_5930_7380"/>
</filter>
<linearGradient id="paint0_linear_5930_7380" x1="48.9988" y1="79.6956" x2="48.9988" y2="15.9998" gradientUnits="userSpaceOnUse">
<stop stop-color="#BDBDBD"/>
<stop offset="1" stop-color="white"/>
</linearGradient>
<radialGradient id="paint1_radial_5930_7380" cx="0" cy="0" r="1" gradientUnits="userSpaceOnUse" gradientTransform="translate(49.1323 43.5681) scale(31.9999 31.848)">
<stop stop-color="#06C2E7"/>
<stop offset="0.25" stop-color="#0DB8EC"/>
<stop offset="0.5" stop-color="#12AEF1"/>
<stop offset="0.75" stop-color="#1F86F9"/>
<stop offset="1" stop-color="#107DDD"/>
</radialGradient>
</defs>
</svg>
