<svg width="128" height="96" viewBox="0 0 128 96" fill="none" xmlns="http://www.w3.org/2000/svg">
<path d="M84.9832 25.4692C90.506 25.4692 94.9832 29.9464 94.9832 35.4692V50.1467C93.4278 49.5851 91.7503 49.2788 90.0012 49.2788C81.901 49.2788 75.3345 55.8454 75.3345 63.9456C75.3345 66.536 76.006 68.9697 77.1846 71.0818H42.7852C37.2623 71.0818 32.7852 66.6046 32.7852 61.0818V35.4692C32.7852 29.9464 37.2623 25.4692 42.7852 25.4692H84.9832Z" fill="#1074CC"/>
<path fill-rule="evenodd" clip-rule="evenodd" d="M68.3228 17.5498C70.808 17.5498 72.8228 19.3407 72.8228 21.5498L73.5115 25.375L54.2615 25.3748L54.9502 21.5498C54.9502 19.3407 56.9649 17.5498 59.4502 17.5498H68.3228ZM60.626 20.5232C59.4972 20.5232 58.582 21.3477 58.582 22.3647V25.3745L69.2737 25.3748V22.3647C69.2737 21.3477 68.3586 20.5232 67.2297 20.5232H60.626Z" fill="#1074CC"/>
<path d="M84.75 25.5C90.2728 25.5 94.75 29.9772 94.75 35.5V47.127C94.75 48.0878 94.4729 49.0213 93.9619 49.8203C92.7017 49.4676 91.373 49.2788 90.0002 49.2788C83.4756 49.2788 77.946 53.5393 76.0417 59.4299C75.4239 59.4761 74.8023 59.5 74.1782 59.5H53.3218C46.3886 59.5 39.7666 56.6209 35.0381 51.5503L34.0933 50.5369C33.2301 49.6112 32.75 48.3926 32.75 47.127V35.5C32.75 29.9772 37.2272 25.5 42.75 25.5H84.75Z" fill="#4397E0"/>
<path fill-rule="evenodd" clip-rule="evenodd" d="M66.0115 16.125C70.5678 16.125 74.2615 19.8187 74.2615 24.375V24.7192H84.9832C90.9202 24.7192 95.7332 29.5322 95.7332 35.4692V50.4414C95.2461 50.2344 94.7455 50.0531 94.2332 49.8989V35.4692C94.2332 30.3606 90.0918 26.2192 84.9832 26.2192H42.7852C37.6765 26.2192 33.5352 30.3606 33.5352 35.4692V61.0818C33.5352 66.1904 37.6765 70.3318 42.7852 70.3318H76.7937C77.0445 70.8495 77.3249 71.3502 77.6326 71.8318H42.7852C36.8481 71.8318 32.0352 67.0189 32.0352 61.0818V35.4692C32.0352 29.5322 36.8481 24.7192 42.7852 24.7192H53.5115V24.375C53.5115 19.8187 57.2051 16.125 61.7615 16.125H66.0115ZM61.7615 17.625C58.0336 17.625 55.0115 20.6471 55.0115 24.375V24.7192H57.7615V24.125C57.7615 21.6397 59.7762 19.625 62.2615 19.625H65.7615C68.2467 19.625 70.2615 21.6397 70.2615 24.125V24.7192H72.7615V24.375C72.7615 20.6471 69.7394 17.625 66.0115 17.625H61.7615ZM62.2615 21.125C60.6046 21.125 59.2615 22.4681 59.2615 24.125V24.7192H68.7615V24.125C68.7615 22.4682 67.4183 21.125 65.7615 21.125H62.2615Z" fill="#045EB2"/>
<path d="M44.5247 26.6636C44.605 26.6071 44.7039 26.5843 44.8 26.6003C44.8961 26.6164 44.9821 26.6699 45.0398 26.7493C45.0975 26.8288 45.1218 26.9276 45.1096 27.0244C45.0345 27.6616 45.0057 28.2986 44.9756 28.9673C44.7922 34.5816 44.8148 40.2498 44.728 45.8831C44.6519 52.1723 44.5004 58.4737 44.3738 64.7588C44.3619 65.431 44.3516 66.102 44.343 66.7446C44.3421 66.8176 44.3143 66.8884 44.2637 66.9417C44.213 66.9949 44.1439 67.0264 44.071 67.0288C43.9982 67.0312 43.9269 67.0044 43.8728 66.9546C43.8188 66.9048 43.7865 66.8359 43.7808 66.7632C43.7297 66.1201 43.6834 65.4484 43.6414 64.7754C43.2562 58.4822 43.1519 52.1661 43.2283 45.8635C43.3156 40.2151 43.4918 34.5486 44.0789 28.8975C44.1572 28.2195 44.2344 27.5836 44.3696 26.9014C44.3895 26.8058 44.4443 26.7201 44.5247 26.6636Z" fill="#045EB2"/>
<path d="M49.7871 26.6362C49.8835 26.646 49.9726 26.6938 50.0352 26.769C50.0977 26.8442 50.1283 26.9407 50.1235 27.0376C50.101 27.5347 50.0965 28.0424 50.0928 28.55C50.0892 32.9034 50.1389 37.2679 50.0801 41.6272C50.0228 46.4869 49.8693 51.3501 49.6172 56.2139C49.5907 56.7206 49.5632 57.2436 49.5347 57.7493C49.5306 57.8217 49.5007 57.8913 49.4485 57.9426C49.3963 57.994 49.3266 58.023 49.2542 58.0232C49.1817 58.0234 49.112 57.9947 49.0596 57.9436C49.0071 57.8925 48.9766 57.8232 48.9722 57.7507C48.9411 57.2449 48.9119 56.7216 48.8845 56.2146C48.6251 51.3476 48.5228 46.4763 48.5801 41.6091C48.6391 37.2412 48.7892 32.8782 49.1946 28.5029C49.2457 27.9905 49.3001 27.4811 49.3774 26.9624C49.3921 26.8665 49.4414 26.778 49.5178 26.7168C49.5941 26.6556 49.6907 26.6265 49.7871 26.6362Z" fill="#045EB2"/>
<path d="M78.9924 29.8835C79.0896 29.878 79.1853 29.9111 79.259 29.9758C79.3328 30.0406 79.378 30.1315 79.3877 30.2285C79.4488 30.8358 79.5051 31.4621 79.5571 32.0925C79.9869 37.3835 80.1724 42.6885 80.2246 47.9905C80.2385 49.6647 80.2379 51.3395 80.2219 53.0144C79.7176 53.4658 79.2446 53.9515 78.8069 54.468C78.7715 52.3131 78.7424 50.1582 78.7246 48.0042C78.6725 42.713 78.6874 37.4179 78.6587 32.1331C78.6538 31.5034 78.6473 30.878 78.6389 30.2715C78.6375 30.174 78.6721 30.0784 78.738 30.0056C78.8039 29.9329 78.8953 29.8891 78.9924 29.8835Z" fill="#045EB2"/>
<path d="M82.9009 26.5979C82.9976 26.5861 83.0954 26.6131 83.1731 26.6731C83.2509 26.7331 83.3018 26.8214 83.3174 26.9177C83.4239 27.5833 83.5042 28.2687 83.5762 28.9482C84.1436 34.7259 84.3232 40.4813 84.4016 46.2583C84.4162 47.6317 84.4217 49.0051 84.4187 50.3784C83.9196 50.584 83.4343 50.8164 82.9646 51.0737C82.9401 49.4745 82.9188 47.8751 82.9019 46.2756C82.8238 40.5129 82.8435 34.7607 82.679 29.0117C82.6545 28.3373 82.6245 27.6564 82.573 27.0081C82.565 26.9108 82.5934 26.8132 82.6545 26.7363C82.7157 26.6594 82.8041 26.6097 82.9009 26.5979Z" fill="#045EB2"/>
<path d="M86.1338 22.0598C88.5621 21.424 90.8463 21.6938 92.8101 23.0491C93.6215 23.6274 94.3674 24.4411 94.9607 25.6218C95.0722 25.8447 95.1791 26.0833 95.2771 26.333C95.3111 26.4198 95.3207 26.5521 95.302 26.7048C95.2834 26.8574 95.2382 27.0173 95.1761 27.1504C95.1138 27.2835 95.0392 27.3801 94.9683 27.4192C94.8973 27.4583 94.836 27.4363 94.7959 27.3625C94.6874 27.1634 94.5722 26.972 94.4539 26.7929C93.8251 25.8448 93.0879 25.1596 92.3076 24.6033C90.4194 23.2996 88.2697 22.7419 85.9925 22.7995C85.8102 22.8077 85.6283 22.8215 85.4483 22.8413C85.4157 22.8449 85.3892 22.8207 85.3755 22.7707C85.3618 22.7208 85.3618 22.6493 85.3755 22.5722C85.3892 22.4953 85.4156 22.4179 85.449 22.3567C85.4825 22.2954 85.5203 22.2559 85.5545 22.2436C85.7462 22.1747 85.9397 22.1135 86.1338 22.0598Z" fill="#1074CC"/>
<path d="M90 76C96.6274 76 102 70.6274 102 64C102 57.3726 96.6274 52 90 52C83.3726 52 78 57.3726 78 64C78 70.6274 83.3726 76 90 76Z" fill="black"/>
<path d="M89.9995 57.334C90.5518 57.334 90.9995 57.7817 90.9995 58.334V67.5747L94.7048 64.5842C95.1346 64.2374 95.7642 64.3047 96.1111 64.7344C96.4579 65.1641 96.3909 65.7937 95.9612 66.1406L90.6392 70.4355C90.6094 70.4603 90.5785 70.483 90.5466 70.5039C90.5445 70.5053 90.5422 70.5067 90.54 70.5081C90.5153 70.5239 90.4901 70.5387 90.4644 70.5522C90.4572 70.556 90.45 70.5594 90.4429 70.563C90.4359 70.5664 90.4291 70.57 90.4221 70.5732C90.3977 70.5847 90.3729 70.5949 90.3479 70.6042C90.3429 70.6061 90.3378 70.6078 90.3328 70.6096C90.3209 70.6138 90.309 70.6176 90.2971 70.6213C90.2951 70.6219 90.2932 70.6227 90.2913 70.6233C90.2796 70.6269 90.2679 70.6302 90.2561 70.6333C90.2503 70.6348 90.2446 70.6363 90.2388 70.6377C90.2298 70.6399 90.2209 70.6421 90.2119 70.644C90.206 70.6453 90.2 70.6465 90.1941 70.6477C90.1671 70.653 90.14 70.6573 90.1128 70.6604C90.1078 70.661 90.1029 70.6614 90.0979 70.6619C90.0885 70.6628 90.0792 70.6634 90.0698 70.6641C90.0623 70.6646 90.0549 70.6652 90.0474 70.6655C90.0399 70.6659 90.0324 70.6661 90.0249 70.6663C90.0164 70.6665 90.008 70.6667 89.9995 70.6667C89.991 70.6667 89.9824 70.6665 89.9739 70.6663C89.9664 70.6661 89.9589 70.6659 89.9514 70.6655C89.9439 70.6652 89.9364 70.6646 89.9289 70.6641C89.9196 70.6634 89.9102 70.6628 89.9009 70.6619C89.896 70.6614 89.8911 70.661 89.8862 70.6604C89.8588 70.6573 89.8314 70.6531 89.8042 70.6477C89.7987 70.6466 89.7933 70.6455 89.7878 70.6443C89.7784 70.6423 89.7691 70.64 89.7598 70.6377C89.7536 70.6362 89.7475 70.6347 89.7414 70.6331C89.7301 70.63 89.7188 70.6267 89.7075 70.6233C89.7055 70.6227 89.7036 70.6219 89.7017 70.6213C89.6897 70.6176 89.6778 70.6138 89.666 70.6096C89.661 70.6078 89.6559 70.6061 89.6509 70.6042C89.6259 70.5949 89.6011 70.5847 89.5767 70.5732C89.5697 70.57 89.5628 70.5664 89.5559 70.563C89.5487 70.5594 89.5415 70.556 89.5344 70.5522C89.5086 70.5387 89.4834 70.5239 89.4587 70.5081C89.4566 70.5067 89.4543 70.5053 89.4521 70.5039C89.4202 70.483 89.3892 70.4602 89.3594 70.4353L84.0378 66.1406C83.6081 65.7937 83.5411 65.1641 83.8879 64.7344C84.2348 64.3047 84.8644 64.2374 85.2942 64.5842L88.9995 67.5747V58.334C88.9995 57.7817 89.4472 57.334 89.9995 57.334Z" fill="white"/>
</svg>
