<svg width="12" height="12" viewBox="0 0 12 12" fill="none" xmlns="http://www.w3.org/2000/svg">
<g clip-path="url(#clip0_11743_76363)">
<path d="M7.5 5C7.77614 5 8 5.22386 8 5.5C8 5.77614 7.77614 6 7.5 6H3.5C3.22386 6 3 5.77614 3 5.5C3 5.22386 3.22386 5 3.5 5H7.5Z" fill="black"/>
<path fill-rule="evenodd" clip-rule="evenodd" d="M5.5 0C8.53757 0 11 2.46243 11 5.5C11 6.83872 10.5206 8.06482 9.72559 9.01855L11.8535 11.1465C12.0488 11.3417 12.0488 11.6583 11.8535 11.8535C11.6583 12.0488 11.3417 12.0488 11.1465 11.8535L9.01855 9.72559C8.06482 10.5206 6.83872 11 5.5 11C2.46243 11 0 8.53757 0 5.5C0 2.46243 2.46243 0 5.5 0ZM5.5 1C3.01472 1 1 3.01472 1 5.5C1 7.98528 3.01472 10 5.5 10C7.98528 10 10 7.98528 10 5.5C10 3.01472 7.98528 1 5.5 1Z" fill="black"/>
</g>
<defs>
<clipPath id="clip0_11743_76363">
<rect width="12" height="12" fill="white"/>
</clipPath>
</defs>
</svg>
