<svg width="12" height="12" viewBox="0 0 12 12" fill="none" xmlns="http://www.w3.org/2000/svg">
<g clip-path="url(#clip0_11684_72836)">
<path d="M6.96875 0C8.00074 0 8.90975 0.516633 9.4561 1.3048C9.67351 1.61843 9.41235 2 9.03073 2C8.83616 2 8.6604 1.89344 8.53694 1.74305C8.16478 1.28972 7.60113 1 6.96875 1H5.03125C3.90942 1 3 1.90942 3 3.03125V10.2686C3 10.888 3.69764 11.2517 4.20508 10.8965L5.02637 10.3213C5.64143 9.89068 6.46203 9.89618 7.07129 10.335L7.78711 10.8506C8.29352 11.2149 9 10.8525 9 10.2285V9.5C9 9.22386 9.22386 9 9.5 9C9.77614 9 10 9.22386 10 9.5V10.2285C10 11.6678 8.37005 12.5022 7.20215 11.6611L6.48633 11.1455C6.22217 10.9555 5.8662 10.953 5.59961 11.1396L4.77832 11.7158C3.60813 12.5349 2 11.697 2 10.2686V3.03125C2 1.35714 3.35714 0 5.03125 0H6.96875Z" fill="black"/>
<path d="M9.5 3.5C9.77614 3.5 10 3.72386 10 4V5H11C11.2761 5 11.5 5.22386 11.5 5.5C11.5 5.77614 11.2761 6 11 6H10V7C10 7.27614 9.77614 7.5 9.5 7.5C9.22386 7.5 9 7.27614 9 7V6H8C7.72386 6 7.5 5.77614 7.5 5.5C7.5 5.22386 7.72386 5 8 5H9V4C9 3.72386 9.22386 3.5 9.5 3.5Z" fill="black"/>
</g>
<defs>
<clipPath id="clip0_11684_72836">
<rect width="12" height="12" fill="white"/>
</clipPath>
</defs>
</svg>
