<svg width="128" height="96" viewBox="0 0 128 96" fill="none" xmlns="http://www.w3.org/2000/svg">
<path d="M61.0364 25.9939C69.4851 24.9041 77.7788 24.2584 85.8225 24.0264C88.7762 23.9412 91.4421 25.8046 92.2662 28.6422C93.6608 33.4438 94.7353 38.5588 95.424 43.8982C96.1121 49.2334 96.3709 54.4496 96.2411 59.4444C96.1644 62.3986 94.0585 64.8778 91.1796 65.545C83.3393 67.3621 75.1521 68.8424 66.7022 69.9323C58.2596 71.0213 49.9718 71.6667 41.9336 71.899C38.9795 71.9844 36.3132 70.1207 35.4892 67.2826C34.096 62.4836 33.0226 57.3717 32.3343 52.0357C31.6455 46.6956 31.3868 41.4748 31.5174 36.4758C31.5946 33.5218 33.7007 31.043 36.5795 30.3761C44.4135 28.5613 52.5938 27.0828 61.0364 25.9939Z" fill="#F05F2B"/>
<path d="M57.1156 43.7072C56.9488 42.4136 58.2219 41.4096 59.441 41.8734L69.5141 45.7056C70.8018 46.1955 71.0246 47.9226 69.9033 48.7233L61.1323 54.9861C60.0708 55.744 58.5846 55.0959 58.4177 53.8023L57.1156 43.7072Z" fill="#671907"/>
<path d="M50.4485 23.4438C50.5263 23.4401 50.6051 23.4612 50.6687 23.5082C50.7322 23.5552 50.7752 23.6237 50.7883 23.6999C50.8014 23.7761 50.7839 23.855 50.7397 23.9206C50.6955 23.9862 50.628 24.0325 50.5534 24.0551C50.3116 24.128 50.0699 24.1998 49.8279 24.2704C47.6504 24.9059 45.4629 25.4466 43.2571 25.8949C41.051 26.3433 38.8334 26.7333 36.5974 27.0668C36.349 27.1038 36.1 27.1401 35.8513 27.1757C35.7409 27.1914 35.6263 27.1698 35.5312 27.1088C35.4362 27.0479 35.3687 26.9537 35.3432 26.8456C35.3178 26.7375 35.3361 26.6228 35.394 26.5258C35.4519 26.4288 35.5448 26.3583 35.6506 26.3232C35.89 26.2438 36.1301 26.1657 36.3703 26.0893C38.5335 25.4009 40.7291 24.8305 42.949 24.3793C45.1687 23.9281 47.4198 23.6301 49.6907 23.4862C49.943 23.4702 50.1955 23.456 50.4485 23.4438Z" fill="#CC3B0A"/>
<path d="M49.7656 60.6808C49.8402 60.6872 49.9025 60.7156 49.9394 60.7612C49.9763 60.8067 49.9854 60.8667 49.966 60.9286C49.9466 60.9906 49.8995 61.0494 49.8391 61.0964C49.6736 61.2248 49.507 61.3523 49.3398 61.4787C47.8349 62.6163 46.2621 63.6701 44.6213 64.6398C42.9805 65.6095 41.2717 66.4953 39.4951 67.2971C39.2977 67.3861 39.0994 67.474 38.9004 67.561C38.8276 67.5927 38.7469 67.6095 38.6721 67.6032C38.5974 67.5969 38.5352 67.5685 38.4983 67.5229C38.4615 67.4773 38.452 67.4175 38.4714 67.3556C38.4909 67.2936 38.5379 67.2347 38.5984 67.1877C38.7639 67.0592 38.9307 66.9318 39.0979 66.8054C40.6027 65.6678 42.1754 64.6141 43.8161 63.6445C45.4569 62.6748 47.1657 61.789 48.9424 60.9872C49.1397 60.8982 49.3383 60.8101 49.5373 60.7231C49.6101 60.6914 49.6909 60.6745 49.7656 60.6808Z" fill="#9E2B08"/>
<path d="M46.7524 56.8254C46.828 56.8328 46.8906 56.8635 46.9267 56.9113C46.9629 56.9592 46.9701 57.0212 46.9475 57.0842C46.9249 57.1472 46.8739 57.2057 46.8083 57.2502C46.6917 57.3292 46.5746 57.4079 46.4572 57.486C45.4013 58.189 44.3172 58.8549 43.205 59.4833C42.0929 60.1118 40.9525 60.703 39.7842 61.257C39.6544 61.3185 39.5242 61.3795 39.3938 61.4401C39.3203 61.4742 39.2378 61.4912 39.1621 61.4838C39.0864 61.4764 39.0236 61.4455 38.9875 61.3976C38.9515 61.3498 38.9442 61.2879 38.9668 61.225C38.9894 61.162 39.0406 61.1033 39.1062 61.0588C39.2228 60.9798 39.34 60.901 39.4572 60.8229C40.5132 60.12 41.5971 59.4543 42.7092 58.8259C43.8214 58.1974 44.9618 57.6059 46.1301 57.0519C46.2599 56.9904 46.3902 56.9295 46.5207 56.8688C46.5942 56.8348 46.6767 56.8179 46.7524 56.8254Z" fill="#9E2B08"/>
<path d="M44.2837 52.7538C44.3573 52.7588 44.4195 52.7851 44.4572 52.8281C44.495 52.8711 44.5063 52.9287 44.4904 52.9894C44.4745 53.0503 44.432 53.1089 44.3774 53.1584C44.328 53.203 44.2782 53.2475 44.228 53.2912C43.7759 53.6849 43.2917 54.0425 42.7759 54.3637C42.2601 54.6849 41.7122 54.9696 41.1328 55.2182C41.0685 55.2458 41.0038 55.273 40.9387 55.2997C40.8665 55.3292 40.7873 55.3463 40.7136 55.3412C40.64 55.3362 40.578 55.31 40.5403 55.267C40.5026 55.224 40.4911 55.1664 40.5071 55.1056C40.523 55.0448 40.5655 54.9862 40.6201 54.9367C40.6695 54.8921 40.7193 54.8479 40.7695 54.8041C41.2216 54.4104 41.7056 54.0528 42.2214 53.7316C42.7372 53.4105 43.285 53.1255 43.8645 52.8769C43.9288 52.8493 43.9937 52.8223 44.0588 52.7956C44.1309 52.7662 44.21 52.7489 44.2837 52.7538Z" fill="#9E2B08"/>
<path fill-rule="evenodd" clip-rule="evenodd" d="M85.8005 23.2765C89.0811 23.182 92.0626 25.2534 92.9861 28.4328C94.3916 33.2721 95.4739 38.4251 96.1674 43.8022C96.8604 49.175 97.1213 54.4298 96.9904 59.4638C96.9044 62.7738 94.5461 65.5345 91.3486 66.2756C83.4838 68.0983 75.2721 69.5829 66.7978 70.676C58.3308 71.7681 50.0182 72.4153 41.9548 72.6484C38.6737 72.7432 35.6918 70.6714 34.7685 67.4914C33.3644 62.6548 32.2832 57.5051 31.5901 52.1315C30.8964 46.7538 30.6357 41.4942 30.7673 36.456C30.8538 33.1461 33.2125 30.3859 36.4099 29.6452C44.2684 27.8247 52.4733 26.342 60.9402 25.2499C69.4132 24.1571 77.7317 23.5092 85.8005 23.2765ZM85.8437 24.7761C77.8252 25.0073 69.5563 25.6509 61.1321 26.7375C52.7139 27.8233 44.5579 29.2975 36.7483 31.1066C34.1883 31.6997 32.3348 33.8971 32.2668 36.4951C32.1372 41.4548 32.3939 46.6372 33.0779 51.9396C33.7612 57.2379 34.8269 62.3119 36.2092 67.0732C36.9339 69.5693 39.2846 71.225 41.9116 71.1491C49.9247 70.9175 58.1877 70.2742 66.6059 69.1884C75.0314 68.1017 83.1942 66.6256 91.01 64.8141C93.5701 64.2208 95.4234 62.0229 95.4909 59.4247C95.6197 54.4692 95.3629 49.2916 94.6797 43.9941C93.9958 38.6923 92.929 33.615 91.5454 28.851C90.8204 26.3554 88.4703 24.7003 85.8437 24.7761Z" fill="#9E2B08"/>
<path d="M40.7432 41.9946C41.0859 42.0035 41.4177 42.1328 41.6548 42.3642C42.0663 42.7665 42.4777 43.1689 42.8892 43.5712L62.8877 63.1245C66.257 62.6849 69.4214 64.9516 70.0545 68.3325C70.7099 71.8329 68.4033 75.202 64.9029 75.8574C61.4025 76.5127 58.0336 74.2064 57.3782 70.706C57.1799 69.6471 57.253 68.6003 57.5479 67.6369C51.9296 60.2621 46.3111 52.8872 40.6929 45.5124C40.3442 45.0546 39.9955 44.5969 39.6468 44.1391C39.4463 43.8754 39.3584 43.5303 39.3916 43.1892C39.4255 42.8474 39.5778 42.5375 39.8257 42.3183C40.0737 42.0992 40.3999 41.9862 40.7432 41.9946Z" fill="#290E0A"/>
</svg>
