<svg width="12" height="12" viewBox="0 0 12 12" fill="none" xmlns="http://www.w3.org/2000/svg">
<path fill-rule="evenodd" clip-rule="evenodd" d="M4.16895 1C4.83932 1 5.4654 1.33589 5.83594 1.89453L6.08887 2.27637C6.18149 2.41609 6.33822 2.5 6.50586 2.5H9C10.6569 2.5 12 3.84315 12 5.5V8C12 9.65685 10.6569 11 9 11H3C1.34315 11 6.44256e-08 9.65685 0 8V4C6.44266e-08 2.34315 1.34315 1 3 1H4.16895ZM1 5.99805V8C1 9.10457 1.89543 10 3 10H9C10.1046 10 11 9.10457 11 8V5.99805H1ZM3 2C1.89543 2 1 2.89543 1 4V4.99805H10.9336C10.7107 4.13678 9.93096 3.5 9 3.5H6.50586C6.00309 3.5 5.53377 3.24806 5.25586 2.8291L5.00293 2.44727C4.81767 2.16786 4.50419 2 4.16895 2H3Z" fill="black"/>
</svg>
