<svg width="128" height="96" viewBox="0 0 128 96" fill="none" xmlns="http://www.w3.org/2000/svg">
<path d="M73.2539 16C80.9881 16 84.8553 16 87.8301 17.4573C90.6783 18.8526 92.9814 21.1557 94.3767 24.0039C95.834 26.9787 95.834 30.846 95.834 38.5803V54.4849C94.0462 53.7091 92.0737 53.2788 90.0007 53.2788C81.9006 53.2788 75.334 59.8454 75.334 67.9456C75.334 72.8628 77.7539 77.2148 81.4678 79.8757C79.3091 79.9997 76.6556 80 73.2539 80H54.4141C46.6798 80 42.8126 80 39.8379 78.5427C36.9897 77.1474 34.6866 74.8443 33.2913 71.9961C31.834 69.0214 31.834 65.1542 31.834 57.4199V38.5801C31.834 30.8458 31.834 26.9786 33.2913 24.0039C34.6866 21.1557 36.9897 18.8526 39.8379 17.4573C42.8126 16 46.68 16 54.4143 16H73.2539Z" fill="#F05F2B"/>
<path fill-rule="evenodd" clip-rule="evenodd" d="M70.63 74.8837C69.3628 72.4201 68.1512 70.1534 67.399 68.654C65.3998 64.6506 63.3905 59.0064 64.3043 55.3665C64.4709 54.7052 62.4212 30.8765 60.9723 30.1092C59.3619 29.2509 57.3804 27.8895 55.568 27.5866C54.6485 27.4395 53.4428 27.5092 52.5002 27.6361C52.3327 27.6587 52.3258 27.9598 52.4859 28.014C53.1047 28.2236 53.856 28.5876 54.2989 29.138C54.3827 29.2422 54.2702 29.406 54.1366 29.4109C53.7192 29.4264 52.9619 29.6014 51.9629 30.45C51.8473 30.5481 51.9433 30.7304 52.092 30.7009C54.2391 30.2761 56.4319 30.4854 57.7241 31.66C57.808 31.7362 57.7641 31.873 57.6548 31.9027C46.4406 34.9502 48.6605 44.7053 51.6459 56.6765C54.4587 67.9561 55.7929 72.4048 55.9537 72.9329C55.9645 72.9684 55.9843 72.9957 56.0168 73.0135C58.3282 74.282 70.4812 75.0521 69.9659 73.5997L70.63 74.8837Z" fill="#DDDDDD"/>
<path d="M63.8333 20.0391C79.1899 20.0391 91.6389 32.4883 91.6389 47.845C91.6389 49.7189 91.4528 51.5493 91.0994 53.3193C90.7363 53.2924 90.3696 53.2788 89.9998 53.2788C89.5459 53.2788 89.0969 53.2995 88.6536 53.3398C89.0436 51.5703 89.2495 49.7317 89.2495 47.845C89.2495 33.808 77.8702 22.4288 63.8333 22.4287C49.7962 22.4287 38.417 33.808 38.417 47.845C38.417 59.6413 46.4533 69.5606 57.3499 72.4268C56.5064 69.8059 54.3522 62.884 52.3074 54.5017C52.2367 54.2121 52.1659 53.9238 52.0957 53.637L52.094 53.6296C49.5267 43.1434 47.43 34.5786 58.9224 31.8879C59.0274 31.8633 59.0786 31.7378 59.009 31.6553C57.6904 30.091 55.2203 29.5782 52.0969 30.6558C51.9688 30.6999 51.8577 30.5706 51.9373 30.4609C52.5497 29.6168 53.7465 28.9677 54.3374 28.6831C54.4595 28.6243 54.4521 28.4455 54.3228 28.405C53.9362 28.284 53.2782 28.099 52.5381 27.9795C52.363 27.9512 52.3471 27.6511 52.5229 27.6274C56.9509 27.0317 61.5747 28.3611 63.895 31.2839C63.9169 31.3115 63.9486 31.3305 63.9829 31.3379C72.4798 33.1626 73.0882 46.5945 72.1094 47.2063C71.9164 47.3269 71.2979 47.2578 70.4822 47.1665C67.1761 46.7966 60.6292 46.064 66.0325 56.134C66.0858 56.2334 66.0153 56.3649 65.9038 56.3823C62.902 56.8491 66.7651 66.3046 69.6243 72.5984C71.7059 72.1133 73.6891 71.3719 75.5393 70.4102C75.6772 71.2252 75.8824 72.0173 76.1489 72.7808C72.4367 74.6177 68.2557 75.6506 63.8333 75.6506C48.4765 75.6506 36.0274 63.2017 36.0273 47.845C36.0273 32.4882 48.4765 20.0391 63.8333 20.0391Z" fill="white"/>
<path d="M73.4314 60.4806C72.7846 60.1809 70.2974 61.9645 68.6467 63.3337C68.3017 62.8456 67.6512 62.4908 66.1838 62.7459C64.8996 62.9692 64.1906 63.2789 63.8742 63.8127C61.8472 63.0442 58.4371 61.8582 57.6132 63.0036C56.7127 64.2557 57.8383 70.1789 59.0343 70.948C59.6588 71.3495 62.6458 69.4296 64.2057 68.1056C64.4573 68.4602 64.8625 68.6631 65.6954 68.6438C66.9551 68.6146 68.9983 68.3214 69.3154 67.7348C69.3346 67.6991 69.3512 67.657 69.3654 67.609C70.9686 68.2082 73.7903 68.8424 74.4208 68.7477C76.0635 68.501 74.1919 60.833 73.4314 60.4806Z" fill="#33A055"/>
<path d="M68.7988 63.5093C68.8669 63.6306 68.9216 63.7585 68.9681 63.8886C69.1966 64.5278 69.569 66.5613 69.2874 67.0636C69.0058 67.5659 67.1768 67.8085 66.0485 67.8279C64.9202 67.8474 64.6662 67.4348 64.4377 66.7956C64.2548 66.2842 64.1648 65.0819 64.167 64.3935C64.1207 63.3724 64.4938 63.0134 66.2182 62.7344C67.4944 62.5279 68.169 62.7681 68.5585 63.1791C70.3702 61.8269 73.393 59.9187 73.6878 60.2674C75.1579 62.0064 75.3437 66.146 75.0254 67.8114C74.9213 68.3559 70.0536 67.272 70.0536 66.6848C70.0536 64.2466 69.4209 63.5777 68.7988 63.5093Z" fill="#39B25E"/>
<path d="M58.1357 62.7479C58.5344 62.1169 61.7675 62.9016 63.5422 63.6914C63.5422 63.6914 63.1776 65.3437 63.7582 67.2903C63.928 67.8597 59.6751 70.394 59.12 69.958C58.4785 69.4541 57.2977 64.0742 58.1357 62.7479Z" fill="#39B25E"/>
<path fill-rule="evenodd" clip-rule="evenodd" d="M59.7007 49.9305C59.9623 48.793 61.1808 46.6496 65.5322 46.7016C67.732 46.6925 70.4646 46.7007 72.2763 46.4949C74.9689 46.189 76.9676 45.5377 78.2995 45.0301C80.1831 44.3114 80.8515 44.4717 81.0859 44.9017C81.3434 45.3741 81.0399 46.19 80.3818 46.9409C79.1246 48.3754 76.8646 49.487 72.8731 49.8169C68.8816 50.1468 66.2372 49.0761 65.0989 50.8193C64.608 51.5711 64.9875 53.3431 68.8476 53.9011C74.0637 54.6539 78.3476 52.994 78.8769 53.9965C79.4062 54.9989 76.3572 57.0386 71.1326 57.0813C65.908 57.124 62.6447 55.252 61.4875 54.3215C60.0192 53.141 59.3622 51.4193 59.7007 49.9305Z" fill="#FFC95C"/>
<g opacity="0.8">
<path d="M66.3538 37.492C66.6452 37.0148 67.2914 36.6465 68.349 36.6465C69.4065 36.6465 69.904 37.0673 70.2485 37.5366C70.3185 37.632 70.2124 37.7444 70.1037 37.6974C70.0776 37.6861 70.0511 37.6745 70.0242 37.6628C69.6374 37.4939 69.1625 37.2864 68.349 37.2749C67.4788 37.2625 66.9302 37.4804 66.5847 37.6683C66.4682 37.7315 66.2847 37.6051 66.3538 37.492Z" fill="#034180"/>
<path d="M54.4476 38.1025C55.4745 37.6733 56.2816 37.7288 56.8521 37.8638C56.9722 37.8922 57.0557 37.7629 56.9597 37.6854C56.5168 37.3282 55.5257 36.8848 54.233 37.3668C53.0799 37.7968 52.5364 38.6901 52.5332 39.2775C52.5324 39.4159 52.8172 39.4277 52.8909 39.3105C53.0899 38.9939 53.4207 38.5316 54.4476 38.1025Z" fill="#034180"/>
<path fill-rule="evenodd" clip-rule="evenodd" d="M69.2473 44.02C68.3394 44.02 67.603 43.2856 67.603 42.3818C67.603 41.478 68.3394 40.7436 69.2473 40.7436C70.1551 40.7436 70.8915 41.478 70.8915 42.3818C70.8915 43.2856 70.1551 44.02 69.2473 44.02ZM70.4053 41.8391C70.4053 41.6051 70.2136 41.4154 69.9796 41.4154C69.7456 41.4154 69.5559 41.6051 69.5539 41.8391C69.5539 42.0731 69.7456 42.2628 69.9796 42.2628C70.2156 42.2628 70.4053 42.0731 70.4053 41.8391Z" fill="#034180"/>
<path fill-rule="evenodd" clip-rule="evenodd" d="M58.3535 43.5155C58.3535 44.5707 57.496 45.4261 56.4369 45.4261C55.3798 45.4261 54.5203 44.5707 54.5203 43.5155C54.5203 42.4604 55.3798 41.605 56.4369 41.605C57.494 41.605 58.3535 42.4604 58.3535 43.5155ZM57.7886 42.882C57.7886 42.6097 57.5667 42.3878 57.2923 42.3878C57.0199 42.3878 56.798 42.6077 56.796 42.882C56.796 43.1544 57.0179 43.3763 57.2923 43.3763C57.5667 43.3763 57.7886 43.1544 57.7886 42.882Z" fill="#034180"/>
</g>
<path d="M90 80C96.6274 80 102 74.6274 102 68C102 61.3726 96.6274 56 90 56C83.3726 56 78 61.3726 78 68C78 74.6274 83.3726 80 90 80Z" fill="black"/>
<path d="M89.9995 61.334C90.5518 61.334 90.9995 61.7817 90.9995 62.334V71.5747L94.7048 68.5842C95.1346 68.2374 95.7642 68.3047 96.1111 68.7344C96.4579 69.1641 96.3909 69.7937 95.9612 70.1406L90.6392 74.4355C90.6094 74.4603 90.5785 74.483 90.5466 74.5039C90.5445 74.5053 90.5422 74.5067 90.54 74.5081C90.5153 74.5239 90.4901 74.5387 90.4644 74.5522C90.4572 74.556 90.45 74.5594 90.4429 74.563C90.4359 74.5664 90.4291 74.57 90.4221 74.5732C90.3977 74.5847 90.3729 74.5949 90.3479 74.6042C90.3429 74.6061 90.3378 74.6078 90.3328 74.6096C90.3209 74.6138 90.309 74.6176 90.2971 74.6213C90.2951 74.6219 90.2932 74.6227 90.2913 74.6233C90.2796 74.6269 90.2679 74.6302 90.2561 74.6333C90.2503 74.6348 90.2446 74.6363 90.2388 74.6377C90.2298 74.6399 90.2209 74.6421 90.2119 74.644C90.206 74.6453 90.2 74.6465 90.1941 74.6477C90.1671 74.653 90.14 74.6573 90.1128 74.6604C90.1078 74.661 90.1029 74.6614 90.0979 74.6619C90.0885 74.6628 90.0792 74.6634 90.0698 74.6641C90.0623 74.6646 90.0549 74.6652 90.0474 74.6655C90.0399 74.6659 90.0324 74.6661 90.0249 74.6663C90.0164 74.6665 90.008 74.6667 89.9995 74.6667C89.991 74.6667 89.9824 74.6665 89.9739 74.6663C89.9664 74.6661 89.9589 74.6659 89.9514 74.6655C89.9439 74.6652 89.9364 74.6646 89.9289 74.6641C89.9196 74.6634 89.9102 74.6628 89.9009 74.6619C89.896 74.6614 89.8911 74.661 89.8862 74.6604C89.8588 74.6573 89.8314 74.6531 89.8042 74.6477C89.7987 74.6466 89.7933 74.6455 89.7878 74.6443C89.7784 74.6423 89.7691 74.64 89.7598 74.6377C89.7536 74.6362 89.7475 74.6347 89.7414 74.6331C89.7301 74.63 89.7188 74.6267 89.7075 74.6233C89.7055 74.6227 89.7036 74.6219 89.7017 74.6213C89.6897 74.6176 89.6778 74.6138 89.666 74.6096C89.661 74.6078 89.6559 74.6061 89.6509 74.6042C89.6259 74.5949 89.6011 74.5847 89.5767 74.5732C89.5697 74.57 89.5628 74.5664 89.5559 74.563C89.5487 74.5594 89.5415 74.556 89.5344 74.5522C89.5086 74.5387 89.4834 74.5239 89.4587 74.5081C89.4566 74.5067 89.4543 74.5053 89.4521 74.5039C89.4202 74.483 89.3892 74.4602 89.3594 74.4353L84.0378 70.1406C83.6081 69.7937 83.5411 69.1641 83.8879 68.7344C84.2348 68.3047 84.8644 68.2374 85.2942 68.5842L88.9995 71.5747V62.334C88.9995 61.7817 89.4472 61.334 89.9995 61.334Z" fill="white"/>
</svg>
