<svg xmlns="http://www.w3.org/2000/svg" fill="none" viewBox="0 0 12 12">
  <g clip-path="url(#a)">
    <path fill="#000" fill-rule="evenodd" d="M4.924.021a.5.5 0 0 1 .437.07c.581.41.873.978 1.052 1.535.09.276.154.56.211.828.059.275.107.524.169.769.01.036.059.181.166.306a.56.56 0 0 0 .453.203l.146-.012a.514.514 0 0 0 .27-.136.755.755 0 0 0 .175-.276l.037-.144a8.48 8.48 0 0 0 .043-.237c.013-.075.028-.165.044-.234a.786.786 0 0 1 .055-.159c.009-.018.061-.131.186-.212a.506.506 0 0 1 .576.019l.048.04c.021.02.037.039.04.042l.015.018a1.704 1.704 0 0 1 .1.136 11.136 11.136 0 0 1 .896 1.57c.476 1.02.957 2.444.957 4.035 0 1.106-.52 1.96-1.246 2.564-.715.595-1.637.96-2.507 1.135a.5.5 0 0 1-.366-.913c.359-.227.586-.624.638-1.11l.01-.215c0-.327-.189-.722-.569-1.205-.28-.355-.615-.702-.963-1.061-.349.354-.679.685-.96 1.035-.373.465-.566.862-.566 1.231l.01.212c.05.483.274.879.626 1.107a.5.5 0 0 1-.378.908c-.876-.191-1.805-.596-2.521-1.306C1.481 9.844 1 8.833 1 7.5c0-1.66.677-2.703 1.443-3.7.764-.993 1.597-1.927 2.16-3.471l.052-.104a.501.501 0 0 1 .269-.203Zm.311 1.389c-.605 1.304-1.383 2.199-1.999 3C2.514 5.348 2 6.171 2 7.498l.004.197c.043.966.406 1.66.908 2.158.193.192.412.356.645.497a2.939 2.939 0 0 1-.086-.708c0-.717.37-1.338.786-1.857.411-.513.96-1.029 1.38-1.472l.078-.066a.5.5 0 0 1 .647.066c.431.454.97.98 1.384 1.506.409.52.783 1.143.783 1.823l-.004.16a2.882 2.882 0 0 1-.102.625c.251-.13.485-.28.691-.45.543-.453.886-1.04.886-1.796 0-1.396-.424-2.672-.863-3.613a10.471 10.471 0 0 0-.326-.641c-.184.318-.545.73-1.214.796l-.185.008c-.57 0-.965-.263-1.213-.552a1.851 1.851 0 0 1-.375-.711c-.068-.27-.124-.553-.178-.807a7.51 7.51 0 0 0-.185-.73 2.671 2.671 0 0 0-.226-.522Z" clip-rule="evenodd"/>
  </g>
  <defs>
    <clipPath id="a">
      <path fill="#fff" d="M0 0h12v12H0z"/>
    </clipPath>
  </defs>
</svg>
