<svg width="12" height="12" viewBox="0 0 12 12" fill="none" xmlns="http://www.w3.org/2000/svg">
<path d="M0.931641 7.11463C1.20527 7.00105 1.5073 6.97176 1.79785 7.02967C2.08816 7.08767 2.35533 7.23026 2.56445 7.43983C2.77343 7.64945 2.916 7.91706 2.97363 8.20741C3.03108 8.49766 3.00166 8.79917 2.88867 9.07264C2.77548 9.34625 2.58295 9.58075 2.33691 9.74549C2.09082 9.91016 1.80099 9.99842 1.50488 9.99842L1.50293 9.99745L1.50098 9.99842H0.469727C0.211145 9.99829 0.00128442 9.78821 0.000976562 9.52967C0.000980925 9.27087 0.210958 9.06105 0.469727 9.06092H1.50488C1.61519 9.06092 1.72352 9.02767 1.81543 8.9662C1.90724 8.9047 1.97901 8.81675 2.02148 8.71424C2.06377 8.61183 2.07513 8.49882 2.05371 8.39002C2.03208 8.28103 1.97855 8.18036 1.90039 8.10194C1.82216 8.02354 1.72248 7.97023 1.61426 7.94862C1.50596 7.92703 1.3931 7.93847 1.29102 7.98084C1.18923 8.02326 1.10147 8.09476 1.04004 8.1869C0.896397 8.40185 0.605849 8.46004 0.390625 8.31678C0.175389 8.17327 0.117521 7.88271 0.260742 7.66737C0.424986 7.42104 0.658258 7.22824 0.931641 7.11463Z" fill="black"/>
<path d="M9.53125 8.00038C9.80739 8.00038 10.0312 8.22423 10.0312 8.50038C10.031 8.77634 9.80727 9.00038 9.53125 9.00038H5.46875C5.19274 9.00038 4.96896 8.77634 4.96875 8.50038C4.96875 8.22423 5.19261 8.00038 5.46875 8.00038H9.53125Z" fill="black"/>
<path d="M0.930664 2.11463C1.20426 2.0011 1.50637 1.97176 1.79688 2.02967C2.08709 2.0877 2.35441 2.23032 2.56348 2.43983C2.77238 2.64943 2.91504 2.91712 2.97266 3.20741C3.03008 3.49764 3.00067 3.79919 2.8877 4.07264C2.77452 4.34624 2.58195 4.58074 2.33594 4.74549C2.0899 4.91014 1.79995 4.99837 1.50391 4.99842L1.50195 4.99745L1.5 4.99842H0.46875C0.210069 4.99842 0.000328006 4.78828 0 4.52967C-2.25843e-08 4.27079 0.209867 4.06092 0.46875 4.06092H1.50391C1.61416 4.06087 1.7226 4.02765 1.81445 3.9662C1.90624 3.9047 1.97805 3.81674 2.02051 3.71424C2.06279 3.61185 2.07414 3.49879 2.05273 3.39002C2.03111 3.28109 1.9775 3.18034 1.89941 3.10194C1.82124 3.0236 1.72141 2.97026 1.61328 2.94862C1.50503 2.92704 1.39208 2.93852 1.29004 2.98084C1.18823 3.02326 1.10051 3.09474 1.03906 3.1869C0.895482 3.40186 0.604883 3.4599 0.389648 3.31678C0.17438 3.17325 0.11647 2.88272 0.259766 2.66737C0.42402 2.42102 0.657257 2.22824 0.930664 2.11463Z" fill="black"/>
<path d="M11.5 3.00038C11.7761 3.00038 12 3.22423 12 3.50038C11.9998 3.77634 11.776 4.00038 11.5 4.00038H5.5C5.22399 4.00038 5.00021 3.77634 5 3.50038C5 3.22423 5.22386 3.00038 5.5 3.00038H11.5Z" fill="black"/>
</svg>
