<svg width="16" height="16" viewBox="0 0 16 16" fill="none" xmlns="http://www.w3.org/2000/svg">
<g clip-path="url(#clip0_13193_106404)">
<path fill-rule="evenodd" clip-rule="evenodd" d="M0.501506 8.15174C0.505446 8.35029 0.676415 8.5 0.875001 8.5C4.53389 8.5 7.5 11.4661 7.5 15.125C7.5 15.3236 7.64971 15.4946 7.84826 15.4985C7.89872 15.4995 7.9493 15.5 8 15.5C12.1421 15.5 15.5 12.1421 15.5 8C15.5 3.85786 12.1421 0.5 8 0.499999C3.85787 0.499999 0.500001 3.85786 0.500001 8C0.500001 8.0507 0.500504 8.10128 0.501506 8.15174Z" fill="#FFD885"/>
<path fill-rule="evenodd" clip-rule="evenodd" d="M16 8C16 12.4183 12.4183 16 8 16C7.94599 16 7.8921 15.9995 7.83834 15.9984C7.3358 15.9884 7 15.5629 7 15.125C7 11.7423 4.25775 9 0.875001 9C0.437056 9 0.0115773 8.6642 0.00160381 8.16166C0.000536655 8.1079 6.94661e-07 8.05401 6.99382e-07 8C1.08564e-06 3.58172 3.58172 -1.08564e-06 8 -6.99382e-07C12.4183 -3.13124e-07 16 3.58172 16 8ZM8 15C11.866 15 15 11.866 15 8C15 4.13401 11.866 1 8 0.999999C4.13401 0.999999 1 4.13401 1 8C1 8.00036 1 8.00071 1 8.00107C4.83578 8.06706 7.93294 11.1642 7.99893 15C7.99928 15 7.99964 15 8 15Z" fill="#B66A1F"/>
<path fill-rule="evenodd" clip-rule="evenodd" d="M10.25 11.5C9.83579 11.5 9.5 11.8358 9.5 12.25C9.5 12.6642 9.83579 13 10.25 13C10.6642 13 11 12.6642 11 12.25C11 11.8358 10.6642 11.5 10.25 11.5ZM12.25 9C11.8358 9 11.5 9.33579 11.5 9.75C11.5 10.1642 11.8358 10.5 12.25 10.5C12.6642 10.5 13 10.1642 13 9.75C13 9.33579 12.6642 9 12.25 9ZM11 6.25C11 5.83579 11.3358 5.5 11.75 5.5C12.1642 5.5 12.5 5.83579 12.5 6.25C12.5 6.66421 12.1642 7 11.75 7C11.3358 7 11 6.66421 11 6.25ZM9.25 2.5C8.83579 2.5 8.5 2.83579 8.5 3.25C8.5 3.66421 8.83579 4 9.25 4C9.66421 4 10 3.66421 10 3.25C10 2.83579 9.66421 2.5 9.25 2.5ZM7.5 8.25C7.5 7.83579 7.83579 7.5 8.25 7.5C8.66421 7.5 9 7.83579 9 8.25C9 8.66421 8.66421 9 8.25 9C7.83579 9 7.5 8.66421 7.5 8.25ZM5.25 4.5C4.83579 4.5 4.5 4.83579 4.5 5.25C4.5 5.66421 4.83579 6 5.25 6C5.66421 6 6 5.66421 6 5.25C6 4.83579 5.66421 4.5 5.25 4.5Z" fill="#B66A1F"/>
</g>
<defs>
<clipPath id="clip0_13193_106404">
<rect width="16" height="16" fill="white"/>
</clipPath>
</defs>
</svg>
