<svg fill="none" viewBox="0 0 24 24" xmlns="http://www.w3.org/2000/svg">
  <path fill="#000" d="M17.5 5.75c0-1.243-1.007-2.25-2.25-2.25h-6.5C7.507 3.5 6.5 4.507 6.5 5.75v12.5c0 1.243 1.007 2.25 2.25 2.25h6.5c1.243 0 2.25-1.007 2.25-2.25zm1.5 12.5c0 2.071-1.679 3.75-3.75 3.75h-6.5C6.679 22 5 20.321 5 18.25V5.75C5 3.679 6.679 2 8.75 2h6.5C17.321 2 19 3.679 19 5.75z"/>
  <path fill="#000" d="M8.25 18c0-.414.336-.75.75-.75h6c.414 0 .75.336.75.75s-.336.75-.75.75H9c-.414 0-.75-.336-.75-.75M12 6c.414 0 .75.336.75.75v6.127l1.658-1.657c.293-.293.768-.293 1.06 0 .293.292.293.768 0 1.06l-2.262 2.262c-.683.683-1.791.683-2.474 0L8.47 12.28c-.293-.293-.293-.767 0-1.06s.768-.293 1.06 0l1.72 1.72V6.75c0-.414.336-.75.75-.75"/>
</svg>
