<svg width="16" height="16" viewBox="0 0 16 16" fill="none" xmlns="http://www.w3.org/2000/svg">
<g clip-path="url(#clip0_13193_106853)">
<path d="M7.98442 15.3594C9.40066 15.3594 12.5382 13.8718 14.1101 11.3431C15.4021 9.26575 15.4621 7.41232 15.3456 5.8452C15.189 3.73132 14.2739 3.40981 12.7421 2.92177C11.548 2.54154 10.6466 2.01404 10.0779 1.46535C9.45152 0.860838 8.72039 0.625 8.00003 0.625C7.27966 0.625 6.54853 0.860838 5.92212 1.46535C5.35347 2.01404 4.45105 2.54154 3.25795 2.92177C1.72619 3.40981 0.811052 3.73229 0.65445 5.8452C0.537978 7.41136 0.598942 9.26575 1.88992 11.3431C3.46181 13.8708 6.56818 15.3594 7.98442 15.3594Z" fill="#269B61"/>
<path d="M8.15479 0.628784C8.82452 0.660715 9.49651 0.903945 10.0781 1.46521C10.6468 2.01388 11.5482 2.54153 12.7422 2.92175C14.2739 3.40978 15.1891 3.73132 15.3457 5.84509C15.4622 7.41221 15.4023 9.26584 14.1104 11.3431C12.5674 13.8253 9.51572 15.3027 8.06445 15.3563C8.31409 12.8429 8.44727 10.2108 8.44727 7.49988C8.44726 5.141 8.34533 2.84199 8.15479 0.628784Z" fill="#38B26A"/>
<path d="M7.99964 0.000488281C8.84785 0.000488281 9.71931 0.282425 10.4576 0.996582C10.9659 1.48817 11.8074 1.992 12.9674 2.3623H12.9679C13.719 2.60219 14.4571 2.83656 15.0006 3.33887C15.576 3.87077 15.8736 4.63435 15.9581 5.77734C16.0804 7.42674 16.0198 9.43477 14.63 11.6748C13.7792 13.0467 12.5166 14.1202 11.2911 14.8501C10.0809 15.5709 8.83276 15.9995 7.98401 15.9995C7.13452 15.9995 5.8939 15.5702 4.69153 14.8491C3.54987 14.1644 2.37647 13.178 1.53382 11.9282L1.36975 11.6748C-0.0188953 9.43493 -0.0811726 7.42596 0.0411404 5.77734C0.125678 4.63486 0.423456 3.87134 0.99866 3.33936C1.54215 2.83682 2.28049 2.60227 3.03186 2.3623C4.19128 1.99193 5.03386 1.48815 5.54212 0.996582C6.28038 0.282492 7.1515 0.000539859 7.99964 0.000488281ZM7.99964 1.00049C7.38491 1.00054 6.77126 1.19901 6.23743 1.71533H6.23694C5.59019 2.34081 4.59988 2.91122 3.33606 3.31494C2.53206 3.57172 2.02768 3.74986 1.67786 4.07324C1.35994 4.36722 1.11325 4.84365 1.0387 5.85156C0.924463 7.39138 0.986278 9.15835 2.21936 11.1475C2.96551 12.3502 4.08758 13.3211 5.20569 13.9917C6.33917 14.6715 7.39525 14.9995 7.98401 14.9995C8.57354 14.9995 9.63787 14.6711 10.7794 13.9912C11.9057 13.3204 13.0344 12.3496 13.7799 11.1475C15.014 9.15839 15.0753 7.39264 14.9611 5.85156C14.8865 4.84323 14.6397 4.36706 14.3219 4.07324C13.9721 3.74998 13.4678 3.57175 12.6637 3.31494C11.4778 2.93641 10.534 2.41144 9.88782 1.83203L9.76233 1.71533C9.22843 1.19893 8.61445 1.00049 7.99964 1.00049ZM8.12317 2.91943C8.29574 2.90578 8.46596 2.95831 8.59192 3.06592C8.71811 3.1735 8.78978 3.32736 8.79554 3.49316C8.80106 3.64565 8.80577 3.79098 8.81067 3.94336C8.91598 6.63738 8.80251 9.37281 8.46057 12.0352C8.44259 12.1858 8.42453 12.3301 8.40589 12.481C8.39839 12.5399 8.36697 12.5945 8.31995 12.6328C8.27275 12.6711 8.21367 12.6903 8.15442 12.6855C8.09528 12.6807 8.04005 12.6527 7.99964 12.6074C7.95931 12.5621 7.93705 12.5028 7.93909 12.4434C7.94471 12.2921 7.94928 12.1474 7.95423 11.9966C8.06078 9.31948 7.93844 6.67952 7.60315 4.03418C7.5854 3.88457 7.56782 3.7417 7.54944 3.5918C7.52906 3.42723 7.57563 3.26376 7.68323 3.1377C7.79067 3.01167 7.95068 2.93313 8.12317 2.91943Z" fill="#006B4B"/>
</g>
<defs>
<clipPath id="clip0_13193_106853">
<rect width="16" height="16" fill="white"/>
</clipPath>
</defs>
</svg>
