<svg width="12" height="12" viewBox="0 0 12 12" fill="none" xmlns="http://www.w3.org/2000/svg">
<g clip-path="url(#clip0_11743_76548)">
<path d="M6 0C9.31353 0.000161835 11.9999 2.68645 12 6C11.9999 9.31355 9.31353 11.9998 6 12C3.25419 11.9999 0.940262 10.1515 0.226562 7.63672C0.151329 7.37123 0.305891 7.09405 0.571289 7.01855C0.836852 6.9432 1.11396 7.09779 1.18945 7.36328C1.78464 9.46059 3.7143 10.9999 6 11C8.76125 10.9998 10.9999 8.76127 11 6C10.9999 3.23873 8.76125 1.00016 6 1C3.96048 1.0001 2.20453 2.22143 1.42676 3.97461C1.47779 3.98912 1.53126 3.99996 1.58691 4H2.95117C3.22705 4.00026 3.45111 4.22408 3.45117 4.5C3.45111 4.77592 3.22705 4.99974 2.95117 5H1.58691C0.710755 4.99979 6.60028e-05 4.28928 0 3.41309V1C6.61263e-05 0.724073 0.224118 0.500258 0.5 0.5C0.775877 0.500264 0.999934 0.724076 1 1V2.68262C2.0746 1.06643 3.91245 8.31121e-05 6 0Z" fill="black"/>
<path d="M6 2.5C6.27614 2.5 6.5 2.72386 6.5 3V5.79297L7.85352 7.14648C8.04878 7.34175 8.04878 7.65825 7.85352 7.85352C7.65825 8.04878 7.34175 8.04878 7.14648 7.85352L5.64648 6.35352C5.55272 6.25975 5.5 6.13261 5.5 6V3C5.5 2.72386 5.72386 2.5 6 2.5Z" fill="black"/>
</g>
<defs>
<clipPath id="clip0_11743_76548">
<rect width="12" height="12" fill="white"/>
</clipPath>
</defs>
</svg>
