<svg width="16" height="16" viewBox="0 0 16 16" fill="none" xmlns="http://www.w3.org/2000/svg">
<g clip-path="url(#clip0_12794_82114)">
<path d="M8 0C12.4183 0 16 3.18997 16 7.125C16 7.3751 15.9854 7.62217 15.9571 7.86559C15.8938 8.40905 15.2445 8.5918 14.7558 8.3458C14.6694 8.30233 14.5826 8.26264 14.4951 8.22656C14.0016 8.02296 13.56 7.96313 13.2383 7.93359C13.1349 7.9241 13.0563 7.91821 12.9951 7.91357C12.997 7.86167 13 7.80658 13 7.75C13 6.7817 12.3775 6.06978 11.7383 5.74512C11.06 5.40067 10.0128 5.33036 9.22217 6.12061L9.22168 6.12109L6.12061 9.22168C5.43354 9.90897 5.38533 10.849 5.60791 11.5151C5.83944 12.2078 6.51284 12.9997 7.61963 13C7.70989 13 7.79905 12.9961 7.87842 12.9922C7.8804 13.0449 7.88172 13.0985 7.88428 13.1426C7.89613 13.3464 7.92216 13.5483 7.96328 13.7465C8.0595 14.2104 7.82619 14.722 7.36499 14.8304C5.449 15.2806 3.3135 15.6751 1.81445 15.9326C1.15026 16.0466 0.722974 15.2724 1.16455 14.7632L2.45801 13.2715C2.7374 12.9493 2.67709 12.4586 2.35791 12.1758C0.901605 10.8855 4.12277e-05 9.09908 0 7.125C0 3.18997 3.58172 0 8 0Z" fill="url(#paint0_linear_12794_82114)"/>
<path d="M8 0C12.4183 0 16 3.18999 16 7.125C16 7.41008 15.9811 7.69121 15.9444 7.9675C15.8787 8.46232 15.2867 8.62925 14.8467 8.39355C14.9463 7.98222 15 7.55787 15 7.125C15 3.84803 11.978 1 8 1C4.02196 1 1 3.84803 1 7.125C1.00005 8.78159 1.75466 10.3049 3.02148 11.4272C3.70089 12.0292 3.89465 13.1418 3.21387 13.9268L2.45166 14.8052C3.65283 14.5911 5.10018 14.3163 6.48193 14.0083C6.991 13.8948 7.48262 13.7774 7.94482 13.6602C7.95369 13.7093 7.96356 13.7582 7.97441 13.8069C8.07065 14.2384 7.85468 14.7148 7.42434 14.8164C5.49319 15.2724 3.32901 15.6724 1.81445 15.9326C1.15029 16.0465 0.723044 15.2724 1.16455 14.7632L2.45801 13.2715C2.73739 12.9493 2.67706 12.4586 2.35791 12.1758L2.22314 12.0537C0.846134 10.774 4.97869e-05 9.03747 0 7.125C0 3.18999 3.58172 0 8 0Z" fill="url(#paint1_linear_12794_82114)"/>
<path d="M7.1815 10.2825L10.2826 7.18156C10.73 6.73421 11.4999 7.17508 11.4999 7.74997C11.4999 8.27765 11.3508 8.60091 11.7499 8.99997C12.5601 9.81018 13.5 8.90131 14.8808 10.2825C15.1196 10.5214 15.1196 10.9207 14.8808 11.1595L11.1595 14.8807C10.9308 15.1095 10.5522 15.1212 10.3098 14.9067C8.74997 13.3469 9.83187 12.5818 9 11.75C8.60092 11.3509 8.14255 11.5001 7.61989 11.5C7.02865 11.4998 6.78557 10.6786 7.1815 10.2825Z" fill="#DDDDDD"/>
<path d="M9.92924 6.82822C10.342 6.41563 10.894 6.43787 11.2857 6.63682C11.6643 6.82919 12 7.23578 12 7.7501C12 7.90299 11.9888 8.04131 11.9815 8.14658C11.9736 8.25976 11.9703 8.33086 11.9742 8.39121C11.9793 8.47074 11.993 8.53602 12.1036 8.64658C12.3505 8.89349 12.5567 8.87512 13.147 8.9293C13.4239 8.95472 13.7526 9.00246 14.1138 9.15147C14.4763 9.30105 14.848 9.54282 15.2344 9.9293C15.6411 10.3363 15.6665 10.9904 15.3106 11.4283L15.2344 11.5133L13.7271 13.0201L15.8536 15.1466C16.0487 15.3419 16.0488 15.6584 15.8536 15.8536C15.6583 16.0487 15.3418 16.0488 15.1465 15.8536L13.0201 13.7271L11.5132 15.2345C11.0976 15.6501 10.4188 15.6708 9.97855 15.2813C9.97095 15.2746 9.96327 15.2675 9.95609 15.2604C9.53101 14.8352 9.26579 14.4437 9.10502 14.0704C8.94311 13.6944 8.89907 13.3634 8.88285 13.0846C8.84875 12.4978 8.89443 12.3515 8.64652 12.1036C8.55581 12.0129 8.47043 11.9825 8.32914 11.9747C8.24693 11.9702 8.15446 11.9743 8.03129 11.982C7.9162 11.9893 7.77002 12.0001 7.61967 12.0001C7.05381 11.9999 6.69018 11.599 6.55619 11.1983C6.42521 10.8065 6.46724 10.2904 6.82816 9.9293L9.92924 6.82822ZM10.708 7.49863C10.6913 7.50021 10.6746 7.50509 10.6558 7.51865L10.6363 7.53526L7.53519 10.6363C7.50036 10.6714 7.46563 10.7639 7.50492 10.8814C7.52224 10.9331 7.54742 10.9656 7.56644 10.9815C7.58102 10.9937 7.5954 11.0001 7.62016 11.0001C7.73094 11.0001 7.83817 10.9922 7.9683 10.984C8.0905 10.9763 8.23625 10.9681 8.38383 10.9762C8.702 10.9936 9.04527 11.0883 9.35355 11.3966C9.9374 11.9805 9.85802 12.6328 9.8809 13.0265C9.89319 13.2378 9.92361 13.443 10.0235 13.6749C10.1231 13.9061 10.3039 14.1895 10.648 14.5367C10.6673 14.5512 10.6935 14.5611 10.7246 14.5602C10.7591 14.5591 10.7872 14.5458 10.8057 14.5274H10.8062L14.5274 10.8063C14.5466 10.787 14.56 10.7574 14.5601 10.7213C14.5601 10.6851 14.5465 10.6556 14.5274 10.6363C14.2234 10.3323 13.9598 10.1696 13.7325 10.0758C13.5037 9.98142 13.2877 9.9462 13.0557 9.9249C12.6285 9.8857 11.9596 9.91661 11.3965 9.35361C11.1081 9.06524 10.9963 8.76884 10.9761 8.45518C10.9674 8.31913 10.9764 8.18531 10.9839 8.07725C10.992 7.96116 11 7.86083 11 7.7501C11 7.68963 10.9507 7.58841 10.8326 7.52842C10.7805 7.50198 10.7364 7.496 10.708 7.49863Z" fill="url(#paint2_linear_12794_82114)"/>
</g>
<defs>
<linearGradient id="paint0_linear_12794_82114" x1="8" y1="-1.33514e-05" x2="8" y2="15.9438" gradientUnits="userSpaceOnUse">
<stop stop-color="#A7B7FD"/>
<stop offset="1" stop-color="#3969EF"/>
</linearGradient>
<linearGradient id="paint1_linear_12794_82114" x1="8" y1="15.9438" x2="8" y2="-1.33046e-05" gradientUnits="userSpaceOnUse">
<stop stop-color="#2B55CA"/>
<stop offset="1" stop-color="#557FF3"/>
</linearGradient>
<linearGradient id="paint2_linear_12794_82114" x1="11.2441" y1="16" x2="11.2441" y2="6.49872" gradientUnits="userSpaceOnUse">
<stop stop-color="#888888"/>
<stop offset="1" stop-color="#AAAAAA"/>
</linearGradient>
<clipPath id="clip0_12794_82114">
<rect width="16" height="16" fill="white"/>
</clipPath>
</defs>
</svg>
