<svg width="16" height="16" viewBox="0 0 16 16" fill="none" xmlns="http://www.w3.org/2000/svg">
<g clip-path="url(#clip0_13193_106821)">
<path d="M13 7C13 10.3137 10.3137 13 7 13C3.68629 13 1 10.3137 1 7C1 3.68629 3.68629 1 7 1C10.3137 1 13 3.68629 13 7Z" fill="#A1D0F7"/>
<path d="M7 2C8.31475 2 9.5103 2.50817 10.4028 3.33789C9.80989 3.11925 9.16886 3 8.5 3C5.46243 3 3 5.46243 3 8.5C3 9.16886 3.11925 9.80989 3.33789 10.4028C2.50817 9.5103 2 8.31475 2 7C2 4.23858 4.23858 2 7 2Z" fill="#E6F6FF"/>
<path d="M7 0C10.866 0 14 3.13401 14 7C14 8.70797 13.3879 10.2727 12.3716 11.4878L15.8169 14.9331L15.8599 14.9805C16.0601 15.2259 16.0457 15.5881 15.8169 15.8169C15.5881 16.0457 15.2259 16.0601 14.9805 15.8599L14.9331 15.8169L11.4878 12.3716C10.2727 13.3879 8.70797 14 7 14C3.13401 14 0 10.866 0 7C0 3.13401 3.13401 0 7 0ZM7 1C3.68629 1 1 3.68629 1 7C1 10.3137 3.68629 13 7 13C10.3137 13 13 10.3137 13 7C13 3.68629 10.3137 1 7 1Z" fill="#045EB2"/>
</g>
<defs>
<clipPath id="clip0_13193_106821">
<rect width="16" height="16" fill="white"/>
</clipPath>
</defs>
</svg>
