<svg fill="none" viewBox="0 0 96 96" xmlns="http://www.w3.org/2000/svg">
  <path fill="#181718" d="M48 80c2.036 0 3.92 0 5.668-.013C51.971 77.05 51 73.637 51 70c0-11.046 8.954-20 20-20 3.235 0 6.29.77 8.993 2.134Q80 50.179 80 48c0-13.603 0-20.404-3.577-25.102-.953-1.25-2.07-2.368-3.321-3.32C68.404 16 61.602 16 48 16s-20.404 0-25.102 3.577c-1.25.953-2.368 2.07-3.32 3.321C16 27.596 16 34.398 16 48s0 20.404 3.577 25.102c.953 1.251 2.07 2.369 3.321 3.322C27.596 80 34.398 80 48 80"/>
  <path fill="#FFC95C" d="M34 27c2.073 0 4.012.574 5.667 1.57-1.266 1.103-2.307 2.456-3.047 3.981-.514-.917-1.494-1.538-2.62-1.538-1.657 0-3 1.344-3 3 0 1.657 1.343 3 3 3 .524 0 1.017-.134 1.446-.37q-.073.668-.073 1.357c0 3.764 1.664 7.138 4.294 9.428-1.015.612-2.137 1.064-3.33 1.323v5.222h1.666c1.104 0 2 .896 2 2v6.667c0 1.105-.896 2-2 2h-1.667v1.694c0 1.288-1.044 2.333-2.333 2.333s-2.334-1.045-2.334-2.334v-17.58C26.714 47.682 23 43.275 23 38c0-6.075 4.925-11 11-11"/>
  <path fill="#FFC95C" d="M40.936 29.463C43.416 31.48 45 34.555 45 38s-1.584 6.52-4.064 8.537c-2.48-2.017-4.063-5.092-4.063-8.537s1.584-6.52 4.063-8.537"/>
  <path fill="#25A74B" d="M47.79 68.668c.264 0 .519-.106.706-.294l3.057-3.056c.285-1.189.677-2.336 1.164-3.431q-.06-.097-.14-.179l-1.333-1.334q-.145-.148-.22-.33-.018-.045-.032-.092-.013-.046-.022-.094-.01-.047-.015-.094-.009-.097 0-.193.005-.048.015-.094.009-.048.022-.094.014-.047.032-.092.046-.113.12-.215.026-.034.055-.067l.045-.049 1.333-1.333c.129-.129.22-.29.263-.463q.024-.095.03-.194v-.222q0-.05-.005-.099t-.014-.097-.024-.095q-.04-.127-.11-.24-.014-.024-.032-.047-.048-.07-.108-.129l-1.333-1.333c-.354-.354-.387-.908-.1-1.299q.045-.06.1-.115l1.333-1.334.034-.035c.167-.184.26-.423.26-.672v-.202q0-.084-.016-.167c-.024-.146-.08-.284-.165-.406l-.046-.061-.03-.035-.58-.644q-.036-.04-.067-.084-.029-.038-.053-.078-.033-.056-.059-.115-.049-.119-.068-.244-.009-.063-.012-.125 0-.063.003-.126.011-.127.05-.247l.02-.06q.024-.06.052-.118.029-.057.064-.111.035-.055.076-.106c.11-.134.25-.247.418-.324q.234-.108.463-.227.164-.084.323-.173.09-.05.179-.102l.114-.068c-2.63-2.29-4.296-5.665-4.296-9.43q0-.687.072-1.355l-.053.028-.05.025-.054.027q-.047.023-.096.044l-.048.02-.077.03-.065.024-.076.025-.054.017-.113.033-.02.005q-.055.014-.11.024l-.039.01q-.013 0-.026.004l-.074.013-.01.002q-.09.014-.183.023l-.01.001-.067.006-.044.002-.045.003h-.041q-.043.003-.085.003c-1.657 0-3-1.344-3-3 0-1.657 1.343-3 3-3h.09l.038.002.055.003.039.003q.087.006.174.017l.04.006.068.01.014.003q.045.007.091.017.064.014.125.03l.04.01q.045.011.09.025l.036.011.12.04.032.012.09.036.037.015q.057.024.113.052l.03.014.075.04.05.025.093.053.042.027.07.045.04.026.09.065.041.03.053.043.054.044.035.03q.046.04.09.082l.036.033.05.051q.016.015.03.031l.089.097q.015.016.028.033l.05.062.017.018q.047.062.092.125l.018.025.047.069.01.017q.05.076.095.157c.74-1.525 1.781-2.877 3.046-3.979q-.617-.372-1.283-.662-.111-.048-.224-.093-.22-.091-.446-.172l-.062-.022-.235-.079q-.156-.051-.312-.098l-.141-.04c-.942-.262-1.935-.403-2.96-.403-6.075 0-11 4.925-11 11 0 4.301 2.469 8.026 6.067 9.834.334.168.567.493.594.862l.003.075v15.795c0 .494.182.971.513 1.338l2.19 2.432c.189.21.459.332.742.332z"/>
  <path fill="#25A74B" d="M54.807 46.538c2.48-2.017 4.066-5.092 4.066-8.538s-1.586-6.522-4.066-8.54c-2.48 2.018-4.066 5.094-4.066 8.54s1.585 6.521 4.066 8.538"/>
  <path fill="#CCC" d="M92.502 58c.297 0 .594.12.822.354.454.468.454 1.23 0 1.698l-2.333 2.4c-.455.467-1.195.467-1.65 0-.455-.469-.455-1.23 0-1.698l2.333-2.4c.227-.234.524-.354.822-.354zm-1.167 10.798h3.499c.641 0 1.166.54 1.166 1.2s-.525 1.2-1.166 1.2h-3.499c-.641 0-1.166-.54-1.166-1.2s.525-1.2 1.166-1.2m-1.982 8.754c.227-.234.525-.354.822-.354h.006c.297 0 .595.12.822.354l2.332 2.4c.455.467.455 1.23 0 1.697-.454.468-1.195.468-1.65 0l-2.332-2.4c-.455-.468-.455-1.23 0-1.697"/>
  <rect width="32" height="32" x="55" y="54" fill="#DE5833" rx="16"/>
  <path fill="#F5A031" d="M37.67 64.64h-1.334V53.972h1.333z"/>
  <path fill="#1B7D37" d="M48.206 68.576q-.197.091-.418.092h-.807q-.056 0-.108-.006V50.667c0-1.6.888-2.222 1.333-2.333z"/>
  <path fill="#1074CC" fill-rule="evenodd" d="M58.406 54.465c1.972-1.6 4.254-2.834 6.742-3.594q.004-.008.006-.017l.012-.037.016-.042.011-.032.018-.043.016-.033.015-.035.025-.048.013-.025.023-.04.016-.03.03-.047.014-.02.028-.04.021-.03q.048-.065.103-.124l.058-.061.076-.076q.062-.064.117-.133c.197-.253.307-.566.307-.89q0-.099.013-.195l.002-.01q.005-.042.014-.083l.004-.02q.017-.075.04-.146l.019-.051q.007-.022.016-.04l.022-.053.02-.044.024-.046.025-.046.024-.04.03-.046.03-.043.026-.037.035-.044.03-.036.035-.04.037-.038q.015-.017.033-.033.019-.02.039-.037l.04-.035.039-.032.04-.031.043-.032q.042-.03.086-.056l.094-.055q.242-.13.478-.272.19-.114.371-.235.582-.383 1.11-.834.255-.218.496-.452c.538-.52 1.024-1.096 1.447-1.716q.517-.757.903-1.597.156-.336.287-.683c.463-1.215.716-2.533.716-3.91 0-6.075-4.925-11-11-11-1.032 0-2.033.142-2.98.408l-.091.027q-.208.06-.412.128-.05.016-.1.035-.194.065-.383.14l-.12.046c-.701.28-1.366.632-1.987 1.043l-.151.103q-.136.093-.268.19-.205.148-.4.307l-.017.013q-.488.395-.929.842l-.071.073q-.25.258-.481.532l-.019.022q-.235.28-.453.574l-.04.055-.121.17-.043.062-.113.168-.046.069q-.11.169-.213.34l-.081.137-.043.076-.081.143-.058.108q-.146.271-.276.552l-.079.17-.059.137-.025.06q-.139.327-.255.666l-.045.132q-.197.591-.327 1.21l-.015.07q-.216 1.065-.218 2.192c0 1.16.18 2.278.513 3.328q.048.154.102.306.064.184.135.366.268.685.621 1.322l.103.18q.135.233.28.459l.111.169c.611.908 1.354 1.72 2.2 2.408q.51.415 1.068.768.329.208.673.392.144.076.268.178c.36.291.591.72.591 1.19q0 .155.032.304.028.13.079.251.04.098.094.19.037.06.08.117.063.086.14.163l.075.076c.26.26.428.596.482.955q.013.083.016.167.003.043.002.085zm3.138-17.454-.04-.002-.016-.001-.06-.004-.018-.001-.132-.015q-.059-.007-.117-.017l-.111-.02q-.062-.014-.123-.03l-.023-.005-.107-.03-.045-.014q-.05-.015-.1-.034l-.034-.012-.101-.04q-.02-.007-.04-.017l-.091-.041-.047-.023-.022-.01c-.351-.178-.664-.421-.92-.715l-.008-.01q-.04-.047-.078-.095 0-.002-.003-.005l-.022-.027q-.113-.147-.208-.307l-.003-.004-.02-.036q-.078-.136-.14-.281l-.006-.01-.002-.006q-.045-.104-.082-.21l-.018-.057-.001-.003-.029-.093-.013-.049-.008-.03-.03-.125-.029-.165-.002-.008-.005-.04q-.026-.2-.027-.405 0-.312.06-.605l.002-.003q.012-.063.028-.126v-.005l.013-.04.028-.1.006-.019.04-.124.003-.006.002-.005.008-.018q.017-.048.037-.096l.004-.01.007-.018.002-.003q.023-.057.05-.112l.002-.004.017-.032.037-.075.007-.011.014-.029.004-.007.053-.091.003-.004.022-.037.051-.08.02-.029.068-.096.026-.035.057-.071.022-.027.075-.086.035-.04.05-.052.037-.037q.04-.04.082-.078l.031-.029.077-.066.019-.016q.047-.039.096-.076l.025-.017q.044-.035.092-.066l.015-.01q.052-.035.105-.068l.035-.02.08-.047.03-.017q.054-.029.109-.055l.03-.014.105-.048.016-.007.117-.046.03-.012.101-.034.032-.01.12-.034.03-.008q.078-.019.159-.035l.058-.01q.018-.004.038-.006l.046-.008.041-.006.086-.01h.003l.086-.008h.029l.033-.002.051-.003h.01l.093-.001c1.657 0 3 1.343 3 3 0 1.656-1.343 3-3 3z" clip-rule="evenodd"/>
  <path fill="#fff" d="M74.814 69.465c-.097.062-.41.026-.823-.021-3.66-.644-4.017 1.445-2.254 4.624-1.596.476.287 5.08 1.823 8.538-1.68.595-4.772.467-6.202-.061l-.007-.023c-.314-.116-.704-.115-.886-.364-.492-3.383-7.355-19.527 1.03-20.584.053-.015-1.083-.368-2.612.014-1.912.383 1.857-5.205 5.817-.306 4.302.94 4.61 7.867 4.114 8.183"/>
  <path fill="#4CBA3C" d="M76.29 80.089c-.043.274-.137.457-.306.483-.319.049-1.747-.278-2.56-.587-.092.425-2.268.827-2.613.256-.79.683-2.302 1.673-2.619 1.466-.605-.397-1.175-3.451-.72-4.097.693-.63 2.15.056 3.171.418.347-.586 2.024-.808 2.372-.327.917-.698 2.448-1.681 2.597-1.502.745.897.839 3.031.678 3.89"/>
  <path fill="#FC3" fill-rule="evenodd" d="M68.53 70.87c.311-2.216 4.496-1.523 6.368-1.772 1.364-.158 2.376-.493 3.05-.755 1.547-.636 1.811-.005 1.054.985-2.136 2.533-6.889.69-7.74 2-.248.388-.056 1.301 1.899 1.589 2.64.388 4.81-.468 5.079.05-.603 2.764-10.63 1.823-9.712-2.097z" clip-rule="evenodd"/>
  <path fill="#14307E" d="M73.871 64.48c-.277-.6-1.7-.596-1.972-.024-.025.118.075.087.263.028.331-.104.938-.295 1.636.078.055.024.109-.033.073-.083m-6.954.144c-.264-.019-.693-.05-1.048.147-.52.222-.687.46-.788.624-.037.06-.181.054-.181-.017.035-.954 1.653-1.414 2.241-.821.072.089-.033.081-.224.067m6.447 3.199c-1.088-.005-1.088-1.684 0-1.69 1.09.006 1.09 1.685 0 1.69m-5.517-.26c-.021 1.294-1.92 1.294-1.94 0 .005-1.289 1.934-1.288 1.94 0"/>
  <path fill="#fff" fill-rule="evenodd" d="M71 57.956c-6.652 0-12.044 5.392-12.044 12.044 0 6.651 5.392 12.044 12.044 12.044 6.651 0 12.044-5.392 12.044-12.044S77.652 57.956 71 57.956M57.044 70c0-7.708 6.248-13.956 13.956-13.956S84.956 62.292 84.956 70 78.707 83.956 71 83.956c-7.708 0-13.956-6.249-13.956-13.956" clip-rule="evenodd"/>
</svg>
