<svg width="12" height="12" viewBox="0 0 12 12" fill="none" xmlns="http://www.w3.org/2000/svg">
<g clip-path="url(#clip0_11743_76465)">
<path d="M7.5 5C7.77614 5 8 5.22386 8 5.5C8 5.77614 7.77614 6 7.5 6H3.5C3.22386 6 3 5.77614 3 5.5C3 5.22386 3.22386 5 3.5 5H7.5Z" fill="black"/>
<path d="M8.5 3C8.77614 3 9 3.22386 9 3.5C9 3.77614 8.77614 4 8.5 4H3.5C3.22386 4 3 3.77614 3 3.5C3 3.22386 3.22386 3 3.5 3H8.5Z" fill="black"/>
<path fill-rule="evenodd" clip-rule="evenodd" d="M9.09277 0.00390625C10.7122 0.0860194 12 1.42559 12 3.06543V6.81543C12 7.71516 11.5958 8.56696 10.8994 9.13672L8.22949 11.3223C7.69361 11.7606 7.02242 11.9999 6.33008 12H3.06543C1.37268 12 0 10.6273 0 8.93457V3.06543C0 1.37268 1.37268 0 3.06543 0H8.93457L9.09277 0.00390625ZM3.06543 1C1.92496 1 1 1.92496 1 3.06543V8.93457C1 10.075 1.92496 11 3.06543 11H6V9.40039C6 8.07491 7.07491 7 8.40039 7H10.9893C10.9949 6.93886 11 6.87742 11 6.81543V3.06543C11 1.99636 10.1876 1.11665 9.14648 1.01074L8.93457 1H3.06543ZM8.40039 8C7.62719 8 7 8.62719 7 9.40039V10.8838C7.21516 10.8073 7.41741 10.6945 7.59668 10.5479L10.2666 8.36328C10.3973 8.2563 10.5112 8.13336 10.6094 8H8.40039Z" fill="black"/>
</g>
<defs>
<clipPath id="clip0_11743_76465">
<rect width="12" height="12" fill="white"/>
</clipPath>
</defs>
</svg>
