<svg width="12" height="12" viewBox="0 0 12 12" fill="none" xmlns="http://www.w3.org/2000/svg">
<g clip-path="url(#clip0_324_616)">
<path fill-rule="evenodd" clip-rule="evenodd" d="M4.19881 0.75348C5.17879 -0.245538 6.78905 -0.245389 7.76912 0.75348L11.8258 4.88922C12.0188 5.08625 12.0156 5.40291 11.8189 5.59625C11.6218 5.78962 11.3043 5.78656 11.1109 5.58942L10.9996 5.47516V8.99957C10.9996 10.6564 9.65642 11.9996 7.99959 11.9996H3.99959C2.34286 11.9995 0.999618 10.6563 0.999588 8.99957V5.44391L0.85701 5.58942C0.663644 5.78656 0.346142 5.78962 0.149002 5.59625C-0.0474749 5.40289 -0.0508169 5.08617 0.142166 4.88922L4.19881 0.75348ZM7.05525 1.45367C6.46721 0.854486 5.50062 0.854336 4.91267 1.45367L1.99959 4.4234V8.99957C1.99962 10.104 2.89514 10.9995 3.99959 10.9996H4.0865C4.03121 10.8432 3.99959 10.6749 3.99959 10.4996V6.99957C3.99979 5.89525 4.89525 4.99969 5.99959 4.99957C7.10403 4.99957 7.99939 5.89518 7.99959 6.99957V10.4996C7.99959 10.675 7.968 10.8431 7.91267 10.9996H7.99959C9.10414 10.9996 9.99956 10.1041 9.99959 8.99957V4.45563L7.05525 1.45367ZM5.99959 5.99957C5.44753 5.99969 4.99979 6.44754 4.99959 6.99957V10.4996C4.99959 10.7756 5.22355 10.9995 5.49959 10.9996H6.49959C6.77573 10.9996 6.99959 10.7757 6.99959 10.4996V6.99957C6.99939 6.44746 6.55175 5.99957 5.99959 5.99957Z" fill="black" fill-opacity="0.84"/>
</g>
<defs>
<clipPath id="clip0_324_616">
<rect width="12" height="12" fill="white"/>
</clipPath>
</defs>
</svg>
