<svg fill="none" viewBox="0 0 24 24" xmlns="http://www.w3.org/2000/svg">
  <path fill="#F05F2B" fill-rule="evenodd" d="M12 2.625c4.004 0 7.25 3.246 7.25 7.25 0 2.138-.918 4.282-2.065 6.147-1.154 1.874-2.58 3.53-3.685 4.706-.814.866-2.186.866-3 0-1.104-1.176-2.532-2.832-3.686-4.707-1.147-1.864-2.064-4.008-2.064-6.146 0-4.004 3.246-7.25 7.25-7.25m0 4.672c-1.419 0-2.57 1.15-2.57 2.57 0 1.418 1.151 2.568 2.57 2.568 1.42 0 2.57-1.15 2.57-2.569s-1.15-2.57-2.57-2.57" clip-rule="evenodd"/>
  <path fill="#9E2B08" d="M18.625 9.875c0-3.659-2.966-6.625-6.625-6.625S5.375 6.216 5.375 9.875c0 3.94 3.398 8.102 5.58 10.425.532.566 1.404.6 1.979.105l.11-.105c2.182-2.323 5.581-6.485 5.581-10.425m1.25 0c0 2.307-.984 4.568-2.157 6.474-1.185 1.925-2.644 3.616-3.762 4.806-1.06 1.13-2.851 1.13-3.912 0-1.118-1.19-2.577-2.881-3.762-4.806-1.173-1.906-2.157-4.167-2.157-6.474C4.125 5.525 7.651 2 12 2s7.875 3.526 7.875 7.875"/>
  <path fill="#9E2B08" d="M13.945 9.866c0-1.057-.844-1.917-1.895-1.944H12c-1.074 0-1.944.87-1.944 1.944s.87 1.945 1.944 1.945h.05c1.051-.027 1.895-.887 1.895-1.945m1.25 0c0 1.737-1.386 3.15-3.112 3.194H12c-1.764 0-3.194-1.43-3.194-3.194S10.236 6.672 12 6.672l.083.001c1.726.044 3.112 1.457 3.112 3.193"/>
</svg>
