<svg fill="none" width="12" height="12" viewBox="0 0 16 16" xmlns="http://www.w3.org/2000/svg">
  <g clip-path="url(#Chat-16_svg__a)">
    <path fill="#000" d="M14.75 7.125c0 2.372-1.645 4.514-4.162 5.427l-.048.017-.047.022c-.81.371-2.324.785-4.064 1.173-1.12.25-2.284.478-3.324.67l.297-.343c.781-.901.554-2.169-.215-2.85-1.22-1.08-1.937-2.539-1.937-4.116C1.25 4.012 4.132 1.25 8 1.25V0h-.103C3.56.05.056 3.17 0 7.034v.091c0 1.943.874 3.705 2.29 4.99l.068.061c.31.274.375.743.125 1.065l-.025.03-1.294 1.492c-.441.51-.014 1.284.65 1.17 2.656-.457 7.309-1.338 9.2-2.206C13.94 12.667 16 10.11 16 7.125v-.092C15.943 3.14 12.383 0 8 0v1.25c3.868 0 6.75 2.762 6.75 5.875"/>
  </g>
  <defs>
    <clipPath id="Chat-16_svg__a">
      <path fill="#fff" d="M0 0h16v16H0z"/>
    </clipPath>
  </defs>
</svg>
