<svg width="16" height="16" viewBox="0 0 16 16" fill="none" xmlns="http://www.w3.org/2000/svg">
<path d="M9.81326 1.37476C11.4276 0.836671 13.0867 0.828026 14.1295 1.87086C15.1724 2.91369 15.1636 4.57274 14.6255 6.18702C14.4293 6.7758 14.155 7.38559 13.8103 8.00025C14.1551 8.61495 14.4292 9.22478 14.6255 9.8136C15.1636 11.4279 15.1724 13.087 14.1295 14.1299C13.0867 15.1727 11.4276 15.1639 9.81326 14.6259C9.22443 14.4296 8.61462 14.1553 7.99991 13.8105C7.38529 14.1552 6.77556 14.4295 6.1868 14.6257C4.57253 15.1638 2.91349 15.1726 1.87064 14.1299C0.827788 13.087 0.836562 11.4278 1.37467 9.81348C1.57093 9.2247 1.84504 8.6149 2.18973 8.00025C1.84504 7.3856 1.57081 6.7758 1.37455 6.18702C0.836483 4.57274 0.82771 2.91369 1.87052 1.87086C2.91337 0.828012 4.57249 0.836793 6.1868 1.37489C6.77555 1.57114 7.38529 1.84528 7.99991 2.18995C8.6146 1.84522 9.22444 1.57104 9.81326 1.37476ZM2.96341 9.22022C2.80168 9.55826 2.66701 9.8892 2.56046 10.2089C2.06936 11.6822 2.22674 12.7183 2.75443 13.246C3.28214 13.7736 4.3182 13.931 5.79154 13.4399C6.11121 13.3334 6.44201 13.1985 6.78006 13.0367C6.07525 12.537 5.37837 11.95 4.71439 11.286C4.05037 10.622 3.46321 9.92507 2.96341 9.22022ZM13.0365 9.22022C12.5367 9.92505 11.9498 10.622 11.2858 11.286C10.6218 11.95 9.92474 12.537 9.21988 13.0367C9.55797 13.1985 9.88882 13.3334 10.2085 13.4399C11.6819 13.9311 12.7179 13.7737 13.2456 13.246C13.7733 12.7183 13.9307 11.6822 13.4396 10.2089C13.333 9.88918 13.1983 9.55829 13.0365 9.22022ZM7.99991 3.64796C7.19503 4.16479 6.37777 4.81905 5.5983 5.59852C4.81881 6.378 4.1646 7.19534 3.64774 8.00025C4.16459 8.80516 4.81868 9.6226 5.59818 10.4021C6.37765 11.1816 7.19514 11.8356 8.00003 12.3524C8.80493 11.8356 9.62241 11.1816 10.4019 10.4021C11.1814 9.62261 11.8354 8.80514 12.3522 8.00025C11.8354 7.19538 11.1813 6.37797 10.4019 5.59852C9.62236 4.81899 8.80485 4.16481 7.99991 3.64796ZM7.293 7.29322C7.68353 6.90269 8.31666 6.90269 8.70719 7.29322C9.09768 7.68374 9.0977 8.31688 8.70719 8.7074C8.31667 9.09791 7.68353 9.0979 7.293 8.7074C6.90248 8.31688 6.90248 7.68374 7.293 7.29322ZM5.79154 2.56068C4.31818 2.06957 3.28213 2.22707 2.75443 2.75477C2.22674 3.28248 2.06935 4.31852 2.56046 5.79187C2.667 6.1115 2.80183 6.44228 2.96354 6.78028C3.46332 6.07545 4.05039 5.37861 4.71439 4.71461C5.37839 4.05061 6.07524 3.46353 6.78006 2.96375C6.44204 2.80204 6.11118 2.66722 5.79154 2.56068ZM13.2456 2.75477C12.7179 2.22708 11.6819 2.06956 10.2085 2.56068C9.88884 2.66724 9.55795 2.80201 9.21988 2.96375C9.92474 3.46354 10.6216 4.05058 11.2857 4.71461C11.9497 5.3786 12.5367 6.07545 13.0365 6.78028C13.1982 6.44228 13.3331 6.1115 13.4396 5.79187C13.9307 4.31852 13.7733 3.28248 13.2456 2.75477Z" fill="black"/>
</svg>
