<svg width="24" height="24" viewBox="0 0 24 24" fill="none" xmlns="http://www.w3.org/2000/svg">
<path fill-rule="evenodd" clip-rule="evenodd" d="M12 20.75C16.8325 20.75 20.75 16.8325 20.75 12C20.75 7.16751 16.8325 3.25 12 3.25C7.16751 3.25 3.25 7.16751 3.25 12C3.25 16.8325 7.16751 20.75 12 20.75Z" fill="#247A64"/>
<path fill-rule="evenodd" clip-rule="evenodd" d="M12 20.75C16.8325 20.75 20.75 16.8325 20.75 12C20.75 7.16751 16.8325 3.25 12 3.25C7.16751 3.25 3.25 7.16751 3.25 12C3.25 16.8325 7.16751 20.75 12 20.75Z" fill="#589D88"/>
<path opacity="0.7" d="M11.275 2.04515C12.1465 1.9803 13.0227 2.02997 13.8813 2.19288L12.0171 12.0176L11.275 2.04515Z" fill="#CFEBDA"/>
<path opacity="0.8" d="M13.8813 2.1924C14.7399 2.35531 15.5735 2.63008 16.3606 3.00966L12.0171 12.0171L13.8813 2.1924Z" fill="#CFEBDA"/>
<path opacity="0.2" d="M20.9593 7.54078C21.3505 8.32225 21.6375 9.15163 21.8131 10.0077L12.0171 12.0171L20.9593 7.54078Z" fill="#11604D"/>
<path opacity="0.4" d="M19.4955 5.37834C20.0757 6.03189 20.5677 6.75867 20.9589 7.54011L12.0171 12.0171L19.4955 5.37834Z" fill="#11604D"/>
<path opacity="0.9" d="M16.3606 3.00966C17.1478 3.38925 17.8818 3.87039 18.5439 4.44077L12.0171 12.0171L16.3606 3.00966Z" fill="#CFEBDA"/>
<path opacity="0.4" d="M4.44077 5.49027C5.01116 4.82816 5.66588 4.24368 6.3882 3.75177L12.0171 12.0171L4.44077 5.49027Z" fill="#CFEBDA"/>
<path opacity="0.5" d="M6.3882 3.75177C7.11051 3.25985 7.8942 2.86474 8.71922 2.57654L12.0171 12.0171L6.3882 3.75177Z" fill="#CFEBDA"/>
<path opacity="0.6" d="M8.71922 2.57654C9.54424 2.28833 10.4035 2.10952 11.275 2.04466L12.0171 12.0171L8.71922 2.57654Z" fill="#CFEBDA"/>
<path opacity="0.1" d="M2.04515 12.7592C1.9803 11.8877 2.02997 11.0114 2.19288 10.1529L12.0176 12.0171L2.04515 12.7592Z" fill="#CFEBDA"/>
<path opacity="0.2" d="M2.1924 10.1529C2.35531 9.29426 2.63008 8.46073 3.00966 7.67356L12.0171 12.0171L2.1924 10.1529Z" fill="#CFEBDA"/>
<path opacity="0.3" d="M3.00966 7.67356C3.38925 6.88639 3.87039 6.15237 4.44077 5.49027L12.0171 12.0171L3.00966 7.67356Z" fill="#CFEBDA"/>
<path d="M18.8794 6.00335L12.7346 12.1481C12.6655 12.4908 12.3628 12.7488 11.9998 12.7488C11.5857 12.7488 11.25 12.4131 11.25 11.999C11.25 11.6359 11.5081 11.3329 11.8509 11.2639L17.9954 5.11951L18.8794 6.00335Z" fill="white"/>
<path d="M12 2C17.5228 2 22 6.47715 22 12C22 17.5228 17.5228 22 12 22C6.47715 22 2 17.5228 2 12C2 6.47715 6.47715 2 12 2ZM12 3.25C7.16751 3.25 3.25 7.16751 3.25 12C3.25 16.8325 7.16751 20.75 12 20.75C16.8325 20.75 20.75 16.8325 20.75 12C20.75 7.16751 16.8325 3.25 12 3.25Z" fill="#11604D"/>
<path d="M13.125 5.75C13.125 6.23325 12.7332 6.625 12.25 6.625C11.7668 6.625 11.375 6.23325 11.375 5.75C11.375 5.26675 11.7668 4.875 12.25 4.875C12.7332 4.875 13.125 5.26675 13.125 5.75Z" fill="white"/>
<path opacity="0.4" d="M11.625 18.25C11.625 18.7332 11.2332 19.125 10.75 19.125C10.2668 19.125 9.875 18.7332 9.875 18.25C9.875 17.7668 10.2668 17.375 10.75 17.375C11.2332 17.375 11.625 17.7668 11.625 18.25Z" fill="white"/>
<path d="M10.125 6.75C10.125 7.23325 9.73325 7.625 9.25 7.625C8.76675 7.625 8.375 7.23325 8.375 6.75C8.375 6.26675 8.76675 5.875 9.25 5.875C9.73325 5.875 10.125 6.26675 10.125 6.75Z" fill="white"/>
<path opacity="0.9" d="M8.625 10.75C8.625 11.2332 8.23325 11.625 7.75 11.625C7.26675 11.625 6.875 11.2332 6.875 10.75C6.875 10.2668 7.26675 9.875 7.75 9.875C8.23325 9.875 8.625 10.2668 8.625 10.75Z" fill="white"/>
<path opacity="0.7" d="M6.625 12.75C6.625 13.2332 6.23325 13.625 5.75 13.625C5.26675 13.625 4.875 13.2332 4.875 12.75C4.875 12.2668 5.26675 11.875 5.75 11.875C6.23325 11.875 6.625 12.2668 6.625 12.75Z" fill="white"/>
<path opacity="0.3" d="M9.125 15.75C9.125 16.2332 8.73325 16.625 8.25 16.625C7.76675 16.625 7.375 16.2332 7.375 15.75C7.375 15.2668 7.76675 14.875 8.25 14.875C8.73325 14.875 9.125 15.2668 9.125 15.75Z" fill="white"/>
</svg>
