<svg fill="none" viewBox="0 0 12 12" xmlns="http://www.w3.org/2000/svg">
  <g fill="#000" clip-path="url(#a)">
    <path d="M6.249 7.497c-.103.668.036.953.665.861-.03.432-.16.907-.918.908-.664 0-1.085-.384-1.085-1.086 0-1.074.28-2.079.403-3.05l1.37-.22c-.005.03-.333 1.924-.435 2.587m.113-4.764c.328 0 .71.197.711.678 0 .383-.262.854-.886.854-.338 0-.721-.164-.721-.667a.88.88 0 0 1 .896-.865"/>
    <path fill-rule="evenodd" d="M6 0a6 6 0 1 1 0 12A6 6 0 0 1 6 0m0 1a5 5 0 1 0 0 10A5 5 0 0 0 6 1" clip-rule="evenodd"/>
  </g>
  <defs>
    <clipPath id="a">
      <path fill="#fff" d="M0 0h12v12H0z"/>
    </clipPath>
  </defs>
</svg>
