<svg width="128" height="96" viewBox="0 0 128 96" fill="none" xmlns="http://www.w3.org/2000/svg">
<path d="M64.0004 16.75C81.2592 16.7501 95.2504 30.7411 95.2504 48C95.2504 50.0652 95.0494 52.0836 94.6671 54.0369C93.2011 53.5452 91.6317 53.2788 90.0001 53.2788C81.9 53.2788 75.3336 59.8454 75.3336 67.9456C75.3336 70.9443 76.2337 73.7327 77.7782 76.0557C73.6219 78.1007 68.9454 79.25 64.0004 79.25C46.7415 79.25 32.7504 65.2589 32.7504 48C32.7504 30.7411 46.7415 16.75 64.0004 16.75Z" fill="#C5C5C5"/>
<path d="M29.2504 47.7871C29.3303 47.7871 29.4073 47.8188 29.465 47.8752C29.5227 47.9318 29.556 48.0087 29.5604 48.0886C29.5914 48.6459 29.6337 49.1962 29.6879 49.7493C30.1721 54.7116 31.6161 59.5179 33.9149 63.874C36.2107 68.2318 39.3848 72.1267 43.2243 75.281C43.6508 75.6316 44.0855 75.9728 44.5282 76.3049C44.6193 76.3733 44.6828 76.4738 44.7028 76.5867C44.7227 76.6996 44.6977 76.8154 44.6332 76.9092C44.5686 77.0029 44.4692 77.0675 44.3566 77.0891C44.244 77.1107 44.1275 77.0872 44.0311 77.0264C43.5514 76.7231 43.0797 76.4072 42.6159 76.0789C38.4393 73.1271 34.9454 69.1547 32.5468 64.5952C30.1382 60.0407 28.8777 54.8874 28.8927 49.7874C28.8935 49.2189 28.9095 48.6557 28.9403 48.0886C28.9448 48.0086 28.9781 47.9318 29.0358 47.8752C29.0935 47.8188 29.1705 47.7871 29.2504 47.7871Z" fill="#C5C5C5"/>
<path d="M80.3961 17.2236C80.5042 17.1902 80.6208 17.1999 80.723 17.2454C80.9813 17.3608 81.2379 17.4804 81.4926 17.6042C83.7849 18.7183 85.926 20.1724 87.8175 21.8997C89.7099 23.626 91.3289 25.6516 92.587 27.8662C92.7269 28.1122 92.8623 28.3604 92.9933 28.6108C93.0294 28.6803 93.0429 28.7613 93.026 28.8389C93.0092 28.9164 92.9638 28.984 92.8993 29.0273C92.8347 29.0707 92.755 29.087 92.6769 29.0732C92.5987 29.0595 92.529 29.0162 92.4784 28.9565C92.2989 28.7446 92.1185 28.5344 91.9369 28.3257C90.3024 26.4474 88.5843 24.6942 86.7748 23.042C84.9649 21.3903 83.0388 19.8654 80.9909 18.4734C80.7633 18.3188 80.5343 18.1657 80.3036 18.0144C80.21 17.953 80.1386 17.8601 80.1083 17.751C80.0779 17.6419 80.0905 17.5262 80.1439 17.4282C80.1974 17.3303 80.288 17.2571 80.3961 17.2236Z" fill="#C5C5C5"/>
<path d="M64 16C81.6731 16 96 30.3269 96 48C96 50.1554 95.7862 52.2609 95.3799 54.2969C94.9131 54.1127 94.4346 53.9521 93.9458 53.8159C94.3093 51.9332 94.5 49.9889 94.5 48C94.5 31.1553 80.8447 17.5 64 17.5C47.1553 17.5 33.5 31.1553 33.5 48C33.5 64.8447 47.1553 78.5 64 78.5C68.7984 78.5 73.3376 77.3912 77.3765 75.417C77.6345 75.852 77.9146 76.2724 78.2148 76.677C73.9323 78.8039 69.1059 80 64 80C46.3269 80 32 65.6731 32 48C32 30.3269 46.3269 16 64 16Z" fill="#484848"/>
<path fill-rule="evenodd" clip-rule="evenodd" d="M44.4084 27.0994C44.4934 27.0203 44.6155 26.9953 44.7246 27.0349C44.8356 27.0753 44.9462 27.1165 45.0562 27.1592C45.6646 27.397 46.2595 27.6683 46.8408 27.9724C49.6841 29.5223 52.2857 31.4119 54.7468 33.4651C57.0934 31.6676 59.578 30.0885 62.1404 28.6382C62.5421 28.4127 62.948 28.1911 63.3562 27.9746C63.5692 27.8617 63.8298 27.9896 63.9045 28.2188C63.9732 28.4295 64.0605 28.6319 64.1643 28.824C64.267 29.014 64.2079 29.2586 64.0171 29.3599C63.6394 29.5602 63.2629 29.7657 62.8896 29.9746C60.484 31.3314 58.1331 32.8197 55.9341 34.4763C57.0849 35.4767 58.2077 36.5076 59.313 37.5505C61.6841 39.8174 63.9552 42.1865 66.125 44.6428C66.3693 44.6846 66.6135 44.7268 66.8577 44.7698C66.8664 44.7714 66.8753 44.7731 66.884 44.7747C70.6287 45.4549 74.333 46.342 77.9871 47.4082C78.0843 47.4366 78.1814 47.4652 78.2786 47.4939C78.5754 47.5817 78.7088 47.9257 78.5991 48.2151C78.5491 48.3472 78.5064 48.4829 78.4717 48.6218C78.3973 48.9195 78.0963 49.1248 77.803 49.0347C77.7112 49.0065 77.6194 48.9783 77.5276 48.9504C74.2874 47.9672 70.9997 47.1309 67.6829 46.4424C67.9385 46.7436 68.1933 47.0455 68.446 47.3491C70.707 50.0697 72.8038 52.9192 74.7319 55.8721C75.1527 56.5168 75.5652 57.1667 75.9685 57.8208C75.9877 57.8519 75.995 57.8896 75.988 57.9258C75.981 57.9619 75.96 57.9939 75.9299 58.0146C75.8998 58.0353 75.8625 58.0432 75.8262 58.0369C75.7898 58.0305 75.7576 58.01 75.7354 57.981C75.2703 57.3717 74.7997 56.7663 74.3245 56.165C72.1468 53.4117 69.8747 50.7423 67.5073 48.1707C66.8404 47.4473 66.1684 46.7287 65.4922 46.0144C59.2985 44.8726 52.9979 44.1094 46.6963 43.8621C43.8467 47.7049 41.5567 51.9821 40.1038 56.5757C39.9038 57.2154 39.7225 57.8592 39.5623 58.5049C39.5431 58.582 39.4931 58.649 39.4248 58.6912C39.3564 58.7333 39.2748 58.7473 39.1973 58.7297C39.1197 58.7121 39.0521 58.6644 39.0085 58.5969C38.965 58.5294 38.9491 58.4473 38.9651 58.3694C39.1016 57.7058 39.2576 57.043 39.4312 56.3826C40.6091 51.9467 42.5044 47.6732 45.0452 43.8135C42.1924 43.749 39.3275 43.7579 36.5068 44.1445C36.2838 44.176 36.0603 44.2109 35.8372 44.2488C35.6773 44.2759 35.5354 44.141 35.5583 43.9805C35.5721 43.8844 35.6431 43.8066 35.7375 43.7842C35.9637 43.7305 36.1905 43.68 36.4167 43.6323C39.4867 42.9984 42.6322 42.7784 45.7551 42.7698C46.7893 41.2979 47.9203 39.8922 49.1438 38.5674C50.4129 37.1951 51.7617 35.9092 53.1926 34.7061C53.319 34.6008 53.4459 34.4963 53.5732 34.3926C51.2896 32.3519 48.9323 30.4071 46.4104 28.7097C45.8864 28.3695 45.3419 28.0521 44.7839 27.7632C44.6865 27.713 44.5884 27.6637 44.49 27.6152C44.2911 27.5172 44.2462 27.2504 44.4084 27.0994ZM54.7146 35.4255C54.5319 35.5726 54.3503 35.721 54.1702 35.8706C52.7857 37.0309 51.48 38.2705 50.2493 39.5928C49.2961 40.6183 48.3821 41.6853 47.5142 42.7908C52.9793 42.9076 58.4226 43.434 63.8203 44.2681C61.9871 42.3745 60.1202 40.5156 58.218 38.697C57.0576 37.6017 55.8939 36.5042 54.7146 35.4255Z" fill="#484848"/>
<path d="M82.0161 47.0518C83.3731 47.0518 84.4731 48.152 84.4731 49.509C84.4731 50.866 83.3731 51.966 82.0161 51.9661C80.6591 51.9661 79.5589 50.8661 79.5588 49.509C79.5588 48.1519 80.659 47.0518 82.0161 47.0518Z" fill="#484848"/>
<path d="M67.3979 24.604C68.766 24.604 69.875 25.713 69.875 27.0811C69.875 28.4491 68.766 29.5583 67.3979 29.5583C66.0299 29.5583 64.9209 28.4491 64.9209 27.0811C64.9209 25.713 66.0299 24.604 67.3979 24.604Z" fill="#484848"/>
<path d="M79.375 24.0154C79.4378 24.0156 79.4992 24.0341 79.5518 24.0684C79.8131 24.2388 79.7028 24.6406 79.3921 24.6689C76.6058 24.9226 73.8517 25.5663 71.1938 26.3826C71.0994 26.4123 71.0005 26.3524 70.9783 26.2559C70.9073 25.9468 70.7973 25.6525 70.6538 25.3787C70.5716 25.2217 70.6526 25.0213 70.8259 24.9841C73.6472 24.3989 76.5071 24.0067 79.375 24.0154Z" fill="#484848"/>
<path d="M90 80C96.6274 80 102 74.6274 102 68C102 61.3726 96.6274 56 90 56C83.3726 56 78 61.3726 78 68C78 74.6274 83.3726 80 90 80Z" fill="black"/>
<path fill-rule="evenodd" clip-rule="evenodd" d="M90 60C91.8409 60 93.3335 61.4923 93.3335 63.3333V66.6667C94.2539 66.6669 95 67.4131 95 68.3335V73C95 73.9204 94.2537 74.6667 93.3333 74.6667H86.6667C85.7463 74.6667 85 73.9204 85 73V68.3335C85 67.413 85.7463 66.6667 86.6667 66.6667H91.3335V63.3333C91.3335 62.5969 90.7364 62 90 62C89.2637 62 88.6668 62.5969 88.6667 63.3333V64C88.6667 64.5523 88.219 65 87.6667 65C87.1145 65 86.6667 64.5523 86.6667 64V63.3333C86.6668 61.4924 88.1591 60 90 60ZM90 68.3335C89.1716 68.3335 88.5 69.0051 88.5 69.8335C88.5001 70.4223 88.8395 70.9315 89.3333 71.177V72.25C89.3333 72.6181 89.6319 72.9167 90 72.9167C90.3681 72.9167 90.6667 72.6181 90.6667 72.25V71.177C91.1605 70.9315 91.4999 70.4223 91.5 69.8335C91.5 69.0051 90.8284 68.3335 90 68.3335Z" fill="white"/>
</svg>
