<svg width="128" height="96" viewBox="0 0 128 96" fill="none" xmlns="http://www.w3.org/2000/svg">
<path d="M55.4425 17.6941C56.6289 14.7391 59.6609 12.9577 62.8197 13.3601L86.1191 16.3282C91.0006 16.95 93.98 22.0146 92.1523 26.5835L81.4443 53.3492C80.9691 53.3027 80.4873 53.2788 79.9999 53.2788C71.8998 53.2789 65.3334 59.8454 65.3334 67.9456C65.3334 71.9486 66.9373 75.5767 69.5373 78.2232C67.7629 79.3248 65.6229 79.831 63.4369 79.5525L41.1877 76.7181C36.6432 76.1391 33.872 71.4218 35.5788 67.1704L55.4425 17.6941Z" fill="#75B6EB"/>
<path d="M55.4788 18.0401C56.7722 14.8979 60.0117 13.0129 63.3826 13.4412L84.1346 16.0782C87.9843 16.5673 90.2995 20.6006 88.7806 24.1717L76.1866 53.7798C69.9354 55.4585 65.3333 61.1647 65.3333 67.9458C65.3333 69.8187 65.6844 71.6095 66.3243 73.2561C65.0433 73.9792 63.5352 74.3015 61.9981 74.1082L41.4502 71.5247C37.625 71.0437 35.3027 67.0587 36.7701 63.4935L55.4788 18.0401Z" fill="#F5FBFE"/>
<path d="M39.0368 47.3112C39.1022 47.3098 39.1699 47.3223 39.2282 47.3566C39.2865 47.391 39.3307 47.4438 39.352 47.5063C39.3732 47.5687 39.3706 47.6377 39.3456 47.7011C39.3206 47.7646 39.2749 47.8168 39.2226 47.8566C39.1389 47.9198 39.0546 47.9818 38.9699 48.0419C38.2075 48.5836 37.4033 49.0025 36.5573 49.2988C35.7112 49.595 34.8232 49.7687 33.8935 49.8195C33.7902 49.8252 33.6863 49.8291 33.582 49.8317C33.5165 49.8331 33.4489 49.8207 33.3905 49.7863C33.3322 49.752 33.2881 49.6994 33.2668 49.6369C33.2455 49.5744 33.2482 49.5055 33.2731 49.4421C33.2981 49.3785 33.3438 49.3264 33.3962 49.2866C33.4798 49.2234 33.5639 49.1614 33.6486 49.1013C34.411 48.5596 35.2154 48.1404 36.0614 47.8442C36.9075 47.5479 37.7955 47.3743 38.7253 47.3234C38.8286 47.3178 38.9325 47.3138 39.0368 47.3112Z" fill="#1074CC"/>
<path d="M33.6589 35.3447C33.774 35.3549 33.8886 35.3666 34.0024 35.3801C35.0261 35.5009 35.9957 35.7509 36.9111 36.1293C37.8265 36.5078 38.688 37.015 39.495 37.6511C39.5847 37.7217 39.6736 37.794 39.7619 37.8679C39.8085 37.9071 39.8462 37.9615 39.8625 38.029C39.8787 38.0965 39.8725 38.1707 39.8442 38.238C39.8159 38.3051 39.7672 38.3617 39.7074 38.3976C39.6476 38.4337 39.5818 38.4456 39.5209 38.4404C39.4059 38.4301 39.2916 38.4181 39.1779 38.4047C38.1541 38.2839 37.1842 38.0342 36.2687 37.6557C35.3533 37.2773 34.492 36.7702 33.685 36.1342C33.5953 36.0636 33.5064 35.991 33.4181 35.9172C33.3715 35.878 33.3338 35.8235 33.3175 35.756C33.3013 35.6886 33.3073 35.6143 33.3356 35.5471C33.3639 35.4798 33.4128 35.4232 33.4726 35.3872C33.5324 35.3511 33.5979 35.3394 33.6589 35.3447Z" fill="#1074CC"/>
<path d="M42.5258 24.592C42.5912 24.6002 42.6482 24.6319 42.6935 24.674C42.7695 24.7452 42.844 24.8174 42.9172 24.8903C43.5762 25.5475 44.1224 26.2777 44.5551 27.0812C44.9878 27.8848 45.3071 28.7617 45.5133 29.7116C45.5363 29.8171 45.5579 29.9236 45.578 30.031C45.5898 30.0948 45.5875 30.1649 45.5624 30.2316C45.5374 30.2983 45.4921 30.3559 45.434 30.3935C45.3758 30.4311 45.3078 30.4466 45.2424 30.4384C45.177 30.4302 45.1199 30.3985 45.0746 30.3564C44.9986 30.2852 44.9242 30.2128 44.851 30.1398C44.1919 29.4827 43.646 28.7522 43.2133 27.9487C42.7807 27.1452 42.4613 26.2686 42.255 25.3188C42.2321 25.2133 42.2105 25.1066 42.1904 24.9992C42.1786 24.9354 42.1806 24.8655 42.2057 24.7988C42.2308 24.7321 42.276 24.6745 42.3341 24.6369C42.3923 24.5993 42.4604 24.5838 42.5258 24.592Z" fill="#1074CC"/>
<path d="M45.9598 39.4704C46.1165 39.087 46.5544 38.9033 46.9379 39.0598C47.3212 39.2164 47.5051 39.6542 47.3485 40.0376L36.4242 66.7917C34.8367 70.6798 37.2438 75.0392 41.3771 75.7693L63.3302 78.5017L63.5194 78.5212C65.395 78.6957 67.2222 78.278 68.7858 77.3977C69.1166 77.7898 69.4677 78.1642 69.8373 78.5195C67.8867 79.7086 65.5521 80.2648 63.1603 79.9919L63.1564 79.9917L63.1527 79.9912L41.1696 77.2551L41.1513 77.2529L41.1332 77.2497C36.0483 76.3624 33.0843 71.0033 35.0355 66.2246L45.9598 39.4704Z" fill="#045EB2"/>
<path d="M51.0653 72.497C51.8235 72.5625 52.5825 72.6232 53.3412 72.6843C54.7182 72.7952 56.0954 72.9074 57.4686 73.0495C58.4318 73.1492 59.3953 73.2476 60.3576 73.3452C60.9748 73.4066 61.5923 73.4678 62.2096 73.529C63.5775 73.6802 64.9477 73.3388 66.1046 72.6506C66.2492 73.0777 66.4133 73.4958 66.5951 73.9043C65.2067 74.6241 63.6125 74.9328 62.0707 74.6975C61.4563 74.6126 60.8418 74.5275 60.2262 74.4426C59.2673 74.3083 58.3082 74.1745 57.349 74.0422C55.9813 73.8536 54.617 73.6349 53.2531 73.415C52.5016 73.2939 51.7501 73.1725 50.9982 73.0556C50.927 73.0445 50.8618 73.0046 50.8175 72.9463C50.7733 72.8878 50.7532 72.8152 50.7619 72.7436C50.7705 72.6721 50.8073 72.6065 50.8641 72.5603C50.921 72.5141 50.9935 72.4909 51.0653 72.497Z" fill="#045EB2"/>
<path d="M48.8139 71.9741C48.9702 71.9871 49.1219 72.059 49.2684 72.1897C49.2847 72.2042 49.3009 72.2196 49.317 72.2356C49.363 72.2818 49.4071 72.3286 49.4381 72.3786C49.4691 72.4288 49.4846 72.4803 49.4804 72.5315C49.476 72.5826 49.4521 72.6307 49.4132 72.675C49.3743 72.7192 49.3233 72.7581 49.2704 72.7961C49.2518 72.8092 49.2332 72.8216 49.2147 72.8332C49.0486 72.9378 48.8872 72.9837 48.7308 72.9707C48.5745 72.9576 48.423 72.8855 48.2765 72.7549C48.2602 72.7404 48.2438 72.7251 48.2277 72.7092C48.1817 72.663 48.1379 72.6162 48.1068 72.5661C48.0758 72.5159 48.0603 72.4645 48.0646 72.4133C48.0689 72.3621 48.0926 72.3141 48.1315 72.2697C48.1704 72.2255 48.2216 72.1866 48.2745 72.1487C48.2931 72.1356 48.3116 72.1231 48.33 72.1115C48.4961 72.0069 48.6575 71.9611 48.8139 71.9741Z" fill="#045EB2"/>
<path d="M79.3429 46.2761C79.4114 46.2494 79.4873 46.2505 79.5543 46.2793C79.6213 46.3081 79.6747 46.3625 79.7025 46.4306C79.7303 46.4987 79.7301 46.575 79.7042 46.6433C79.4338 47.3549 79.1616 48.066 78.8881 48.7763C78.2696 50.3823 77.6431 51.9847 77.0084 53.5837C76.5436 53.68 76.0869 53.7983 75.6393 53.9375C76.482 52.1137 77.3356 50.2947 78.2003 48.4804C78.5278 47.7934 78.8568 47.1066 79.1874 46.4209C79.2191 46.3552 79.2744 46.3028 79.3429 46.2761Z" fill="#045EB2"/>
<path d="M54.6149 18.2253C56.0608 14.7156 59.6242 12.5675 63.3903 12.9133L63.57 12.9316L63.5729 12.9321L63.5758 12.9323L85.7142 15.6069L85.7191 15.6074C91.3048 16.319 94.7274 22.0988 92.6661 27.3388L92.6652 27.3415L92.6639 27.3442L82.1742 53.4384C81.6632 53.3625 81.1436 53.313 80.6168 53.2912L91.2701 26.7898C92.9729 22.4612 90.1474 17.6868 85.5346 17.0959L63.3959 14.4216C60.2315 14.0675 57.2147 15.8519 56.0016 18.7964L48.682 36.5637C48.5242 36.9466 48.0859 37.1291 47.703 36.9714C47.3201 36.8136 47.1376 36.3751 47.2953 35.9922L54.6149 18.2253Z" fill="#045EB2"/>
<path d="M68.2208 17.4316C68.3458 17.4438 68.4709 17.4558 68.5958 17.468C70.8463 17.6873 73.097 17.9068 75.3475 18.1262C75.4725 18.1384 75.5978 18.1504 75.7228 18.1626C75.9208 18.1818 76.1011 18.2792 76.2235 18.436C76.3459 18.5926 76.4007 18.7959 76.3759 18.9983C76.351 19.2006 76.2486 19.3849 76.0919 19.5073C75.9352 19.6298 75.7367 19.6805 75.5399 19.6513C75.4157 19.633 75.2913 19.6148 75.1671 19.5964L68.0839 18.5481C67.9399 18.5267 67.8089 18.4477 67.7196 18.3305C67.6303 18.2133 67.5901 18.0672 67.6078 17.9228C67.6255 17.7785 67.7 17.6469 67.8148 17.5547C67.9298 17.4626 68.076 17.4176 68.2208 17.4316Z" fill="#045EB2"/>
<path fill-rule="evenodd" clip-rule="evenodd" d="M76.1763 45.289C73.7965 51.8922 66.2847 56.1722 59.3909 54.8527C52.4971 53.5332 48.8406 47.1157 51.2204 40.5125C53.6002 33.9093 61.112 29.6294 68.0058 30.9488C74.8996 32.2683 78.5561 38.6858 76.1763 45.289ZM73.0568 44.692C71.8518 48.0354 68.89 50.5855 65.5018 51.5842C65.8672 50.9108 66.3314 49.3462 65.9861 48.5661C65.9151 48.4035 64.4001 48.9206 63.4617 49.3121C63.3627 49.1194 63.1173 48.9731 62.5605 48.9534C62.5085 48.9507 62.4599 48.9508 62.4132 48.9508C62.3799 48.9509 62.3475 48.9509 62.3154 48.95C62.3477 48.087 62.4536 47.3437 62.6817 46.8907C62.2064 46.4831 61.9418 46.0661 61.9172 45.9186C61.8694 45.6736 62.1193 45.6097 62.2075 45.6886C62.2115 45.6956 62.2215 45.7037 62.2376 45.713C62.7349 46.1496 63.5915 46.6861 64.9024 47.0053C65.0579 47.0413 65.2195 47.0784 65.3832 47.1097C67.5419 47.5043 69.0858 46.9431 69.012 46.5006C68.9762 46.2946 68.5121 46.2566 67.8178 46.1998C67.04 46.1362 65.9731 46.049 64.8955 45.6754C63.3865 45.1507 63.4801 44.4236 63.7869 44.1657C64.254 43.7758 64.8182 43.9095 65.6257 44.1008C66.0522 44.2019 66.5467 44.319 67.1305 44.3836C68.8197 44.5703 69.9125 44.3076 70.6309 43.8429C71.0105 43.599 71.2469 43.3028 71.2129 43.0914C71.1765 42.9044 70.9267 42.7883 70.0481 42.9243C69.4373 43.0185 68.5327 43.1185 67.4035 43.0327C68.008 41.913 68.9532 37.6178 66.0952 36.3941C66.0851 36.386 66.0751 36.3779 66.0671 36.3639C65.5877 35.1504 64.112 34.3045 62.4115 34.0779C63.8862 33.7166 65.4273 33.6494 66.9289 33.9368C72.0975 34.9261 74.841 39.7413 73.0568 44.692ZM63.7375 50.813C63.6706 50.9986 64.7229 51.5548 65.2213 51.6631C64.3116 51.9066 63.3741 52.0382 62.4341 52.0435C62.4218 51.9021 62.4102 51.7627 62.3998 51.6294C62.0307 51.6643 61.541 51.6202 61.1973 51.5669C60.9396 51.5175 60.7346 51.4659 60.6778 51.2998C60.4056 51.4314 60.0586 51.5683 59.7053 51.6866C59.1378 51.8766 58.5542 52.0189 58.2386 52.015C58.1334 52.0137 58.0579 51.9962 58.0228 51.9588C57.8856 51.8164 57.8428 51.4224 57.8691 50.9503C57.9186 50.0595 58.2136 48.8904 58.5823 48.6079C58.709 48.508 58.8876 48.4801 59.0879 48.4998C58.6486 49.1793 58.4367 51.0261 58.6083 51.2514C58.7759 51.4697 60.7657 50.8448 60.7724 50.6102C60.7944 50.1177 60.9451 49.6996 61.0574 49.4417C61.1555 49.3674 61.4083 49.273 61.5687 49.2416C61.5335 49.3032 61.5023 49.3717 61.4791 49.4542C61.3807 49.7271 61.2476 50.2045 61.2471 50.4217C61.2541 50.69 61.2986 50.8723 61.7614 50.9547C62.2304 51.0382 63.0178 51.0834 63.2042 50.908C63.3905 50.7326 63.5278 49.9021 63.5229 49.628L63.5123 49.4956C63.5104 49.4829 63.5085 49.4701 63.5045 49.4631L63.6667 49.4942C63.8904 49.5929 64.0625 49.7313 63.7375 50.813ZM54.3399 41.1096C53.0139 44.7889 54.1887 48.3933 57.0012 50.4081C57.0798 49.2957 57.2098 47.6574 57.4222 45.4246C57.893 40.4675 58.3651 36.4418 63.4185 36.1239C63.4712 36.1216 63.5082 36.0728 63.4823 36.0368C63.1162 35.4701 62.2421 35.2159 61.2962 35.2149C61.2516 35.2126 61.2318 35.1777 61.2443 35.1429C61.2485 35.1313 61.2527 35.1196 61.269 35.1103C61.5838 34.8664 62.0453 34.7188 62.3542 34.6351C62.2411 34.4623 62.0634 34.3226 61.8968 34.2168C58.5078 35.2151 55.5451 37.7655 54.3399 41.1096ZM74.6166 44.9905C72.535 50.7663 65.9593 54.5129 59.9293 53.3587C53.8994 52.2046 50.6986 46.5868 52.7801 40.811C54.8617 35.0353 61.4374 31.2887 67.4674 32.4428C73.4973 33.5969 76.6981 39.2147 74.6166 44.9905ZM67.7233 39.3939L67.7034 39.3794C67.5685 39.2806 67.4013 39.1581 67.0625 39.0874C66.7068 39.0131 66.4511 39.0573 66.2784 39.1049C66.2215 39.1189 66.1655 39.0585 66.2065 39.0167C66.3947 38.854 66.7138 38.7599 67.1504 38.8435C67.5869 38.927 67.7324 39.1349 67.8069 39.3416C67.8247 39.3823 67.7594 39.4194 67.7233 39.3939ZM67.3851 41.3034C67.2574 41.6576 66.8496 41.89 66.4737 41.818C66.0978 41.7461 65.8993 41.3977 66.027 41.0434C66.1546 40.6891 66.5624 40.4568 66.9383 40.5287C67.3143 40.6007 67.5149 40.9433 67.3851 41.3034ZM61.542 39.856C61.9786 39.9395 62.2088 40.3437 62.0581 40.7618C61.9074 41.18 61.4344 41.4495 60.9978 41.3659C60.5613 41.2824 60.331 40.8782 60.4817 40.4601C60.6264 40.0408 61.1055 39.7724 61.542 39.856ZM61.2156 38.3159C60.7305 38.4031 60.5301 38.5634 60.4012 38.6691C60.3542 38.7098 60.2411 38.682 60.2599 38.6297C60.3436 38.3974 60.6956 38.0861 61.2293 38.0082C61.8319 37.9186 62.1753 38.1706 62.3049 38.3506C62.3369 38.3878 62.2817 38.4331 62.2374 38.4122C62.0258 38.3158 61.7007 38.2288 61.2156 38.3159ZM67.2625 41.0502C67.229 41.1431 67.123 41.2035 67.026 41.1849C66.9289 41.1663 66.8773 41.0758 66.9108 40.9828C66.9443 40.8899 67.0503 40.8295 67.1474 40.8481C67.2444 40.8666 67.296 40.9572 67.2625 41.0502ZM61.9198 40.4621C61.8801 40.5725 61.7577 40.6422 61.6425 40.6201C61.5273 40.5981 61.4678 40.4936 61.5076 40.3832C61.5473 40.2729 61.6697 40.2032 61.7849 40.2252C61.9001 40.2473 61.9596 40.3518 61.9198 40.4621Z" fill="#F05F2B"/>
<path d="M80 80C86.6274 80 92 74.6274 92 68C92 61.3726 86.6274 56 80 56C73.3726 56 68 61.3726 68 68C68 74.6274 73.3726 80 80 80Z" fill="black"/>
<path d="M87 67.0533C87.5523 67.0533 87.9999 67.5011 88 68.0533C88 72.4172 84.4528 75.9498 80.0833 75.9498C78.8745 75.9498 77.7272 75.6789 76.7007 75.1945L76.8943 75.5817C77.1412 76.0757 76.941 76.6764 76.447 76.9232C75.9531 77.17 75.3525 76.9694 75.1055 76.4755L73.772 73.809C73.758 73.781 73.7458 73.7525 73.7346 73.724C73.7295 73.7109 73.7247 73.6978 73.7202 73.6847C73.593 73.3135 73.697 72.9058 73.9731 72.6405C73.9849 72.6292 73.9971 72.6181 74.0095 72.6073C74.0344 72.5857 74.0605 72.5651 74.0879 72.5458C74.1289 72.5168 74.1727 72.4906 74.219 72.4674L76.8857 71.1342C77.3796 70.8872 77.9804 71.0875 78.2275 71.5814C78.4747 72.0754 78.2747 72.676 77.7808 72.923L77.2095 73.2084C78.0596 73.6803 79.0384 73.9498 80.0833 73.9498C83.3537 73.9498 86 71.3071 86 68.0533C86.0001 67.5011 86.4477 67.0533 87 67.0533Z" fill="white"/>
<path d="M83.5637 59.0455C84.0606 58.8049 84.6589 59.0125 84.8999 59.5094L86.2334 62.2596C86.2442 62.2819 86.2537 62.3046 86.2627 62.3273C86.2654 62.3339 86.268 62.3406 86.2705 62.3473C86.2731 62.3542 86.2754 62.3613 86.2778 62.3683C86.2813 62.3784 86.2849 62.3884 86.2881 62.3986C86.2895 62.403 86.2909 62.4075 86.2922 62.412C86.2955 62.4228 86.2987 62.4336 86.3015 62.4445C86.3032 62.4509 86.3046 62.4575 86.3062 62.464C86.3085 62.474 86.3109 62.484 86.313 62.494C86.345 62.6486 86.3389 62.8059 86.2993 62.9537C86.2978 62.9594 86.2963 62.9651 86.2947 62.9708C86.2877 62.9953 86.2796 63.0195 86.2708 63.0433C86.2684 63.0497 86.2662 63.0561 86.2637 63.0624C86.2482 63.1016 86.2303 63.1398 86.21 63.1769C86.2076 63.1811 86.2053 63.1854 86.2029 63.1896C86.1896 63.2129 86.1753 63.2356 86.1602 63.2579C86.1565 63.2633 86.1529 63.2687 86.1492 63.274C86.1345 63.2947 86.119 63.3148 86.1028 63.3343C86.0984 63.3397 86.0939 63.345 86.0894 63.3502C86.0606 63.3834 86.0297 63.415 85.9963 63.4445C85.9935 63.4469 85.9906 63.4493 85.9878 63.4518C85.9401 63.493 85.888 63.5301 85.8315 63.5624C85.829 63.5638 85.8265 63.5651 85.824 63.5665C85.8139 63.5722 85.8038 63.5778 85.7935 63.5831C85.7893 63.5853 85.7852 63.5876 85.781 63.5897L83.1145 64.923C82.6207 65.1699 82.02 64.9698 81.7727 64.4759C81.5255 63.982 81.7251 63.3811 82.219 63.1342L82.8308 62.828C82.8191 62.8225 82.8072 62.8171 82.7957 62.8112C81.9844 62.3933 81.0629 62.1569 80.0833 62.1569C76.7731 62.1569 74.0001 64.7938 74 68.0087C74 68.5609 73.5523 69.0087 73 69.0087C72.4477 69.0087 72 68.5609 72 68.0087C72.0001 63.606 75.7536 60.1569 80.0833 60.1569C81.2374 60.1569 82.3361 60.4042 83.3271 60.8488L83.1003 60.381C82.8594 59.884 83.0669 59.2862 83.5637 59.0455Z" fill="white"/>
</svg>
