<svg width="24" height="24" viewBox="0 0 24 24" fill="none" xmlns="http://www.w3.org/2000/svg">
<path d="M12 2C17.5228 2 22 6.47715 22 12C22 17.5228 17.5228 22 12 22C6.47715 22 2 17.5228 2 12C2 6.47715 6.47715 2 12 2ZM12 3.5C7.30558 3.5 3.5 7.30558 3.5 12C3.5 16.6944 7.30558 20.5 12 20.5C16.6944 20.5 20.5 16.6944 20.5 12C20.5 7.30558 16.6944 3.5 12 3.5ZM9.68848 7.75293C9.96289 7.44283 10.4368 7.41416 10.7471 7.68848C11.057 7.96291 11.0858 8.43689 10.8115 8.74707L8.81934 11H12.75C15.0971 11.0001 16.9999 12.9029 17 15.25C16.9998 15.664 16.6641 15.9999 16.25 16C15.8359 15.9999 15.5002 15.664 15.5 15.25C15.4999 13.7313 14.2687 12.5001 12.75 12.5H9.25977L10.8115 14.2539C11.0858 14.5641 11.057 15.038 10.7471 15.3125C10.4369 15.5869 9.96294 15.5582 9.68848 15.248L7.3623 12.6191C6.79789 11.9808 6.79786 11.0212 7.3623 10.3828L9.68848 7.75293Z" fill="black" fill-opacity="0.84"/>
</svg>
