<svg width="16" height="16" viewBox="0 0 16 16" fill="none" xmlns="http://www.w3.org/2000/svg">
<path d="M8 1.33333C11.68187 1.33333 14.66667 4.3181 14.66667 8C14.66667 11.68187 11.68187 14.66667 8 14.66667C4.3181 14.66667 1.33333 11.68187 1.33333 8C1.33333 4.3181 4.3181 1.33333 8 1.33333ZM8 2.33333C4.87039 2.33333 2.33333 4.87039 2.33333 8C2.33333 11.1296 4.87039 13.66667 8 13.66667C11.1296 13.66667 13.66667 11.1296 13.66667 8C13.66667 4.87039 11.1296 2.33333 8 2.33333ZM6.45899 5.16862C6.64193 4.96189 6.95787 4.94277 7.16473 5.12565C7.37133 5.30861 7.39053 5.62459 7.20767 5.83138L5.87956 7.33333H8.5C10.06473 7.3334 11.33327 8.60193 11.33333 10.16667C11.3332 10.44267 11.1094 10.6666 10.83333 10.66667C10.55727 10.6666 10.33347 10.44267 10.33333 10.16667C10.33327 9.1542 9.51247 8.3334 8.5 8.33333H6.17318L7.20767 9.5026C7.39053 9.7094 7.37133 10.02533 7.16473 10.20833C6.95793 10.39127 6.64196 10.37213 6.45899 10.16533L4.9082 8.41273C4.53193 7.9872 4.53191 7.34747 4.9082 6.92187L6.45899 5.16862Z" fill="black" fill-opacity="0.84"/>
</svg>
