<svg width="128" height="96" viewBox="0 0 128 96" fill="none" xmlns="http://www.w3.org/2000/svg">
<path d="M79.6758 20.666C86.1149 20.6661 91.3349 25.886 91.335 32.3252V53.3381C90.8953 53.2985 90.45 53.2783 90 53.2783C81.8998 53.2783 75.3335 59.8449 75.3335 67.9451C75.3335 70.6052 76.0416 73.0999 77.2798 75.251H48.4092C41.97 75.2509 36.75 70.0308 36.75 63.5916V32.3252C36.7501 25.886 41.97 20.6661 48.4092 20.666H79.6758Z" fill="#AED5C2"/>
<path d="M79.676 19.9162C86.2866 19.7566 92.2449 25.7148 92.0852 32.3254V33.0671C92.0852 34.8616 92.0647 36.6562 92.0239 38.4506C91.9518 41.62 91.8159 44.7894 91.6164 47.9587C91.6118 48.0309 91.5815 48.1002 91.5293 48.1513C91.477 48.2024 91.4074 48.2311 91.3352 48.2312C91.2629 48.2312 91.1933 48.2024 91.1411 48.1513C91.0888 48.1002 91.0585 48.0309 91.0539 47.9587C90.8544 44.7894 90.7186 41.62 90.6465 38.4506C90.6056 36.6562 90.5852 34.8616 90.5852 33.0671V32.3254C90.7274 26.5153 85.486 21.2741 79.676 21.4162H48.4094C42.5993 21.274 37.358 26.5153 37.5002 32.3254V63.5918C37.358 69.4019 42.5993 74.6434 48.4094 74.5012H76.8769C77.1363 75.0194 77.4254 75.5202 77.7422 76.0012H48.4094C41.7987 76.1609 35.8405 70.2024 36.0002 63.5918V32.3254C35.8405 25.7147 41.7987 19.7565 48.4094 19.9162H79.676Z" fill="#11604D"/>
<path d="M76.8215 49.8855C79.7757 49.8855 82.1706 52.2806 82.1707 55.2354V55.5415C80.9993 56.2824 79.9399 57.1844 79.0242 58.2168V55.2354C79.0241 54.0187 78.038 53.0325 76.8215 53.0325H71.1577C69.9413 53.0325 68.9551 54.0187 68.9551 55.2354V60.9002C68.9551 62.1168 69.9413 63.1033 71.1577 63.1033H76.1519C75.8009 64.107 75.5559 65.1604 75.4304 66.2503H71.1577C68.2035 66.2502 65.8086 63.8549 65.8086 60.9002V55.2354C65.8086 52.2807 68.2035 49.8855 71.1577 49.8855H76.8215Z" fill="#247A64"/>
<path d="M55.3147 55.3064C56.0098 55.3064 56.5732 55.87 56.5732 56.5652V59.083C56.5732 59.7782 56.0098 60.3418 55.3147 60.3418H52.7974C52.1023 60.3418 51.5389 59.7782 51.5388 59.083V56.5652C51.5389 55.87 52.1023 55.3064 52.7974 55.3064H55.3147Z" fill="#247A64"/>
<path fill-rule="evenodd" clip-rule="evenodd" d="M56.8879 49.6416C59.8422 49.6416 62.2371 52.037 62.2371 54.9917V60.6565C62.237 63.6112 59.8422 66.0066 56.8879 66.0066H51.2241C48.2699 66.0066 45.875 63.6112 45.875 60.6565V54.9917C45.875 52.037 48.2699 49.6416 51.2241 49.6416H56.8879ZM51.2241 52.7888C50.0077 52.7888 49.0215 53.7751 49.0215 54.9917V60.6565C49.0215 61.8731 50.0077 62.8594 51.2241 62.8594H56.8879C58.1044 62.8594 59.0906 61.8731 59.0906 60.6565V54.9917C59.0906 53.7751 58.1044 52.7888 56.8879 52.7888H51.2241Z" fill="#247A64"/>
<path d="M75.2483 55.5501C75.9434 55.5501 76.5068 56.1139 76.5068 56.8091V59.3267C76.5068 60.0219 75.9434 60.5854 75.2483 60.5855H72.731C72.0359 60.5854 71.4724 60.0219 71.4724 59.3267V56.8091C71.4724 56.1139 72.0359 55.5501 72.731 55.5501H75.2483Z" fill="#247A64"/>
<path d="M55.3147 35.165C56.0098 35.1651 56.5732 35.7286 56.5732 36.4238V38.9414C56.5732 39.6366 56.0098 40.2004 55.3147 40.2004H52.7974C52.1023 40.2004 51.5388 39.6366 51.5388 38.9414V36.4238C51.5388 35.7286 52.1023 35.1651 52.7974 35.165H55.3147Z" fill="#247A64"/>
<path fill-rule="evenodd" clip-rule="evenodd" d="M56.8879 29.5003C59.8422 29.5003 62.2371 31.8956 62.2371 34.8503V40.5151C62.237 43.4699 59.8422 45.8652 56.8879 45.8652H51.2241C48.2699 45.8652 45.875 43.4699 45.875 40.5151V34.8503C45.875 31.8956 48.2699 29.5003 51.2241 29.5003H56.8879ZM51.2241 32.6475C50.0077 32.6475 49.0215 33.6337 49.0215 34.8503V40.5151C49.0215 41.7318 50.0077 42.718 51.2241 42.718H56.8879C58.1044 42.718 59.0905 41.7318 59.0906 40.5151V34.8503C59.0906 33.6337 58.1044 32.6475 56.8879 32.6475H51.2241Z" fill="#247A64"/>
<path d="M96.3538 41.1738C96.414 41.1704 96.4739 41.1906 96.5256 41.2297C96.5774 41.2689 96.6164 41.324 96.6472 41.3818C96.6823 41.4485 96.7161 41.5154 96.748 41.5823C97.0359 42.1843 97.1972 42.7937 97.2324 43.4102C97.2676 44.0267 97.1763 44.6506 96.9587 45.2815C96.9346 45.3515 96.9091 45.4217 96.8818 45.492C96.8578 45.5529 96.825 45.6119 96.7781 45.6567C96.7312 45.7015 96.674 45.7287 96.6138 45.7322C96.5535 45.7356 96.4936 45.7152 96.4419 45.676C96.3902 45.6369 96.3509 45.582 96.3201 45.5242C96.285 45.4575 96.2515 45.3906 96.2195 45.3237C95.9316 44.7216 95.77 44.1121 95.7349 43.4956C95.6997 42.8791 95.7908 42.2554 96.0083 41.6245C96.0325 41.5544 96.0584 41.4841 96.0857 41.4138C96.1097 41.3529 96.1423 41.2938 96.1892 41.249C96.2361 41.2042 96.2935 41.1773 96.3538 41.1738Z" fill="#247A64"/>
<path d="M67.5862 40.2004C68.4551 40.2004 69.1594 40.9049 69.1594 41.7739V42.4033H72.6206C73.4895 42.4033 74.1938 43.1078 74.1938 43.9768C74.1938 44.8459 73.4895 45.5505 72.6206 45.5505H67.9009C67.8478 45.5505 67.7954 45.5479 67.7437 45.5427C67.6919 45.5479 67.6393 45.5505 67.5862 45.5505C66.7173 45.5505 66.0129 44.8458 66.0129 43.9768V41.7739C66.0129 40.9049 66.7173 40.2005 67.5862 40.2004Z" fill="#247A64"/>
<path d="M80.3159 37.2756C81.1848 37.2757 81.8891 37.9801 81.8892 38.8491V43.5698C81.8892 43.6229 81.8865 43.6753 81.8813 43.7271C81.8865 43.7788 81.8892 43.8314 81.8892 43.8845C81.8891 44.7535 81.1848 45.458 80.3159 45.458H78.1133C77.2444 45.458 76.5401 44.7536 76.54 43.8845C76.54 43.0155 77.2444 42.311 78.1133 42.311H78.7427V38.8491C78.7427 37.9801 79.447 37.2756 80.3159 37.2756Z" fill="#247A64"/>
<path d="M75.1379 35.165C76.0068 35.1651 76.7112 35.8695 76.7112 36.7385V38.6267C76.7112 39.4958 76.0068 40.2004 75.1379 40.2004H73.25C72.3811 40.2004 71.6768 39.4958 71.6768 38.6267V36.7385C71.6768 35.8695 72.3811 35.165 73.25 35.165H75.1379Z" fill="#247A64"/>
<path d="M70.1035 29.8149C70.9723 29.815 71.6767 30.5195 71.6768 31.3884C71.6768 32.2575 70.9724 32.9621 70.1035 32.9622H69.1594V36.1091C69.1594 36.9782 68.4551 37.6826 67.5862 37.6826C66.7173 37.6826 66.0129 36.9782 66.0129 36.1091V31.3884C66.013 30.5194 66.7173 29.815 67.5862 29.8149H70.1035Z" fill="#247A64"/>
<path d="M82.0247 15.0283C82.2272 15.0447 82.4296 15.0617 82.6321 15.0786C82.9138 15.1027 83.1923 15.134 83.4722 15.1736C87.8516 15.7648 91.9829 18.4576 94.3354 22.3115C95.7896 24.6568 96.5889 27.4017 96.6294 30.1382C96.655 31.8077 96.6616 33.4783 96.6492 35.1497C96.6456 35.6284 96.6405 36.1073 96.6338 36.5862C96.6327 36.6585 96.6062 36.7293 96.5566 36.783C96.5071 36.8366 96.439 36.8689 96.3669 36.8726C96.2949 36.8763 96.224 36.851 96.1692 36.8027C96.1144 36.7544 96.0807 36.6868 96.0723 36.615C96.0165 36.1393 95.9623 35.6634 95.9097 35.1875C95.726 33.5262 95.5612 31.8637 95.4155 30.2004C95.1931 27.6745 94.379 25.2331 93.0591 23.1001C90.9124 19.6087 87.4036 16.9651 83.3264 15.8999C83.0656 15.8311 82.8048 15.7684 82.5391 15.7119C82.3403 15.6698 82.1413 15.6276 81.9426 15.585C81.872 15.5698 81.808 15.5298 81.7651 15.4707C81.7222 15.4116 81.7039 15.3385 81.7144 15.2671C81.7249 15.1957 81.7634 15.1309 81.8215 15.0867C81.8796 15.0424 81.9526 15.0225 82.0247 15.0283Z" fill="#247A64"/>
<path d="M80.8018 29.8149C81.6706 29.815 82.375 30.5194 82.375 31.3884V33.5916C82.375 34.4606 81.6706 35.165 80.8018 35.165C79.9329 35.165 79.2286 34.4606 79.2285 33.5916V32.9622H75.7673C74.8984 32.9622 74.1938 32.2575 74.1938 31.3884C74.1939 30.5194 74.8985 29.8149 75.7673 29.8149H80.8018Z" fill="#247A64"/>
<path d="M90 80C96.6274 80 102 74.6274 102 68C102 61.3726 96.6274 56 90 56C83.3726 56 78 61.3726 78 68C78 74.6274 83.3726 80 90 80Z" fill="black"/>
<path d="M90 61.333C90.5522 61.333 91 61.7807 91 62.333V71.5742L94.705 68.5837C95.1348 68.2369 95.7644 68.3042 96.1113 68.7339C96.4581 69.1636 96.3911 69.7933 95.9614 70.1401L90.6433 74.4319C90.5873 74.479 90.5271 74.5192 90.4638 74.5522C90.4583 74.5551 90.4528 74.558 90.4472 74.5608C90.4383 74.5652 90.4294 74.5696 90.4204 74.5737C90.411 74.5781 90.4015 74.5821 90.3921 74.5862C90.3885 74.5877 90.3849 74.5893 90.3813 74.5908C90.3715 74.5949 90.3616 74.5986 90.3518 74.6023C90.3448 74.6049 90.3378 74.6076 90.3308 74.6101C90.3214 74.6134 90.3119 74.6164 90.3025 74.6194C90.298 74.6208 90.2935 74.6222 90.289 74.6235C90.2794 74.6264 90.2699 74.6292 90.2602 74.6318C90.2527 74.6339 90.2451 74.6358 90.2375 74.6377C90.2297 74.6396 90.2219 74.6414 90.2141 74.6431C90.2072 74.6446 90.2004 74.6461 90.1936 74.6475C90.1676 74.6526 90.1414 74.6566 90.1152 74.6597C90.1089 74.6604 90.1027 74.661 90.0964 74.6616C90.0883 74.6624 90.0801 74.663 90.072 74.6636C90.0636 74.6642 90.0552 74.6646 90.0468 74.665C90.0398 74.6654 90.0327 74.6656 90.0256 74.6658C90.017 74.666 90.0084 74.6663 89.9997 74.6663C89.9911 74.6663 89.9825 74.666 89.9738 74.6658C89.9667 74.6656 89.9595 74.6654 89.9524 74.665C89.9442 74.6646 89.9361 74.6642 89.9279 74.6636C89.9196 74.663 89.9113 74.6624 89.903 74.6616C89.897 74.661 89.891 74.6604 89.885 74.6597C89.8583 74.6566 89.8316 74.6525 89.8051 74.6472C89.7989 74.646 89.7928 74.6447 89.7866 74.6433C89.7784 74.6415 89.7701 74.6397 89.7619 74.6377C89.7547 74.6359 89.7474 74.634 89.7402 74.6321C89.7302 74.6294 89.7202 74.6266 89.7102 74.6235C89.706 74.6223 89.7019 74.6209 89.6977 74.6196C89.6875 74.6164 89.6773 74.613 89.6672 74.6094C89.6609 74.6072 89.6547 74.6049 89.6484 74.6025C89.6392 74.5991 89.63 74.5955 89.6208 74.5918C89.6146 74.5893 89.6084 74.5866 89.6023 74.584C89.5947 74.5807 89.5871 74.5775 89.5796 74.574C89.5766 74.5726 89.5737 74.5714 89.5708 74.5701L89.5415 74.5554C89.5401 74.5547 89.5389 74.5539 89.5376 74.5532C89.4739 74.5201 89.4132 74.4798 89.3569 74.4324L84.0383 70.1401C83.6086 69.7933 83.5416 69.1636 83.8884 68.7339C84.2353 68.3042 84.8649 68.2369 85.2946 68.5837L89 71.5742V62.333C89 61.7807 89.4477 61.333 90 61.333Z" fill="white"/>
</svg>
