<svg width="16" height="16" viewBox="0 0 16 16" fill="none" xmlns="http://www.w3.org/2000/svg">
<g clip-path="url(#clip0_13576_193236)">
<path d="M8 0.5C12.0486 0.5 15.3472 3.70798 15.4941 7.7207C14.4916 6.66158 13.0734 6 11.5 6C8.46243 6 6 8.46243 6 11.5C6 13.0734 6.66158 14.4916 7.7207 15.4941C3.70798 15.3472 0.5 12.0486 0.5 8C0.5 3.85786 3.85786 0.5 8 0.5Z" fill="#1074CC"/>
<path d="M8 0C12.4183 0 16 3.58172 16 8C16 8.11041 15.9971 8.22027 15.9927 8.32959C15.6994 7.91474 15.3508 7.54219 14.9565 7.22314C14.57 3.72278 11.6034 1 8 1C4.13401 1 1 4.13401 1 8C1 11.6034 3.72278 14.57 7.22314 14.9565C7.54219 15.3508 7.91474 15.6994 8.32959 15.9927C8.22027 15.9971 8.11041 16 8 16C3.58172 16 0 12.4183 0 8C0 3.58172 3.58172 0 8 0Z" fill="#045EB2"/>
<path d="M6.19509 12.9534C6.25317 13.1659 6.32392 13.3731 6.40602 13.5745C6.26286 13.6128 6.11387 13.6417 5.95827 13.6507C5.88398 13.6539 5.80874 13.6253 5.75026 13.5755C5.69195 13.5255 5.65471 13.4577 5.64626 13.3841C5.63788 13.3103 5.65867 13.2355 5.70436 13.1736C5.75015 13.1119 5.81729 13.0681 5.8904 13.0545C5.99123 13.034 6.09339 12.9979 6.19509 12.9534ZM8.99489 2.25322C9.06954 2.24972 9.14521 2.27762 9.20388 2.32744C9.26243 2.37748 9.3 2.44619 9.30837 2.52031C9.31657 2.59451 9.29493 2.66951 9.2488 2.73125C9.20251 2.79294 9.13504 2.8369 9.0613 2.8499C8.86653 2.88506 8.67441 2.93566 8.48708 2.99932C7.76993 3.24388 7.12706 3.66928 6.56325 4.16875C6.53677 4.19223 6.51035 4.21618 6.48415 4.24004C5.75293 4.90761 5.18555 5.73854 4.74831 6.61699C4.72975 6.65435 4.7117 6.6922 4.69362 6.72979C4.53084 7.06884 4.38639 7.41906 4.26833 7.77715C4.32585 7.831 4.38316 7.88549 4.44167 7.93828C5.04813 8.48371 5.72219 8.95815 6.41677 9.39776C6.2598 9.77686 6.14451 10.1773 6.07546 10.5936C5.32635 10.1101 4.62895 9.54594 3.99391 8.91094C3.95881 9.14234 3.93656 9.37565 3.92946 9.60967C3.92862 9.63881 3.9275 9.66803 3.92702 9.69707C3.91588 10.3849 4.00756 11.0828 4.28786 11.7147C4.36693 11.8925 4.46128 12.0644 4.57106 12.2259C4.6133 12.2873 4.62926 12.3661 4.61794 12.4422C4.60643 12.5183 4.56832 12.5859 4.51003 12.6321C4.45164 12.6783 4.37685 12.7004 4.30007 12.6941C4.22348 12.6877 4.15095 12.6536 4.10085 12.5984C3.94665 12.4267 3.80615 12.2414 3.68141 12.0462C3.23903 11.354 2.9933 10.542 2.93581 9.72832C2.93335 9.69376 2.93125 9.65854 2.92946 9.62383C2.89927 9.02506 2.9477 8.42542 3.06813 7.8416C2.72424 7.37005 2.42432 6.85446 2.24684 6.26445C2.17802 6.02718 2.13183 5.77553 2.136 5.51299C2.1381 5.43802 2.17103 5.36466 2.22536 5.30987C2.27983 5.25518 2.35124 5.22306 2.42604 5.22051C2.50091 5.21802 2.57406 5.24572 2.6321 5.29668C2.68997 5.34771 2.72849 5.41833 2.73561 5.49297C2.75501 5.67209 2.81227 5.85633 2.89138 6.03496C3.01237 6.30377 3.17608 6.55976 3.36403 6.80401C3.43752 6.60391 3.51947 6.40683 3.61013 6.21416C3.6308 6.17032 3.65204 6.1267 3.6736 6.0833C4.18385 5.05846 4.94071 4.16595 5.8445 3.471C5.87699 3.44606 5.91021 3.42155 5.94313 3.39727C6.64439 2.88023 7.4577 2.50223 8.31569 2.33672C8.53994 2.29359 8.76725 2.26524 8.99489 2.25322ZM11.7571 3.84405C11.8305 3.83749 11.9044 3.86031 11.9651 3.90703C12.0256 3.95385 12.0685 4.02128 12.0808 4.09405C12.1142 4.30233 12.1294 4.51046 12.1336 4.7166C12.1405 5.16048 12.1 5.59774 12.0242 6.02569C11.8517 6.00938 11.677 6.0003 11.5003 6.00029C11.3585 6.00029 11.2179 6.00685 11.0789 6.01738C11.2361 5.57586 11.3706 5.12887 11.4412 4.67559C11.468 4.49892 11.4843 4.3217 11.4832 4.14824C11.4822 4.07436 11.5121 4.00064 11.5633 3.94365C11.6146 3.88664 11.6835 3.85073 11.7571 3.84405Z" fill="#A1D0F7"/>
<path d="M16 11.5C16 13.9853 13.9853 16 11.5 16C9.01472 16 7 13.9853 7 11.5C7 9.01472 9.01472 7 11.5 7C13.9853 7 16 9.01472 16 11.5Z" fill="black"/>
<path d="M8.5752 14.9189C8.60703 14.9463 8.58764 14.9995 8.5459 15C8.52106 15 8.50007 14.9799 8.5 14.9551V14.9531C8.5 14.9145 8.54585 14.8938 8.5752 14.9189ZM11.5 8C12.6046 8 13.5 8.89543 13.5 10V11H14C14.2761 11 14.5 11.2239 14.5 11.5V13.1641C14.4999 13.2548 14.4756 13.3451 14.4258 13.4209C13.8001 14.372 12.7235 15 11.5 15C10.2765 15 9.19986 14.372 8.57422 13.4209C8.52437 13.3451 8.50009 13.2548 8.5 13.1641V11.5C8.5 11.2239 8.72386 11 9 11H9.5V10C9.5 8.89543 10.3954 8 11.5 8ZM14.4248 14.9189C14.4542 14.8938 14.5 14.9145 14.5 14.9531V14.9551C14.4999 14.9797 14.4797 14.9997 14.4551 15C14.413 14.9999 14.3928 14.9464 14.4248 14.9189ZM11.5 12C11.2239 12 11 12.2239 11 12.5V13.5C11 13.7761 11.2239 14 11.5 14C11.7761 14 12 13.7761 12 13.5V12.5C12 12.2239 11.7761 12 11.5 12ZM11.5 9C10.9477 9 10.5 9.44772 10.5 10V11H12.5V10C12.5 9.44772 12.0523 9 11.5 9Z" fill="white"/>
</g>
<defs>
<clipPath id="clip0_13576_193236">
<rect width="16" height="16" fill="white"/>
</clipPath>
</defs>
</svg>
