<svg fill="none" viewBox="0 0 24 24" xmlns="http://www.w3.org/2000/svg">
  <path fill="#4397e0" d="M11.265 3.574c.191-.765 1.279-.765 1.47 0l.877 3.506c.407 1.63 1.679 2.901 3.308 3.308l3.506.877c.765.191.765 1.279 0 1.47l-3.506.877c-1.63.407-2.901 1.679-3.308 3.308l-.877 3.506c-.191.765-1.279.765-1.47 0l-.877-3.506c-.407-1.63-1.679-2.901-3.308-3.308l-3.506-.877c-.765-.191-.765-1.279 0-1.47l3.506-.877c1.63-.407 2.901-1.679 3.308-3.308z"/>
  <path fill="#045eb2" fill-rule="evenodd" d="M10.537 3.392c.381-1.523 2.545-1.523 2.926 0l.876 3.506c.34 1.36 1.402 2.423 2.763 2.763l3.506.876c1.523.381 1.523 2.545 0 2.926l-3.506.876c-1.36.34-2.423 1.402-2.763 2.763l-.876 3.506c-.381 1.522-2.545 1.522-2.926 0l-.876-3.506c-.34-1.36-1.402-2.423-2.763-2.763l-3.506-.876c-1.523-.381-1.523-2.545 0-2.926l3.506-.876c1.36-.34 2.423-1.402 2.763-2.763zm1.455.364-.876 3.506c-.474 1.897-1.957 3.38-3.854 3.854l-3.506.876-.006.001v.013l.006.002 3.506.876c1.897.474 3.38 1.957 3.854 3.854l.876 3.506.001.005h.013l.002-.005.876-3.506c.474-1.897 1.957-3.38 3.854-3.854l3.506-.876.005-.002.001-.006-.001-.007h-.005l-3.506-.877c-1.897-.474-3.38-1.957-3.854-3.854l-.876-3.506-.002-.006h-.013zm7.263-2.065c.064-.255.426-.255.49 0l.292 1.17c.136.542.56.966 1.103 1.102l1.169.292c.255.064.255.426 0 .49l-1.17.292c-.542.136-.966.56-1.102 1.103l-.292 1.169c-.064.255-.426.255-.49 0l-.292-1.17c-.136-.542-.56-.966-1.103-1.102l-1.169-.292c-.255-.064-.255-.426 0-.49l1.17-.292c.542-.136.966-.56 1.102-1.103z" clip-rule="evenodd"/>
  <path fill="#a1d0f7" d="M12 3.685c.113 0 .223.045.306.126.083.08.132.188.143.301.022.226.039.44.049.667.097 1.97-.303 4.253-1.92 5.846-1.615 1.594-3.89 1.968-5.857 1.861-.228-.011-.44-.03-.666-.052-.109-.012-.213-.06-.29-.14-.077-.079-.12-.184-.12-.293s.043-.213.12-.293.181-.127.29-.139c.214-.023.414-.049.626-.078 1.853-.257 3.633-.796 4.807-1.971 1.19-1.158 1.738-2.932 1.988-4.783.028-.21.053-.41.075-.625.011-.113.06-.221.143-.301s.193-.126.306-.126"/>
</svg>
