<svg width="24" height="24" viewBox="0 0 24 24" fill="none" xmlns="http://www.w3.org/2000/svg">
<path d="M10.6306 5.08123C10.7275 4.69374 11.0512 4.5 11.375 4.5C11.6988 4.5 12.0226 4.69374 12.1194 5.08123L12.5488 6.7986C13.1215 9.08963 14.9104 10.8785 17.2014 11.4512L18.9188 11.8806C19.3089 11.9781 19.5027 12.3057 19.5 12.6317C19.4973 12.9532 19.3036 13.2732 18.9188 13.3694L17.2014 13.7988C14.9104 14.3715 13.1215 16.1604 12.5488 18.4514L12.1194 20.1688C12.0226 20.5563 11.6988 20.75 11.375 20.75C11.0512 20.75 10.7275 20.5563 10.6306 20.1688L10.2012 18.4514C9.62849 16.1604 7.83965 14.3715 5.54862 13.7988L3.83125 13.3694C3.44644 13.2732 3.25268 12.9532 3.25003 12.6317C3.24734 12.3057 3.4411 11.9781 3.83125 11.8806L5.54862 11.4512C7.83965 10.8785 9.62849 9.08963 10.2012 6.7986L10.6306 5.08123Z" fill="#75B6EB"/>
<path d="M11.5294 3.25586C12.2522 3.3119 12.989 3.76067 13.2774 4.59375L13.3321 4.77832L13.7618 6.49512C14.2226 8.33829 15.6618 9.77749 17.5049 10.2383L19.2217 10.668C20.2439 10.9235 20.7567 11.816 20.7501 12.6416C20.7433 13.458 20.2287 14.3303 19.2217 14.582L17.5049 15.0117C15.6618 15.4725 14.2226 16.9117 13.7618 18.7549L13.3321 20.4717C13.0784 21.4863 12.1962 22 11.3751 22C10.554 22 9.6717 21.4863 9.41803 20.4717L8.98835 18.7549C8.52755 16.9117 7.08836 15.4725 5.24518 15.0117L3.52838 14.582C2.52148 14.3303 2.00679 13.4581 2.00006 12.6416C1.99342 11.8159 2.50625 10.9235 3.52838 10.668L5.24518 10.2383C7.08836 9.77749 8.52755 8.33829 8.98835 6.49512L9.41803 4.77832L9.47272 4.59375C9.78166 3.70125 10.6053 3.25 11.3751 3.25L11.5294 3.25586ZM11.3751 4.5C11.0514 4.5 10.7279 4.69372 10.6309 5.08105L10.2012 6.79883L10.1436 7.01172C9.51584 9.20002 7.76823 10.8962 5.54889 11.4512L3.83112 11.8809C3.44112 11.9785 3.24738 12.3059 3.25006 12.6318C3.25277 12.9533 3.44651 13.2729 3.83112 13.3691L5.54889 13.7988C7.83973 14.3716 9.62843 16.1603 10.2012 18.4512L10.6309 20.1689C10.7157 20.5078 10.9739 20.6988 11.254 20.7412L11.3751 20.75C11.6585 20.75 11.9421 20.6016 12.0733 20.3047L12.1192 20.1689L12.5489 18.4512C13.1038 16.2318 14.8 14.4842 16.9883 13.8564L17.2012 13.7988L18.919 13.3691C19.2555 13.2849 19.4461 13.0298 19.4903 12.752L19.5001 12.6318C19.5024 12.3466 19.3542 12.0602 19.0557 11.9277L18.919 11.8809L17.2012 11.4512C14.9819 10.8962 13.2343 9.20002 12.6065 7.01172L12.5489 6.79883L12.1192 5.08105C12.0223 4.69372 11.6988 4.5 11.3751 4.5Z" fill="#045EB2"/>
<path d="M18.6197 2.1993C18.6862 1.93357 19.0638 1.93357 19.1303 2.1993L19.4346 3.41672C19.576 3.98234 20.0177 4.42398 20.5833 4.56539L21.8007 4.86974C22.0664 4.93617 22.0664 5.31383 21.8007 5.38026L20.5833 5.68461C20.0177 5.82602 19.576 6.26766 19.4346 6.83328L19.1303 8.0507C19.0638 8.31643 18.6862 8.31643 18.6197 8.0507L18.3154 6.83328C18.174 6.26766 17.7323 5.82602 17.1667 5.68461L15.9493 5.38026C15.6836 5.31383 15.6836 4.93617 15.9493 4.86974L17.1667 4.56539C17.7323 4.42398 18.174 3.98234 18.3154 3.41672L18.6197 2.1993Z" fill="#045EB2"/>
</svg>
