<svg width="12" height="12" viewBox="0 0 12 12" fill="none" xmlns="http://www.w3.org/2000/svg">
<g clip-path="url(#clip0_11741_75200)">
<path d="M10.499 6.14551C10.6943 5.95041 11.0108 5.9503 11.2061 6.14551L11.8574 6.79688C12.0526 6.99208 12.0525 7.30863 11.8574 7.50391L7.83594 11.5254C7.7811 11.5802 7.71418 11.6219 7.64062 11.6465L6.66309 11.9727C6.27221 12.1029 5.89998 11.7307 6.03027 11.3398L6.35645 10.3623C6.381 10.2888 6.42271 10.2218 6.47754 10.167L10.499 6.14551Z" fill="black"/>
<path fill-rule="evenodd" clip-rule="evenodd" d="M7.94727 0C8.33151 0.000194095 8.70091 0.153127 8.97266 0.424805L10.5723 2.02441C10.844 2.29627 10.997 2.66544 10.9971 3.0498V4.62109C10.9971 4.82756 10.8211 4.98632 10.6172 5.01855C10.3382 5.06245 9.99743 4.87997 9.99707 4.59766V3.0498C9.99702 2.93065 9.94941 2.81577 9.86523 2.73145L8.75293 1.61914V1.74121C8.75288 2.5417 8.1041 3.19094 7.30371 3.19141H3.84082C3.04015 3.19127 2.39067 2.5419 2.39062 1.74121V1H1.45117C1.2027 1 1.00108 1.20175 1.00098 1.4502V9.5459C1.00098 9.79443 1.20264 9.99609 1.45117 9.99609H2.39062V6.22363C2.39066 5.42293 3.04014 4.77357 3.84082 4.77344H7.30371C8.10411 4.7739 8.75289 5.42314 8.75293 6.22363V6.26953C8.75291 6.40211 8.7002 6.5293 8.60645 6.62305C8.29148 6.93796 7.75299 6.71492 7.75293 6.26953V6.22363C7.75289 5.97542 7.55182 5.7739 7.30371 5.77344H3.84082C3.59243 5.77357 3.39066 5.97522 3.39062 6.22363V9.99609H4.73047C5.07182 9.99639 5.31255 10.3315 5.2041 10.6553C5.13578 10.8588 4.94511 10.9959 4.73047 10.9961H1.45117C0.650358 10.9961 0 10.3467 0 9.5459V1.4502C9.89946e-05 0.649466 0.650421 0 1.45117 0H7.94727ZM3.39062 1.74121C3.39067 1.98962 3.59243 2.19127 3.84082 2.19141H7.30371C7.55182 2.19094 7.75288 1.98941 7.75293 1.74121V1H3.39062V1.74121Z" fill="black"/>
</g>
<defs>
<clipPath id="clip0_11741_75200">
<rect width="12" height="12" fill="white"/>
</clipPath>
</defs>
</svg>
