<svg fill="none" viewBox="0 0 24 24" xmlns="http://www.w3.org/2000/svg">
  <path fill="#000" d="M17 3c2.761 0 5 2.239 5 5v8c0 2.761-2.239 5-5 5H7c-2.761 0-5-2.239-5-5V8c0-2.761 2.239-5 5-5zM3.5 16c0 1.933 1.567 3.5 3.5 3.5h10c1.933 0 3.5-1.567 3.5-3.5v-.5h-17zM7 4.5C5.067 4.5 3.5 6.067 3.5 8v6h17V8c0-1.933-1.567-3.5-3.5-3.5zm3.063 3.362c1.072-1.062 2.8-1.062 3.872 0l2.843 2.818c.294.291.296.766.004 1.06-.291.294-.766.297-1.06.005L12.88 8.928c-.487-.483-1.273-.483-1.76 0l-2.842 2.817c-.294.292-.77.29-1.061-.005-.291-.294-.29-.769.005-1.06z"/>
</svg>
