<svg width="128" height="96" viewBox="0 0 128 96" fill="none" xmlns="http://www.w3.org/2000/svg">
<path d="M72.6267 55.3998L67.9582 57.0046L59.1106 45.0093L83.983 33.6385L90.2371 34.6611L91.013 35.7786L89.623 44.9749L88.3807 46.1576L82.6125 45.3765L81.594 46.122L81.0796 49.0441L80.5159 49.9648L79.6648 50.1836L74.3248 49.5233L73.2851 50.126L72.6267 55.3998Z" fill="#4397E0"/>
<path d="M62.3293 43.6726C62.1592 43.2949 62.3275 42.8507 62.7052 42.6806L83.6569 33.2455C84.0563 33.0656 84.4998 33.0074 84.9322 33.078L90.1112 33.9233C91.3271 34.1219 92.152 35.2685 91.9536 36.4844L90.5407 45.1379C90.3421 46.3537 89.1952 47.1787 87.9794 46.9802L83.3211 46.2196C82.9228 46.1546 82.5472 46.4247 82.4822 46.823L82.0745 49.3197C81.8891 50.4549 80.8185 51.225 79.6834 51.0397L76.8558 50.578C76.447 50.5113 76.1698 50.1257 76.2365 49.7169C76.3032 49.3081 76.6887 49.0309 77.0975 49.0976L79.9251 49.5593C80.2426 49.6111 80.5422 49.3956 80.5941 49.078L81.0018 46.5813C81.2003 45.3655 82.3467 44.5408 83.5626 44.7392L88.2211 45.4998C88.6194 45.5648 88.9952 45.2944 89.0603 44.8962L90.4732 36.2427C90.5381 35.8444 90.2678 35.4688 89.8695 35.4037L84.6905 34.5584C84.5489 34.5353 84.4035 34.5542 84.2727 34.6131L63.321 44.0485C62.9434 44.2184 62.4994 44.0501 62.3293 43.6726Z" fill="#045EB2"/>
<path d="M67.6429 45.333C67.6125 45.2647 67.6106 45.1866 67.637 45.1158C67.6634 45.0451 67.7161 44.9875 67.7826 44.9531C68.1082 44.7846 68.4344 44.6168 68.7607 44.4498C72.9032 42.3301 77.0976 40.3267 81.3434 38.4394C83.1182 37.6505 84.9319 36.9489 86.7844 36.3348C87.1335 36.219 87.4841 36.1062 87.836 35.9966C87.9152 35.9721 88.002 35.973 88.0798 36.0048C88.1577 36.0366 88.22 36.0962 88.2535 36.1714C88.2869 36.2467 88.2893 36.3327 88.2608 36.4118C88.2322 36.491 88.1747 36.5561 88.1034 36.5984C87.7863 36.7862 87.4679 36.971 87.1481 37.1526C85.4509 38.1163 83.7147 38.9928 81.9398 39.7818C77.694 41.6691 73.3964 43.4399 69.0473 45.0947C68.7046 45.2251 68.3615 45.3549 68.0182 45.4838C67.9481 45.5101 67.8699 45.5106 67.7997 45.4828C67.7296 45.4549 67.6732 45.4012 67.6429 45.333Z" fill="#045EB2"/>
<path d="M96.7481 48.717L92.5978 57.1241L91.1969 57.4985L86.1668 55.2504L84.9543 55.616L84.0289 57.4542L82.9218 58.9539L78.6257 60.4962L70.3971 58.3964L68.051 47.6812L90.4551 44.2874L96.5822 47.0955L96.7481 48.717Z" fill="#9F6EB8"/>
<path d="M90.3666 43.6757C90.8002 43.6135 91.2427 43.6805 91.6386 43.8681L96.3808 46.1152C97.494 46.6428 97.9691 47.9731 97.4415 49.0864L93.6867 57.0097C93.1591 58.123 91.8285 58.598 90.7152 58.0705L86.4498 56.049C86.0852 55.8764 85.6495 56.0318 85.4767 56.3964L84.3932 58.6826C83.9006 59.7219 82.6587 60.1654 81.6193 59.6728L79.0302 58.446C78.6559 58.2686 78.4964 57.8212 78.6737 57.447C78.8511 57.0727 79.2984 56.9129 79.6727 57.0903L82.2616 58.3173C82.5524 58.4551 82.8999 58.331 83.0377 58.0402L84.1212 55.7541C84.6488 54.6409 85.9789 54.1661 87.0922 54.6935L91.3576 56.7148C91.7223 56.8876 92.1583 56.7321 92.3312 56.3674L96.0861 48.444C96.2588 48.0794 96.1031 47.6435 95.7384 47.4706L90.9962 45.2236C90.8666 45.1621 90.7215 45.14 90.5795 45.1603L67.8341 48.4223C67.4242 48.481 67.0441 48.1964 66.9852 47.7866C66.9265 47.3766 67.2113 46.9963 67.6212 46.9374L90.3666 43.6757Z" fill="#682A7A"/>
<path d="M31.7423 42.4496C32.7394 41.4443 34.6768 42.8728 33.6903 44.2844C31.7299 47.0893 35.9369 52.0713 41.2099 53.8686C46.4828 55.6659 49.295 54.2723 49.3341 52.1928C49.3443 51.651 49.4869 51.0088 49.3341 50.5539C49.2518 50.3089 49.4636 50.0825 49.6852 50.2155C50.8587 50.9197 52.1394 52.7901 51.8832 53.6025C51.5173 54.7628 50.8302 55.7679 49.7785 56.4921C47.1978 58.2691 40.0279 58.0068 34.5543 53.319C29.0808 48.6312 29.9718 44.2349 31.7423 42.4496Z" fill="#682A7A"/>
<path d="M93.3605 47.3188C93.4433 47.3168 93.5265 47.3414 93.5927 47.3933C93.6589 47.4451 93.7026 47.5195 93.7142 47.601C93.7258 47.6824 93.7048 47.7657 93.6559 47.8339C93.6068 47.9023 93.5334 47.9494 93.4533 47.9706C93.097 48.0647 92.7404 48.1557 92.3832 48.2431C90.4874 48.7068 88.5775 49.0757 86.6547 49.35C82.055 50.0063 77.4373 50.5367 72.8017 50.9411C72.4365 50.973 72.0709 51.0041 71.7055 51.0344C71.6309 51.0405 71.5554 51.0198 71.4955 50.9738C71.4356 50.9278 71.3959 50.8605 71.3854 50.7866C71.3749 50.7126 71.3942 50.637 71.4389 50.5761C71.4836 50.5152 71.5503 50.4744 71.6237 50.4594C71.9829 50.3863 72.3423 50.3139 72.7018 50.2424C77.2657 49.3343 81.8476 48.552 86.4474 47.8957C88.3702 47.6214 90.3067 47.4419 92.2565 47.3569C92.6239 47.3409 92.9921 47.3281 93.3605 47.3188Z" fill="#682A7A"/>
<path d="M30.0526 55.7586C30.1382 54.6744 30.3943 53.6011 30.8243 52.5926C30.9053 52.403 30.9926 52.2148 31.0857 52.0314C31.1223 51.96 31.178 51.8969 31.2502 51.8587C31.3222 51.8205 31.404 51.8099 31.4799 51.8301C31.5559 51.8503 31.6215 51.9001 31.6651 51.969C31.7087 52.0379 31.7256 52.1203 31.722 52.2004C31.7136 52.3989 31.7049 52.5979 31.6962 52.7948C31.6504 53.8411 31.5974 54.8573 31.5167 55.8743C31.3306 58.3065 31.385 60.7671 31.7948 63.2179C31.8275 63.4107 31.8627 63.6041 31.9004 63.7965C31.9146 63.8684 31.9055 63.9446 31.8698 64.0099C31.8341 64.0751 31.7754 64.1238 31.7059 64.1456C31.6363 64.1675 31.5604 64.161 31.4938 64.1278C31.4272 64.0947 31.3759 64.0374 31.3464 63.9702C31.2654 63.7845 31.188 63.5959 31.1146 63.4064C30.1849 60.9931 29.8515 58.3501 30.0526 55.7586Z" fill="#F5A031"/>
<path d="M35.6611 49.8469C38.7267 39.9321 49.2494 34.3795 59.1643 37.4451C66.9001 39.837 71.98 46.7685 72.3833 54.4089L94.4069 61.1233C94.6851 61.2081 94.9323 61.3729 95.1174 61.5972L98.4475 65.6328C98.9679 66.2636 98.8785 67.1968 98.2478 67.7173L91.4853 73.2976C90.8545 73.8181 89.9211 73.7286 89.4006 73.0979L86.4062 69.4692C85.8857 68.8386 84.9525 68.7491 84.3217 69.2695L82.1298 71.0781C81.5622 71.5465 80.7221 71.4661 80.2536 70.8984L77.2732 67.2866C76.7526 66.656 75.8194 66.5665 75.1887 67.0869L71.4953 70.1348C71.1137 70.4496 70.5999 70.5532 70.1262 70.4106L67.6984 69.6799C63.0635 75.8154 54.92 78.7062 47.1496 76.3037C37.4168 73.2944 31.8877 63.0994 34.5876 53.3474C36.8985 55.3165 39.5086 56.4994 41.947 57.0754C42.6292 58.4091 43.8269 59.4771 45.3703 59.9543C48.4085 60.8937 51.6342 59.1886 52.5737 56.1504C53.5131 53.1121 51.8128 49.8835 48.7746 48.9441C45.7364 48.0048 42.5107 49.7101 41.5712 52.7483C41.4518 53.1347 41.3749 53.5242 41.3381 53.9116C41.2955 53.8974 41.2524 53.8835 41.2094 53.8689C38.9979 53.1151 36.9743 51.8007 35.5141 50.322L35.6611 49.8469Z" fill="#FAB341"/>
<path d="M34.9447 49.6255C38.1328 39.315 49.0755 33.5408 59.3861 36.7288C67.2535 39.1613 72.4768 46.1083 73.0966 53.8425L94.6259 60.406C95.0451 60.5338 95.4173 60.7824 95.6959 61.1201L99.0263 65.1555C99.8102 66.1057 99.6756 67.5117 98.7255 68.2959L91.9628 73.8762C91.0125 74.6602 89.6065 74.5256 88.8224 73.5754L85.828 69.9468C85.5711 69.6355 85.1104 69.5915 84.7992 69.8481L82.6073 71.6567C81.7203 72.3887 80.4076 72.2633 79.6754 71.3762L76.695 67.7642C76.4381 67.453 75.9774 67.409 75.6661 67.6658L71.973 70.7134C71.3982 71.1877 70.6241 71.3437 69.9103 71.1289L67.974 70.5461C63.1059 76.64 54.8328 79.4644 46.9284 77.0205C36.6892 73.8546 30.9236 63.0411 33.9662 52.7937C34.1536 52.9683 34.3493 53.144 34.5543 53.3196C34.7753 53.5089 34.9996 53.6902 35.2257 53.8652C32.8391 63.1307 38.1327 72.7308 47.3712 75.5874C54.8303 77.8937 62.6495 75.1195 67.1002 69.228L67.4149 68.8115L70.3424 69.6926C70.5762 69.7629 70.8299 69.7118 71.0182 69.5564L74.7116 66.5088C75.6618 65.7247 77.0678 65.8594 77.8519 66.8096L80.8324 70.4214L80.8727 70.4653C81.0827 70.6728 81.42 70.6918 81.6527 70.4998L83.8446 68.6912C84.7949 67.9071 86.201 68.0421 86.985 68.9922L89.9794 72.6208C90.2363 72.932 90.6969 72.9763 91.0082 72.7195L97.7706 67.1389C98.0818 66.8821 98.126 66.4216 97.8693 66.1104L94.5389 62.075C94.4475 61.9642 94.3255 61.8826 94.1886 61.8408L71.6622 54.9734L71.6347 54.4487C71.2474 47.1121 66.3689 40.458 58.943 38.1619C49.4239 35.2186 39.3211 40.5495 36.3778 50.0686L36.121 50.8984C35.6817 50.5069 35.2812 50.0989 34.9269 49.6829L34.9447 49.6255Z" fill="#B66A1F"/>
<path d="M74.5612 58.5107C74.6273 58.4744 74.705 58.4654 74.7777 58.4827C75.1343 58.5678 75.4909 58.6536 75.8471 58.7402C80.3686 59.8398 84.8536 61.061 89.3016 62.4041C91.161 62.9655 92.9929 63.6185 94.797 64.363C95.137 64.5033 95.4761 64.6469 95.8141 64.7937C95.89 64.8268 95.9554 64.8841 95.9935 64.959C96.0317 65.0339 96.0398 65.1199 96.016 65.1987C95.9922 65.2775 95.938 65.3442 95.8649 65.3855C95.7916 65.4268 95.7053 65.4386 95.6237 65.4241C95.261 65.3593 94.8992 65.2913 94.5385 65.22C92.6238 64.8416 90.7363 64.3717 88.8768 63.8103C84.4289 62.4673 80.0176 61.0023 75.6432 59.4158C75.2986 59.2908 74.9539 59.1651 74.6097 59.0386C74.5395 59.0127 74.4799 58.962 74.445 58.895C74.41 58.8281 74.4024 58.7507 74.424 58.6792C74.4456 58.6077 74.495 58.5472 74.5612 58.5107Z" fill="#B66A1F"/>
<path d="M40.8549 52.5271C41.9164 49.0938 45.5618 47.1658 48.9965 48.2278C52.431 49.2898 54.3522 52.9388 53.2907 56.3721C52.2291 59.8053 48.5836 61.733 45.1491 60.6711C43.1819 60.0629 41.7115 58.606 41.0133 56.8272C41.6655 57.0203 42.3099 57.1697 42.9379 57.2786C43.5537 58.1816 44.4676 58.8903 45.5922 59.238C48.234 60.0548 51.0403 58.5721 51.8576 55.929C52.6748 53.2858 51.1951 50.4778 48.5534 49.6609C45.9115 48.8441 43.1052 50.3271 42.288 52.9702C42.1677 53.3592 42.0973 53.7518 42.0729 54.1411C41.793 54.06 41.505 53.9698 41.2096 53.8691C41.0089 53.8007 40.81 53.727 40.6127 53.6497C40.6595 53.2753 40.7396 52.8999 40.8549 52.5271Z" fill="#B66A1F"/>
<path d="M46.7454 18.1016C50.1666 18.1016 51.8773 18.1016 53.1841 18.7673C54.3335 19.353 55.2683 20.2876 55.854 21.437C56.5198 22.7438 56.5198 24.4546 56.5198 27.876V36.2539C56.5198 39.6752 56.5198 41.3859 55.854 42.6926C55.2683 43.8421 54.3336 44.7766 53.1841 45.3623C51.8773 46.0281 50.1666 46.0281 46.7454 46.0281H38.3674C35.9397 46.0281 34.3734 46.0277 33.2014 45.7898C33.2181 45.2465 33.3737 44.7372 33.6899 44.2847C34.6765 42.8731 32.739 41.4446 31.7419 42.45C31.259 42.9369 30.8418 43.6183 30.6011 44.4468C30.0542 43.9514 29.5981 43.3581 29.259 42.6926C28.5932 41.3859 28.5933 39.6752 28.5933 36.2539V27.876C28.5933 24.4546 28.5932 22.7438 29.259 21.437C29.8447 20.2876 30.7793 19.353 31.9287 18.7673C33.2355 18.1015 34.9462 18.1016 38.3674 18.1016H46.7454Z" fill="#DE5833"/>
<path fill-rule="evenodd" clip-rule="evenodd" d="M45.5221 43.7954C44.9691 42.7204 44.4404 41.7313 44.1122 41.077C43.2399 39.3301 42.3631 36.8673 42.7618 35.279C42.8345 34.9904 41.9401 24.5928 41.3079 24.2579C40.6052 23.8834 39.7406 23.2894 38.9497 23.1572C38.5485 23.093 38.0224 23.1234 37.6111 23.1788C37.538 23.1886 37.535 23.32 37.6048 23.3437C37.8748 23.4352 38.2027 23.594 38.3959 23.8341C38.4325 23.8796 38.3834 23.9511 38.3251 23.9532C38.143 23.96 37.8126 24.0363 37.3766 24.4066C37.3262 24.4494 37.3681 24.529 37.433 24.5161C38.3699 24.3308 39.3267 24.4221 39.8906 24.9346C39.9271 24.9679 39.908 25.0275 39.8603 25.0405C34.9669 26.3703 35.9356 30.627 37.2383 35.8506C38.4657 40.7725 39.0479 42.7137 39.118 42.9442C39.1227 42.9597 39.1314 42.9716 39.1456 42.9794C40.1541 43.5328 45.4571 43.8689 45.2323 43.2351L45.5221 43.7954Z" fill="#DDDDDD"/>
<path d="M45.1395 42.9207C44.5458 43.1531 43.3225 43.2762 42.6513 43.2762C41.6672 43.2762 40.3002 43.1294 39.7839 42.897C39.465 41.9158 38.4695 38.7637 37.5271 34.9009C37.4963 34.7745 37.4655 34.6487 37.4348 34.5235L37.4341 34.5204C36.3138 29.9447 35.3989 26.2074 40.4136 25.0333C40.4594 25.0225 40.4819 24.9677 40.4515 24.9317C39.8761 24.2491 38.7983 24.0254 37.4353 24.4956C37.3794 24.5149 37.3309 24.4585 37.3656 24.4107C37.6329 24.0423 38.1552 23.759 38.413 23.6349C38.4663 23.6092 38.4631 23.5312 38.4066 23.5135C38.238 23.4607 37.9508 23.3799 37.6278 23.3278C37.5514 23.3155 37.5445 23.1845 37.6212 23.1742C39.5534 22.9142 41.571 23.4943 42.5835 24.7697C42.593 24.7817 42.6068 24.7901 42.6218 24.7933C46.3295 25.5895 46.5949 31.4505 46.1678 31.7175C46.0836 31.7701 45.8138 31.7399 45.4578 31.7001C44.0152 31.5387 41.1584 31.2191 43.5162 35.6131C43.5395 35.6565 43.5086 35.714 43.46 35.7215C42.1304 35.9283 43.8873 40.1764 45.1395 42.9207Z" fill="white"/>
<path d="M46.7448 37.5106C46.4626 37.3799 45.3773 38.1582 44.657 38.7556C44.5064 38.5426 44.2226 38.3878 43.5823 38.4991C43.0219 38.5966 42.7125 38.7317 42.5745 38.9646C41.69 38.6293 40.202 38.1117 39.8425 38.6116C39.4495 39.1579 39.9407 41.7425 40.4626 42.0781C40.7351 42.2533 42.0385 41.4155 42.7191 40.8378C42.8289 40.9925 43.0057 41.0811 43.3692 41.0727C43.9189 41.0599 44.8104 40.932 44.9488 40.676C44.9572 40.6605 44.9644 40.6421 44.9706 40.6211C45.6702 40.8826 46.9014 41.1593 47.1765 41.118C47.8933 41.0104 47.0767 37.6644 46.7448 37.5106Z" fill="#3CA82B"/>
<path d="M44.7228 38.8313C44.7525 38.8842 44.7763 38.9401 44.7966 38.9968C44.8964 39.2757 45.0588 40.1631 44.936 40.3822C44.8131 40.6014 44.015 40.7073 43.5227 40.7157C43.0303 40.7242 42.9195 40.5442 42.8198 40.2653C42.74 40.0421 42.7007 39.5175 42.7017 39.2171C42.6815 38.7716 42.8443 38.6149 43.5967 38.4932C44.1536 38.4031 44.448 38.5079 44.6179 38.6872C45.4085 38.0972 46.7275 37.2645 46.8561 37.4167C47.4976 38.1755 47.5787 39.9818 47.4398 40.7085C47.3944 40.9461 45.2703 40.4732 45.2703 40.2169C45.2703 39.153 44.9942 38.8612 44.7228 38.8313Z" fill="#4CBA3C"/>
<path d="M40.0699 38.4991C40.2439 38.2237 41.6546 38.5661 42.4291 38.9108C42.4291 38.9108 42.2699 39.6317 42.5233 40.4812C42.5974 40.7296 40.7416 41.8355 40.4994 41.6452C40.2195 41.4253 39.7042 39.0778 40.0699 38.4991Z" fill="#4CBA3C"/>
<path fill-rule="evenodd" clip-rule="evenodd" d="M40.7533 32.9071C40.8675 32.4107 41.3992 31.4754 43.2979 31.4981C44.2578 31.4941 45.4502 31.4977 46.2407 31.4079C47.4157 31.2745 48.2878 30.9903 48.8689 30.7687C49.6909 30.4552 49.9825 30.5251 50.0848 30.7127C50.1972 30.9189 50.0648 31.2749 49.7776 31.6026C49.229 32.2285 48.2428 32.7135 46.5011 32.8575C44.7594 33.0014 43.6055 32.5342 43.1088 33.2949C42.8946 33.623 43.0602 34.3962 44.7446 34.6396C47.0207 34.9681 48.8899 34.2438 49.1209 34.6813C49.3519 35.1187 48.0214 36.0087 45.7417 36.0273C43.4619 36.046 42.038 35.2291 41.533 34.8231C40.8923 34.308 40.6056 33.5567 40.7533 32.9071Z" fill="#FFCC33"/>
<g opacity="0.8">
<path d="M43.6566 27.4793C43.7838 27.2711 44.0658 27.1104 44.5272 27.1104C44.9887 27.1104 45.2058 27.294 45.3561 27.4987C45.3867 27.5404 45.3403 27.5894 45.2929 27.5689C45.2815 27.564 45.27 27.5589 45.2582 27.5538C45.0895 27.4801 44.8822 27.3896 44.5272 27.3846C44.1475 27.3792 43.9081 27.4742 43.7574 27.5562C43.7066 27.5838 43.6265 27.5286 43.6566 27.4793Z" fill="#14307E"/>
<path d="M38.4613 27.7457C38.9094 27.5584 39.2616 27.5826 39.5105 27.6415C39.563 27.6539 39.5994 27.5975 39.5575 27.5637C39.3642 27.4078 38.9318 27.2143 38.3677 27.4247C37.8645 27.6123 37.6274 28.0021 37.626 28.2584C37.6256 28.3188 37.7499 28.3239 37.7821 28.2728C37.8689 28.1346 38.0132 27.9329 38.4613 27.7457Z" fill="#14307E"/>
<path fill-rule="evenodd" clip-rule="evenodd" d="M44.9192 30.3278C44.5231 30.3278 44.2017 30.0073 44.2017 29.613C44.2017 29.2186 44.5231 28.8981 44.9192 28.8981C45.3153 28.8981 45.6367 29.2186 45.6367 29.613C45.6367 30.0073 45.3153 30.3278 44.9192 30.3278ZM45.4245 29.3762C45.4245 29.274 45.3409 29.1913 45.2388 29.1913C45.1366 29.1913 45.0539 29.274 45.053 29.3762C45.053 29.4783 45.1366 29.561 45.2388 29.561C45.3418 29.561 45.4245 29.4783 45.4245 29.3762Z" fill="#14307E"/>
<path fill-rule="evenodd" clip-rule="evenodd" d="M40.1657 30.1077C40.1657 30.5681 39.7915 30.9413 39.3294 30.9413C38.8681 30.9413 38.4931 30.5681 38.4931 30.1077C38.4931 29.6473 38.8681 29.274 39.3294 29.274C39.7906 29.274 40.1657 29.6473 40.1657 30.1077ZM39.9192 29.8313C39.9192 29.7124 39.8223 29.6156 39.7026 29.6156C39.5838 29.6156 39.4869 29.7115 39.4861 29.8313C39.4861 29.9501 39.5829 30.0469 39.7026 30.0469C39.8223 30.0469 39.9192 29.9501 39.9192 29.8313Z" fill="#14307E"/>
</g>
<path fill-rule="evenodd" clip-rule="evenodd" d="M42.5565 43.0869C48.6816 43.0869 53.647 38.1215 53.647 31.9964C53.647 25.8713 48.6816 20.906 42.5565 20.906C36.4314 20.906 31.466 25.8713 31.466 31.9964C31.466 38.1215 36.4314 43.0869 42.5565 43.0869ZM42.5565 44.1296C49.2575 44.1296 54.6897 38.6974 54.6897 31.9964C54.6897 25.2955 49.2575 19.8633 42.5565 19.8633C35.8555 19.8633 30.4233 25.2955 30.4233 31.9964C30.4233 38.6974 35.8555 44.1296 42.5565 44.1296Z" fill="white"/>
<path d="M31.7476 41.9805C32.2898 41.3697 33.5175 41.3325 34.1067 42.0706C34.126 42.0926 34.1449 42.115 34.1629 42.1377C34.5925 42.6756 34.6108 43.4263 34.3091 43.9634C34.2684 44.0357 34.2213 44.1051 34.1665 44.1692C34.1363 44.2017 34.0981 44.228 34.0545 44.239C34.0108 44.25 33.9657 44.2453 33.9277 44.2249C33.8897 44.2045 33.8609 44.1695 33.846 44.127C33.831 44.0845 33.8318 44.038 33.8423 43.9949C33.8533 43.9365 33.8598 43.8761 33.863 43.816C33.8826 43.3549 33.7445 42.941 33.5134 42.6519C33.5033 42.6391 33.4927 42.6264 33.4819 42.6138C33.157 42.2227 32.5896 42.0709 32.0066 42.3394C31.9499 42.3653 31.8942 42.3942 31.8384 42.427C31.8001 42.4505 31.755 42.4638 31.7095 42.4602C31.6641 42.4567 31.6223 42.437 31.5925 42.4046C31.5627 42.372 31.5467 42.3286 31.5471 42.283C31.5476 42.2374 31.5647 42.1938 31.5913 42.1577C31.6391 42.0958 31.6907 42.0368 31.7476 41.9805Z" fill="#FFDACC"/>
</svg>
