<svg width="128" height="96" viewBox="0 0 128 96" fill="none" xmlns="http://www.w3.org/2000/svg">
<path d="M80.5662 21.7965C86.6057 21.2187 91.9684 25.6277 92.5439 31.6444L94.6865 54.0433C93.2151 53.5476 91.6393 53.2787 90.0007 53.2787C81.9006 53.2787 75.334 59.8453 75.334 67.9454C75.334 69.1677 75.4836 70.3552 75.7654 71.4903L47.353 74.2086C41.3135 74.7864 35.9508 70.3774 35.3752 64.3607L32.7925 37.3607C32.217 31.344 36.6465 25.9983 42.686 25.4205L80.5662 21.7965Z" fill="#FFC95C"/>
<path d="M80.4949 21.0499C86.944 20.433 92.675 25.1413 93.2903 31.5729L95.4676 54.3317C94.9619 54.1284 94.4422 53.9525 93.9105 53.8058L91.7972 31.7157C91.2612 26.1141 86.2675 22.0046 80.6378 22.5431L42.7574 26.1671C37.1276 26.7058 33.0033 31.6878 33.5391 37.2894L36.1219 64.2894C36.6578 69.8911 41.6519 74.0006 47.2818 73.462L75.6026 70.7523C75.6995 71.2525 75.8219 71.7436 75.9683 72.2242L47.4246 74.9554C40.9755 75.5724 35.244 70.8639 34.6287 64.4323L32.046 37.4323C31.4308 31.0006 36.1655 25.291 42.6146 24.674L80.4949 21.0499Z" fill="#B66A1F"/>
<path d="M53.5518 51.8107C53.6239 51.8049 53.6952 51.8266 53.7501 51.8717C53.8049 51.9168 53.8396 51.9821 53.848 52.0538C53.8563 52.1257 53.8369 52.1981 53.7972 52.2574C53.6168 52.5263 53.4351 52.7941 53.2523 53.0609C51.6068 55.4627 49.8636 57.7843 48.0225 60.0255C46.1815 62.2667 44.2425 64.4277 42.2059 66.5082C41.9796 66.7393 41.7521 66.9695 41.5235 67.1986C41.473 67.2491 41.4059 67.2822 41.3338 67.288C41.2618 67.2937 41.1909 67.2722 41.136 67.2272C41.0812 67.1821 41.046 67.1166 41.0377 67.0448C41.0293 66.973 41.049 66.901 41.0887 66.8417C41.2691 66.5728 41.4508 66.3048 41.6336 66.038C43.2791 63.6361 45.0225 61.3145 46.8636 59.0734C48.7046 56.8322 50.6434 54.6714 52.68 52.5909C52.9063 52.3598 53.1339 52.1292 53.3626 51.9C53.413 51.8497 53.4799 51.8165 53.5518 51.8107Z" fill="#B66A1F"/>
<path d="M88.0738 27.922C88.1472 27.9167 88.2205 27.9395 88.2774 27.9867C88.3343 28.0339 88.3706 28.1017 88.3777 28.1749C88.3849 28.2482 88.3624 28.3217 88.3157 28.379C88.2691 28.4363 88.2017 28.4728 88.1287 28.4818C87.0797 28.6695 86.2332 29.7159 85.5135 30.6537C84.4567 32.0717 83.6341 33.6372 82.6763 35.2091L82.6802 35.2035C79.2902 40.6931 75.8646 46.16 72.4024 51.6058C70.6367 54.1471 68.1456 56.3262 64.8611 56.7999C64.8059 56.8066 64.7501 56.8128 64.6944 56.8182C61.7517 57.0904 58.9203 55.8478 56.9163 53.7311C52.5134 48.8297 48.1161 43.9048 43.6932 39.0231C42.4343 37.6444 41.157 36.2897 39.7549 35.1002C38.8306 34.3488 37.8009 33.5158 36.7122 33.5214C36.6387 33.524 36.5662 33.4986 36.511 33.4493C36.4559 33.4001 36.4223 33.3309 36.4178 33.2574C36.4133 33.1841 36.4382 33.1116 36.4869 33.056C36.5356 33.0005 36.6045 32.9665 36.6778 32.9601C38.1358 32.9098 39.2087 33.7967 40.2181 34.5223C41.7283 35.6909 43.0755 37.0085 44.4017 38.3549C49.0171 43.0782 53.5348 47.8969 57.9988 52.7579C58.0001 52.7594 58.0037 52.7634 58.0049 52.7648C59.6415 54.4701 62.1747 55.5742 64.5482 55.3256C64.5922 55.3212 64.6364 55.3162 64.6802 55.3109C67.2677 54.9768 69.647 53.014 71.1863 50.8195C74.7116 45.4171 78.2723 40.0375 81.8685 34.6808C81.8692 34.6796 81.8716 34.6761 81.8724 34.6749C82.8392 33.2178 83.768 31.6177 84.9302 30.1976C85.7502 29.2593 86.6022 28.1449 88.0738 27.922Z" fill="#B66A1F"/>
<path d="M75.5059 49.9137C75.5777 49.9061 75.6497 49.9263 75.7086 49.9664C75.9734 50.1474 76.2375 50.3297 76.5003 50.5131C78.635 52.0025 80.7035 53.5712 82.7059 55.2186C82.2548 55.4778 81.8188 55.7603 81.3995 56.0643C79.5494 54.4731 77.7576 52.8121 76.0247 51.0809C75.798 50.8545 75.5722 50.6267 75.3475 50.3978C75.2975 50.3469 75.2647 50.2795 75.2596 50.2074C75.2545 50.1353 75.2772 50.0646 75.3228 50.0101C75.3684 49.9558 75.4341 49.9214 75.5059 49.9137Z" fill="#B66A1F"/>
<path d="M56.9163 53.7311C56.9175 53.7324 56.9188 53.7339 56.92 53.7352L56.9139 53.7286C56.9146 53.7295 56.9155 53.7303 56.9163 53.7311Z" fill="#B66A1F"/>
<path d="M100.351 23.1054C100.417 23.1044 100.486 23.1164 100.544 23.1491C100.603 23.1818 100.648 23.2321 100.669 23.2924C100.69 23.3526 100.686 23.4194 100.661 23.4816C100.635 23.5439 100.589 23.5959 100.536 23.6366C100.456 23.6975 100.375 23.7569 100.295 23.8149C99.5673 24.3365 98.7982 24.7388 97.9875 25.0214C97.1768 25.304 96.3242 25.467 95.4301 25.5107C95.3308 25.5155 95.2309 25.5188 95.1306 25.5207C95.0639 25.5217 94.9953 25.51 94.9365 25.4772C94.8777 25.4445 94.8335 25.3942 94.8125 25.3339C94.7915 25.2736 94.7948 25.2067 94.8205 25.1444C94.8463 25.0822 94.8926 25.0303 94.9455 24.9897C95.0253 24.9288 95.1057 24.8694 95.1865 24.8114C95.9139 24.2898 96.6829 23.8875 97.4936 23.6049C98.3043 23.3223 99.1567 23.159 100.051 23.1154C100.15 23.1105 100.25 23.1073 100.351 23.1054Z" fill="#F5A031"/>
<path d="M96.5232 16.4484C96.5905 16.4512 96.6528 16.4765 96.6987 16.5209C96.7444 16.5653 96.7716 16.6264 96.7766 16.6935C96.7815 16.7607 96.7633 16.828 96.7343 16.8881C96.6904 16.9783 96.6453 17.0674 96.5991 17.1554C96.1833 17.9481 95.6766 18.6529 95.0791 19.2694C94.4815 19.886 93.7929 20.4145 93.0136 20.8549C92.9271 20.9038 92.8392 20.9515 92.7505 20.9982C92.6913 21.0291 92.6247 21.0492 92.5573 21.0463C92.4901 21.0435 92.4281 21.0184 92.3823 20.974C92.3365 20.9296 92.3093 20.8683 92.3044 20.8012C92.2995 20.734 92.3177 20.6669 92.3466 20.6069C92.3906 20.5166 92.4357 20.4273 92.4819 20.3393C92.8977 19.5466 93.4044 18.842 94.0019 18.2255C94.5995 17.609 95.2878 17.0804 96.0671 16.6401C96.1537 16.5911 96.2417 16.5433 96.3305 16.4965C96.3896 16.4657 96.456 16.4456 96.5232 16.4484Z" fill="#F5A031"/>
<path d="M89.4026 12.808C89.4629 12.7781 89.5295 12.7702 89.591 12.787C89.6525 12.8039 89.7057 12.8444 89.7424 12.9008C89.7791 12.9573 89.7957 13.025 89.7993 13.0917C89.8042 13.1919 89.8076 13.2917 89.8095 13.391C89.8272 14.286 89.7228 15.1476 89.4963 15.9757C89.2698 16.8039 88.9213 17.5989 88.4506 18.3603C88.3984 18.4448 88.3443 18.529 88.289 18.6127C88.2521 18.6683 88.2036 18.718 88.1433 18.748C88.083 18.7779 88.0164 18.7858 87.9548 18.769C87.8933 18.7521 87.8401 18.7116 87.8034 18.6552C87.7667 18.5987 87.7501 18.5309 87.7465 18.4643C87.7416 18.3641 87.7383 18.2643 87.7363 18.165C87.7186 17.27 87.823 16.4084 88.0495 15.5802C88.276 14.7521 88.6245 13.9571 89.0952 13.1957C89.1475 13.1112 89.2013 13.0268 89.2566 12.943C89.2935 12.8875 89.3422 12.838 89.4026 12.808Z" fill="#F5A031"/>
<path d="M90 80C96.6274 80 102 74.6274 102 68C102 61.3726 96.6274 56 90 56C83.3726 56 78 61.3726 78 68C78 74.6274 83.3726 80 90 80Z" fill="black"/>
<path fill-rule="evenodd" clip-rule="evenodd" d="M89.9998 60.7788C91.8407 60.7788 93.3332 62.2711 93.3333 64.1121V66.1121C94.2537 66.1121 95 66.8583 95 67.7788V72.4453C95 73.3658 94.2537 74.1121 93.3333 74.1121H86.6667C85.7463 74.1121 85 73.3658 85 72.4453V67.7788C85 66.8584 85.7461 66.1122 86.6665 66.1121V64.1121C86.6665 62.2712 88.1589 60.7789 89.9998 60.7788ZM90 67.7788C89.1716 67.7788 88.5 68.4504 88.5 69.2788C88.5 69.8676 88.8395 70.3768 89.3333 70.6223V71.6953C89.3333 72.0635 89.6318 72.3621 90 72.3621C90.3682 72.3621 90.6667 72.0635 90.6667 71.6953V70.6223C91.1605 70.3768 91.5 69.8676 91.5 69.2788C91.5 68.4504 90.8284 67.7788 90 67.7788ZM89.9998 62.7788C89.2634 62.7789 88.6665 63.3757 88.6665 64.1121V66.1121H91.3333V64.1121C91.3332 63.3757 90.7361 62.7788 89.9998 62.7788Z" fill="white"/>
</svg>
