<svg width="24" height="24" viewBox="0 0 24 24" fill="none" xmlns="http://www.w3.org/2000/svg">
<path d="M10.75 14.75V19.5C10.75 19.8014 10.7863 20.0942 10.8535 20.375H4.36715C2.98795 20.375 2.1507 18.8537 2.88864 17.6885L4.6025 14.9824C4.69418 14.8377 4.85402 14.75 5.02535 14.75H10.75Z" fill="#4397E0"/>
<path d="M16.375 3.625C18.0319 3.625 19.375 4.96815 19.375 6.625V10.75H14.5C12.4289 10.75 10.75 12.4289 10.75 14.5V14.75H4.625V6.625C4.625 4.96815 5.96815 3.625 7.625 3.625H16.375Z" fill="#75B6EB"/>
<path d="M16.3751 3C18.3771 3 20.0001 4.62297 20.0001 6.625V10.7832C19.8366 10.7614 19.6696 10.75 19.5001 10.75H18.7501V6.625C18.7501 5.31332 17.6868 4.25 16.3751 4.25H7.62509C6.31355 4.25017 5.25009 5.31343 5.25009 6.625V14H10.7843C10.7625 14.1636 10.7501 14.3304 10.7501 14.5V15.375H4.91415L3.3663 18.0635C2.9343 18.8134 3.47543 19.7499 4.34091 19.75H10.7589C10.788 20.1921 10.8944 20.6129 11.0636 21H4.34091C2.51376 20.9999 1.37039 19.0227 2.28231 17.4395L3.93954 14.5635C3.95834 14.5308 3.9784 14.499 4.00009 14.4688V6.625C4.00009 4.62307 5.6232 3.00017 7.62509 3H16.3751ZM10.7501 18H6.62509C6.28005 17.9998 6.00009 17.7201 6.00009 17.375C6.00009 17.0299 6.28005 16.7502 6.62509 16.75H10.7501V18Z" fill="url(#paint0_linear_13193_122973)"/>
<path d="M12 14.5C12 13.1193 13.1193 12 14.5 12H19.5C20.8807 12 22 13.1193 22 14.5V19.5C22 20.8807 20.8807 22 19.5 22H14.5C13.1193 22 12 20.8807 12 19.5V14.5Z" fill="#F05F2B"/>
<path d="M19.5 20.75V22H14.5V20.75H19.5ZM20.75 19.5V14.5C20.75 13.8096 20.1904 13.25 19.5 13.25H14.5C13.8096 13.25 13.25 13.8096 13.25 14.5V19.5C13.25 20.1904 13.8096 20.75 14.5 20.75V22C13.1193 22 12 20.8807 12 19.5V14.5C12 13.2057 12.9836 12.1408 14.2441 12.0127L14.5 12H19.5L19.7559 12.0127C21.0164 12.1408 22 13.2057 22 14.5V19.5L21.9873 19.7559C21.8592 21.0164 20.7943 22 19.5 22V20.75C20.1904 20.75 20.75 20.1904 20.75 19.5Z" fill="url(#paint1_linear_13193_122973)"/>
<path d="M17 13C19.2091 13 21 14.7909 21 17C21 19.2091 19.2091 21 17 21C14.7909 21 13 19.2091 13 17C13 14.7909 14.7909 13 17 13ZM17 13.548C15.0935 13.548 13.548 15.0935 13.548 17C13.548 18.4196 14.405 19.6389 15.6298 20.1692C15.2603 18.771 13.7932 14.8624 15.9955 14.5847C16.0104 14.5803 15.685 14.4793 15.2467 14.5889C14.6988 14.6985 15.779 13.0969 16.9139 14.501C18.1472 14.7706 18.2355 16.7558 18.0935 16.8462L18.0934 16.8463C18.0654 16.8642 17.9755 16.8538 17.8572 16.8403C16.8082 16.6559 16.706 17.2545 17.2114 18.1658C16.7869 18.2923 17.2207 19.4371 17.6371 20.3932C19.2392 20.0943 20.452 18.6889 20.452 17C20.452 15.0935 18.9065 13.548 17 13.548Z" fill="white"/>
<path d="M18.5164 19.8914C18.5042 19.9701 18.4771 20.0226 18.4289 20.0299C18.3373 20.0439 17.9279 19.9502 17.6952 19.8617C17.6687 19.9834 17.0449 20.0987 16.9462 19.9352C16.7198 20.1308 16.2862 20.4147 16.1955 20.3552C16.0219 20.2415 15.8585 19.3661 15.9892 19.1811C16.1878 19.0007 16.6051 19.197 16.8979 19.3007C16.9972 19.1329 17.4779 19.0692 17.5777 19.207C17.8406 19.0071 18.2794 18.7252 18.3222 18.7767C18.5355 19.0337 18.5625 19.6454 18.5163 19.8916L18.5164 19.8914Z" fill="#4CBA3C"/>
<path fill-rule="evenodd" clip-rule="evenodd" d="M16.2918 17.2497C16.3813 16.6147 17.5807 16.8134 18.1171 16.742C18.508 16.6967 18.798 16.6006 18.9913 16.5255C19.4349 16.3433 19.5104 16.5241 19.2935 16.8079C18.6811 17.534 17.319 17.0055 17.0751 17.381C17.0038 17.4922 17.059 17.754 17.6192 17.8365C18.3762 17.9477 18.9981 17.7024 19.0749 17.8507C18.9023 18.6432 16.0282 18.3734 16.2914 17.2498L16.2918 17.2497Z" fill="#FFCC33"/>
<path d="M17.8228 15.4174C17.7435 15.2455 17.3356 15.2467 17.2576 15.4107C17.2505 15.4446 17.2789 15.4357 17.333 15.4186C17.4279 15.3888 17.6017 15.3341 17.8019 15.4412C17.8177 15.448 17.833 15.4316 17.8228 15.4174Z" fill="#14307E"/>
<path d="M15.8296 15.4586C15.7539 15.4532 15.6309 15.4443 15.5293 15.5008C15.3803 15.5643 15.3322 15.6326 15.3033 15.6795C15.2927 15.6968 15.2515 15.6951 15.2515 15.6746C15.2616 15.4011 15.7253 15.2692 15.894 15.4392C15.9144 15.4647 15.8844 15.4626 15.8296 15.4586Z" fill="#14307E"/>
<path d="M17.6776 16.3755C17.3655 16.3739 17.3655 15.8928 17.6776 15.8913C17.9896 15.8928 17.9896 16.3739 17.6776 16.3755Z" fill="#14307E"/>
<path d="M16.0962 16.3009C16.09 16.6719 15.5461 16.6719 15.5399 16.3009C15.5416 15.9316 16.0945 15.9317 16.0962 16.3009Z" fill="#14307E"/>
<path d="M10.0281 4.25001C10.7134 4.25001 11.3987 4.33574 12.084 4.50709C12.2435 4.54698 12.4031 4.59146 12.5626 4.64063C12.616 4.65726 12.667 4.68513 12.7047 4.72718C12.7424 4.7692 12.7637 4.82133 12.7637 4.87501C12.7637 4.92868 12.7424 4.98081 12.7047 5.02283C12.667 5.06489 12.616 5.09276 12.5626 5.10938C12.4031 5.15856 12.2435 5.20304 12.084 5.24293C11.3987 5.41427 10.7134 5.5 10.0281 5.50001H7.68655C7.45975 5.49978 7.23799 5.56105 7.04507 5.67689C6.68698 5.88947 6.43207 6.27474 6.39968 6.70557C6.38522 6.92325 6.37048 7.14097 6.35622 7.35865C6.34134 7.58592 6.30508 7.8125 6.26626 8.03895C6.23906 8.19763 6.21059 8.35632 6.1874 8.51514C6.17213 8.61851 6.11239 8.71606 6.0281 8.78663C5.94337 8.8572 5.84088 8.89496 5.7366 8.89136C5.63233 8.88775 5.5328 8.84308 5.45315 8.76685C5.37388 8.69063 5.32099 8.58908 5.31289 8.48487C5.3007 8.32483 5.28332 8.16457 5.26711 8.0044C5.24399 7.77583 5.22334 7.54733 5.22414 7.31959C5.22492 7.10145 5.22528 6.88331 5.22585 6.66517C5.22572 5.84552 5.68435 5.02762 6.40237 4.60474C6.78724 4.37294 7.23875 4.249 7.68655 4.25001H10.0281Z" fill="#CBEAFF"/>
<defs>
<linearGradient id="paint0_linear_13193_122973" x1="10.981" y1="3" x2="10.981" y2="21" gradientUnits="userSpaceOnUse">
<stop stop-color="#045EB2"/>
<stop offset="1" stop-color="#045EB2"/>
</linearGradient>
<linearGradient id="paint1_linear_13193_122973" x1="17" y1="12" x2="17" y2="22" gradientUnits="userSpaceOnUse">
<stop stop-color="#CC3B0A"/>
<stop offset="1" stop-color="#9E2B08"/>
</linearGradient>
</defs>
</svg>
