<svg width="128" height="96" viewBox="0 0 128 96" fill="none" xmlns="http://www.w3.org/2000/svg">
<path d="M37.0815 33.9023C44.2154 13.6054 74.0216 12.6369 87.8906 33.469C88.5918 34.5168 89.9695 34.9519 91.0242 34.4245L93.6672 33.2026C95.726 32.2506 97.9687 34.1056 97.4043 36.3025C96.0376 41.6212 93.9404 49.7657 92.3476 55.8845C89.9784 54.2417 87.1019 53.279 84.0005 53.279C80.5723 53.279 77.4188 54.4552 74.9216 56.426C71.785 54.7781 68.7578 53.1678 66.4834 51.9524C64.6963 50.9973 64.5761 48.4873 66.259 47.3589L70.3962 44.5847C71.5104 44.0227 71.8734 42.628 71.1147 41.5459C62.8251 29.8235 51.6298 28.4298 41.2766 36.2229C39.2327 37.7614 36.2333 36.3158 37.0815 33.9023Z" fill="#FF8D5C"/>
<path d="M71.5662 43.2439C78.5419 29.0097 51.6761 16.9435 35.585 41.5466C45.9259 27.8783 64.2134 27.69 71.5662 43.2439Z" fill="#F05F2B"/>
<path d="M48.8234 31.3077C57.045 28.8635 66.0187 31.4421 71.5002 40.6102C72.6672 42.5623 72.353 44.6621 70.7968 45.6464C69.6299 46.3844 68.7871 46.8452 67.405 47.756C66.3016 48.4831 66.1584 49.3698 66.1838 49.9349C66.2137 50.2841 66.3289 50.5798 66.6008 50.89C66.8956 51.2263 67.3894 51.5962 68.2111 52.0309C69.5395 52.7336 72.3446 54.2243 75.5942 55.9256C75.1446 56.2406 74.7136 56.5801 74.3029 56.9422C71.3025 55.3689 68.7527 54.0143 67.5097 53.3568C66.6196 52.886 65.942 52.4141 65.4726 51.8785C64.9834 51.3203 64.7413 50.7162 64.6875 50.0428C64.6868 50.0353 64.6864 50.0275 64.686 50.0199C64.6388 49.0613 64.9228 47.5953 66.5795 46.5035C67.9486 45.6013 68.9337 45.05 69.9951 44.3788C70.6671 43.9537 71.0927 42.8517 70.2128 41.38C65.099 32.8267 56.8452 30.4878 49.2507 32.7457C48.159 33.0702 47.243 33.5233 46.5996 33.8964C46.2788 34.0823 46.0281 34.247 45.8601 34.3634C45.7761 34.4215 45.7129 34.4676 45.6721 34.4979C45.6518 34.513 45.6369 34.5242 45.6279 34.5311C45.6235 34.5345 45.6202 34.5369 45.6186 34.5382H45.6181L45.6184 34.5384L45.6181 34.5387L45.6174 34.5392C45.2925 34.7952 44.8215 34.7397 44.5649 34.4152C44.3081 34.0902 44.3632 33.6185 44.6882 33.3617L45.1342 33.9259C44.7119 33.3916 44.6895 33.3631 44.6884 33.3614L44.6887 33.3612L44.6894 33.3607C44.6899 33.3603 44.6907 33.3598 44.6914 33.3592C44.6928 33.3581 44.6948 33.3566 44.697 33.3548C44.7014 33.3514 44.7074 33.3466 44.7148 33.3409C44.7297 33.3295 44.7508 33.3137 44.7775 33.2938C44.831 33.2541 44.9078 33.1982 45.0063 33.13C45.2032 32.9937 45.4877 32.8071 45.8471 32.5987C46.5644 32.1829 47.5905 31.6742 48.8234 31.3077Z" fill="#9E2B08"/>
<path d="M39.5537 27.5326C50.2782 12.6879 75.9346 14.1596 88.5134 33.0516C89.0351 33.8312 90.0185 34.0886 90.6882 33.7538L93.0278 32.5587C93.0388 32.5531 93.05 32.5479 93.0612 32.5428C96.0357 31.2046 99.1113 34.0947 98.3037 37.1371C97.7549 39.2041 96.3466 44.1564 94.9172 49.2062C94.2248 51.6522 93.5273 54.1211 92.9187 56.3016C92.5001 55.9806 92.0639 55.6815 91.6115 55.4064C92.1882 53.3444 92.8339 51.0583 93.4738 48.7977C94.9064 43.7368 96.3094 38.8034 96.854 36.7521C97.3657 34.8239 95.4047 33.1446 93.6879 33.9059L91.3649 35.0924C91.3631 35.0934 91.361 35.0944 91.3591 35.0953C89.9195 35.8152 88.1474 35.2018 87.2668 33.8859L87.2658 33.8844C75.1269 15.6511 50.7569 14.6183 40.7832 28.392C39.4726 30.4822 38.7992 31.5956 38.028 33.1495C37.8439 33.5204 37.3936 33.6719 37.0227 33.4879C36.6517 33.3038 36.5002 32.8535 36.6843 32.4825C37.4936 30.8518 38.2034 29.6827 39.5261 27.5734L39.5537 27.5326Z" fill="#9E2B08"/>
<path d="M87.7221 25.7332C87.6563 25.7331 87.5951 25.7538 87.5485 25.794C87.5018 25.8342 87.4721 25.8918 87.4625 25.9568C87.453 26.022 87.4648 26.0891 87.4855 26.1517C87.5115 26.2297 87.5387 26.307 87.5665 26.3831C87.8172 27.0682 88.1406 27.6731 88.5507 28.2125C88.9607 28.7518 89.4574 29.2258 90.0514 29.65C90.1174 29.6971 90.1847 29.7434 90.2531 29.7894C90.3078 29.826 90.3694 29.8552 90.4347 29.8633C90.5 29.8714 90.5634 29.8581 90.6146 29.8238C90.6658 29.7895 90.7021 29.7359 90.7194 29.6724C90.7367 29.609 90.7334 29.5409 90.7203 29.4764C90.7032 29.3947 90.6845 29.3137 90.6642 29.2337C90.4818 28.5144 90.1713 27.8654 89.7448 27.3045C89.3183 26.7435 88.7754 26.2704 88.1303 25.9029C88.0586 25.8621 87.9856 25.8226 87.9115 25.7845C87.8527 25.7547 87.7879 25.7334 87.7221 25.7332Z" fill="#CC3B0A"/>
<path d="M71.507 14.7274C66.7771 13.3902 61.668 13.1634 56.9252 14.4319C56.3997 14.5733 55.8784 14.7337 55.3681 14.9124C55.2996 14.9365 55.241 14.9847 55.2062 15.0491C55.1714 15.1135 55.1631 15.1885 55.183 15.2581C55.203 15.3277 55.2498 15.3867 55.3134 15.4229C55.377 15.4591 55.4521 15.4688 55.5228 15.4529C56.0378 15.3379 56.5588 15.239 57.0802 15.1561C61.7797 14.4201 66.5711 14.8963 71.0985 16.1705C75.6296 17.4566 79.9339 19.5771 83.7094 22.4903C84.1294 22.8148 84.541 23.1475 84.9474 23.492C85.0027 23.5389 85.0737 23.565 85.1469 23.5626C85.22 23.5601 85.289 23.5295 85.339 23.4771C85.389 23.4247 85.4164 23.3543 85.4154 23.2811C85.4145 23.2079 85.385 23.1381 85.3356 23.085C84.9653 22.6886 84.5853 22.3043 84.1925 21.929C80.6631 18.5539 76.2454 16.0678 71.507 14.7274Z" fill="#CC3B0A"/>
<path d="M37.1509 33.0273C37.56 31.5872 39.016 30.8781 40.3594 31.539C45.3723 34.0054 55.9772 39.8583 61.8132 43.1056C63.6341 44.1189 63.6771 46.713 61.8974 47.7971L57.7329 50.3337C56.5994 50.887 56.2075 52.2919 56.9516 53.3957C60.7453 58.9736 65.2335 62.3107 70.0188 63.5019C69.5736 64.9036 69.3335 66.3966 69.3335 67.9457C69.3335 71.2656 70.4366 74.3277 72.2961 76.7858C60.9764 78.5836 47.7 73.5473 39.8918 61.3388C39.205 60.2704 37.8248 59.8123 36.7519 60.3315L33.8186 61.603C31.7189 62.5132 29.4979 60.5975 30.1059 58.3913C32.1072 51.1301 35.5722 38.5853 37.1509 33.0273Z" fill="#75B6EB"/>
<path d="M39.8765 61.1523C39.8765 61.1523 53.4333 74.555 70.2041 72.9351C70.754 74.4553 71.5478 75.8587 72.5386 77.0979C61.4488 79.1689 48.2235 74.6577 39.8765 61.1523Z" fill="#4397E0"/>
<path d="M36.3186 33.1699C36.9091 31.1216 39.05 30.0508 41.024 31.009C46.0853 33.4662 55.3395 38.7225 61.5105 42.0473C62.9044 42.7983 63.579 44.269 63.5867 45.666C63.5943 47.0592 62.9359 48.5198 61.5 49.2224L61.5003 49.2226L58.0777 50.9995L58.0696 51.0036L58.0613 51.0078C57.344 51.3581 57.0792 52.2444 57.5728 52.9765C61.5453 58.8683 65.7499 61.989 70.17 63.0519C70.0037 63.5218 69.8608 64.0027 69.7425 64.4931C64.9144 63.3088 60.437 59.9077 56.3291 53.8151C55.3371 52.3437 55.8511 50.4266 57.3909 49.666L60.8091 47.8913L60.8191 47.8862L60.8291 47.8813C61.6478 47.4866 62.0919 46.6272 62.0867 45.6743C62.0815 44.7186 61.6221 43.8113 60.7991 43.3679C54.5639 40.0085 45.3944 34.7982 40.3689 32.3583C39.288 31.8337 38.1102 32.3707 37.76 33.5854C36.1658 39.1162 32.8975 50.6954 30.8721 57.8845C30.3409 59.7703 32.2284 61.4329 34.0384 60.6662L36.4453 59.6462C37.8906 58.961 39.6358 59.5879 40.5017 60.9033L43.3343 64.749C50.1896 73.3428 60.0344 77.1872 69.0874 76.6704C70.0627 76.6147 71.0285 76.5079 71.98 76.3517C72.3059 76.8169 72.6581 77.2623 73.0345 77.6857C71.7682 77.9319 70.4776 78.0934 69.1729 78.1679C59.6382 78.7123 49.3177 74.6616 42.1541 65.675L42.1451 65.6638L42.1365 65.6523L39.2871 61.7836L39.2732 61.7643L39.2603 61.7443C38.7496 60.9501 37.763 60.6749 37.0777 61.0065L37.0608 61.0146L37.0437 61.0219L34.6236 62.0473C31.661 63.3024 28.5541 60.5809 29.4283 57.4777C31.4532 50.2902 34.7229 38.706 36.3186 33.1699Z" fill="#045EB2"/>
<path d="M44.0416 73.7019C43.9686 73.7029 43.8992 73.7317 43.8483 73.7827C43.7973 73.8338 43.7685 73.9033 43.7677 73.9763C43.7669 74.0493 43.7946 74.1197 43.8422 74.1741C44.1587 74.5343 44.4863 74.884 44.8258 75.2241C47.8811 78.2917 51.8333 80.4753 56.0326 81.6216C60.2354 82.7739 64.6993 82.9221 68.9276 82.0777C69.3972 81.9839 69.8645 81.8777 70.3273 81.7595C70.3973 81.7416 70.4598 81.6991 70.5004 81.6384C70.5409 81.5778 70.5563 81.504 70.5431 81.4331C70.5298 81.3623 70.4888 81.2993 70.4291 81.2573C70.3694 81.2153 70.2958 81.198 70.224 81.2066C69.7584 81.2617 69.2917 81.3077 68.8256 81.3443C64.629 81.6698 60.4305 81.2689 56.4291 80.1751C52.4312 79.0781 48.6183 77.2705 45.3185 74.6709C44.952 74.3821 44.5925 74.0843 44.2394 73.7759C44.1849 73.7284 44.1146 73.701 44.0416 73.7019Z" fill="#1074CC"/>
<path d="M39.525 68.2952C39.463 68.2927 39.406 68.3077 39.3607 68.3411C39.3155 68.3745 39.2846 68.4246 39.2687 68.4846C39.2529 68.5446 39.2529 68.6103 39.2577 68.6751C39.2628 68.7344 39.2694 68.793 39.2772 68.8506C39.3479 69.3689 39.5321 69.8139 39.8217 70.1746C40.1113 70.5353 40.5063 70.8119 40.9975 70.9927C41.0519 71.0127 41.1076 71.0317 41.1644 71.0493C41.2266 71.068 41.2907 71.0821 41.3527 71.0796C41.4148 71.077 41.4704 71.0575 41.5128 71.0205C41.5552 70.9835 41.5819 70.9312 41.5929 70.8701C41.6038 70.8091 41.5985 70.7438 41.5885 70.6797C41.5792 70.6215 41.5689 70.5642 41.5575 70.5081C41.4552 70.003 41.2693 69.5824 40.9911 69.2359C40.7129 68.8893 40.3423 68.6166 39.871 68.4077C39.8186 68.3845 39.765 68.3623 39.7101 68.3406C39.6496 68.317 39.587 68.2977 39.525 68.2952Z" fill="#1074CC"/>
<path d="M85.1853 78.937C85.7344 78.8783 86.2271 79.2758 86.2859 79.825C86.3446 80.3741 85.9471 80.8668 85.3979 80.9255C84.9384 80.9747 84.472 81 84 81C83.528 81 83.0616 80.9747 82.6021 80.9255C82.0529 80.8668 81.6554 80.3741 81.7141 79.825C81.7729 79.2758 82.2656 78.8783 82.8147 78.937C83.2037 78.9786 83.5992 79 84 79C84.4008 79 84.7963 78.9786 85.1853 78.937Z" fill="#C5C5C5"/>
<path d="M76.1096 77.0962C76.436 76.6507 77.0618 76.554 77.5073 76.8804C78.1423 77.3454 78.8287 77.744 79.5562 78.0657C80.0612 78.2891 80.2895 78.8797 80.0662 79.3848C79.8428 79.8898 79.2524 80.1181 78.7473 79.8948C77.8867 79.5142 77.0753 79.0432 76.3254 78.4939C75.8799 78.1675 75.7833 77.5417 76.1096 77.0962Z" fill="#C5C5C5"/>
<path d="M90.4927 76.8804C90.9382 76.554 91.564 76.6507 91.8904 77.0962C92.2167 77.5417 92.1201 78.1675 91.6746 78.4939C90.9247 79.0432 90.1133 79.5142 89.2527 79.8948C88.7476 80.1181 88.1572 79.8898 87.9338 79.3848C87.7105 78.8797 87.9388 78.2891 88.4438 78.0657C89.1713 77.744 89.8577 77.3454 90.4927 76.8804Z" fill="#C5C5C5"/>
<path d="M72.6152 71.9338C73.1203 71.7105 73.7109 71.9388 73.9343 72.4438C74.256 73.1713 74.6546 73.8577 75.1196 74.4927C75.446 74.9382 75.3493 75.564 74.9038 75.8904C74.4583 76.2167 73.8325 76.1201 73.5061 75.6746C72.9568 74.9247 72.4858 74.1133 72.1052 73.2527C71.8819 72.7476 72.1102 72.1572 72.6152 71.9338Z" fill="#C5C5C5"/>
<path d="M94.0657 72.4438C94.2891 71.9388 94.8797 71.7105 95.3848 71.9338C95.8898 72.1572 96.1181 72.7476 95.8948 73.2527C95.5142 74.1133 95.0432 74.9247 94.4939 75.6746C94.1675 76.1201 93.5417 76.2167 93.0962 75.8904C92.6507 75.564 92.554 74.9382 92.8804 74.4927C93.3454 73.8577 93.744 73.1713 94.0657 72.4438Z" fill="#C5C5C5"/>
<path d="M88.5405 63.4187C88.8772 62.981 89.5051 62.899 89.9429 63.2356C90.3806 63.5723 90.4624 64.2002 90.1257 64.6379L83.9595 72.6541C83.3144 73.4926 82.0615 73.5259 81.373 72.7227L77.9072 68.6792C77.5479 68.2599 77.5964 67.6285 78.0156 67.269C78.4349 66.9096 79.0663 66.9582 79.4258 67.3774L82.6245 71.1094L88.5405 63.4187Z" fill="#C5C5C5"/>
<path d="M71.0745 66.6021C71.1332 66.0529 71.6259 65.6554 72.175 65.7141C72.7242 65.7729 73.1217 66.2656 73.063 66.8147C73.0214 67.2037 73 67.5992 73 68C73 68.4008 73.0214 68.7963 73.063 69.1853C73.1217 69.7344 72.7242 70.2271 72.175 70.2859C71.6259 70.3446 71.1332 69.9471 71.0745 69.3979C71.0253 68.9384 71 68.472 71 68C71 67.528 71.0253 67.0616 71.0745 66.6021Z" fill="#C5C5C5"/>
<path d="M95.825 65.7141C96.3741 65.6554 96.8668 66.0529 96.9255 66.6021C96.9747 67.0616 97 67.528 97 68C97 68.472 96.9747 68.9384 96.9255 69.3979C96.8668 69.9471 96.3741 70.3446 95.825 70.2859C95.2758 70.2271 94.8783 69.7344 94.937 69.1853C94.9786 68.7963 95 68.4008 95 68C95 67.5992 94.9786 67.2037 94.937 66.8147C94.8783 66.2656 95.2758 65.7729 95.825 65.7141Z" fill="#C5C5C5"/>
<path d="M73.5061 60.3254C73.8325 59.8799 74.4583 59.7833 74.9038 60.1096C75.3493 60.436 75.446 61.0618 75.1196 61.5073C74.6546 62.1423 74.256 62.8287 73.9343 63.5562C73.7109 64.0612 73.1203 64.2895 72.6152 64.0662C72.1102 63.8428 71.8819 63.2524 72.1052 62.7473C72.4858 61.8867 72.9568 61.0753 73.5061 60.3254Z" fill="#C5C5C5"/>
<path d="M93.0962 60.1096C93.5417 59.7833 94.1675 59.8799 94.4939 60.3254C95.0432 61.0753 95.5142 61.8867 95.8948 62.7473C96.1181 63.2524 95.8898 63.8428 95.3848 64.0662C94.8797 64.2895 94.2891 64.0612 94.0657 63.5562C93.744 62.8287 93.3454 62.1423 92.8804 61.5073C92.554 61.0618 92.6507 60.436 93.0962 60.1096Z" fill="#C5C5C5"/>
<path d="M78.7473 56.1052C79.2524 55.8819 79.8428 56.1102 80.0662 56.6152C80.2895 57.1203 80.0612 57.7109 79.5562 57.9343C78.8287 58.256 78.1423 58.6546 77.5073 59.1196C77.0618 59.446 76.436 59.3493 76.1096 58.9038C75.7833 58.4583 75.8799 57.8325 76.3254 57.5061C77.0753 56.9568 77.8867 56.4858 78.7473 56.1052Z" fill="#C5C5C5"/>
<path d="M87.9338 56.6152C88.1572 56.1102 88.7476 55.8819 89.2527 56.1052C90.1133 56.4858 90.9247 56.9568 91.6746 57.5061C92.1201 57.8325 92.2167 58.4583 91.8904 58.9038C91.564 59.3493 90.9382 59.446 90.4927 59.1196C89.8577 58.6546 89.1713 58.256 88.4438 57.9343C87.9388 57.7109 87.7105 57.1203 87.9338 56.6152Z" fill="#C5C5C5"/>
<path d="M84 55C84.472 55 84.9384 55.0253 85.3979 55.0745C85.9471 55.1332 86.3446 55.6259 86.2859 56.175C86.2271 56.7242 85.7344 57.1217 85.1853 57.063C84.7963 57.0214 84.4008 57 84 57C83.5992 57 83.2037 57.0214 82.8147 57.063C82.2656 57.1217 81.7729 56.7242 81.7141 56.175C81.6554 55.6259 82.0529 55.1332 82.6021 55.0745C83.0616 55.0253 83.528 55 84 55Z" fill="#C5C5C5"/>
</svg>
