<svg width="24" height="24" viewBox="0 0 24 24" fill="none" xmlns="http://www.w3.org/2000/svg">
<path d="M18.7654 7.34802C21.0826 7.96892 22.4577 10.3506 21.8369 12.6678L20.2031 18.7653C19.5822 21.0825 17.2003 22.4577 14.8831 21.8368L8.78564 20.203C7.65569 19.9002 6.74988 19.1785 6.19019 18.2499H8.16016C8.45201 18.4778 8.79361 18.6521 9.17383 18.754L15.2712 20.3878C16.7883 20.7943 18.3477 19.8941 18.7542 18.3771L20.3879 12.2797C20.7944 10.7626 19.8942 9.20325 18.3772 8.79675L18.25 8.76257V7.21008L18.7654 7.34802ZM12.6562 1.99988C15.0552 1.99988 17 3.94467 17 6.34363V12.6561C17 15.0551 15.0552 16.9999 12.6562 16.9999H6.34375C3.9448 16.9999 2.00005 15.0551 2 12.6561V6.34363C2.00003 3.94467 3.94478 1.99988 6.34375 1.99988H12.6562ZM8.8125 10.5826C8.07771 10.1585 7.17229 10.1584 6.4375 10.5826L3.5 12.2787V12.6561C3.50005 14.2266 4.77322 15.4999 6.34375 15.4999H12.6562C13.6635 15.4999 14.5478 14.9757 15.053 14.1857L8.8125 10.5826ZM6.34375 3.49988C4.77321 3.49988 3.50003 4.7731 3.5 6.34363V10.5465L5.6875 9.28381C6.88642 8.59163 8.36358 8.59163 9.5625 9.28381L15.4985 12.7108C15.4989 12.6927 15.5 12.6744 15.5 12.6561V6.34363C15.5 4.7731 14.2268 3.49988 12.6562 3.49988H6.34375ZM11.9219 5.74988C12.6554 5.74988 13.25 6.34453 13.25 7.078C13.25 7.81147 12.6553 8.40613 11.9219 8.40613C11.1884 8.40613 10.5938 7.81147 10.5938 7.078C10.5938 6.34453 11.1884 5.74988 11.9219 5.74988Z" fill="black" fill-opacity="0.84"/>
</svg>
