<svg fill="none" viewBox="0 0 16 16" xmlns="http://www.w3.org/2000/svg">
  <path fill="#FF8D5C" d="M.5 5C.5 3.067 2.067 1.5 4 1.5h8c1.933 0 3.5 1.567 3.5 3.5v6c0 1.933-1.567 3.5-3.5 3.5H4C2.067 14.5.5 12.933.5 11z"/>
  <path fill="#9E2B08" d="M12.16 1.504C14.018 1.588 15.5 3.121 15.5 5v6c0 1.933-1.568 3.5-3.5 3.5H4C2.067 14.5.5 12.933.5 11V5c0-1.879 1.48-3.412 3.34-3.496C2.256 1.587 1 2.897 1 4.5V11h11c1.656 0 3-1.343 3-3V4.5c0-1.603-1.258-2.913-2.84-2.996"/>
  <path fill="#FFD885" d="M7.751 12q.7 0 1.4.16.177.04.349.09c.115.033.225.092.307.182.08.09.127.202.127.318s-.046.228-.127.318c-.082.09-.192.149-.307.182q-.172.05-.348.09-.701.16-1.401.16H6q-1.125 0-2.25-.104-.45-.04-.9-.099-.175-.022-.35-.047c-.123-.018-.242-.073-.33-.165-.086-.092-.135-.211-.135-.335s.049-.243.136-.335.206-.147.329-.165q.175-.025.35-.047.45-.058.9-.1Q4.875 12.002 6 12zm4.749 0q.45 0 .9.203.05.022.1.047c.104.053.203.118.276.205s.115.19.115.295-.042.208-.115.295-.172.152-.276.205q-.05.025-.1.047-.45.203-.9.203t-.9-.203l-.1-.047c-.104-.053-.203-.118-.276-.205s-.115-.19-.115-.295.042-.208.115-.295.172-.152.276-.205l.1-.047q.45-.203.9-.203"/>
  <path fill="#9E2B08" d="M15 5c0-1.657-1.343-3-3-3H4C2.343 2 1 3.343 1 5v6c0 1.657 1.343 3 3 3h8c1.657 0 3-1.343 3-3zm1 6c0 2.21-1.79 4-4 4H4c-2.21 0-4-1.79-4-4V5c0-2.21 1.79-4 4-4h8c2.21 0 4 1.79 4 4z"/>
  <path fill="#671907" d="M10.587 5.786c.585.296.585 1.132 0 1.428L7.16 8.944C6.629 9.215 6 8.828 6 8.232V4.769c0-.596.628-.983 1.16-.714z"/>
</svg>
