<svg width="12" height="12" viewBox="0 0 12 12" fill="none" xmlns="http://www.w3.org/2000/svg">
<path d="M0.5 6.5C0.776142 6.5 1 6.72386 1 7V9.5625C1 9.5684 1.00075 9.57424 1.00098 9.58008L3.91692 7.11006C4.21351 6.85882 4.67079 7.02656 4.73459 7.40998C4.76353 7.58391 4.69886 7.76024 4.56434 7.87423L2.05566 10H4.5C4.77614 10 5 10.2239 5 10.5C5 10.7761 4.77614 11 4.5 11H1.4375C0.643591 11 0 10.3564 0 9.5625V7C0 6.72386 0.223858 6.5 0.5 6.5Z" fill="black"/>
<path d="M10.5625 1C11.3564 1 12 1.64359 12 2.4375V5C12 5.27614 11.7761 5.5 11.5 5.5C11.2239 5.5 11 5.27614 11 5V2.4375C11 2.43324 10.9982 2.42904 10.998 2.4248L8.08183 4.89415C7.78571 5.14489 7.32925 4.97748 7.26547 4.59474C7.2365 4.42094 7.30115 4.24471 7.43564 4.13087L9.95312 2H7.5C7.22386 2 7 1.77614 7 1.5C7 1.22386 7.22386 1 7.5 1H10.5625Z" fill="black"/>
</svg>
