<svg width="16" height="16" viewBox="0 0 16 16" fill="none" xmlns="http://www.w3.org/2000/svg">
<g clip-path="url(#clip0_6184_7400)">
<path d="M8.38065 3.27117C8.28167 2.87527 7.71903 2.87527 7.62006 3.27117L7.40072 4.14851C7.10812 5.31891 6.19427 6.23276 5.02387 6.52536L4.14654 6.74469C3.75063 6.84367 3.75063 7.40631 4.14654 7.50529L5.02387 7.72462C6.19427 8.01722 7.10812 8.93107 7.40072 10.1015L7.62006 10.9788C7.71903 11.3747 8.28167 11.3747 8.38065 10.9788L8.59998 10.1015C8.89258 8.93107 9.80643 8.01722 10.9768 7.72462L11.8542 7.50529C12.2501 7.40631 12.2501 6.84367 11.8542 6.74469L10.9768 6.52536C9.80643 6.23276 8.89258 5.31891 8.59998 4.14851L8.38065 3.27117Z" fill="black" fill-opacity="0.84"/>
<path fill-rule="evenodd" clip-rule="evenodd" d="M1.81448 15.9327C4.47004 15.4766 9.12363 14.5947 11.0148 13.7267C13.9388 12.6665 16 10.1101 16 7.125C16 3.18997 12.4183 0 8 0C3.58172 0 0 3.18997 0 7.125C0 9.09919 0.901524 10.8859 2.35792 12.1762C2.67709 12.459 2.73732 12.9495 2.45793 13.2717L1.16424 14.7634C0.722625 15.2726 1.15017 16.0468 1.81448 15.9327ZM10.4934 12.5907L10.5403 12.5692L10.5887 12.5516C13.1057 11.6389 14.75 9.49669 14.75 7.125C14.75 4.01252 11.868 1.25 8 1.25C4.13201 1.25 1.25 4.01252 1.25 7.125C1.25 8.70234 1.96751 10.1603 3.18687 11.2407C3.95634 11.9224 4.18342 13.19 3.40227 14.0907L3.10482 14.4337C4.14545 14.2421 5.30934 14.0137 6.42936 13.7641C8.16978 13.3762 9.6837 12.9623 10.4934 12.5907Z" fill="black" fill-opacity="0.84"/>
</g>
<defs>
<clipPath id="clip0_6184_7400">
<rect width="16" height="16" fill="white"/>
</clipPath>
</defs>
</svg>
