<svg width="12" height="12" viewBox="0 0 12 12" fill="none" xmlns="http://www.w3.org/2000/svg">
<path d="M8 0C9.02868 4.00001e-08 9.93488 0.518239 10.4746 1.30762C10.689 1.62117 10.4276 1.9999 10.0479 2C9.8516 2 9.67463 1.8915 9.55078 1.73926C9.18438 1.28854 8.6262 1 8 1H4C2.89543 1 2 1.89543 2 3V9L2.01074 9.2041C2.113 10.2128 2.96435 11 4 11H8C8.6262 11 9.18438 10.7115 9.55078 10.2607C9.67463 10.1085 9.8516 10 10.0479 10C10.4276 10.0001 10.689 10.3788 10.4746 10.6924C9.93488 11.4818 9.02868 12 8 12H4C2.39489 12 1.08421 10.7394 1.00391 9.1543L1 9V3C1 1.34315 2.34315 6.44256e-08 4 0H8Z" fill="black"/>
<path d="M9.62402 3.6709C9.80585 3.46337 10.1214 3.44241 10.3291 3.62402L11.4424 4.59766C12.1393 5.20769 12.1393 6.2923 11.4424 6.90234L10.3291 7.87598C10.1214 8.05763 9.80586 8.03667 9.62402 7.8291C9.44242 7.62135 9.46333 7.30584 9.6709 7.12402L10.6689 6.25H7.03027C5.90887 6.25016 5.00018 7.1595 5 8.28125C4.99986 8.55727 4.77605 8.78125 4.5 8.78125C4.22395 8.78125 4.00014 8.55727 4 8.28125C4.00018 6.60756 5.35623 5.25016 7.03027 5.25H10.6689L9.6709 4.37598C9.46335 4.19415 9.44239 3.87864 9.62402 3.6709Z" fill="black"/>
</svg>
