<svg fill="none" viewBox="0 0 24 24" xmlns="http://www.w3.org/2000/svg">
  <path fill="#38B26A" d="M11.969 2c1.074 0 2.18.358 3.115 1.263.606.586 1.62 1.196 3.032 1.646.916.293 1.855.589 2.549 1.23.742.687 1.115 1.664 1.22 3.088.141 1.914.085 4.231-1.347 6.81l-.306.52c-1.06 1.709-2.63 3.043-4.15 3.948-1.496.891-3.055 1.431-4.133 1.431-1.08 0-2.63-.541-4.116-1.433-1.51-.906-3.07-2.24-4.128-3.946-1.728-2.787-1.805-5.29-1.653-7.33l.052-.513c.152-1.15.519-1.974 1.168-2.574.694-.642 1.633-.938 2.55-1.23 1.41-.451 2.425-1.061 3.031-1.647C9.79 2.358 10.894 2 11.97 2"/>
  <path fill="#fff" d="M15.403 8.868c.301-.31.796-.316 1.105-.015s.315.796.014 1.105l-5.117 5.256c-.297.304-.784.316-1.094.025l-2.87-2.69c-.316-.296-.332-.79-.037-1.105s.79-.33 1.105-.036l2.311 2.166z"/>
</svg>
