<svg width="96" height="96" viewBox="0 0 96 96" fill="none" xmlns="http://www.w3.org/2000/svg">
<path d="M63.4497 20.5941C72.0361 20.1354 79.2497 26.974 79.2497 35.5726V52.6866C79.2497 53.1207 79.231 53.5504 79.1948 53.9752C77.5801 53.3635 75.8293 53.0286 74.0002 53.0286C65.9052 53.0286 59.3418 59.5869 59.3335 67.68L25.7121 67.6358C19.2486 67.6273 14.1214 62.1869 14.4958 55.7342L15.8064 33.1531C16.1384 27.4333 20.716 22.8768 26.4372 22.5711L63.4497 20.5941Z" fill="#F5FBFE"/>
<path d="M60.5889 61.7494C59.782 63.5667 59.3335 65.5784 59.3335 67.6949C59.3335 71.2505 60.5988 74.5105 62.7036 77.0494C62.2375 77.2487 61.6606 77.3558 60.9895 77.3558L47.1592 77.3829L47.1582 77.3827L34.5676 77.4076C34.3816 77.4079 34.241 77.2391 34.2751 77.0562C34.4986 75.8614 35.5004 74.9681 36.7129 74.8824L42.5017 74.4732C43.3919 74.4103 43.8625 73.3898 43.3323 72.672L39.5103 67.4994H25.106C21.1529 67.4993 17.5356 65.2762 15.75 61.7494H60.5889Z" fill="#4397E0"/>
<path d="M63.4495 20.5941C72.036 20.1352 79.25 26.9738 79.25 35.5726V53.9957C77.7788 53.4316 76.1937 53.0977 74.5386 53.0379L75.4773 33.7437C75.8371 26.348 69.7254 20.2628 62.3323 20.6537L63.4495 20.5941Z" fill="#4397E0"/>
<path d="M62.325 20.6541L51.8669 21.2132L62.3323 20.6537C62.3298 20.6538 62.3274 20.654 62.325 20.6541Z" fill="#4397E0"/>
<path d="M63.4095 19.8451C72.4249 19.3638 79.9989 26.5446 79.9991 35.5729V52.6867C79.9991 53.2221 79.9721 53.7512 79.92 54.2729C79.4465 54.0637 78.9599 53.879 78.4617 53.7201C78.4862 53.3789 78.4991 53.0342 78.4991 52.6867V35.5729C78.4989 27.4045 71.6464 20.9077 63.4896 21.3432L26.4774 23.3202C21.1375 23.6055 16.865 27.8585 16.555 33.1969L15.2444 55.7777C14.8949 61.8003 19.6803 66.8781 25.713 66.8861L59.3528 66.9301C59.3398 67.1836 59.3333 67.4388 59.3333 67.6955C59.3333 67.9417 59.3394 68.1866 59.3514 68.4298L57.2974 68.4274C58.1698 69.6818 58.9934 70.9629 59.7669 72.2712C60.368 73.2433 59.867 74.6836 58.7637 75.0788C58.5438 75.1634 58.3094 75.2063 58.0806 75.2094C55.9493 75.234 53.8157 75.1479 51.6802 74.9508C51.4268 74.9275 51.173 74.9024 50.9195 74.8759C50.8493 74.8685 50.7813 74.8389 50.7308 74.788C50.6802 74.7371 50.6511 74.6697 50.6497 74.5995C50.6485 74.5295 50.6752 74.461 50.7237 74.4084C50.7723 74.3557 50.8391 74.3234 50.909 74.3134C51.1613 74.2774 51.4139 74.243 51.6663 74.2101C53.793 73.9335 55.922 73.7678 58.0528 73.7128C58.1165 73.7105 58.1732 73.6985 58.2259 73.6784C58.4859 73.5854 58.6526 73.2357 58.5147 72.9543C57.8114 71.5515 57.1605 70.1198 56.5626 68.6596C56.5308 68.582 56.4993 68.5042 56.4678 68.4264L41.0408 68.4062L43.9439 72.4491C44.8163 73.6644 43.9919 75.363 42.4974 75.4298L36.1924 75.7109C35.7844 75.7291 35.4231 75.9494 35.2154 76.2814L60.9459 76.3036C61.3847 76.3036 61.7448 76.2578 62.0374 76.183C62.3448 76.6154 62.6749 77.0305 63.0262 77.4264C62.4293 77.6853 61.715 77.8038 60.9456 77.8039L34.7527 77.7812C33.9938 77.7805 33.4304 77.0775 33.595 76.3366C33.8616 75.138 34.8992 74.2673 36.1258 74.2126L42.4307 73.9313C42.735 73.9175 42.9029 73.5717 42.7254 73.3241L39.1927 68.4037L25.711 68.3861C18.8165 68.377 13.3477 62.5737 13.7471 55.6908L15.0574 33.11C15.4117 27.009 20.2946 22.1482 26.3973 21.8222L63.4095 19.8451Z" fill="#045EB2"/>
<path d="M75.4683 37.1281C75.5403 37.1306 75.6091 37.1616 75.6595 37.2143C75.7099 37.267 75.7377 37.3374 75.7401 37.4096C75.7549 37.8974 75.7693 38.3732 75.7825 38.8485C75.9021 43.1579 75.9507 47.4757 75.7249 51.7878C75.703 52.2328 75.6789 52.6771 75.6531 53.121C75.1636 53.0661 74.6668 53.0354 74.1639 53.0299C74.184 52.5915 74.2051 52.153 74.2266 51.714C74.4515 47.4208 74.6555 43.1342 75.0423 38.8256C75.0853 38.3514 75.1304 37.8767 75.178 37.3905C75.1853 37.3187 75.2177 37.2503 75.2715 37.2011C75.3255 37.152 75.3963 37.1257 75.4683 37.1281Z" fill="#045EB2"/>
<path d="M57.5558 41.1144C58.0517 40.9861 58.528 41.3465 58.5671 41.8705C58.766 44.6999 58.1382 47.6298 56.5739 50.2577C52.7291 56.7232 44.6967 58.9676 38.394 55.442C38.1086 55.2834 37.7495 55.3775 37.5815 55.6647L36.4411 57.5875C36.1584 58.0573 35.4725 57.9578 35.3486 57.4247L33.6164 49.8905C33.5388 49.5671 33.7336 49.2275 34.0585 49.142L41.4035 47.2172C41.9251 47.0803 42.3368 47.6587 42.0541 48.1286L40.8876 50.0863C40.7107 50.3909 40.8035 50.7933 41.1059 50.952C45.0119 52.9807 49.8892 51.5488 52.2404 47.5895L52.2492 47.5807C53.0269 46.2755 53.4247 44.8548 53.4995 43.4411C53.5336 42.6905 54.016 42.0468 54.7258 41.8585L57.5558 41.1144Z" fill="#1074CC"/>
<path d="M53.2497 29.1498C53.5223 28.6799 54.1831 28.7794 54.3019 29.3124L55.9633 36.8463C56.0378 37.1697 55.85 37.5092 55.537 37.5949L48.4623 39.5211C47.96 39.658 47.5641 39.0799 47.8366 38.61L48.9619 36.6517C49.1324 36.3471 49.0431 35.9452 48.7521 35.7865C44.9925 33.7586 40.2945 35.1912 38.027 39.151L38.0185 39.1598C37.2685 40.4652 36.8844 41.8862 36.8112 43.2999C36.7777 44.0504 36.3129 44.694 35.6293 44.8825L32.903 45.6273C32.4254 45.7557 31.9671 45.3952 31.9299 44.8712C31.7407 42.0419 32.3478 39.112 33.8564 36.4838C37.5643 30.0175 45.301 27.7717 51.3674 31.296C51.642 31.4546 51.988 31.3603 52.1501 31.0731L53.2497 29.1498Z" fill="#1074CC"/>
<path d="M25.3005 19.5001C25.6143 19.4996 25.9285 19.5007 26.2426 19.5033C26.3139 19.504 26.3845 19.5281 26.4391 19.5753C26.4938 19.6225 26.5281 19.6883 26.5346 19.7589C26.5411 19.8295 26.5192 19.9003 26.4741 19.9567C26.4289 20.013 26.3638 20.0497 26.2939 20.0634C25.9855 20.123 25.6768 20.1811 25.3681 20.2377C24.9435 20.3155 24.5186 20.3904 24.0934 20.4623C21.8311 20.85 19.7509 21.8499 18.0683 23.3117C16.0805 25.0339 14.6447 27.3986 14.0676 30.0741C14.0032 30.3712 13.9491 30.671 13.9057 30.976C13.8957 31.0465 13.8624 31.1132 13.8085 31.1613C13.7546 31.2093 13.6848 31.2349 13.614 31.2321C13.5431 31.2292 13.4757 31.1983 13.4257 31.1461C13.3758 31.0939 13.348 31.0247 13.3437 30.9535C13.3253 30.631 13.3212 30.3088 13.3322 29.985C13.4145 27.0659 14.8088 24.1346 17.0854 22.1786C18.9993 20.5067 21.5153 19.5473 24.0063 19.5114C24.4374 19.5047 24.8689 19.5009 25.3005 19.5001Z" fill="#1074CC"/>
<path d="M86 67.9453C86 74.5727 80.6274 79.9453 74 79.9453C67.3726 79.9453 62 74.5727 62 67.9453C62 61.3179 67.3726 55.9453 74 55.9453C80.6274 55.9453 86 61.3179 86 67.9453Z" fill="#EC434F"/>
<path d="M80.6672 67C81.2195 67 81.6672 67.4477 81.6672 68C81.6672 68.5523 81.2195 69 80.6672 69H67.334C66.7817 69 66.334 68.5523 66.334 68C66.334 67.4477 66.7817 67 67.334 67H80.6672Z" fill="white"/>
</svg>
