<svg width="128" height="96" viewBox="0 0 128 96" fill="none" xmlns="http://www.w3.org/2000/svg">
<path d="M79.4497 20.5941C88.0361 20.1354 95.2497 26.974 95.2497 35.5726V45.1524C97.9612 45.4578 99.8288 48.1438 99.0647 50.8475L92.5603 73.8602C92.0125 75.7981 90.2436 77.1363 88.2297 77.1363H79.8525C76.8996 77.1363 74.7471 74.3401 75.5022 71.4854L76.5083 67.6815L41.7121 67.6358C35.2486 67.6273 30.1214 62.1869 30.4958 55.7342L31.8064 33.1531C32.1384 27.4333 36.716 22.8768 42.4372 22.5711L79.4497 20.5941Z" fill="#F5FBFE"/>
<path d="M76.5564 67.4994H76.1421C76.2344 67.6553 76.3299 67.8171 76.4282 67.9832L75.5022 71.485C74.8411 73.984 76.4083 76.4378 78.79 77.0106C78.3095 77.2347 77.7027 77.3558 76.9895 77.3558L63.1592 77.3829L63.1582 77.3827L50.5676 77.4076C50.3816 77.4079 50.241 77.2391 50.2751 77.0562C50.4986 75.8614 51.5004 74.9681 52.7129 74.8824L58.5017 74.4732C59.3919 74.4103 59.8625 73.3898 59.3323 72.672L55.5103 67.4994H41.106C37.1529 67.4993 33.5356 65.2762 31.75 61.7494H78.0776L76.5564 67.4994Z" fill="#4397E0"/>
<path d="M79.4495 20.5941C88.036 20.1352 95.25 26.9738 95.25 35.5726V45.1519C95.0812 45.1329 94.909 45.1229 94.7341 45.1229H90.9236L91.4773 33.7437C91.8371 26.348 85.7254 20.2628 78.3323 20.6537L79.4495 20.5941Z" fill="#4397E0"/>
<path d="M78.325 20.6541L67.8669 21.2132L78.3323 20.6537C78.3298 20.6538 78.3274 20.654 78.325 20.6541Z" fill="#4397E0"/>
<path d="M97.019 45.123C99.9653 45.1231 102.117 47.9076 101.373 50.7585L94.6499 76.5439C94.1332 78.5257 92.3434 79.9084 90.2954 79.9084H79.0688C76.1225 79.9084 73.971 77.1242 74.7144 74.2732L81.0342 50.0356C81.1912 49.4333 81.4291 48.869 81.7339 48.3528C81.5723 48.6845 81.4409 49.0354 81.3438 49.4026L75.5022 71.4851C74.7471 74.3398 76.8996 77.1357 79.8525 77.1357H88.2297C90.2436 77.1357 92.0125 75.7978 92.5603 73.8599L99.0647 50.8469C99.8763 47.9751 97.7185 45.123 94.7341 45.123H97.019Z" fill="#75B6EB"/>
<path d="M95.0342 65.091C95.0988 65.0562 95.1741 65.0478 95.244 65.068C95.3138 65.0883 95.3731 65.1359 95.409 65.1999C95.4449 65.2639 95.4544 65.3392 95.4376 65.4101C95.365 65.7149 95.2917 66.0197 95.2176 66.3241C94.6356 68.7145 94.006 71.0912 93.3289 73.454C93.265 73.6767 93.1881 73.8953 93.0982 74.1088C92.4427 75.6851 91.0383 76.8919 89.4383 77.3754C88.8899 77.5445 88.3177 77.6307 87.7476 77.6327C86.8733 77.6347 85.9987 77.6354 85.1243 77.6366C84.8113 77.6371 84.4981 77.6374 84.1851 77.6381C84.1124 77.6382 84.0417 77.609 83.9888 77.5578C83.936 77.5064 83.9051 77.4371 83.9031 77.3644C83.9012 77.2917 83.9283 77.221 83.9783 77.1669C84.0284 77.1129 84.0973 77.0796 84.17 77.0758C84.4827 77.0598 84.7955 77.0435 85.1082 77.0273C85.9814 76.9818 86.8547 76.9358 87.7278 76.891C88.2255 76.8648 88.7167 76.7663 89.1819 76.6C90.5457 76.1171 91.6352 75.0238 92.1766 73.7209C92.2514 73.5431 92.3161 73.3614 92.3707 73.1759C93.0641 70.8179 93.8053 68.4734 94.5938 66.143C94.6942 65.8462 94.7956 65.5496 94.8975 65.2533C94.9213 65.1844 94.9696 65.1258 95.0342 65.091Z" fill="#045EB2"/>
<path fill-rule="evenodd" clip-rule="evenodd" d="M79.4097 19.8451C88.4251 19.3638 95.9988 26.5447 95.9991 35.5729V44.3737H96.3721C100.137 44.3738 102.886 47.9315 101.936 51.5744L95.4732 76.36C94.8129 78.8921 92.526 80.659 89.9092 80.6591H79.7161C77.5564 80.6591 75.7313 79.488 74.7466 77.8019L50.7527 77.7812C49.9939 77.7803 49.4304 77.0774 49.595 76.3366C49.8616 75.1382 50.8993 74.2674 52.1258 74.2126L58.4307 73.9313C58.735 73.9175 58.9029 73.5716 58.7254 73.3241L55.1927 68.4037L41.7112 68.3861C34.8168 68.3769 29.3477 62.5737 29.7471 55.6908L31.0574 33.11C31.4117 27.0091 36.295 22.1482 42.3975 21.8222L79.4097 19.8451ZM86.9517 45.8737C84.5624 45.8737 82.4743 47.487 81.8714 49.799L75.6036 73.8368C74.9015 76.5294 76.9335 79.1591 79.7161 79.1591H89.9092C91.8434 79.159 93.5337 77.8531 94.0218 75.9816L100.485 51.196C101.187 48.5034 99.1547 45.8738 96.3721 45.8737H86.9517ZM59.9439 72.4491C60.8163 73.6644 59.9919 75.363 58.4974 75.4298L52.1924 75.7108C51.7845 75.7292 51.4231 75.9495 51.2154 76.2814L74.1336 76.3009C74.0449 75.9473 73.9898 75.5823 73.9708 75.2101C71.8762 75.2306 69.7791 75.1444 67.6805 74.9508C67.4271 74.9275 67.1732 74.9024 66.9197 74.8759C66.8496 74.8684 66.7815 74.8388 66.731 74.788C66.6805 74.7371 66.6513 74.6696 66.65 74.5995C66.6487 74.5295 66.6754 74.461 66.7239 74.4084C66.7725 74.3558 66.8395 74.3234 66.9092 74.3134C67.1615 74.2774 67.4143 74.2429 67.6666 74.2101C69.7931 73.9335 71.9223 73.7678 74.053 73.7128C74.0666 73.7123 74.0799 73.7112 74.0928 73.7099C74.1108 73.6261 74.1303 73.5423 74.1522 73.4584L74.3633 72.6481C73.7181 71.3433 73.1174 70.0138 72.5628 68.6596C72.5311 68.582 72.4995 68.5041 72.4681 68.4264L57.0408 68.4062L59.9439 72.4491ZM73.2977 68.4274C73.8345 69.1994 74.3524 69.9819 74.8519 70.7743L75.4632 68.4301L73.2977 68.4274ZM94.4991 35.5729C94.4988 27.4046 87.6465 20.9077 79.4898 21.3432L42.4776 23.3202C37.1379 23.6055 32.865 27.8586 32.555 33.1969L31.2444 55.7777C30.8949 61.8002 35.6806 66.8781 41.7132 66.8861L75.8541 66.9306L80.42 49.4206C81.1951 46.448 83.8797 44.3737 86.9517 44.3737H90.629C90.7439 42.5269 90.8762 40.6782 91.0425 38.8256C91.0855 38.3514 91.1306 37.8767 91.1783 37.3905C91.1855 37.3187 91.2179 37.2502 91.2718 37.2011C91.3257 37.1521 91.3966 37.1257 91.4686 37.1281C91.5405 37.1307 91.6094 37.1617 91.6597 37.2143C91.7101 37.2669 91.7379 37.3375 91.7403 37.4096C91.7551 37.8973 91.7695 38.3732 91.7828 38.8485C91.8339 40.689 91.8717 42.5312 91.8809 44.3737H94.4991V35.5729Z" fill="#045EB2"/>
<path fill-rule="evenodd" clip-rule="evenodd" d="M90.7016 55.1688C91.2299 55.1688 91.6343 55.4434 91.7578 55.8817L91.7797 55.9677C91.9032 56.4059 92.3076 56.6805 92.8359 56.6806H93.162C94.2487 56.6806 94.8854 57.5172 94.5839 58.5492L93.0688 63.7355C92.7435 64.8486 91.5295 65.7511 90.3574 65.7511H81.8671C80.695 65.7511 80.0083 64.8486 80.3334 63.7355L81.8486 58.5492C82.1501 57.5173 83.2753 56.6806 84.362 56.6806H84.6884C85.1997 56.6805 85.7449 56.4232 86.1235 56.0094L86.2704 55.84C86.6491 55.4261 87.1944 55.1689 87.7057 55.1688H90.7016ZM88.3205 58.1923C86.5621 58.1923 84.7412 59.5461 84.2534 61.216C83.7657 62.8857 84.7956 64.2394 86.5539 64.2394C88.3122 64.2393 90.1331 62.8857 90.621 61.216C91.1089 59.5462 90.0788 58.1923 88.3205 58.1923Z" fill="#1074CC"/>
<path d="M52.4033 48.1101C52.969 48.0994 53.4043 48.5489 53.3755 49.114L53.2712 51.1602C53.2424 51.7251 52.7604 52.1919 52.1948 52.2026L50.1462 52.2412C49.5807 52.2518 49.1454 51.8025 49.1741 51.2375L49.2786 49.1912C49.3074 48.6261 49.7893 48.1594 50.355 48.1487L52.4033 48.1101Z" fill="#1074CC"/>
<path fill-rule="evenodd" clip-rule="evenodd" d="M53.9185 43.4817C56.3225 43.4364 58.1722 45.3465 58.0498 47.748L57.8149 52.3523C57.6924 54.7538 55.6443 56.7374 53.2402 56.7827L48.6313 56.8696C46.2273 56.9149 44.3777 55.0048 44.5 52.6033L44.7346 47.999C44.8571 45.5975 46.9053 43.614 49.3093 43.5686L53.9185 43.4817ZM49.179 46.1265C48.1891 46.1452 47.3456 46.9619 47.2952 47.9507L47.0605 52.5549C47.0102 53.5437 47.7719 54.3304 48.7617 54.3118L53.3706 54.2249C54.3605 54.2062 55.2039 53.3894 55.2544 52.4006L55.4893 47.7964C55.5397 46.8075 54.778 46.0209 53.7881 46.0396L49.179 46.1265Z" fill="#1074CC"/>
<path d="M68.6147 48.0024C69.1804 47.9918 69.6157 48.4413 69.5869 49.0063L69.4827 51.0527C69.4537 51.6177 68.9718 52.0845 68.4062 52.0952L66.3577 52.1338C65.7921 52.1444 65.357 51.6948 65.3857 51.1299L65.49 49.0835C65.5188 48.5185 66.0008 48.0517 66.5664 48.041L68.6147 48.0024Z" fill="#1074CC"/>
<path fill-rule="evenodd" clip-rule="evenodd" d="M70.1299 43.374C72.5339 43.3287 74.3836 45.2389 74.2612 47.6404L74.0264 52.2446C73.9039 54.6461 71.8557 56.63 69.4517 56.6753L64.8428 56.762C62.4388 56.8072 60.5891 54.8971 60.7114 52.4956L60.946 47.8914C61.0685 45.4899 63.1167 43.5063 65.5208 43.4609L70.1299 43.374ZM65.3904 46.0188C64.4005 46.0375 63.557 46.8544 63.5066 47.8433L63.272 52.4475C63.2217 53.4362 63.9833 54.2227 64.9731 54.2041L69.5823 54.1172C70.5721 54.0985 71.4153 53.2817 71.4658 52.293L71.7007 47.6887C71.7511 46.6999 70.9894 45.9133 69.9995 45.9319L65.3904 46.0188Z" fill="#1074CC"/>
<path d="M53.238 31.7393C53.8036 31.7286 54.2387 32.1782 54.21 32.7432L54.1057 34.7893C54.0769 35.3544 53.595 35.8214 53.0293 35.832L50.981 35.8706C50.4154 35.8812 49.98 35.4317 50.0088 34.8667L50.113 32.8203C50.1419 32.2553 50.6239 31.7886 51.1895 31.7778L53.238 31.7393Z" fill="#1074CC"/>
<path fill-rule="evenodd" clip-rule="evenodd" d="M54.7529 27.1108C57.157 27.0655 59.0066 28.9757 58.8843 31.3772L58.6497 35.9817C58.5271 38.3832 56.479 40.3668 54.075 40.4121L49.4658 40.499C47.0618 40.5443 45.2121 38.6341 45.3345 36.2327L45.5691 31.6282C45.6916 29.2267 47.7398 27.2432 50.1438 27.1978L54.7529 27.1108ZM50.0134 29.7556C49.0237 29.7744 48.1804 30.5911 48.1299 31.5798L47.895 36.1843C47.8447 37.1731 48.6064 37.9598 49.5962 37.9412L54.2053 37.8542C55.1952 37.8356 56.0386 37.0188 56.0891 36.03L56.3237 31.4255C56.3741 30.4367 55.6124 29.65 54.6226 29.6687L50.0134 29.7556Z" fill="#1074CC"/>
<path d="M63.0156 35.6438C63.7227 35.6305 64.2667 36.1924 64.2307 36.8987L64.2046 37.4104L67.0212 37.3572C67.7283 37.3439 68.2723 37.9057 68.2363 38.6121C68.2002 39.3183 67.5979 39.9017 66.8909 39.915L63.05 39.9875C63.0069 39.9884 62.9642 39.987 62.9224 39.9836C62.8801 39.9886 62.8371 39.9916 62.7939 39.9924C62.087 40.0057 61.5429 39.4438 61.5789 38.7375L61.6702 36.947C61.7062 36.2407 62.3086 35.6572 63.0156 35.6438Z" fill="#1074CC"/>
<path d="M73.4958 33.0713C74.2029 33.058 74.7468 33.6197 74.7109 34.3259L74.5154 38.1631C74.5132 38.2062 74.509 38.2492 74.5027 38.2913C74.5047 38.3332 74.5046 38.3759 74.5024 38.4189C74.4663 39.1252 73.864 39.7086 73.157 39.7219L71.3645 39.7559C70.6575 39.7691 70.1135 39.2072 70.1494 38.501C70.1854 37.7947 70.7878 37.2114 71.4949 37.198L72.0071 37.1882L72.1504 34.3743C72.1865 33.668 72.7889 33.0847 73.4958 33.0713Z" fill="#1074CC"/>
<path d="M69.3696 31.4353C70.0767 31.422 70.6206 31.9837 70.5847 32.6899L70.5066 34.2249C70.4705 34.9311 69.8682 35.5147 69.1611 35.5281L67.6248 35.5571C66.9177 35.5704 66.3737 35.0083 66.4097 34.302L66.4878 32.7673C66.5239 32.0611 67.1263 31.4775 67.8333 31.4641L69.3696 31.4353Z" fill="#1074CC"/>
<path d="M65.4944 27.1641C66.2014 27.1507 66.7454 27.7124 66.7095 28.4187C66.6735 29.125 66.0711 29.7086 65.364 29.7219L64.5959 29.7363L64.4656 32.2942C64.4296 33.0005 63.827 33.5841 63.1199 33.5974C62.4129 33.6106 61.8688 33.0488 61.9048 32.3425L62.1006 28.5056C62.1367 27.7994 62.739 27.216 63.446 27.2026L65.4944 27.1641Z" fill="#1074CC"/>
<path d="M74.2004 27C74.9075 26.9867 75.4514 27.5484 75.4155 28.2546L75.3242 30.0452C75.2882 30.7515 74.6858 31.3351 73.9788 31.3484C73.2717 31.3616 72.7277 30.7998 72.7637 30.0935L72.7898 29.582L69.9731 29.635C69.2661 29.6483 68.7221 29.0864 68.7581 28.3801C68.7942 27.6739 69.3965 27.0905 70.1035 27.0771L74.2004 27Z" fill="#1074CC"/>
<path d="M41.3005 19.5001C41.6143 19.4996 41.9285 19.5007 42.2426 19.5033C42.3139 19.504 42.3845 19.5281 42.4391 19.5753C42.4938 19.6225 42.5281 19.6883 42.5346 19.7589C42.5411 19.8295 42.5192 19.9003 42.4741 19.9567C42.4289 20.013 42.3638 20.0497 42.2939 20.0634C41.9855 20.123 41.6768 20.1811 41.3681 20.2377C40.9435 20.3155 40.5186 20.3904 40.0934 20.4623C37.8311 20.85 35.7509 21.8499 34.0683 23.3117C32.0805 25.0339 30.6447 27.3986 30.0676 30.0741C30.0032 30.3712 29.9491 30.671 29.9057 30.976C29.8957 31.0465 29.8624 31.1132 29.8085 31.1613C29.7546 31.2093 29.6848 31.2349 29.614 31.2321C29.5431 31.2292 29.4757 31.1983 29.4257 31.1461C29.3758 31.0939 29.348 31.0247 29.3437 30.9535C29.3253 30.631 29.3212 30.3088 29.3322 29.985C29.4145 27.0659 30.8088 24.1346 33.0854 22.1786C34.9993 20.5067 37.5153 19.5473 40.0063 19.5114C40.4374 19.5047 40.8689 19.5009 41.3005 19.5001Z" fill="#1074CC"/>
</svg>
