<svg width="24" height="24" viewBox="0 0 24 24" fill="none" xmlns="http://www.w3.org/2000/svg">
<path d="M17.375 3.875C19.4461 3.875 21.125 5.55393 21.125 7.625V11.8644C21.125 12.0364 20.9198 12.1307 20.7829 12.0264C19.7328 11.2261 18.4223 10.75 17 10.75C13.5482 10.75 10.75 13.5482 10.75 17C10.75 18.1387 11.0558 19.2055 11.5879 20.125H6.625C4.55393 20.125 2.875 18.4461 2.875 16.375V7.625C2.875 5.55393 4.55393 3.875 6.625 3.875H17.375Z" fill="#FF8D5C"/>
<path d="M10.8311 16C10.7787 16.3257 10.75 16.6595 10.75 17C10.75 18.015 10.993 18.9729 11.4226 19.8202C11.4922 19.9576 11.3951 20.125 11.2411 20.125H6.75C4.67893 20.125 3 18.4461 3 16.375V16H10.8311Z" fill="url(#paint0_linear_13193_123507)"/>
<path d="M17 3C19.7614 3 22 5.23858 22 8V11.7512C22 12.2315 21.3378 12.4745 20.9669 12.1695C20.8959 12.1111 20.8236 12.0543 20.75 11.999V8C20.75 5.92893 19.0711 4.25 17 4.25H7C4.92893 4.25 3.25 5.92893 3.25 8V16C3.25 18.0711 4.92893 19.75 7 19.75H11.3867C11.4494 19.8777 11.5163 20.003 11.5873 20.1256C11.7996 20.4926 11.5542 21 11.1302 21H7C4.23858 21 2 18.7614 2 16V8C2 5.23858 4.23858 3 7 3H17ZM10.875 15.75C10.793 16.1539 10.75 16.5719 10.75 17H5.625C5.27982 17 5 16.7202 5 16.375C5 16.0298 5.27982 15.75 5.625 15.75H10.875Z" fill="#9E2B08"/>
<path d="M15.1783 9.11368C15.8943 9.48769 15.8943 10.5124 15.1783 10.8864L10.4632 13.3494C9.79737 13.6972 9.00015 13.2142 9.00015 12.4631L9.00015 7.537C9.00015 6.78585 9.79737 6.30286 10.4632 6.65064L15.1783 9.11368Z" fill="#47140B"/>
<path d="M21.375 17C21.375 19.4162 19.4162 21.375 17 21.375C14.5838 21.375 12.625 19.4162 12.625 17C12.625 14.5838 14.5838 12.625 17 12.625C19.4162 12.625 21.375 14.5838 21.375 17Z" fill="#D83544"/>
<path d="M19 16.375C19.3452 16.375 19.625 16.6548 19.625 17C19.625 17.3452 19.3452 17.625 19 17.625H15C14.6548 17.625 14.375 17.3452 14.375 17C14.375 16.6548 14.6548 16.375 15 16.375H19Z" fill="white"/>
<path d="M17 12C19.7614 12 22 14.2386 22 17C22 19.7614 19.7614 22 17 22C14.2386 22 12 19.7614 12 17C12 14.2386 14.2386 12 17 12ZM17 13.25C14.9289 13.25 13.25 14.9289 13.25 17C13.25 19.0711 14.9289 20.75 17 20.75C19.0711 20.75 20.75 19.0711 20.75 17C20.75 14.9289 19.0711 13.25 17 13.25Z" fill="#A02231"/>
<defs>
<linearGradient id="paint0_linear_13193_123507" x1="20.125" y1="12" x2="3.875" y2="12" gradientUnits="userSpaceOnUse">
<stop stop-color="#FFDACC"/>
<stop offset="0.831024" stop-color="#FFDACC" stop-opacity="0.666667"/>
</linearGradient>
</defs>
</svg>
