<svg width="128" height="96" viewBox="0 0 128 96" fill="none" xmlns="http://www.w3.org/2000/svg">
<path d="M42.3268 75.7786L50.8295 57.03C51.4436 55.6759 50.7453 54.0886 49.3322 53.6263L38.4473 50.0653C36.4558 49.4138 36.1046 46.7468 37.8595 45.6019L81.373 17.2132C83.436 15.8673 85.9949 18.0057 85.0368 20.2749L77.3532 38.4739C76.8219 39.7324 77.4008 41.1843 78.6524 41.7319L89.6985 46.5648C91.5306 47.3664 91.7235 49.8894 90.0345 50.9602L45.937 78.918C43.8422 80.2461 41.3024 78.0375 42.3268 75.7786Z" fill="#FAB341"/>
<path d="M42.2024 76.0527L50.8295 57.0294C51.4436 55.6753 50.7453 54.088 49.3322 53.6257L38.4473 50.0647C36.4558 49.4132 36.1046 46.7462 37.8595 45.6013L81.8777 16.8833C82.7836 16.2923 83.7852 17.4851 83.0464 18.2752L64.7471 37.8428C63.5727 39.0986 63.9897 41.138 65.5629 41.832L77.8571 47.2548C79.5862 48.0174 79.8737 50.3502 78.3816 51.5099L44.4856 77.8539C43.2509 78.8136 41.5565 77.4768 42.2024 76.0527Z" fill="#FFD885"/>
<path d="M78.9925 22.5291C79.0664 22.5274 79.1379 22.5547 79.1914 22.6053C79.2449 22.6559 79.2764 22.7259 79.2788 22.7999C79.2812 22.8738 79.2542 22.9458 79.2049 23.0006C78.3352 23.9656 77.4642 24.9295 76.5923 25.8924C72.7669 30.1169 68.9197 34.321 65.0506 38.5042C64.1806 39.379 64.5655 41.0307 65.6966 41.4327C69.7531 43.0929 73.803 44.7696 77.8457 46.4627C77.9908 46.5235 78.136 46.5843 78.281 46.6451C80.5216 47.4661 80.9491 50.8639 78.99 52.2125C71.1865 58.1218 63.3291 63.9606 55.418 69.7288C54.3683 70.4942 53.3177 71.2585 52.2661 72.0213C52.2065 72.0646 52.1322 72.0835 52.0589 72.0733C51.9856 72.0631 51.9192 72.0247 51.8745 71.9661C51.8299 71.9076 51.8103 71.8335 51.8198 71.7601C51.8294 71.6867 51.8674 71.6201 51.9248 71.574C52.9385 70.7615 53.9532 69.95 54.9688 69.14C62.6228 63.0347 70.3307 57.0001 78.0923 51.036C79.1501 50.3031 78.9056 48.4604 77.7017 48.0286C77.5565 47.9679 77.4113 47.907 77.2661 47.8463C73.2234 46.1532 69.1875 44.4437 65.1585 42.7178C63.1609 41.9543 62.5864 39.0677 64.1057 37.6104C68.0667 33.5142 72.0495 29.4385 76.0542 25.3836C76.967 24.4593 77.8811 23.536 78.7962 22.6138C78.8481 22.5616 78.9185 22.5309 78.9925 22.5291Z" fill="#B66A1F"/>
<path fill-rule="evenodd" clip-rule="evenodd" d="M81.0276 16.5389C83.6792 14.8108 87.0072 17.5387 85.7674 20.4754L78.0303 38.8006C77.6672 39.6607 78.0629 40.655 78.9263 41.0328L90.0242 45.8883C92.393 46.9247 92.6358 50.1795 90.4446 51.5523L46.3562 79.4471L46.356 79.4468C43.6684 81.1783 40.3336 78.3603 41.6653 75.4237L50.1651 56.6817C50.5847 55.7562 50.1073 54.6686 49.1311 54.3492L38.1521 50.7574C35.6254 49.9306 35.1422 46.5967 37.2879 45.0843L37.3921 45.0137L81.0274 16.5391L81.0276 16.5389ZM84.3855 19.8919C85.0385 18.3452 83.283 16.8595 81.8467 17.7955L81.8465 17.7952L38.2117 46.2701L38.2115 46.2703C37.0055 47.0566 37.2441 48.8821 38.6187 49.3319L49.5974 52.9237C51.4172 53.519 52.3221 55.5569 51.531 57.3013L43.0315 76.043C42.3298 77.5903 44.0905 79.1267 45.5476 78.1837L45.5542 78.1793L89.6428 50.285L89.6463 50.2828C90.8164 49.5516 90.6903 47.817 89.4231 47.2625L78.325 42.4068C76.7137 41.7017 75.9644 39.8378 76.6485 38.2174L84.3855 19.8919Z" fill="#B66A1F"/>
<path d="M78.4241 65.2337C78.4684 65.2141 78.5188 65.2108 78.565 65.2261C78.6112 65.2415 78.6493 65.2741 78.6712 65.3169C78.6931 65.3598 78.6972 65.4098 78.6827 65.4563C78.6681 65.503 78.6358 65.5422 78.594 65.5667C78.276 65.7534 77.9536 65.9409 77.6348 66.1253C74.7523 67.7916 71.8201 69.3777 68.8611 70.8841C65.8969 72.3927 62.894 73.8261 59.8509 75.1858C59.5186 75.3339 59.1799 75.4844 58.8348 75.6368C58.7905 75.6562 58.74 75.6593 58.6939 75.6438C58.6478 75.6283 58.6097 75.5955 58.5879 75.5525C58.5662 75.5096 58.5625 75.4594 58.5772 75.4129C58.592 75.3664 58.6243 75.3276 58.6661 75.3033C58.9925 75.1139 59.3135 74.9283 59.629 74.7469C62.5203 73.0869 65.4474 71.5035 68.4114 69.9949C71.3703 68.4886 74.3774 67.0528 77.4114 65.6868C77.7471 65.5357 78.0872 65.3834 78.4241 65.2337Z" fill="#F5A031"/>
<path d="M86.2137 61.4898C86.2586 61.4812 86.3058 61.482 86.3475 61.4983C86.3891 61.5146 86.4215 61.5445 86.4385 61.5831C86.4555 61.6216 86.456 61.6668 86.4407 61.7103C86.4254 61.7538 86.3953 61.792 86.3597 61.8218C86.2968 61.8742 86.2332 61.9256 86.1695 61.9761C85.5958 62.4311 84.9893 62.8114 84.3499 63.117C83.7104 63.4226 83.0381 63.6536 82.3328 63.8099C82.2545 63.8272 82.1756 63.8437 82.0965 63.8592C82.0515 63.8679 82.0041 63.8669 81.9625 63.8506C81.9208 63.8343 81.8882 63.8045 81.8711 63.7659C81.8541 63.7273 81.8536 63.682 81.8689 63.6385C81.8843 63.595 81.9144 63.557 81.95 63.5271C82.0129 63.4747 82.0764 63.4234 82.1402 63.3728C82.7139 62.9179 83.3205 62.5376 83.96 62.232C84.5995 61.9264 85.2719 61.6954 85.9771 61.5391C86.0554 61.5218 86.1345 61.5053 86.2137 61.4898Z" fill="#F5A031"/>
</svg>
