<svg width="16" height="16" viewBox="0 0 16 16" fill="none" xmlns="http://www.w3.org/2000/svg">
<g clip-path="url(#clip0_13193_106263)">
<path d="M1.16435 14.7634C0.722726 15.2726 1.15034 16.0468 1.81466 15.9326C4.4693 15.4765 9.12032 14.5949 11.0127 13.7272C13.9377 12.6674 15.9999 10.1109 16 7.12514C16 3.19011 12.4183 0.000139236 8 0.000139236C3.58172 0.000139236 0 3.19011 0 7.12514C3.71645e-05 9.09931 0.901716 10.8858 2.35814 12.1761C2.67733 12.4589 2.73756 12.9494 2.45817 13.2715L1.16435 14.7634Z" fill="#4397E0"/>
<path d="M15 7.12511C15 9.61993 13.2712 11.8454 10.6719 12.7872L10.6333 12.8009L10.5957 12.818C9.75799 13.202 8.21986 13.621 6.48193 14.0084C5.10017 14.3164 3.65283 14.5911 2.45166 14.8052L3.21387 13.9268C3.89465 13.1418 3.70093 12.0293 3.02148 11.4273C1.7942 10.34 1.04788 8.87646 1.00244 7.27989L1 7.12511C1.00001 3.84814 4.02196 1.00013 8 1.00013V0.000139236L7.79346 0.00258064C3.53933 0.0985994 0.110334 3.15223 0.00244141 6.94102L0 7.12511C3.60034e-05 9.03759 0.846128 10.774 2.22314 12.0538L2.35791 12.1759C2.67709 12.4586 2.7374 12.9494 2.45801 13.2716L1.16455 14.7633C0.722973 15.2724 1.15026 16.0466 1.81445 15.9327C4.46909 15.4766 9.12032 14.5948 11.0127 13.7271C13.9377 12.6673 15.9999 10.1108 16 7.12511L15.9976 6.94102C15.8879 3.0911 12.3492 0.000139236 8 0.000139236V1.00013C11.9159 1.00013 14.9051 3.75982 14.9976 6.97179L15 7.12511Z" fill="#045EB2"/>
<path d="M7.63243 2.78699C7.72809 2.40434 8.27191 2.40434 8.36757 2.78699L8.80584 4.54007C9.00947 5.35457 9.64543 5.99053 10.4599 6.19416L12.213 6.63243C12.5957 6.72809 12.5957 7.27191 12.213 7.36757L10.4599 7.80584C9.64543 8.00947 9.00947 8.64543 8.80584 9.45993L8.36757 11.213C8.27191 11.5957 7.72809 11.5957 7.63243 11.213L7.19416 9.45993C6.99053 8.64543 6.35457 8.00947 5.54007 7.80584L3.78699 7.36757C3.40434 7.27191 3.40434 6.72809 3.78699 6.63243L5.54007 6.19416C6.35457 5.99053 6.99053 5.35457 7.19416 4.54007L7.63243 2.78699Z" fill="white"/>
<path d="M6.66213 2.54443C6.9994 1.19535 8.86735 1.15324 9.30032 2.41796L9.33791 2.54443L9.7759 4.29736C9.88996 4.75357 10.2464 5.11006 10.7027 5.22412L12.4556 5.6621C13.8482 6.01026 13.8482 7.98974 12.4556 8.33789L10.7027 8.77587C10.2464 8.88993 9.88996 9.24642 9.7759 9.70263L9.33791 11.4556C8.98976 12.8482 7.01028 12.8482 6.66213 11.4556L6.22415 9.70263C6.11009 9.24642 5.7536 8.88993 5.29739 8.77587L3.54446 8.33789C2.15184 7.98973 2.15185 6.01025 3.54446 5.6621L5.29739 5.22412C5.7536 5.11006 6.11009 4.75357 6.22415 4.29736L6.66213 2.54443ZM8.00002 5.2705C7.66896 6.04854 7.04857 6.66893 6.27053 6.99999C7.04843 7.331 7.66892 7.95116 8.00002 8.729C8.33107 7.95129 8.95132 7.33104 9.72903 6.99999C8.95118 6.66889 8.33103 6.0484 8.00002 5.2705Z" fill="#4397E0"/>
<path d="M7.63243 2.78699C7.72809 2.40434 8.27191 2.40434 8.36757 2.78699L8.80584 4.54007C9.00947 5.35457 9.64543 5.99053 10.4599 6.19416L12.213 6.63243C12.5957 6.72809 12.5957 7.27191 12.213 7.36757L10.4599 7.80584C9.64543 8.00947 9.00947 8.64543 8.80584 9.45993L8.36757 11.213C8.27191 11.5957 7.72809 11.5957 7.63243 11.213L7.19416 9.45993C6.99053 8.64543 6.35457 8.00947 5.54007 7.80584L3.78699 7.36757C3.40434 7.27191 3.40434 6.72809 3.78699 6.63243L5.54007 6.19416C6.35457 5.99053 6.99053 5.35457 7.19416 4.54007L7.63243 2.78699Z" fill="white"/>
</g>
<defs>
<clipPath id="clip0_13193_106263">
<rect width="16" height="16" fill="white"/>
</clipPath>
</defs>
</svg>
