<svg width="128" height="96" viewBox="0 0 128 96" fill="none" xmlns="http://www.w3.org/2000/svg">
<path d="M61.3989 20.8398C65.9482 20.8398 68.072 24.1182 69.0386 26.6946C69.6861 28.4207 71.0951 29.9057 72.9229 30.147L87.2983 32.0442C91.7285 32.6213 95.25 35.6615 95.25 40.1238V54.2466C93.6203 53.6218 91.8508 53.2793 90.0012 53.2793C81.901 53.2793 75.3345 59.8459 75.3345 67.946C75.3345 70.6045 76.0419 73.0977 77.2786 75.2478H40.7249C36.3334 75.2477 32.7735 71.6304 32.7734 67.1682V40.1238C32.7734 35.6616 36.5219 32.9676 40.7249 32.0442L45.0283 30.6335C46.6627 30.0978 47.7459 28.5542 48.1724 26.8879C48.8384 24.2855 50.601 20.8399 55.2649 20.8398H61.3989Z" fill="#C19EDB"/>
<path d="M32.7734 53.2148C33.5867 73.9249 50.1199 75.1876 53.0896 75.2471H39.2676C35.6809 75.2471 32.7734 71.6411 32.7734 67.1931V53.2148Z" fill="#9F6EB8"/>
<path d="M75.7078 71.2505C76.0353 72.6729 76.5699 74.0162 77.2778 75.2471H65.1589C69.1638 75.2471 72.8761 73.7549 75.7078 71.2505Z" fill="#9F6EB8"/>
<path d="M84.2327 47.9673C87.5938 43.0801 95.25 45.4587 95.25 51.3901V54.2463C93.6202 53.6214 91.8505 53.2788 90.0007 53.2788C87.1309 53.2788 84.4536 54.1032 82.1926 55.5278L83.2927 50.1743C83.4553 49.3832 83.775 48.6328 84.2327 47.9673Z" fill="#9F6EB8"/>
<path d="M58.1042 25.1367C60.3034 25.1367 62.3468 26.2714 63.5095 28.1379L64.219 29.2769C64.5683 29.8377 64.1213 30.5566 63.4631 30.4985C59.0826 30.1123 56.0745 30.0963 51.665 30.5042C51.0335 30.5625 50.5812 29.9001 50.8733 29.3372L51.271 28.571C52.3663 26.461 54.5457 25.1367 56.9231 25.1367H58.1042Z" fill="#9F6EB8"/>
<path d="M60.5452 49.0723C61.3276 50.2778 61.2789 51.6907 60.4366 52.2282C59.5942 52.7657 58.2771 52.2242 57.4947 51.0187C56.7124 49.8132 56.761 48.4002 57.6034 47.8627C58.4458 47.3252 59.7629 47.8668 60.5452 49.0723Z" fill="#EADAFD"/>
<path d="M61.3992 20.0898C66.4195 20.0898 68.7334 23.7455 69.741 26.4312C70.3258 27.9899 71.5534 29.2099 73.0212 29.4036L87.3967 31.3005C92.0891 31.9123 96.0002 35.1832 96.0002 40.1238V54.5583C95.5137 54.34 95.0132 54.1473 94.5002 53.9822V40.1238C94.5002 36.1403 91.3693 33.3308 87.2019 32.7878H87.2004L84.8481 32.4773L84.8484 32.4771L72.825 30.8906C70.6373 30.6019 69.0468 28.8515 68.3364 26.958C67.4109 24.491 65.4774 21.5898 61.3992 21.5898H55.2651C53.1436 21.5898 51.7348 22.3632 50.7681 23.3997C49.7797 24.4593 49.2156 25.8375 48.8992 27.074C48.4328 28.8962 47.2186 30.7049 45.2622 31.3462L40.9587 32.7568C40.9349 32.7647 40.9105 32.7712 40.886 32.7766C36.8867 33.6553 33.6268 36.1085 33.5259 39.9402L33.5234 40.1238L33.5237 67.1682C33.5237 71.2275 36.7591 74.4977 40.7251 74.4978H76.8757C77.1349 75.016 77.4237 75.5168 77.7402 75.9978H40.7251C35.9082 75.9977 32.0237 72.0333 32.0237 67.1682L32.0234 40.1238C32.0234 35.1515 36.1953 32.2835 40.5242 31.3206L44.7949 29.9209C46.1073 29.4907 47.0595 28.2122 47.446 26.7019C47.7956 25.336 48.4458 23.6902 49.6711 22.3765C50.9182 21.0394 52.7228 20.0898 55.2651 20.0898H61.3992Z" fill="#682A7A"/>
<path d="M47.906 41.9878C51.6889 39.5923 56.6841 39.5013 60.5925 41.4646C61.7923 42.0538 62.9006 42.8169 63.874 43.7173C63.9282 43.7674 63.9618 43.8366 63.9661 43.9102C63.9703 43.9838 63.9452 44.056 63.8962 44.1108C63.8473 44.1656 63.7782 44.199 63.7041 44.2036C63.63 44.2082 63.5571 44.1832 63.5005 44.1357C62.5258 43.3174 61.4374 42.6406 60.2793 42.1326C56.4965 40.4391 51.9197 40.7253 48.5554 42.9883C42.9576 46.5167 41.707 54.6852 45.3772 60.0269C45.7028 60.5271 46.0589 61.0021 46.4475 61.4536C50.188 65.9664 57.3146 67.4029 62.3076 64.1785C66.8285 61.467 68.9233 55.534 67.4207 50.3921C67.084 49.1798 66.5719 48.0122 65.9055 46.9285C65.867 46.8657 65.854 46.7902 65.8699 46.7183C65.8858 46.6464 65.9292 46.5836 65.9912 46.5439C66.0533 46.5044 66.129 46.491 66.2017 46.5063C66.2743 46.5218 66.338 46.5652 66.3796 46.626C67.1269 47.7194 67.7213 48.9184 68.1323 50.1824C69.9649 55.5267 67.9759 62.1173 63.0088 65.2588C57.5324 68.9871 49.4717 67.4688 45.3052 62.4229C44.8718 61.9193 44.476 61.3894 44.1152 60.8323C40.0233 54.8724 41.5959 45.7084 47.906 41.9878Z" fill="#682A7A"/>
<path fill-rule="evenodd" clip-rule="evenodd" d="M49.9377 45.2073C54.3731 42.3772 60.3521 43.7558 63.2925 48.2864C66.2327 52.817 65.0209 58.7842 60.5857 61.6143C56.1504 64.4442 50.1711 63.0655 47.2307 58.5349C44.2904 54.0043 45.5025 48.0373 49.9377 45.2073ZM60.5466 49.0725C59.7643 47.8671 58.4473 47.3259 57.605 47.8633C56.7627 48.4008 56.714 49.8136 57.4963 51.019C58.2787 52.2245 59.5959 52.766 60.4382 52.2285C61.2804 51.6909 61.3289 50.2779 60.5466 49.0725Z" fill="#682A7A"/>
<path d="M31.6813 22.2314C31.7507 22.2267 31.8192 22.2469 31.8778 22.281C31.9954 22.3497 32.1118 22.4198 32.2272 22.4907C33.2653 23.1292 34.2147 23.8592 35.0753 24.6807C35.9359 25.5021 36.7079 26.4152 37.391 27.4197C37.4669 27.5312 37.5417 27.644 37.6154 27.7578C37.6519 27.8146 37.6751 27.8817 37.673 27.9507C37.6709 28.0197 37.6442 28.0844 37.5975 28.1326C37.5509 28.1806 37.4869 28.2094 37.4176 28.2141C37.3481 28.2189 37.2795 28.1986 37.2208 28.1646C37.1033 28.0959 36.9868 28.0262 36.8715 27.9553C35.8333 27.3169 34.8839 26.5864 34.0233 25.7649C33.1627 24.9434 32.3907 24.0304 31.7076 23.0259C31.6318 22.9143 31.5569 22.8018 31.4833 22.688C31.4467 22.6312 31.4239 22.5641 31.4259 22.4951C31.428 22.4261 31.4542 22.3611 31.5009 22.313C31.5475 22.2649 31.6119 22.2362 31.6813 22.2314Z" fill="#7D4794"/>
<path d="M37.0316 15.9146C37.0947 15.8861 37.1669 15.883 37.2338 15.9055C37.3007 15.9281 37.3561 15.9751 37.3944 16.0325C37.4992 16.1901 37.6028 16.3484 37.7047 16.5073C38.6224 17.938 39.4239 19.4212 40.109 20.9568C40.7942 22.4925 41.3632 24.081 41.8158 25.7217C41.8661 25.9039 41.9149 26.087 41.9623 26.2705C41.9794 26.3374 41.9773 26.4103 41.9496 26.4756C41.9219 26.5409 41.8716 26.5933 41.8085 26.6218C41.7453 26.6503 41.673 26.653 41.6061 26.6304C41.5392 26.6078 41.4837 26.5613 41.4454 26.5039C41.3406 26.3462 41.2373 26.1878 41.1354 26.0288C40.2177 24.5981 39.4162 23.1148 38.7311 21.5791C38.046 20.0434 37.4769 18.4554 37.0243 16.8147C36.974 16.6324 36.9252 16.4492 36.8778 16.2656C36.8606 16.1987 36.8628 16.1261 36.8905 16.0608C36.9182 15.9955 36.9684 15.9431 37.0316 15.9146Z" fill="#7D4794"/>
<path d="M102 67.9453C102 74.5727 96.6274 79.9453 90 79.9453C83.3726 79.9453 78 74.5727 78 67.9453C78 61.3179 83.3726 55.9453 90 55.9453C96.6274 55.9453 102 61.3179 102 67.9453Z" fill="#EC434F"/>
<path d="M96.6672 67C97.2195 67 97.6672 67.4477 97.6672 68C97.6672 68.5523 97.2195 69 96.6672 69H83.334C82.7817 69 82.334 68.5523 82.334 68C82.334 67.4477 82.7817 67 83.334 67H96.6672Z" fill="white"/>
</svg>
