<svg width="16" height="16" viewBox="0 0 16 16" fill="none" xmlns="http://www.w3.org/2000/svg">
<path d="M12.2998 1.5C13.9567 1.5 15.2998 2.84315 15.2998 4.5V7.80197C15.2998 7.97403 15.094 8.06895 14.9553 7.96712C14.1275 7.35928 13.1058 7 12 7C9.23858 7 7 9.23858 7 12C7 12.7874 7.18312 13.5316 7.50767 14.1941C7.57545 14.3324 7.47813 14.5 7.32407 14.5H3.7002C2.04334 14.5 0.700195 13.1569 0.700195 11.5V4.5C0.700195 2.84315 2.04334 1.5 3.7002 1.5H12.2998Z" fill="url(#paint0_linear_1432_27814)"/>
<path d="M7.06445 11.2002C7.02257 11.4607 7 11.7277 7 12C7 12.7874 7.18312 13.5316 7.50767 14.1941C7.57545 14.3324 7.47813 14.5 7.32407 14.5H3.7998C2.14303 14.5 0.799937 13.1567 0.799805 11.5V11.2002H7.06445Z" fill="url(#paint1_linear_1432_27814)"/>
<path d="M12 1C14.2091 1 15.9999 2.79097 16 5V7.62176C16 8.06365 15.3836 8.29282 15.0324 8.02456C15.0216 8.01633 15.0108 8.00814 15 8V5C14.9999 3.34326 13.6568 2 12 2H4C2.34323 2 1.00013 3.34326 1 5V11C1.0001 12.6568 2.34321 14 4 14H7.41699C7.44899 14.0732 7.48267 14.1455 7.51798 14.2169C7.6862 14.5568 7.45834 15 7.07912 15H4C1.79092 15 9.90528e-05 13.2091 0 11V5C0.000132034 2.79097 1.79094 1 4 1H12ZM7.10059 11C7.03498 11.3231 7 11.6575 7 12H2.90039C2.62444 11.9998 2.40049 11.776 2.40039 11.5C2.40052 11.2241 2.62446 11.0002 2.90039 11H7.10059Z" fill="url(#paint2_linear_1432_27814)"/>
<path d="M6 4.76954C6 4.17339 6.62903 3.78686 7.16113 4.05567L10.5869 5.78614C11.1608 6.07631 11.1705 6.88287 10.6191 7.19337C10.0039 7.36977 9.43767 7.66146 8.94434 8.04297L7.16113 8.94434C6.62903 9.21315 6 8.82663 6 8.23047V4.76954Z" fill="#551605"/>
<path d="M15.5 12C15.5 13.933 13.933 15.5 12 15.5C10.067 15.5 8.5 13.933 8.5 12C8.5 10.067 10.067 8.5 12 8.5C13.933 8.5 15.5 10.067 15.5 12Z" fill="#DE5833"/>
<path d="M15 12C15 10.3431 13.6569 9 12 9C10.3431 9 9 10.3431 9 12C9 13.6569 10.3431 15 12 15C13.6569 15 15 13.6569 15 12ZM16 12C16 14.2091 14.2091 16 12 16C9.79086 16 8 14.2091 8 12C8 9.79086 9.79086 8 12 8C14.2091 8 16 9.79086 16 12Z" fill="url(#paint3_linear_1432_27814)"/>
<path d="M13.5 11.5C13.7761 11.5 14 11.7239 14 12C14 12.2761 13.7761 12.5 13.5 12.5H10.5C10.2239 12.5 10 12.2761 10 12C10 11.7239 10.2239 11.5 10.5 11.5H13.5Z" fill="white"/>
<defs>
<linearGradient id="paint0_linear_1432_27814" x1="8.0002" y1="1.5" x2="8.0002" y2="14.5" gradientUnits="userSpaceOnUse">
<stop stop-color="#F2A18A"/>
<stop offset="0.831024" stop-color="#E46F4F"/>
</linearGradient>
<linearGradient id="paint1_linear_1432_27814" x1="14.4997" y1="7.99996" x2="1.4998" y2="7.99996" gradientUnits="userSpaceOnUse">
<stop stop-color="#F8BBAA"/>
<stop offset="0.831024" stop-color="#F2A18A" stop-opacity="0"/>
</linearGradient>
<linearGradient id="paint2_linear_1432_27814" x1="8" y1="0.800049" x2="8" y2="15.2" gradientUnits="userSpaceOnUse">
<stop stop-color="#BC4726"/>
<stop offset="1" stop-color="#551605"/>
</linearGradient>
<linearGradient id="paint3_linear_1432_27814" x1="12" y1="8.5" x2="12" y2="15.5" gradientUnits="userSpaceOnUse">
<stop stop-color="#BC4726"/>
<stop offset="1" stop-color="#9A3216"/>
</linearGradient>
</defs>
</svg>
