<svg width="128" height="96" viewBox="0 0 128 96" fill="none" xmlns="http://www.w3.org/2000/svg">
<path d="M79.4497 20.5941C88.0361 20.1354 95.2497 26.974 95.2497 35.5726V52.6866C95.2497 53.1207 95.231 53.5504 95.1948 53.9752C93.5801 53.3635 91.8293 53.0286 90.0002 53.0286C81.9052 53.0286 75.3418 59.5869 75.3335 67.68L41.7121 67.6358C35.2486 67.6273 30.1214 62.1869 30.4958 55.7342L31.8064 33.1531C32.1384 27.4333 36.716 22.8768 42.4372 22.5711L79.4497 20.5941Z" fill="#F5FBFE"/>
<path d="M76.5889 61.7498C75.782 63.5672 75.3335 65.5789 75.3335 67.6954C75.3335 71.251 76.5988 74.511 78.7036 77.0499C78.2375 77.2492 77.6606 77.3563 76.9895 77.3563L63.1592 77.3834L63.1582 77.3831L50.5676 77.4081C50.3816 77.4084 50.241 77.2396 50.2751 77.0567C50.4986 75.8619 51.5004 74.9686 52.7129 74.8829L58.5017 74.4737C59.3919 74.4108 59.8625 73.3903 59.3323 72.6725L55.5103 67.4998H41.106C37.1529 67.4998 33.5356 65.2767 31.75 61.7498L76.5889 61.7498Z" fill="#4397E0"/>
<path d="M79.4495 20.5946C88.036 20.1356 95.25 26.9743 95.25 35.5731V53.9962C93.7788 53.4321 92.1937 53.0981 90.5386 53.0384L91.4773 33.7442C91.8371 26.3485 85.7254 20.2632 78.3323 20.6541L79.4495 20.5946Z" fill="#4397E0"/>
<path d="M78.325 20.6546L67.8669 21.2137L78.3323 20.6541C78.3298 20.6543 78.3274 20.6545 78.325 20.6546Z" fill="#4397E0"/>
<path d="M79.4095 19.8451C88.4249 19.3638 95.9989 26.5446 95.9991 35.5729V52.6867C95.9991 53.2221 95.9721 53.7512 95.92 54.2729C95.4465 54.0637 94.9599 53.879 94.4617 53.7201C94.4862 53.3789 94.4991 53.0342 94.4991 52.6867V35.5729C94.4989 27.4045 87.6464 20.9077 79.4896 21.3432L42.4774 23.3202C37.1375 23.6055 32.865 27.8585 32.555 33.1969L31.2444 55.7777C30.8949 61.8003 35.6803 66.8781 41.713 66.8861L75.3528 66.9301C75.3398 67.1836 75.3333 67.4388 75.3333 67.6955C75.3333 67.9417 75.3394 68.1866 75.3514 68.4298L73.2974 68.4274C74.1698 69.6818 74.9934 70.9629 75.7669 72.2712C76.368 73.2433 75.867 74.6836 74.7637 75.0788C74.5438 75.1634 74.3094 75.2063 74.0806 75.2094C71.9493 75.234 69.8157 75.1479 67.6802 74.9508C67.4268 74.9275 67.173 74.9024 66.9195 74.8759C66.8493 74.8685 66.7813 74.8389 66.7308 74.788C66.6802 74.7371 66.6511 74.6697 66.6497 74.5995C66.6485 74.5295 66.6752 74.461 66.7237 74.4084C66.7723 74.3557 66.8391 74.3234 66.909 74.3134C67.1613 74.2774 67.4139 74.243 67.6663 74.2101C69.793 73.9335 71.922 73.7678 74.0528 73.7128C74.1165 73.7105 74.1732 73.6985 74.2259 73.6784C74.4859 73.5854 74.6526 73.2357 74.5147 72.9543C73.8114 71.5515 73.1605 70.1198 72.5626 68.6596C72.5308 68.582 72.4993 68.5042 72.4678 68.4264L57.0408 68.4062L59.9439 72.4491C60.8163 73.6644 59.9919 75.363 58.4974 75.4298L52.1924 75.7109C51.7844 75.7291 51.4231 75.9494 51.2154 76.2814L76.9459 76.3036C77.3847 76.3036 77.7448 76.2578 78.0374 76.183C78.3448 76.6154 78.6749 77.0305 79.0262 77.4264C78.4293 77.6853 77.715 77.8038 76.9456 77.8039L50.7527 77.7812C49.9938 77.7805 49.4304 77.0775 49.595 76.3366C49.8616 75.138 50.8992 74.2673 52.1258 74.2126L58.4307 73.9313C58.735 73.9175 58.9029 73.5717 58.7254 73.3241L55.1927 68.4037L41.711 68.3861C34.8165 68.377 29.3477 62.5737 29.7471 55.6908L31.0574 33.11C31.4117 27.009 36.2946 22.1482 42.3973 21.8222L79.4095 19.8451Z" fill="#045EB2"/>
<path d="M91.4683 37.1281C91.5403 37.1306 91.6091 37.1616 91.6595 37.2143C91.7099 37.267 91.7377 37.3374 91.7401 37.4096C91.7549 37.8974 91.7693 38.3732 91.7825 38.8485C91.9021 43.1579 91.9507 47.4757 91.7249 51.7878C91.703 52.2328 91.6789 52.6771 91.6531 53.121C91.1636 53.0661 90.6668 53.0354 90.1639 53.0299C90.184 52.5915 90.2051 52.153 90.2266 51.714C90.4515 47.4208 90.6555 43.1342 91.0423 38.8256C91.0853 38.3514 91.1304 37.8767 91.178 37.3905C91.1853 37.3187 91.2177 37.2503 91.2715 37.2011C91.3255 37.152 91.3963 37.1257 91.4683 37.1281Z" fill="#045EB2"/>
<path d="M73.5558 41.1134C74.0517 40.9851 74.528 41.3456 74.5671 41.8695C74.766 44.699 74.1382 47.6288 72.5739 50.2567C68.7291 56.7222 60.6967 58.9666 54.394 55.4411C54.1086 55.2824 53.7495 55.3765 53.5815 55.6637L52.4411 57.5866C52.1584 58.0564 51.4725 57.9568 51.3486 57.4237L49.6164 49.8895C49.5388 49.5661 49.7336 49.2266 50.0585 49.141L57.4035 47.2162C57.9251 47.0793 58.3368 47.6577 58.0541 48.1276L56.8876 50.0853C56.7107 50.3899 56.8035 50.7923 57.1059 50.9511C61.0119 52.9797 65.8892 51.5478 68.2404 47.5885L68.2492 47.5797C69.0269 46.2745 69.4247 44.8538 69.4995 43.4401C69.5336 42.6895 70.016 42.0458 70.7258 41.8576L73.5558 41.1134Z" fill="#1074CC"/>
<path d="M69.2497 29.1488C69.5223 28.6789 70.1831 28.7784 70.3019 29.3114L71.9633 36.8453C72.0378 37.1687 71.85 37.5082 71.537 37.5939L64.4623 39.5202C63.96 39.657 63.5641 39.0789 63.8366 38.609L64.9619 36.6508C65.1324 36.3462 65.0431 35.9442 64.7521 35.7855C60.9925 33.7576 56.2945 35.1902 54.027 39.15L54.0185 39.1588C53.2685 40.4642 52.8844 41.8852 52.8112 43.299C52.7777 44.0494 52.3129 44.693 51.6293 44.8815L48.903 45.6264C48.4254 45.7547 47.9671 45.3942 47.9299 44.8703C47.7407 42.0409 48.3478 39.111 49.8564 36.4828C53.5643 30.0165 61.301 27.7707 67.3674 31.2951C67.642 31.4536 67.988 31.3594 68.1501 31.0722L69.2497 29.1488Z" fill="#1074CC"/>
<path d="M41.3005 19.4992C41.6143 19.4986 41.9285 19.4998 42.2426 19.5023C42.3139 19.503 42.3845 19.5272 42.4391 19.5744C42.4938 19.6215 42.5281 19.6873 42.5346 19.7579C42.5411 19.8286 42.5192 19.8994 42.4741 19.9557C42.4289 20.0121 42.3638 20.0488 42.2939 20.0624C41.9855 20.1221 41.6768 20.1802 41.3681 20.2367C40.9435 20.3145 40.5186 20.3894 40.0934 20.4613C37.8311 20.849 35.7509 21.8489 34.0683 23.3107C32.0805 25.033 30.6447 27.3976 30.0676 30.0731C30.0032 30.3703 29.9491 30.6701 29.9057 30.975C29.8957 31.0455 29.8624 31.1123 29.8085 31.1603C29.7546 31.2083 29.6848 31.2339 29.614 31.2311C29.5431 31.2282 29.4757 31.1973 29.4257 31.1452C29.3758 31.093 29.348 31.0237 29.3437 30.9525C29.3253 30.63 29.3212 30.3079 29.3322 29.984C29.4145 27.0649 30.8088 24.1336 33.0854 22.1776C34.9993 20.5057 37.5153 19.5464 40.0063 19.5104C40.4374 19.5037 40.8689 19.4999 41.3005 19.4992Z" fill="#1074CC"/>
<path d="M90 80C96.6274 80 102 74.6274 102 68C102 61.3726 96.6274 56 90 56C83.3726 56 78 61.3726 78 68C78 74.6274 83.3726 80 90 80Z" fill="#38B26A"/>
<path d="M94.5406 63.4192C94.8773 62.9815 95.5052 62.8995 95.9429 63.2361C96.3807 63.5729 96.4625 64.2007 96.1258 64.6385L89.9595 72.6546C89.3145 73.4931 88.0616 73.5264 87.3731 72.7232L83.9073 68.6797C83.5479 68.2604 83.5964 67.629 84.0157 67.2696C84.435 66.9102 85.0664 66.9587 85.4258 67.378L88.6246 71.1099L94.5406 63.4192Z" fill="white"/>
</svg>
