<svg width="128" height="96" viewBox="0 0 128 96" fill="none" xmlns="http://www.w3.org/2000/svg">
<path opacity="0.2" d="M105.629 38.2L107.171 37.8C107.457 37.7429 107.743 37.4571 107.8 37.1714L108.2 35.6286C108.314 35.2286 108.657 35 109 35C109.4 35 109.743 35.2857 109.8 35.6286L110.2 37.1714C110.257 37.4571 110.543 37.7429 110.829 37.8L112.371 38.2C112.771 38.3143 113 38.6571 113 39C113 39.4 112.714 39.7429 112.371 39.8L110.829 40.2C110.543 40.2571 110.257 40.5429 110.2 40.8286L109.8 42.3714C109.686 42.7714 109.343 43 109 43C108.6 43 108.257 42.7143 108.2 42.3714L107.8 40.8286C107.743 40.5429 107.457 40.2571 107.171 40.2L105.629 39.8C105.229 39.6857 105 39.3429 105 39C105 38.6 105.286 38.2571 105.629 38.2Z" fill="#888888"/>
<path opacity="0.2" d="M15.9428 31.8L18.2571 31.2C18.6857 31.1143 19.1143 30.6857 19.2 30.2571L19.8 27.9429C19.9714 27.3429 20.4857 27 21 27C21.6 27 22.1143 27.4286 22.2 27.9429L22.8 30.2571C22.8857 30.6857 23.3143 31.1143 23.7429 31.2L26.0572 31.8C26.6572 31.9714 27 32.4857 27 33C27 33.6 26.5714 34.1143 26.0572 34.2L23.7429 34.8C23.3143 34.8857 22.8857 35.3143 22.8 35.7429L22.2 38.0571C22.0286 38.6571 21.5143 39 21 39C20.4 39 19.8857 38.5714 19.8 38.0571L19.2 35.7429C19.1143 35.3143 18.6857 34.8857 18.2571 34.8L15.9428 34.2C15.3428 34.0286 15 33.5143 15 33C15 32.4 15.4286 31.8857 15.9428 31.8Z" fill="#888888"/>
<path opacity="0.2" d="M0.628557 53.2L2.17142 52.8C2.45714 52.7429 2.74287 52.4571 2.80001 52.1714L3.19999 50.6286C3.31427 50.2286 3.65714 50 4 50C4.4 50 4.74287 50.2857 4.80001 50.6286L5.19999 52.1714C5.25713 52.4571 5.54286 52.7429 5.82858 52.8L7.37144 53.2C7.77144 53.3143 8 53.6571 8 54C8 54.4 7.7143 54.7429 7.37144 54.8L5.82858 55.2C5.54286 55.2571 5.25713 55.5429 5.19999 55.8286L4.80001 57.3714C4.68573 57.7714 4.34286 58 4 58C3.6 58 3.25713 57.7143 3.19999 57.3714L2.80001 55.8286C2.74287 55.5429 2.45714 55.2571 2.17142 55.2L0.628557 54.8C0.228557 54.6857 0 54.3429 0 54C0 53.6 0.2857 53.2571 0.628557 53.2Z" fill="#888888"/>
<path opacity="0.2" d="M126.5 52C125.675 52 125 51.325 125 50.5C125 49.675 125.675 49 126.5 49C127.325 49 128 49.675 128 50.5C128 51.325 127.325 52 126.5 52Z" fill="#888888"/>
<path opacity="0.2" d="M23 70C21.9 70 21 69.1 21 68C21 66.9 21.9 66 23 66C24.1 66 25 66.9 25 68C25 69.1 24.1 70 23 70Z" fill="#888888"/>
<path d="M70 62H56V74H70V62Z" fill="#AAAAAA"/>
<path d="M34 21C34 19.3431 35.3431 18 37 18L92 18C93.6569 18 95 19.3431 95 21V37C95 38.6569 93.6569 40 92 40L37 40C35.3431 40 34 38.6569 34 37V21Z" fill="#888888"/>
<path d="M45 76C45 74.8954 45.8954 74 47 74H70V75C70 76.6569 68.6569 78 67 78H47C45.8954 78 45 77.1046 45 76Z" fill="#888888"/>
<path d="M35 18C33.3431 18 32 19.3431 32 21L32 63C32 64.6569 33.3431 66 35 66H70V48C70 43.5817 73.5817 40 78 40H92V21C92 19.3431 90.6569 18 89 18L35 18Z" fill="#CCCCCC"/>
<path d="M36 21C35.4477 21 35 21.4477 35 22L35 62C35 62.5523 35.4477 63 36 63L70 63V48C70 43.5817 73.5817 40 78 40L89 40V22C89 21.4477 88.5523 21 88 21L36 21Z" fill="#FFD65C"/>
<path d="M70 56.5H67.75C65.4028 56.5 63.5 54.5972 63.5 52.25V47.75C63.5 45.4028 65.4028 43.5 67.75 43.5H71.3847C70.8725 44.2515 70.485 45.0947 70.252 46H67.75C66.7835 46 66 46.7835 66 47.75V52.25C66 53.2165 66.7835 54 67.75 54H70V56.5Z" fill="#F9BE1A"/>
<path d="M70 52H69C68.4477 52 68 51.5523 68 51V49C68 48.4477 68.4477 48 69 48H70V52Z" fill="#F9BE1A"/>
<path d="M75.2099 40.5H73.25C72.5596 40.5 72 39.9404 72 39.25C72 38.5596 72.5596 38 73.25 38H74V35.25C74 34.5596 74.5596 34 75.25 34C75.9404 34 76.5 34.5596 76.5 35.25V39.25C76.5 39.6607 76.3019 40.0252 75.996 40.2531C75.7283 40.3221 75.466 40.4047 75.2099 40.5Z" fill="#F9BE1A"/>
<path d="M53 52C52.4477 52 52 51.5523 52 51V49C52 48.4477 52.4477 48 53 48H55C55.5523 48 56 48.4477 56 49V51C56 51.5523 55.5523 52 55 52H53Z" fill="#F9BE1A"/>
<path fill-rule="evenodd" clip-rule="evenodd" d="M51.75 56.5C49.4028 56.5 47.5 54.5972 47.5 52.25V47.75C47.5 45.4028 49.4028 43.5 51.75 43.5H56.25C58.5972 43.5 60.5 45.4028 60.5 47.75V52.25C60.5 54.5972 58.5972 56.5 56.25 56.5H51.75ZM50 52.25C50 53.2165 50.7835 54 51.75 54H56.25C57.2165 54 58 53.2165 58 52.25V47.75C58 46.7835 57.2165 46 56.25 46H51.75C50.7835 46 50 46.7835 50 47.75V52.25Z" fill="#F9BE1A"/>
<path d="M53 36C52.4477 36 52 35.5523 52 35V33C52 32.4477 52.4477 32 53 32H55C55.5523 32 56 32.4477 56 33V35C56 35.5523 55.5523 36 55 36H53Z" fill="#F9BE1A"/>
<path fill-rule="evenodd" clip-rule="evenodd" d="M51.75 40.5C49.4028 40.5 47.5 38.5972 47.5 36.25V31.75C47.5 29.4028 49.4028 27.5 51.75 27.5H56.25C58.5972 27.5 60.5 29.4028 60.5 31.75V36.25C60.5 38.5972 58.5972 40.5 56.25 40.5H51.75ZM50 36.25C50 37.2165 50.7835 38 51.75 38H56.25C57.2165 38 58 37.2165 58 36.25V31.75C58 30.7835 57.2165 30 56.25 30H51.75C50.7835 30 50 30.7835 50 31.75V36.25Z" fill="#F9BE1A"/>
<path d="M64.75 34C65.4404 34 66 33.4404 66 32.75V30.25H66.75C67.4404 30.25 68 29.6904 68 29C68 28.3096 67.4404 27.75 66.75 27.75H64.75C64.0596 27.75 63.5 28.3096 63.5 29V32.75C63.5 33.4404 64.0596 34 64.75 34Z" fill="#F9BE1A"/>
<path d="M71.25 30.25C70.5596 30.25 70 29.6904 70 29C70 28.3096 70.5596 27.75 71.25 27.75H75.25C75.9404 27.75 76.5 28.3096 76.5 29V30.75C76.5 31.4404 75.9404 32 75.25 32C74.5596 32 74 31.4404 74 30.75V30.25H71.25Z" fill="#F9BE1A"/>
<path d="M65 40.25C64.9578 40.25 64.9161 40.2479 64.875 40.2438C64.8339 40.2479 64.7922 40.25 64.75 40.25C64.0596 40.25 63.5 39.6904 63.5 39V37.25C63.5 36.5596 64.0596 36 64.75 36C65.4404 36 66 36.5596 66 37.25V37.75H68.75C69.4404 37.75 70 38.3096 70 39C70 39.6904 69.4404 40.25 68.75 40.25H65Z" fill="#F9BE1A"/>
<path d="M68 34.75C68 35.4404 68.5596 36 69.25 36H70.75C71.4404 36 72 35.4404 72 34.75V33.25C72 32.5596 71.4404 32 70.75 32H69.25C68.5596 32 68 32.5596 68 33.25V34.75Z" fill="#F9BE1A"/>
<path d="M78 44H86C88.2091 44 90 45.7909 90 48V71V84C90 86.2091 88.2091 88 86 88H79.9474H78C75.7909 88 74 86.2091 74 84V48C74 45.7909 75.7909 44 78 44Z" fill="#444444"/>
<path d="M80.6673 44H99.334C101.543 44 103.334 45.7909 103.334 48V84C103.334 86.2091 101.543 88 99.334 88H80.6673C78.4582 88 76.6673 86.2091 76.6673 84V76.1538V48C76.6673 45.7909 78.4582 44 80.6673 44Z" fill="#666666"/>
<path fill-rule="evenodd" clip-rule="evenodd" d="M99.5722 85.3327H80.4284C79.8221 85.3327 79.3337 84.8054 79.3337 84.161V47.8377C79.3337 47.1933 79.8221 46.666 80.4284 46.666H99.5722C100.179 46.666 100.667 47.1933 100.667 47.8377V84.161C100.667 84.8054 100.179 85.3327 99.5722 85.3327ZM87.3336 47.9995C86.5972 47.9995 86.0002 48.5965 86.0002 49.3328C86.0002 50.0692 86.5972 50.6662 87.3336 50.6662H92.6669C93.4033 50.6662 94.0002 50.0692 94.0002 49.3328C94.0002 48.5965 93.4033 47.9995 92.6669 47.9995H87.3336Z" fill="#ADC2FC"/>
<path d="M107.404 63.5244H111.006C111.667 63.5244 112.207 64.0647 112.207 64.7251C112.207 65.3855 111.667 65.9258 111.006 65.9258H107.404C106.744 65.9258 106.204 65.3855 106.204 64.7251C106.204 64.0647 106.744 63.5244 107.404 63.5244Z" fill="#CCCCCC"/>
<path d="M108.605 52.7188C108.911 52.7188 109.217 52.8388 109.452 53.0729C109.92 53.5412 109.92 54.3036 109.452 54.7719L107.05 57.1733C106.582 57.6415 105.819 57.6415 105.351 57.1733C104.883 56.705 104.883 55.9426 105.351 55.4743L107.753 53.0729C107.987 52.8388 108.293 52.7188 108.599 52.7188H108.605Z" fill="#CCCCCC"/>
<path d="M106.21 71.9302C105.904 71.9302 105.598 72.0502 105.363 72.2844C104.895 72.7526 104.895 73.5151 105.363 73.9833L107.765 76.3847C108.233 76.853 108.995 76.853 109.464 76.3847C109.932 75.9164 109.932 75.154 109.464 74.6857L107.062 72.2844C106.828 72.0502 106.522 71.9302 106.216 71.9302H106.21Z" fill="#CCCCCC"/>
<path fill-rule="evenodd" clip-rule="evenodd" d="M82 63.4724V70.3336C82 71.8063 83.1939 73.0002 84.6667 73.0002H95.3333C96.8061 73.0002 98 71.8063 98 70.3336V63.4724C98 62.1071 96.8932 61.0002 95.5279 61.0002H95.118C94.4328 61.0002 93.8064 60.6131 93.5 60.0002C93.1936 59.3874 92.5672 59.0002 91.882 59.0002H88.118C87.4328 59.0002 86.8064 59.3874 86.5 60.0002C86.1936 60.6131 85.5672 61.0002 84.882 61.0002H84.4721C83.1068 61.0002 82 62.1071 82 63.4724ZM90 71.0002C92.2091 71.0002 94 69.2094 94 67.0002C94 64.7911 92.2091 63.0002 90 63.0002C87.7909 63.0002 86 64.7911 86 67.0002C86 69.2094 87.7909 71.0002 90 71.0002Z" fill="#8FABF9"/>
</svg>
