<svg width="24" height="24" viewBox="0 0 24 24" fill="none" xmlns="http://www.w3.org/2000/svg">
<path d="M16 3C18.7614 3 21 5.23858 21 8V10.7022C21 11.2958 20.2818 11.6467 19.7489 11.3853C18.9193 10.9784 17.9863 10.75 17 10.75C13.5482 10.75 10.75 13.5482 10.75 17C10.75 17.9865 10.9787 18.9194 11.3859 19.7489C11.6474 20.2818 11.2966 21 10.703 21H8C5.23858 21 3 18.7614 3 16V8C3 5.23858 5.23858 3 8 3H16Z" fill="#EEEEEE"/>
<path d="M11.0791 15C10.867 15.6281 10.75 16.3003 10.75 17C10.75 17.3405 10.7787 17.6743 10.8311 18H8C6.89543 18 6 17.1046 6 16C6 15.4477 6.44772 15 7 15H11.0791Z" fill="#686868"/>
<path d="M10 6C11.1046 6 12 6.89543 12 8V10C12 11.1046 11.1046 12 10 12H8C6.89543 12 6 11.1046 6 10V8C6 6.89543 6.89543 6 8 6H10Z" fill="#686868"/>
<path d="M16.2568 3.00684C18.8989 3.14053 21 5.32472 21 8V10.7034C21 11.2965 20.2824 11.647 19.75 11.3857V8C19.75 5.92893 18.0711 4.25 16 4.25H8C5.92893 4.25 4.25 5.92893 4.25 8V16C4.25 18.0711 5.92893 19.75 8 19.75H11.3867C11.648 20.2824 11.2974 21 10.7044 21H8C5.32472 21 3.14053 18.8989 3.00684 16.2568L3 16V8C3 5.23858 5.23858 3 8 3H16L16.2568 3.00684Z" fill="#686868"/>
<path d="M22 17C22 19.7614 19.7614 22 17 22C14.2386 22 12 19.7614 12 17C12 14.2386 14.2386 12 17 12C19.7614 12 22 14.2386 22 17Z" fill="black"/>
<path d="M17 13.625C17.3452 13.625 17.625 13.9048 17.625 14.25V16.375H19.75C20.0952 16.375 20.375 16.6548 20.375 17C20.375 17.3452 20.0952 17.625 19.75 17.625H17.625V19.75C17.625 20.0952 17.3452 20.375 17 20.375C16.6548 20.375 16.375 20.0952 16.375 19.75V17.625H14.25C13.9048 17.625 13.625 17.3452 13.625 17C13.625 16.6548 13.9048 16.375 14.25 16.375H16.375V14.25C16.375 13.9048 16.6548 13.625 17 13.625Z" fill="white"/>
</svg>
