<svg width="128" height="96" viewBox="0 0 128 96" fill="none" xmlns="http://www.w3.org/2000/svg">
<path fill-rule="evenodd" clip-rule="evenodd" d="M48.8129 19.8726C55.9936 15.1577 65.0055 15.436 71.7612 19.8599C70.2266 22.178 69.3332 24.9575 69.3332 27.9456C69.3332 34.8862 74.1543 40.7004 80.6303 42.223C79.9822 44.9326 78.7964 47.5169 77.1069 49.8001L91.2587 71.168C91.4374 71.4378 91.5329 71.7543 91.5329 72.0779V77.9012C91.5329 78.8113 90.7951 79.5491 89.885 79.5491H80.1262C79.216 79.5491 78.4782 78.8114 78.4782 77.9012V72.6649C78.4781 71.7549 77.7403 71.0171 76.8303 71.0169H73.6672C72.848 71.0169 72.1841 70.3529 72.184 69.5337V64.3213C72.1839 63.4114 71.446 62.6736 70.5361 62.6734H65.2067C64.6561 62.6734 64.1416 62.3985 63.8359 61.9405L62.2683 59.5919C53.9427 61.5766 44.9031 58.29 39.934 50.7227C33.5942 41.0676 36.2818 28.1011 45.937 21.7613L48.8129 19.8726ZM60.7107 28.3875C58.7679 25.4289 54.7906 24.6077 51.832 26.5503C48.8734 28.4931 48.0461 32.4689 49.9887 35.4275C51.9315 38.3861 55.9088 39.2074 58.8674 37.2647C61.8259 35.322 62.6532 31.3461 60.7107 28.3875Z" fill="#FAB341"/>
<path d="M76.9316 52.5469C77.2045 51.7782 78.2385 51.6519 78.6885 52.3323L91.0581 71.0376C91.1651 71.1994 91.2222 71.3891 91.2222 71.583V74.7451C91.2222 75.725 89.9501 76.1081 89.4089 75.2913L77.1641 56.8091C76.4488 55.7294 76.2827 54.3761 76.7158 53.1555L76.9316 52.5469Z" fill="#FFC95C"/>
<path d="M78.8752 41.6919C79.5578 41.9465 80.2644 42.1515 80.9907 42.303C80.0174 46.6121 77.8498 50.0412 76.1006 51.4329C74.9952 52.3122 74.2936 52.5152 73.9189 52.2034C73.6122 51.9479 73.6369 51.332 74.4915 50.6321C75.2261 50.0305 78.0217 46.7293 78.8752 41.6919Z" fill="#FFC95C"/>
<path d="M50.717 18.6843C54.344 16.3533 63.7468 15.1398 70.2214 18.6846C70.7949 18.9985 71.3486 19.3307 71.8826 19.6799C71.3414 20.4718 70.8757 21.3194 70.4961 22.2124C65.1439 18.4497 58.0249 17.442 50.717 18.6843Z" fill="#FFC95C"/>
<path d="M48.6142 19.4734C55.9571 14.6475 65.1603 14.8994 72.0983 19.3719C71.8062 19.7768 71.534 20.1972 71.2836 20.6316C64.8293 16.4716 56.2684 16.2379 49.4382 20.7269L46.581 22.6048C37.3356 28.6812 34.7616 41.1095 40.8327 50.3641C45.6438 57.6978 54.4412 60.8383 62.4875 58.7996C62.551 58.7835 62.6148 58.7767 62.6774 58.7771C62.6945 58.7723 62.712 58.7679 62.7297 58.7642C62.7839 58.7542 62.8436 58.7415 62.9033 58.7278C64.0043 58.4596 65.1449 58.0935 66.2529 57.7068C66.3146 57.6851 66.3764 57.663 66.4379 57.6409C66.5007 57.6186 66.574 57.6231 66.6394 57.6492C66.7048 57.6756 66.7573 57.7216 66.7871 57.7811C66.8167 57.8405 66.8221 57.9102 66.8039 57.9783C66.7855 58.0462 66.7449 58.1073 66.6894 58.1441C66.634 58.1805 66.5783 58.2171 66.5227 58.2532C65.5564 58.876 64.5925 59.4685 63.5439 60.0186L64.5624 61.5271C64.7294 61.7744 65.0085 61.9226 65.3068 61.9227H70.5358C71.86 61.9228 72.9336 62.9964 72.9338 64.3206V69.533L72.9348 69.5706C72.9544 69.958 73.2747 70.266 73.6669 70.2662H76.83C78.1544 70.2662 79.2278 71.34 79.228 72.6641V77.5467C79.2281 78.0425 79.6301 78.4445 80.1259 78.4446H89.6391C90.1351 78.4446 90.5373 78.0424 90.5373 77.5464L90.5371 71.9505C90.537 71.7753 90.4858 71.6037 90.3896 71.4573L76.947 51.0042C75.6293 52.2593 74.278 53.4263 72.7348 54.4341C72.6284 54.4994 72.5206 54.5621 72.4128 54.6194C72.3509 54.6521 72.2761 54.6586 72.2065 54.6397C72.1368 54.6207 72.0777 54.5778 72.041 54.5184C72.0043 54.4589 71.9925 54.3868 72.0068 54.316C72.0212 54.2453 72.0605 54.1813 72.1174 54.1407C72.205 54.0774 72.2949 54.0081 72.3845 53.9356C73.8893 52.644 75.2401 51.0646 76.4677 49.4976C78.1424 47.2574 79.309 44.7107 79.9313 42.0396C80.4086 42.1771 80.8959 42.2912 81.3918 42.3802C80.7756 45.0241 79.6634 47.5545 78.0856 49.8184C78.0693 49.8526 78.0495 49.8855 78.0275 49.917L91.643 70.6334C91.9001 71.0244 92.037 71.4825 92.0371 71.9505L92.0373 77.5464C92.0373 78.8709 90.9635 79.9446 89.6391 79.9446H80.1259C78.8017 79.9445 77.7281 78.871 77.728 77.5467V72.6641C77.7278 72.1837 77.3505 71.7914 76.8762 71.7674L76.83 71.7662H73.6669C72.4337 71.766 71.4339 70.7662 71.4338 69.533V64.3206C71.4337 63.8403 71.0564 63.448 70.582 63.4239L70.5358 63.4227H65.3068C64.5102 63.4226 63.7654 63.0269 63.3195 62.3667L62.0231 60.4468C53.607 62.2241 44.5855 58.819 39.5786 51.1868C33.0536 41.2405 35.8194 27.8828 45.757 21.3514L48.6142 19.4734Z" fill="#B66A1F"/>
<path d="M76.0441 54.9878C76.0936 54.9973 76.1375 55.0257 76.1674 55.0657C76.3915 55.3665 76.6149 55.6681 76.8374 55.97C78.8397 58.6874 80.7755 61.4494 82.6447 64.2554C84.514 67.0614 86.3229 69.9081 88.0708 72.795C88.2649 73.1156 88.4584 73.4369 88.6511 73.7586C88.6802 73.8073 88.6908 73.8659 88.6791 73.9219C88.6674 73.978 88.6343 74.0271 88.5871 74.0586C88.5398 74.0901 88.4818 74.1016 88.4255 74.0909C88.3692 74.0801 88.3194 74.0477 88.2856 74.002C88.063 73.7003 87.8409 73.398 87.6198 73.0953C85.6292 70.3701 83.6991 67.6042 81.8298 64.7981C79.9606 61.9922 78.1578 59.1417 76.4216 56.2471C76.2287 55.9256 76.0364 55.6032 75.8452 55.2806C75.8197 55.2375 75.8104 55.1859 75.8208 55.1365C75.8312 55.0872 75.8603 55.0438 75.9018 55.0162C75.9434 54.9886 75.9947 54.9784 76.0441 54.9878Z" fill="#B66A1F"/>
<path fill-rule="evenodd" clip-rule="evenodd" d="M51.4204 25.9224C54.7246 23.7529 59.1671 24.6694 61.3376 27.9747C63.508 31.2801 62.5832 35.7209 59.279 37.8907C55.9747 40.0604 51.5322 39.1437 49.3618 35.8382C47.1915 32.5327 48.1161 28.0921 51.4204 25.9224ZM60.0837 28.7979C58.3687 26.1863 54.8567 25.4608 52.2438 27.1763C49.6309 28.892 48.9008 32.4031 50.6157 35.0149C52.3307 37.6268 55.8428 38.3525 58.4558 36.6368C61.0686 34.921 61.7987 31.4097 60.0837 28.7979Z" fill="#B66A1F"/>
<path d="M55.0471 27.5061C56.1385 27.4229 57.2369 27.6324 58.2046 28.1006C58.3119 28.1528 58.4181 28.2088 58.5205 28.2676C58.5619 28.2916 58.5967 28.3275 58.6157 28.3723C58.6347 28.417 58.6366 28.4663 58.6204 28.5105C58.6041 28.5547 58.5706 28.5911 58.5271 28.6128C58.4836 28.6345 58.4337 28.6394 58.3867 28.6309C58.2768 28.6114 58.1654 28.5932 58.0549 28.5772C57.0608 28.4367 56.0807 28.4106 55.1235 28.4824C54.1677 28.5599 53.2284 28.7442 52.3623 29.1899C52.2663 29.2398 52.1715 29.2927 52.0776 29.3496C52.0313 29.3782 51.9762 29.3932 51.9212 29.3875C51.8661 29.3817 51.8159 29.3563 51.7808 29.3154C51.7457 29.2746 51.7279 29.2211 51.7305 29.1658C51.7331 29.1104 51.7563 29.0582 51.7915 29.0166C51.8711 28.9245 51.9553 28.8362 52.044 28.7517C52.8475 27.9848 53.9622 27.5886 55.0471 27.5061Z" fill="#F5A031"/>
<path d="M84 40C90.6274 40 96 34.6274 96 28C96 21.3726 90.6274 16 84 16C77.3726 16 72 21.3726 72 28C72 34.6274 77.3726 40 84 40Z" fill="black"/>
<path d="M84 21.333C84.5523 21.333 85 21.7807 85 22.333V31.5742L88.7051 28.5837C89.1348 28.2369 89.7644 28.3042 90.1113 28.7339C90.4582 29.1636 90.3911 29.7933 89.9614 30.1401L84.646 34.4297C84.5757 34.4893 84.4988 34.5379 84.4175 34.5752C84.4123 34.5776 84.407 34.5797 84.4019 34.582C84.3938 34.5855 84.3858 34.589 84.3777 34.5923C84.3702 34.5953 84.3627 34.5982 84.3552 34.6011C84.3464 34.6044 84.3375 34.6077 84.3286 34.6108C84.3216 34.6133 84.3146 34.6154 84.3076 34.6177C84.3007 34.6199 84.2938 34.6222 84.2869 34.6243C84.2786 34.6267 84.2703 34.6291 84.262 34.6313C84.253 34.6338 84.2441 34.636 84.2351 34.6382C84.2294 34.6396 84.2237 34.6408 84.218 34.6421C84.2094 34.644 84.2008 34.646 84.1921 34.6477C84.1803 34.65 84.1684 34.6519 84.1565 34.6538C84.1549 34.6541 84.1534 34.6545 84.1519 34.6548C84.1398 34.6566 84.1276 34.658 84.1155 34.6594C84.1091 34.6602 84.1028 34.661 84.0964 34.6616C84.0883 34.6624 84.0802 34.663 84.072 34.6636C84.0636 34.6642 84.0553 34.6646 84.0469 34.665C84.0399 34.6654 84.0329 34.6656 84.0259 34.6658C84.0172 34.666 84.0086 34.6663 84 34.6663C83.9913 34.6663 83.9826 34.666 83.9739 34.6658C83.9669 34.6656 83.9599 34.6654 83.9529 34.665C83.9445 34.6646 83.9361 34.6642 83.9277 34.6636C83.9196 34.663 83.9114 34.6624 83.9033 34.6616C83.897 34.661 83.8906 34.6602 83.8843 34.6594C83.8721 34.658 83.86 34.6566 83.8479 34.6548C83.8463 34.6545 83.8448 34.6541 83.8433 34.6538C83.8313 34.6519 83.8193 34.65 83.8074 34.6477C83.7991 34.6461 83.7909 34.6442 83.7827 34.6423C83.7765 34.641 83.7703 34.6397 83.7642 34.6382C83.7549 34.636 83.7457 34.6336 83.7366 34.6311C83.7287 34.629 83.7209 34.6266 83.7131 34.6243C83.7061 34.6222 83.6991 34.6199 83.6921 34.6177C83.6851 34.6154 83.6781 34.6133 83.6711 34.6108C83.6622 34.6077 83.6534 34.6044 83.6445 34.6011C83.637 34.5982 83.6295 34.5953 83.6221 34.5923C83.614 34.589 83.6059 34.5855 83.5979 34.582C83.5927 34.5797 83.5874 34.5776 83.5823 34.5752C83.5006 34.5378 83.4233 34.4889 83.3528 34.429L78.0386 30.1401C77.6089 29.7933 77.5418 29.1636 77.8887 28.7339C78.2355 28.3042 78.8652 28.2369 79.2949 28.5837L83 31.5742V22.333C83 21.7807 83.4477 21.333 84 21.333Z" fill="white"/>
</svg>
