<svg width="128" height="96" viewBox="0 0 128 96" fill="none" xmlns="http://www.w3.org/2000/svg">
<path fill-rule="evenodd" clip-rule="evenodd" d="M48.8132 19.8726C55.9938 15.1577 65.0058 15.436 71.7614 19.8599C70.2269 22.178 69.3335 24.9575 69.3335 27.9456C69.3335 34.8862 74.1546 40.7004 80.6306 42.223C79.9825 44.9326 78.7966 47.5169 77.1071 49.8001L91.259 71.168C91.4377 71.4378 91.5331 71.7543 91.5332 72.0779V77.9012C91.5331 78.8113 90.7954 79.5491 89.8852 79.5491H80.1264C79.2162 79.5491 78.4785 78.8114 78.4785 77.9012V72.6649C78.4783 71.7549 77.7405 71.0171 76.8305 71.0169H73.6674C72.8483 71.0169 72.1843 70.3529 72.1843 69.5337V64.3213C72.1842 63.4114 71.4463 62.6736 70.5363 62.6734H65.207C64.6563 62.6734 64.1419 62.3985 63.8361 61.9405L62.2685 59.5919C53.9429 61.5766 44.9033 58.29 39.9343 50.7227C33.5945 41.0676 36.2821 28.1011 45.9372 21.7613L48.8132 19.8726ZM60.7109 28.3875C58.7682 25.4289 54.7909 24.6077 51.8322 26.5503C48.8736 28.4931 48.0463 32.4689 49.989 35.4275C51.9317 38.3861 55.909 39.2074 58.8676 37.2647C61.8261 35.322 62.6534 31.3461 60.7109 28.3875Z" fill="#4397E0"/>
<path d="M76.9314 52.5469C77.2043 51.7782 78.2383 51.6519 78.6882 52.3323L91.0579 71.0376C91.1648 71.1994 91.2219 71.3891 91.2219 71.583V74.7451C91.2219 75.725 89.9499 76.1081 89.4087 75.2913L77.1638 56.8091C76.4485 55.7294 76.2825 54.3761 76.7156 53.1555L76.9314 52.5469Z" fill="#75B6EB"/>
<path d="M78.875 41.6919C79.5576 41.9465 80.2641 42.1515 80.9905 42.303C80.0172 46.6121 77.8496 50.0412 76.1003 51.4329C74.995 52.3122 74.2933 52.5152 73.9187 52.2034C73.612 51.9479 73.6366 51.332 74.4912 50.6321C75.2258 50.0305 78.0215 46.7293 78.875 41.6919Z" fill="#75B6EB"/>
<path d="M50.7168 18.6843C54.3438 16.3533 63.7466 15.1398 70.2212 18.6846C70.7946 18.9985 71.3483 19.3307 71.8823 19.6799C71.3411 20.4718 70.8755 21.3194 70.4958 22.2124C65.1436 18.4497 58.0246 17.442 50.7168 18.6843Z" fill="#75B6EB"/>
<path d="M48.6132 19.4734C55.9561 14.6475 65.1593 14.8994 72.0974 19.3719C71.8052 19.7768 71.5331 20.1972 71.2827 20.6316C64.8283 16.4716 56.2675 16.2379 49.4372 20.7269L46.58 22.6048C37.3347 28.6812 34.7607 41.1095 40.8317 50.3641C45.6428 57.6978 54.4402 60.8383 62.4865 58.7996C62.5501 58.7835 62.6138 58.7767 62.6765 58.7771C62.6935 58.7723 62.711 58.7679 62.7287 58.7642C62.7829 58.7542 62.8426 58.7415 62.9023 58.7278C64.0034 58.4596 65.1439 58.0935 66.2519 57.7068C66.3136 57.6851 66.3754 57.663 66.437 57.6409C66.4997 57.6186 66.5731 57.6231 66.6384 57.6492C66.7038 57.6756 66.7563 57.7216 66.7861 57.7811C66.8157 57.8405 66.8211 57.9102 66.8029 57.9783C66.7846 58.0462 66.7439 58.1073 66.6884 58.1441C66.633 58.1805 66.5773 58.2171 66.5217 58.2532C65.5555 58.876 64.5915 59.4685 63.5429 60.0186L64.5615 61.5271C64.7284 61.7744 65.0075 61.9226 65.3059 61.9227H70.5349C71.8591 61.9228 72.9327 62.9964 72.9328 64.3206V69.533L72.9338 69.5706C72.9534 69.958 73.2738 70.266 73.666 70.2662H76.8291C78.1534 70.2662 79.2268 71.34 79.227 72.6641V77.5467C79.2271 78.0425 79.6291 78.4445 80.125 78.4446H89.6381C90.1341 78.4446 90.5363 78.0424 90.5363 77.5464L90.5361 71.9505C90.536 71.7753 90.4848 71.6037 90.3886 71.4573L76.946 51.0042C75.6283 52.2593 74.2771 53.4263 72.7338 54.4341C72.6274 54.4994 72.5196 54.5621 72.4118 54.6194C72.35 54.6521 72.2752 54.6586 72.2055 54.6397C72.1358 54.6207 72.0767 54.5778 72.04 54.5184C72.0034 54.4589 71.9916 54.3868 72.0058 54.316C72.0202 54.2453 72.0595 54.1813 72.1164 54.1407C72.204 54.0774 72.2939 54.0081 72.3835 53.9356C73.8883 52.644 75.2391 51.0646 76.4667 49.4976C78.1414 47.2574 79.308 44.7107 79.9304 42.0396C80.4077 42.1771 80.8949 42.2912 81.3908 42.3802C80.7746 45.0241 79.6625 47.5545 78.0847 49.8184C78.0683 49.8526 78.0486 49.8855 78.0266 49.917L91.642 70.6334C91.8991 71.0244 92.036 71.4825 92.0361 71.9505L92.0363 77.5464C92.0364 78.8709 90.9625 79.9446 89.6381 79.9446H80.125C78.8007 79.9445 77.7271 78.871 77.727 77.5467V72.6641C77.7268 72.1837 77.3495 71.7914 76.8752 71.7674L76.8291 71.7662H73.666C72.4328 71.766 71.4329 70.7662 71.4328 69.533V64.3206C71.4327 63.8403 71.0554 63.448 70.581 63.4239L70.5349 63.4227H65.3059C64.5092 63.4226 63.7644 63.0269 63.3186 62.3667L62.0222 60.4468C53.6061 62.2241 44.5845 58.819 39.5776 51.1868C33.0527 41.2405 35.8184 27.8828 45.7561 21.3514L48.6132 19.4734Z" fill="#045EB2"/>
<path d="M76.0432 54.9878C76.0926 54.9973 76.1366 55.0257 76.1665 55.0657C76.3905 55.3665 76.6139 55.6681 76.8364 55.97C78.8387 58.6874 80.7745 61.4494 82.6437 64.2554C84.513 67.0614 86.3219 69.9081 88.0698 72.795C88.2639 73.1156 88.4575 73.4369 88.6501 73.7586C88.6793 73.8073 88.6898 73.8659 88.6782 73.9219C88.6664 73.978 88.6333 74.0271 88.5861 74.0586C88.5389 74.0901 88.4808 74.1016 88.4245 74.0909C88.3682 74.0801 88.3184 74.0477 88.2846 74.002C88.062 73.7003 87.84 73.398 87.6188 73.0953C85.6282 70.3701 83.6981 67.6042 81.8288 64.7981C79.9596 61.9922 78.1568 59.1417 76.4206 56.2471C76.2277 55.9256 76.0354 55.6032 75.8442 55.2806C75.8187 55.2375 75.8094 55.1859 75.8198 55.1365C75.8302 55.0872 75.8593 55.0438 75.9008 55.0162C75.9424 54.9886 75.9937 54.9784 76.0432 54.9878Z" fill="#045EB2"/>
<path fill-rule="evenodd" clip-rule="evenodd" d="M51.4194 25.9224C54.7236 23.7529 59.1661 24.6694 61.3366 27.9747C63.507 31.2801 62.5822 35.7209 59.278 37.8907C55.9737 40.0604 51.5312 39.1437 49.3608 35.8382C47.1905 32.5327 48.1151 28.0921 51.4194 25.9224ZM60.0827 28.7979C58.3677 26.1863 54.8558 25.4608 52.2429 27.1763C49.6299 28.892 48.8998 32.4031 50.6147 35.0149C52.3297 37.6268 55.8418 38.3525 58.4548 36.6368C61.0676 34.921 61.7977 31.4097 60.0827 28.7979Z" fill="#045EB2"/>
<path d="M55.0474 27.5061C56.1387 27.4229 57.2372 27.6324 58.2048 28.1006C58.3121 28.1528 58.4184 28.2088 58.5208 28.2676C58.5621 28.2916 58.597 28.3275 58.616 28.3723C58.6349 28.417 58.6369 28.4663 58.6206 28.5105C58.6043 28.5547 58.5708 28.5911 58.5274 28.6128C58.4839 28.6345 58.434 28.6394 58.387 28.6309C58.2771 28.6114 58.1656 28.5932 58.0552 28.5772C57.061 28.4367 56.081 28.4106 55.1238 28.4824C54.1679 28.5599 53.2287 28.7442 52.3626 29.1899C52.2665 29.2398 52.1717 29.2927 52.0779 29.3496C52.0315 29.3782 51.9765 29.3932 51.9214 29.3875C51.8663 29.3817 51.8161 29.3563 51.781 29.3154C51.7459 29.2746 51.7281 29.2211 51.7307 29.1658C51.7333 29.1104 51.7565 29.0582 51.7918 29.0166C51.8713 28.9245 51.9555 28.8362 52.0442 28.7517C52.8477 27.9848 53.9625 27.5886 55.0474 27.5061Z" fill="#1074CC"/>
<path d="M84 40C90.6274 40 96 34.6274 96 28C96 21.3726 90.6274 16 84 16C77.3726 16 72 21.3726 72 28C72 34.6274 77.3726 40 84 40Z" fill="black"/>
<path d="M83.9993 21.333C84.5515 21.333 84.9993 21.7807 84.9993 22.333V31.5742L88.7043 28.5837C89.1341 28.2369 89.7637 28.3042 90.1106 28.7339C90.4574 29.1636 90.3904 29.7933 89.9607 30.1401L84.6453 34.4297C84.575 34.4893 84.4981 34.5379 84.4167 34.5752C84.4116 34.5776 84.4063 34.5797 84.4011 34.582C84.3931 34.5855 84.3851 34.589 84.3769 34.5923C84.3695 34.5953 84.362 34.5982 84.3545 34.6011C84.3456 34.6044 84.3368 34.6077 84.3279 34.6108C84.3209 34.6133 84.3139 34.6154 84.3069 34.6177C84.3 34.6199 84.2931 34.6222 84.2861 34.6243C84.2778 34.6267 84.2695 34.6291 84.2612 34.6313C84.2523 34.6338 84.2434 34.636 84.2344 34.6382C84.2287 34.6396 84.223 34.6408 84.2173 34.6421C84.2087 34.644 84.2001 34.646 84.1914 34.6477C84.1796 34.65 84.1677 34.6519 84.1558 34.6538C84.1542 34.6541 84.1527 34.6545 84.1511 34.6548C84.139 34.6566 84.1269 34.658 84.1147 34.6594C84.1084 34.6602 84.1021 34.661 84.0957 34.6616C84.0876 34.6624 84.0794 34.663 84.0713 34.6636C84.0629 34.6642 84.0545 34.6646 84.0461 34.665C84.0391 34.6654 84.0321 34.6656 84.0251 34.6658C84.0165 34.666 84.0079 34.6663 83.9993 34.6663C83.9905 34.6663 83.9818 34.666 83.9731 34.6658C83.9661 34.6656 83.9591 34.6654 83.9521 34.665C83.9438 34.6646 83.9354 34.6642 83.927 34.6636C83.9189 34.663 83.9107 34.6624 83.9026 34.6616C83.8962 34.661 83.8899 34.6602 83.8835 34.6594C83.8714 34.658 83.8593 34.6566 83.8472 34.6548C83.8456 34.6545 83.8441 34.6541 83.8425 34.6538C83.8305 34.6519 83.8186 34.65 83.8066 34.6477C83.7984 34.6461 83.7902 34.6442 83.782 34.6423C83.7758 34.641 83.7696 34.6397 83.7634 34.6382C83.7542 34.636 83.745 34.6336 83.7358 34.6311C83.728 34.629 83.7202 34.6266 83.7124 34.6243C83.7054 34.6222 83.6984 34.6199 83.6914 34.6177C83.6844 34.6154 83.6774 34.6133 83.6704 34.6108C83.6615 34.6077 83.6526 34.6044 83.6438 34.6011C83.6363 34.5982 83.6288 34.5953 83.6213 34.5923C83.6132 34.589 83.6052 34.5855 83.5972 34.582C83.592 34.5797 83.5867 34.5776 83.5815 34.5752C83.4999 34.5378 83.4226 34.4889 83.352 34.429L78.0378 30.1401C77.6081 29.7933 77.5411 29.1636 77.8879 28.7339C78.2348 28.3042 78.8644 28.2369 79.2942 28.5837L82.9993 31.5742V22.333C82.9993 21.7807 83.447 21.333 83.9993 21.333Z" fill="white"/>
</svg>
