<svg width="24" height="24" viewBox="0 0 24 24" fill="none" xmlns="http://www.w3.org/2000/svg">
<path d="M2.875 7.625C2.875 5.55393 4.55393 3.875 6.625 3.875H17.375C19.4461 3.875 21.125 5.55393 21.125 7.625V16.375C21.125 18.4461 19.4461 20.125 17.375 20.125H6.625C4.55393 20.125 2.875 18.4461 2.875 16.375V7.625Z" fill="#FF8D5C"/>
<path d="M21 16.375C21 18.4461 19.3211 20.125 17.25 20.125H6.75C4.67893 20.125 3 18.4461 3 16.375V16H17.25C19.3211 16 21 14.3211 21 12.25V16.375Z" fill="url(#paint0_linear_13193_123502)"/>
<path d="M17.2568 3.00684C19.8989 3.14053 22 5.32472 22 8V16C22 18.7614 19.7614 21 17 21H7C4.23858 21 2 18.7614 2 16V8C2 5.23858 4.23858 3 7 3H17L17.2568 3.00684ZM7 4.25C4.92893 4.25 3.25 5.92893 3.25 8V16C3.25 18.0711 4.92893 19.75 7 19.75H17C19.0711 19.75 20.75 18.0711 20.75 16V8C20.75 5.99378 19.1746 4.35551 17.1934 4.25488L17 4.25H7ZM13.625 15.125C13.9702 15.125 14.25 15.4048 14.25 15.75V17C14.25 17.3452 13.9702 17.625 13.625 17.625C13.2798 17.625 13 17.3452 13 17V15.75C13 15.4048 13.2798 15.125 13.625 15.125ZM11.75 17H5.625C5.27982 17 5 16.7202 5 16.375C5 16.0298 5.27982 15.75 5.625 15.75H11.75V17ZM18.375 15.75C18.7202 15.75 19 16.0298 19 16.375C19 16.7202 18.7202 17 18.375 17H15.5V15.75H18.375Z" fill="#9E2B08"/>
<path d="M15.1783 9.11368C15.8943 9.48769 15.8943 10.5124 15.1783 10.8864L10.4632 13.3494C9.79737 13.6972 9.00015 13.2142 9.00015 12.4631L9.00015 7.537C9.00015 6.78585 9.79737 6.30286 10.4632 6.65064L15.1783 9.11368Z" fill="#47140B"/>
<defs>
<linearGradient id="paint0_linear_13193_123502" x1="20.125" y1="12" x2="3.875" y2="12" gradientUnits="userSpaceOnUse">
<stop stop-color="#FFDACC"/>
<stop offset="0.831024" stop-color="#FFDACC" stop-opacity="0"/>
</linearGradient>
</defs>
</svg>
