<svg width="128" height="96" viewBox="0 0 128 96" fill="none" xmlns="http://www.w3.org/2000/svg">
<path d="M37.3566 49.5179L37.4931 49.2171C38.8311 46.2689 41.4543 44.1029 44.6023 43.3468L73.8025 36.3333C79.3549 34.9997 85.045 37.9423 87.1657 43.2443L90.3927 51.3118C92.0488 55.452 92.0373 60.0727 90.3606 64.2046L90.2191 64.5533C88.317 69.2404 84.2795 72.7288 79.3659 73.9302L60.3196 78.5874C52.3486 80.5365 44.1754 76.2371 41.2657 68.5645L37.1002 57.5804C36.1088 54.966 36.201 52.0641 37.3566 49.5179Z" fill="#AAAAAA"/>
<path d="M43.3766 63.7357L38.9858 52.4406C38.4048 50.946 38.3185 49.3044 38.7396 47.7571C39.2786 45.7764 40.8546 44.247 42.8506 43.7676L73.8027 36.3333C79.3552 34.9997 85.0452 37.9423 87.166 43.2443L90.1756 50.7682C91.9227 55.1359 91.358 60.0892 88.6726 63.9516C86.8894 66.5164 84.2283 68.339 81.1924 69.0747L62.3496 73.6409C54.4369 75.5584 46.3265 71.3242 43.3766 63.7357Z" fill="#E5E5E5"/>
<path d="M62.4391 45.5022C67.6349 44.4147 70.5954 50.0335 68.5414 53.3565C69.3954 54.5961 70.6825 56.3788 71.859 57.9885C72.9159 59.4346 72.1692 61.4978 70.4286 61.9202L68.5233 62.3823C68.4894 62.3278 68.4532 62.2737 68.4144 62.2207C67.5095 60.9825 66.539 59.6419 65.7506 58.5249C65.3503 57.9577 65.3635 57.2133 65.5607 56.5476C66.5341 53.2614 63.7439 48.8574 59.1559 49.7031C59.0085 47.8325 59.9604 46.0211 62.4391 45.5022Z" fill="#888888"/>
<path d="M51.1522 17.9663C60.8592 15.654 70.8098 20.7266 74.641 29.9404L77.1317 35.9304L71.4997 36.7708L69.5414 32.0608C66.7508 25.3496 59.5025 21.6548 52.432 23.3391L51.3659 23.593C45.0648 25.0942 41.5607 31.8348 43.9518 37.8547L46.017 43.0542L40.8058 44.8963L38.8187 39.8938C35.1849 30.7454 40.5103 20.5017 50.0861 18.2205L51.1522 17.9663Z" fill="#888888"/>
<path d="M33.9459 35.1685C34.0089 35.1632 34.0722 35.183 34.1259 35.2229C34.1796 35.2629 34.2187 35.32 34.246 35.3806C34.264 35.4204 34.2814 35.4601 34.2982 35.4998C34.4497 35.8573 34.5531 36.2118 34.6093 36.5735C34.6655 36.9351 34.6746 37.3043 34.6388 37.6909C34.6348 37.7339 34.6302 37.7771 34.6251 37.8206C34.6175 37.8865 34.5977 37.9527 34.5587 38.0071C34.5198 38.0614 34.4653 38.0994 34.4037 38.1135C34.3421 38.1276 34.2764 38.117 34.2177 38.085C34.159 38.0529 34.1124 38.0019 34.0768 37.9458C34.0531 37.9076 34.0302 37.8691 34.0082 37.8303C33.8098 37.4816 33.6795 37.1099 33.62 36.7273C33.5605 36.3447 33.5717 35.9509 33.6549 35.5584C33.6642 35.5148 33.6744 35.471 33.6854 35.4275C33.7023 35.3633 33.7313 35.3005 33.7775 35.2522C33.8237 35.2039 33.883 35.1738 33.9459 35.1685Z" fill="#888888"/>
<path d="M40.5023 18.8552C40.565 18.8222 40.6382 18.8093 40.7086 18.824C40.779 18.8386 40.8405 18.879 40.8803 18.937C40.9201 18.9951 40.9355 19.0673 40.9237 19.1382C40.912 19.2091 40.8736 19.2726 40.8202 19.3191C40.6296 19.4874 40.4363 19.6784 40.2616 19.8667C38.6718 21.6255 37.4799 23.7163 36.4813 25.8489C35.4935 27.9958 34.7415 30.2504 34.3183 32.6248C34.2713 32.89 34.2287 33.1527 34.1903 33.4214C34.1803 33.4916 34.1476 33.5583 34.0944 33.6067C34.0412 33.6551 33.9724 33.6813 33.902 33.6795C33.8316 33.6776 33.7643 33.6478 33.7138 33.5967C33.6632 33.5456 33.6341 33.4771 33.6278 33.4065C33.604 33.1277 33.5879 32.8526 33.5795 32.5725C33.5015 30.0628 34.0582 27.518 35.119 25.2207C36.1882 22.9341 37.7074 20.8134 39.7775 19.3062C40.0052 19.1464 40.2545 18.987 40.5023 18.8552Z" fill="#888888"/>
<path d="M72.9165 70.7354C73.0119 70.7153 73.1127 70.7301 73.1975 70.78C73.2823 70.83 73.344 70.9106 73.3694 71.0047C73.3947 71.0987 73.3817 71.1994 73.3335 71.2852C73.2852 71.3709 73.2054 71.4343 73.1128 71.4649C72.8136 71.5631 72.507 71.6573 72.209 71.7485C68.6398 72.8223 65.0498 73.7594 61.394 74.5125C60.3578 74.7148 59.3709 74.9108 58.2309 74.9744C57.2413 74.9987 56.2759 74.8467 55.3586 74.5913C55.0442 74.5036 54.7349 74.4033 54.4309 74.2922C54.3408 74.259 54.2624 74.1961 54.2146 74.1113C54.1668 74.0266 54.1532 73.9277 54.1772 73.8352C54.2013 73.7428 54.2615 73.663 54.3445 73.6123C54.4275 73.5616 54.5265 73.5447 54.6213 73.5596C54.9263 73.6069 55.2311 73.6471 55.5346 73.6785C56.4203 73.7698 57.2999 73.7883 58.1448 73.6904C59.0633 73.5562 60.1075 73.3126 61.1106 73.1143C64.7254 72.3698 68.3599 71.6179 72.0017 70.9177C72.3049 70.8585 72.6195 70.7968 72.9165 70.7354Z" fill="#484848"/>
<path d="M76.5556 69.938C76.6489 69.9331 76.7446 69.955 76.8232 70.0083C76.9018 70.0615 76.9571 70.1408 76.9773 70.2307C76.9974 70.3207 76.981 70.4159 76.9326 70.4976C76.8842 70.5793 76.8071 70.6399 76.7207 70.6753C76.6883 70.6885 76.6558 70.7013 76.6233 70.7139C76.3303 70.8276 76.0322 70.9184 75.729 70.9863C75.4257 71.0542 75.1171 71.0996 74.8037 71.1221C74.7689 71.1246 74.7341 71.1267 74.6992 71.1287C74.6057 71.1337 74.5098 71.112 74.4309 71.0586C74.352 71.0053 74.2966 70.9257 74.2763 70.8355C74.2562 70.7452 74.2725 70.6497 74.321 70.5679C74.3696 70.486 74.4469 70.4252 74.5337 70.3899C74.5661 70.3768 74.5988 70.3639 74.6313 70.3513C74.9244 70.2381 75.2226 70.1475 75.5259 70.0796C75.8291 70.0117 76.1376 69.9666 76.4511 69.9446C76.4859 69.9422 76.5208 69.9399 76.5556 69.938Z" fill="#484848"/>
<path d="M39.7707 54.4165C39.8595 54.3888 39.9564 54.3973 40.0422 54.4392C40.1281 54.4812 40.1949 54.5537 40.2366 54.638C40.3168 54.7874 40.4204 54.9843 40.5097 55.1499C41.0958 56.2483 41.6231 57.3692 42.0718 58.5217C42.924 60.7061 43.6987 62.9292 44.3794 65.1817C44.4384 65.3761 44.4966 65.57 44.5505 65.7556C44.5776 65.848 44.5729 65.9487 44.5324 66.0374C44.492 66.1259 44.4197 66.195 44.3305 66.23C44.2413 66.2649 44.1413 66.2632 44.0515 66.2256C43.9616 66.188 43.89 66.1174 43.8471 66.0313C43.7607 65.8586 43.6715 65.677 43.5825 65.4944C42.5485 63.3823 41.5963 61.228 40.7427 59.0401C40.2929 57.8846 39.9198 56.7039 39.6374 55.4722C39.5958 55.2814 39.5486 55.0734 39.5139 54.864C39.5001 54.771 39.5136 54.6733 39.5603 54.5899C39.6069 54.5065 39.682 54.4443 39.7707 54.4165Z" fill="#484848"/>
<path d="M59.157 49.7034C63.7449 48.8578 66.5349 53.2619 65.5615 56.5481C65.3643 57.2138 65.3512 57.9581 65.7514 58.5254C66.5398 59.6424 67.5103 60.983 68.4153 62.2212C68.454 62.2742 68.4902 62.3283 68.5241 62.3828L70.4294 61.9207C71.6389 61.6272 72.3682 60.5416 72.3462 59.4212L72.3415 59.3091C72.4169 60.4687 71.6799 61.6185 70.4297 61.9219L67.2619 62.6902C65.4843 63.1214 63.7379 61.875 63.5679 60.0537L63.0444 54.4456C60.8008 53.8768 59.3181 51.7542 59.157 49.7034Z" fill="#484848"/>
<path d="M69.0351 49.6343C69.352 50.9095 69.2217 52.259 68.5427 53.3577L68.5422 53.3569C69.1978 52.2963 69.342 51.002 69.0661 49.7664L69.0351 49.6343Z" fill="#484848"/>
<path fill-rule="evenodd" clip-rule="evenodd" d="M50.8052 16.5073C61.2281 14.0244 71.9128 19.4714 76.0266 29.3648L78.5615 35.4612C82.6602 36.1785 86.2568 38.9532 87.8867 43.0276L91.0891 51.0337C92.8171 55.3538 92.8051 60.1756 91.0556 64.4871L90.914 64.8357C88.9215 69.746 84.6917 73.4005 79.5442 74.6592L60.4978 79.3164C52.159 81.3554 43.6084 76.8577 40.5644 68.8311L36.3989 57.8469C35.3367 55.0458 35.4355 51.9365 36.6736 49.2085L36.8103 48.9077C37.4287 47.5451 38.3036 46.3385 39.3691 45.3418L37.4253 40.4478C33.454 30.4497 39.2739 19.2545 49.739 16.7615L50.8052 16.5073ZM86.4939 43.5847C84.4972 38.5935 79.1404 35.8232 73.9133 37.0786L44.7776 44.0767C41.8545 44.7788 39.4184 46.7902 38.176 49.5276L38.0395 49.8284C36.9666 52.1926 36.881 54.8873 37.8015 57.315L41.967 68.2991C44.7424 75.6175 52.5383 79.7184 60.1413 77.8594L79.1877 73.2022C83.8673 72.0579 87.7127 68.7356 89.5241 64.2717L89.6657 63.9231C91.2695 59.9709 91.2805 55.5509 89.6965 51.5908L86.4939 43.5847ZM74.6416 29.9407C70.8104 20.727 60.8597 15.6542 51.1528 17.9666L50.0866 18.2207L49.863 18.2756C40.4283 20.6619 35.2139 30.8171 38.8193 39.8941L40.5893 44.3506C41.7341 43.5466 43.0326 42.9531 44.4272 42.6182L45.7209 42.3074L43.9524 37.855C41.5613 31.8351 45.0654 25.0944 51.3664 23.5933L52.4326 23.3394C59.5031 21.655 66.7513 25.3498 69.542 32.061L71.2522 36.1748L73.563 35.6199C74.6666 35.3548 75.7753 35.2479 76.8637 35.2849L74.6416 29.9407ZM68.1567 32.637C65.6487 26.6054 59.1347 23.2849 52.7803 24.7986L51.7141 25.0525C46.3023 26.3418 43.2928 32.131 45.3464 37.3013L47.1943 41.9534L69.7751 36.5296L68.1567 32.637Z" fill="#484848"/>
<path d="M62.338 45.0205C63.3524 44.8251 64.4338 44.8543 65.4298 45.1813C66.2132 45.4353 66.9332 45.8665 67.5269 46.4206C67.5994 46.4884 67.6439 46.5818 67.6492 46.6813C67.6546 46.7808 67.6207 46.8783 67.5548 46.9523C67.4888 47.0264 67.3959 47.0716 67.2965 47.0778C67.197 47.0841 67.0992 47.0506 67.0235 46.9865C66.4834 46.5293 65.8516 46.1921 65.1795 46.0068C64.3249 45.7684 63.4128 45.78 62.5396 45.9841C58.6775 46.5319 59.2296 51.998 62.2208 53.4062C62.9712 53.8126 63.7328 54.5478 63.8443 55.6101C63.9945 57.068 64.1422 58.5264 64.2874 59.9848C64.3817 61.3139 65.8145 62.3189 67.0848 61.9641C67.9952 61.7411 68.9061 61.519 69.817 61.298C69.9618 61.2629 70.1069 61.228 70.2518 61.1931C71.4249 60.9656 72.0331 59.3848 71.2904 58.404C70.4136 57.1611 69.549 55.9086 68.7074 54.6369C68.1707 53.8304 68.2593 52.8912 68.4991 52.166C68.5377 52.0533 68.5716 51.9384 68.6004 51.8217C68.7633 51.1642 68.7692 50.4534 68.6363 49.7614C68.6156 49.6551 68.6344 49.5436 68.692 49.4509C68.7495 49.3582 68.8405 49.2918 68.9456 49.2663C69.0507 49.2408 69.1621 49.2582 69.2557 49.3142C69.3492 49.3702 69.4171 49.4605 69.4473 49.5644C69.6726 50.3477 69.7431 51.1917 69.6043 52.0249C69.5797 52.1725 69.5486 52.3199 69.5106 52.4658C69.3641 53.0346 69.4095 53.6146 69.6822 53.9487C70.5927 55.1569 71.5125 56.3638 72.4271 57.5732C73.8161 59.2712 72.7956 62.2027 70.6046 62.6474C70.4598 62.6827 70.3148 62.718 70.17 62.7531C69.2591 62.9741 68.3478 63.1943 67.4364 63.4133C65.3164 63.9903 62.9721 62.2992 62.8455 60.1193C62.7183 58.6592 62.5935 57.1988 62.4713 55.7382C62.4491 55.3159 62.0841 54.8598 61.5743 54.5722C59.7305 53.5128 58.5717 51.5128 58.5491 49.4128C58.4203 47.2501 60.3283 45.2611 62.338 45.0205Z" fill="#222222"/>
</svg>
