<svg width="96" height="96" viewBox="0 0 96 96" fill="none" xmlns="http://www.w3.org/2000/svg">
<path d="M21.0815 33.9023C28.2154 13.6054 58.0216 12.6369 71.8906 33.469C72.5918 34.5168 73.9695 34.9519 75.0242 34.4245L77.6672 33.2026C79.726 32.2506 81.9687 34.1056 81.4043 36.3025C80.0376 41.6212 77.9404 49.7657 76.3476 55.8845C73.9784 54.2417 71.1019 53.279 68.0005 53.279C64.5723 53.279 61.4188 54.4552 58.9216 56.426C55.785 54.7781 52.7578 53.1678 50.4834 51.9524C48.6963 50.9973 48.5761 48.4873 50.259 47.3589L54.3962 44.5847C55.5104 44.0227 55.8734 42.628 55.1147 41.5459C46.8251 29.8235 35.6298 28.4298 25.2766 36.2229C23.2327 37.7614 20.2333 36.3158 21.0815 33.9023Z" fill="#FF8D5C"/>
<path d="M55.5662 43.2439C62.5419 29.0097 35.6761 16.9435 19.585 41.5466C29.9259 27.8783 48.2134 27.69 55.5662 43.2439Z" fill="#F05F2B"/>
<path d="M32.8234 31.3077C41.045 28.8635 50.0187 31.4421 55.5002 40.6102C56.6672 42.5623 56.353 44.6621 54.7968 45.6464C53.6299 46.3844 52.7871 46.8452 51.405 47.756C50.3016 48.4831 50.1584 49.3698 50.1838 49.9349C50.2137 50.2841 50.3289 50.5798 50.6008 50.89C50.8956 51.2263 51.3894 51.5962 52.2111 52.0309C53.5395 52.7336 56.3446 54.2243 59.5942 55.9256C59.1446 56.2406 58.7136 56.5801 58.3029 56.9422C55.3025 55.3689 52.7527 54.0143 51.5097 53.3568C50.6196 52.886 49.942 52.4141 49.4726 51.8785C48.9834 51.3203 48.7413 50.7162 48.6875 50.0428C48.6868 50.0353 48.6864 50.0275 48.686 50.0199C48.6388 49.0613 48.9228 47.5953 50.5795 46.5035C51.9486 45.6013 52.9337 45.05 53.9951 44.3788C54.6671 43.9537 55.0927 42.8517 54.2128 41.38C49.099 32.8267 40.8452 30.4878 33.2507 32.7457C32.159 33.0702 31.243 33.5233 30.5996 33.8964C30.2788 34.0823 30.0281 34.247 29.8601 34.3634C29.7761 34.4215 29.7129 34.4676 29.6721 34.4979C29.6518 34.513 29.6369 34.5242 29.6279 34.5311C29.6235 34.5345 29.6202 34.5369 29.6186 34.5382H29.6181L29.6184 34.5384L29.6181 34.5387L29.6174 34.5392C29.2925 34.7952 28.8215 34.7397 28.5649 34.4152C28.3081 34.0902 28.3632 33.6185 28.6882 33.3617L29.1342 33.9259C28.7119 33.3916 28.6895 33.3631 28.6884 33.3614L28.6887 33.3612L28.6894 33.3607C28.6899 33.3603 28.6907 33.3598 28.6914 33.3592C28.6928 33.3581 28.6948 33.3566 28.697 33.3548C28.7014 33.3514 28.7074 33.3466 28.7148 33.3409C28.7297 33.3295 28.7508 33.3137 28.7775 33.2938C28.831 33.2541 28.9078 33.1982 29.0063 33.13C29.2032 32.9937 29.4877 32.8071 29.8471 32.5987C30.5644 32.1829 31.5905 31.6742 32.8234 31.3077Z" fill="#9E2B08"/>
<path d="M23.5537 27.5326C34.2782 12.6879 59.9346 14.1596 72.5134 33.0516C73.0351 33.8312 74.0185 34.0886 74.6882 33.7538L77.0278 32.5587C77.0388 32.5531 77.05 32.5479 77.0612 32.5428C80.0357 31.2046 83.1113 34.0947 82.3037 37.1371C81.7549 39.2041 80.3466 44.1564 78.9172 49.2062C78.2248 51.6522 77.5273 54.1211 76.9187 56.3016C76.5001 55.9806 76.0639 55.6815 75.6115 55.4064C76.1882 53.3444 76.8339 51.0583 77.4738 48.7977C78.9064 43.7368 80.3094 38.8034 80.854 36.7521C81.3657 34.8239 79.4047 33.1446 77.6879 33.9059L75.3649 35.0924C75.3631 35.0934 75.361 35.0944 75.3591 35.0953C73.9195 35.8152 72.1474 35.2018 71.2668 33.8859L71.2658 33.8844C59.1269 15.6511 34.7569 14.6183 24.7832 28.392C23.4726 30.4822 22.7992 31.5956 22.028 33.1495C21.8439 33.5204 21.3936 33.6719 21.0227 33.4879C20.6517 33.3038 20.5002 32.8535 20.6843 32.4825C21.4936 30.8518 22.2034 29.6827 23.5261 27.5734L23.5537 27.5326Z" fill="#9E2B08"/>
<path d="M71.7221 25.7332C71.6563 25.7331 71.5951 25.7538 71.5485 25.794C71.5018 25.8342 71.4721 25.8918 71.4625 25.9568C71.453 26.022 71.4648 26.0891 71.4855 26.1517C71.5115 26.2297 71.5387 26.307 71.5665 26.3831C71.8172 27.0682 72.1406 27.6731 72.5507 28.2125C72.9607 28.7518 73.4574 29.2258 74.0514 29.65C74.1174 29.6971 74.1847 29.7434 74.2531 29.7894C74.3078 29.826 74.3694 29.8552 74.4347 29.8633C74.5 29.8714 74.5634 29.8581 74.6146 29.8238C74.6658 29.7895 74.7021 29.7359 74.7194 29.6724C74.7367 29.609 74.7334 29.5409 74.7203 29.4764C74.7032 29.3947 74.6845 29.3137 74.6642 29.2337C74.4818 28.5144 74.1713 27.8654 73.7448 27.3045C73.3183 26.7435 72.7754 26.2704 72.1303 25.9029C72.0586 25.8621 71.9856 25.8226 71.9115 25.7845C71.8527 25.7547 71.7879 25.7334 71.7221 25.7332Z" fill="#CC3B0A"/>
<path d="M55.507 14.7274C50.7771 13.3902 45.668 13.1634 40.9252 14.4319C40.3997 14.5733 39.8784 14.7337 39.3681 14.9124C39.2996 14.9365 39.241 14.9847 39.2062 15.0491C39.1714 15.1135 39.1631 15.1885 39.183 15.2581C39.203 15.3277 39.2498 15.3867 39.3134 15.4229C39.377 15.4591 39.4521 15.4688 39.5228 15.4529C40.0378 15.3379 40.5588 15.239 41.0802 15.1561C45.7797 14.4201 50.5711 14.8963 55.0985 16.1705C59.6296 17.4566 63.9339 19.5771 67.7094 22.4903C68.1294 22.8148 68.541 23.1475 68.9474 23.492C69.0027 23.5389 69.0737 23.565 69.1469 23.5626C69.22 23.5601 69.289 23.5295 69.339 23.4771C69.389 23.4247 69.4164 23.3543 69.4154 23.2811C69.4145 23.2079 69.385 23.1381 69.3356 23.085C68.9653 22.6886 68.5853 22.3043 68.1925 21.929C64.6631 18.5539 60.2454 16.0678 55.507 14.7274Z" fill="#CC3B0A"/>
<path d="M21.1509 33.0273C21.56 31.5872 23.016 30.8781 24.3594 31.539C29.3723 34.0054 39.9772 39.8583 45.8132 43.1056C47.6341 44.1189 47.6771 46.713 45.8974 47.7971L41.7329 50.3337C40.5994 50.887 40.2075 52.2919 40.9516 53.3957C44.7453 58.9736 49.2335 62.3107 54.0188 63.5019C53.5736 64.9036 53.3335 66.3966 53.3335 67.9457C53.3335 71.2656 54.4366 74.3277 56.2961 76.7858C44.9764 78.5836 31.7 73.5473 23.8918 61.3388C23.205 60.2704 21.8248 59.8123 20.7519 60.3315L17.8186 61.603C15.7189 62.5132 13.4979 60.5975 14.1059 58.3913C16.1072 51.1301 19.5722 38.5853 21.1509 33.0273Z" fill="#75B6EB"/>
<path d="M23.8765 61.1523C23.8765 61.1523 37.4333 74.555 54.2041 72.9351C54.754 74.4553 55.5478 75.8587 56.5386 77.0979C45.4488 79.1689 32.2235 74.6577 23.8765 61.1523Z" fill="#4397E0"/>
<path d="M20.3186 33.1699C20.9091 31.1216 23.05 30.0508 25.024 31.009C30.0853 33.4662 39.3395 38.7225 45.5105 42.0473C46.9044 42.7983 47.579 44.269 47.5867 45.666C47.5943 47.0592 46.9359 48.5198 45.5 49.2224L45.5003 49.2226L42.0777 50.9995L42.0696 51.0036L42.0613 51.0078C41.344 51.3581 41.0792 52.2444 41.5728 52.9765C45.5453 58.8683 49.7499 61.989 54.17 63.0519C54.0037 63.5218 53.8608 64.0027 53.7425 64.4931C48.9144 63.3088 44.437 59.9077 40.3291 53.8151C39.3371 52.3437 39.8511 50.4266 41.3909 49.666L44.8091 47.8913L44.8191 47.8862L44.8291 47.8813C45.6478 47.4866 46.0919 46.6272 46.0867 45.6743C46.0815 44.7186 45.6221 43.8113 44.7991 43.3679C38.5639 40.0085 29.3944 34.7982 24.3689 32.3583C23.288 31.8337 22.1102 32.3707 21.76 33.5854C20.1658 39.1162 16.8975 50.6954 14.8721 57.8845C14.3409 59.7703 16.2284 61.4329 18.0384 60.6662L20.4453 59.6462C21.8906 58.961 23.6358 59.5879 24.5017 60.9033L27.3343 64.749C34.1896 73.3428 44.0344 77.1872 53.0874 76.6704C54.0627 76.6147 55.0285 76.5079 55.98 76.3517C56.3059 76.8169 56.6581 77.2623 57.0345 77.6857C55.7682 77.9319 54.4776 78.0934 53.1729 78.1679C43.6382 78.7123 33.3177 74.6616 26.1541 65.675L26.1451 65.6638L26.1365 65.6523L23.2871 61.7836L23.2732 61.7643L23.2603 61.7443C22.7496 60.9501 21.763 60.6749 21.0777 61.0065L21.0608 61.0146L21.0437 61.0219L18.6236 62.0473C15.661 63.3024 12.5541 60.5809 13.4283 57.4777C15.4532 50.2902 18.7229 38.706 20.3186 33.1699Z" fill="#045EB2"/>
<path d="M28.0416 73.7019C27.9686 73.7029 27.8992 73.7317 27.8483 73.7827C27.7973 73.8338 27.7685 73.9033 27.7677 73.9763C27.7669 74.0493 27.7946 74.1197 27.8422 74.1741C28.1587 74.5343 28.4863 74.884 28.8258 75.2241C31.8811 78.2917 35.8333 80.4753 40.0326 81.6216C44.2354 82.7739 48.6993 82.9221 52.9276 82.0777C53.3972 81.9839 53.8645 81.8777 54.3273 81.7595C54.3973 81.7416 54.4598 81.6991 54.5004 81.6384C54.5409 81.5778 54.5563 81.504 54.5431 81.4331C54.5298 81.3623 54.4888 81.2993 54.4291 81.2573C54.3694 81.2153 54.2958 81.198 54.224 81.2066C53.7584 81.2617 53.2917 81.3077 52.8256 81.3443C48.629 81.6698 44.4305 81.2689 40.4291 80.1751C36.4312 79.0781 32.6183 77.2705 29.3185 74.6709C28.952 74.3821 28.5925 74.0843 28.2394 73.7759C28.1849 73.7284 28.1146 73.701 28.0416 73.7019Z" fill="#1074CC"/>
<path d="M23.525 68.2952C23.463 68.2927 23.406 68.3077 23.3607 68.3411C23.3155 68.3745 23.2846 68.4246 23.2687 68.4846C23.2529 68.5446 23.2529 68.6103 23.2577 68.6751C23.2628 68.7344 23.2694 68.793 23.2772 68.8506C23.3479 69.3689 23.5321 69.8139 23.8217 70.1746C24.1113 70.5353 24.5063 70.8119 24.9975 70.9927C25.0519 71.0127 25.1076 71.0317 25.1644 71.0493C25.2266 71.068 25.2907 71.0821 25.3527 71.0796C25.4148 71.077 25.4704 71.0575 25.5128 71.0205C25.5552 70.9835 25.5819 70.9312 25.5929 70.8701C25.6038 70.8091 25.5985 70.7438 25.5885 70.6797C25.5792 70.6215 25.5689 70.5642 25.5575 70.5081C25.4552 70.003 25.2693 69.5824 24.9911 69.2359C24.7129 68.8893 24.3423 68.6166 23.871 68.4077C23.8186 68.3845 23.765 68.3623 23.7101 68.3406C23.6496 68.317 23.587 68.2977 23.525 68.2952Z" fill="#1074CC"/>
<path d="M69.1853 78.937C69.7344 78.8783 70.2271 79.2758 70.2859 79.825C70.3446 80.3741 69.9471 80.8668 69.3979 80.9255C68.9384 80.9747 68.472 81 68 81C67.528 81 67.0616 80.9747 66.6021 80.9255C66.0529 80.8668 65.6554 80.3741 65.7141 79.825C65.7729 79.2758 66.2656 78.8783 66.8147 78.937C67.2037 78.9786 67.5992 79 68 79C68.4008 79 68.7963 78.9786 69.1853 78.937Z" fill="#C5C5C5"/>
<path d="M60.1096 77.0962C60.436 76.6507 61.0618 76.554 61.5073 76.8804C62.1423 77.3454 62.8287 77.744 63.5562 78.0657C64.0612 78.2891 64.2895 78.8797 64.0662 79.3848C63.8428 79.8898 63.2524 80.1181 62.7473 79.8948C61.8867 79.5142 61.0753 79.0432 60.3254 78.4939C59.8799 78.1675 59.7833 77.5417 60.1096 77.0962Z" fill="#C5C5C5"/>
<path d="M74.4927 76.8804C74.9382 76.554 75.564 76.6507 75.8904 77.0962C76.2167 77.5417 76.1201 78.1675 75.6746 78.4939C74.9247 79.0432 74.1133 79.5142 73.2527 79.8948C72.7476 80.1181 72.1572 79.8898 71.9338 79.3848C71.7105 78.8797 71.9388 78.2891 72.4438 78.0657C73.1713 77.744 73.8577 77.3454 74.4927 76.8804Z" fill="#C5C5C5"/>
<path d="M56.6152 71.9338C57.1203 71.7105 57.7109 71.9388 57.9343 72.4438C58.256 73.1713 58.6546 73.8577 59.1196 74.4927C59.446 74.9382 59.3493 75.564 58.9038 75.8904C58.4583 76.2167 57.8325 76.1201 57.5061 75.6746C56.9568 74.9247 56.4858 74.1133 56.1052 73.2527C55.8819 72.7476 56.1102 72.1572 56.6152 71.9338Z" fill="#C5C5C5"/>
<path d="M78.0657 72.4438C78.2891 71.9388 78.8797 71.7105 79.3848 71.9338C79.8898 72.1572 80.1181 72.7476 79.8948 73.2527C79.5142 74.1133 79.0432 74.9247 78.4939 75.6746C78.1675 76.1201 77.5417 76.2167 77.0962 75.8904C76.6507 75.564 76.554 74.9382 76.8804 74.4927C77.3454 73.8577 77.744 73.1713 78.0657 72.4438Z" fill="#C5C5C5"/>
<path d="M72.5405 63.4187C72.8772 62.981 73.5051 62.899 73.9429 63.2356C74.3806 63.5723 74.4624 64.2002 74.1257 64.6379L67.9595 72.6541C67.3144 73.4926 66.0615 73.5259 65.373 72.7227L61.9072 68.6792C61.5479 68.2599 61.5964 67.6285 62.0156 67.269C62.4349 66.9096 63.0663 66.9582 63.4258 67.3774L66.6245 71.1094L72.5405 63.4187Z" fill="#C5C5C5"/>
<path d="M55.0745 66.6021C55.1332 66.0529 55.6259 65.6554 56.175 65.7141C56.7242 65.7729 57.1217 66.2656 57.063 66.8147C57.0214 67.2037 57 67.5992 57 68C57 68.4008 57.0214 68.7963 57.063 69.1853C57.1217 69.7344 56.7242 70.2271 56.175 70.2859C55.6259 70.3446 55.1332 69.9471 55.0745 69.3979C55.0253 68.9384 55 68.472 55 68C55 67.528 55.0253 67.0616 55.0745 66.6021Z" fill="#C5C5C5"/>
<path d="M79.825 65.7141C80.3741 65.6554 80.8668 66.0529 80.9255 66.6021C80.9747 67.0616 81 67.528 81 68C81 68.472 80.9747 68.9384 80.9255 69.3979C80.8668 69.9471 80.3741 70.3446 79.825 70.2859C79.2758 70.2271 78.8783 69.7344 78.937 69.1853C78.9786 68.7963 79 68.4008 79 68C79 67.5992 78.9786 67.2037 78.937 66.8147C78.8783 66.2656 79.2758 65.7729 79.825 65.7141Z" fill="#C5C5C5"/>
<path d="M57.5061 60.3254C57.8325 59.8799 58.4583 59.7833 58.9038 60.1096C59.3493 60.436 59.446 61.0618 59.1196 61.5073C58.6546 62.1423 58.256 62.8287 57.9343 63.5562C57.7109 64.0612 57.1203 64.2895 56.6152 64.0662C56.1102 63.8428 55.8819 63.2524 56.1052 62.7473C56.4858 61.8867 56.9568 61.0753 57.5061 60.3254Z" fill="#C5C5C5"/>
<path d="M77.0962 60.1096C77.5417 59.7833 78.1675 59.8799 78.4939 60.3254C79.0432 61.0753 79.5142 61.8867 79.8948 62.7473C80.1181 63.2524 79.8898 63.8428 79.3848 64.0662C78.8797 64.2895 78.2891 64.0612 78.0657 63.5562C77.744 62.8287 77.3454 62.1423 76.8804 61.5073C76.554 61.0618 76.6507 60.436 77.0962 60.1096Z" fill="#C5C5C5"/>
<path d="M62.7473 56.1052C63.2524 55.8819 63.8428 56.1102 64.0662 56.6152C64.2895 57.1203 64.0612 57.7109 63.5562 57.9343C62.8287 58.256 62.1423 58.6546 61.5073 59.1196C61.0618 59.446 60.436 59.3493 60.1096 58.9038C59.7833 58.4583 59.8799 57.8325 60.3254 57.5061C61.0753 56.9568 61.8867 56.4858 62.7473 56.1052Z" fill="#C5C5C5"/>
<path d="M71.9338 56.6152C72.1572 56.1102 72.7476 55.8819 73.2527 56.1052C74.1133 56.4858 74.9247 56.9568 75.6746 57.5061C76.1201 57.8325 76.2167 58.4583 75.8904 58.9038C75.564 59.3493 74.9382 59.446 74.4927 59.1196C73.8577 58.6546 73.1713 58.256 72.4438 57.9343C71.9388 57.7109 71.7105 57.1203 71.9338 56.6152Z" fill="#C5C5C5"/>
<path d="M68 55C68.472 55 68.9384 55.0253 69.3979 55.0745C69.9471 55.1332 70.3446 55.6259 70.2859 56.175C70.2271 56.7242 69.7344 57.1217 69.1853 57.063C68.7963 57.0214 68.4008 57 68 57C67.5992 57 67.2037 57.0214 66.8147 57.063C66.2656 57.1217 65.7729 56.7242 65.7141 56.175C65.6554 55.6259 66.0529 55.1332 66.6021 55.0745C67.0616 55.0253 67.528 55 68 55Z" fill="#C5C5C5"/>
</svg>
