<svg width="128" height="96" viewBox="0 0 128 96" fill="none" xmlns="http://www.w3.org/2000/svg">
<path d="M86.1577 20.3652C88.842 20.06 91.3007 21.895 91.7717 24.5551L96.4102 50.7499C94.4734 49.8072 92.2981 49.2783 89.9993 49.2782C81.8991 49.2782 75.3326 55.8446 75.3325 63.9448C75.3325 66.5374 76.0052 68.973 77.1856 71.0864L45.0237 78.7636C42.1607 79.447 39.313 77.5789 38.7998 74.6806L31.2551 32.0737C30.7409 29.1696 32.783 26.4337 35.7134 26.1005L86.1577 20.3652Z" fill="#75B6EB"/>
<path d="M31.2551 32.0754L32.0743 36.7016L92.417 28.2006L91.7717 24.5568C91.3007 21.8966 88.8419 20.0615 86.1576 20.3667L35.7132 26.1021C32.7828 26.4353 30.7408 29.1712 31.2551 32.0754Z" fill="#4397E0"/>
<path d="M84.1489 39.0055C85.7099 38.7639 87.1706 39.8358 87.4082 41.3973C87.6417 42.932 86.6061 44.372 85.0769 44.639L47.3325 51.2288C45.5717 51.5362 43.8968 50.3529 43.5979 48.5907C43.297 46.8165 44.5061 45.1395 46.2844 44.8643L84.1489 39.0055Z" fill="#CBEAFF"/>
<path d="M37.7517 29.326C38.6644 29.1644 39.5321 29.7538 39.6894 30.6424C39.8468 31.531 39.2342 32.3824 38.3215 32.544C37.4088 32.7056 36.5414 32.1162 36.384 31.2276C36.2267 30.339 36.839 29.4876 37.7517 29.326Z" fill="#CBEAFF"/>
<path d="M43.3054 28.9237C44.1269 28.7782 44.9077 29.3087 45.0493 30.1085C45.1909 30.9082 44.6397 31.6745 43.8184 31.8199C42.9969 31.9653 42.2161 31.4348 42.0745 30.6351C41.9328 29.8353 42.484 29.0691 43.3054 28.9237Z" fill="#CBEAFF"/>
<path d="M48.5144 28.4998C49.2446 28.3706 49.9386 28.8422 50.0644 29.5531C50.1903 30.264 49.7004 30.945 48.9702 31.0743C48.24 31.2035 47.546 30.732 47.4202 30.0211C47.2943 29.3102 47.7842 28.6291 48.5144 28.4998Z" fill="#CBEAFF"/>
<path d="M86.0732 19.62C89.151 19.2702 91.9705 21.3743 92.5107 24.4244L97.2507 51.1937C96.715 50.8885 96.1583 50.616 95.5832 50.379L91.0336 24.6862C90.6317 22.4161 88.5332 20.8499 86.2426 21.1102L35.798 26.8458C33.2975 27.1303 31.555 29.4651 31.9938 31.9432L32.6335 35.5558C33.3191 35.4653 34.005 35.3748 34.6906 35.2843L78.1257 29.5531C78.9299 29.447 79.7345 29.3409 80.5388 29.2347C80.6694 29.2176 80.8021 29.2533 80.9072 29.3334C81.0122 29.4136 81.0812 29.5319 81.0991 29.6625C81.1169 29.7931 81.0825 29.9258 81.0029 30.0314C80.9232 30.1369 80.8048 30.207 80.6743 30.2257C79.8712 30.3401 79.0677 30.4544 78.2646 30.5687L34.8906 36.7457C34.2253 36.8405 33.5598 36.9351 32.8945 37.0299L39.5385 74.5499C39.9765 77.0232 42.4067 78.6175 44.8498 78.0343L76.8266 70.4012C77.0565 70.8694 77.3104 71.3235 77.5871 71.7618L45.1982 79.4933C41.9154 80.2769 38.65 78.1347 38.0615 74.8114L30.5168 32.2047C29.9272 28.8748 32.2686 25.7375 35.6286 25.3554L86.0732 19.62Z" fill="#045EB2"/>
<path d="M84.0664 38.4808C85.8507 38.1839 87.6659 39.568 87.864 41.327C88.1409 43.0483 86.8281 44.794 85.142 45.0192C84.843 45.0658 84.5437 45.1125 84.2446 45.1591C82.7419 45.3929 81.2387 45.6254 79.7355 45.8561C79.6626 45.8673 79.5877 45.8498 79.5273 45.807C79.4669 45.7642 79.4258 45.6995 79.413 45.6268C79.4003 45.5541 79.417 45.4791 79.4594 45.4183C79.5018 45.3576 79.5665 45.3161 79.6389 45.3019C81.1312 45.0096 82.6242 44.7188 84.1171 44.4296C84.4143 44.372 84.7118 44.3144 85.009 44.257C86.2864 44.0357 87.1926 42.6961 86.9494 41.4659C86.7626 40.2021 85.4436 39.2866 84.2287 39.5287C73.9628 41.2654 63.6854 42.9295 53.3972 44.5214C51.0641 44.8824 48.7302 45.2398 46.3959 45.5934C45.0698 45.7582 44.0536 47.1441 44.3029 48.4701C44.4838 49.7974 45.8787 50.8086 47.2138 50.5555C55.0316 49.2532 62.857 47.9925 70.6894 46.7738C72.192 46.54 73.6953 46.3077 75.1984 46.077C75.2713 46.0659 75.3463 46.0833 75.4067 46.1261C75.467 46.1689 75.5082 46.2337 75.5209 46.3063C75.5336 46.3788 75.517 46.4538 75.4748 46.5145C75.4325 46.5752 75.3677 46.617 75.2954 46.6312C73.8029 46.9235 72.3098 47.2143 70.8168 47.5035C63.0349 49.011 55.2453 50.4767 47.4487 51.9005C45.4024 52.3235 43.2024 50.7952 42.8901 48.7096C42.4743 46.6293 44.0541 44.4139 46.1699 44.1334C48.5018 43.765 50.8348 43.4002 53.1679 43.0392C63.4561 41.4473 73.7558 39.928 84.0664 38.4808Z" fill="#045EB2"/>
<path d="M28.4524 28.9188C28.5448 28.9076 28.6375 28.9324 28.7106 28.9883C28.7837 29.0441 28.8319 29.1269 28.8454 29.219C28.8589 29.3112 28.8361 29.4047 28.7855 29.4817C28.361 30.1245 28.064 30.8098 27.9169 31.5334C27.5795 33.2309 27.8932 35.0536 28.2622 36.8395C28.5493 38.2106 28.8 39.5981 29.0403 40.9936C30.9143 51.991 32.7055 63.0186 34.5272 74.0328C34.6585 74.8265 34.7888 75.6151 34.9203 76.4085C34.9375 76.5121 34.9146 76.619 34.8547 76.7058C34.795 76.7925 34.7035 76.8519 34.6004 76.8713C34.4973 76.8907 34.3906 76.8685 34.3034 76.8094C34.2161 76.7503 34.1557 76.659 34.1341 76.5563C33.9685 75.7688 33.8052 74.9858 33.6422 74.1974C31.3792 63.258 29.365 52.2544 27.4913 41.2589C27.2518 39.8672 27.0323 38.464 26.817 37.1112C26.5255 35.2259 26.3155 33.2242 26.9317 31.2655C27.1985 30.4368 27.6591 29.6732 28.2147 29.0459C28.2756 28.9768 28.3599 28.93 28.4524 28.9188Z" fill="#1074CC"/>
<path d="M90 75.75C96.6274 75.75 102 70.3774 102 63.75C102 57.1226 96.6274 51.75 90 51.75C83.3726 51.75 78 57.1226 78 63.75C78 70.3774 83.3726 75.75 90 75.75Z" fill="black"/>
<path fill-rule="evenodd" clip-rule="evenodd" d="M89.9992 57.3398C90.474 57.341 90.9452 57.522 91.2831 57.8662C91.8361 58.4297 92.3157 58.7224 92.797 58.8716C93.2802 59.0214 93.8655 59.0575 94.6898 58.9526C95.1585 58.893 95.6452 59.011 96.0265 59.2974C96.4112 59.5864 96.6619 60.031 96.6661 60.5291C96.6929 63.6626 96.2365 65.7177 95.2396 67.2085C94.1863 68.7837 92.4963 69.6374 91.045 70.3706C90.9761 70.4055 90.907 70.4405 90.8392 70.4749C90.3175 70.7393 89.6837 70.7394 89.162 70.4749C89.0938 70.4403 89.025 70.4054 88.9557 70.3704C87.5045 69.6371 85.8152 68.7836 84.7618 67.2085C83.765 65.7178 83.3084 63.6628 83.3351 60.5293C83.3393 60.0317 83.5895 59.5874 83.9738 59.2983C84.3546 59.0119 84.8408 58.8936 85.3092 58.9526C86.1382 59.0571 86.7253 59.0145 87.2086 58.8601C87.6891 58.7066 88.1645 58.4114 88.7123 57.8596C89.052 57.5174 89.5242 57.3387 89.9992 57.3398ZM93.1007 61.2063C92.6589 60.875 92.032 60.9646 91.7006 61.4063L89.3331 64.5627L88.268 63.2881C87.9138 62.8644 87.283 62.8081 86.8593 63.1621C86.4355 63.5163 86.3792 64.147 86.7333 64.5708L88.0685 66.1685C88.7577 66.9931 90.0359 66.9594 90.6808 66.0996L93.3007 62.6065C93.6319 62.1646 93.5425 61.5377 93.1007 61.2063Z" fill="white"/>
</svg>
