<svg width="96" height="96" viewBox="0 0 96 96" fill="none" xmlns="http://www.w3.org/2000/svg">
<path d="M20.2417 52.8854C20.3108 52.8727 20.3824 52.8881 20.4412 52.9279C20.5 52.9677 20.5409 53.0288 20.5571 53.0973C20.6713 53.5814 20.7843 54.0659 20.896 54.5504C21.9015 58.9123 22.8076 63.2927 23.6143 67.6911C24.1744 70.7455 24.6839 73.8094 25.1426 76.8825C25.3375 78.2182 25.555 79.5512 26.1897 80.6654C26.4219 81.064 26.7168 81.4211 27.0901 81.6742C27.1437 81.7102 27.1833 81.765 27.1987 81.8283C27.2141 81.8916 27.2044 81.9584 27.1714 82.0138C27.1383 82.0692 27.0843 82.1093 27.0212 82.1259C26.9582 82.1425 26.8912 82.1338 26.834 82.1037C26.3506 81.847 25.9553 81.4533 25.6453 81.0219C24.7991 79.8162 24.4655 78.3958 24.1755 77.059C23.514 74.0241 22.903 70.9787 22.3428 67.9242C21.5361 63.5259 20.8287 59.109 20.2209 54.6742C20.1534 54.1815 20.087 53.6884 20.022 53.1952C20.0128 53.1254 20.0295 53.0538 20.0703 52.9958C20.1112 52.9378 20.1726 52.8981 20.2417 52.8854Z" fill="#F5A031"/>
<path d="M59.6084 70.5404C59.86 71.8208 60.278 73.0415 60.8394 74.1789L34.8635 79.4347C34.8586 79.4357 34.5128 79.5055 34.3328 79.5414C32.2049 79.9658 30.1357 78.5863 29.7112 76.4584C29.3807 74.8019 30.1447 73.179 31.5076 72.3419C31.309 72.8984 31.2549 73.5129 31.3787 74.1349C31.7431 75.9632 34.024 76.0188 35.8525 75.6525L59.6084 70.5404Z" fill="#F5A031"/>
<path d="M60.5457 19.3888C65.0211 18.6004 67.3098 21.4618 67.8516 24.183L73.6704 53.0331C72.6594 53.0553 71.6735 53.1797 70.7229 53.3966L64.7673 24.1042C64.4104 22.3215 62.7512 20.5517 61.0837 20.3888L60.8274 20.1947L60.8022 20.1076L60.5457 19.3888Z" fill="#F5A031"/>
<path d="M59.4291 66.0154C59.3663 66.5666 59.3339 67.1272 59.3339 67.6953C59.3339 68.974 59.4979 70.2143 59.8053 71.3967L36.3307 76.0864C36.322 76.0895 35.3358 76.4399 35.1816 76.4709C33.3531 76.8372 31.5732 75.6512 31.2087 73.823C31.0849 73.2009 31.139 72.5863 31.3376 72.0298C31.7224 71.7928 32.848 71.3251 33.3173 71.2327C33.4988 71.1965 34.7966 70.9353 35.2983 70.8369L59.4291 66.0154Z" fill="#FFFBF0"/>
<path d="M61.6828 21.4102C63.2633 22.0196 64.5061 23.4004 64.863 25.1831L70.5092 53.4465C69.7239 53.6383 68.9636 53.8936 68.2336 54.2061L61.6828 21.4102Z" fill="#FFFBF0"/>
<path d="M53.9421 16.7937C57.1482 16.1546 60.2646 18.2207 60.9294 21.416C60.9326 21.4313 60.9358 21.4467 60.9389 21.4619L60.9858 21.7039L67.5427 54.523C63.1119 56.6989 59.9395 61.0446 59.4109 66.1743L34.603 71.1309C34.1014 71.2293 32.8036 71.4904 32.622 71.5266C32.1528 71.6191 31.7205 71.7933 31.3357 72.0303C29.9727 72.8673 29.2088 74.49 29.5393 76.1465L20.2395 29.5916C19.5955 26.3699 21.6879 23.2375 24.9074 22.595L53.9421 16.7937Z" fill="#FFC95C"/>
<path d="M53.797 16.0571C56.3406 15.5481 58.8352 16.5547 60.3488 18.4521C60.5078 18.4443 60.6973 18.4346 60.89 18.4248C61.1092 18.4136 61.3322 18.4026 61.5092 18.3955C61.5972 18.3919 61.678 18.3892 61.7428 18.3879C61.7675 18.3874 61.823 18.3864 61.8824 18.3889C64.23 18.3263 65.9189 19.2234 67.0748 20.5197C68.2128 21.796 68.8028 23.4193 69.0758 24.79L74.7206 53.0451C74.4822 53.0336 74.2423 53.0278 74.0011 53.0278C73.7295 53.0278 73.4597 53.0352 73.1918 53.0498L67.6049 25.0835L67.6046 25.0832C67.3626 23.8682 66.8547 22.5268 65.9552 21.518C65.0794 20.5359 63.8018 19.8303 61.8937 19.8886C61.8908 19.8887 61.8878 19.8884 61.8849 19.8884C64.0471 20.4839 65.0645 22.4033 65.4357 24.0437L65.4745 24.2256L71.2787 53.28C70.7831 53.373 70.2962 53.4908 69.8195 53.6323L64.0035 24.52C63.7342 23.1748 63.0429 21.8888 61.6952 21.405L68.2472 54.1997C67.7693 54.4037 67.3043 54.6321 66.8541 54.8838L60.2057 21.6057L60.1779 21.4746C59.5571 18.7351 56.8606 16.9737 54.0914 17.5278L25.0565 23.3286L25.0568 23.3288C22.2422 23.892 20.4141 26.6302 20.9769 29.4431L20.9767 29.4433L29.6061 72.6335C30.2731 71.7114 31.2759 71.0287 32.4791 70.7883L59.515 65.3879C59.4341 65.9003 59.3796 66.4214 59.3531 66.9499L32.7731 72.2592C32.0493 72.4039 31.4327 72.7845 30.9862 73.3047C30.9888 73.3227 30.991 73.3409 30.9923 73.3593C31.0584 74.2947 31.4783 74.7743 32.0099 75.031C32.5954 75.3136 33.4037 75.3609 34.2198 75.1975C34.2981 75.1817 34.413 75.1592 34.5077 75.1404C34.555 75.1309 34.5976 75.1225 34.6283 75.1164C34.6436 75.1134 34.6561 75.1108 34.6647 75.1091C34.6688 75.1083 34.6722 75.1076 34.6744 75.1071C34.6755 75.1069 34.6765 75.1065 34.6771 75.1064H34.6779L59.5043 69.9323C59.5806 70.4309 59.682 70.9211 59.8073 71.4018L34.9694 76.5779L34.9686 76.5781C34.9681 76.5782 34.9672 76.5784 34.9662 76.5786C34.964 76.579 34.9604 76.5797 34.9562 76.5805C34.9477 76.5822 34.9354 76.5846 34.9203 76.5876C34.8897 76.5937 34.8469 76.6022 34.7997 76.6115C34.705 76.6304 34.5918 76.6528 34.5155 76.6682L34.515 76.6684C33.5029 76.8712 32.3342 76.8533 31.3575 76.3818C30.9127 76.1671 30.5245 75.8653 30.2184 75.4748C30.2239 75.648 30.2437 75.8232 30.2787 75.9987C30.281 76.0104 30.283 76.0222 30.2848 76.0339C30.6441 77.7348 32.3064 78.8335 34.0165 78.4924C34.1062 78.4745 34.2385 78.4482 34.3485 78.426C34.4033 78.4149 34.4527 78.4048 34.4882 78.3977C34.5058 78.3941 34.5201 78.3911 34.5299 78.3891C34.5348 78.3881 34.5388 78.3875 34.5414 78.3869C34.5426 78.3867 34.5437 78.3863 34.5443 78.3862H34.5448L60.3802 73.1435C60.5722 73.6228 60.7885 74.0897 61.028 74.5424L34.8431 79.8562L34.8426 79.8564H34.8414C34.8408 79.8566 34.8397 79.8569 34.8385 79.8571C34.8359 79.8577 34.8321 79.8584 34.8273 79.8593C34.8173 79.8614 34.8026 79.8645 34.7848 79.8681C34.7492 79.8753 34.6997 79.8851 34.6447 79.8962L34.3099 79.9636C31.7779 80.4686 29.3154 78.8282 28.8075 76.2966L28.807 76.2968C28.7983 76.2549 28.7905 76.2133 28.7833 76.1721L19.506 29.7373L19.5062 29.737C18.7807 26.1103 21.1371 22.5836 24.7621 21.8581L24.7626 21.8579L53.7972 16.0569L53.797 16.0571Z" fill="#B66A1F"/>
<path d="M41.5056 19.3031C41.2659 18.1025 40.0996 17.3259 38.899 17.5657L35.978 18.1501L33.7283 18.6001L26.2158 20.1005C24.958 20.3522 24.142 21.5752 24.3937 22.8329L30.3974 52.856C30.6083 53.9129 31.9933 54.1844 32.5884 53.2869L35.2577 49.2659C36.0499 48.0735 37.6578 47.7531 38.8459 48.5483L42.8565 51.2351C43.7513 51.8355 44.9251 51.0521 44.7141 49.9952C44.7141 49.9952 39.8602 25.7424 38.8439 20.6622C38.7567 20.2234 39.0414 19.7955 39.4802 19.7083L41.5056 19.3031Z" fill="#4397E0"/>
<path d="M38.7513 16.8305C40.3573 16.5098 41.9193 17.5492 42.2403 19.1567C42.3214 19.5627 42.058 19.9575 41.6521 20.0388L39.6266 20.4441L39.6146 20.4479C39.5897 20.4585 39.5728 20.4865 39.5788 20.5166C40.0871 23.0576 41.5543 30.3896 42.8947 37.0869C43.5649 40.436 44.2036 43.6265 44.6745 45.9795C44.91 47.1561 45.1036 48.1234 45.2383 48.7964C45.3057 49.1329 45.3582 49.3959 45.394 49.5748C45.4119 49.6642 45.4256 49.7326 45.4348 49.7787C45.4394 49.8017 45.443 49.8191 45.4454 49.8308C45.4465 49.8366 45.4474 49.8411 45.448 49.844C45.4483 49.8455 45.4483 49.8466 45.4485 49.8473C45.4485 49.8477 45.4488 49.8479 45.4488 49.8481C45.4489 49.8483 45.4488 49.8484 44.7263 49.993L45.4488 49.8481L45.4489 49.8489C45.7906 51.5613 43.889 52.8315 42.4383 51.8587L38.428 49.1718C37.5849 48.6075 36.4443 48.8349 35.8819 49.6812L33.2125 53.7014L33.2127 53.7017C32.2482 55.1563 30.0034 54.7171 29.6611 53.0035L23.6576 22.9805C23.3245 21.3162 24.4045 19.6984 26.0679 19.3655L38.751 16.8307L38.7513 16.8305ZM40.4203 18.7555C40.0858 18.3859 39.5709 18.1967 39.0452 18.3016L39.045 18.3014L33.8747 19.336L26.3619 20.8364L26.3617 20.8362C25.5099 21.0069 24.958 21.8353 25.1283 22.6863L31.1321 52.7093C31.2119 53.1093 31.7368 53.2131 31.9625 52.8728L31.9627 52.8726L34.6323 48.8514C35.6543 47.313 37.7292 46.8994 39.2622 47.9256L43.2731 50.6123L43.2738 50.6127C43.6125 50.8399 44.0578 50.5436 43.9778 50.1426L43.9777 50.1418C43.9776 50.1411 43.9773 50.1399 43.977 50.1385C43.9764 50.1355 43.9756 50.131 43.9744 50.1252C43.9721 50.1135 43.9687 50.0961 43.9641 50.0732C43.9549 50.0271 43.9412 49.9586 43.9233 49.8693C43.8875 49.6904 43.8348 49.4272 43.7674 49.0906C43.6327 48.4176 43.439 47.4504 43.2035 46.274C42.7326 43.9209 42.0942 40.7305 41.4239 37.3814C40.0834 30.6832 38.6159 23.35 38.1078 20.8098L38.1074 20.8088C37.9452 19.9919 38.453 19.1929 39.2549 18.9909L39.3334 18.9731L40.4203 18.7555Z" fill="#045EB2"/>
<path d="M74 79.75C80.6274 79.75 86 74.3774 86 67.75C86 61.1226 80.6274 55.75 74 55.75C67.3726 55.75 62 61.1226 62 67.75C62 74.3774 67.3726 79.75 74 79.75Z" fill="black"/>
<path d="M73.9991 61.0859C74.5503 61.0859 74.9969 61.5326 74.9969 62.0837V71.3289L78.7054 68.3359C79.1343 67.9899 79.7626 68.057 80.1088 68.4858C80.4548 68.9147 80.3876 69.5428 79.9588 69.8889L74.6398 74.1819C74.5967 74.218 74.5513 74.25 74.5038 74.2778C74.4993 74.2804 74.4948 74.2829 74.4903 74.2854C74.4806 74.2909 74.4707 74.2963 74.4608 74.3015C74.4552 74.3044 74.4496 74.3072 74.444 74.3101C74.4361 74.314 74.4282 74.3178 74.4203 74.3215C74.412 74.3254 74.4037 74.3291 74.3954 74.3328C74.3892 74.3354 74.383 74.338 74.3768 74.3406C74.3665 74.3448 74.3562 74.3487 74.3458 74.3525C74.3417 74.3541 74.3375 74.3557 74.3334 74.3572C74.3064 74.3668 74.2793 74.3752 74.2518 74.3823C74.2485 74.3832 74.2452 74.3842 74.2418 74.385C74.2302 74.3879 74.2186 74.3906 74.2069 74.3931C74.2025 74.394 74.1981 74.3949 74.1937 74.3958C74.1809 74.3983 74.168 74.4006 74.1551 74.4026C74.1536 74.4028 74.152 74.4031 74.1505 74.4033C74.1387 74.4051 74.1269 74.4066 74.1151 74.408C74.1082 74.4088 74.1013 74.4095 74.0943 74.4102C74.0868 74.4109 74.0792 74.4116 74.0716 74.4121C74.0629 74.4127 74.0542 74.4132 74.0455 74.4136C74.0386 74.4139 74.0317 74.4141 74.0248 74.4143C74.0161 74.4145 74.0075 74.4148 73.9989 74.4148C73.9901 74.4148 73.9813 74.4145 73.9725 74.4143C73.9658 74.4141 73.9592 74.4139 73.9525 74.4136C73.9435 74.4132 73.9346 74.4128 73.9256 74.4121C73.9183 74.4116 73.911 74.4109 73.9037 74.4102C73.8966 74.4095 73.8895 74.4088 73.8824 74.408C73.8711 74.4066 73.8598 74.405 73.8485 74.4033C73.8461 74.403 73.8438 74.4027 73.8414 74.4023C73.8126 74.3978 73.7839 74.3919 73.7555 74.3848C73.7521 74.3839 73.7488 74.3832 73.7455 74.3823C73.7325 74.3789 73.7196 74.375 73.7067 74.3711C73.7053 74.3707 73.704 74.3703 73.7027 74.3699C73.6893 74.3657 73.676 74.3614 73.6627 74.3567C73.6596 74.3556 73.6565 74.3544 73.6534 74.3533C73.643 74.3494 73.6325 74.3455 73.6222 74.3413C73.6149 74.3383 73.6077 74.3352 73.6004 74.332C73.5929 74.3287 73.5855 74.3253 73.578 74.3218C73.5677 74.317 73.5576 74.312 73.5475 74.3069C73.5449 74.3056 73.5422 74.3043 73.5397 74.303C73.5278 74.2968 73.5161 74.2903 73.5045 74.2837C73.5011 74.2818 73.4976 74.2801 73.4942 74.2781C73.4464 74.2501 73.4006 74.2178 73.3573 74.1814L68.0392 69.8889C67.6104 69.5428 67.5432 68.9147 67.8893 68.4858C68.2354 68.057 68.8637 67.9898 69.2926 68.3359L73.0013 71.3291V62.0837C73.0013 61.5326 73.448 61.086 73.9991 61.0859Z" fill="white"/>
</svg>
