<svg width="226" height="62" viewBox="0 0 226 62" fill="none" xmlns="http://www.w3.org/2000/svg">
<path d="M128.732 28.3377H125.918L120.797 33.6037V23.0718H118.633V41.0337H120.797V35.1185L126.64 40.9616L126.712 41.0337H129.165H129.309V40.8173L122.744 34.325L128.732 28.3377Z" fill="#333333"/>
<path d="M114.813 37.9569C114.019 38.7504 112.865 39.1832 111.567 39.1832C109.33 39.1832 107.094 37.8126 107.094 34.6386C107.094 31.9696 108.97 30.094 111.567 30.094C112.721 30.094 113.803 30.5268 114.669 31.3203L114.741 31.3925L116.111 29.9498L116.039 29.8776C114.741 28.6513 113.226 28.0742 111.495 28.0742C107.527 28.0742 104.858 30.7433 104.858 34.6386C104.858 39.1832 108.176 41.203 111.495 41.203H111.567C113.298 41.203 114.957 40.5538 116.111 39.3275L116.183 39.2553L114.741 37.8126L114.813 37.9569Z" fill="#333333"/>
<path d="M100.096 35.1449C100.096 37.4533 98.5094 39.1846 96.2731 39.2567C93.8926 39.2567 92.4499 37.814 92.4499 35.3614V28.3641H90.2858V35.3614C90.2858 38.9682 92.4499 41.2765 95.8403 41.2765H95.9125C97.5716 41.2765 99.0864 40.483 100.096 39.2567L100.168 39.1124L100.241 41.0601H102.26V28.3641H100.096V35.1449Z" fill="#333333"/>
<path d="M78.7257 22.9993H72.1613V41.0333H78.7257C85.0016 41.0333 87.7427 36.4166 87.7427 31.872C87.7427 27.616 84.9294 22.9993 78.7257 22.9993ZM85.5065 31.7999C85.5065 35.2624 83.4146 38.725 78.7978 38.725H74.4697V25.2355H78.7257C83.3424 25.2355 85.5065 28.6259 85.5065 31.7999Z" fill="#333333"/>
<path d="M197.829 33.1691H203.384V37.353C202.013 38.5072 200.354 39.1564 198.551 39.1564C193.645 39.1564 191.409 35.6217 191.409 32.1592C191.409 28.6245 193.645 24.8013 198.479 24.8013C200.426 24.8013 202.23 25.5227 203.672 26.8211L203.745 26.8932L205.043 25.3784L204.971 25.3063C203.24 23.575 200.931 22.7094 198.406 22.7094C195.665 22.7094 193.357 23.575 191.698 25.3063C189.966 27.0375 189.029 29.4901 189.101 32.2313C189.101 36.4874 191.553 41.3926 198.479 41.3926C198.551 41.3926 198.551 41.3926 198.623 41.3926C201.22 41.3926 203.672 40.3106 205.404 38.3629V31.2214H197.757V33.1691H197.829Z" fill="#333333"/>
<path d="M137.957 22.9993H131.392V41.0333H137.957C144.233 41.0333 146.974 36.4166 146.974 31.872C146.974 27.616 144.16 22.9993 137.957 22.9993ZM144.737 31.7999C144.737 35.2624 142.646 38.725 138.029 38.725H133.773V25.2355H138.029C142.573 25.2355 144.737 28.6259 144.737 31.7999Z" fill="#333333"/>
<path d="M214.297 28.0742C210.474 28.0742 207.733 30.8875 207.733 34.7108C207.733 38.534 210.474 41.2751 214.297 41.2751C218.12 41.2751 220.934 38.534 220.934 34.7108C220.934 30.8154 218.193 28.0742 214.297 28.0742ZM218.77 34.7108C218.77 37.3798 216.894 39.2553 214.297 39.2553C211.772 39.2553 209.897 37.3798 209.897 34.7108C209.897 31.9696 211.7 30.0219 214.369 30.0219C216.894 30.094 218.77 32.0417 218.77 34.7108Z" fill="#333333"/>
<path d="M159.327 35.1449C159.327 37.4533 157.74 39.1846 155.504 39.2567C153.124 39.2567 151.681 37.814 151.681 35.3614V28.3641H149.517V35.3614C149.517 38.9682 151.681 41.2765 154.999 41.2765H155.071C156.73 41.2765 158.245 40.483 159.255 39.2567L159.327 39.1124L159.4 41.0601H161.419V28.3641H159.255V35.1449H159.327Z" fill="#333333"/>
<path d="M174.044 37.9569C173.25 38.7504 172.096 39.1832 170.798 39.1832C168.561 39.1832 166.325 37.8126 166.325 34.6386C166.325 31.9696 168.201 30.094 170.798 30.094C171.952 30.094 173.034 30.5268 173.9 31.3203L173.972 31.3925L175.342 29.9498L175.27 29.8776C173.972 28.6513 172.457 28.0742 170.726 28.0742C166.758 28.0742 164.089 30.7433 164.089 34.6386C164.089 39.1832 167.407 41.203 170.726 41.203H170.798C172.529 41.203 174.188 40.5538 175.342 39.3275L175.414 39.2553L173.972 37.8126L174.044 37.9569Z" fill="#333333"/>
<path d="M187.963 28.3377H185.149L180.028 33.6037V23.0718H177.864V41.0337H180.028V35.1185L185.871 40.9616L185.943 41.0337H188.396H188.54V40.8173L181.975 34.325L187.963 28.3377Z" fill="#333333"/>
<path fill-rule="evenodd" clip-rule="evenodd" d="M31 62C48.1208 62 62 48.1208 62 31C62 13.8792 48.1208 0 31 0C13.8792 0 0 13.8792 0 31C0 48.1208 13.8792 62 31 62Z" fill="#DE5833"/>
<path fill-rule="evenodd" clip-rule="evenodd" d="M35.3594 54.129C35.3594 53.8868 35.4188 53.8315 34.649 52.297C32.603 48.1998 30.5466 42.4235 31.4818 38.6984C31.6523 38.0215 29.5546 13.6348 28.0718 12.8495C26.4236 11.9712 24.3958 10.5779 22.5409 10.2679C21.5998 10.1173 20.3659 10.1886 19.4013 10.3185C19.2299 10.3416 19.2228 10.6498 19.3866 10.7053C20.0199 10.9198 20.7889 11.2923 21.2421 11.8556C21.3278 11.9622 21.2127 12.1299 21.076 12.1349C20.6488 12.1508 19.8738 12.3298 18.8513 13.1983C18.7331 13.2987 18.8313 13.4852 18.9835 13.4551C21.1809 13.0204 23.425 13.2346 24.7475 14.4367C24.8334 14.5147 24.7885 14.6546 24.6766 14.685C13.1997 17.8039 15.4717 27.7875 18.5269 40.039C21.1159 50.4208 22.1688 54.1094 22.5431 55.3665C22.607 55.581 22.7621 55.7546 22.9716 55.8332C26.9941 57.3417 35.3594 57.3721 35.3594 54.7344V54.129Z" fill="#DDDDDD"/>
<path fill-rule="evenodd" clip-rule="evenodd" d="M59.457 31C59.457 46.7164 46.7164 59.457 31 59.457C15.2836 59.457 2.54297 46.7164 2.54297 31C2.54297 15.2836 15.2836 2.54297 31 2.54297C46.7164 2.54297 59.457 15.2836 59.457 31ZM24.3588 56.1805C23.5725 53.7513 21.3748 46.7105 19.2042 37.8128C19.1319 37.5163 19.0596 37.2212 18.9877 36.9276L18.9859 36.9203C16.3585 26.1884 14.2125 17.423 25.974 14.6693C26.0816 14.6441 26.1342 14.5156 26.063 14.4311C24.7135 12.8302 22.1855 12.3055 18.9889 13.4083C18.8578 13.4535 18.744 13.3213 18.8254 13.209C19.4522 12.345 20.6772 11.6807 21.2819 11.3895C21.4069 11.3293 21.3993 11.1463 21.2669 11.1049C20.8713 10.981 20.1979 10.7915 19.4403 10.6693C19.261 10.6403 19.2449 10.3332 19.4248 10.309C23.9565 9.69926 28.6887 11.0598 31.0634 14.0511C31.0857 14.0793 31.1181 14.099 31.1532 14.1065C39.8491 15.974 40.4718 29.7203 39.47 30.3464C39.2725 30.4698 38.6396 30.399 37.8047 30.3056C34.4211 29.927 27.721 29.1774 33.2508 39.4832C33.3054 39.585 33.2332 39.7197 33.119 39.7375C30.0113 40.2207 33.9692 49.926 36.9032 56.363C48.4383 53.689 57.0352 43.3484 57.0352 31C57.0352 16.6212 45.3788 4.96484 31 4.96484C16.6212 4.96484 4.96484 16.6212 4.96484 31C4.96484 43.0836 13.1969 53.2445 24.3588 56.1805Z" fill="white"/>
<path d="M40.8233 43.9318C40.1613 43.6251 37.6158 45.4505 35.9265 46.8518C35.5733 46.3522 34.9076 45.9891 33.4059 46.2502C32.0916 46.4787 31.366 46.7956 31.0422 47.342C28.9678 46.5555 25.4777 45.3417 24.6346 46.5139C23.713 47.7954 24.8649 53.8573 26.089 54.6444C26.7281 55.0553 29.7851 53.0904 31.3814 51.7354C31.639 52.0982 32.0536 52.306 32.9061 52.2862C34.1953 52.2563 36.2863 51.9563 36.6108 51.3559C36.6305 51.3194 36.6475 51.2763 36.662 51.2272C38.3028 51.8404 41.1906 52.4895 41.8358 52.3925C43.5169 52.14 41.6015 44.2925 40.8233 43.9318Z" fill="#3CA82B"/>
<path d="M36.0812 47.0312C36.1508 47.1553 36.2068 47.2862 36.2544 47.4193C36.4882 48.0735 36.8694 50.1547 36.5812 50.6687C36.293 51.1828 34.4211 51.431 33.2664 51.4509C32.1117 51.4709 31.8518 51.0485 31.6179 50.3944C31.4307 49.871 31.3386 48.6406 31.3409 47.9361C31.2935 46.8911 31.6754 46.5237 33.4401 46.2381C34.7461 46.0267 35.4366 46.2725 35.8352 46.6932C37.6893 45.3093 40.7829 43.3564 41.0847 43.7133C42.5892 45.493 42.7794 49.7296 42.4536 51.434C42.3471 51.9913 37.3653 50.8819 37.3653 50.281C37.3653 47.7857 36.7178 47.1012 36.0812 47.0312Z" fill="#4CBA3C"/>
<path d="M25.1683 46.2519C25.5764 45.6062 28.8852 46.4092 30.7015 47.2175C30.7015 47.2175 30.3282 48.9085 30.9225 50.9007C31.0963 51.4834 26.7438 54.0771 26.1757 53.6309C25.5191 53.1151 24.3107 47.6093 25.1683 46.2519Z" fill="#4CBA3C"/>
<path fill-rule="evenodd" clip-rule="evenodd" d="M26.7709 33.1344C27.0386 31.9703 28.2857 29.7767 32.7389 29.83C34.9903 29.8206 37.7869 29.829 39.6409 29.6184C42.3967 29.3054 44.4422 28.6388 45.8052 28.1192C47.7329 27.3838 48.417 27.5478 48.6568 27.9879C48.9204 28.4714 48.6098 29.3063 47.9363 30.0749C46.6497 31.543 44.3367 32.6805 40.2517 33.0182C36.1667 33.3558 33.4605 32.26 32.2955 34.0441C31.7931 34.8135 32.1815 36.627 36.132 37.198C41.4702 37.9684 45.8544 36.2697 46.3962 37.2956C46.9379 38.3216 43.8174 40.409 38.4705 40.4527C33.1236 40.4964 29.7838 38.5806 28.5995 37.6283C27.0968 36.4202 26.4244 34.6581 26.7709 33.1344Z" fill="#FFCC33"/>
<g opacity="0.8">
<path d="M33.5802 20.4053C33.8785 19.917 34.5398 19.54 35.6221 19.54C36.7045 19.54 37.2136 19.9707 37.5661 20.451C37.6378 20.5487 37.5292 20.6636 37.418 20.6156C37.3912 20.604 37.3641 20.5922 37.3366 20.5801C36.9408 20.4073 36.4547 20.195 35.6221 20.1832C34.7316 20.1705 34.1701 20.3935 33.8165 20.5857C33.6974 20.6505 33.5096 20.5211 33.5802 20.4053Z" fill="#14307E"/>
<path d="M21.3952 21.0301C22.4461 20.5909 23.2721 20.6477 23.856 20.7858C23.979 20.8149 24.0644 20.6826 23.9661 20.6033C23.5129 20.2378 22.4985 19.7839 21.1756 20.2772C19.9955 20.7173 19.4393 21.6316 19.436 22.2327C19.4352 22.3743 19.7267 22.3863 19.802 22.2664C20.0057 21.9424 20.3443 21.4693 21.3952 21.0301Z" fill="#14307E"/>
<path fill-rule="evenodd" clip-rule="evenodd" d="M36.5415 27.0862C35.6123 27.0862 34.8587 26.3346 34.8587 25.4097C34.8587 24.4847 35.6123 23.7331 36.5415 23.7331C37.4706 23.7331 38.2242 24.4847 38.2242 25.4097C38.2242 26.3346 37.4706 27.0862 36.5415 27.0862ZM37.7266 24.8543C37.7266 24.6147 37.5305 24.4207 37.291 24.4207C37.0514 24.4207 36.8574 24.6147 36.8553 24.8543C36.8553 25.0938 37.0514 25.2878 37.291 25.2878C37.5325 25.2878 37.7266 25.0938 37.7266 24.8543Z" fill="#14307E"/>
<path fill-rule="evenodd" clip-rule="evenodd" d="M25.3925 26.5699C25.3925 27.6498 24.515 28.5252 23.4311 28.5252C22.3492 28.5252 21.4696 27.6498 21.4696 26.5699C21.4696 25.4901 22.3492 24.6147 23.4311 24.6147C24.513 24.6147 25.3925 25.4901 25.3925 26.5699ZM24.8144 25.9216C24.8144 25.6429 24.5873 25.4158 24.3065 25.4158C24.0278 25.4158 23.8007 25.6408 23.7986 25.9216C23.7986 26.2004 24.0257 26.4275 24.3065 26.4275C24.5873 26.4275 24.8144 26.2004 24.8144 25.9216Z" fill="#14307E"/>
</g>
<path fill-rule="evenodd" clip-rule="evenodd" d="M30.9966 56.6633C45.1719 56.6633 56.6633 45.1719 56.6633 30.9966C56.6633 16.8213 45.1719 5.32996 30.9966 5.32996C16.8213 5.32996 5.32996 16.8213 5.32996 30.9966C5.32996 45.1719 16.8213 56.6633 30.9966 56.6633ZM59.4133 30.9966C59.4133 46.6907 46.6907 59.4133 30.9966 59.4133C15.3025 59.4133 2.57996 46.6907 2.57996 30.9966C2.57996 15.3025 15.3025 2.57996 30.9966 2.57996C46.6907 2.57996 59.4133 15.3025 59.4133 30.9966Z" fill="white"/>
<path d="M223.619 41.2769C223.247 41.2769 222.93 41.4116 222.668 41.6812C222.41 41.9448 222.281 42.2576 222.281 42.6194C222.281 42.9944 222.412 43.313 222.675 43.5752C222.935 43.8374 223.25 43.9685 223.619 43.9685C223.987 43.9685 224.301 43.8367 224.562 43.573C224.823 43.3079 224.953 42.99 224.953 42.6194C224.953 42.259 224.823 41.9463 224.564 41.6812C224.302 41.4116 223.987 41.2769 223.619 41.2769ZM225.239 42.6194C225.239 43.0793 225.077 43.4668 224.753 43.7817C224.438 44.0864 224.06 44.2388 223.619 44.2388C223.164 44.2388 222.78 44.0828 222.468 43.7708C222.156 43.4587 222 43.075 222 42.6194C222 42.1462 222.168 41.7529 222.505 41.4395C222.822 41.1465 223.193 41 223.619 41C224.066 41 224.448 41.1582 224.764 41.4746C225.081 41.791 225.239 42.1726 225.239 42.6194ZM223.912 42.2832C223.912 42.1851 223.863 42.1169 223.767 42.0789C223.702 42.054 223.611 42.0415 223.494 42.0415H223.38V42.5623H223.562C223.672 42.5623 223.758 42.5403 223.819 42.4963C223.881 42.4524 223.912 42.3813 223.912 42.2832ZM222.91 43.5203V41.7251C223.021 41.7251 223.187 41.7258 223.408 41.7273C223.631 41.7273 223.755 41.728 223.78 41.7295C223.922 41.7397 224.04 41.7705 224.134 41.8218C224.293 41.9097 224.373 42.0525 224.373 42.2502C224.373 42.4011 224.331 42.5103 224.246 42.5776C224.162 42.645 224.059 42.6853 223.936 42.6985C224.049 42.7219 224.134 42.7563 224.191 42.8018C224.296 42.8867 224.349 43.0208 224.349 43.2039V43.3643C224.349 43.3818 224.35 43.3994 224.351 43.417C224.354 43.4346 224.358 43.4521 224.364 43.4697L224.38 43.5203H223.931C223.917 43.4631 223.907 43.3804 223.903 43.272C223.898 43.1636 223.889 43.0903 223.874 43.0522C223.851 42.9893 223.807 42.9453 223.742 42.9204C223.707 42.9058 223.654 42.8962 223.582 42.8918L223.479 42.8853H223.38V43.5203H222.91Z" fill="#333333"/>
</svg>
