<svg width="12" height="12" viewBox="0 0 12 12" fill="none" xmlns="http://www.w3.org/2000/svg">
<g clip-path="url(#clip0_11782_74931)">
<path fill-rule="evenodd" clip-rule="evenodd" d="M9.5 6C10.4862 6 11.2861 6.81421 11.2861 7.81836V8.50098H11.3916C11.7276 8.50109 12 8.6578 12 9V11.3799C12 11.7221 11.7276 11.9998 11.3916 12H7.6084C7.27235 11.9998 7 11.7221 7 11.3799V9C7 8.6578 7.27236 8.50109 7.6084 8.50098H7.71387V7.81836C7.71387 6.81421 8.51378 6 9.5 6ZM9.5 6.90918C9.00689 6.90918 8.60742 7.31628 8.60742 7.81836V8.50098H10.3926V7.81836C10.3926 7.31628 9.99311 6.90918 9.5 6.90918Z" fill="black"/>
<path fill-rule="evenodd" clip-rule="evenodd" d="M6.00293 0C8.76713 0.000152829 11.0924 1.86911 11.7891 4.41211C11.8722 4.7157 11.6321 4.99992 11.3174 5C11.0755 5 10.8697 4.82878 10.8018 4.59668C10.382 3.15956 9.33616 1.98982 7.97754 1.40527C8.07157 1.56483 8.15875 1.7317 8.2373 1.90332C8.57839 2.64868 8.81833 3.57488 8.93457 4.59766C8.96142 4.83392 8.76453 5.04185 8.53125 5.08789C8.2458 5.14419 7.97092 4.94711 7.93652 4.6582C7.82812 3.74686 7.61379 2.94361 7.32812 2.31934C6.8887 1.35933 6.38334 1.00026 6.00293 1C5.62246 1 5.11635 1.35894 4.67676 2.31934C4.27129 3.20542 4.00481 4.45169 3.9873 5.85645C4.65399 5.92222 5.32308 5.95512 5.99219 5.95508C6.33335 5.95505 6.56206 6.38953 6.41895 6.69922C6.35312 6.84138 6.21132 6.95055 6.05469 6.95117C5.37543 6.95309 4.69574 6.92402 4.01855 6.86133C4.10195 7.97305 4.3413 8.95251 4.67676 9.68555C4.95272 10.2885 5.2553 10.6542 5.53613 10.8428C5.76498 10.9965 6 11.2273 6 11.5029C5.99981 11.7795 5.7747 12.0062 5.49902 11.9834C2.41989 11.7275 0.000236486 9.14809 0 6.00293C0 5.93235 0.00246629 5.86198 0.00488281 5.79199C-0.00332595 5.73352 -0.000138919 5.67298 0.0136719 5.6123C0.214923 2.47918 2.81901 0 6.00293 0ZM1.01465 6.36816C1.15216 8.27071 2.35291 9.87706 4.02637 10.5977C3.93273 10.4386 3.84583 10.2725 3.76758 10.1016C3.35396 9.19772 3.0848 8.0285 3.00879 6.74316C2.34003 6.64922 1.67449 6.52537 1.01465 6.36816ZM4.02734 1.40527C2.43957 2.08853 1.27719 3.57025 1.04395 5.34473C1.68768 5.50503 2.33713 5.63257 2.99023 5.72949C3.02186 4.26102 3.30435 2.91561 3.76758 1.90332C3.84613 1.73171 3.93329 1.56482 4.02734 1.40527Z" fill="black"/>
</g>
<defs>
<clipPath id="clip0_11782_74931">
<rect width="12" height="12" fill="white"/>
</clipPath>
</defs>
</svg>
