<svg width="24" height="24" viewBox="0 0 24 24" fill="none" xmlns="http://www.w3.org/2000/svg">
<path d="M8.1566 4.27275C9.82047 1.23884 14.1788 1.23884 15.8427 4.27274L21.4567 14.5093C23.0586 17.4303 20.9451 21 17.6136 21H6.38567C3.05424 21 0.940666 17.4303 2.54261 14.5093L8.1566 4.27275Z" fill="#FAB341"/>
<path d="M12.593 7C12.9504 7 13.235 7.29922 13.2172 7.65621L12.9672 12.6562C12.9506 12.9888 12.676 13.25 12.343 13.25H11.657C11.324 13.25 11.0494 12.9888 11.0328 12.6562L10.7828 7.65621C10.765 7.29922 11.0496 7 11.407 7H12.593Z" fill="white"/>
<path d="M12 17C11.3096 17 10.75 16.4404 10.75 15.75C10.75 15.0596 11.3096 14.5 12 14.5C12.6904 14.5 13.25 15.0596 13.25 15.75C13.25 16.4404 12.6904 17 12 17Z" fill="white"/>
</svg>
