<svg width="24" height="24" viewBox="0 0 24 24" fill="none" xmlns="http://www.w3.org/2000/svg">
<path fill-rule="evenodd" clip-rule="evenodd" d="M12 21.375C17.1777 21.375 21.375 17.1777 21.375 12C21.375 6.82233 17.1777 2.625 12 2.625C6.82233 2.625 2.625 6.82233 2.625 12C2.625 17.1777 6.82233 21.375 12 21.375Z" fill="#4397E0"/>
<path d="M12 2C17.5228 2 22 6.47715 22 12C22 17.5228 17.5228 22 12 22C6.47715 22 2 17.5228 2 12C2 6.47715 6.47715 2 12 2ZM12 3.25C7.16751 3.25 3.25 7.16751 3.25 12C3.25 16.8325 7.16751 20.75 12 20.75C16.8325 20.75 20.75 16.8325 20.75 12C20.75 7.16751 16.8325 3.25 12 3.25Z" fill="#045EB2"/>
<path d="M16.3749 16C16.7201 16 17 16.2798 17 16.625C17 16.9702 16.7201 17.25 16.375 17.25H7.625C7.27982 17.25 7 16.9702 7 16.625C7 16.2798 7.27973 16 7.62488 16H16.3749ZM11.9999 5C12.3451 5 12.6249 5.27982 12.6249 5.625V13.2412L15.683 10.1831L15.7063 10.1609C15.9516 9.93925 16.3303 9.94668 16.5668 10.1831C16.8032 10.4195 16.8106 10.7982 16.589 11.0436L16.5668 11.0669L13.5024 14.1312C12.6726 14.9611 11.3272 14.9611 10.4973 14.1312L7.43298 11.0669L7.41077 11.0436C7.18914 10.7982 7.19657 10.4195 7.43298 10.1831C7.66942 9.94667 8.04811 9.93926 8.29346 10.1609L8.31677 10.1831L11.3749 13.2412V5.625C11.3749 5.27984 11.6547 5.00002 11.9999 5Z" fill="white"/>
</svg>
