<svg width="12" height="12" viewBox="0 0 12 12" fill="none" xmlns="http://www.w3.org/2000/svg">
<path d="M10.5244 6.16291C10.7975 6.20326 10.9866 6.45717 10.9463 6.73029C10.7959 7.74879 10.3349 8.69658 9.62598 9.44318C8.91705 10.1897 7.99466 10.6993 6.98535 10.9022C5.976 11.105 4.92866 10.9907 3.98633 10.576C3.1959 10.2281 2.5143 9.68079 2 8.99396V10.4998C2 10.776 1.77614 10.9998 1.5 10.9998C1.22392 10.9997 1 10.7759 1 10.4998V8.63947C1.00029 7.73397 1.73506 6.99982 2.64062 6.99982H4C4.27608 6.99982 4.4999 7.22377 4.5 7.49982C4.5 7.77596 4.27614 7.99982 4 7.99982H2.64062C2.60427 7.99982 2.56889 8.00474 2.53418 8.01056C2.54887 8.02857 2.5638 8.04675 2.57617 8.0672C3.00196 8.77227 3.6348 9.32916 4.38867 9.66095C5.14254 9.99272 5.98059 10.084 6.78809 9.9217C7.5956 9.75939 8.33323 9.35101 8.90039 8.75373C9.46746 8.15645 9.83672 7.39857 9.95703 6.58381C9.99758 6.31098 10.2515 6.12277 10.5244 6.16291Z" fill="black"/>
<path d="M10.5 0.99982C10.7761 0.999828 10.9999 1.22377 11 1.49982V3.36017C10.9998 4.26565 10.2658 4.99965 9.36035 4.99982H8C7.72386 4.99982 7.5 4.77596 7.5 4.49982C7.5001 4.22377 7.72392 3.99982 8 3.99982H9.36035C9.3964 3.9998 9.4314 3.99482 9.46582 3.98908C9.45117 3.9711 9.43617 3.95285 9.42383 3.93244C8.99804 3.22744 8.36515 2.67046 7.61133 2.33869C6.85749 2.00695 6.01937 1.91569 5.21191 2.07795C4.40441 2.24024 3.66677 2.64864 3.09961 3.24591C2.53252 3.84317 2.16331 4.60108 2.04297 5.41584C2.00248 5.68873 1.74854 5.87688 1.47559 5.83673C1.20245 5.79636 1.01337 5.54251 1.05371 5.26935C1.20415 4.25086 1.6651 3.30304 2.37402 2.55646C3.08295 1.80996 4.00534 1.30035 5.01465 1.09748C6.02396 0.894623 7.07137 1.00902 8.01367 1.42365C8.8038 1.77138 9.48576 2.31825 10 3.0047V1.49982C10.0001 1.2238 10.224 0.999864 10.5 0.99982Z" fill="black"/>
</svg>
