<svg fill="none" viewBox="0 0 56 56" xmlns="http://www.w3.org/2000/svg">
  <path fill="#589D88" d="M52 28c0 13.255-10.745 24-24 24S4 41.255 4 28 14.745 4 28 4s24 10.745 24 24"/>
  <path fill="#11604D" d="M42.042 27.344c.118-.002.232.041.317.12.085.08.135.191.141.31.006.118-.035.233-.106.326q-.364.466-.763.913c-1.995 2.245-4.59 4.026-7.473 5.042-3.986 1.427-8.359 1.436-12.35.445-.387-.095-.76-.196-1.144-.308-.133-.039-.25-.125-.322-.244s-.095-.261-.064-.396c.031-.134.115-.252.232-.326s.26-.101.397-.078c.38.066.747.123 1.126.175 3.914.543 7.88.305 11.514-.992 2.629-.93 5.092-2.329 7.309-4.126q.442-.36.867-.734c.087-.078.2-.125.319-.127M18.33 22.13c1.25-.09 2.763.382 3.513 1.559q.121.189.21.39c.04.104.06.22.04.33s-.075.209-.16.275c-.084.066-.193.097-.305.09-.113-.008-.219-.055-.31-.12q-.137-.088-.277-.156c-.83-.399-1.673-.398-2.592-.355-.901.063-1.916.171-2.755.47-.086.032-.17.072-.238.107-.08.066-.175.118-.278.135s-.205-.002-.288-.055c-.084-.054-.144-.139-.172-.239s-.02-.208.006-.308c.06-.165.15-.315.238-.442.868-1.116 2.096-1.582 3.369-1.68m17.971-4.507c1.035-.62 2.508-.8 3.61-.089q.179.116.332.256c.078.08.142.175.17.283.028.109.018.22-.03.314-.05.094-.134.167-.239.207s-.22.043-.33.026q-.145-.015-.286-.013c-.83.026-1.516.362-2.208.755-.68.409-1.352.869-1.89 1.559q-.088.117-.168.247c-.05.09-.117.173-.204.229-.088.054-.188.077-.285.06-.097-.016-.184-.069-.25-.15-.065-.08-.1-.181-.118-.283q-.023-.202-.017-.41c.052-1.258.862-2.377 1.913-2.991"/>
  <path fill="#11604D" fill-rule="evenodd" d="M28 4c13.255 0 24 10.745 24 24S41.255 52 28 52 4 41.255 4 28 14.745 4 28 4m0 2C15.85 6 6 15.85 6 28s9.85 22 22 22 22-9.85 22-22S40.15 6 28 6" clip-rule="evenodd"/>
</svg>
