<svg width="290" height="172" viewBox="0 0 290 172" fill="none" xmlns="http://www.w3.org/2000/svg">
<path d="M263.188 0.543247C252.643 -4.3411 212.097 24.725 185.186 47.0369C179.562 39.083 168.958 33.3009 145.036 37.4587C124.1 41.0976 112.542 46.1435 107.385 54.8431C74.3401 42.3192 18.7467 22.9918 5.31638 41.6577C-9.36462 62.0618 8.98521 158.585 28.4837 171.118C38.6643 177.661 87.3592 146.374 112.788 124.798C116.89 130.576 123.495 133.884 137.074 133.569C157.61 133.093 190.918 128.316 196.088 118.755C196.402 118.175 196.672 117.488 196.903 116.706C223.039 126.471 269.039 136.805 279.317 135.262C306.097 131.242 275.586 6.28558 263.188 0.543247Z" fill="#3CA82B"/>
</svg>
