<svg width="16" height="16" viewBox="0 0 16 16" fill="none" xmlns="http://www.w3.org/2000/svg">
<g clip-path="url(#clip0_10900_89472)">
<path d="M5.625 0C5.97018 0 6.25 0.279822 6.25 0.625V1.75H10.375L10.4072 1.75098C10.7374 1.76775 11 2.04063 11 2.375C11 2.70937 10.7374 2.98225 10.4072 2.99902L10.375 3H8.99902C9.0135 4.74324 8.42547 6.4443 7.32129 7.85547C7.07304 8.17272 6.80007 8.4697 6.50879 8.74805C7.10156 9.12497 7.75413 9.42534 8.44922 9.6377L10.3125 5.375L10.332 5.33301C10.4386 5.13118 10.6482 5.00227 10.8789 5C11.1249 4.99765 11.3491 5.13995 11.4521 5.36328L15.9424 15.1133C16.0867 15.4267 15.95 15.7979 15.6367 15.9424C15.3233 16.0867 14.9521 15.95 14.8076 15.6367L13.708 13.25H8.23535L7.19824 15.625C7.0601 15.9412 6.69122 16.0862 6.375 15.9482C6.0587 15.81 5.91454 15.4413 6.05273 15.125L7.94629 10.7891C7.06472 10.5048 6.23904 10.0969 5.5 9.57812C4.60932 10.2034 3.59383 10.6707 2.50488 10.9502C2.17055 11.036 1.82995 10.8343 1.74414 10.5C1.65849 10.1657 1.8601 9.82507 2.19434 9.73926C3.02311 9.5265 3.79721 9.18861 4.49023 8.74805C4.19915 8.46984 3.92682 8.17254 3.67871 7.85547C2.57453 6.4443 1.9865 4.74324 2.00098 3H0.625C0.279822 3 0 2.72018 0 2.375C0 2.02982 0.279822 1.75 0.625 1.75H5V0.625C5 0.279822 5.27982 0 5.625 0ZM8.78125 12H13.1328L10.8994 7.15137L8.78125 12ZM3.25 3C3.23558 4.45583 3.72575 5.88695 4.66309 7.08496C4.91447 7.40622 5.1952 7.70575 5.5 7.98145C5.8048 7.70575 6.08553 7.40622 6.33691 7.08496C7.27425 5.88695 7.76442 4.45583 7.75 3H3.25Z" fill="black"/>
</g>
<defs>
<clipPath id="clip0_10900_89472">
<rect width="16" height="16" fill="white"/>
</clipPath>
</defs>
</svg>
