<svg width="12" height="12" viewBox="0 0 12 12" fill="none" xmlns="http://www.w3.org/2000/svg">
<g clip-path="url(#clip0_11743_75762)">
<path d="M4.22949 0.000470769C4.5054 0.000470769 4.72912 0.224648 4.72949 0.500471V1.30613H6.32715C6.44804 1.30613 6.51514 1.44638 6.43945 1.54051C6.43945 1.54051 5.70213 1.95288 5.57227 2.30613H2.49414C2.4914 3.37214 2.85326 4.41923 3.54004 5.29735C3.71948 5.5267 3.91939 5.74084 4.13574 5.93895C4.3522 5.74077 4.5529 5.5268 4.73242 5.29735C5.18589 4.71747 5.4966 4.06337 5.65527 3.37938C5.80821 3.65187 6.06911 3.8727 6.43945 3.96531L6.52734 3.9868C6.31756 4.67463 5.97864 5.32774 5.52051 5.91356C5.34372 6.13954 5.15031 6.35256 4.94434 6.55223C5.36513 6.81531 5.82581 7.02679 6.31543 7.17918L7.54199 4.36961C7.70073 4.51106 7.81844 4.6979 7.87207 4.9116L8.03418 5.56102C8.04329 5.59743 8.05393 5.63315 8.06543 5.66746L6.63379 8.94871H9.77246L8.55469 6.30516C8.89563 6.52596 9.33356 6.56468 9.70898 6.42137L11.9512 11.2905C12.0664 11.5412 11.9566 11.8381 11.7061 11.9536C11.4553 12.069 11.1585 11.9592 11.043 11.7085L10.2324 9.94871H6.19727L5.43262 11.6997C5.32199 11.9525 5.02737 12.068 4.77441 11.9575C4.52156 11.8469 4.40615 11.5523 4.5166 11.2993L5.91309 8.10008C5.27386 7.89006 4.67452 7.59272 4.13574 7.21727C3.47305 7.67902 2.71973 8.02547 1.91211 8.23289C1.64468 8.30149 1.37238 8.13997 1.30371 7.87254C1.23561 7.60547 1.39612 7.33291 1.66309 7.26414C2.26258 7.11017 2.82317 6.86726 3.32715 6.55223C3.12127 6.35264 2.92867 6.13945 2.75195 5.91356C1.93169 4.86479 1.49127 3.60176 1.49414 2.30613H0.501953C0.225933 2.30613 0.00215094 2.08211 0.00195312 1.80613C0.00219685 1.5302 0.225961 1.30613 0.501953 1.30613H3.72949V0.500471C3.72987 0.224648 3.95358 0.000470769 4.22949 0.000470769Z" fill="black"/>
<path d="M9.00391 0.187971C9.06698 -0.0636657 9.42513 -0.0636012 9.48828 0.187971L9.65039 0.837385C9.83667 1.5819 10.4185 2.16296 11.1631 2.3491L11.8115 2.51121C12.0634 2.57419 12.0634 2.93261 11.8115 2.99559L11.1631 3.1577C10.4184 3.34387 9.83657 3.92569 9.65039 4.67039L9.48828 5.31883C9.42518 5.57052 9.06693 5.57058 9.00391 5.31883L8.8418 4.67039C8.65564 3.92578 8.07465 3.34395 7.33008 3.1577L6.68066 2.99559C6.42927 2.93237 6.42925 2.57441 6.68066 2.51121L7.33008 2.3491C8.07447 2.16289 8.65552 1.58175 8.8418 0.837385L9.00391 0.187971Z" fill="black"/>
</g>
<defs>
<clipPath id="clip0_11743_75762">
<rect width="12" height="12" fill="white"/>
</clipPath>
</defs>
</svg>
