<svg fill="none" viewBox="0 0 32 32" xmlns="http://www.w3.org/2000/svg">
  <path fill="url(#a)" d="M16.956 31.97c1.022.022 2.048-.208 2.983-.692l2.267-1.173c6.155-3.186 9.95-9.61 9.77-16.538l-.127-4.874c-.082-3.13-2.73-5.442-5.68-5.317H24l-.533.346c-.355-.09-.685-.277-.947-.553l-1.186-1.251C20.158.678 18.58.06 17.002.063L17 .061h-1.762c-.061.296-.338 1.677-.61 4h5.292l.786.829c1.175 1.238 2.953 1.699 4.582 1.188l.139-.044 3.18.837c.442.498.724 1.15.743 1.887l.126 4.874c.155 5.971-3.115 11.507-8.42 14.252l-.165.086h-6.144q.21 1.948.5 4z"/>
  <path fill="url(#b)" d="m9 5 6-3.5L21 5l4-.5 3 2 .5 8-3.5 10-10 6.25-8.75-4.25-4.75-8.75v-10l1.75-2.5z"/>
  <path fill="url(#c)" d="M15.052 30.53c.228-.021.452-.095.652-.22l8.85-5.53c.289-.182.508-.456.62-.777l3.226-9.217c.066-.189.094-.39.081-.589l-.435-6.955c-.029-.468-.275-.894-.664-1.154l-1.918-1.279c-.3-.2-.66-.285-1.018-.24l-2.942.368c-.327.041-.658-.027-.942-.193l-4.806-2.803c-.251-.147-.534-.213-.815-.202-.61 3.936-1.76 14.325.111 28.792"/>
  <path fill="url(#d)" d="M11.97 31.27c1.792.933 3.925.936 5.719.008l2.267-1.174c6.155-3.186 9.95-9.609 9.77-16.538l-.127-4.874c-.095-3.626-3.633-6.154-7.094-5.068l-.216.068c-.718.225-1.5.022-2.019-.524l-1.186-1.25c-2.317-2.442-6.196-2.48-8.56-.085L9.169 3.205c-.516.523-1.284.711-1.984.484C3.725 2.568.162 5.1.083 8.736L0 12.593v2.437c.345 6.347 4.009 12.092 9.706 15.06zm4.57-2.212c-1.071.554-2.345.552-3.414-.005l-2.266-1.18c-5.262-2.742-8.512-8.234-8.383-14.166l.106-4.917c.043-1.962 1.965-3.328 3.831-2.723 1.6.519 3.354.09 4.535-1.106l1.354-1.372c1.372-1.39 3.623-1.368 4.967.049l1.186 1.251c1.175 1.238 2.953 1.7 4.582 1.188l.215-.068c1.877-.589 3.795.782 3.847 2.748l.126 4.874c.155 5.971-3.114 11.507-8.42 14.253z"/>
  <path fill="url(#e)" d="M15.244 31.958c.841-.055 1.674-.282 2.445-.68l2.267-1.174c6.155-3.186 9.95-9.609 9.77-16.538l-.127-4.874c-.095-3.626-3.633-6.154-7.094-5.068l-.216.068c-.718.225-1.5.022-2.019-.524l-1.186-1.25C18.028.804 16.647.192 15.234.081c-.053.254-.22 1.1-.414 2.48.895.015 1.784.374 2.45 1.076l1.186 1.251c1.175 1.238 2.953 1.7 4.582 1.188l.215-.068c1.877-.589 3.796.782 3.847 2.748l.126 4.874c.155 5.972-3.114 11.507-8.42 14.253l-2.266 1.174c-.51.263-1.064.4-1.621.412q.148 1.224.325 2.488"/>
  <defs>
    <linearGradient id="a" x1="17.125" x2="17.125" y1="31.973" y2=".061" gradientUnits="userSpaceOnUse">
      <stop stop-color="#288419"/>
      <stop offset="1" stop-color="#1A690D"/>
    </linearGradient>
    <linearGradient id="b" x1="15" x2="15" y1="30.75" y2="1.5" gradientUnits="userSpaceOnUse">
      <stop stop-color="#7BD66D"/>
      <stop offset="1" stop-color="#63C853"/>
    </linearGradient>
    <linearGradient id="c" x1="21.256" x2="21.256" y1="1.737" y2="30.53" gradientUnits="userSpaceOnUse">
      <stop stop-color="#4CBA3C"/>
      <stop offset="1" stop-color="#4CBA3C"/>
    </linearGradient>
    <linearGradient id="d" x1="14.866" x2="14.866" y1="31.972" y2=".061" gradientUnits="userSpaceOnUse">
      <stop stop-color="#4CBA3C"/>
      <stop offset="1" stop-color="#399F29"/>
    </linearGradient>
    <linearGradient id="e" x1="22.276" x2="22.276" y1="31.958" y2=".082" gradientUnits="userSpaceOnUse">
      <stop stop-color="#399F29"/>
      <stop offset="1" stop-color="#288419"/>
    </linearGradient>
  </defs>
</svg>
