<svg width="96" height="96" viewBox="0 0 96 96" fill="none" xmlns="http://www.w3.org/2000/svg">
<path fill-rule="evenodd" clip-rule="evenodd" d="M32.8132 19.8726C39.9938 15.1577 49.0058 15.436 55.7614 19.8599C54.2269 22.178 53.3335 24.9575 53.3335 27.9456C53.3335 34.8862 58.1546 40.7004 64.6306 42.223C63.9825 44.9326 62.7966 47.5169 61.1071 49.8001L75.259 71.168C75.4377 71.4378 75.5331 71.7543 75.5332 72.0779V77.9012C75.5331 78.8113 74.7954 79.5491 73.8852 79.5491H64.1264C63.2162 79.5491 62.4785 78.8114 62.4785 77.9012V72.6649C62.4783 71.7549 61.7405 71.0171 60.8305 71.0169H57.6674C56.8483 71.0169 56.1843 70.3529 56.1843 69.5337V64.3213C56.1842 63.4114 55.4463 62.6736 54.5363 62.6734H49.207C48.6563 62.6734 48.1419 62.3985 47.8361 61.9405L46.2685 59.5919C37.9429 61.5766 28.9033 58.29 23.9343 50.7227C17.5945 41.0676 20.2821 28.1011 29.9372 21.7613L32.8132 19.8726ZM44.7109 28.3875C42.7682 25.4289 38.7909 24.6077 35.8322 26.5503C32.8736 28.4931 32.0463 32.4689 33.989 35.4275C35.9317 38.3861 39.909 39.2074 42.8676 37.2647C45.8261 35.322 46.6534 31.3461 44.7109 28.3875Z" fill="#4397E0"/>
<path d="M60.9314 52.5469C61.2043 51.7782 62.2383 51.6519 62.6882 52.3323L75.0579 71.0376C75.1648 71.1994 75.2219 71.3891 75.2219 71.583V74.7451C75.2219 75.725 73.9499 76.1081 73.4087 75.2913L61.1638 56.8091C60.4485 55.7294 60.2825 54.3761 60.7156 53.1555L60.9314 52.5469Z" fill="#75B6EB"/>
<path d="M62.875 41.6919C63.5576 41.9465 64.2641 42.1515 64.9905 42.303C64.0172 46.6121 61.8496 50.0412 60.1003 51.4329C58.995 52.3122 58.2933 52.5152 57.9187 52.2034C57.612 51.9479 57.6366 51.332 58.4912 50.6321C59.2258 50.0305 62.0215 46.7293 62.875 41.6919Z" fill="#75B6EB"/>
<path d="M34.7168 18.6843C38.3438 16.3533 47.7466 15.1398 54.2212 18.6846C54.7946 18.9985 55.3483 19.3307 55.8823 19.6799C55.3411 20.4718 54.8755 21.3194 54.4958 22.2124C49.1436 18.4497 42.0246 17.442 34.7168 18.6843Z" fill="#75B6EB"/>
<path d="M32.6132 19.4734C39.9561 14.6475 49.1593 14.8994 56.0974 19.3719C55.8052 19.7768 55.5331 20.1972 55.2827 20.6316C48.8283 16.4716 40.2675 16.2379 33.4372 20.7269L30.58 22.6048C21.3347 28.6812 18.7607 41.1095 24.8317 50.3641C29.6428 57.6978 38.4402 60.8383 46.4865 58.7996C46.5501 58.7835 46.6138 58.7767 46.6765 58.7771C46.6935 58.7723 46.711 58.7679 46.7287 58.7642C46.7829 58.7542 46.8426 58.7415 46.9023 58.7278C48.0034 58.4596 49.1439 58.0935 50.2519 57.7068C50.3136 57.6851 50.3754 57.663 50.437 57.6409C50.4997 57.6186 50.5731 57.6231 50.6384 57.6492C50.7038 57.6756 50.7563 57.7216 50.7861 57.7811C50.8157 57.8405 50.8211 57.9102 50.8029 57.9783C50.7846 58.0462 50.7439 58.1073 50.6884 58.1441C50.633 58.1805 50.5773 58.2171 50.5217 58.2532C49.5555 58.876 48.5915 59.4685 47.5429 60.0186L48.5615 61.5271C48.7284 61.7744 49.0075 61.9226 49.3059 61.9227H54.5349C55.8591 61.9228 56.9327 62.9964 56.9328 64.3206V69.533L56.9338 69.5706C56.9534 69.958 57.2738 70.266 57.666 70.2662H60.8291C62.1534 70.2662 63.2268 71.34 63.227 72.6641V77.5467C63.2271 78.0425 63.6291 78.4445 64.125 78.4446H73.6381C74.1341 78.4446 74.5363 78.0424 74.5363 77.5464L74.5361 71.9505C74.536 71.7753 74.4848 71.6037 74.3886 71.4573L60.946 51.0042C59.6283 52.2593 58.2771 53.4263 56.7338 54.4341C56.6274 54.4994 56.5196 54.5621 56.4118 54.6194C56.35 54.6521 56.2752 54.6586 56.2055 54.6397C56.1358 54.6207 56.0767 54.5778 56.04 54.5184C56.0034 54.4589 55.9916 54.3868 56.0058 54.316C56.0202 54.2453 56.0595 54.1813 56.1164 54.1407C56.204 54.0774 56.2939 54.0081 56.3835 53.9356C57.8883 52.644 59.2391 51.0646 60.4667 49.4976C62.1414 47.2574 63.308 44.7107 63.9304 42.0396C64.4077 42.1771 64.8949 42.2912 65.3908 42.3802C64.7746 45.0241 63.6625 47.5545 62.0847 49.8184C62.0683 49.8526 62.0486 49.8855 62.0266 49.917L75.642 70.6334C75.8991 71.0244 76.036 71.4825 76.0361 71.9505L76.0363 77.5464C76.0364 78.8709 74.9625 79.9446 73.6381 79.9446H64.125C62.8007 79.9445 61.7271 78.871 61.727 77.5467V72.6641C61.7268 72.1837 61.3495 71.7914 60.8752 71.7674L60.8291 71.7662H57.666C56.4328 71.766 55.4329 70.7662 55.4328 69.533V64.3206C55.4327 63.8403 55.0554 63.448 54.581 63.4239L54.5349 63.4227H49.3059C48.5092 63.4226 47.7644 63.0269 47.3186 62.3667L46.0222 60.4468C37.6061 62.2241 28.5845 58.819 23.5776 51.1868C17.0527 41.2405 19.8184 27.8828 29.7561 21.3514L32.6132 19.4734Z" fill="#045EB2"/>
<path d="M60.0432 54.9878C60.0926 54.9973 60.1366 55.0257 60.1665 55.0657C60.3905 55.3665 60.6139 55.6681 60.8364 55.97C62.8387 58.6874 64.7745 61.4494 66.6437 64.2554C68.513 67.0614 70.3219 69.9081 72.0698 72.795C72.2639 73.1156 72.4575 73.4369 72.6501 73.7586C72.6793 73.8073 72.6898 73.8659 72.6782 73.9219C72.6664 73.978 72.6333 74.0271 72.5861 74.0586C72.5389 74.0901 72.4808 74.1016 72.4245 74.0909C72.3682 74.0801 72.3184 74.0477 72.2846 74.002C72.062 73.7003 71.84 73.398 71.6188 73.0953C69.6282 70.3701 67.6981 67.6042 65.8288 64.7981C63.9596 61.9922 62.1568 59.1417 60.4206 56.2471C60.2277 55.9256 60.0354 55.6032 59.8442 55.2806C59.8187 55.2375 59.8094 55.1859 59.8198 55.1365C59.8302 55.0872 59.8593 55.0438 59.9008 55.0162C59.9424 54.9886 59.9937 54.9784 60.0432 54.9878Z" fill="#045EB2"/>
<path fill-rule="evenodd" clip-rule="evenodd" d="M35.4194 25.9224C38.7236 23.7529 43.1661 24.6694 45.3366 27.9747C47.507 31.2801 46.5822 35.7209 43.278 37.8907C39.9737 40.0604 35.5312 39.1437 33.3608 35.8382C31.1905 32.5327 32.1151 28.0921 35.4194 25.9224ZM44.0827 28.7979C42.3677 26.1863 38.8558 25.4608 36.2429 27.1763C33.6299 28.892 32.8998 32.4031 34.6147 35.0149C36.3297 37.6268 39.8418 38.3525 42.4548 36.6368C45.0676 34.921 45.7977 31.4097 44.0827 28.7979Z" fill="#045EB2"/>
<path d="M39.0474 27.5061C40.1387 27.4229 41.2372 27.6324 42.2048 28.1006C42.3121 28.1528 42.4184 28.2088 42.5208 28.2676C42.5621 28.2916 42.597 28.3275 42.616 28.3723C42.6349 28.417 42.6369 28.4663 42.6206 28.5105C42.6043 28.5547 42.5708 28.5911 42.5274 28.6128C42.4839 28.6345 42.434 28.6394 42.387 28.6309C42.2771 28.6114 42.1656 28.5932 42.0552 28.5772C41.061 28.4367 40.081 28.4106 39.1238 28.4824C38.1679 28.5599 37.2287 28.7442 36.3626 29.1899C36.2665 29.2398 36.1717 29.2927 36.0779 29.3496C36.0315 29.3782 35.9765 29.3932 35.9214 29.3875C35.8663 29.3817 35.8161 29.3563 35.781 29.3154C35.7459 29.2746 35.7281 29.2211 35.7307 29.1658C35.7333 29.1104 35.7565 29.0582 35.7918 29.0166C35.8713 28.9245 35.9555 28.8362 36.0442 28.7517C36.8477 27.9848 37.9625 27.5886 39.0474 27.5061Z" fill="#1074CC"/>
<path d="M68 40C74.6274 40 80 34.6274 80 28C80 21.3726 74.6274 16 68 16C61.3726 16 56 21.3726 56 28C56 34.6274 61.3726 40 68 40Z" fill="black"/>
<path d="M68.0005 21.333C68.5528 21.333 69.0005 21.7807 69.0005 22.333V26.9998H73.6672C74.2195 26.9998 74.6672 27.4475 74.6672 27.9998C74.6672 28.552 74.2195 28.9998 73.6672 28.9998H69.0005V33.6663C69.0005 34.2185 68.5528 34.6663 68.0005 34.6663C67.4482 34.6663 67.0005 34.2185 67.0005 33.6663V28.9998H62.334C61.7817 28.9998 61.334 28.552 61.334 27.9998C61.334 27.4475 61.7817 26.9998 62.334 26.9998H67.0005V22.333C67.0005 21.7807 67.4482 21.333 68.0005 21.333Z" fill="white"/>
</svg>
