<svg width="128" height="96" viewBox="0 0 128 96" fill="none" xmlns="http://www.w3.org/2000/svg">
<path d="M79.4497 20.5941C88.0361 20.1354 95.2497 26.974 95.2497 35.5726V45.1524C97.9612 45.4578 99.8288 48.1438 99.0647 50.8475L92.5603 73.8602C92.0125 75.7981 90.2436 77.1363 88.2297 77.1363H79.8525C76.8996 77.1363 74.7471 74.3401 75.5022 71.4854L76.5083 67.6815L41.7121 67.6358C35.2486 67.6273 30.1214 62.1869 30.4958 55.7342L31.8064 33.1531C32.1384 27.4333 36.716 22.8768 42.4372 22.5711L79.4497 20.5941Z" fill="#F5FBFE"/>
<path d="M41.1339 41.4165C41.2365 44.3308 41.9921 47.2664 43.4959 49.7666C43.663 50.0436 43.8399 50.3152 44.025 50.578C44.0417 50.6017 44.0665 50.6187 44.0946 50.6246C44.1227 50.6305 44.1518 50.625 44.1754 50.6092C44.199 50.5934 44.2154 50.5684 44.2212 50.5398C44.2269 50.5113 44.2213 50.4815 44.2065 50.4566C44.0445 50.1846 43.8903 49.906 43.7453 49.6238C42.4436 47.0783 41.8182 44.2346 41.7164 41.4044C41.6197 38.5699 42.0596 35.7193 43.0549 33.0644C43.1658 32.769 43.283 32.4775 43.4078 32.1872C43.4192 32.1607 43.4205 32.1305 43.4109 32.1028C43.4013 32.0751 43.3816 32.0522 43.3561 32.0391C43.3305 32.0261 43.301 32.0239 43.2739 32.0329C43.2468 32.0419 43.2245 32.0614 43.2111 32.0869C43.0628 32.3695 42.9228 32.655 42.7898 32.9459C41.5943 35.5609 41.0326 38.4968 41.1339 41.4165Z" fill="#9E2B08"/>
<path d="M94.7169 55.0846C94.728 55.0874 94.7397 55.0858 94.7495 55.08C94.7593 55.0742 94.7665 55.0647 94.7695 55.0536C94.7724 55.0424 94.7709 55.0306 94.7656 55.0205C94.7135 54.9214 94.6584 54.8241 94.6002 54.7283C94.0772 53.8648 93.3142 53.1501 92.4393 52.6452C91.5638 52.1392 90.5752 51.8352 89.5748 51.7588C89.4637 51.7503 89.3523 51.7446 89.2411 51.7419C89.2298 51.7416 89.2186 51.7455 89.21 51.7532C89.2014 51.7608 89.1961 51.7714 89.1953 51.7828C89.1945 51.7942 89.1982 51.8055 89.2056 51.8142C89.2131 51.8229 89.2235 51.8284 89.2348 51.8297C89.344 51.8421 89.4529 51.8569 89.5612 51.8739C90.5364 52.0277 91.4751 52.3595 92.3225 52.8488C93.1691 53.3383 93.926 53.9905 94.5044 54.7927C94.5686 54.8818 94.6305 54.9725 94.6901 55.0652C94.6963 55.0748 94.7059 55.0818 94.7169 55.0846Z" fill="#045EB2"/>
<path d="M76.5564 67.4998H76.1421C76.2344 67.6558 76.3299 67.8176 76.4282 67.9837L75.5022 71.4854C74.8411 73.9844 76.4083 76.4383 78.79 77.0111C78.3095 77.2352 77.7027 77.3563 76.9895 77.3563L63.1592 77.3834L63.1582 77.3831L50.5676 77.4081C50.3816 77.4084 50.241 77.2396 50.2751 77.0567C50.4986 75.8619 51.5004 74.9686 52.7129 74.8829L58.5017 74.4737C59.3919 74.4108 59.8625 73.3903 59.3323 72.6725L55.5103 67.4998H41.106C37.1529 67.4998 33.5356 65.2767 31.75 61.7498H78.0776L76.5564 67.4998Z" fill="#4397E0"/>
<path d="M79.4495 20.5946C88.036 20.1356 95.25 26.9743 95.25 35.5731V45.1524C95.0812 45.1334 94.909 45.1234 94.7341 45.1234H90.9236L91.4773 33.7442C91.8371 26.3485 85.7254 20.2632 78.3323 20.6541L79.4495 20.5946Z" fill="#4397E0"/>
<path d="M78.325 20.6546L67.8669 21.2137L78.3323 20.6541C78.3298 20.6543 78.3274 20.6545 78.325 20.6546Z" fill="#4397E0"/>
<path d="M97.019 45.1235C99.9653 45.1236 102.117 47.908 101.373 50.759L94.6499 76.5444C94.1332 78.5262 92.3434 79.9089 90.2954 79.9089H79.0688C76.1225 79.9089 73.971 77.1247 74.7144 74.2737L81.0342 50.0361C81.1912 49.4338 81.4291 48.8695 81.7339 48.3533C81.5723 48.685 81.4409 49.0359 81.3438 49.4031L75.5022 71.4856C74.7471 74.3403 76.8996 77.1362 79.8525 77.1362H88.2297C90.2436 77.1362 92.0125 75.7983 92.5603 73.8604L99.0647 50.8474C99.8763 47.9756 97.7185 45.1235 94.7341 45.1235H97.019Z" fill="#75B6EB"/>
<g filter="url(#filter0_d_2285_368)">
<path fill-rule="evenodd" clip-rule="evenodd" d="M61.5549 56.2582C70.2276 56.2582 77.2582 49.2276 77.2582 40.5549C77.2582 31.8822 70.2276 24.8516 61.5549 24.8516C52.8822 24.8516 45.8516 31.8822 45.8516 40.5549C45.8516 49.2276 52.8822 56.2582 61.5549 56.2582Z" fill="#F05F2B"/>
<path fill-rule="evenodd" clip-rule="evenodd" d="M63.7631 52.271C63.7631 52.1483 63.7932 52.1204 63.4033 51.343C62.3669 49.2676 61.3252 46.3416 61.7989 44.4545C61.8853 44.1117 60.8227 31.7585 60.0716 31.3606C59.2367 30.9157 58.2094 30.2099 57.2699 30.0529C56.7931 29.9766 56.1681 30.0127 55.6795 30.0785C55.5926 30.0902 55.589 30.2463 55.672 30.2745C55.9928 30.3831 56.3823 30.5718 56.6119 30.8572C56.6554 30.9112 56.597 30.9961 56.5278 30.9987C56.3114 31.0067 55.9188 31.0974 55.4009 31.5373C55.341 31.5882 55.3907 31.6827 55.4678 31.6674C56.5809 31.4472 57.7177 31.5557 58.3876 32.1646C58.4311 32.2041 58.4084 32.275 58.3517 32.2904C52.538 33.8703 53.6889 38.9276 55.2366 45.1337C56.6663 50.8668 57.1712 52.5705 57.3142 53.0417C57.3195 53.0592 57.3315 53.0723 57.3484 53.0793C59.3245 53.897 63.7631 53.9452 63.7631 52.5777V52.271Z" fill="#DDDDDD"/>
<path fill-rule="evenodd" clip-rule="evenodd" d="M61.5549 26.1398C69.5162 26.1398 75.97 32.5937 75.97 40.5549C75.97 48.5162 69.5162 54.97 61.5549 54.97C53.5937 54.97 47.1398 48.5162 47.1398 40.5549C47.1398 32.5937 53.5937 26.1398 61.5549 26.1398ZM61.5549 27.3666C54.2712 27.3666 48.3666 33.2712 48.3666 40.5549C48.3666 46.6759 52.5366 51.8231 58.1907 53.3103C57.7924 52.0798 56.6792 48.5132 55.5797 44.006C55.543 43.8558 55.5064 43.7063 55.47 43.5576L55.4691 43.5539C54.1381 38.1176 53.0511 33.6774 59.0089 32.2825C59.0634 32.2698 59.09 32.2046 59.054 32.1618C58.3704 31.3509 57.0898 31.0851 55.4706 31.6437C55.4042 31.6666 55.3465 31.5996 55.3878 31.5428C55.7053 31.1051 56.3258 30.7686 56.6321 30.621C56.6954 30.5905 56.6916 30.4979 56.6246 30.4769C56.4242 30.4142 56.083 30.3182 55.6992 30.2563C55.6085 30.2416 55.6003 30.0859 55.6914 30.0737C57.987 29.7648 60.3841 30.4541 61.587 31.9693C61.5983 31.9836 61.6147 31.9936 61.6325 31.9974C66.0375 32.9434 66.3529 39.9067 65.8454 40.2238C65.7453 40.2863 65.4248 40.2505 65.0019 40.2032C63.2879 40.0114 59.8939 39.6317 62.6951 44.8521C62.7227 44.9037 62.6861 44.972 62.6283 44.981C61.0541 45.2258 63.059 50.142 64.5452 53.4027C70.3884 52.0481 74.7432 46.8101 74.7432 40.5549C74.7432 33.2712 68.8386 27.3666 61.5549 27.3666Z" fill="white"/>
<path d="M66.5309 47.1056C66.1956 46.9502 64.9062 47.8749 64.0504 48.5847C63.8715 48.3317 63.5343 48.1477 62.7736 48.28C62.1078 48.3958 61.7403 48.5563 61.5762 48.833C60.5254 48.4346 58.7575 47.8198 58.3304 48.4136C57.8635 49.0627 58.4471 52.1334 59.0671 52.5321C59.3909 52.7403 60.9394 51.7449 61.7481 51.0585C61.8785 51.2424 62.0886 51.3476 62.5204 51.3376C63.1734 51.3224 64.2327 51.1704 64.3971 50.8663C64.407 50.8478 64.4156 50.826 64.423 50.8011C65.2541 51.1118 66.7169 51.4405 67.0438 51.3914C67.8954 51.2635 66.9251 47.2883 66.5309 47.1056Z" fill="#33A055"/>
<path d="M64.1288 48.6756C64.1641 48.7384 64.1924 48.8048 64.2165 48.8722C64.335 49.2036 64.5281 50.2578 64.3821 50.5182C64.2361 50.7786 63.2879 50.9043 62.703 50.9144C62.118 50.9245 61.9864 50.7106 61.8679 50.3792C61.7731 50.1141 61.7264 49.4908 61.7276 49.1339C61.7036 48.6046 61.897 48.4185 62.791 48.2738C63.4525 48.1668 63.8023 48.2913 64.0042 48.5044C64.9434 47.8033 66.5105 46.8141 66.6634 46.9949C67.4255 47.8964 67.5218 50.0425 67.3568 50.9059C67.3028 51.1881 64.7793 50.6262 64.7793 50.3218C64.7793 49.0578 64.4513 48.711 64.1288 48.6756Z" fill="#38B26A"/>
<path d="M58.6008 48.2808C58.8075 47.9537 60.4836 48.3605 61.4037 48.77C61.4037 48.77 61.2146 49.6265 61.5156 50.6357C61.6037 50.9309 59.3989 52.2447 59.1111 52.0187C58.7785 51.7574 58.1664 48.9684 58.6008 48.2808Z" fill="#38B26A"/>
<path fill-rule="evenodd" clip-rule="evenodd" d="M59.4126 41.6361C59.5482 41.0464 60.1799 39.9353 62.4357 39.9622C63.5762 39.9575 64.9928 39.9617 65.932 39.8551C67.3279 39.6965 68.3641 39.3588 69.0546 39.0957C70.0311 38.7231 70.3776 38.8062 70.4991 39.0291C70.6326 39.274 70.4753 39.697 70.1341 40.0863C69.4823 40.83 68.3107 41.4062 66.2414 41.5772C64.1721 41.7483 62.8013 41.1932 62.2111 42.0969C61.9566 42.4867 62.1534 43.4053 64.1545 43.6946C66.8587 44.0848 69.0795 43.2243 69.3539 43.744C69.6283 44.2637 68.0476 45.3211 65.3391 45.3432C62.6306 45.3654 60.9388 44.3949 60.3389 43.9126C59.5777 43.3005 59.2371 42.408 59.4126 41.6361Z" fill="#FFC95C"/>
<g opacity="0.8">
<path d="M62.8619 35.1881C63.0129 34.9407 63.348 34.7498 63.8962 34.7498C64.4445 34.7498 64.7024 34.9679 64.8809 35.2112C64.9173 35.2607 64.8622 35.3189 64.8059 35.2946C64.7923 35.2887 64.7786 35.2827 64.7647 35.2766C64.5642 35.1891 64.318 35.0815 63.8962 35.0755C63.4451 35.0691 63.1607 35.1821 62.9816 35.2795C62.9212 35.3123 62.8261 35.2467 62.8619 35.1881Z" fill="#034180"/>
<path d="M56.6895 35.5046C57.2218 35.2821 57.6402 35.3109 57.936 35.3808C57.9983 35.3956 58.0416 35.3285 57.9918 35.2884C57.7622 35.1032 57.2484 34.8733 56.5782 35.1232C55.9804 35.3461 55.6987 35.8092 55.697 36.1137C55.6966 36.1855 55.8442 36.1916 55.8824 36.1308C55.9856 35.9667 56.1571 35.7271 56.6895 35.5046Z" fill="#034180"/>
<path fill-rule="evenodd" clip-rule="evenodd" d="M64.3619 38.5723C63.8912 38.5723 63.5095 38.1916 63.5095 37.7231C63.5095 37.2545 63.8912 36.8738 64.3619 36.8738C64.8325 36.8738 65.2143 37.2545 65.2143 37.7231C65.2143 38.1916 64.8325 38.5723 64.3619 38.5723ZM64.9622 37.4417C64.9622 37.3204 64.8629 37.2221 64.7416 37.2221C64.6202 37.2221 64.5219 37.3204 64.5209 37.4417C64.5209 37.563 64.6202 37.6613 64.7416 37.6613C64.8639 37.6613 64.9622 37.563 64.9622 37.4417Z" fill="#034180"/>
<path fill-rule="evenodd" clip-rule="evenodd" d="M58.7143 38.3108C58.7143 38.8578 58.2698 39.3013 57.7207 39.3013C57.1727 39.3013 56.7272 38.8578 56.7272 38.3108C56.7272 37.7638 57.1727 37.3203 57.7207 37.3203C58.2688 37.3203 58.7143 37.7638 58.7143 38.3108ZM58.4215 37.9824C58.4215 37.8412 58.3064 37.7262 58.1642 37.7262C58.023 37.7262 57.908 37.8402 57.9069 37.9824C57.9069 38.1236 58.022 38.2386 58.1642 38.2386C58.3064 38.2386 58.4215 38.1236 58.4215 37.9824Z" fill="#034180"/>
</g>
<path d="M45.8516 40.464C45.8757 40.464 45.8988 40.4736 45.916 40.4906C45.9332 40.5077 45.943 40.5308 45.9436 40.5549C45.9539 40.9664 45.9793 41.371 46.0201 41.7788C46.3763 45.4361 48.0415 48.9147 50.6244 51.4853C53.1951 54.0682 56.6737 55.7334 60.331 56.0896C60.7387 56.1305 61.1433 56.1559 61.5548 56.1662C61.5789 56.1668 61.6021 56.1765 61.6191 56.1937C61.6362 56.2109 61.6457 56.2341 61.6457 56.2582C61.6457 56.2823 61.6362 56.3054 61.6191 56.3226C61.6021 56.3398 61.5789 56.3496 61.5548 56.3502C61.1386 56.3604 60.7277 56.3542 60.3122 56.3313C56.585 56.1402 52.9275 54.5002 50.2775 51.8323C47.6096 49.1822 45.9696 45.5248 45.7785 41.7975C45.7555 41.382 45.7494 40.9712 45.7596 40.5549C45.7602 40.5308 45.7699 40.5077 45.7871 40.4906C45.8043 40.4736 45.8275 40.464 45.8516 40.464Z" fill="#671907"/>
<path d="M61.5548 24.6408C66.3078 24.5841 71.0206 26.8378 73.9847 30.5611C76.2522 33.3611 77.5098 36.9554 77.4837 40.5549C77.5148 45.9818 74.4934 51.2664 69.868 54.0224C69.0184 54.5372 68.1206 54.9709 67.1901 55.3153C67.1674 55.3237 67.1422 55.3229 67.12 55.313C67.0978 55.303 67.0804 55.2847 67.0718 55.262C67.0631 55.2394 67.0638 55.2141 67.0737 55.1919C67.0836 55.1697 67.1019 55.1522 67.1245 55.1433C68.0367 54.784 68.9135 54.3388 69.7405 53.8164C74.2426 51.0142 77.1004 45.8261 77.0326 40.5549C77.0311 37.0556 75.8 33.5837 73.6024 30.8689C70.7276 27.2607 66.1832 25.0549 61.5548 25.0625C57.4093 25.0202 53.2792 26.7356 50.3625 29.7136C49.6751 30.4098 49.0521 31.1707 48.5047 31.984C48.4912 32.0041 48.4702 32.0182 48.4464 32.023C48.4226 32.0279 48.3978 32.0232 48.3776 32.0098C48.3573 31.9965 48.3432 31.9756 48.3382 31.9518C48.3333 31.928 48.3379 31.9032 48.3511 31.8828C48.8877 31.0487 49.5038 30.2649 50.1885 29.545C53.0915 26.4657 57.2966 24.6382 61.5548 24.6408Z" fill="#671907"/>
</g>
<path d="M68.6388 19.5192C69.3353 18.3748 70.1406 17.2965 71.0544 16.2843C71.1264 16.2046 71.1991 16.1251 71.2724 16.0462C71.3208 15.9943 71.3839 15.9543 71.4546 15.9399C71.5252 15.9254 71.5973 15.937 71.6568 15.9732C71.7163 16.0094 71.7598 16.0682 71.7793 16.1377C71.799 16.2072 71.7924 16.2813 71.7686 16.3482C71.7322 16.4495 71.6951 16.5506 71.6574 16.6512C71.1781 17.9278 70.5901 19.1383 69.8936 20.2827C69.6024 20.7611 69.2296 21.19 68.775 21.569C68.6894 21.6404 68.6008 21.7099 68.5094 21.7778C68.4472 21.8235 68.3765 21.8607 68.3005 21.8736C68.2246 21.8864 68.1499 21.874 68.0883 21.8366C68.0266 21.799 67.9814 21.7382 67.9579 21.6649C67.9344 21.5915 67.9348 21.5118 67.9468 21.4356C67.9651 21.3232 67.9862 21.2123 68.0102 21.1034C68.138 20.5257 68.3476 19.9976 68.6388 19.5192Z" fill="#9E2B08"/>
<path d="M59.1227 11.9019C59.1662 11.8431 59.2291 11.8032 59.2992 11.7906C59.3693 11.7781 59.4424 11.7936 59.5037 11.8337C59.565 11.8738 59.6088 11.9353 59.6326 12.0033C59.6782 12.1354 59.7224 12.2666 59.7658 12.399C60.3172 14.0759 60.688 15.7899 60.9529 17.5001C61.0638 18.2155 61.0842 18.9424 61.02 19.6875C61.008 19.8283 60.9928 19.9688 60.9748 20.1113C60.9647 20.189 60.9388 20.2666 60.89 20.3291C60.8412 20.3914 60.7743 20.4336 60.7002 20.4468C60.6263 20.46 60.5491 20.4438 60.4817 20.4023C60.4143 20.3607 60.3629 20.2969 60.3264 20.2275C60.2599 20.0991 60.1973 19.9712 60.1381 19.8414C59.8242 19.1546 59.6131 18.4463 59.5014 17.7254C59.234 15.9988 59.118 14.269 59.0705 12.5203C59.0668 12.3821 59.0638 12.2448 59.0609 12.106C59.0595 12.034 59.0792 11.9609 59.1227 11.9019Z" fill="#9E2B08"/>
<path d="M48.0088 17.6223C48.017 17.5504 48.0507 17.4853 48.1038 17.4398C48.157 17.3945 48.2265 17.3714 48.2987 17.3745C48.371 17.3776 48.4394 17.4072 48.4953 17.4512C48.583 17.5205 48.6701 17.5904 48.7565 17.6607C49.8537 18.5531 50.8541 19.5282 51.758 20.5858C52.1358 21.028 52.4413 21.5321 52.6737 22.0985C52.7175 22.2052 52.7585 22.3141 52.7972 22.4252C52.8222 22.4984 52.836 22.5773 52.8247 22.6539C52.8134 22.7305 52.7782 22.7983 52.7229 22.8456C52.6677 22.8927 52.5953 22.9168 52.518 22.9161C52.4406 22.9153 52.3647 22.8893 52.2963 22.8532C52.1926 22.7977 52.0916 22.7399 51.993 22.68C51.4698 22.3621 51.0193 21.982 50.6415 21.5399C49.7377 20.4822 48.9303 19.342 48.2199 18.1191C48.1639 18.0228 48.1088 17.9258 48.0541 17.8285C48.0193 17.7664 48.0006 17.6942 48.0088 17.6223Z" fill="#9E2B08"/>
<path d="M80.5617 59.7347C81.2882 55.8308 85.0419 53.2549 88.9459 53.9814C92.8498 54.7079 95.4257 58.4616 94.6992 62.3655C93.9727 66.2695 90.219 68.8453 86.3151 68.1189C82.4111 67.3924 79.8353 63.6387 80.5617 59.7347Z" fill="#F05F2B"/>
<path fill-rule="evenodd" clip-rule="evenodd" d="M88.7776 54.8846C85.3725 54.251 82.0984 56.4977 81.4647 59.9029C80.831 63.3081 83.0778 66.5822 86.483 67.2158C89.8881 67.8495 93.1622 65.6027 93.7959 62.1976C94.4295 58.7924 92.1828 55.5183 88.7776 54.8846ZM82.3093 60.0601C82.8561 57.1214 85.6818 55.1824 88.6205 55.7292C91.5592 56.2761 93.4981 59.1017 92.9513 62.0404C92.4669 64.6436 90.1943 66.4623 87.6389 66.4635C87.2713 64.8704 86.931 62.9812 87.6218 62.908C87.1041 61.3584 87.4333 60.4651 88.9973 61.0503L88.9997 61.0511C89.1771 61.1054 89.3116 61.1466 89.3596 61.1272C89.6045 61.0286 90.0381 57.9432 88.2145 57.1738C86.8678 54.6839 84.7433 56.8427 85.6193 56.831C86.3264 56.7878 86.7992 57.0371 86.7747 57.0395C83.7203 56.8605 84.2329 61.8206 84.5159 64.5585C84.5549 64.9351 84.5894 65.2697 84.6098 65.543C82.8735 64.3744 81.902 62.2486 82.3093 60.0601Z" fill="white"/>
<path d="M89.1381 65.9422C89.0968 66.06 89.0399 66.1331 88.9634 66.1305C88.8183 66.1258 88.2141 65.8639 87.8808 65.6608C87.8051 65.8408 86.8105 65.8395 86.7052 65.5592C86.3002 65.7958 85.5503 66.1089 85.4276 65.9913C85.1926 65.7663 85.1919 64.3701 85.4464 64.1224C85.8042 63.9012 86.3912 64.3236 86.8128 64.5674C87.014 64.3371 87.7732 64.3769 87.8875 64.6179C88.3501 64.3853 89.1073 64.0766 89.1585 64.1681C89.4136 64.6255 89.2797 65.5761 89.1378 65.9424L89.1381 65.9422Z" fill="#4CBA3C"/>
<path fill-rule="evenodd" clip-rule="evenodd" d="M86.4675 61.2303C86.7876 60.2773 88.5794 60.9275 89.4266 60.9714C90.0421 61.0137 90.5169 60.9486 90.8362 60.8884C91.5722 60.7348 91.6369 61.0352 91.2211 61.4104C90.0688 62.3539 88.1209 61.1487 87.6373 61.6574C87.4955 61.8084 87.5054 62.2277 88.3453 62.5156C89.4803 62.9042 90.5092 62.7044 90.585 62.955C90.0916 64.1271 85.7388 62.8868 86.4669 61.2305L86.4675 61.2303Z" fill="#FFCC33"/>
<path d="M89.3532 58.8469C89.2802 58.5592 88.6511 58.4441 88.4839 58.6745C88.4632 58.7247 88.5095 58.7191 88.5979 58.7083C88.7526 58.6895 89.0362 58.655 89.3141 58.8775C89.3365 58.8926 89.3648 58.8716 89.3532 58.8469Z" fill="#14307E"/>
<path d="M86.2691 58.3388C86.1539 58.3086 85.9669 58.2597 85.7941 58.3176C85.5461 58.3727 85.4524 58.4643 85.3945 58.5282C85.3731 58.5518 85.3101 58.5373 85.3159 58.5058C85.41 58.0871 86.1626 58.0169 86.3738 58.3273C86.398 58.3725 86.3523 58.3605 86.2691 58.3388Z" fill="#14307E"/>
<path d="M88.8545 60.282C88.3739 60.1901 88.5119 59.4486 88.9934 59.5357C89.4739 59.6276 89.3359 60.3691 88.8545 60.282Z" fill="#14307E"/>
<path d="M86.4383 59.7134C86.3224 60.2836 85.484 60.1276 85.5809 59.5539C85.6895 58.9851 86.5416 59.1439 86.4383 59.7134Z" fill="#14307E"/>
<path d="M95.244 65.0682C95.3138 65.0885 95.3731 65.1362 95.4091 65.2001C95.4448 65.2639 95.4541 65.3393 95.4374 65.41C95.3649 65.7147 95.2917 66.0199 95.2177 66.3241C94.6357 68.7143 94.006 71.0913 93.329 73.454C93.2651 73.6766 93.1883 73.8958 93.0985 74.1092C92.443 75.6854 91.0382 76.8923 89.4384 77.3758C88.8901 77.5449 88.3178 77.6306 87.7479 77.6327C86.8737 77.6346 85.9982 77.6354 85.1239 77.6366C84.8112 77.637 84.4981 77.6379 84.1854 77.6385C84.113 77.6386 84.0419 77.6093 83.9891 77.5584C83.9365 77.5073 83.9053 77.4375 83.9032 77.3651C83.9013 77.2925 83.9285 77.2209 83.9784 77.1668C84.0283 77.113 84.0974 77.0799 84.1698 77.076C84.4824 77.06 84.7957 77.0435 85.1083 77.0272C85.9812 76.9817 86.8545 76.9362 87.7274 76.8915C88.2249 76.8652 88.7165 76.7666 89.1815 76.6004C90.545 76.1176 91.6352 75.0243 92.1766 73.7215C92.2514 73.544 92.3164 73.3619 92.371 73.1766C93.0644 70.8187 93.8051 68.4737 94.5936 66.1434C94.694 65.8468 94.7954 65.5499 94.8973 65.2538C94.921 65.1851 94.9697 65.1265 95.0341 65.0917C95.0986 65.0569 95.1742 65.048 95.244 65.0682Z" fill="#045EB2"/>
<path fill-rule="evenodd" clip-rule="evenodd" d="M79.5001 20.0001C86.5001 19.4999 95.9986 26.5451 95.9989 35.5731V44.3739H96.372C100.137 44.374 102.886 47.9322 101.936 51.575L95.4735 76.3602C94.8131 78.8922 92.5258 80.659 89.9091 80.659H79.7157C77.5565 80.6588 75.7316 79.4882 74.747 77.8026L50.7528 77.7811C49.9942 77.7802 49.4302 77.0774 49.5946 76.3368C49.8612 75.1384 50.8995 74.2676 52.1259 74.2127L58.4305 73.9315C58.7347 73.9177 58.9028 73.5716 58.7255 73.3241L55.1923 68.4042L41.7108 68.3866C34.8168 68.3771 29.3478 62.5737 29.747 55.6913C29.7486 55.6628 30.1904 48.041 31.0575 33.1102C31.1431 31.6367 31.4339 30.2906 32.0001 28.7215C34.5001 23 41.0001 22.3338 46.2304 22.3338C46.448 22.3519 46.4506 22.6537 46.2333 22.6756C41.131 23.1766 34.9935 23.9416 33.4481 28.7215C32.5186 31.2945 32.6479 34.2797 32.3348 36.9676C31.7094 47.739 31.2457 55.749 31.244 55.7782C30.8948 61.8003 35.6806 66.8782 41.7128 66.8866L75.8544 66.9305L80.4198 49.4207C81.1949 46.4483 83.8802 44.374 86.952 44.3739H90.6288C90.7437 42.5273 90.8766 40.6785 91.0429 38.826C91.0858 38.3519 91.131 37.8765 91.1786 37.3905C91.1859 37.3189 91.2178 37.2501 91.2714 37.201C91.3252 37.152 91.3968 37.1264 91.4686 37.1288C91.5404 37.1314 91.6097 37.1622 91.66 37.2147C91.7101 37.2673 91.7377 37.3381 91.7401 37.41C91.7549 37.8975 91.7698 38.3734 91.7831 38.8485C91.8342 40.6889 91.8715 42.5315 91.8807 44.3739H94.4989V35.5731C94.4986 27.4049 86.1564 20.5646 77.9999 20.9999H72.5809C72.3365 20.9997 72.2508 20.7117 72.3934 20.5651C72.4518 20.5052 72.5421 20.4968 72.6256 20.4909L79.5001 20.0001ZM86.952 45.8739C84.5628 45.874 82.4739 47.4878 81.871 49.7997L75.6034 73.8368C74.9016 76.5291 76.9335 79.1587 79.7157 79.159H89.9091C91.8429 79.159 93.5331 77.8534 94.0214 75.9823L100.484 51.1961C101.186 48.5036 99.1545 45.874 96.372 45.8739H86.952ZM59.9442 72.4491C60.8165 73.6644 59.9914 75.3637 58.497 75.4305L52.1923 75.7108C51.7844 75.7292 51.4233 75.9503 51.2157 76.2821L74.1337 76.3016C74.0451 75.9482 73.9896 75.5827 73.9706 75.2108C71.8761 75.2312 69.779 75.1446 67.6805 74.951C67.4273 74.9277 67.1731 74.9023 66.9198 74.8758C66.8498 74.8684 66.7818 74.8386 66.7313 74.7879C66.681 74.7372 66.6517 74.6694 66.6503 74.5995C66.6492 74.5299 66.6755 74.4615 66.7235 74.409C66.772 74.3565 66.8394 74.3234 66.9091 74.3133C67.1612 74.2774 67.4146 74.2436 67.6669 74.2108C69.7932 73.9342 71.9222 73.7678 74.0526 73.7127C74.066 73.7123 74.0798 73.7112 74.0927 73.7098C74.1106 73.6263 74.1304 73.5425 74.1522 73.4588L74.3632 72.6483C73.718 71.3436 73.1169 70.0141 72.5624 68.66C72.5307 68.5826 72.4991 68.5042 72.4677 68.4266L57.0409 68.4061L59.9442 72.4491ZM73.2977 68.4276C73.8345 69.1993 74.3521 69.9821 74.8514 70.7743L75.4628 68.4305L73.2977 68.4276Z" fill="#045EB2"/>
<defs>
<filter id="filter0_d_2285_368" x="38" y="17" width="49.1098" height="49.7765" filterUnits="userSpaceOnUse" color-interpolation-filters="sRGB">
<feFlood flood-opacity="0" result="BackgroundImageFix"/>
<feColorMatrix in="SourceAlpha" type="matrix" values="0 0 0 0 0 0 0 0 0 0 0 0 0 0 0 0 0 0 127 0" result="hardAlpha"/>
<feOffset dx="2" dy="2.66667"/>
<feComposite in2="hardAlpha" operator="out"/>
<feColorMatrix type="matrix" values="0 0 0 0 0.796078 0 0 0 0 0.917647 0 0 0 0 1 0 0 0 1 0"/>
<feBlend mode="normal" in2="BackgroundImageFix" result="effect1_dropShadow_2285_368"/>
<feBlend mode="normal" in="SourceGraphic" in2="effect1_dropShadow_2285_368" result="shape"/>
</filter>
</defs>
</svg>
