<svg width="96" height="96" viewBox="0 0 96 96" fill="none" xmlns="http://www.w3.org/2000/svg">
<path d="M47.683 16.75C64.9789 16.7501 79 30.7411 79 48C79 65.2589 64.9789 79.2499 47.683 79.25C30.3871 79.25 16.3661 65.2589 16.3661 48C16.3661 30.7411 30.3871 16.75 47.683 16.75Z" fill="#4397E0"/>
<path d="M12.8586 47.7871C12.9386 47.7871 13.0158 47.8188 13.0736 47.8752C13.1314 47.9318 13.1648 48.0087 13.1693 48.0886C13.2003 48.6459 13.2427 49.1962 13.297 49.7493C13.7822 54.7116 15.2294 59.5179 17.5331 63.874C19.8339 68.2318 23.0147 72.1267 26.8624 75.281C27.2899 75.6316 27.7255 75.9728 28.1691 76.3049C28.2604 76.3733 28.3241 76.4738 28.3441 76.5867C28.3641 76.6996 28.339 76.8154 28.2743 76.9092C28.2096 77.0029 28.11 77.0675 27.9971 77.0891C27.8843 77.1107 27.7676 77.0872 27.671 77.0264C27.1903 76.7231 26.7175 76.4072 26.2527 76.0789C22.0672 73.1271 18.5658 69.1547 16.162 64.5952C13.7482 60.0407 12.4851 54.8874 12.5001 49.7874C12.5009 49.2189 12.5169 48.6557 12.5478 48.0886C12.5523 48.0086 12.5857 47.9318 12.6435 47.8752C12.7013 47.8188 12.7785 47.7871 12.8586 47.7871Z" fill="#4397E0"/>
<path d="M64.1139 17.2236C64.2223 17.1902 64.3391 17.1999 64.4415 17.2454C64.7004 17.3608 64.9575 17.4804 65.2127 17.6042C67.51 18.7183 69.6556 20.1724 71.5512 21.8997C73.4477 23.626 75.0701 25.6516 76.331 27.8662C76.4711 28.1122 76.6068 28.3604 76.7381 28.6108C76.7743 28.6803 76.7878 28.7613 76.7709 28.8389C76.754 28.9164 76.7086 28.984 76.6439 29.0273C76.5792 29.0707 76.4993 29.087 76.421 29.0732C76.3426 29.0595 76.2728 29.0163 76.2221 28.9565C76.0422 28.7446 75.8614 28.5344 75.6794 28.3257C74.0414 26.4474 72.3197 24.6942 70.5063 23.042C68.6925 21.3903 66.7623 19.8654 64.7099 18.4734C64.4819 18.3187 64.2524 18.1657 64.0212 18.0144C63.9274 17.953 63.8559 17.8601 63.8255 17.751C63.7951 17.6419 63.8076 17.5262 63.8612 17.4282C63.9148 17.3303 64.0056 17.2571 64.1139 17.2236Z" fill="#4397E0"/>
<path d="M65.0343 50.0367C65.7888 47.1432 68.4019 45.124 71.3922 45.124H81.019C83.9653 45.124 86.1168 47.9084 85.3734 50.7594L78.6498 76.5449C78.1331 78.5267 76.3434 79.9095 74.2954 79.9095H63.0688C60.1224 79.9095 57.971 77.1251 58.7144 74.2741L65.0343 50.0367Z" fill="#75B6EB"/>
<path d="M65.3432 49.4035C66.0105 46.881 68.2927 45.124 70.902 45.124H78.7337C81.7181 45.124 83.8758 47.9761 83.0641 50.848L76.5597 73.8607C76.0119 75.7987 74.2433 77.1368 72.2293 77.1368H63.852C60.8991 77.1368 58.7465 74.3407 59.5017 71.486L65.3432 49.4035Z" fill="#F5FBFE"/>
<path d="M79.0339 65.0908C79.0985 65.0561 79.1739 65.0477 79.2437 65.0679C79.3135 65.0882 79.3727 65.1357 79.4087 65.1997C79.4446 65.2637 79.4541 65.3391 79.4373 65.4099C79.3647 65.7148 79.2914 66.0196 79.2173 66.324C78.6353 68.7144 78.0057 71.0911 77.3286 73.4539C77.2647 73.6766 77.1877 73.8952 77.0979 74.1086C76.4424 75.685 75.038 76.8917 73.438 77.3752C72.8896 77.5444 72.3174 77.6306 71.7473 77.6326C70.873 77.6345 69.9984 77.6353 69.124 77.6365C68.811 77.6369 68.4978 77.6373 68.1848 77.6379C68.1121 77.638 68.0413 77.6089 67.9885 77.5576C67.9357 77.5062 67.9048 77.437 67.9028 77.3643C67.9009 77.2916 67.9281 77.2208 67.978 77.1667C68.028 77.1128 68.0971 77.0795 68.1697 77.0757C68.4823 77.0596 68.7953 77.0434 69.1079 77.0271C69.9811 76.9816 70.8544 76.9356 71.7275 76.8909C72.2252 76.8646 72.7164 76.7661 73.1816 76.5999C74.5454 76.1169 75.6349 75.0237 76.1763 73.7207C76.2511 73.543 76.3158 73.3612 76.3704 73.1758C77.0638 70.8177 77.805 68.4733 78.5935 66.1428C78.6939 65.8461 78.7953 65.5495 78.8972 65.2532C78.921 65.1843 78.9693 65.1256 79.0339 65.0908Z" fill="#045EB2"/>
<path fill-rule="evenodd" clip-rule="evenodd" d="M28.1584 27.0994C28.2434 27.0203 28.3655 26.9953 28.4746 27.0349C28.5856 27.0753 28.6962 27.1165 28.8062 27.1592C29.4146 27.397 30.0095 27.6683 30.5908 27.9724C33.4341 29.5223 36.0357 31.4119 38.4968 33.4651C40.8434 31.6676 43.328 30.0885 45.8904 28.6382C46.2921 28.4127 46.698 28.1911 47.1062 27.9746C47.3192 27.8617 47.5798 27.9896 47.6545 28.2188C47.7232 28.4295 47.8105 28.6319 47.9143 28.824C48.017 29.014 47.9579 29.2586 47.7671 29.3599C47.3894 29.5602 47.0129 29.7657 46.6396 29.9746C44.234 31.3314 41.8831 32.8197 39.6841 34.4763C40.8349 35.4767 41.9577 36.5076 43.063 37.5505C45.4341 39.8174 47.7052 42.1865 49.875 44.6428C50.1193 44.6846 50.3635 44.7268 50.6077 44.7698C50.6164 44.7714 50.6253 44.7731 50.634 44.7747C54.3787 45.4549 58.083 46.342 61.7371 47.4082C61.8343 47.4366 61.9314 47.4652 62.0286 47.4939C62.3254 47.5817 62.4588 47.9257 62.3491 48.2151C62.2991 48.3472 62.2564 48.4829 62.2217 48.6218C62.1473 48.9195 61.8463 49.1248 61.553 49.0347C61.4612 49.0065 61.3694 48.9783 61.2776 48.9504C58.0374 47.9672 54.7497 47.1309 51.4329 46.4424C51.6885 46.7436 51.9433 47.0455 52.196 47.3491C54.457 50.0697 56.5538 52.9192 58.4819 55.8721C58.9027 56.5168 59.3152 57.1667 59.7185 57.8208C59.7377 57.8519 59.745 57.8896 59.738 57.9258C59.731 57.9619 59.71 57.9939 59.6799 58.0146C59.6498 58.0353 59.6125 58.0432 59.5762 58.0369C59.5398 58.0305 59.5076 58.01 59.4854 57.981C59.0203 57.3717 58.5497 56.7663 58.0745 56.165C55.8968 53.4117 53.6247 50.7423 51.2573 48.1707C50.5904 47.4473 49.9184 46.7287 49.2422 46.0144C43.0485 44.8726 36.7479 44.1094 30.4463 43.8621C27.5967 47.7049 25.3067 51.9821 23.8538 56.5757C23.6538 57.2154 23.4725 57.8592 23.3123 58.5049C23.2931 58.582 23.2431 58.649 23.1748 58.6912C23.1064 58.7333 23.0248 58.7473 22.9473 58.7297C22.8697 58.7121 22.8021 58.6644 22.7585 58.5969C22.715 58.5294 22.6991 58.4473 22.7151 58.3694C22.8516 57.7058 23.0076 57.043 23.1812 56.3826C24.3591 51.9467 26.2544 47.6732 28.7952 43.8135C25.9424 43.749 23.0775 43.7579 20.2568 44.1445C20.0338 44.176 19.8103 44.2109 19.5872 44.2488C19.4273 44.2759 19.2854 44.141 19.3083 43.9805C19.3221 43.8844 19.3931 43.8066 19.4875 43.7842C19.7137 43.7305 19.9405 43.68 20.1667 43.6323C23.2367 42.9984 26.3822 42.7784 29.5051 42.7698C30.5393 41.2979 31.6703 39.8922 32.8938 38.5674C34.1629 37.1951 35.5117 35.9092 36.9426 34.7061C37.069 34.6008 37.1959 34.4963 37.3232 34.3926C35.0396 32.3519 32.6823 30.4071 30.1604 28.7097C29.6364 28.3695 29.0919 28.0521 28.5339 27.7632C28.4365 27.713 28.3384 27.6637 28.24 27.6152C28.0411 27.5172 27.9962 27.2504 28.1584 27.0994ZM38.4646 35.4255C38.2819 35.5726 38.1003 35.721 37.9202 35.8706C36.5357 37.0309 35.23 38.2705 33.9993 39.5928C33.0461 40.6183 32.1321 41.6853 31.2642 42.7908C36.7293 42.9076 42.1726 43.434 47.5703 44.2681C45.7371 42.3745 43.8702 40.5156 41.968 38.697C40.8076 37.6017 39.6439 36.5042 38.4646 35.4255Z" fill="#045EB2"/>
<path d="M51.1479 24.604C52.516 24.604 53.625 25.713 53.625 27.0811C53.625 28.4491 52.516 29.5583 51.1479 29.5583C49.7799 29.5583 48.6709 28.4491 48.6709 27.0811C48.6709 25.713 49.7799 24.604 51.1479 24.604Z" fill="#045EB2"/>
<path d="M63.125 24.0154C63.1878 24.0156 63.2492 24.0341 63.3018 24.0684C63.5631 24.2388 63.4528 24.6406 63.1421 24.6689C60.3558 24.9226 57.6017 25.5663 54.9438 26.3826C54.8494 26.4123 54.7505 26.3524 54.7283 26.2559C54.6573 25.9468 54.5473 25.6525 54.4038 25.3787C54.3216 25.2217 54.4026 25.0213 54.5759 24.9841C57.3972 24.3989 60.2571 24.0067 63.125 24.0154Z" fill="#045EB2"/>
<path fill-rule="evenodd" clip-rule="evenodd" d="M47.75 16C64.197 16 77.7461 28.408 79.5469 44.3738H80.3718C84.1365 44.3738 86.8856 47.9316 85.9358 51.5745L79.4729 76.3601C78.8126 78.8922 76.5257 80.6591 73.9089 80.6592H63.7158C61.6468 80.6591 59.8848 79.5844 58.8748 78.0117C55.4097 79.2967 51.6621 80 47.75 80C30.0769 80 15.75 65.6731 15.75 48C15.75 30.3269 30.0769 16 47.75 16ZM70.9514 45.8738C68.5621 45.8738 66.474 47.4871 65.8711 49.7991L59.6033 73.8369C58.9013 76.5295 60.9332 79.1591 63.7158 79.1592H73.9089C75.8431 79.1591 77.5334 77.8532 78.0215 75.9817L84.4844 51.196C85.1864 48.5035 83.1544 45.8738 80.3718 45.8738H70.9514ZM47.75 17.5C30.9053 17.5 17.25 31.1553 17.25 48C17.25 64.8447 30.9053 78.5 47.75 78.5C51.4334 78.5 54.9639 77.8459 58.2329 76.6494C57.9163 75.6579 57.8641 74.5622 58.1519 73.4585L63.9617 51.1763C63.5565 50.7383 63.3089 50.1527 63.3088 49.509C63.3088 48.2212 64.2997 47.1653 65.5605 47.0608C66.8076 45.4073 68.783 44.3738 70.9514 44.3738H78.0359C76.2429 29.2384 63.3676 17.5 47.75 17.5Z" fill="#045EB2"/>
<path d="M73.1038 54C76.8655 54 79.1754 56.9566 78.2654 60.6066C77.3553 64.2565 73.571 67.2132 69.8093 67.2132C66.0476 67.2132 63.7377 64.2565 64.6477 60.6066C65.5578 56.9566 69.342 54 73.1038 54ZM72.9552 54.542C69.5033 54.5421 66.028 57.2572 65.1929 60.6066C64.3578 63.9559 66.4792 66.6711 69.9311 66.6712C73.383 66.6712 76.8583 63.956 77.6934 60.6066C78.5285 57.2572 76.4071 54.542 72.9552 54.542ZM72.8253 55.0632C75.9805 55.0632 77.9196 57.545 77.1563 60.6066C76.5004 63.2372 74.0628 65.4397 71.388 66.0076C71.3375 65.7796 71.2724 65.4764 71.2289 65.2484C71.0333 65.303 70.7687 65.3287 70.5818 65.3351C70.4412 65.3351 70.3287 65.3287 70.2892 65.2484C69.8541 65.547 69.0269 65.9451 68.9046 65.852C68.6699 65.6786 68.7416 64.3433 69.0196 64.064C69.0819 63.9998 69.176 63.9677 69.2843 63.9581C69.0866 64.3529 69.0748 65.3284 69.1789 65.4282C69.2807 65.5245 70.3111 65.0044 70.3018 64.8824C70.2865 64.6257 70.3442 64.3946 70.3901 64.2502C70.4386 64.202 70.5686 64.1281 70.6527 64.096C70.6373 64.1313 70.6241 64.1699 70.6162 64.2149C70.5786 64.3658 70.5336 64.6258 70.5453 64.7382C70.5639 64.8762 70.598 64.9659 70.8502 64.9627C71.1057 64.9595 71.5294 64.905 71.6195 64.796C71.7096 64.6868 71.7374 64.2436 71.7197 64.1024L71.7067 64.0351C71.705 64.0287 71.7032 64.0222 71.7007 64.019H71.7893C71.9144 64.0479 72.014 64.1026 71.8996 64.6939C71.87 64.8126 72.6704 65.0397 72.8419 64.9755C72.8567 64.9691 72.8649 64.9628 72.8698 64.9563C73.0331 64.5936 73.215 63.6915 72.9794 63.3095C72.9325 63.2324 72.1502 63.6497 71.6696 63.9451C71.606 63.8552 71.4665 63.8039 71.1674 63.8489C71.1395 63.8526 71.1134 63.8575 71.0885 63.8621C71.0706 63.8655 71.0533 63.8687 71.0361 63.8714C71.0059 63.422 71.0217 63.0271 71.1187 62.7703C70.8419 62.6066 70.6774 62.4171 70.6561 62.3432C70.6171 62.2213 70.7473 62.1635 70.7989 62.1956C70.8014 62.1988 70.8072 62.2019 70.8163 62.2051C71.1064 62.3817 71.5945 62.5744 72.3136 62.6097C72.3988 62.6129 72.4873 62.6161 72.5766 62.6161C73.7535 62.6065 74.5488 62.1634 74.4849 61.9419C74.4544 61.839 74.2038 61.8654 73.8292 61.9047C73.4095 61.9488 72.8337 62.0092 72.2366 61.9227C71.4002 61.8007 71.4103 61.4156 71.5603 61.2519C71.7888 61.004 72.098 61.0173 72.5406 61.0363C72.7744 61.0463 73.0456 61.0579 73.3616 61.0335C74.2757 60.9628 74.846 60.719 75.2049 60.4076C75.3946 60.2439 75.5049 60.0672 75.4751 59.9613C75.4454 59.8682 75.3051 59.8329 74.8424 59.9902C74.5208 60.0993 74.0423 60.2407 73.4333 60.3081C73.6952 59.6693 73.9645 57.3546 72.3678 57.0047C72.362 57.0015 72.356 56.9983 72.351 56.9919C71.9966 56.3563 71.0266 56.0673 70.0021 56.1957C69.9955 56.1957 69.9914 56.1989 69.9873 56.2021C69.9544 56.215 69.9407 56.2695 69.9705 56.2824C70.0734 56.3209 70.1914 56.3789 70.2691 56.4655C70.1084 56.5394 69.8695 56.6612 69.7145 56.8185C69.7063 56.8249 69.7047 56.8313 69.7031 56.8377C69.6983 56.8569 69.7107 56.8731 69.7346 56.8699C70.2409 56.7768 70.7228 56.8218 70.9499 57.0786C70.9657 57.0947 70.9485 57.1236 70.9205 57.13C68.2338 57.7945 68.2027 59.9229 68.2236 62.5327C68.2374 64.277 68.2778 65.372 68.3002 65.8584C66.2291 65.1172 65.1218 63.0458 65.73 60.6066C66.4933 57.5451 69.67 55.0632 72.8253 55.0632ZM70.1219 59.2454C70.36 59.2455 70.5053 59.4317 70.4477 59.6628C70.3901 59.8939 70.1519 60.0799 69.9138 60.08C69.6756 60.08 69.53 59.8939 69.5876 59.6628C69.6419 59.4317 69.8836 59.2454 70.1219 59.2454ZM73.0465 59.0592C73.2516 59.0592 73.3778 59.2165 73.3282 59.4155C73.2794 59.6113 73.0739 59.772 72.8687 59.772C72.6637 59.772 72.5384 59.6113 72.5873 59.4155C72.6361 59.2197 72.8414 59.0593 73.0465 59.0592ZM70.2721 59.4124C70.2093 59.4124 70.1476 59.4605 70.1324 59.5214C70.1172 59.5824 70.1549 59.6306 70.2177 59.6306C70.2805 59.6305 70.342 59.5824 70.3572 59.5214C70.3724 59.4605 70.3349 59.4125 70.2721 59.4124ZM73.176 59.2037C73.123 59.2037 73.0696 59.2455 73.0568 59.2968C73.044 59.3482 73.0766 59.3899 73.1295 59.3899C73.1824 59.3899 73.2359 59.3482 73.2487 59.2968C73.2615 59.2455 73.2289 59.2037 73.176 59.2037ZM69.8526 58.3208C70.1701 58.2149 70.3678 58.3112 70.4471 58.3914C70.4662 58.4075 70.4391 58.4365 70.4143 58.4301C70.2958 58.4012 70.1171 58.3884 69.8624 58.4815C69.6076 58.5746 69.5091 58.6772 69.4459 58.7446C69.423 58.7703 69.361 58.7671 69.3682 58.7382C69.4002 58.6098 69.5714 58.4139 69.8526 58.3208ZM73.0673 58.1669C73.3054 58.1669 73.3947 58.26 73.446 58.3595C73.4577 58.3787 73.4248 58.4044 73.404 58.3948C73.4003 58.393 73.3965 58.3912 73.3927 58.3893C73.3151 58.3516 73.2188 58.3047 73.0337 58.3017C72.8393 58.2985 72.7047 58.3466 72.6148 58.3884C72.5852 58.4011 72.5521 58.3754 72.5717 58.3497C72.6635 58.2471 72.8291 58.1669 73.0673 58.1669Z" fill="#034180"/>
</svg>
