<svg width="128" height="96" viewBox="0 0 128 96" fill="none" xmlns="http://www.w3.org/2000/svg">
<path d="M76.553 47.4003C73.1269 48.6664 74.7523 41.8978 73.9595 35.3907C72.679 24.8964 66.5492 17.906 60.4026 16.6487C59.9035 16.5466 59.4925 17.0037 59.5573 17.509C60.2609 22.9952 57.6149 30.1717 55.1958 33.7382C54.8467 34.253 54.0952 34.0546 53.9201 33.4577C53.0907 30.6298 51.3447 28.2112 48.2132 27.523C47.7513 27.4215 47.3516 27.818 47.3685 28.2906C47.6069 34.9708 43.7311 40.3463 41.5834 46.9029C39.6547 52.7789 38.3517 61.1662 43.0733 68.2525C50.4993 79.4061 63.7022 80.4501 71.4815 78.9561C80.9647 77.1365 87.0905 70.6756 89.3286 63.6327C93.4688 50.6034 85.3498 42.7723 84.8433 38.0735C84.7868 37.5495 84.3187 37.0822 83.8196 37.2517C78.6072 39.0216 79.0618 46.4651 76.5525 47.3935L76.553 47.4003Z" fill="#F05F2B"/>
<path fill-rule="evenodd" clip-rule="evenodd" d="M58.8135 17.6044C58.7005 16.7233 59.4034 15.7511 60.4504 15.8963L60.553 15.9139L60.7068 15.9464C67.166 17.3608 73.3118 24.5741 74.6726 35.0499L74.7041 35.2999L74.7402 35.6131C74.913 37.1786 74.9554 38.7424 74.9673 40.1842C74.9801 41.7417 74.9584 43.1196 75.0178 44.2718C75.0472 44.8426 75.0956 45.3304 75.1723 45.7315C75.2504 46.1393 75.3495 46.4119 75.4534 46.5814C75.5472 46.7346 75.6244 46.7741 75.685 46.7904C75.7528 46.8086 75.8898 46.819 76.1325 46.7489L76.2922 46.69C76.6111 46.572 76.946 46.1965 77.3315 45.3541C77.7133 44.5197 78.0208 43.535 78.4731 42.3673C79.3319 40.1505 80.6259 37.5439 83.5784 36.5414C84.1296 36.3542 84.6433 36.5374 84.9878 36.8351C85.3211 37.1231 85.5409 37.5464 85.5891 37.993C85.6996 39.0179 86.238 40.2723 87.0161 41.8924C87.7742 43.4711 88.7275 45.3382 89.53 47.4642C91.1476 51.7495 92.1776 57.1427 90.0432 63.8597C87.7259 71.1522 81.3888 77.8185 71.6228 79.6925C63.7031 81.2134 50.1156 80.1832 42.449 68.6681C37.5311 61.2871 38.9209 52.6096 40.8708 46.669C41.952 43.3685 43.5023 40.2748 44.675 37.3629C45.8682 34.4002 46.7325 31.5018 46.6189 28.3172C46.589 27.4769 47.2983 26.6196 48.2785 26.7726L48.3742 26.7904L48.5368 26.8277C51.9208 27.6413 53.7713 30.3012 54.6343 33.2286C55.776 31.5187 56.9855 28.9459 57.8291 26.1283C58.6885 23.2576 59.1469 20.2047 58.8135 17.6044ZM60.3013 17.4134C60.6713 20.2993 60.1585 23.5777 59.2661 26.5585C58.3725 29.5433 57.0763 32.3015 55.8164 34.159C55.452 34.6963 54.8493 34.8696 54.3203 34.7447C53.8093 34.624 53.3652 34.2307 53.2004 33.6688C52.4221 31.0152 50.8459 28.8978 48.1179 28.2704C48.2412 31.7634 47.2876 34.8908 46.0664 37.9232C44.824 41.0081 43.3626 43.8804 42.2961 47.1363L42.2959 47.1368C40.4033 52.9027 39.1913 60.9186 43.5925 67.6771L43.6975 67.8365C50.8827 78.6286 63.7011 79.6866 71.3401 78.2196L71.769 78.1334C80.7244 76.2584 86.4888 70.0927 88.6138 63.4054C90.6195 57.0932 89.6601 52.0562 88.1267 47.994C87.3537 45.9463 86.4412 44.1602 85.664 42.5419C84.9067 40.965 84.2404 39.4784 84.0976 38.1539C84.094 38.1198 84.0829 38.0818 84.0642 38.0458C84.0483 38.0151 84.0299 37.9925 84.0149 37.9776C81.7862 38.7564 80.7104 40.7443 79.8718 42.909C79.4726 43.9395 79.0971 45.1005 78.6955 45.9781C78.3782 46.6718 77.9641 47.3863 77.3347 47.8229L77.341 47.9086L76.813 48.1039C76.3014 48.2929 75.7842 48.3702 75.2956 48.2389C74.7863 48.1019 74.4222 47.7694 74.1743 47.3646C73.9363 46.976 73.7931 46.504 73.6992 46.0135C73.604 45.5164 73.5508 44.9519 73.5198 44.349C73.4582 43.154 73.4799 41.6988 73.4675 40.1966C73.4549 38.6749 73.408 37.0655 73.2151 35.4815L73.1528 35.0018C71.7762 25.0107 65.9236 18.574 60.3013 17.3937C60.3004 17.3995 60.3003 17.4061 60.3013 17.4134Z" fill="#9E2B08"/>
<path d="M78.0402 66.2959C78.125 66.2847 78.2103 66.306 78.2779 66.3559C78.3456 66.4059 78.391 66.481 78.4052 66.5654C78.4195 66.6499 78.4009 66.7364 78.3578 66.8091C78.0967 67.2381 77.7961 67.6199 77.4724 67.9898C75.605 70.0728 73.1735 71.6367 70.4673 72.5319C69.0851 72.9833 67.6458 73.2314 66.2034 73.2981C61.6004 73.4638 57.0292 72.0941 53.4276 69.3008C53.0537 68.9813 52.6763 68.6442 52.3872 68.1811C52.345 68.1081 52.328 68.0217 52.3436 67.9378C52.3593 67.854 52.4058 67.7799 52.4742 67.7314C52.5425 67.6828 52.6279 67.6631 52.7122 67.6759C52.7965 67.6887 52.8724 67.7335 52.9274 67.7973C53.1835 68.074 53.5759 68.3343 53.9554 68.5568C57.6721 70.5454 61.9982 71.4341 66.1097 71.2813C67.4044 71.2212 68.6828 71.0396 69.9306 70.7141C72.38 70.0659 74.772 68.9182 76.8273 67.3173C77.1826 67.0335 77.5224 66.7377 77.8216 66.4132C77.8783 66.3506 77.9553 66.3071 78.0402 66.2959Z" fill="#FAB341"/>
<path d="M37.6269 48.9335C37.6904 48.8963 37.7652 48.885 37.8356 48.9023C37.9061 48.9196 37.9671 48.9644 38.0061 49.0268C38.0451 49.0892 38.0583 49.1644 38.0463 49.2363C37.9876 49.5937 37.9308 49.9566 37.8745 50.3168C37.8349 50.5714 37.795 50.8268 37.7592 51.0773C37.3485 53.9657 37.1924 56.8621 37.437 59.7194C37.7128 62.9922 38.5707 66.2087 40.1047 69.1586C40.271 69.4795 40.4418 69.7929 40.6235 70.1083C40.6649 70.1803 40.6802 70.2656 40.6628 70.3476C40.6454 70.4296 40.5972 70.5013 40.5283 70.5473C40.4594 70.5932 40.3748 70.6101 40.2924 70.5947C40.21 70.5792 40.1369 70.5323 40.0864 70.4665C39.8588 70.1687 39.6429 69.8697 39.4326 69.5595C37.4872 66.7117 36.3454 63.2926 36.0595 59.8373C35.8004 56.8179 36.1624 53.7844 36.9484 50.9089C37.0183 50.6539 37.0912 50.4055 37.1657 50.1559C37.2715 49.8032 37.3796 49.452 37.4941 49.1003C37.5168 49.0311 37.5634 48.9707 37.6269 48.9335Z" fill="#CC3B0A"/>
<path d="M74.4533 26.0368C74.5228 25.9991 74.6051 25.9902 74.6838 26.0109C74.7625 26.0317 74.8306 26.0808 74.8801 26.1437C74.974 26.2641 75.0656 26.3865 75.1547 26.5107C75.9585 27.6282 76.5597 28.8995 76.9226 30.2311C77.2872 31.5634 77.4119 32.9525 77.3183 34.3188C77.308 34.4712 77.2951 34.622 77.2795 34.7741C77.2713 34.8504 77.2415 34.9252 77.1884 34.9824C77.1354 35.0395 77.0642 35.0746 76.9887 35.0798C76.9133 35.0849 76.8381 35.0598 76.7778 35.0104C76.7174 34.961 76.6777 34.891 76.6591 34.8166C76.6232 34.6716 76.5871 34.5286 76.5512 34.3847C76.2288 33.0943 75.9105 31.8417 75.5712 30.6003C75.232 29.3587 74.8676 28.1269 74.4514 26.872C74.4051 26.7326 74.3583 26.593 74.3107 26.4531C74.2849 26.3773 74.2806 26.2933 74.3061 26.216C74.3316 26.1387 74.3839 26.0745 74.4533 26.0368Z" fill="#CC3B0A"/>
</svg>
