<svg width="12" height="12" viewBox="0 0 12 12" fill="none" xmlns="http://www.w3.org/2000/svg">
<g clip-path="url(#clip0_11782_74710)">
<path fill-rule="evenodd" clip-rule="evenodd" d="M9.50098 7C10.8813 7.0004 12.0009 8.11959 12.001 9.5C12.0009 10.8804 10.8813 11.9996 9.50098 12C8.12031 12 7.00104 10.8807 7.00098 9.5C7.00104 8.11934 8.12031 7 9.50098 7ZM8.33594 9C8.15098 9.00002 8.00104 9.15001 8.00098 9.33496V9.66504C8.00106 9.84997 8.15099 9.99998 8.33594 10H10.666C10.8506 9.9995 11.0009 9.84967 11.001 9.66504V9.33496C11.0009 9.15031 10.8506 9.0005 10.666 9H8.33594Z" fill="black"/>
<path fill-rule="evenodd" clip-rule="evenodd" d="M6 0C9.14533 0 11.7254 2.42023 11.9795 5.5C12.0022 5.77521 11.7761 6 11.5 6C11.224 6 11.003 5.77564 10.9756 5.50098C10.725 2.97398 8.59291 1 6 1C3.23858 1 1 3.23858 1 6C1 6.97608 1.28007 7.88659 1.76367 8.65625C2.52427 7.70799 3.57824 7.00368 4.79004 6.68652C4.02116 6.26014 3.5 5.44149 3.5 4.5C3.5 3.11929 4.61929 2 6 2C7.38071 2 8.5 3.11929 8.5 4.5C8.5 5.32987 8.09432 6.06317 7.47168 6.51758C7.389 6.57791 7.31041 6.64384 7.24512 6.72266C7.14284 6.84621 6.97839 7.04645 6.83789 7.22363C6.69684 7.4015 6.47701 7.5 6.25 7.5C4.66619 7.5 3.26412 8.27548 2.40039 9.46875C3.20148 10.2999 4.28728 10.8551 5.50098 10.9756C5.77566 11.003 6 11.2239 6 11.5C6 11.7761 5.77521 12.0022 5.5 11.9795C2.42023 11.7254 0 9.14533 0 6C0 2.68629 2.68629 0 6 0ZM6 3C5.17157 3 4.5 3.67157 4.5 4.5C4.5 5.32843 5.17157 6 6 6C6.82843 6 7.5 5.32843 7.5 4.5C7.5 3.67157 6.82843 3 6 3Z" fill="black"/>
</g>
<defs>
<clipPath id="clip0_11782_74710">
<rect width="12" height="12" fill="white"/>
</clipPath>
</defs>
</svg>
