<svg width="128" height="96" viewBox="0 0 128 96" fill="none" xmlns="http://www.w3.org/2000/svg">
<path d="M64 16C81.6731 16 96 30.3269 96 48C96 50.1554 95.7862 52.2609 95.3799 54.2969C93.7142 53.6398 91.8994 53.2788 90.0002 53.2788C81.9001 53.2788 75.3335 59.8454 75.3335 67.9456C75.3335 71.2167 76.4047 74.2375 78.2151 76.677C73.9325 78.8039 69.106 80 64 80C46.3269 80 32 65.6731 32 48C32 30.3269 46.3269 16 64 16Z" fill="#F05F2B"/>
<path fill-rule="evenodd" clip-rule="evenodd" d="M68.4996 71.875C68.4996 71.625 68.561 71.568 67.7663 69.984C65.6543 65.7547 63.5316 59.792 64.497 55.9467C64.673 55.248 62.5076 30.0747 60.977 29.264C59.2756 28.3573 57.1823 26.9191 55.2677 26.5991C54.2962 26.4437 53.0225 26.5173 52.0268 26.6514C51.8498 26.6752 51.8425 26.9933 52.0116 27.0506C52.6653 27.2721 53.4591 27.6566 53.9269 28.238C54.0154 28.3481 53.8966 28.5211 53.7555 28.5264C53.3145 28.5427 52.5145 28.7276 51.4591 29.624C51.337 29.7277 51.4384 29.9202 51.5955 29.8892C53.8638 29.4404 56.1803 29.6615 57.5455 30.9024C57.6341 30.9829 57.5877 31.1273 57.4722 31.1587C45.6251 34.3783 47.9704 44.6838 51.1242 57.3306C54.0086 68.8969 55.0459 72.4152 55.3491 73.416C55.3653 73.4695 55.4026 73.512 55.4544 73.5332C59.4945 75.1889 68.4996 75.2805 68.4996 72.5V71.875Z" fill="#DDDDDD"/>
<path d="M64 18.625C80.2234 18.625 93.375 31.7766 93.375 48C93.375 49.8994 93.1945 51.7566 92.8501 53.5557C92.0405 53.3962 91.207 53.3034 90.3555 53.2832C90.696 51.5749 90.875 49.8084 90.875 48C90.875 33.1574 78.8427 21.125 64 21.125C49.1573 21.125 37.125 33.1574 37.125 48C37.125 60.4734 45.6226 70.962 57.1445 73.9927C56.3328 71.4851 54.0643 64.2172 51.8237 55.0325C51.7491 54.7265 51.6745 54.4219 51.6003 54.1189L51.5984 54.1113C48.8862 43.0333 46.6711 33.9851 58.812 31.1426C58.9229 31.1166 58.9771 30.9839 58.9038 30.8967C57.5108 29.2442 54.9012 28.7025 51.6016 29.8408C51.4662 29.8875 51.3485 29.7509 51.4326 29.635C52.0797 28.7432 53.3443 28.0574 53.9685 27.7568C54.0974 27.6947 54.0895 27.5059 53.9529 27.4631C53.5445 27.3353 52.8494 27.1396 52.0674 27.0134C51.8824 26.9836 51.8658 26.6666 52.0515 26.6416C56.7294 26.0123 61.6142 27.4166 64.0654 30.5044C64.0885 30.5335 64.1219 30.5537 64.1582 30.5615C73.1346 32.4893 73.7772 46.6791 72.7432 47.3254C72.5392 47.4528 71.8858 47.3796 71.0242 47.2832C67.5315 46.8924 60.6153 46.1186 66.3235 56.7568C66.3799 56.8619 66.3051 57.001 66.1873 57.0193C62.9795 57.5183 67.0649 67.5366 70.0935 74.1812C72.1373 73.7074 74.0917 73.0002 75.9272 72.0896C76.1655 72.9001 76.4719 73.6814 76.8398 74.427C72.9608 76.3152 68.6042 77.375 64 77.375C47.7766 77.375 34.625 64.2234 34.625 48C34.625 31.7766 47.7766 18.625 64 18.625Z" fill="white"/>
<path d="M69.0864 64.3629C70.8303 62.9164 73.458 61.032 74.1414 61.3487C74.5214 61.5248 75.1634 63.4306 75.5515 65.4175C75.4089 66.2387 75.3345 67.0834 75.3345 67.9454C75.3345 68.6237 75.3808 69.2913 75.47 69.9451C75.3893 70.0191 75.2952 70.0663 75.1865 70.0826C74.5205 70.1826 71.5395 69.5125 69.8457 68.8795C69.8308 68.9301 69.8133 68.9747 69.793 69.0123C69.458 69.632 67.2996 69.9418 65.9688 69.9727C65.0888 69.9931 64.6607 69.7787 64.3948 69.4041C62.7469 70.8028 59.5914 72.831 58.9317 72.4068C57.6682 71.5941 56.4791 65.337 57.4304 64.0142C58.3008 62.8042 61.9033 64.0571 64.0447 64.869C64.3789 64.305 65.1279 63.9779 66.4846 63.742C68.0347 63.4725 68.7219 63.8473 69.0864 64.3629Z" fill="#33A055"/>
<path d="M57.9802 63.7436C58.4015 63.0771 61.817 63.9061 63.6919 64.7405C63.6919 64.7405 63.3065 66.486 63.9199 68.5425C64.0993 69.144 59.6064 71.8212 59.02 71.3606C58.3422 70.8279 57.095 65.1447 57.9802 63.7436Z" fill="#39B25E"/>
<path d="M68.9912 64.1992C70.9051 62.7707 74.0984 60.7549 74.4099 61.1233C75.0846 61.9213 75.5027 63.198 75.7329 64.531C75.4717 65.6266 75.3335 66.77 75.3335 67.9455C75.3335 68.3843 75.3526 68.8186 75.3904 69.2475C74.1316 69.2982 70.5707 68.419 70.5706 67.9028C70.5706 65.3271 69.9023 64.6204 69.2451 64.5481C69.317 64.6762 69.3747 64.8113 69.4238 64.9487C69.6653 65.624 70.0587 67.7723 69.7612 68.303C69.4637 68.8336 67.5316 69.0898 66.3396 69.1103C65.1476 69.1309 64.8791 68.695 64.6377 68.0198C64.4445 67.4795 64.3495 66.2094 64.3518 65.4822C64.3029 64.4035 64.6972 64.0243 66.5188 63.7295C67.8669 63.5113 68.5798 63.765 68.9912 64.1992Z" fill="#39B25E"/>
<path fill-rule="evenodd" clip-rule="evenodd" d="M59.6344 50.2034C59.9108 49.0017 61.1981 46.7373 65.795 46.7923C68.119 46.7826 71.0058 46.7913 72.9197 46.5739C75.7643 46.2508 77.8758 45.5627 79.2828 45.0264C81.2727 44.2672 81.9788 44.4365 82.2264 44.8908C82.4984 45.3899 82.1779 46.2518 81.4826 47.0451C80.1545 48.5606 77.7669 49.7348 73.5502 50.0834C69.3334 50.4319 66.5398 49.3008 65.3373 51.1423C64.8186 51.9366 65.2196 53.8086 69.2975 54.398C74.808 55.1933 79.3336 53.4398 79.8928 54.4988C80.452 55.5579 77.2309 57.7126 71.7115 57.7577C66.1921 57.8028 62.7446 55.8253 61.522 54.8423C59.9709 53.5951 59.2768 51.7762 59.6344 50.2034Z" fill="#FFC542"/>
<g opacity="0.8">
<path d="M66.663 37.0636C66.9709 36.5595 67.6536 36.1704 68.7708 36.1704C69.888 36.1704 70.4136 36.615 70.7775 37.1107C70.8515 37.2116 70.7394 37.3303 70.6245 37.2806C70.5969 37.2687 70.569 37.2565 70.5406 37.2441C70.132 37.0656 69.6303 36.8465 68.7708 36.8343C67.8516 36.8212 67.2719 37.0514 66.9069 37.2498C66.7839 37.3167 66.5901 37.1831 66.663 37.0636Z" fill="#0D3C73"/>
<path d="M54.0849 37.7086C55.1698 37.2552 56.0224 37.3138 56.6251 37.4564C56.752 37.4864 56.8403 37.3499 56.7388 37.268C56.2709 36.8906 55.2239 36.4222 53.8582 36.9314C52.6401 37.3856 52.0659 38.3294 52.0625 38.9499C52.0617 39.0961 52.3626 39.1085 52.4404 38.9847C52.6506 38.6503 53.0001 38.1619 54.0849 37.7086Z" fill="#0D3C73"/>
<path fill-rule="evenodd" clip-rule="evenodd" d="M69.7198 43.96C68.7607 43.96 67.9828 43.1842 67.9828 42.2294C67.9828 41.2745 68.7607 40.4987 69.7198 40.4987C70.6789 40.4987 71.4568 41.2745 71.4568 42.2294C71.4568 43.1842 70.6789 43.96 69.7198 43.96ZM70.9432 41.656C70.9432 41.4088 70.7407 41.2085 70.4934 41.2085C70.2462 41.2085 70.0459 41.4088 70.0437 41.656C70.0437 41.9033 70.2462 42.1036 70.4934 42.1036C70.7428 42.1036 70.9432 41.9033 70.9432 41.656Z" fill="#0D3C73"/>
<path fill-rule="evenodd" clip-rule="evenodd" d="M58.2112 43.4271C58.2112 44.5418 57.3054 45.4454 56.1865 45.4454C55.0697 45.4454 54.1618 44.5418 54.1618 43.4271C54.1618 42.3124 55.0697 41.4087 56.1865 41.4087C57.3033 41.4087 58.2112 42.3124 58.2112 43.4271ZM57.6144 42.7579C57.6144 42.4701 57.38 42.2357 57.0902 42.2357C56.8024 42.2357 56.568 42.468 56.5659 42.7579C56.5659 43.0456 56.8003 43.28 57.0902 43.28C57.38 43.28 57.6144 43.0456 57.6144 42.7579Z" fill="#0D3C73"/>
</g>
<path d="M90 80C96.6274 80 102 74.6274 102 68C102 61.3726 96.6274 56 90 56C83.3726 56 78 61.3726 78 68C78 74.6274 83.3726 80 90 80Z" fill="black"/>
<path fill-rule="evenodd" clip-rule="evenodd" d="M89.9992 61.5889C90.474 61.5901 90.9452 61.771 91.2831 62.1152C91.8361 62.6787 92.3157 62.9714 92.797 63.1206C93.2802 63.2704 93.8655 63.3066 94.6898 63.2017C95.1585 63.142 95.6452 63.26 96.0265 63.5464C96.4112 63.8354 96.6619 64.28 96.6661 64.7781C96.6929 67.9117 96.2365 69.9668 95.2396 71.4575C94.1863 73.0327 92.4963 73.8864 91.045 74.6196C90.9761 74.6545 90.907 74.6895 90.8392 74.7239C90.3175 74.9884 89.6837 74.9884 89.162 74.7239C89.0938 74.6893 89.025 74.6544 88.9557 74.6194C87.5045 73.8862 85.8152 73.0326 84.7618 71.4575C83.765 69.9668 83.3084 67.9118 83.3351 64.7783C83.3393 64.2807 83.5895 63.8365 83.9738 63.5474C84.3546 63.2609 84.8408 63.1426 85.3092 63.2017C86.1382 63.3062 86.7253 63.2636 87.2086 63.1091C87.6891 62.9556 88.1645 62.6604 88.7123 62.1086C89.052 61.7664 89.5242 61.5877 89.9992 61.5889ZM90.0709 64.7993C89.5186 64.7993 89.0709 65.247 89.0709 65.7993V67.1853H87.6852C87.1329 67.1853 86.6852 67.633 86.6852 68.1853C86.6852 68.7376 87.1329 69.1853 87.6852 69.1853H89.0709V70.5713C89.071 71.1236 89.5187 71.5713 90.0709 71.5713C90.6231 71.5712 91.0709 71.1235 91.0709 70.5713V69.1853H92.3168C92.869 69.1852 93.3168 68.7376 93.3168 68.1853C93.3168 67.6331 92.869 67.1854 92.3168 67.1853H91.0709V65.7993C91.0709 65.2471 90.6232 64.7994 90.0709 64.7993Z" fill="white"/>
</svg>
