<svg width="296" height="188" viewBox="0 0 296 188" fill="none" xmlns="http://www.w3.org/2000/svg">
<path d="M93.835 150.127C127.216 150.127 156.525 153.645 173.159 158.943C185.754 157.508 200.999 156.668 217.425 156.668C260.707 156.668 295.794 162.497 295.794 169.687C295.793 176.878 260.706 182.707 217.425 182.707C199.678 182.707 183.309 181.725 170.172 180.073C153.148 184.869 125.3 187.996 93.835 187.996C42.0115 187.996 0 179.519 0 169.061C0.000264959 158.604 42.0116 150.127 93.835 150.127Z" fill="#181817"/>
<path fill-rule="evenodd" clip-rule="evenodd" d="M221.03 78.3721C218.339 74.9323 213.934 73.337 209.664 74.2322C203.317 75.5621 192.608 76.7097 178.371 74.2865L161.939 71.6427C161.939 71.6427 156.266 70.8594 155.835 73.0749C155.405 75.2903 159.41 78.3402 163.416 79.6573C163.416 79.6573 158.055 78.8549 157.516 81.1406C156.977 83.4264 160.53 85.5012 162.619 86.3324L164.705 87.1636C164.705 87.1636 162.743 87.0613 162.494 87.8349C162.23 88.6661 161.962 91.0894 171.064 95.0024C179.299 98.5413 188.267 101.697 211.727 105.258C216.435 105.974 221.065 103.551 223.177 99.2734C226.538 92.4736 225.703 84.3439 221.027 78.3753L221.03 78.3721Z" fill="#F5F5F5"/>
<path d="M216.356 72.4629C216.392 72.4469 216.42 72.4176 216.435 72.3811C216.449 72.3446 216.448 72.304 216.433 72.2681C216.417 72.2322 216.388 72.2039 216.352 72.1894C216.315 72.1748 216.275 72.1753 216.239 72.1903C216.239 72.1903 216.239 72.1903 216.239 72.1903C213.878 73.0872 211.383 73.6723 208.886 74.1447C207.937 74.321 206.978 74.4763 206.017 74.6112C200.657 75.3564 195.188 75.5137 189.793 75.195C186.028 75.0015 182.275 74.4548 178.528 73.9064C173.285 73.1256 168.056 72.1982 162.809 71.3743C162.091 71.2644 161.365 71.18 160.633 71.1414C159.69 71.0933 158.731 71.0857 157.759 71.2713C156.854 71.4328 155.561 71.9654 155.427 73.2253C155.475 75.4253 157.188 76.5512 158.539 77.6121C159.986 78.6343 161.57 79.4424 163.251 80.0028L163.423 79.2774C162.234 79.1076 161.027 79.0315 159.811 79.2419C158.684 79.4232 157.046 80.1138 157.092 81.7061C157.622 84.5063 160.199 85.553 162.267 86.5657C163.005 86.8648 163.736 87.1507 164.463 87.4416C164.501 87.4567 164.521 87.4664 164.588 87.4903L164.696 86.8122C164.282 86.8144 163.843 86.8211 163.394 86.9108C162.971 87.003 162.377 87.1754 162.151 87.7939C162.149 87.7984 162.145 87.8123 162.143 87.817C161.824 89.1052 162.672 90.1615 163.411 90.9005C164.193 91.663 165.079 92.2675 165.984 92.8192C166.437 93.0921 166.903 93.3425 167.381 93.5677C180.171 100.258 194.554 102.551 208.607 104.966C209.757 105.144 210.905 105.318 212.054 105.486C214.58 105.858 217.108 106.207 219.639 106.543C219.678 106.548 219.717 106.538 219.748 106.514C219.78 106.49 219.8 106.455 219.806 106.416C219.811 106.377 219.801 106.338 219.777 106.306C219.753 106.275 219.718 106.254 219.679 106.249C219.679 106.249 219.679 106.249 219.679 106.249C217.152 105.891 214.629 105.521 212.108 105.13C210.961 104.952 209.816 104.77 208.67 104.583C194.621 102.055 180.364 99.6961 167.661 92.9778C167.204 92.7601 166.759 92.5183 166.327 92.2551C164.698 91.2103 162.494 89.7831 162.807 87.9931L162.8 88.0163C162.94 87.5805 163.931 87.4964 164.7 87.5082C165.105 87.5061 165.192 86.9583 164.808 86.8301C164.804 86.8285 164.755 86.809 164.725 86.7964C163.994 86.5005 163.265 86.2122 162.541 85.9161C160.548 85.0015 158.126 83.6934 157.82 81.6828C157.759 80.7202 158.879 80.1376 159.941 79.9694C161.029 79.7828 162.177 79.8509 163.313 80.0176C163.754 80.0827 163.908 79.4317 163.485 79.2922C160.495 78.1862 156.661 76.2662 156.193 73.3115C156.252 72.5921 157.061 72.1887 157.909 72.0322C158.766 71.8685 159.683 71.871 160.591 71.9197C161.291 71.9576 161.991 72.0396 162.69 72.1473C167.92 72.9749 173.155 73.9068 178.411 74.6895C182.171 75.2393 185.93 75.7743 189.754 75.942C195.215 76.2214 200.689 75.9918 206.099 75.1373C207.062 74.9838 208.025 74.8084 208.978 74.6108C211.488 74.0813 213.972 73.4401 216.356 72.4629Z" fill="#686868"/>
<path d="M164.75 87.019C164.715 87.0201 164.68 87.0275 164.649 87.0455C164.619 87.0634 164.597 87.0901 164.586 87.1218C164.576 87.1534 164.578 87.1883 164.592 87.2206C164.606 87.253 164.631 87.2799 164.659 87.3014C164.659 87.3014 164.659 87.3014 164.659 87.3014C164.737 87.3615 164.817 87.4183 164.897 87.4716C165.221 87.685 165.566 87.8438 165.926 87.9461C167.189 88.3043 168.495 88.5216 169.808 88.574C169.902 88.5777 169.996 88.5807 170.09 88.5828C170.127 88.5836 170.164 88.5724 170.194 88.5489C170.224 88.5255 170.244 88.492 170.249 88.4553C170.254 88.4185 170.244 88.3809 170.222 88.3502C170.2 88.3194 170.167 88.2983 170.131 88.2888C170.041 88.265 169.952 88.2412 169.862 88.2173C168.609 87.883 167.377 87.5343 166.142 87.1843C165.79 87.0843 165.424 87.0295 165.041 87.0188C164.945 87.0161 164.848 87.0162 164.75 87.019Z" fill="#686868"/>
<path d="M163.462 79.5129C163.426 79.5097 163.389 79.5154 163.357 79.5333C163.325 79.5511 163.301 79.5792 163.29 79.6126C163.279 79.6461 163.282 79.6829 163.297 79.7162C163.312 79.7495 163.339 79.7762 163.37 79.7949C163.37 79.7949 163.37 79.7949 163.37 79.7949C163.495 79.8709 163.621 79.9432 163.75 80.0122C164.261 80.2879 164.793 80.5083 165.343 80.6703C167.267 81.2344 169.254 81.6495 171.269 81.7466C171.413 81.7533 171.557 81.7583 171.7 81.7613C171.738 81.7621 171.776 81.7497 171.805 81.7249C171.834 81.7001 171.853 81.6653 171.857 81.6276C171.86 81.5899 171.849 81.5521 171.825 81.522C171.801 81.492 171.766 81.4725 171.729 81.4659C171.729 81.4659 171.729 81.4659 171.729 81.4659C171.59 81.4411 171.45 81.4152 171.311 81.3884C169.365 81.0097 167.467 80.4675 165.567 79.9107C165.024 79.7509 164.468 79.6338 163.895 79.5601C163.752 79.5415 163.608 79.526 163.462 79.5129Z" fill="#686868"/>
<path d="M209.648 132.361L211.504 158.09C204.963 156.865 197.158 156.811 190.863 158.189L190.423 158.288C189.405 158.524 188.461 158.79 187.6 159.084C187.3 159.183 187.01 159.288 186.729 159.397C186.388 159.528 186.111 159.678 185.9 159.845C185.693 160.011 185.543 160.203 185.482 160.417C185.355 160.874 185.661 161.286 186.213 161.606C186.232 161.616 186.273 161.641 186.309 161.661C186.56 161.795 186.857 161.913 187.179 162.015C187.243 162.035 187.307 162.054 187.377 162.073C187.807 162.21 188.197 162.367 188.528 162.543C189.01 162.799 189.31 163.067 189.463 163.323C189.609 163.569 189.622 163.809 189.514 164.045C189.485 164.116 189.428 164.192 189.348 164.276L189.252 164.381C189.223 164.416 189.198 164.455 189.176 164.493C189 164.774 188.981 165.088 189.131 165.388C189.275 165.676 189.571 165.941 189.992 166.171C190.844 166.638 192.119 166.919 193.446 166.999C193.625 167.012 193.803 167.022 193.991 167.022C194.253 167.025 194.515 167.038 194.773 167.06C196.409 167.198 197.927 167.565 198.976 168.121C199.267 168.275 199.503 168.438 199.688 168.601C199.802 168.703 199.901 168.806 199.975 168.901L199.987 168.917L200.003 168.93C200.153 169.055 200.332 169.167 200.533 169.279L200.542 169.285C200.603 169.314 200.692 169.359 200.769 169.394C202.169 170.049 204.433 170.279 206.344 170.008C206.678 169.96 207.01 169.909 207.339 169.854V169.861L207.546 169.825C208.889 169.598 210.174 169.314 211.373 168.972C213.347 168.409 214.939 167.741 216.141 166.999C217.343 166.261 218.169 165.442 218.606 164.579C219.046 163.71 219.081 162.802 218.718 161.913C218.609 161.651 218.469 161.389 218.294 161.133L216.157 131.485L209.657 132.361H209.648Z" fill="#FAB341"/>
<path d="M230.923 133.112L234.02 159.579C231.035 160.206 228.42 161.197 226.401 162.45C223.706 164.119 222.038 166.274 222.019 168.659C222.012 169.346 222.146 170.017 222.405 170.663C222.481 170.852 222.567 171.05 222.669 171.242C222.925 171.724 223.454 172.121 224.127 172.399C224.806 172.68 225.648 172.85 226.554 172.866H226.701C227.093 172.866 227.469 172.84 227.83 172.789H227.833C227.906 172.776 227.976 172.767 228.047 172.754C228.528 172.69 229.032 172.655 229.549 172.655C231.051 172.655 232.406 172.952 233.392 173.431C233.545 173.505 233.685 173.595 233.819 173.681C233.912 173.742 234.014 173.806 234.125 173.866C234.913 174.295 236.02 174.557 237.251 174.557C238.482 174.557 239.601 174.295 240.392 173.863C240.497 173.802 240.596 173.745 240.692 173.681C240.82 173.591 240.96 173.505 241.11 173.435C242.105 172.955 243.47 172.648 244.975 172.648C245.39 172.648 245.795 172.671 246.181 172.715C246.42 172.744 246.659 172.779 246.886 172.821H246.892H246.898C247.163 172.843 247.434 172.859 247.715 172.859C247.766 172.859 247.817 172.859 247.865 172.859C247.913 172.859 247.96 172.859 248.005 172.859H248.011C248.892 172.827 249.705 172.651 250.359 172.373C251.009 172.095 251.523 171.708 251.775 171.238C251.877 171.053 251.966 170.861 252.046 170.673C252.282 170.104 252.419 169.518 252.454 168.914L252.46 168.655C252.48 166.27 250.84 164.116 248.168 162.447C246.149 161.184 243.524 160.187 240.52 159.563L237.305 132.236L230.901 133.109L230.923 133.112Z" fill="#FAB341"/>
<path d="M189.804 160.788C188.732 160.407 187.658 159.41 189.389 158.687C188.653 158.79 187.166 159.24 186.171 159.822C184.928 160.548 185.792 161.552 186.863 161.967C187.935 162.383 189.536 162.684 189.625 163.595C189.695 164.314 188.79 164.912 189.032 165.327C189.274 165.743 190.477 166.974 193.216 167.092C196.38 167.226 197.981 167.715 199.018 168.268C200.054 168.822 201.824 170.215 204.073 170.02C205.517 169.896 205.805 168.221 204.232 168.022C201.805 167.719 200.756 166.555 199.662 166.101C197.614 165.251 196.329 165.062 193.947 164.784C191.564 164.506 191.874 163.745 192.311 162.773C192.735 161.83 190.914 161.184 189.839 160.801L189.801 160.788H189.804Z" fill="#FFC95C"/>
<path d="M224.845 169.013C223.668 167.699 224.29 163.786 226.318 162.546C222.469 164.905 222.105 167.182 222.121 169.407C222.137 171.724 224.022 172.389 225.291 172.683C226.56 172.978 228.917 172.373 230.773 172.667C232.63 172.962 234.709 174.397 236.291 174.454C239.892 174.586 240.485 173.719 241.709 173.179C242.931 172.639 245.288 172.619 247.342 172.814C249.396 173.009 249.364 170.967 248.624 170.452C247.632 169.761 244.034 169.272 242.277 170.059C240.517 170.842 237.994 171.616 235.985 171.053C234.827 170.727 233.255 169.899 230.014 169.899C226.921 169.899 226.056 170.362 224.848 169.013H224.845Z" fill="#FFC95C"/>
<path d="M209.796 132.35C209.697 132.357 209.598 132.365 209.5 132.372C209.625 134.571 209.754 136.769 209.886 138.968C210.27 145.353 210.681 151.736 211.121 158.117L211.574 157.712C209.185 157.258 206.766 156.981 204.34 156.851C199.81 156.621 195.236 156.844 190.779 157.806C190.63 157.84 190.483 157.873 190.337 157.906C189.372 158.132 188.415 158.394 187.475 158.716C187.178 158.814 186.882 158.922 186.589 159.035C186.274 159.158 185.957 159.309 185.66 159.541C185.436 159.722 185.211 159.965 185.111 160.312C184.997 160.673 185.124 161.104 185.329 161.358C185.531 161.623 185.776 161.796 186.02 161.939C186.024 161.941 186.036 161.948 186.04 161.95C186.034 161.946 186.084 161.976 186.124 161.998C186.435 162.163 186.749 162.281 187.063 162.381C187.134 162.402 187.204 162.423 187.276 162.443L187.26 162.438C187.64 162.559 188.011 162.702 188.349 162.88C188.678 163.054 188.992 163.279 189.136 163.518C189.22 163.666 189.226 163.752 189.169 163.887C189.167 163.89 189.164 163.899 189.162 163.902C189.165 163.901 189.125 163.962 189.074 164.013C189.073 164.015 189.068 164.019 189.067 164.021C189.035 164.056 189.003 164.091 188.971 164.127C188.969 164.129 188.961 164.138 188.959 164.141C188.914 164.196 188.879 164.25 188.848 164.302L188.854 164.293C188.618 164.641 188.588 165.184 188.793 165.557C189.045 166.034 189.438 166.291 189.812 166.501C190.969 167.103 192.202 167.285 193.424 167.369C193.606 167.382 193.797 167.392 193.991 167.391C194.239 167.394 194.49 167.406 194.741 167.427C196.152 167.55 197.588 167.816 198.807 168.44C199.042 168.563 199.263 168.706 199.45 168.87C199.541 168.951 199.628 169.038 199.69 169.119C199.699 169.13 199.703 169.136 199.708 169.141C199.718 169.154 199.751 169.187 199.763 169.197C199.769 169.201 199.774 169.205 199.779 169.21C199.967 169.364 200.165 169.482 200.359 169.59L200.334 169.575C200.338 169.577 200.341 169.58 200.344 169.582C200.353 169.588 200.38 169.603 200.389 169.607C200.459 169.64 200.536 169.679 200.62 169.718C202.478 170.511 204.46 170.593 206.392 170.348C206.727 170.3 207.061 170.247 207.394 170.191L206.997 169.854C206.997 169.856 206.997 169.858 206.997 169.861C206.996 170.087 207.173 170.235 207.396 170.197C207.465 170.186 207.534 170.174 207.603 170.162C208.902 169.939 210.193 169.656 211.464 169.291C213.136 168.804 214.795 168.199 216.308 167.27C217.317 166.639 218.301 165.848 218.881 164.718C219.345 163.837 219.393 162.714 218.995 161.8C218.872 161.505 218.718 161.226 218.538 160.965L218.589 161.112C217.847 151.244 217.097 141.377 216.34 131.511C216.339 131.498 216.338 131.485 216.337 131.472C216.329 131.364 216.24 131.293 216.133 131.306C213.968 131.609 211.802 131.911 209.637 132.214L209.657 132.212C209.654 132.213 209.651 132.213 209.648 132.213C209.648 132.312 209.648 132.41 209.648 132.509C209.651 132.509 209.654 132.509 209.657 132.509C209.661 132.509 209.673 132.509 209.677 132.508C211.845 132.227 214.013 131.945 216.181 131.664L215.977 131.498C215.978 131.511 215.979 131.524 215.98 131.537C216.645 141.41 217.318 151.282 217.998 161.154C218.001 161.19 218.029 161.272 218.049 161.301C218.205 161.529 218.337 161.773 218.441 162.027C218.769 162.808 218.726 163.691 218.332 164.44C217.836 165.4 216.934 166.14 215.975 166.729C214.538 167.601 212.92 168.186 211.282 168.653C210.038 169.004 208.768 169.275 207.489 169.489C207.42 169.501 207.351 169.512 207.281 169.524L207.68 169.861C207.68 169.858 207.68 169.856 207.68 169.854C207.68 169.629 207.505 169.48 207.283 169.517C206.954 169.571 206.625 169.621 206.295 169.667C204.493 169.896 202.545 169.782 200.92 169.071C200.849 169.038 200.777 169.002 200.695 168.963L200.74 168.989C200.737 168.986 200.734 168.984 200.731 168.982C200.726 168.979 200.711 168.97 200.706 168.967C200.531 168.869 200.366 168.767 200.232 168.655C200.222 168.647 200.217 168.642 200.211 168.638L200.267 168.694C200.263 168.689 200.259 168.683 200.254 168.678C200.152 168.545 200.041 168.436 199.926 168.333C199.681 168.117 199.417 167.948 199.145 167.803C197.767 167.096 196.28 166.831 194.804 166.693C194.535 166.669 194.266 166.656 193.996 166.652C193.822 166.652 193.65 166.643 193.473 166.63C192.321 166.552 191.137 166.352 190.173 165.842C189.864 165.674 189.582 165.45 189.469 165.22C189.379 165.035 189.388 164.87 189.497 164.693C189.498 164.691 189.502 164.685 189.503 164.683C189.518 164.658 189.533 164.636 189.546 164.621L189.533 164.636C189.565 164.601 189.597 164.565 189.629 164.53L189.621 164.538C189.701 164.451 189.788 164.365 189.865 164.189L189.859 164.204C190.027 163.882 189.975 163.406 189.79 163.128C189.496 162.663 189.095 162.42 188.707 162.206C188.311 161.996 187.904 161.84 187.494 161.708C187.49 161.707 187.481 161.704 187.478 161.703C187.417 161.686 187.355 161.668 187.29 161.648C187.012 161.559 186.736 161.453 186.489 161.321C186.468 161.31 186.456 161.3 186.385 161.262L186.406 161.273C186.017 161.055 185.767 160.743 185.855 160.521C185.886 160.403 185.992 160.265 186.142 160.147C186.341 159.991 186.598 159.863 186.869 159.759C187.152 159.65 187.436 159.547 187.722 159.453C188.636 159.142 189.569 158.887 190.511 158.669C190.655 158.636 190.802 158.603 190.949 158.57C195.31 157.634 199.829 157.414 204.298 157.642C206.692 157.77 209.079 158.035 211.433 158.467C211.703 158.517 211.907 158.335 211.887 158.062C211.406 151.684 210.897 145.308 210.36 138.934C210.175 136.739 209.987 134.545 209.796 132.35ZM209.5 132.372L209.796 132.35L209.648 132.509V132.213C209.558 132.212 209.494 132.282 209.5 132.372Z" fill="#686868"/>
<path d="M231.071 133.095C230.972 133.107 230.874 133.118 230.776 133.13C230.993 135.27 231.213 137.409 231.437 139.549C232.137 146.244 232.87 152.936 233.634 159.624L233.94 159.199C232.086 159.584 230.257 160.128 228.513 160.898C227.716 161.251 226.937 161.652 226.192 162.114C223.949 163.501 221.661 165.695 221.626 168.655C221.618 169.393 221.768 170.131 222.041 170.808C222.124 171.013 222.215 171.22 222.324 171.425C222.71 172.124 223.356 172.495 223.978 172.759C224.806 173.097 225.679 173.237 226.547 173.253C226.603 173.253 226.652 173.253 226.701 173.253C227.094 173.253 227.49 173.228 227.884 173.172L227.83 173.175C227.831 173.175 227.832 173.175 227.833 173.175C227.846 173.175 227.886 173.172 227.899 173.17C227.962 173.159 228.033 173.149 228.116 173.134L228.097 173.137C228.578 173.072 229.063 173.04 229.549 173.039C230.817 173.042 232.111 173.243 233.226 173.773C233.35 173.833 233.476 173.911 233.614 174C233.716 174.067 233.827 174.136 233.944 174.199C234.987 174.749 236.13 174.926 237.251 174.931C238.378 174.922 239.524 174.743 240.569 174.187C240.678 174.124 240.787 174.061 240.897 173.987C241.023 173.899 241.144 173.825 241.266 173.768C242.397 173.23 243.697 173.015 244.975 173.009C245.365 173.008 245.755 173.027 246.14 173.071C246.368 173.098 246.596 173.131 246.821 173.172C246.834 173.174 246.872 173.177 246.886 173.177C246.888 173.177 246.89 173.177 246.892 173.177C246.894 173.177 246.896 173.177 246.898 173.177L246.868 173.176C247.146 173.199 247.429 173.215 247.715 173.214C247.765 173.214 247.815 173.214 247.865 173.214C247.911 173.214 247.958 173.214 248.005 173.213C248.007 173.213 248.009 173.213 248.011 173.213C248.014 173.213 248.022 173.213 248.024 173.213C248.862 173.179 249.702 173.03 250.495 172.694C251.093 172.43 251.709 172.066 252.079 171.401C252.185 171.208 252.278 171.007 252.362 170.806C252.608 170.213 252.758 169.576 252.792 168.934C252.793 168.932 252.793 168.925 252.793 168.923C252.795 168.836 252.797 168.75 252.799 168.664C252.807 165.741 250.557 163.551 248.336 162.178C245.953 160.711 243.281 159.836 240.579 159.278L240.81 159.529C239.708 150.424 238.599 141.319 237.484 132.215C237.473 132.112 237.384 132.044 237.281 132.057C237.27 132.059 237.259 132.061 237.248 132.062C235.125 132.362 233.003 132.662 230.881 132.962C230.708 132.985 230.707 133.231 230.88 133.256C230.887 133.257 230.895 133.258 230.902 133.259C230.916 133.161 230.93 133.063 230.944 132.965C230.937 132.964 230.929 132.963 230.922 132.962L230.921 133.256C233.046 132.978 235.171 132.699 237.296 132.42C237.307 132.418 237.318 132.417 237.329 132.415L237.126 132.257C238.154 141.372 239.189 150.485 240.23 159.597C240.244 159.712 240.348 159.826 240.461 159.849C243.109 160.414 245.719 161.292 247.999 162.716C250.142 164.05 252.158 166.124 252.122 168.653C252.12 168.733 252.118 168.82 252.115 168.906L252.116 168.895C252.082 169.46 251.949 170.016 251.729 170.541C251.651 170.723 251.567 170.902 251.473 171.072C251.238 171.504 250.743 171.831 250.222 172.052C249.533 172.341 248.764 172.478 247.999 172.505L248.011 172.505C248.009 172.505 248.007 172.505 248.005 172.505C247.958 172.505 247.911 172.505 247.865 172.505C247.815 172.505 247.765 172.505 247.715 172.504C247.455 172.504 247.194 172.489 246.928 172.466C246.922 172.465 246.904 172.464 246.898 172.464C246.896 172.464 246.894 172.464 246.892 172.464C246.89 172.464 246.888 172.464 246.886 172.464L246.95 172.47C246.707 172.425 246.466 172.39 246.224 172.36C245.807 172.311 245.391 172.289 244.975 172.288C243.609 172.291 242.227 172.505 240.95 173.104C240.783 173.182 240.626 173.277 240.48 173.379C240.403 173.431 240.309 173.485 240.208 173.543C239.341 174.004 238.282 174.181 237.251 174.183C236.225 174.178 235.174 173.998 234.306 173.533C234.214 173.483 234.122 173.426 234.027 173.364C233.885 173.272 233.731 173.173 233.556 173.089C232.286 172.484 230.908 172.278 229.549 172.27C229.03 172.269 228.511 172.303 227.996 172.371C227.992 172.371 227.981 172.373 227.977 172.374C227.918 172.385 227.846 172.394 227.766 172.408L227.833 172.402C227.832 172.402 227.831 172.402 227.83 172.402C227.819 172.402 227.786 172.405 227.775 172.406C227.422 172.456 227.062 172.478 226.701 172.478C226.652 172.478 226.603 172.478 226.554 172.478C225.774 172.462 224.983 172.33 224.276 172.039C223.744 171.819 223.241 171.485 223.015 171.059C222.925 170.888 222.845 170.706 222.768 170.516C222.531 169.925 222.405 169.294 222.412 168.662C222.427 166.151 224.456 164.11 226.609 162.787C227.318 162.347 228.065 161.962 228.833 161.622C230.514 160.88 232.292 160.345 234.1 159.959C234.296 159.918 234.43 159.733 234.406 159.534C233.606 152.85 232.773 146.17 231.909 139.494C231.633 137.36 231.353 135.227 231.071 133.095ZM230.776 133.13L231.071 133.095C231.062 133.032 231.007 132.974 230.944 132.965L230.902 133.259L230.776 133.13Z" fill="#686868"/>
<path d="M211.656 157.724C211.567 157.665 211.465 157.648 211.368 157.688C211.271 157.728 211.187 157.821 211.138 157.937C211.09 158.053 211.083 158.179 211.123 158.276C211.163 158.373 211.247 158.434 211.351 158.455C211.351 158.455 211.351 158.455 211.351 158.455C211.37 158.458 211.392 158.463 211.413 158.468C211.79 158.548 212.172 158.631 212.532 158.739C212.551 158.745 212.571 158.752 212.589 158.758C212.621 158.769 212.658 158.766 212.692 158.754C212.726 158.742 212.753 158.721 212.77 158.692C212.787 158.664 212.792 158.629 212.787 158.594C212.781 158.558 212.765 158.524 212.74 158.502C212.74 158.502 212.74 158.502 212.74 158.502C212.723 158.487 212.705 158.472 212.687 158.458C212.367 158.203 212.043 157.984 211.712 157.761C211.693 157.749 211.675 157.736 211.656 157.724Z" fill="#686868"/>
<path d="M233.984 159.185C233.879 159.182 233.781 159.221 233.714 159.302C233.647 159.383 233.615 159.498 233.626 159.615C233.636 159.732 233.688 159.84 233.769 159.907C233.849 159.974 233.952 159.996 234.056 159.974C234.056 159.974 234.056 159.974 234.056 159.974C234.086 159.967 234.122 159.96 234.155 159.953C234.761 159.829 235.373 159.712 235.984 159.634C236.017 159.63 236.052 159.626 236.085 159.622C236.12 159.618 236.154 159.6 236.179 159.572C236.204 159.544 236.218 159.511 236.218 159.475C236.219 159.44 236.205 159.406 236.181 159.378C236.157 159.35 236.123 159.33 236.088 159.325C236.088 159.325 236.088 159.325 236.088 159.325C236.054 159.321 236.018 159.317 235.983 159.312C235.351 159.242 234.723 159.211 234.09 159.188C234.055 159.187 234.019 159.186 233.984 159.185Z" fill="#686868"/>
<path d="M220.089 137.725C217.375 139.394 214.087 139.644 211.029 138.425C207.97 137.207 205.801 134.723 204.892 131.571C204.892 131.571 209.686 134.461 212.492 135.529C215.608 136.715 220.093 137.729 220.093 137.729L220.089 137.725Z" fill="#F5F5F5"/>
<path d="M220.167 137.852C220.115 137.768 220.063 137.683 220.012 137.599C219.498 137.876 218.965 138.109 218.418 138.294C216.228 139.043 213.839 138.987 211.686 138.246C211.514 138.188 211.344 138.125 211.175 138.058C208.308 136.952 206.085 134.436 205.239 131.472L204.706 131.88C207.191 133.315 209.688 134.733 212.395 135.785C214.342 136.488 216.33 137.009 218.331 137.486C218.907 137.622 219.48 137.752 220.06 137.873C220.218 137.91 220.311 137.739 220.198 137.624C220.197 137.623 220.195 137.622 220.194 137.621C220.124 137.69 220.054 137.76 219.984 137.83C219.985 137.831 219.986 137.832 219.987 137.833L220.125 137.584C219.556 137.442 218.988 137.291 218.42 137.137C216.446 136.593 214.481 136.012 212.59 135.273C209.994 134.187 207.513 132.716 205.078 131.263C204.764 131.075 204.443 131.319 204.546 131.671C205.396 134.839 207.792 137.604 210.882 138.793C211.064 138.865 211.246 138.933 211.43 138.996C213.744 139.797 216.373 139.73 218.591 138.736C219.145 138.492 219.673 138.194 220.167 137.852ZM220.012 137.599L220.167 137.852L219.984 137.83L220.194 137.621C220.149 137.574 220.069 137.568 220.012 137.599Z" fill="#686868"/>
<path d="M243.693 136.021C241.368 139.129 239.011 140.746 235.066 141.175C231.14 141.6 228.27 140.264 225.492 137.78C225.492 137.78 232.764 138.183 235.213 138C237.662 137.818 243.69 136.021 243.69 136.021H243.693Z" fill="white"/>
<path d="M243.812 136.11C243.733 136.051 243.654 135.992 243.574 135.932C243.156 136.436 242.724 136.921 242.267 137.378C240.466 139.248 238.107 140.395 235.565 140.713C235.384 140.739 235.207 140.761 235.023 140.781C231.609 141.253 228.259 139.851 225.733 137.511L225.472 138.14C228.72 138.273 231.951 138.447 235.233 138.273C237.527 137.997 239.677 137.347 241.851 136.732C242.478 136.549 243.113 136.358 243.732 136.164L243.69 136.17C243.691 136.17 243.692 136.17 243.693 136.17C243.693 136.071 243.693 135.972 243.693 135.873C243.692 135.873 243.691 135.873 243.69 135.873C243.681 135.873 243.656 135.876 243.648 135.879C243.026 136.051 242.385 136.222 241.755 136.385C239.581 136.928 237.377 137.52 235.193 137.728C232 137.823 228.736 137.592 225.512 137.419C225.133 137.399 224.968 137.797 225.251 138.049C227.8 140.497 231.495 142.083 235.109 141.568C235.301 141.547 235.487 141.524 235.677 141.497C238.349 141.177 240.938 139.774 242.616 137.7C243.049 137.192 243.442 136.66 243.812 136.11ZM243.574 135.932L243.812 136.11C243.889 135.996 243.831 135.871 243.693 135.873V136.17L243.574 135.932Z" fill="#686868"/>
<path d="M225.591 137.669C225.561 137.647 225.523 137.635 225.485 137.637C225.447 137.64 225.411 137.657 225.386 137.685C225.361 137.713 225.348 137.75 225.35 137.788C225.351 137.827 225.367 137.863 225.393 137.89C225.393 137.89 225.393 137.89 225.393 137.89C225.633 138.149 225.881 138.4 226.139 138.642C227.169 139.609 228.374 140.436 229.73 140.947C231.44 141.602 233.316 141.76 235.106 141.54C238.292 141.268 241.338 139.508 243.186 136.958C243.402 136.681 243.61 136.399 243.812 136.11C243.834 136.079 243.844 136.039 243.838 136.001C243.832 135.962 243.812 135.928 243.781 135.904C243.75 135.881 243.711 135.871 243.672 135.877C243.634 135.882 243.599 135.902 243.574 135.932C243.574 135.932 243.574 135.932 243.574 135.932C243.357 136.204 243.136 136.469 242.908 136.728C240.925 139.121 238.085 140.597 235.026 140.809C233.32 140.981 231.595 140.812 230.01 140.206C228.754 139.733 227.574 139.053 226.437 138.272C226.153 138.077 225.871 137.876 225.591 137.669Z" fill="#686868"/>
<path d="M220.167 137.852C220.197 137.829 220.219 137.796 220.227 137.759C220.235 137.722 220.229 137.683 220.209 137.652C220.19 137.62 220.158 137.597 220.121 137.587C220.084 137.578 220.045 137.583 220.012 137.599C219.729 137.734 219.443 137.858 219.155 137.97C218 138.419 216.803 138.684 215.592 138.768C214.094 138.874 212.575 138.626 211.165 138.083C208.573 137.109 206.434 135.016 205.361 132.406C205.241 132.12 205.132 131.827 205.035 131.53C205.023 131.493 204.998 131.462 204.963 131.444C204.929 131.425 204.889 131.42 204.852 131.431C204.815 131.442 204.783 131.467 204.764 131.501C204.745 131.535 204.74 131.575 204.75 131.612C204.75 131.612 204.75 131.612 204.75 131.612C204.828 131.923 204.919 132.231 205.024 132.535C205.948 135.296 208.134 137.665 210.892 138.768C212.384 139.384 214.024 139.673 215.647 139.558C216.959 139.468 218.249 139.063 219.364 138.396C219.643 138.23 219.911 138.048 220.167 137.852Z" fill="#686868"/>
<path fill-rule="evenodd" clip-rule="evenodd" d="M199.908 26.7964C199.726 24.095 199.726 22.4997 200.223 19.76C200.721 17.0203 201.604 14.3956 203.135 12.0747C205.154 9.00885 208.05 6.85734 211.545 5.75441C211.612 5.76081 218.504 -1.71992 228.015 0.610611C228.356 0.693731 228.499 1.12211 228.263 1.38426C227.826 1.87338 226.841 2.25381 226.111 2.50957C227.221 3.18091 228.031 3.83947 228.41 4.47885C228.579 4.76338 228.42 5.12782 228.104 5.22053C227.817 5.30685 227.262 5.22692 226.646 5.22692C225.211 5.22692 223.572 4.76338 221.011 6.53765C221.011 6.53765 227.205 8.2384 230.362 13.136C233.519 18.0337 233.006 25.7702 232.454 28.4396C231.899 31.109 226.822 50.3798 226.602 51.1855C226.382 51.9911 224.022 60.14 224.937 64.1137C225.852 68.0906 226.796 71.6488 230.375 76.182C233.953 80.7152 241.247 85.0534 243.827 86.2202C246.382 87.3775 248.528 88.9695 258.316 90.4593C258.498 90.4881 258.68 90.4145 258.791 90.2675C259.608 89.1837 262.975 84.6601 264.13 82.368C264.216 82.1953 264.452 82.1666 264.573 82.3168C265.189 83.0841 266.554 85.6 266.075 91.5622C266.075 91.5622 268.343 89.0527 269.392 87.6236C269.612 87.3231 270.081 87.4063 270.183 87.7675C270.745 89.7879 271.453 95.6926 269.045 104.407C265.91 115.753 260.086 123.483 256.422 127.598C252.76 131.712 248.432 134.995 240.332 137.386C232.231 139.778 219.777 138.192 215.143 137.137C210.512 136.079 203.186 134.33 197.445 126.904C191.705 119.481 190.311 112.326 190.809 105.875C190.809 105.875 190.86 104.577 191 102.866C191.622 95.2898 193.357 90.1012 195.286 84.334C197.972 76.3098 203.291 62.9085 203.68 61.6361C204.07 60.3637 207.903 49.7948 207.948 47.2757C207.97 45.9809 208.79 43.9829 208.123 42.167C207.071 39.2994 206.513 39.5743 206.513 39.5743C206.513 39.5743 214.467 38.9861 215.883 34.2899C217.299 29.5936 211.344 29.5936 211.344 29.5936L200.121 29.2516L199.908 26.7964Z" fill="white"/>
<path fill-rule="evenodd" clip-rule="evenodd" d="M199.908 26.7964C199.726 24.095 199.726 22.4997 200.223 19.76C200.721 17.0203 201.604 14.3956 203.135 12.0747C205.154 9.00885 208.05 6.85734 211.545 5.75441C211.612 5.76081 218.504 -1.71992 228.015 0.610611C228.356 0.693731 228.499 1.12211 228.263 1.38426C227.826 1.87338 226.841 2.25381 226.111 2.50957C227.221 3.18091 228.031 3.83947 228.41 4.47885C228.579 4.76338 228.42 5.12782 228.104 5.22053C227.817 5.30685 227.262 5.22692 226.646 5.22692C225.211 5.22692 223.572 4.76338 221.011 6.53765C221.011 6.53765 227.205 8.2384 230.362 13.136C233.519 18.0337 233.006 25.7702 232.454 28.4396C231.899 31.109 226.822 50.3798 226.602 51.1855C226.382 51.9911 224.022 60.14 224.937 64.1137C225.852 68.0906 226.796 71.6488 230.375 76.182C233.953 80.7152 241.247 85.0534 243.827 86.2202C246.382 87.3775 248.528 88.9695 258.316 90.4593C258.498 90.4881 258.68 90.4145 258.791 90.2675C259.608 89.1837 262.975 84.6601 264.13 82.368C264.216 82.1953 264.452 82.1666 264.573 82.3168C265.189 83.0841 266.554 85.6 266.075 91.5622C266.075 91.5622 268.343 89.0527 269.392 87.6236C269.612 87.3231 270.081 87.4063 270.183 87.7675C270.745 89.7879 271.453 95.6926 269.045 104.407C265.91 115.753 260.086 123.483 256.422 127.598C252.76 131.712 248.432 134.995 240.332 137.386C232.231 139.778 219.777 138.192 215.143 137.137C210.512 136.079 203.186 134.33 197.445 126.904C191.705 119.481 190.311 112.326 190.809 105.875C190.809 105.875 190.86 104.577 191 102.866C191.622 95.2898 193.357 90.1012 195.286 84.334C197.972 76.3098 203.291 62.9085 203.68 61.6361C204.07 60.3637 207.903 49.7948 207.948 47.2757C207.97 45.9809 208.79 43.9829 208.123 42.167C207.071 39.2994 206.513 39.5743 206.513 39.5743C206.513 39.5743 214.467 38.9861 215.883 34.2899C217.299 29.5936 211.344 29.5936 211.344 29.5936L200.121 29.2516L199.908 26.7964Z" fill="url(#paint0_linear_1723_38187)"/>
<path fill-rule="evenodd" clip-rule="evenodd" d="M208.13 46.307C208.13 46.307 209.316 42.8256 207.192 40.7348C205.766 39.3314 216.106 38.5226 216.106 38.5226C216.106 38.5226 212.958 46.4701 208.126 46.307H208.13Z" fill="#F5F5F5"/>
<path fill-rule="evenodd" clip-rule="evenodd" d="M192.811 118.16L217.544 110.83C209.82 108.64 200.737 107.94 190.716 108.279C190.716 108.279 191.051 113.643 192.811 118.16Z" fill="#F5F5F5"/>
<path fill-rule="evenodd" clip-rule="evenodd" d="M228.426 4.92003C228.426 4.92003 226.64 3.66045 223.607 3.83948C220.574 4.0185 217.968 6.22116 217.968 6.22116C217.968 6.22116 220.064 6.03574 221.139 6.45453C221.139 6.45453 221.942 5.71605 223.295 5.33882C224.86 4.90404 227.077 5.12782 227.077 5.12782C227.077 5.12782 227.721 5.20455 227.948 5.14381C228.174 5.08307 228.429 4.91683 228.429 4.91683L228.426 4.92003Z" fill="#F5F5F5"/>
<path d="M232.636 138.823C232.704 138.819 232.768 138.788 232.813 138.736C232.858 138.685 232.881 138.618 232.877 138.55C232.873 138.482 232.842 138.419 232.79 138.373C232.739 138.328 232.672 138.305 232.604 138.309C232.604 138.309 232.604 138.309 232.604 138.309C229.903 138.469 227.188 138.411 224.487 138.204C221.648 137.983 218.816 137.607 216.031 137.035C215.759 136.978 215.476 136.917 215.207 136.855C208.418 135.518 201.859 132.296 197.71 126.7C194.222 122.206 191.891 116.799 191.309 111.145C190.875 106.57 191.354 101.87 192.1 97.3135C192.83 92.9251 194.235 88.698 195.662 84.4594C195.717 84.2962 195.772 84.1304 195.829 83.9625C198.378 76.4973 201.295 69.198 204.059 61.7519C205.959 55.3497 209.229 49.2092 208.457 41.958C207.92 41.0937 207.383 40.2295 206.846 39.3653L206.539 39.9695C210.209 39.4958 214.77 38.502 216.259 34.4043C216.709 33.1235 216.533 31.3093 215.285 30.4074C214.111 29.5106 212.719 29.2542 211.341 29.1973L211.353 29.1975C207.612 29.0835 203.871 28.9694 200.13 28.8554L200.513 29.2172C200.442 28.3988 200.371 27.5804 200.299 26.762C200.114 24.4229 200.157 22.1281 200.61 19.8308C201.093 17.1583 201.977 14.544 203.463 12.2926C205.368 9.36128 208.321 7.16482 211.662 6.13249L211.505 6.14907C216.357 1.84096 222.054 -0.470927 227.917 0.995704C227.968 0.997995 227.998 1.10317 227.966 1.11898C227.529 1.57051 226.716 1.87138 225.977 2.13536C225.62 2.26036 225.579 2.65306 225.902 2.84882C226.739 3.36339 227.606 3.94604 228.066 4.68123C228.1 4.72356 228.064 4.8214 227.989 4.8401C227.725 4.90125 227.135 4.82564 226.643 4.83043C226.643 4.83043 226.643 4.83043 226.643 4.83043C224.771 4.6129 222.404 4.94522 220.782 6.21202C220.782 6.21203 220.782 6.21203 220.782 6.21203C220.471 6.428 220.537 6.81918 220.903 6.91965C224.477 8.06114 227.963 10.1825 230.028 13.3492C232.686 17.7261 232.87 23.3426 232.074 28.3616C230.262 35.9242 228.22 43.5425 226.248 51.0896C225.159 55.3185 223.895 59.6566 224.596 64.1916C225.486 68.5587 227.239 72.9026 230.116 76.3841C233.82 80.7782 238.641 83.9322 243.702 86.4889C244.096 86.6658 244.494 86.8392 244.894 87.0063C250.089 89.1612 255.6 90.3656 261.122 91.2134C261.189 91.2235 261.257 91.2067 261.312 91.1667C261.366 91.1267 261.403 91.0667 261.413 90.9999C261.423 90.9331 261.406 90.865 261.366 90.8104C261.327 90.7559 261.267 90.7195 261.2 90.709C261.2 90.709 261.2 90.709 261.2 90.709C255.708 89.8396 250.237 88.615 245.121 86.4674C244.726 86.3007 244.334 86.128 243.946 85.9515C239.01 83.4392 234.179 80.2354 230.628 75.9798C227.816 72.5406 226.154 68.3929 225.272 64.0358C224.626 59.8588 225.852 55.4456 226.949 51.2826C228.946 43.7146 230.989 36.1501 232.828 28.518C233.652 23.2843 233.517 17.6384 230.69 12.9229C228.464 9.53226 224.889 7.36717 221.113 6.15566L221.234 6.86327C221.234 6.86327 221.234 6.86327 221.234 6.86327C222.812 5.69244 224.598 5.42618 226.643 5.62342C226.643 5.62342 226.643 5.62342 226.643 5.62342C227.124 5.60591 227.516 5.732 228.215 5.60022C228.746 5.46227 229.059 4.77412 228.748 4.27634C228.105 3.27806 227.192 2.72405 226.313 2.17031L226.239 2.88377C227.018 2.58796 227.827 2.36726 228.556 1.6484C228.998 1.17432 228.716 0.358206 228.105 0.225387C222.136 -1.39292 215.249 1.3736 211.58 5.35975C211.546 5.35651 211.455 5.36608 211.423 5.37633C207.924 6.45543 204.799 8.77808 202.801 11.8567C201.241 14.2203 200.326 16.9433 199.83 19.6892C199.366 22.0235 199.32 24.4733 199.509 26.823C199.581 27.6491 199.652 28.4675 199.723 29.2859C199.741 29.4836 199.908 29.6417 200.106 29.6477C203.847 29.7618 207.588 29.8758 211.329 29.9898C211.332 29.9898 211.339 29.9899 211.341 29.9899C212.547 30.0321 213.874 30.3081 214.789 31.0259C215.738 31.7334 215.882 33.0012 215.5 34.1755C214.329 37.6244 209.987 38.7647 206.48 39.1792C206.147 39.2039 205.997 39.4997 206.173 39.7834C206.71 40.6476 207.247 41.5119 207.784 42.3761C208.323 48.4689 205.257 55.234 203.302 61.5203C200.575 68.8578 197.633 76.2296 195.079 83.7085C195.022 83.8773 194.966 84.044 194.911 84.2084C193.487 88.4378 192.065 92.7303 191.335 97.1806C190.59 101.813 190.115 106.503 190.577 111.228C191.192 117.017 193.61 122.549 197.181 127.108C201.448 132.826 208.249 136.11 215.078 137.419C215.352 137.481 215.639 137.542 215.915 137.599C218.734 138.166 221.584 138.533 224.446 138.747C227.169 138.946 229.907 138.995 232.636 138.823Z" fill="#686868"/>
<path d="M268.305 107.719C268.326 107.652 268.321 107.579 268.29 107.517C268.258 107.454 268.204 107.406 268.138 107.384C268.071 107.361 267.999 107.366 267.936 107.397C267.873 107.427 267.824 107.482 267.8 107.547C267.8 107.547 267.8 107.547 267.8 107.547C267.539 108.263 267.268 108.965 266.983 109.669C265.847 112.472 264.513 115.199 263.001 117.816C261.04 121.21 258.736 124.413 256.141 127.349C252.047 132.195 246.335 135.345 240.255 137.12C239.934 137.218 239.615 137.313 239.294 137.4C238.571 137.601 237.838 137.741 237.089 137.856C237.023 137.866 236.962 137.902 236.922 137.957C236.882 138.011 236.865 138.079 236.874 138.146C236.884 138.213 236.92 138.273 236.974 138.313C237.028 138.354 237.096 138.371 237.163 138.362C237.922 138.259 238.687 138.124 239.434 137.93C239.765 137.845 240.09 137.753 240.415 137.659C246.568 135.969 252.507 132.777 256.708 127.853C259.353 124.893 261.698 121.652 263.687 118.212C265.219 115.56 266.523 112.767 267.568 109.894C267.83 109.172 268.074 108.452 268.305 107.719Z" fill="#686868"/>
<path d="M259.181 89.3089C259.141 89.3649 259.123 89.4345 259.133 89.5031C259.142 89.5717 259.179 89.6336 259.233 89.6753C259.288 89.7171 259.358 89.7353 259.426 89.7263C259.495 89.7172 259.557 89.6815 259.6 89.6276C259.6 89.6276 259.6 89.6276 259.6 89.6276C260.045 89.0666 260.463 88.4899 260.875 87.9114C262.071 86.2152 263.226 84.4944 264.235 82.6567C264.273 82.5738 264.411 82.5711 264.459 82.6599C264.64 82.9531 264.789 83.3149 264.912 83.672C265.746 86.246 265.79 89.0766 265.59 91.8255C265.557 92.2415 266.012 92.4245 266.276 92.1018C267.428 90.6812 268.578 89.2621 269.685 87.7892C269.729 87.7095 269.884 87.7361 269.9 87.8303C270.92 92.516 270.32 97.5436 269.284 102.288C269.128 102.98 268.961 103.654 268.777 104.341C268.758 104.411 268.767 104.486 268.803 104.549C268.839 104.612 268.899 104.658 268.969 104.678C269.039 104.697 269.113 104.688 269.177 104.652C269.24 104.616 269.286 104.557 269.306 104.487C269.306 104.487 269.306 104.487 269.306 104.487C269.503 103.797 269.681 103.117 269.85 102.42C270.96 97.6176 271.651 92.6053 270.613 87.6394C270.469 86.9687 269.478 86.7699 269.087 87.3432C267.991 88.7822 266.828 90.2024 265.677 91.6109L266.363 91.8872C266.574 89.0689 266.555 86.1908 265.661 83.4138C265.524 83.021 265.366 82.6257 265.127 82.2414C264.805 81.6647 263.837 81.6751 263.547 82.2909C262.587 84.0848 261.479 85.8339 260.361 87.5612C259.976 88.1501 259.584 88.7443 259.181 89.3089Z" fill="#686868"/>
<path d="M218.095 6.07918C218.059 6.08337 218.024 6.10278 218 6.13134C217.975 6.16 217.962 6.19548 217.963 6.23175C217.964 6.26801 217.979 6.30261 218.006 6.3297C218.032 6.35669 218.067 6.37397 218.104 6.37594C218.104 6.37594 218.104 6.37594 218.104 6.37594C218.152 6.37858 218.201 6.38162 218.249 6.38503C219.116 6.44826 219.975 6.62189 220.785 6.87981C220.83 6.89428 220.876 6.90971 220.912 6.92332C221.011 6.95907 221.117 6.95235 221.208 6.89964C221.299 6.84722 221.367 6.75312 221.397 6.64303C221.426 6.53294 221.414 6.41731 221.361 6.32657C221.309 6.23554 221.22 6.17683 221.116 6.15839C221.116 6.15839 221.116 6.15839 221.116 6.15839C221.057 6.14714 221.011 6.14054 220.958 6.13249C220.047 6.00431 219.142 5.97838 218.244 6.06342C218.194 6.06827 218.145 6.07352 218.095 6.07918Z" fill="#686868"/>
<path d="M197.797 99.7401C197.796 99.7014 197.78 99.6643 197.752 99.6369C197.724 99.6096 197.687 99.5942 197.648 99.5942C197.61 99.5942 197.572 99.6096 197.545 99.637C197.517 99.6643 197.501 99.7015 197.5 99.7401C197.5 99.7401 197.5 99.7401 197.5 99.7401C197.483 100.227 197.472 100.71 197.466 101.195C197.39 105.4 197.914 109.673 199.242 113.698C199.29 113.849 199.341 114.001 199.394 114.152C199.627 114.812 199.919 115.473 200.34 116.073C200.529 116.338 200.753 116.571 201.057 116.751C201.342 116.929 201.83 117.046 202.221 116.818C202.524 116.649 202.676 116.388 202.786 116.175C203.185 115.435 203.242 114.494 203.025 113.717C202.931 113.319 202.324 113.407 202.346 113.816C202.507 116.084 203.682 118.105 205.163 119.686C205.499 120.044 205.854 120.383 206.225 120.701C206.254 120.726 206.292 120.74 206.331 120.738C206.37 120.736 206.407 120.719 206.433 120.69C206.459 120.662 206.473 120.624 206.472 120.585C206.47 120.546 206.454 120.509 206.426 120.482C206.426 120.482 206.426 120.482 206.426 120.482C206.085 120.147 205.76 119.795 205.456 119.428C204.112 117.805 203.112 115.835 203.034 113.778L202.355 113.877C202.514 114.565 202.451 115.234 202.121 115.833C202.036 115.998 201.939 116.114 201.86 116.151C201.692 116.285 201.229 116.006 200.982 115.626C200.624 115.107 200.361 114.51 200.141 113.888C200.091 113.745 200.042 113.601 199.996 113.456C198.683 109.502 198.041 105.372 197.857 101.187C197.833 100.705 197.813 100.225 197.797 99.7401Z" fill="#686868"/>
<path d="M195.535 51.6522C195.86 49.392 196.744 47.6433 197.356 46.6523C197.704 46.0928 198.412 45.8754 199.011 46.1472C200.434 46.7865 203.097 48.142 205.144 50.0634C205.712 49.4975 206.525 49.1938 207.377 49.3185H207.374L209.829 49.6765C210.722 49.8044 211.446 50.3703 211.813 51.1279C214.355 49.814 217.375 49.2545 218.954 49.0404C219.608 48.9508 220.223 49.36 220.395 49.9962C220.702 51.1247 221.049 53.0493 220.724 55.3095C220.399 57.5697 219.522 59.3152 218.903 60.3094C218.555 60.8689 217.847 61.0894 217.248 60.8145C215.797 60.1655 213.07 58.7749 211.006 56.7992C210.439 57.4322 209.577 57.7775 208.678 57.6464L206.222 57.2883C205.361 57.1637 204.663 56.633 204.283 55.9201C201.776 57.1733 198.849 57.7135 197.305 57.9245C196.651 58.0108 196.036 57.6048 195.864 56.9687C195.557 55.8401 195.207 53.9156 195.535 51.6554V51.6522Z" fill="#247A64"/>
<path d="M204.647 50.9009L205.135 50.2584C204.959 49.977 204.353 49.2417 203.333 48.5608C202.06 47.7104 199.739 46.3997 198.89 46.1663C198.042 45.933 197.576 46.4796 196.999 47.4962C197.334 47.4419 198.131 47.5122 199.519 48.0813C200.628 48.5352 203.4 50.1497 204.647 50.9009Z" fill="#589D88"/>
<path d="M220.054 50.1465C220.558 50.0346 220.389 49.5934 219.898 49.2769C219.477 49.0052 219.015 49.0372 218.482 49.1459C216.527 49.5679 214.562 50.1913 212.521 50.8626C212.339 50.9489 212.097 51.0384 211.995 51.2526C211.912 51.4348 211.928 51.5563 212.065 51.9591C213.51 51.3677 219.298 50.3095 220.054 50.1433V50.1465Z" fill="#589D88"/>
<path d="M208.369 49.4847C206.302 49.149 205.457 49.6542 204.631 51.0128C205.852 50.9809 208.047 51.1055 209.801 51.5883C211.555 52.071 212.311 51.5883 211.842 51.0032C211.373 50.4182 210.432 49.8204 208.366 49.4815L208.369 49.4847Z" fill="#589D88"/>
<path d="M203.789 56.3208C203.823 56.3028 203.85 56.2732 203.863 56.237C203.876 56.2009 203.875 56.1612 203.859 56.1266C203.843 56.0919 203.815 56.0647 203.779 56.0506C203.743 56.0365 203.703 56.0369 203.667 56.05C203.667 56.05 203.667 56.05 203.667 56.05C203.227 56.2122 202.781 56.3573 202.332 56.4894C200.667 56.9758 198.963 57.3003 197.252 57.5299C197.155 57.5421 197.057 57.5393 196.961 57.5214C196.622 57.4611 196.332 57.1959 196.245 56.8623C195.792 55.1914 195.666 53.4237 195.902 51.7055C196.136 49.9874 196.733 48.3131 197.624 46.8177C197.863 46.3973 198.439 46.2041 198.893 46.4091C200.618 47.1867 202.297 48.1587 203.871 49.2442C204.256 49.513 204.634 49.793 204.997 50.0871C205.028 50.1115 205.066 50.1237 205.105 50.1203C205.144 50.117 205.18 50.0985 205.205 50.0688C205.23 50.0391 205.243 50.0006 205.24 49.9616C205.237 49.9227 205.218 49.8865 205.189 49.8607C205.189 49.8607 205.189 49.8607 205.189 49.8607C204.833 49.5441 204.462 49.2427 204.084 48.9531C202.532 47.7811 200.892 46.7458 199.129 45.8848C198.431 45.541 197.501 45.8116 197.089 46.4862C196.11 48.033 195.445 49.7795 195.168 51.5995C194.891 53.4194 195.007 55.2908 195.483 57.0688C195.642 57.6891 196.186 58.1887 196.816 58.2997C196.994 58.3331 197.178 58.3372 197.357 58.3129C199.116 58.0625 200.851 57.6224 202.491 56.9369C202.933 56.7513 203.367 56.5468 203.789 56.3208Z" fill="#686868"/>
<path d="M204.15 54.3204C204.149 54.2837 204.137 54.247 204.114 54.2178C204.091 54.1886 204.058 54.1693 204.022 54.1641C203.986 54.159 203.949 54.1682 203.919 54.1897C203.888 54.2111 203.867 54.2431 203.856 54.2781C203.856 54.2781 203.856 54.2781 203.856 54.2781C203.793 54.4786 203.756 54.6904 203.747 54.9061C203.701 55.7716 204.15 56.6813 204.905 57.1872C205.282 57.4441 205.72 57.6112 206.17 57.6725C206.989 57.7857 207.809 57.8925 208.63 57.9928C210.21 58.2268 211.754 56.9506 211.858 55.444C211.876 55.299 211.894 55.1481 211.912 54.9972C211.936 54.8019 211.959 54.6064 211.982 54.4109C211.986 54.3729 211.977 54.334 211.954 54.3026C211.932 54.2712 211.898 54.2499 211.86 54.2433C211.822 54.2368 211.783 54.2455 211.752 54.2674C211.72 54.2894 211.698 54.3228 211.689 54.3602C211.689 54.3602 211.689 54.3602 211.689 54.3602C211.645 54.5519 211.601 54.7437 211.557 54.9356C211.523 55.0837 211.49 55.2319 211.456 55.3802C211.228 56.6601 209.916 57.528 208.732 57.2936C207.916 57.1553 207.1 57.0233 206.282 56.8978C205.947 56.8468 205.628 56.7218 205.351 56.5327C204.801 56.1577 204.382 55.5738 204.22 54.8687C204.18 54.6926 204.156 54.5091 204.15 54.3204Z" fill="#686868"/>
<path d="M204.12 52.5542C204.122 52.5909 204.134 52.6274 204.157 52.6562C204.181 52.6851 204.214 52.7038 204.25 52.7083C204.286 52.7129 204.323 52.7031 204.353 52.6811C204.383 52.6592 204.404 52.6268 204.415 52.5917C204.415 52.5917 204.415 52.5917 204.415 52.5917C204.472 52.401 204.526 52.2098 204.577 52.0183C204.616 51.8736 204.653 51.7287 204.687 51.5836C204.836 51.035 205.146 50.5632 205.56 50.2136C206.041 49.8053 206.692 49.611 207.322 49.6949L207.377 48.9382C207.376 48.9382 207.375 48.9382 207.374 48.9383C206.92 48.9381 206.87 49.6291 207.319 49.6947C208.139 49.8026 208.96 49.904 209.782 49.9989C210.822 50.0945 211.757 50.9838 211.893 52.0884C211.917 52.27 211.921 52.4556 211.905 52.6409C211.902 52.6791 211.912 52.7178 211.936 52.7486C211.959 52.7793 211.994 52.7997 212.031 52.8053C212.069 52.8108 212.108 52.8011 212.139 52.7783C212.17 52.7555 212.192 52.7215 212.199 52.6839C212.199 52.6839 212.199 52.6839 212.199 52.6839C212.24 52.4803 212.258 52.2707 212.252 52.0605C212.238 50.7849 211.207 49.5594 209.876 49.3541C209.061 49.2104 208.245 49.0731 207.429 48.9422L207.374 49.6987C207.375 49.6987 207.376 49.6987 207.377 49.6988C207.83 49.6986 207.88 49.0068 207.431 48.9421C206.595 48.805 205.698 49.0558 205.05 49.6083C204.486 50.0784 204.137 50.7938 204.109 51.5051C204.106 51.6591 204.105 51.8086 204.106 51.9583C204.108 52.1565 204.112 52.3551 204.12 52.5542Z" fill="#686868"/>
<path d="M211.494 57.0141C211.463 56.9909 211.426 56.9787 211.387 56.9815C211.349 56.9844 211.313 57.0018 211.288 57.0303C211.263 57.0588 211.25 57.0963 211.252 57.1347C211.254 57.1732 211.27 57.2093 211.297 57.2365C211.297 57.2365 211.297 57.2365 211.297 57.2365C211.638 57.5818 211.998 57.9092 212.371 58.2203C213.788 59.3956 215.379 60.3481 217.054 61.1084C217.174 61.1631 217.303 61.2044 217.435 61.2296C218.114 61.3667 218.85 61.0404 219.206 60.4505C220.169 58.8805 220.809 57.1187 221.059 55.2951C221.307 53.4712 221.166 51.6078 220.668 49.8465C220.465 49.0835 219.652 48.5561 218.883 48.6871C216.899 49.0085 214.97 49.5446 213.114 50.2912C212.667 50.4741 212.225 50.6728 211.794 50.8918C211.759 50.9094 211.732 50.9398 211.719 50.9767C211.706 51.0136 211.709 51.054 211.725 51.0891C211.742 51.1242 211.772 51.1512 211.809 51.1643C211.846 51.1775 211.887 51.1755 211.922 51.1595C211.922 51.1595 211.922 51.1595 211.922 51.1595C212.354 50.9644 212.797 50.7887 213.244 50.628C215.094 49.9731 217.029 49.5123 218.961 49.2595C219.453 49.192 219.948 49.5407 220.06 50.0129C220.489 51.6994 220.585 53.4745 220.326 55.1896C220.065 56.9035 219.445 58.5638 218.536 60.0346C218.343 60.3517 217.945 60.5252 217.584 60.452C217.514 60.4385 217.445 60.4168 217.379 60.3872C215.747 59.6578 214.153 58.8262 212.655 57.8393C212.259 57.5777 211.871 57.3037 211.494 57.0141Z" fill="#686868"/>
<path fill-rule="evenodd" clip-rule="evenodd" d="M208.742 12.6405C208.356 11.9788 207.482 11.4513 206.031 11.4193C204.58 11.3874 203.888 11.9532 203.403 12.5894C203.304 12.7205 203.448 12.8771 203.598 12.8132C203.633 12.7972 203.671 12.7844 203.709 12.7684C204.242 12.5478 204.899 12.2761 206.015 12.2825C207.208 12.2921 207.954 12.6086 208.423 12.8707C208.582 12.9602 208.834 12.7908 208.742 12.6341V12.6405Z" fill="black"/>
<path fill-rule="evenodd" clip-rule="evenodd" d="M223.486 13.606C222.095 12.989 220.992 13.0434 220.211 13.2096C220.048 13.2448 219.936 13.0657 220.067 12.9634C220.679 12.4871 222.048 11.9053 223.798 12.6022C225.361 13.2224 226.079 14.4628 226.066 15.2684C226.063 15.457 225.677 15.4666 225.578 15.3036C225.313 14.8624 224.876 14.223 223.486 13.606Z" fill="black"/>
<path d="M206.578 20.9979C206.637 19.7705 205.688 18.7276 204.458 18.6686C203.229 18.6097 202.184 19.5569 202.125 20.7843C202.066 22.0118 203.015 23.0546 204.245 23.1135C205.474 23.1725 206.519 22.2253 206.578 20.9979Z" fill="black"/>
<path fill-rule="evenodd" clip-rule="evenodd" d="M203.422 20.1149C203.406 20.441 203.658 20.7191 203.987 20.7351C204.315 20.7511 204.593 20.4985 204.609 20.1724C204.625 19.8463 204.373 19.5682 204.044 19.5522C203.719 19.5362 203.438 19.7888 203.422 20.1149Z" fill="#AAAAAA"/>
<path d="M222.025 23.2238C222.084 21.9964 221.135 20.9534 219.905 20.8941C218.675 20.8349 217.631 21.782 217.572 23.0094C217.513 24.2368 218.462 25.2799 219.692 25.3391C220.922 25.3983 221.966 24.4513 222.025 23.2238Z" fill="black"/>
<path fill-rule="evenodd" clip-rule="evenodd" d="M218.865 22.3399C218.849 22.666 219.101 22.9441 219.429 22.9601C219.758 22.9761 220.035 22.7235 220.051 22.3975C220.067 22.0714 219.815 21.7933 219.486 21.7773C219.161 21.7613 218.881 22.0138 218.865 22.3399Z" fill="#AAAAAA"/>
<path fill-rule="evenodd" clip-rule="evenodd" d="M219.053 31.6301C218.677 29.9805 216.913 26.8763 210.627 26.953C207.447 26.9402 203.496 26.953 200.877 26.6525C196.983 26.2081 194.097 25.265 192.17 24.5298C189.447 23.4908 188.48 23.7209 188.142 24.3443C187.769 25.0253 188.209 26.2081 189.16 27.2951C190.975 29.373 194.243 30.9843 200.013 31.4638C205.782 31.9402 209.606 30.3897 211.252 32.9152C211.963 34.0021 211.411 36.5724 205.83 37.3781C198.288 38.4682 192.097 36.0609 191.332 37.5187C190.566 38.9701 194.977 41.9272 202.526 41.988C210.078 42.0487 214.795 39.3378 216.47 37.9887C218.59 36.2751 219.541 33.7816 219.053 31.6269H219.056L219.053 31.6301Z" fill="#FAB341"/>
<path d="M200.001 26.8193C200.072 26.8266 200.144 26.8059 200.2 26.7613C200.255 26.7166 200.291 26.6517 200.3 26.5807C200.308 26.5098 200.287 26.4384 200.243 26.3823C200.198 26.3262 200.134 26.29 200.063 26.2811C200.063 26.2811 200.063 26.2811 200.063 26.2811C198.594 26.0969 197.14 25.8283 195.728 25.4242C194.562 25.0955 193.435 24.6578 192.29 24.207C191.608 23.9435 190.916 23.7008 190.173 23.5498C189.799 23.4775 189.415 23.4235 188.995 23.462C188.591 23.4891 188.046 23.705 187.813 24.1673C187.262 25.6366 188.187 26.6721 188.867 27.5485C190.389 29.3016 192.529 30.3189 194.669 30.9398C196.41 31.4416 198.19 31.7078 199.977 31.8574C201.956 32.0262 203.935 31.9418 205.882 31.8495C207.761 31.797 209.979 31.5938 210.925 33.1262C211.513 34.0461 210.614 35.3041 209.513 35.8729C208.399 36.4981 207.084 36.811 205.773 37.0065C203.381 37.3579 200.949 37.369 198.526 37.1863C197.318 37.0979 196.102 36.9572 194.882 36.8283C194.269 36.7659 193.661 36.7035 193.022 36.6881C192.705 36.6828 192.385 36.6859 192.042 36.7429C191.721 36.8031 191.268 36.9101 191.023 37.3585C190.652 38.158 191.203 38.798 191.573 39.1916C191.991 39.6109 192.462 39.9267 192.95 40.2066C193.926 40.7575 194.966 41.1426 196.023 41.4438C198.143 42.0392 200.333 42.2812 202.52 42.2938C205.81 42.2851 209.063 41.6714 212.142 40.5466C213.555 40.0233 214.919 39.3803 216.212 38.6005C216.269 38.5662 216.31 38.5108 216.326 38.4463C216.343 38.3819 216.333 38.3137 216.299 38.2567C216.264 38.1997 216.209 38.1585 216.145 38.1422C216.08 38.1259 216.012 38.1359 215.955 38.1697C215.955 38.1697 215.955 38.1697 215.955 38.1697C214.685 38.9209 213.345 39.5388 211.956 40.0401C208.942 41.1177 205.704 41.6963 202.533 41.6824C200.384 41.6556 198.246 41.4034 196.203 40.8159C195.185 40.5198 194.189 40.1414 193.284 39.6235C192.833 39.3624 192.404 39.0663 192.059 38.7151C191.717 38.3783 191.479 37.9143 191.633 37.6795C195.476 36.993 201.09 38.6811 205.881 37.7496C207.246 37.5482 208.628 37.2365 209.889 36.5365C211.077 35.9192 212.521 34.3429 211.572 32.7036C210.224 30.6717 207.69 31.0507 205.85 31.0665C203.89 31.1567 201.965 31.2354 200.042 31.0702C198.292 30.9227 196.56 30.6611 194.89 30.1793C192.833 29.5837 190.836 28.6248 189.446 27.0418C188.792 26.3064 188.152 25.1923 188.465 24.5228C188.631 24.1281 189.385 24.1273 190.037 24.256C190.707 24.3832 191.38 24.6062 192.044 24.8525C193.187 25.2842 194.358 25.7176 195.56 26.0332C197.018 26.4222 198.508 26.6658 200.001 26.8193Z" fill="#686868"/>
<path d="M138.811 73.7939C124.781 85.2803 122.453 105.692 133.612 119.388L193.437 70.402L147.83 66.4059L138.807 73.7939H138.811Z" fill="#9F6EB8"/>
<path d="M142.635 112.003C131.475 98.3108 133.803 77.8987 147.833 66.4091C161.863 54.9226 182.28 56.7097 193.44 70.4052L142.635 112.003Z" fill="#C19EDB"/>
<path d="M166.146 59.2265C166.218 59.2201 166.285 59.1855 166.332 59.1302C166.379 59.0748 166.402 59.0032 166.395 58.9311C166.389 58.859 166.355 58.7922 166.3 58.7454C166.244 58.6986 166.173 58.6756 166.101 58.6813C166.101 58.6813 166.101 58.6813 166.101 58.6813C163.042 58.9207 160.015 59.5906 157.136 60.6631C153.688 61.9452 150.457 63.8072 147.603 66.1325C144.589 68.5861 141.575 71.0418 138.564 73.4996C134.924 76.4646 131.9 80.1926 129.776 84.384C123.995 95.4876 125.225 109.969 133.31 119.635C133.448 119.805 133.684 119.828 133.853 119.69C153.786 103.35 173.709 86.9993 193.623 70.6371C193.754 70.5301 193.772 70.3471 193.666 70.2157C190.801 66.7056 187.172 63.8245 183.101 61.8428C180.343 60.4958 177.388 59.5558 174.363 59.0479C174.296 59.0366 174.227 59.0524 174.171 59.092C174.115 59.1316 174.077 59.1917 174.066 59.2591C174.054 59.3265 174.07 59.3957 174.11 59.4516C174.149 59.5074 174.209 59.5452 174.277 59.5568C174.277 59.5568 174.277 59.5568 174.277 59.5568C177.252 60.0686 180.153 61.0045 182.858 62.3382C186.851 64.3004 190.401 67.1406 193.201 70.5946L193.243 70.1732C173.274 86.4683 153.315 102.775 133.364 119.093L133.908 119.147C126.032 109.71 124.838 95.5871 130.482 84.7424C132.556 80.6499 135.501 77.0058 139.051 74.0946C142.054 71.627 145.056 69.1573 148.056 66.6856C150.838 64.3915 153.989 62.5442 157.36 61.2575C160.175 60.1812 163.141 59.4943 166.146 59.2265Z" fill="#686868"/>
<path d="M171.316 58.9315C170.579 58.8772 169.836 58.8452 169.096 58.8388" stroke="#686868" stroke-width="0.527835" stroke-linecap="round" stroke-linejoin="round"/>
<path d="M100.625 136.351C99.1838 133.32 95.2451 132.789 90.694 128.263C85.0298 122.63 88.0182 120.21 83.7095 113.477C79.4008 106.748 77.6243 107.889 73.3188 101.159C70.1391 96.1882 71.7529 91.703 69.7596 88.7043L21.1901 119.944C23.0781 123.01 27.8206 123.41 31.0035 128.381C35.3122 135.114 33.5358 136.255 37.8445 142.984C42.1532 149.714 43.9296 148.572 48.2352 155.302C51.4149 160.273 49.8011 164.758 51.7944 167.757L100.629 136.354L100.625 136.351Z" fill="#247A64"/>
<path d="M90.7131 142.725C89.2461 139.711 85.4955 139.059 81.0337 134.477C75.478 128.774 78.2271 126.508 73.9184 119.778C69.6097 113.049 67.9672 114.104 63.6585 107.374C60.4788 102.403 61.8566 98.0712 59.8665 95.0693L14.9232 123.972C16.8176 127.035 21.3209 127.588 24.5006 132.559C28.8093 139.292 27.1636 140.347 31.4723 147.08C35.781 153.809 37.4235 152.754 41.7322 159.484C44.9119 164.455 43.5342 168.786 45.5243 171.788L90.7131 142.729V142.725Z" fill="#589D88"/>
<path d="M24.7207 132.418C24.6832 132.36 24.6242 132.319 24.5566 132.304C24.4889 132.29 24.4182 132.302 24.36 132.34C24.3017 132.377 24.2606 132.436 24.2457 132.503C24.2308 132.571 24.2434 132.642 24.2804 132.7C24.2804 132.7 24.2804 132.7 24.2804 132.7C26.4598 135.857 27.4226 139.467 28.8919 143.052C29.5444 144.513 30.3378 145.902 31.197 147.256C33.8846 152.099 38.8123 154.962 41.4201 159.683C44.0368 163.233 43.0021 167.846 45.199 172.004C45.3191 172.185 45.5521 172.234 45.7353 172.117C49.0241 170.006 52.3118 167.894 55.5985 165.781C67.3747 158.208 79.1497 150.632 90.9232 143.055C94.2256 140.929 97.5277 138.803 100.83 136.677C100.99 136.574 101.05 136.361 100.969 136.189C98.4058 132.142 93.7786 131.276 90.9568 127.998C86.3533 124.434 87.5201 117.933 84.0152 113.282C81.3108 108.41 76.2212 105.713 73.6142 100.972C70.9524 97.3945 72.2206 92.7044 70.0419 88.5177C69.9363 88.3586 69.7317 88.316 69.571 88.4192C57.3805 96.2748 45.1914 104.133 33.0037 111.993C31.997 112.642 30.9904 113.291 29.9838 113.941C26.7895 116.002 23.5953 118.063 20.4012 120.124C20.3404 120.163 20.2975 120.225 20.2822 120.296C20.2668 120.366 20.2802 120.44 20.3194 120.501C20.3586 120.562 20.4204 120.605 20.4911 120.62C20.5619 120.636 20.6359 120.622 20.6969 120.583C20.6969 120.583 20.6969 120.583 20.6969 120.583C23.8969 118.531 27.0968 116.479 30.2966 114.427C31.3049 113.78 32.3133 113.134 33.3216 112.487C45.5297 104.659 57.7365 96.8284 69.9418 88.9958L69.4709 88.8973C71.4258 92.4923 70.2548 97.5987 73.017 101.354C75.7111 106.229 80.7972 108.935 83.3974 113.678C86.7575 118.025 85.6303 124.754 90.4248 128.533C93.3071 131.845 98.2068 133.066 100.276 136.519L100.415 136.031C97.1106 138.155 93.8067 140.278 90.5029 142.402C78.7241 149.971 66.9465 157.542 55.1703 165.115C51.8836 167.228 48.5979 169.343 45.3132 171.46L45.8495 171.573C43.8846 168.046 44.777 162.983 42.0444 159.284C39.3269 154.449 34.3853 151.616 31.7475 146.903C30.8905 145.573 30.1033 144.216 29.4567 142.797C28.0183 139.368 26.9455 135.563 24.7207 132.418Z" fill="#686868"/>
<path d="M20.5204 128.426C21.3783 129.046 22.2489 129.768 23.075 130.683" stroke="#686868" stroke-width="0.527835" stroke-linecap="round" stroke-linejoin="round"/>
<path d="M84.0061 102.879C98.0867 104.65 110.812 95.6063 112.432 82.6812L52.3908 75.127L74.9549 101.741L84.0093 102.879H84.0061Z" fill="#F5A031"/>
<path d="M103.378 81.5431C101.758 94.4682 89.0324 103.512 74.9517 101.741C60.8711 99.97 50.7706 88.0552 52.3876 75.127L103.375 81.5431H103.378Z" fill="#FFC95C"/>
<path d="M53.259 83.6169C53.2405 83.552 53.1972 83.4968 53.1384 83.4636C53.0795 83.4304 53.01 83.4218 52.9449 83.4397C52.8799 83.4577 52.8246 83.5008 52.7912 83.5596C52.7578 83.6183 52.749 83.6879 52.7664 83.7531C52.7664 83.7531 52.7664 83.7531 52.7664 83.7531C53.3572 85.9624 54.2889 88.0795 55.4991 90.0223C59.6611 96.7458 67.0849 101.18 74.9026 102.129C76.1615 102.288 77.4204 102.447 78.6795 102.605C80.4386 102.827 82.1977 103.048 83.9568 103.268C96.8897 105.251 111.345 96.2416 112.8 82.7241C112.827 82.516 112.687 82.3363 112.478 82.3099C109.46 81.934 106.441 81.5584 103.423 81.1831C89.607 79.4638 75.7903 77.7518 61.9728 76.0472C59.7296 75.7705 57.4863 75.494 55.243 75.2176C55.1738 75.2091 55.1041 75.2283 55.049 75.2711C54.994 75.3138 54.9582 75.3767 54.9495 75.4458C54.9408 75.5149 54.9599 75.5847 55.0026 75.6398C55.0454 75.6949 55.1082 75.7307 55.1773 75.7396C55.1773 75.7396 55.1773 75.7396 55.1773 75.7396C57.4191 76.0276 59.661 76.3155 61.9028 76.6032C75.7119 78.3751 89.5219 80.1396 103.333 81.8967C106.351 82.2802 109.368 82.6633 112.386 83.0461L112.064 82.6319C110.637 95.6752 96.6385 104.412 84.0555 102.484C82.2964 102.262 80.5373 102.041 78.7782 101.82C77.5192 101.662 76.2601 101.504 75.0009 101.347C67.3969 100.436 60.1622 96.1933 56.0166 89.6954C54.812 87.8172 53.8721 85.7663 53.259 83.6169Z" fill="#686868"/>
<path d="M52.2218 78.1768C52.2377 79.2126 52.327 80.2388 52.4865 81.2458" stroke="#686868" stroke-width="0.527835" stroke-linecap="round" stroke-linejoin="round"/>
<path d="M75.0846 165.193C74.9152 165.193 74.7459 165.193 74.5765 165.193C74.5578 165.857 74.4378 166.513 74.2209 167.134C73.374 169.64 70.8661 171.422 68.2575 171.386C68.2575 171.386 68.2575 171.386 68.2575 171.386C64.9636 171.466 61.9956 168.494 62.0658 165.193C61.9748 161.894 64.931 158.883 68.2575 158.942C70.8928 158.887 73.4333 160.716 74.2425 163.245C74.4509 163.871 74.5594 164.53 74.565 165.193C74.742 165.193 74.9191 165.193 75.0962 165.193C75.1022 164.476 74.9963 163.757 74.7799 163.072C73.9435 160.301 71.1814 158.239 68.2575 158.266C64.5696 158.156 61.2226 161.485 61.303 165.193C61.2018 168.899 64.537 172.268 68.2575 172.178C68.2575 172.178 68.2575 172.178 68.2575 172.178C71.2082 172.224 74.0027 170.115 74.8015 167.322C75.0094 166.631 75.1038 165.909 75.0846 165.193ZM74.5765 165.193H75.0846C75.0846 165.191 75.0962 165.195 75.0962 165.193H74.565C74.5649 165.195 74.5766 165.191 74.5765 165.193Z" fill="#686868"/>
<path d="M87.8077 158.815L84.9597 155.996L76.827 164.24L84.4398 171.785L87.8077 158.815Z" fill="#F5A031"/>
<path d="M84.9597 155.992L72.0846 159.528L81.5759 168.937L84.9597 155.992Z" fill="#FFC95C"/>
<path d="M74.9467 159.014C75.0117 158.994 75.0672 158.951 75.1007 158.891C75.1342 158.832 75.1431 158.762 75.1252 158.697C75.1073 158.631 75.0641 158.575 75.005 158.541C74.946 158.507 74.8759 158.498 74.8101 158.514C74.8101 158.514 74.8101 158.514 74.8101 158.514C74.0839 158.694 73.3583 158.875 72.6332 159.059C72.4221 159.112 72.211 159.165 72 159.219C71.7312 159.288 71.6649 159.557 71.8589 159.756C73.4135 161.353 74.9794 162.939 76.5568 164.513L76.555 163.957C76.5528 163.959 76.5507 163.961 76.5486 163.963C76.3907 164.12 76.3926 164.362 76.5504 164.52C76.934 164.902 77.3182 165.285 77.7032 165.666C79.8558 167.799 82.0109 169.93 84.1683 172.059C84.4056 172.295 84.7284 172.206 84.8132 171.882C85.9261 167.556 87.0319 163.229 88.1307 158.899C88.1562 158.803 88.1129 158.649 88.0425 158.578C87.0879 157.644 86.1329 156.709 85.1774 155.776C84.9588 155.557 84.6515 155.687 84.6501 155.996C84.6502 155.997 84.6502 155.998 84.6502 155.999C84.6502 156.37 85.2692 156.37 85.2692 155.999C85.2692 155.997 85.2692 155.995 85.2691 155.992C85.2706 155.769 85.093 155.636 84.8777 155.694C83.3063 156.137 81.7352 156.581 80.1644 157.026C79.4449 157.229 78.7254 157.433 78.006 157.638C77.9408 157.656 77.8853 157.699 77.8518 157.758C77.8183 157.818 77.8096 157.887 77.8276 157.953C77.8455 158.018 77.8887 158.074 77.9477 158.107C78.0067 158.141 78.0765 158.15 78.142 158.132C78.142 158.132 78.142 158.132 78.142 158.132C78.8647 157.94 79.5874 157.748 80.3099 157.555C81.8875 157.135 83.4647 156.713 85.0417 156.291L84.6502 155.992C84.6502 155.995 84.6502 155.997 84.6502 155.999C84.6502 156.37 85.2692 156.37 85.2692 155.999C85.2692 155.998 85.2692 155.997 85.2692 155.996L84.7419 156.216C85.6851 157.162 86.6288 158.107 87.5729 159.052L87.4847 158.731C86.3382 163.048 85.1988 167.367 84.0665 171.688L84.7113 171.511C82.5634 169.373 80.4132 167.237 78.2605 165.104C77.8756 164.722 77.4899 164.341 77.1037 163.961L77.1055 164.518C77.1076 164.516 77.1097 164.513 77.1118 164.511C77.2685 164.353 77.2689 164.111 77.11 163.955C75.5215 162.392 73.9215 160.84 72.3102 159.301L72.1691 159.837C72.3781 159.776 72.5869 159.715 72.7958 159.653C73.5132 159.442 74.2302 159.229 74.9467 159.014Z" fill="#686868"/>
<path d="M107.808 130.922C103.658 126.914 103.54 120.293 107.537 116.137L121.697 101.415L105.61 85.8718L86.5639 105.673C76.7186 115.91 77.0184 132.204 87.2273 142.073L108.803 162.923L124.271 146.84L107.801 130.926L107.808 130.922Z" fill="#F05F2B"/>
<path d="M99.2795 139.787C95.1303 135.778 95.0123 129.158 99.0084 125.002L113.169 110.28L97.0821 94.7368L78.0358 114.538C68.1905 124.775 68.4903 141.069 78.6991 150.938L100.275 171.788L115.743 155.705L99.2732 139.791L99.2795 139.787Z" fill="#FF8D5C"/>
<path d="M71.3225 135.649C71.3132 135.579 71.2767 135.515 71.2208 135.472C71.1648 135.429 71.0941 135.409 71.024 135.418C70.9539 135.427 70.8902 135.464 70.8469 135.52C70.8036 135.575 70.7842 135.646 70.7928 135.716C70.7928 135.716 70.7928 135.716 70.7928 135.716C71.2423 139.401 72.4926 142.991 74.4451 146.157C75.572 147.987 76.9299 149.676 78.4724 151.176C85.642 158.149 92.8204 165.113 100.008 172.068C100.168 172.223 100.41 172.218 100.564 172.058C102.347 170.207 104.13 168.355 105.911 166.503C106.972 165.4 108.033 164.297 109.094 163.194C114.25 157.833 119.405 152.471 124.56 147.109C124.713 146.949 124.709 146.708 124.55 146.554C119.059 141.251 113.567 135.948 108.075 130.646C104.128 127.016 103.998 120.178 107.807 116.397C109.683 114.443 111.559 112.49 113.435 110.536C116.276 107.579 119.116 104.622 121.956 101.665C122.097 101.518 122.093 101.298 121.947 101.156C116.581 95.9796 111.213 90.8036 105.846 85.6281C105.708 85.4944 105.499 85.4985 105.366 85.6369C101.311 89.8621 97.2574 94.0876 93.2036 98.3135C88.0785 103.655 82.954 108.998 77.8301 114.341C76.5466 115.679 75.4049 117.152 74.4333 118.731C72.4837 121.893 71.2325 125.479 70.782 129.163C70.7734 129.233 70.7928 129.303 70.836 129.359C70.8791 129.414 70.9425 129.45 71.0122 129.459C71.0818 129.467 71.1521 129.448 71.2075 129.405C71.263 129.362 71.299 129.298 71.3078 129.229C71.3078 129.229 71.3078 129.229 71.3078 129.229C71.7607 125.621 72.9966 122.114 74.9129 119.027C75.8678 117.485 76.9886 116.048 78.2479 114.742C83.387 109.414 88.5256 104.085 93.6636 98.7559C97.7276 94.5398 101.791 90.3234 105.855 86.1067L105.375 86.1155C110.732 91.3022 116.089 96.4884 121.447 101.674L121.438 101.166C118.592 104.118 115.747 107.071 112.903 110.024C111.024 111.975 109.145 113.926 107.266 115.877C103.169 119.936 103.297 127.284 107.541 131.199C113.028 136.506 118.516 141.813 124.004 147.119L123.994 146.565C118.837 151.924 113.68 157.285 108.524 162.646C107.463 163.749 106.402 164.851 105.341 165.954C103.559 167.806 101.778 169.659 99.9975 171.512L100.554 171.502C93.358 164.557 86.1528 157.621 78.9387 150.694C77.4259 149.241 76.0906 147.604 74.9776 145.826C73.0494 142.751 71.7966 139.254 71.3225 135.649Z" fill="#686868"/>
<path d="M148.977 155.257C148.81 155.257 148.642 155.257 148.475 155.257C148.456 156.963 148.174 158.657 147.636 160.267C145.547 166.772 139.039 171.487 132.238 171.389C132.238 171.389 132.238 171.389 132.238 171.389C123.653 171.597 115.931 163.843 116.131 155.257C115.911 146.673 123.622 138.882 132.238 139.07C139.065 138.954 145.602 143.716 147.651 150.242C148.179 151.857 148.449 153.554 148.454 155.257C148.635 155.257 148.817 155.257 148.998 155.257C149.004 153.498 148.736 151.74 148.199 150.065C146.12 143.294 139.356 138.298 132.238 138.388C123.258 138.151 115.157 146.263 115.367 155.257C115.137 164.249 123.227 172.399 132.238 172.181C132.238 172.181 132.238 172.181 132.238 172.181C139.381 172.289 146.175 167.245 148.213 160.454C148.741 158.774 148.997 157.014 148.977 155.257ZM148.475 155.257H148.977C148.977 155.253 148.998 155.261 148.998 155.257H148.454C148.454 155.261 148.475 155.253 148.475 155.257Z" fill="#686868"/>
<path d="M155.443 161.315H146.315V171.785H155.443V161.315Z" fill="#247A64"/>
<path d="M146.315 171.785V161.315L131.797 171.756L146.315 171.785Z" fill="#589D88"/>
<path d="M136.737 168.537C136.794 168.494 136.832 168.431 136.844 168.36C136.855 168.289 136.838 168.217 136.796 168.159C136.755 168.102 136.692 168.062 136.621 168.051C136.551 168.039 136.478 168.056 136.42 168.096C136.42 168.096 136.42 168.096 136.42 168.096C135.642 168.635 134.865 169.176 134.089 169.718C133.255 170.3 132.423 170.884 131.591 171.47C131.283 171.689 131.419 172.107 131.797 172.109C134.564 172.143 137.332 172.163 140.1 172.169C142.171 172.173 144.243 172.176 146.314 172.178C149.358 172.175 152.4 172.17 155.443 172.162C155.656 172.163 155.82 171.999 155.82 171.785C155.812 168.295 155.801 164.805 155.786 161.315C155.787 161.121 155.637 160.972 155.443 160.972C152.4 160.984 149.358 160.998 146.315 161.015C146.271 161.015 146.175 161.046 146.14 161.071C144.845 162.013 143.551 162.955 142.258 163.897C141.493 164.454 140.728 165.011 139.964 165.569C139.909 165.608 139.873 165.668 139.862 165.734C139.851 165.8 139.867 165.868 139.906 165.923C139.946 165.977 140.005 166.014 140.071 166.025C140.137 166.036 140.205 166.02 140.26 165.981C140.26 165.981 140.26 165.981 140.26 165.981C141.032 165.434 141.804 164.886 142.576 164.339C143.881 163.413 145.186 162.486 146.49 161.559L146.315 161.615C149.358 161.632 152.4 161.647 155.443 161.659L155.099 161.315C155.085 164.805 155.074 168.295 155.065 171.785L155.443 171.408C152.4 171.4 149.358 171.395 146.315 171.392C144.244 171.386 142.173 171.381 140.102 171.377C137.334 171.371 134.566 171.38 131.798 171.403L132.004 172.043C132.823 171.441 133.641 170.836 134.459 170.231C135.219 169.667 135.978 169.103 136.737 168.537Z" fill="#686868"/>
<path fill-rule="evenodd" clip-rule="evenodd" d="M222.003 81.3515C220.109 77.7262 216.537 76.0383 212.786 76.9686C207.211 78.3528 185.129 80.2358 173.261 77.6495L159.544 74.8298C159.544 74.8298 154.792 73.9922 154.167 76.3228C153.542 78.6533 156.601 81.8694 159.866 83.2664C159.866 83.2664 155.382 82.4097 154.658 84.8105C153.931 87.2114 156.722 89.4045 158.402 90.2836L160.086 91.166C160.086 91.166 158.425 91.0509 158.122 91.8693C157.8 92.742 157.286 95.2931 164.596 99.4299C171.211 103.173 187.508 115.386 215.401 109.51C219.41 108.666 219.078 107.841 221.384 103.346C225.049 96.2011 225.291 87.6462 222 81.3547L222.003 81.3515Z" fill="white"/>
<path d="M216.265 110.581C216.686 110.67 218.898 111.192 219.509 111.323" stroke="#686868" stroke-width="0.527835" stroke-linecap="round" stroke-linejoin="round"/>
<path d="M218.793 75.2236C218.857 75.1914 218.905 75.1355 218.927 75.068C218.95 75.0005 218.945 74.9269 218.913 74.8634C218.881 74.7998 218.825 74.7515 218.758 74.7289C218.691 74.7063 218.617 74.7114 218.553 74.7427C218.553 74.7427 218.553 74.7427 218.553 74.7427C216.224 75.7888 213.702 76.4833 211.177 77.0146C210.647 77.1245 210.113 77.2257 209.575 77.3187C200.816 78.2702 191.775 78.5996 182.967 78.3712C182.964 78.371 182.957 78.3705 182.955 78.3704C182.027 78.3206 181.089 78.2297 180.155 78.1218C173.499 77.304 166.901 75.881 160.3 74.5731C159.693 74.4522 159.075 74.3634 158.453 74.3181C157.58 74.2586 156.682 74.2532 155.779 74.4929C154.897 74.6969 153.912 75.4214 153.739 76.4456C153.691 80.1796 156.91 82.2243 159.674 83.6023L159.896 82.874C158.809 82.6742 157.684 82.5942 156.559 82.8746C155.47 83.115 154.259 84.0155 154.167 85.3149C154.12 87.8919 156.245 89.4124 158.047 90.507C158.049 90.508 158.054 90.5111 158.056 90.512C158.646 90.8298 159.239 91.1287 159.819 91.4381C159.842 91.4497 159.856 91.4567 159.868 91.4628C159.864 91.4552 159.943 91.52 159.814 91.4178L160.077 90.7858C159.365 90.806 158.239 90.7367 157.75 91.8027C157.748 91.8065 157.744 91.8179 157.743 91.8218C157.116 94.1904 159.039 95.8649 160.463 97.1006C160.827 97.4008 161.211 97.6428 161.562 97.8917C174.713 107.158 191.049 113.36 207.318 110.958C207.869 110.876 208.422 110.785 208.976 110.684C210.98 110.294 212.99 110.044 214.948 110.552C215.016 110.568 215.088 110.557 215.147 110.52C215.206 110.483 215.249 110.424 215.265 110.356C215.281 110.289 215.269 110.217 215.233 110.158C215.196 110.098 215.137 110.056 215.069 110.04C215.069 110.04 215.069 110.04 215.069 110.04C213.034 109.497 210.873 109.757 208.877 110.139C208.329 110.237 207.783 110.325 207.237 110.403C191.159 112.71 175.002 106.527 161.979 97.3046C161.607 97.0405 161.241 96.8065 160.923 96.5423C159.518 95.3693 157.925 93.7219 158.443 92.0508L158.436 92.0698C158.584 91.6206 159.358 91.5088 160.077 91.5266C160.447 91.5264 160.601 91.1566 160.339 90.8946C160.186 90.7724 160.236 90.8249 160.204 90.8026C160.188 90.7944 160.174 90.7873 160.16 90.7802C159.579 90.4686 158.988 90.1691 158.41 89.8567L158.419 89.8618C156.691 88.8541 154.829 87.2804 154.919 85.3909C155.142 83.452 157.863 83.2233 159.754 83.6267C160.199 83.7108 160.392 83.0771 159.976 82.8984C157.391 81.6978 154.371 79.3593 154.501 76.601C154.779 75.1314 156.827 74.976 158.396 75.0983C158.982 75.1416 159.566 75.2259 160.147 75.3419C166.744 76.6539 173.343 78.0821 180.063 78.9083C181.009 79.0175 181.961 79.1095 182.913 79.1597L182.902 79.1589C191.887 79.3815 200.765 79.0124 209.693 77.9535C210.232 77.8548 210.772 77.7468 211.308 77.6299C213.868 77.0614 216.384 76.3434 218.793 75.2236Z" fill="#686868"/>
<path d="M160.09 91.1626C161.502 91.7572 162.976 92.2336 164.554 92.5181" stroke="#686868" stroke-width="0.791753" stroke-linecap="round" stroke-linejoin="round"/>
<path d="M159.869 83.2631C162.296 84.2989 164.618 85.079 166.723 85.3443" stroke="#686868" stroke-width="0.791753" stroke-linecap="round" stroke-linejoin="round"/>
<path d="M224.898 31.4574C224.979 28.9703 225.509 25.703 226.039 25.7094C226.569 25.7158 226.895 28.9958 226.813 31.483C226.732 33.9702 226.273 34.7215 225.743 34.7151C225.214 34.7087 224.816 33.9446 224.893 31.4606L224.898 31.4574Z" fill="#A1D0F7"/>
<path d="M105.598 69.486C105.53 69.5054 105.471 69.5514 105.436 69.6138C105.401 69.6763 105.392 69.7499 105.411 69.8187C105.43 69.8876 105.476 69.946 105.538 69.9814C105.601 70.0167 105.674 70.0261 105.743 70.0073C106.227 69.875 106.713 69.7502 107.201 69.6329C115.983 67.5215 125.329 67.8479 133.924 70.5557C134.401 70.7061 134.876 70.8638 135.349 71.0288C135.448 71.0634 135.557 71.0572 135.651 71.0112C135.745 70.9652 135.818 70.8832 135.852 70.7835C135.886 70.6838 135.88 70.5747 135.834 70.4803C135.788 70.3859 135.706 70.3141 135.607 70.2803C135.607 70.2803 135.607 70.2803 135.607 70.2803C135.125 70.1165 134.641 69.9603 134.155 69.8115C125.4 67.1333 115.933 66.8868 107.069 69.0952C106.577 69.2179 106.087 69.3482 105.598 69.486Z" fill="#686868"/>
<path d="M115.094 71.9671C115.026 71.9799 114.965 72.0196 114.926 72.0769C114.886 72.1342 114.87 72.2045 114.882 72.2728C114.894 72.341 114.933 72.4018 114.99 72.4421C115.047 72.4824 115.117 72.499 115.186 72.4877C115.186 72.4877 115.186 72.4877 115.186 72.4877C115.379 72.4558 115.573 72.4259 115.768 72.3981C119.264 71.8967 122.848 72.0524 126.274 72.8504C126.464 72.8947 126.654 72.941 126.843 72.9893C126.945 73.0153 127.053 72.9995 127.142 72.9449C127.232 72.8903 127.297 72.8013 127.322 72.6982C127.347 72.595 127.33 72.4863 127.276 72.3966C127.221 72.307 127.133 72.2436 127.03 72.22C127.03 72.22 127.03 72.22 127.03 72.22C126.835 72.1747 126.639 72.1314 126.442 72.0902C122.904 71.3483 119.236 71.2731 115.685 71.8627C115.487 71.8955 115.29 71.9303 115.094 71.9671Z" fill="#686868"/>
<path d="M117.44 64.828C117.373 64.8393 117.313 64.8773 117.272 64.933C117.232 64.9888 117.216 65.0578 117.226 65.1253C117.237 65.1929 117.274 65.2535 117.329 65.2943C117.384 65.3352 117.453 65.3529 117.521 65.3431C117.521 65.3431 117.521 65.3431 117.521 65.3431C117.712 65.3156 117.903 65.2902 118.094 65.267C121.538 64.8491 125.058 65.13 128.378 66.0778C128.562 66.1304 128.746 66.1851 128.929 66.2419C129.029 66.273 129.138 66.2627 129.23 66.2126C129.322 66.1626 129.391 66.0769 129.421 65.9751C129.452 65.8733 129.441 65.7639 129.391 65.6716C129.341 65.5792 129.256 65.5116 129.155 65.4829C129.155 65.4829 129.155 65.4829 129.155 65.4829C128.964 65.4288 128.774 65.3768 128.583 65.327C125.14 64.4301 121.528 64.229 118.023 64.7368C117.829 64.765 117.634 64.7954 117.44 64.828Z" fill="#686868"/>
<path d="M147.733 144.088C147.678 144.048 147.611 144.025 147.542 144.028C147.473 144.03 147.409 144.058 147.362 144.106C147.316 144.154 147.289 144.219 147.288 144.288C147.287 144.356 147.312 144.423 147.353 144.477C147.353 144.477 147.353 144.477 147.353 144.477C147.418 144.563 147.482 144.649 147.546 144.735C147.8 145.079 148.046 145.421 148.291 145.765C149.144 146.968 149.736 148.362 149.997 149.833C150.016 149.938 150.033 150.044 150.048 150.15C150.058 150.218 150.092 150.282 150.146 150.326C150.2 150.37 150.269 150.392 150.337 150.385C150.406 150.379 150.47 150.346 150.515 150.293C150.56 150.24 150.583 150.172 150.58 150.102C150.58 150.102 150.58 150.102 150.58 150.102C150.576 149.989 150.57 149.876 150.561 149.762C150.437 148.176 149.866 146.616 148.936 145.307C148.671 144.932 148.357 144.592 148.004 144.299C147.916 144.225 147.825 144.155 147.733 144.088Z" fill="#686868"/>
<path d="M149.697 144.294C149.642 144.261 149.579 144.241 149.515 144.245C149.451 144.248 149.391 144.274 149.348 144.318C149.305 144.362 149.28 144.422 149.278 144.486C149.276 144.551 149.297 144.614 149.331 144.667C149.331 144.667 149.331 144.667 149.331 144.667C149.371 144.731 149.41 144.794 149.45 144.857C149.608 145.107 149.767 145.346 149.933 145.58C150.512 146.399 150.931 147.337 151.142 148.341C151.158 148.412 151.172 148.484 151.184 148.557C151.196 148.621 151.228 148.68 151.279 148.721C151.33 148.762 151.395 148.782 151.459 148.776C151.523 148.771 151.583 148.739 151.625 148.69C151.668 148.64 151.69 148.576 151.69 148.511C151.69 148.511 151.69 148.511 151.69 148.511C151.689 148.432 151.686 148.352 151.682 148.272C151.624 147.155 151.235 146.046 150.578 145.122C150.391 144.857 150.161 144.623 149.899 144.43C149.834 144.382 149.766 144.337 149.697 144.294Z" fill="#686868"/>
<path d="M50.119 81.9571C50.1 81.8538 50.0408 81.7631 49.9533 81.705C49.8659 81.6469 49.7573 81.6263 49.6526 81.6474C49.5479 81.6686 49.4558 81.7297 49.3978 81.8172C49.3397 81.9046 49.3203 82.0113 49.3429 82.1138C49.3429 82.1138 49.3429 82.1138 49.3429 82.1138C49.3727 82.2497 49.4037 82.3853 49.4357 82.5207C50.0126 84.9568 50.94 87.3022 52.1758 89.465C52.2444 89.5851 52.3141 89.7047 52.3846 89.8237C52.4183 89.8804 52.4736 89.9217 52.5379 89.9387C52.6023 89.9557 52.6703 89.9471 52.7276 89.9145C52.7849 89.8818 52.827 89.8277 52.8451 89.7637C52.8632 89.6997 52.856 89.631 52.8243 89.5731C52.8243 89.5731 52.8243 89.5731 52.8243 89.5731C52.7592 89.4541 52.6951 89.3346 52.632 89.2146C51.4953 87.0544 50.6723 84.7357 50.1953 82.3545C50.1688 82.2222 50.1433 82.0898 50.119 81.9571Z" fill="#686868"/>
<path d="M48.2262 84.3085C48.2081 84.205 48.1496 84.1141 48.0621 84.056C47.9747 83.9979 47.8655 83.9774 47.7599 83.9986C47.6544 84.0199 47.5616 84.0812 47.5036 84.1686C47.4454 84.2561 47.4267 84.3625 47.4501 84.4649C47.4501 84.4649 47.4501 84.4649 47.4501 84.4649C47.4717 84.5599 47.494 84.6547 47.5171 84.7492C47.9331 86.4514 48.5949 88.0857 49.4707 89.5887C49.5193 89.6722 49.5686 89.7553 49.6186 89.838C49.6524 89.8938 49.7079 89.9343 49.7718 89.9509C49.8359 89.9675 49.9032 89.9589 49.96 89.9265C50.0167 89.8942 50.0583 89.8405 50.0765 89.7769C50.0947 89.7133 50.088 89.645 50.0571 89.5875C50.0571 89.5875 50.0571 89.5875 50.0571 89.5875C50.0126 89.5048 49.9688 89.4218 49.9257 89.3384C49.1493 87.8378 48.5924 86.2302 48.2766 84.5833C48.2591 84.4918 48.2423 84.4002 48.2262 84.3085Z" fill="#686868"/>
<path d="M198.999 7.25327C199.041 7.30649 199.104 7.34081 199.172 7.34911C199.24 7.35739 199.308 7.33898 199.362 7.29748C199.416 7.25599 199.452 7.19468 199.461 7.12661C199.471 7.05856 199.454 6.98932 199.413 6.93457C199.413 6.93457 199.413 6.93457 199.413 6.93457C199.34 6.83544 199.266 6.73649 199.192 6.6377C197.863 4.85957 196.458 3.1363 194.978 1.47646C194.896 1.38425 194.813 1.29223 194.73 1.20041C194.66 1.12234 194.562 1.07605 194.457 1.07247C194.352 1.06886 194.249 1.10825 194.171 1.18123C194.093 1.25421 194.046 1.35457 194.043 1.45948C194.039 1.56443 194.079 1.66534 194.152 1.74075C194.152 1.74075 194.152 1.74075 194.152 1.74075C194.237 1.82858 194.322 1.91661 194.406 2.00486C195.93 3.59326 197.385 5.24987 198.769 6.96659C198.846 7.06197 198.922 7.15752 198.999 7.25327Z" fill="#686868"/>
<path d="M197.227 10.0127C197.286 10.0483 197.358 10.0589 197.426 10.0423C197.494 10.0258 197.552 9.98353 197.588 9.92447C197.625 9.86541 197.636 9.79427 197.62 9.7263C197.605 9.65835 197.563 9.59915 197.504 9.5621C197.504 9.5621 197.504 9.5621 197.504 9.5621C197.344 9.46079 197.183 9.35948 197.023 9.25817C194.135 7.43466 191.247 5.6122 188.359 3.78877C188.199 3.68747 188.038 3.58616 187.878 3.48485C187.789 3.42878 187.682 3.4106 187.58 3.43493C187.478 3.45922 187.389 3.52403 187.333 3.61449C187.277 3.70495 187.26 3.81348 187.284 3.9156C187.308 4.01776 187.373 4.10514 187.463 4.15913C187.463 4.15913 187.463 4.15913 187.463 4.15913C187.625 4.25671 187.788 4.3543 187.951 4.45187C190.88 6.20829 193.81 7.96362 196.739 9.71995C196.902 9.81753 197.064 9.91511 197.227 10.0127Z" fill="#686868"/>
<path d="M195.528 11.8649C195.595 11.8862 195.668 11.88 195.731 11.8484C195.794 11.8167 195.842 11.7622 195.864 11.6961C195.887 11.6299 195.882 11.5575 195.851 11.494C195.821 11.4304 195.767 11.3811 195.701 11.3573C195.701 11.3573 195.701 11.3573 195.701 11.3573C195.589 11.3169 195.477 11.2765 195.365 11.2361C193.35 10.5088 191.336 9.78008 189.32 9.05266C189.208 9.01225 189.096 8.97184 188.984 8.93143C188.886 8.89577 188.777 8.90119 188.683 8.94755C188.589 8.99384 188.516 9.07728 188.482 9.17847C188.448 9.27965 188.454 9.38999 188.5 9.48418C188.547 9.57843 188.629 9.64881 188.729 9.68087C188.729 9.68087 188.729 9.68087 188.729 9.68087C188.842 9.71723 188.956 9.75361 189.069 9.78998C191.109 10.4447 193.148 11.1009 195.188 11.7558C195.302 11.7922 195.415 11.8285 195.528 11.8649Z" fill="#686868"/>
<path d="M270.111 113.953C270.128 113.888 270.121 113.818 270.089 113.759C270.057 113.699 270.004 113.654 269.941 113.634C269.877 113.613 269.808 113.619 269.747 113.649C269.687 113.679 269.641 113.732 269.616 113.794C269.616 113.794 269.616 113.794 269.616 113.794C269.508 114.072 269.399 114.348 269.288 114.624C268.845 115.727 268.379 116.817 267.89 117.897C266.18 121.675 263.907 125.199 261.152 128.318C260.955 128.541 260.756 128.761 260.554 128.98C260.509 129.029 260.485 129.093 260.486 129.16C260.488 129.226 260.515 129.29 260.563 129.336C260.611 129.382 260.675 129.407 260.742 129.406C260.808 129.405 260.872 129.378 260.919 129.331C260.919 129.331 260.919 129.331 260.919 129.331C261.132 129.118 261.343 128.903 261.552 128.685C264.469 125.636 266.868 122.078 268.612 118.223C269.11 117.122 269.532 115.985 269.872 114.826C269.957 114.536 270.036 114.245 270.111 113.953Z" fill="#686868"/>
<path d="M270.447 118.888C270.463 118.825 270.457 118.757 270.428 118.697C270.399 118.638 270.348 118.593 270.287 118.571C270.226 118.549 270.159 118.552 270.098 118.579C270.038 118.606 269.991 118.655 269.963 118.714C269.963 118.714 269.963 118.714 269.963 118.714C269.901 118.843 269.84 118.971 269.779 119.1C269.536 119.613 269.296 120.125 269.061 120.639C268.238 122.44 267.246 124.165 266.123 125.808C266.043 125.925 265.962 126.042 265.88 126.159C265.842 126.213 265.825 126.281 265.835 126.347C265.845 126.413 265.88 126.473 265.933 126.513C265.986 126.553 266.053 126.57 266.12 126.561C266.186 126.553 266.246 126.518 266.288 126.466C266.288 126.466 266.288 126.466 266.288 126.466C266.379 126.354 266.469 126.24 266.558 126.126C267.804 124.531 268.88 122.793 269.726 120.943C269.967 120.414 270.171 119.868 270.333 119.309C270.374 119.17 270.412 119.029 270.447 118.888Z" fill="#686868"/>
<defs>
<linearGradient id="paint0_linear_1723_38187" x1="241.867" y1="106.877" x2="268.513" y2="258.039" gradientUnits="userSpaceOnUse">
<stop offset="0.0613796" stop-color="white"/>
<stop offset="1" stop-color="#CBEAFF"/>
</linearGradient>
</defs>
</svg>
