<svg fill="none" viewBox="0 0 561 357" xmlns="http://www.w3.org/2000/svg">
  <path fill="#ECEBE7" d="M177.774 284.883c63.242 0 118.771 6.664 150.284 16.701 23.861-2.718 52.743-4.309 83.861-4.309 81.999 0 148.473 11.043 148.473 24.666-.001 13.622-66.474 24.666-148.473 24.666-33.62 0-64.63-1.859-89.519-4.988-32.251 9.086-85.011 15.009-144.626 15.009C79.593 356.628 0 340.567 0 320.755s79.593-35.872 177.774-35.872"/>
  <path fill="#F5F5F5" fill-rule="evenodd" d="M418.749 148.942c-5.1-6.517-13.444-9.539-21.534-7.843-12.024 2.519-32.314 4.694-59.286.103l-31.13-5.009s-10.749-1.484-11.564 2.713c-.816 4.198 6.773 9.976 14.362 12.471 0 0-10.157-1.52-11.178 2.81-1.021 4.331 5.71 8.261 9.667 9.836l3.952 1.575s-3.716-.194-4.187 1.272c-.502 1.575-1.009 6.165 16.235 13.579 15.601 6.704 32.592 12.682 77.038 19.429 8.918 1.357 17.691-3.234 21.691-11.338 6.369-12.882 4.786-28.284-4.072-39.592z" clip-rule="evenodd"/>
  <path fill="#000" d="M409.894 137.747c.067-.031.121-.086.148-.155s.026-.146-.003-.214c-.03-.068-.085-.122-.154-.149-.069-.028-.146-.027-.214.001-4.472 1.699-9.199 2.808-13.929 3.703-1.798.334-3.615.628-5.436.884-10.155 1.412-20.517 1.71-30.737 1.106l-.017-.001c-7.117-.366-14.226-1.402-21.324-2.44-9.935-1.48-19.84-3.237-29.78-4.798-1.361-.208-2.736-.368-4.123-.441-1.787-.091-3.604-.105-5.445.246-1.716.306-4.165 1.315-4.418 3.702l-.002.017c.091 4.151 3.338 6.284 5.897 8.294 2.742 1.937 5.742 3.468 8.927 4.529l.326-1.374c-2.252-.322-4.538-.466-6.843-.067-2.136.343-5.239 1.652-5.151 4.668 1.004 5.305 5.885 7.288 9.804 9.207l.016.007c1.382.56 2.768 1.101 4.144 1.652.072.029.11.047.237.093l.206-1.285c-.786.004-1.617.017-2.468.187-.801.174-1.926.501-2.356 1.673l-.013.044c-.605 2.44 1.001 4.441 2.4 5.841 1.482 1.445 3.161 2.59 4.876 3.635q1.287.777 2.646 1.418c24.231 12.675 51.481 17.02 78.105 21.596q3.267.505 6.529.985c4.786.703 9.576 1.364 14.37 2.002.074.009.149-.01.208-.055.06-.045.099-.112.109-.186s-.01-.148-.055-.208c-.045-.059-.111-.098-.185-.109-4.787-.678-9.568-1.379-14.344-2.12q-3.258-.505-6.512-1.035c-26.617-4.79-53.627-9.259-77.694-21.987q-1.3-.62-2.528-1.369c-3.086-1.98-7.262-4.684-6.668-8.075l-.014.044c.265-.825 2.144-.985 3.6-.962.767-.004.933-1.042.206-1.285l-.158-.064c-1.385-.561-2.767-1.107-4.138-1.668l.016.007c-3.792-1.739-8.38-4.218-8.96-8.027-.115-1.824 2.006-2.927 4.018-3.246 2.061-.353 4.236-.224 6.39.091.834.124 1.126-1.11.325-1.374-5.665-2.095-12.928-5.733-13.815-11.33l-.002.016c.114-1.38 1.645-2.144 3.252-2.44 1.625-.31 3.361-.306 5.082-.213 1.327.071 2.652.227 3.977.431 9.907 1.568 19.826 3.333 29.784 4.816 7.122 1.042 14.244 2.055 21.489 2.373l-.017-.001c10.362.53 20.734.095 30.984-1.523 1.824-.291 3.649-.624 5.454-.998 4.754-1.003 9.461-2.218 13.978-4.069"/>
  <path fill="#000" d="M312.125 165.324c-.067.002-.134.016-.192.05s-.1.085-.119.145c-.02.059-.015.125.012.187.026.061.072.112.125.153q.222.17.452.322.922.607 1.95.899c2.392.679 4.867 1.09 7.354 1.19q.267.01.533.016c.071.002.142-.019.198-.064.057-.044.094-.108.104-.177.01-.07-.009-.141-.051-.199s-.104-.098-.172-.117l-.51-.135c-2.375-.633-4.709-1.294-7.047-1.957-.668-.189-1.361-.293-2.087-.314q-.272-.008-.55.001m-2.44-14.221c-.068-.006-.139.005-.2.039-.06.033-.105.087-.126.15s-.016.133.013.196.079.114.137.149q.356.216.72.412 1.453.785 3.019 1.247c3.644 1.068 7.409 1.855 11.226 2.039q.41.018.817.028c.072.001.143-.022.199-.069s.091-.113.098-.185c.007-.071-.015-.143-.06-.2s-.111-.093-.182-.106q-.396-.07-.791-.147c-3.688-.717-7.284-1.745-10.884-2.799q-1.54-.455-3.166-.665-.407-.052-.82-.089"/>
  <path fill="#FAB341" d="m397.184 251.226 3.517 48.744c-12.393-2.32-27.178-2.423-39.105.187l-.834.188c-1.928.448-3.716.951-5.348 1.508q-.851.283-1.649.594-.971.374-1.571.848c-.393.315-.677.678-.792 1.084-.241.866.339 1.647 1.384 2.253.036.018.115.066.181.103.478.254 1.04.478 1.65.672.121.036.241.073.374.109.816.261 1.553.557 2.182.89.912.485 1.48.994 1.77 1.478.278.467.302.921.097 1.369-.055.133-.163.279-.315.436l-.181.2q-.082.101-.145.212c-.332.533-.368 1.126-.084 1.696.271.545.833 1.048 1.631 1.484 1.613.884 4.03 1.417 6.544 1.568.338.025.676.043 1.033.043q.744.009 1.48.072c3.1.261 5.976.957 7.964 2.011.55.291.997.6 1.347.909.218.193.405.387.544.569l.024.03.03.024c.284.237.623.449 1.003.661l.019.012c.114.054.284.139.429.206 2.652 1.241 6.942 1.677 10.561 1.163q.952-.136 1.885-.291v.012l.393-.067c2.544-.43 4.979-.969 7.251-1.617 3.74-1.066 6.755-2.332 9.033-3.737 2.278-1.399 3.843-2.949 4.67-4.585.834-1.647.901-3.367.212-5.051-.205-.496-.471-.993-.804-1.478l-4.048-56.169-12.314 1.66zm40.307 1.423 5.867 50.143c-5.655 1.187-10.61 3.065-14.434 5.439-5.106 3.161-8.266 7.244-8.302 11.762-.012 1.302.241 2.574.731 3.797.145.358.308.733.501 1.096.484.915 1.487 1.666 2.762 2.193 1.286.533 2.882.854 4.598.884h.278q1.115 0 2.138-.145h.007c.138-.024.271-.043.404-.067.913-.121 1.867-.187 2.846-.187 2.846 0 5.414.563 7.281 1.471.29.14.556.309.81.473.175.115.368.236.58.351 1.492.812 3.589 1.308 5.921 1.308s4.453-.496 5.952-1.314c.199-.115.386-.224.568-.345.241-.17.507-.333.791-.467 1.885-.908 4.471-1.49 7.323-1.49.786 0 1.553.043 2.284.128.453.054.907.121 1.336.199h.024c.501.043 1.015.073 1.546.073h.562c1.668-.06 3.209-.394 4.447-.92 1.233-.527 2.206-1.26 2.683-2.151.194-.351.363-.714.514-1.072q.672-1.615.773-3.331l.012-.49c.036-4.519-3.069-8.601-8.133-11.762-3.824-2.393-8.797-4.282-14.489-5.463l-6.09-51.772-12.133 1.653z"/>
  <path fill="#FFC95C" d="M359.59 305.081c-2.031-.72-4.067-2.61-.786-3.979-1.396.194-4.211 1.048-6.097 2.15-2.356 1.375-.719 3.277 1.312 4.064 2.03.788 5.063 1.357 5.232 3.083.133 1.363-1.583 2.495-1.124 3.283s2.737 3.119 7.928 3.343c5.993.254 9.027 1.181 10.99 2.229 1.964 1.047 5.318 3.688 9.577 3.319 2.737-.236 3.281-3.41.302-3.786-4.598-.575-6.586-2.78-8.658-3.64-3.879-1.611-6.314-1.968-10.828-2.495s-3.927-1.968-3.099-3.81c.803-1.786-2.647-3.01-4.683-3.737l-.073-.024zm66.385 15.584c-2.23-2.489-1.051-9.902 2.792-12.252-7.293 4.469-7.982 8.782-7.952 12.997.03 4.391 3.601 5.651 6.006 6.208s6.87-.587 10.386-.03c3.517.557 7.456 3.276 10.453 3.385 6.822.249 7.946-1.393 10.266-2.416 2.314-1.024 6.779-1.06 10.671-.691s3.83-3.5 2.429-4.475c-1.88-1.309-8.695-2.235-12.024-.745-3.336 1.484-8.115 2.949-11.922 1.883-2.193-.618-5.172-2.186-11.311-2.186-5.861 0-7.498.878-9.788-1.678z"/>
  <path fill="#000" d="m397.464 251.206-.561.04q.357 6.25.733 12.497 1.09 18.146 2.339 36.279l.859-.768c-4.526-.86-9.109-1.384-13.705-1.63-8.583-.436-17.249-.015-25.692 1.809l-.838.189c-1.828.427-3.64.924-5.423 1.534q-.843.28-1.677.605c-.598.233-1.198.519-1.76.958-.424.344-.852.804-1.041 1.461-.215.685.025 1.5.413 1.981.384.503.847.83 1.31 1.102l.038.02c-.012-.007.083.05.159.091.59.312 1.183.536 1.779.726l.01.003q.188.057.393.114l-.03-.009c.72.229 1.422.5 2.064.838.623.328 1.218.756 1.491 1.208.158.281.17.442.061.699l-.012.028c.006-.001-.071.114-.167.211l-.014.015-.181.2-.024.028c-.084.103-.151.205-.209.305l.011-.019c-.448.661-.504 1.689-.115 2.395.476.904 1.221 1.39 1.929 1.789 2.193 1.141 4.53 1.486 6.843 1.645.345.024.708.043 1.076.042.468.005.945.027 1.42.068 2.673.233 5.393.737 7.704 1.919.444.234.863.504 1.218.815.172.152.336.317.454.471l.009.012.024.03c.019.024.082.086.106.106l.03.024-.009-.008c.364.3.741.525 1.108.729l-.047-.028.018.012c.017.011.068.04.086.048.131.063.278.136.437.209 3.52 1.503 7.274 1.659 10.935 1.195q.951-.138 1.899-.297l-.753-.639v.012c-.001.429.333.709.756.638l.392-.067c2.461-.423 4.907-.958 7.315-1.651 3.168-.921 6.31-2.068 9.177-3.828 1.912-1.195 3.776-2.694 4.875-4.834.88-1.67.97-3.798.216-5.529-.233-.559-.525-1.088-.865-1.581l.097.277q-2.11-28.04-4.263-56.08l-.006-.073c-.013-.205-.182-.34-.386-.314q-6.153.858-12.305 1.719l.037-.002h-.018v.562h.018l.038-.002 12.322-1.6-.386-.314.005.073q1.89 28.058 3.823 56.112c.005.066.059.222.097.277.295.433.546.895.743 1.377.621 1.478.539 3.152-.208 4.571-.939 1.819-2.647 3.22-4.465 4.335-2.722 1.653-5.787 2.762-8.89 3.646-2.358.665-4.763 1.18-7.187 1.584l-.393.066.756.638v-.012c-.001-.427-.332-.71-.753-.639q-.935.153-1.872.284c-3.413.433-7.104.218-10.183-1.129-.135-.062-.271-.13-.426-.205l.086.049-.018-.012-.047-.029c-.332-.186-.644-.379-.898-.591l-.009-.008-.03-.024.105.106-.024-.03.009.011c-.202-.263-.414-.47-.63-.665-.465-.409-.966-.73-1.481-1.005-2.61-1.339-5.427-1.841-8.224-2.102q-.763-.067-1.531-.077c-.33-.001-.656-.018-.991-.043-2.183-.148-4.425-.525-6.252-1.493-.585-.318-1.119-.741-1.333-1.178-.17-.349-.153-.662.053-.997l.011-.019q.043-.073.081-.119l-.024.028.182-.199-.014.014c.151-.164.315-.327.461-.661l-.012.028c.319-.609.221-1.512-.131-2.038-.557-.882-1.315-1.342-2.05-1.748-.75-.397-1.522-.693-2.3-.943l-.029-.009q-.171-.047-.357-.104l.011.003c-.537-.171-1.059-.373-1.527-.622-.04-.022-.062-.04-.197-.112l.038.021c-.736-.414-1.21-1.004-1.044-1.426.061-.223.261-.483.546-.708.376-.296.863-.538 1.375-.734q.805-.312 1.617-.581c1.732-.589 3.499-1.071 5.284-1.486l.829-.186c8.263-1.774 16.824-2.19 25.291-1.758 4.535.242 9.057.745 13.518 1.563.511.094.898-.25.859-.768q-1.368-18.125-2.893-36.239-.525-6.237-1.069-12.472m-.561.04.561-.04-.28.301v-.562c-.171-.001-.29.131-.281.301m40.868 1.371-.559.065q.618 6.081 1.253 12.161 1.99 19.029 4.163 38.034l.579-.805c-3.512.73-6.979 1.76-10.283 3.219-1.51.668-2.984 1.427-4.396 2.303-4.249 2.628-8.583 6.784-8.651 12.393-.014 1.398.27 2.795.787 4.079.158.388.329.78.536 1.169.732 1.323 1.955 2.026 3.133 2.527 1.569.64 3.223.904 4.868.936h.291c.745-.001 1.495-.049 2.241-.155l-.103.007h.007c.025 0 .1-.006.125-.011.118-.021.254-.039.411-.068l-.035.006c.91-.122 1.83-.184 2.749-.185 2.403.004 4.854.386 6.966 1.391.236.112.475.261.735.429.194.127.405.257.627.377 1.975 1.043 4.14 1.378 6.264 1.387 2.135-.016 4.307-.356 6.287-1.409l.014-.009c.193-.111.398-.23.606-.37l.014-.009c.225-.159.455-.298.686-.407 2.142-1.019 4.606-1.426 7.027-1.438.739-.001 1.477.035 2.206.118.432.051.866.114 1.292.191.024.004.097.011.122.011h.024l-.057-.003c.526.044 1.062.074 1.603.072h.284l.266-.001h.037c1.587-.065 3.178-.347 4.681-.983 1.133-.501 2.3-1.191 3-2.45.201-.367.377-.747.537-1.127.465-1.125.749-2.331.815-3.548l.001-.021.011-.491v-.01c.017-5.527-4.247-9.676-8.455-12.277-4.515-2.779-9.576-4.437-14.695-5.495l.436.477q-3.13-25.876-6.3-51.747c-.022-.196-.19-.325-.385-.299l-.063.009q-6.031.85-12.062 1.704c-.327.045-.329.511-.002.558l.042.006.08-.557-.042-.006-.002.557 12.079-1.585.062-.008-.386-.299q2.922 25.9 5.881 51.796c.027.216.224.433.437.477 5.018 1.069 9.961 2.734 14.283 5.431 4.058 2.528 7.879 6.456 7.81 11.248v-.011l-.013.49.001-.021c-.064 1.071-.317 2.125-.733 3.119-.147.346-.307.685-.485 1.006-.444.819-1.382 1.438-2.37 1.858-1.305.546-2.761.806-4.212.858l.024-.001h-.278l-.284-.001c-.491-.001-.987-.03-1.489-.074l-.057-.002h-.024l.121.011q-.688-.126-1.376-.209c-.79-.093-1.578-.135-2.365-.136-2.588.006-5.207.411-7.625 1.545-.318.148-.614.329-.89.522l.013-.009q-.242.159-.53.32l.015-.008c-1.657.882-3.664 1.216-5.617 1.219-1.943-.008-3.934-.349-5.578-1.23q-.262-.143-.529-.321c-.27-.174-.561-.361-.892-.521-2.406-1.146-5.017-1.536-7.593-1.551q-1.476-.002-2.942.191l-.035.005c-.113.021-.248.039-.399.066l.126-.011h-.007c-.02 0-.082.004-.102.007q-1.008.14-2.036.136h-.278.013c-1.49-.03-2.989-.281-4.329-.832-1.009-.417-1.961-1.049-2.388-1.857-.172-.323-.324-.669-.47-1.029-.448-1.119-.687-2.314-.674-3.511.029-4.758 3.873-8.625 7.952-11.132 1.344-.833 2.758-1.561 4.213-2.205 3.185-1.407 6.554-2.421 9.978-3.151.371-.079.625-.429.58-.806q-2.273-18.994-4.73-37.967-.785-6.062-1.588-12.122m-.559.065.559-.065c-.016-.119-.121-.23-.24-.246l-.08.557z"/>
  <path fill="#000" d="M400.989 299.278c-.168-.113-.362-.145-.546-.069s-.343.253-.435.472c-.091.22-.105.458-.029.641.075.184.234.299.433.34.035.006.077.015.117.024.713.152 1.438.31 2.119.514l.109.036c.059.02.13.016.195-.007q.098-.036.148-.118c.032-.054.042-.119.031-.186-.011-.068-.041-.132-.088-.174l-.101-.084c-.606-.483-1.22-.898-1.847-1.319zm42.302 2.767c-.201-.006-.385.069-.513.222-.127.152-.187.37-.167.593.021.222.118.425.271.552s.348.169.544.127l.187-.04c1.15-.235 2.308-.457 3.465-.603l.192-.023c.067-.007.131-.043.178-.095s.075-.117.075-.183q0-.102-.071-.185c-.046-.053-.109-.091-.175-.099l-.199-.025c-1.198-.134-2.388-.192-3.587-.235z"/>
  <path fill="#F5F5F5" d="M416.966 261.389c-5.142 3.162-11.371 3.634-17.166 1.326-5.794-2.307-9.903-7.013-11.625-12.985 0 0 9.081 5.475 14.399 7.498 5.903 2.247 14.398 4.167 14.398 4.167z"/>
  <path fill="#000" d="m417.113 261.629-.294-.48c-.973.525-1.984.966-3.019 1.317-4.149 1.419-8.675 1.313-12.755-.09q-.487-.167-.967-.357c-5.433-2.096-9.643-6.861-11.247-12.478l-1.008.773c4.708 2.719 9.437 5.406 14.566 7.399 3.689 1.332 7.456 2.319 11.246 3.223 1.091.257 2.177.503 3.275.734.3.07.477-.254.261-.474l-.006-.006-.398.398.006.006.261-.473q-1.617-.405-3.231-.847c-3.739-1.03-7.463-2.131-11.045-3.531-4.917-2.057-9.618-4.844-14.231-7.597-.596-.357-1.203.106-1.008.773 1.611 6.001 6.15 11.239 12.004 13.493q.514.205 1.039.384c4.383 1.519 9.363 1.391 13.565-.492 1.05-.463 2.051-1.027 2.986-1.675m-.294-.48.294.48-.346-.041.398-.398c-.085-.089-.238-.099-.346-.041"/>
  <path fill="#fff" d="M461.684 258.161c-4.404 5.887-8.87 8.951-16.344 9.763-7.438.805-12.876-1.726-18.138-6.432 0 0 13.776.763 18.416.418s16.06-3.749 16.06-3.749z"/>
  <path fill="#000" d="m461.909 258.329-.45-.337c-.792.954-1.61 1.872-2.477 2.738-3.411 3.544-7.881 5.717-12.696 6.32-.344.049-.679.091-1.027.128-6.469.893-12.816-1.763-17.601-6.196l-.494 1.193c6.153.251 12.275.581 18.492.251 4.346-.522 8.42-1.755 12.538-2.918 1.188-.348 2.391-.709 3.565-1.078l-.081.012h.006v-.563h-.006c-.017.001-.064.007-.08.012-1.178.326-2.392.649-3.586.958-4.119 1.03-8.294 2.15-12.432 2.545-6.049.179-12.232-.258-18.341-.585-.717-.038-1.03.716-.493 1.193 4.828 4.637 11.829 7.642 18.675 6.667.364-.039.716-.083 1.077-.135 5.062-.606 9.967-3.263 13.146-7.193.819-.963 1.565-1.971 2.265-3.012m-.45-.337.45.337c.146-.217.037-.453-.225-.45v.563z"/>
  <path fill="#000" d="M427.389 261.282c-.058-.042-.129-.065-.201-.06s-.139.038-.186.091c-.048.053-.073.123-.07.195s.034.141.082.193q.682.737 1.413 1.424c1.951 1.832 4.235 3.4 6.804 4.367 3.238 1.241 6.793 1.541 10.184 1.125 6.037-.517 11.808-3.851 15.309-8.682q.612-.787 1.185-1.606c.043-.06.061-.134.05-.207s-.05-.139-.109-.183-.132-.063-.206-.053-.139.049-.185.106q-.615.772-1.261 1.507c-3.757 4.533-9.138 7.33-14.933 7.732-3.233.325-6.502.006-9.504-1.143-2.379-.896-4.616-2.183-6.769-3.664q-.807-.554-1.603-1.142m-10.276.347c.057-.044.099-.106.114-.176.015-.071.004-.144-.034-.204-.037-.06-.096-.104-.166-.122s-.144-.008-.208.022q-.804.385-1.624.703c-2.187.851-4.456 1.352-6.749 1.512-2.838.201-5.715-.268-8.387-1.298-4.911-1.844-8.963-5.81-10.996-10.754q-.342-.815-.618-1.66c-.022-.07-.071-.129-.135-.164s-.141-.044-.211-.024c-.071.021-.131.068-.167.133-.036.064-.045.14-.027.211q.222.884.52 1.747c1.75 5.232 5.892 9.719 11.117 11.81 2.826 1.166 5.934 1.714 9.008 1.496 2.486-.171 4.929-.937 7.042-2.201q.793-.474 1.521-1.031"/>
  <path fill="#fff" fill-rule="evenodd" d="M378.731 51.23c-.344-5.117-.344-8.14.598-13.33.943-5.19 2.617-10.163 5.517-14.56 3.825-5.809 9.311-9.885 15.933-11.974.127.012 13.184-14.16 31.202-9.745.646.157.918.969.471 1.465-.828.927-2.695 1.648-4.078 2.132 2.102 1.272 3.637 2.52 4.356 3.731.32.54.018 1.23-.58 1.405-.544.164-1.595.012-2.761.012-2.719 0-5.825-.878-10.677 2.484 0 0 11.734 3.222 17.716 12.5 5.982 9.28 5.009 23.936 3.964 28.993-1.052 5.058-10.671 41.567-11.088 43.093s-4.888 16.965-3.154 24.493c1.734 7.535 3.523 14.276 10.302 22.864s20.598 16.807 25.486 19.018c4.84 2.192 8.906 5.208 27.45 8.031.344.054.689-.085.9-.364 1.547-2.053 7.927-10.623 10.115-14.966.163-.327.61-.381.84-.096 1.166 1.453 3.752 6.22 2.845 17.515 0 0 4.296-4.754 6.284-7.461.417-.57 1.305-.412 1.499.272 1.063 3.828 2.404 15.014-2.157 31.525-5.94 21.495-16.973 36.14-23.915 43.934-6.937 7.795-15.136 14.015-30.483 18.546s-38.942 1.526-47.721-.473c-8.774-2.004-22.652-5.317-33.528-19.387-10.876-14.063-13.517-27.618-12.574-39.84 0 0 .097-2.459.362-5.7 1.179-14.354 4.466-24.184 8.121-35.11 5.088-15.202 15.166-40.591 15.903-43.002.737-2.41 8-22.433 8.085-27.206.042-2.453 1.595-6.238.332-9.678-1.994-5.433-3.051-4.912-3.051-4.912s15.069-1.115 17.751-10.012-8.598-8.897-8.598-8.897l-21.262-.648z" clip-rule="evenodd"/>
  <path fill="url(#a)" fill-rule="evenodd" d="M378.731 51.23c-.344-5.117-.344-8.14.598-13.33.943-5.19 2.617-10.163 5.517-14.56 3.825-5.809 9.311-9.885 15.933-11.974.127.012 13.184-14.16 31.202-9.745.646.157.918.969.471 1.465-.828.927-2.695 1.648-4.078 2.132 2.102 1.272 3.637 2.52 4.356 3.731.32.54.018 1.23-.58 1.405-.544.164-1.595.012-2.761.012-2.719 0-5.825-.878-10.677 2.484 0 0 11.734 3.222 17.716 12.5 5.982 9.28 5.009 23.936 3.964 28.993-1.052 5.058-10.671 41.567-11.088 43.093s-4.888 16.965-3.154 24.493c1.734 7.535 3.523 14.276 10.302 22.864s20.598 16.807 25.486 19.018c4.84 2.192 8.906 5.208 27.45 8.031.344.054.689-.085.9-.364 1.547-2.053 7.927-10.623 10.115-14.966.163-.327.61-.381.84-.096 1.166 1.453 3.752 6.22 2.845 17.515 0 0 4.296-4.754 6.284-7.461.417-.57 1.305-.412 1.499.272 1.063 3.828 2.404 15.014-2.157 31.525-5.94 21.495-16.973 36.14-23.915 43.934-6.937 7.795-15.136 14.015-30.483 18.546s-38.942 1.526-47.721-.473c-8.774-2.004-22.652-5.317-33.528-19.387-10.876-14.063-13.517-27.618-12.574-39.84 0 0 .097-2.459.362-5.7 1.179-14.354 4.466-24.184 8.121-35.11 5.088-15.202 15.166-40.591 15.903-43.002.737-2.41 8-22.433 8.085-27.206.042-2.453 1.595-6.238.332-9.678-1.994-5.433-3.051-4.912-3.051-4.912s15.069-1.115 17.751-10.012-8.598-8.897-8.598-8.897l-21.262-.648z" clip-rule="evenodd"/>
  <path fill="#F5F5F5" fill-rule="evenodd" d="M394.308 88.194s2.248-6.596-1.777-10.557c-2.7-2.659 16.888-4.191 16.888-4.191s-5.963 15.057-15.117 14.748zm-29.021 136.128 46.857-13.888c-14.634-4.148-31.842-5.475-50.826-4.833 0 0 .634 10.163 3.969 18.721M432.76 9.785s-3.383-2.387-9.129-2.047-10.683 4.512-10.683 4.512 3.97-.351 6.006.442c0 0 1.523-1.4 4.084-2.114 2.967-.824 7.167-.4 7.167-.4s1.22.146 1.649.03c.429-.114.912-.43.912-.43z" clip-rule="evenodd"/>
  <path fill="#000" d="M440.736 263.469c.129-.009.25-.068.335-.165s.129-.223.121-.352-.066-.25-.163-.335-.224-.13-.353-.122c-5.117.303-10.261.193-15.378-.199-5.378-.419-10.743-1.131-16.02-2.215-.517-.108-1.052-.224-1.561-.341-12.863-2.533-25.288-8.637-33.149-19.24-6.608-8.513-11.025-18.757-12.127-29.469-.823-8.666.086-17.571 1.499-26.204 1.382-8.314 4.044-16.322 6.748-24.352l.317-.942c4.829-14.143 10.355-27.971 15.592-42.078 3.598-12.129 9.794-23.763 8.331-37.5l-3.052-4.912-.582 1.144c6.953-.897 15.594-2.78 18.416-10.543.852-2.427.518-5.864-1.846-7.573-2.224-1.698-4.862-2.184-7.471-2.292h.023l-21.263-.648.725.686-.404-4.652.001.015c-.353-4.446-.272-8.794.588-13.146.914-5.063 2.589-10.016 5.405-14.281 3.608-5.554 9.203-9.715 15.531-11.671l-.297.031c9.193-8.161 19.986-12.541 31.095-9.763.096.005.153.204.091.234-.828.855-2.368 1.425-3.768 1.925-.676.237-.754.981-.141 1.352 1.585.975 3.227 2.079 4.1 3.472.063.08-.004.265-.146.3-.5.116-1.619-.027-2.55-.018-3.548-.412-8.032.218-11.104 2.618-.59.409-.464 1.15.229 1.34 6.771 2.163 13.375 6.182 17.288 12.181 5.035 8.293 5.385 18.933 3.875 28.442-3.432 14.327-7.3 28.76-11.037 43.059-2.064 8.011-4.458 16.23-3.13 24.822 1.686 8.273 5.007 16.503 10.457 23.099 7.018 8.325 16.151 14.3 25.741 19.144q1.12.504 2.258.98c9.842 4.082 20.283 6.364 30.744 7.97.127.019.256-.012.359-.088.104-.076.172-.19.192-.316.019-.127-.012-.256-.088-.359s-.189-.172-.316-.192c-10.404-1.647-20.769-3.967-30.462-8.036q-1.122-.475-2.226-.977c-9.352-4.76-18.504-10.83-25.231-18.892-5.327-6.516-8.476-14.374-10.147-22.628-1.225-7.914 1.098-16.275 3.178-24.162 3.782-14.338 7.654-28.669 11.138-43.128 1.56-9.915 1.305-20.612-4.052-29.545-4.216-6.424-10.989-10.526-18.144-12.821l.229 1.34c2.991-2.218 6.375-2.722 10.249-2.348.911-.034 1.654.205 2.978-.044 1.006-.262 1.598-1.565 1.009-2.509-1.219-1.89-2.947-2.94-4.613-3.99l-.141 1.352c1.477-.56 3.009-.978 4.391-2.34.836-.898.302-2.445-.854-2.696-11.309-3.066-24.357 2.175-31.308 9.727-.064-.006-.236.012-.298.031-6.629 2.045-12.549 6.445-16.334 12.278-2.956 4.478-4.689 9.636-5.628 14.839-.88 4.422-.968 9.063-.609 13.515l.001.014.405 4.652c.033.374.35.674.725.685l21.263.648h.023c2.283.08 4.799.603 6.532 1.963 1.797 1.34 2.07 3.743 1.347 5.967-2.218 6.534-10.445 8.695-17.088 9.48-.632.047-.917.607-.583 1.145l3.052 4.912c1.021 11.543-4.787 24.359-8.491 36.269-5.166 13.901-10.74 27.867-15.578 42.036l-.319.947c-2.697 8.013-5.391 16.145-6.775 24.576-1.411 8.777-2.311 17.661-1.436 26.614 1.166 10.968 5.746 21.449 12.513 30.085 8.083 10.833 20.968 17.055 33.906 19.535.518.117 1.061.233 1.585.34 5.341 1.075 10.74 1.77 16.163 2.176 5.158.377 10.345.469 15.515.144m67.577-58.929c.039-.126.029-.263-.03-.382s-.163-.21-.288-.253c-.125-.042-.263-.033-.382.025-.12.058-.211.161-.257.286-.494 1.355-1.007 2.686-1.548 4.019-2.152 5.311-4.679 10.478-7.544 15.434-3.716 6.43-8.081 12.499-12.996 18.061-7.756 9.181-18.579 15.149-30.097 18.512-.609.185-1.213.365-1.82.531-1.37.38-2.759.646-4.178.863-.126.02-.24.088-.317.191-.076.103-.108.232-.09.358.019.127.087.241.189.318s.232.109.359.092c1.436-.196 2.887-.45 4.302-.819.626-.161 1.242-.335 1.857-.512 11.657-3.203 22.909-9.249 30.868-18.579 5.012-5.607 9.455-11.747 13.222-18.265 2.904-5.024 5.374-10.315 7.353-15.759.497-1.367.959-2.732 1.397-4.121"/>
  <path fill="#000" d="M491.027 169.662c-.077.106-.11.238-.092.368s.087.247.191.327c.104.079.235.113.365.096.131-.017.248-.085.33-.187.843-1.063 1.634-2.155 2.415-3.251 2.267-3.214 4.453-6.474 6.365-9.955.072-.158.334-.163.425.006.343.555.624 1.241.859 1.917 1.578 4.877 1.662 10.239 1.284 15.447-.063.788.799 1.135 1.3.524 2.181-2.692 4.361-5.38 6.457-8.171.084-.151.377-.1.408.078 1.933 8.877.796 18.402-1.167 27.39-.296 1.311-.613 2.589-.961 3.889-.036.133-.018.275.05.395.068.119.181.207.313.244.133.036.275.019.395-.049s.208-.18.245-.312c.372-1.308.711-2.595 1.03-3.916 2.103-9.099 3.413-18.595 1.446-28.003-.273-1.27-2.15-1.647-2.891-.561-2.076 2.726-4.281 5.417-6.461 8.086l1.3.523c.4-5.339.364-10.792-1.33-16.053-.26-.744-.559-1.493-1.011-2.221-.61-1.093-2.444-1.073-2.995.094-1.818 3.398-3.916 6.712-6.035 9.984-.73 1.116-1.471 2.242-2.235 3.311m-77.84-157.681c-.068.008-.133.045-.18.099s-.072.121-.07.19.032.134.082.186c.05.05.117.084.185.087q.138.008.275.018c1.642.12 3.271.448 4.806.937.084.027.172.057.24.082.188.068.388.055.561-.044.172-.1.301-.278.357-.487s.032-.427-.067-.6c-.1-.172-.268-.283-.464-.318-.113-.021-.2-.034-.3-.049-1.726-.243-3.441-.292-5.142-.13q-.14.012-.283.03m-38.455 177.442c-.002-.073-.032-.143-.084-.195s-.124-.081-.197-.081-.144.029-.196.081-.083.122-.085.195c-.032.922-.054 1.837-.065 2.757-.143 7.965.849 16.062 3.365 23.686q.136.43.288.861c.442 1.25.994 2.504 1.792 3.639.358.502.783.943 1.358 1.285.541.338 1.465.559 2.206.128.574-.321.862-.816 1.07-1.219.756-1.402.864-3.184.454-4.656-.179-.755-1.329-.588-1.288.187.306 4.296 2.532 8.126 5.337 11.121.636.678 1.31 1.32 2.013 1.922.056.048.128.074.201.07s.143-.036.193-.09c.049-.054.076-.126.073-.199s-.034-.143-.087-.195c-.646-.635-1.261-1.303-1.837-1.998-2.547-3.074-4.44-6.806-4.589-10.703l-1.287.187c.303 1.304.182 2.571-.442 3.705-.162.313-.346.532-.495.603-.318.254-1.196-.275-1.664-.994-.678-.985-1.176-2.114-1.592-3.293q-.143-.406-.276-.819c-2.486-7.491-3.703-15.314-4.052-23.243-.045-.913-.083-1.823-.114-2.742"/>
  <path fill="#247A64" d="M370.447 98.32c.617-4.282 2.29-7.595 3.45-9.472.659-1.06 2-1.472 3.136-.957 2.695 1.211 7.74 3.78 11.619 7.42 1.076-1.073 2.617-1.648 4.23-1.412h-.006l4.652.678c1.692.243 3.064 1.315 3.759 2.75 4.815-2.49 10.537-3.55 13.528-3.955 1.239-.17 2.405.606 2.731 1.811.58 2.138 1.239 5.784.622 10.066-.616 4.282-2.277 7.589-3.45 9.473-.658 1.06-2 1.477-3.135.957-2.75-1.23-7.916-3.865-11.825-7.608-1.076 1.2-2.707 1.854-4.411 1.605l-4.652-.678c-1.632-.236-2.955-1.242-3.674-2.592-4.749 2.374-10.296 3.398-13.22 3.797-1.239.164-2.405-.605-2.731-1.811-.58-2.138-1.245-5.784-.623-10.066z"/>
  <path fill="#589D88" d="m387.71 96.897.924-1.218c-.332-.533-1.48-1.926-3.414-3.216-2.41-1.61-6.809-4.094-8.416-4.536s-2.49.593-3.583 2.52c.634-.103 2.145.03 4.773 1.108 2.103.86 7.353 3.918 9.716 5.342m29.19-1.43c.954-.212.634-1.047-.296-1.647-.798-.515-1.674-.454-2.683-.248-3.704.8-7.426 1.98-11.293 3.252-.344.164-.804.333-.997.739-.157.345-.127.575.133 1.338 2.737-1.12 13.704-3.125 15.136-3.44z"/>
  <path fill="#589D88" d="M394.761 94.214c-3.915-.636-5.516.32-7.081 2.895 2.314-.06 6.471.175 9.794 1.09s4.755 0 3.867-1.108-2.671-2.241-6.586-2.883z"/>
  <path fill="#000" d="M386.085 107.165c.064-.034.114-.09.139-.159.025-.068.023-.143-.007-.209s-.084-.117-.152-.144-.143-.026-.211-.001q-1.254.459-2.53.832c-3.153.922-6.382 1.537-9.624 1.972-.183.023-.37.017-.551-.016-.642-.115-1.192-.617-1.358-1.249-.858-3.166-1.096-6.515-.649-9.77.444-3.255 1.574-6.427 3.263-9.26.454-.796 1.544-1.162 2.403-.774 3.27 1.473 6.451 3.315 9.432 5.371.728.51 1.445 1.04 2.134 1.597.057.046.13.07.204.063.074-.006.142-.041.19-.098.047-.056.071-.129.065-.203-.006-.073-.04-.142-.095-.19-.675-.6-1.378-1.172-2.095-1.72-2.94-2.22-6.048-4.182-9.386-5.813-1.323-.652-3.086-.139-3.866 1.14-1.854 2.93-3.115 6.238-3.638 9.686-.526 3.448-.306 6.994.595 10.362.302 1.175 1.332 2.122 2.526 2.332.338.063.686.071 1.025.025 3.332-.474 6.62-1.308 9.727-2.607.837-.351 1.66-.739 2.459-1.167"/>
  <path fill="#000" d="M386.768 103.375c-.002-.069-.024-.139-.068-.194-.044-.056-.106-.092-.174-.102s-.138.008-.195.048c-.058.041-.099.102-.12.168-.118.38-.189.781-.207 1.19-.086 1.639.765 3.363 2.196 4.321.713.487 1.543.804 2.395.92q2.327.321 4.662.606c2.992.444 5.918-1.974 6.115-4.828l-.002.011.105-.858.131-1.11c.008-.073-.009-.146-.052-.206-.043-.059-.107-.1-.178-.112-.072-.012-.145.004-.206.046-.06.041-.102.105-.118.175l-.251 1.091-.19.842-.002.011c-.431 2.414-2.917 4.058-5.16 3.614q-2.317-.393-4.641-.75c-.634-.097-1.239-.334-1.764-.692-1.043-.71-1.835-1.816-2.142-3.152q-.117-.502-.134-1.039m-.056-3.346c.003.07.026.139.071.193.044.055.107.091.175.099s.138-.01.195-.051c.057-.042.097-.103.117-.17q.164-.542.308-1.086.11-.411.209-.824c.282-1.039.868-1.933 1.654-2.595.91-.774 2.144-1.142 3.338-.983l.103-1.433h-.006c-.859 0-.954 1.308-.104 1.433q2.331.306 4.667.576c1.97.181 3.741 1.866 3.998 3.959q.07.517.025 1.047c-.007.072.013.145.057.203s.109.097.181.108.145-.008.204-.051c.06-.043.1-.108.114-.179.078-.386.112-.783.101-1.181-.028-2.417-1.98-4.738-4.502-5.127q-2.315-.41-4.637-.78l-.104 1.432h.006c.859 0 .954-1.31.103-1.433-1.585-.26-3.283.215-4.511 1.262-1.069.89-1.731 2.246-1.782 3.594q-.01.435-.006.858.003.564.026 1.129"/>
  <path fill="#000" d="M400.681 108.479c-.057-.044-.129-.068-.202-.062-.072.005-.14.038-.187.092-.048.054-.073.125-.069.198s.035.141.086.193c.645.654 1.327 1.274 2.034 1.864 2.685 2.226 5.7 4.031 8.873 5.471.228.104.472.182.722.23 1.286.26 2.681-.358 3.355-1.476 1.825-2.974 3.036-6.312 3.509-9.767.471-3.456.203-6.986-.74-10.323-.384-1.445-1.925-2.444-3.382-2.196-3.759.609-7.413 1.624-10.928 3.039-.848.346-1.685.723-2.502 1.138-.066.033-.117.09-.141.16-.025.07-.02.147.012.213.031.067.088.118.158.143s.147.021.214-.01c.819-.369 1.657-.702 2.504-1.006 3.505-1.24 7.172-2.114 10.831-2.593.933-.128 1.871.533 2.082 1.428.813 3.195.996 6.558.504 9.807-.494 3.247-1.669 6.393-3.392 9.179-.364.601-1.118.929-1.802.791q-.2-.039-.389-.123c-3.092-1.382-6.111-2.957-8.95-4.827q-1.125-.742-2.2-1.563"/>
  <path fill="#000" fill-rule="evenodd" d="M395.468 24.412c-.731-1.254-2.387-2.253-5.136-2.314s-4.06 1.012-4.979 2.217c-.187.248.085.545.369.424.066-.03.139-.055.211-.085 1.009-.418 2.254-.933 4.369-.92 2.26.018 3.674.617 4.562 1.114.302.17.779-.152.604-.448zm27.933 1.828c-2.634-1.168-4.725-1.065-6.205-.75-.308.066-.52-.273-.272-.467 1.16-.902 3.752-2.004 7.069-.684 2.961 1.175 4.32 3.525 4.296 5.051-.006.357-.737.376-.924.067-.502-.836-1.33-2.047-3.964-3.216" clip-rule="evenodd"/>
  <path fill="#000" d="M391.369 40.245c.112-2.325-1.686-4.301-4.016-4.413s-4.309 1.683-4.421 4.008 1.686 4.301 4.016 4.413 4.309-1.683 4.421-4.008"/>
  <path fill="#AAA" fill-rule="evenodd" d="M385.39 38.572c-.031.618.447 1.145 1.069 1.175s1.148-.448 1.178-1.066c.031-.617-.447-1.145-1.069-1.175-.616-.03-1.148.448-1.178 1.066" clip-rule="evenodd"/>
  <path fill="#000" d="M420.634 44.462c.111-2.325-1.687-4.301-4.017-4.413s-4.309 1.682-4.42 4.007c-.112 2.326 1.687 4.302 4.016 4.414 2.33.112 4.309-1.682 4.421-4.008"/>
  <path fill="#AAA" fill-rule="evenodd" d="M414.646 42.788c-.03.617.447 1.144 1.069 1.175.623.03 1.148-.449 1.179-1.066.03-.618-.448-1.145-1.07-1.175-.616-.03-1.148.448-1.178 1.066" clip-rule="evenodd"/>
  <path fill="#FAB341" fill-rule="evenodd" d="M415.003 60.388c-.713-3.125-4.055-9.006-15.964-8.861-6.024-.024-13.51 0-18.471-.57-7.377-.841-12.846-2.628-16.495-4.021-5.16-1.968-6.991-1.532-7.631-.351-.707 1.29.127 3.53 1.927 5.59 3.438 3.937 9.631 6.99 20.562 7.898 10.93.902 18.175-2.035 21.292 2.75 1.348 2.059.303 6.928-10.271 8.455-14.29 2.065-26.018-2.496-27.468.266-1.45 2.75 6.906 8.352 21.208 8.467 14.308.115 23.244-5.02 26.416-7.577 4.018-3.246 5.819-7.97 4.895-12.052h.006z" clip-rule="evenodd"/>
  <path fill="#000" d="M378.909 51.274c.134.013.269-.026.375-.11.106-.085.174-.208.19-.342.015-.135-.024-.27-.108-.376-.084-.107-.207-.175-.341-.192-2.782-.349-5.536-.858-8.212-1.623-2.21-.623-4.345-1.452-6.513-2.306-1.292-.5-2.604-.96-4.011-1.246-.708-.136-1.437-.239-2.232-.166-.766.051-1.798.46-2.24 1.336-1.043 2.784.71 4.746 1.997 6.406 2.883 3.322 6.939 5.249 10.993 6.425 3.297.95 6.669 1.455 10.056 1.739 3.749.32 7.498.16 11.188-.016 3.559-.099 7.761-.484 9.553 2.42 1.113 1.742-.589 4.125-2.675 5.203-2.111 1.184-4.601 1.777-7.085 2.148-4.533.665-9.139.686-13.73.34-2.288-.167-4.593-.434-6.905-.678-1.161-.118-2.313-.237-3.523-.266-.6-.01-1.206-.004-1.856.104-.609.114-1.466.317-1.93 1.166-.704 1.515.339 2.728 1.041 3.473.791.795 1.684 1.393 2.61 1.923 1.848 1.044 3.818 1.773 5.821 2.344 4.016 1.128 8.166 1.587 12.309 1.61h-.015c6.248-.016 12.41-1.179 18.243-3.31 2.678-.991 5.262-2.21 7.712-3.686.108-.066.186-.17.216-.293.031-.122.012-.25-.053-.359-.064-.108-.169-.186-.291-.217-.122-.03-.251-.012-.36.052-2.406 1.423-4.944 2.594-7.575 3.544-5.712 2.041-11.845 3.138-17.852 3.111h-.016c-4.056-.05-8.107-.528-11.978-1.641-1.928-.561-3.816-1.278-5.529-2.26-.855-.494-1.668-1.055-2.321-1.72-.648-.638-1.098-1.518-.807-1.962 7.28-1.301 17.917 1.897 26.992.132 2.587-.381 5.205-.972 7.595-2.298 2.25-1.17 4.986-4.156 3.188-7.261-2.554-3.85-7.354-3.132-10.841-3.102-3.713.171-7.359.32-11.003.007-3.315-.28-6.598-.775-9.762-1.688-3.896-1.128-7.679-2.945-10.312-5.944-1.239-1.393-2.451-3.504-1.859-4.772.315-.748 1.743-.75 2.978-.506 1.27.241 2.545.664 3.803 1.13 2.165.818 4.382 1.64 6.661 2.237 2.762.737 5.585 1.199 8.414 1.49"/>
  <path fill="#9F6EB8" d="M262.981 140.269c-26.579 21.761-30.99 60.433-9.849 86.379l113.34-92.805-86.404-7.571-17.093 13.997z"/>
  <path fill="#C19EDB" d="M270.226 212.657c-21.142-25.94-16.731-64.612 9.848-86.379 26.58-21.761 65.262-18.376 86.404 7.571z"/>
  <path fill="#000" d="M314.77 112.671c.136-.012.263-.078.351-.183.089-.105.132-.24.12-.377-.011-.136-.076-.263-.181-.352s-.24-.132-.377-.121c-5.795.453-11.53 1.723-16.985 3.755-6.531 2.428-12.653 5.956-18.059 10.361q-8.567 6.973-17.125 13.958c-6.897 5.617-12.626 12.68-16.649 20.621-10.953 21.035-8.622 48.47 6.695 66.783.261.322.709.366 1.029.104q56.645-46.434 113.236-92.931c.249-.203.283-.55.081-.799-5.427-6.65-12.302-12.108-20.015-15.863-5.226-2.552-10.823-4.332-16.554-5.295-.128-.021-.259.009-.365.084s-.177.189-.199.317c-.022.127.008.258.083.364s.189.178.317.2c5.636.969 11.132 2.742 16.258 5.269 7.564 3.717 14.29 9.098 19.594 15.642l.081-.798q-56.748 46.307-113.443 92.679l1.03.104c-14.921-17.88-17.184-44.636-6.49-65.182 3.928-7.753 9.508-14.657 16.233-20.172q8.536-7.012 17.061-14.037c5.269-4.346 11.239-7.846 17.626-10.283 5.333-2.039 10.952-3.341 16.647-3.848"/>
  <path stroke="#000" stroke-linecap="round" stroke-linejoin="round" d="M324.563 112.112c-1.396-.103-2.804-.164-4.205-.176"/>
  <path fill="#247A64" d="M210.638 161.732c-2.731-5.742-10.193-6.747-18.815-15.323-10.731-10.672-5.07-15.257-13.233-28.012-8.163-12.749-11.528-10.587-19.685-23.336-6.024-9.418-2.967-17.916-6.743-23.597L60.145 130.65c3.577 5.808 12.562 6.565 18.592 15.983 8.163 12.755 4.798 14.917 12.96 27.667 8.164 12.749 11.529 10.587 19.686 23.336 6.024 9.418 2.967 17.915 6.743 23.596l92.518-59.494z"/>
  <path fill="#589D88" d="M191.859 173.809c-2.78-5.711-9.885-6.947-18.338-15.626-10.526-10.805-5.317-15.099-13.48-27.848-8.163-12.75-11.275-10.751-19.438-23.5-6.024-9.418-3.414-17.625-7.184-23.312L48.273 138.28c3.588 5.802 12.12 6.85 18.144 16.268 8.163 12.755 5.045 14.754 13.208 27.509 8.163 12.749 11.275 10.75 19.438 23.5 6.024 9.418 3.414 17.624 7.184 23.312l85.612-55.055z"/>
  <path fill="#000" d="M66.834 154.282c-.07-.11-.183-.188-.31-.216-.129-.028-.263-.004-.373.067-.11.07-.188.182-.217.31s-.004.262.066.373c4.13 5.98 5.953 12.819 8.737 19.611 1.236 2.768 2.739 5.4 4.367 7.965 5.091 9.176 14.427 14.6 19.368 23.544 4.957 6.726 2.997 15.465 7.159 23.342.228.344.669.436 1.016.213q9.346-5.997 18.686-12.004 33.467-21.52 66.924-43.053l18.768-12.085c.303-.194.418-.598.264-.923-4.856-7.668-13.622-9.308-18.968-15.518-8.722-6.753-6.511-19.069-13.151-27.88-5.124-9.23-14.766-14.339-19.706-23.323-5.042-6.777-2.64-15.662-6.767-23.594-.2-.302-.588-.382-.893-.187q-34.642 22.324-69.277 44.661l-5.722 3.691-18.154 11.713c-.116.075-.197.192-.226.326s-.003.274.07.39c.075.115.192.196.326.225s.275.004.39-.07l18.187-11.663 5.73-3.676q34.695-22.246 69.379-44.505l-.892-.186c3.703 6.81 1.485 16.485 6.718 23.599 5.104 9.237 14.74 14.363 19.666 23.349 6.366 8.236 4.23 20.984 13.314 28.144 5.46 6.274 14.743 8.587 18.662 15.128l.264-.923q-9.39 6.033-18.778 12.069-33.474 21.509-66.939 43.03-9.34 6.006-18.675 12.022l1.016.213c-3.722-6.682-2.032-16.273-7.209-23.282-5.148-9.16-14.51-14.526-19.507-23.455-1.624-2.52-3.115-5.091-4.34-7.78-2.725-6.496-4.758-13.704-8.973-19.662"/>
  <path stroke="#000" stroke-linecap="round" stroke-linejoin="round" d="M58.877 146.718c1.625 1.175 3.274 2.544 4.84 4.276"/>
  <path fill="#F5A031" d="M88.497 97.042c26.676 3.355 50.784-13.779 53.854-38.266L28.601 44.464l42.748 50.422 17.154 2.156z"/>
  <path fill="#FFC95C" d="M125.197 56.62c-3.069 24.487-27.178 41.621-53.854 38.266S25.531 68.957 28.594 44.464l96.597 12.156z"/>
  <path fill="#000" d="M30.245 60.549c-.035-.123-.117-.228-.228-.29-.112-.064-.243-.08-.367-.046-.123.034-.228.116-.29.227-.064.111-.08.243-.048.367 1.12 4.185 2.885 8.196 5.177 11.877 7.885 12.738 21.95 21.14 36.76 22.936l7.156.903 9.998 1.256c24.502 3.755 51.887-13.312 54.645-38.922.05-.394-.215-.734-.61-.785l-17.156-2.134q-39.261-4.887-78.528-9.73l-12.75-1.572c-.13-.016-.263.02-.367.101-.105.081-.172.2-.189.331-.016.131.02.263.1.368.082.104.2.172.332.189l12.74 1.635q39.243 5.036 78.491 10.029l17.151 2.177-.61-.785c-2.703 24.711-29.224 41.263-53.063 37.61q-4.998-.63-9.998-1.257-3.577-.45-7.156-.896C57.03 92.413 43.324 84.375 35.47 72.065c-2.282-3.559-4.063-7.444-5.225-11.516"/>
  <path stroke="#000" stroke-linecap="round" stroke-linejoin="round" d="M28.28 50.242c.03 1.963.2 3.907.502 5.815"/>
  <path fill="#F05F2B" d="M204.245 248.501c-7.861-7.595-8.084-20.139-.514-28.012l26.828-27.891-30.477-29.447-36.084 37.515c-18.652 19.393-18.084 50.263 1.257 68.96l40.875 39.501 29.305-30.47-31.202-30.15z"/>
  <path fill="#FF8D5C" d="M188.088 265.296c-7.861-7.595-8.084-20.139-.513-28.012l26.827-27.891-30.477-29.447-36.084 37.514c-18.652 19.394-18.084 50.264 1.257 68.961l40.875 39.501 29.305-30.471-31.202-30.149z"/>
  <path fill="#000" d="M135.123 257.455c-.018-.133-.087-.253-.193-.335s-.24-.118-.373-.102c-.133.017-.253.086-.335.192s-.119.24-.103.373c.852 6.98 3.22 13.781 6.92 19.779 2.135 3.469 4.707 6.669 7.629 9.51q20.375 19.816 40.8 39.58c.303.294.761.285 1.055-.019q5.066-5.26 10.129-10.523l6.031-6.269q14.65-15.236 29.3-30.475c.291-.302.282-.758-.02-1.05q-15.604-15.07-31.212-30.138c-7.478-6.879-7.724-19.832-.508-26.997l10.663-11.103 16.144-16.807c.267-.277.259-.696-.017-.963q-15.252-14.712-30.505-29.419c-.261-.253-.656-.245-.909.017l-23.042 24.016q-14.564 15.18-29.125 30.364c-2.432 2.535-4.595 5.326-6.436 8.317-3.693 5.991-6.064 12.786-6.917 19.765-.017.132.02.265.102.37s.202.173.334.19c.132.016.265-.02.37-.102s.173-.202.19-.334c.858-6.835 3.199-13.479 6.83-19.328 1.809-2.921 3.932-5.644 6.318-8.117q14.604-15.141 29.206-30.287 11.549-11.98 23.096-23.964l-.909.017q15.222 14.739 30.449 29.475l-.018-.963-16.169 16.783-10.678 11.089c-7.764 7.69-7.521 21.611.52 29.027q15.593 15.082 31.19 30.161l-.019-1.05q-14.657 15.232-29.309 30.467l-6.031 6.268q-5.062 5.264-10.123 10.53l1.055-.02q-20.45-19.737-40.951-39.422c-2.866-2.751-5.396-5.853-7.505-9.222-3.653-5.825-6.026-12.451-6.924-19.281"/>
  <path fill="#fff" fill-rule="evenodd" d="M420.592 154.587c-3.589-6.869-10.357-10.066-17.462-8.304-10.562 2.623-52.398 6.19-74.881 1.29l-25.987-5.342s-9.003-1.587-10.188 2.829c-1.184 4.415 4.611 10.508 10.798 13.155 0 0-8.495-1.624-9.867 2.925-1.378 4.548 3.909 8.703 7.093 10.369l3.191 1.671s-3.148-.218-3.722 1.333c-.611 1.653-1.583 6.487 12.265 14.324 12.532 7.092 43.407 30.228 96.252 19.096 7.595-1.599 6.967-3.161 11.335-11.677 6.943-13.536 7.402-29.744 1.167-41.663z" clip-rule="evenodd"/>
  <path stroke="#000" stroke-linecap="round" stroke-linejoin="round" d="M409.722 209.962c.797.169 4.988 1.159 6.144 1.407"/>
  <path fill="#000" d="M414.511 142.977c.12-.061.211-.167.254-.295.042-.127.033-.267-.028-.387-.06-.121-.165-.212-.293-.255s-.267-.033-.388.026c-4.412 1.982-9.191 3.298-13.974 4.304q-1.508.312-3.035.576c-16.594 1.803-33.724 2.427-50.411 1.994l-.022-.001c-1.758-.094-3.535-.267-5.306-.471-12.609-1.549-25.109-4.245-37.615-6.723-1.151-.229-2.32-.398-3.498-.483-1.655-.113-3.356-.123-5.066.331-1.672.386-3.537 1.759-3.866 3.699l-.003.015c-.087 7.059 6.01 10.933 11.247 13.544l.421-1.38c-2.06-.378-4.19-.53-6.321.001-2.065.456-4.358 2.162-4.533 4.623-.089 4.883 3.938 7.763 7.351 9.837l.018.01c1.117.602 2.241 1.168 3.339 1.754l.017.009.076.038.025.013c-.011-.013.042.047-.126-.098l.496-1.198c-1.348.039-3.481-.093-4.408 1.927l-.013.036c-1.187 4.487 2.455 7.66 5.152 10.001.691.568 1.418 1.027 2.083 1.498 24.915 17.557 55.863 29.305 86.686 24.754q1.567-.23 3.142-.519c3.797-.738 7.604-1.211 11.314-.249.129.03.264.008.377-.061.112-.07.192-.181.223-.31.03-.128.008-.264-.061-.376-.07-.113-.181-.193-.309-.224-3.856-1.027-7.951-.535-11.731.188q-1.559.279-3.107.5c-30.462 4.371-61.071-7.343-85.744-24.815-.704-.5-1.398-.943-2.001-1.444-2.662-2.222-5.679-5.343-4.698-8.509l-.013.036c.281-.851 1.748-1.063 3.108-1.029.702-.001.993-.701.497-1.198-.19-.165-.165-.119-.201-.146l-.054-.028-.084-.042.017.008c-1.118-.599-2.238-1.166-3.332-1.758l.018.01c-3.276-1.91-6.803-4.891-6.632-8.471.423-3.673 5.577-4.106 9.159-3.342.844.159 1.21-1.041.421-1.38-4.896-2.274-10.618-6.705-10.372-11.93l-.003.015c.53-2.8 4.41-3.094 7.382-2.862 1.111.082 2.218.241 3.317.461 12.498 2.486 25.002 5.192 37.733 6.757 1.792.207 3.595.381 5.399.476l-.022-.001c17.023.421 33.843-.278 50.757-2.284q1.533-.281 3.059-.613c4.85-1.077 9.618-2.437 14.182-4.559"/>
  <path stroke="#000" stroke-linecap="round" stroke-linejoin="round" stroke-width="1.5" d="M303.295 173.174c2.676 1.127 5.468 2.029 8.459 2.568m-8.876-17.534c4.598 1.963 8.996 3.441 12.984 3.943"/>
  <path fill="#A1D0F7" d="M426.076 60.061c.154-4.712 1.158-10.902 2.162-10.89 1.003.013 1.621 6.227 1.467 10.939-.155 4.712-1.023 6.135-2.027 6.123s-1.756-1.46-1.612-6.166z"/>
  <path fill="#000" d="M200.06 132.107c-.131.037-.241.124-.308.243-.066.118-.083.257-.047.388.036.13.123.241.241.308s.257.085.388.049q1.376-.376 2.762-.709c16.638-4 34.343-3.382 50.627 1.748q1.357.428 2.7.896c.187.066.393.054.572-.033s.316-.243.381-.431c.065-.189.053-.396-.034-.575-.088-.179-.242-.315-.431-.379q-1.368-.465-2.75-.888c-16.587-5.074-34.522-5.541-51.315-1.357q-1.398.348-2.786.74m17.989 4.701c-.129.024-.244.099-.319.208s-.105.242-.082.371.096.244.204.321c.108.076.241.107.371.086q.55-.09 1.102-.17c6.625-.95 13.414-.655 19.905.857q.541.126 1.079.263c.193.05.396.02.566-.084.17-.103.292-.272.34-.467.047-.196.016-.402-.087-.571-.104-.17-.271-.29-.465-.335q-.556-.129-1.115-.246c-6.703-1.406-13.651-1.548-20.38-.431q-.56.093-1.119.198m4.446-13.525c-.128.021-.242.093-.319.199-.076.105-.107.236-.087.364s.09.243.194.32.236.111.364.093q.543-.079 1.086-.144c6.524-.792 13.192-.26 19.483 1.536q.523.149 1.044.31c.19.059.395.04.57-.055s.306-.257.363-.45.036-.4-.059-.575c-.094-.175-.255-.303-.447-.357q-.54-.154-1.083-.296c-6.522-1.699-13.365-2.08-20.005-1.118q-.553.08-1.104.173M67.094 185.762c-.036-.195-.149-.367-.314-.477-.166-.11-.372-.15-.57-.11-.198.041-.373.156-.483.322s-.147.368-.104.562q.085.386.176.771c1.093 4.615 2.85 9.059 5.191 13.156q.195.341.396.68c.064.107.169.185.29.218.122.032.251.016.36-.046s.188-.165.222-.286c.035-.121.02-.251-.04-.361q-.183-.338-.364-.679c-2.153-4.093-3.712-8.486-4.616-12.997q-.075-.375-.144-.753m-3.586 4.455c-.035-.196-.146-.368-.311-.478-.166-.111-.373-.149-.573-.109s-.375.156-.485.322-.146.367-.102.561q.062.27.127.539c.788 3.225 2.042 6.321 3.701 9.168q.138.238.28.473c.065.106.17.182.29.214.122.031.25.015.357-.047.108-.061.186-.163.221-.283s.022-.25-.037-.359q-.126-.234-.249-.472c-1.47-2.843-2.526-5.888-3.124-9.008q-.05-.26-.095-.521M377.009 14.206c.081.1.199.165.328.181.13.016.259-.02.361-.098.103-.078.17-.194.188-.323.018-.13-.015-.26-.091-.364l-.419-.563c-2.518-3.368-5.181-6.633-7.984-9.778l-.469-.523c-.133-.148-.319-.235-.517-.242-.199-.007-.395.068-.543.206s-.236.328-.243.527.068.39.207.533l.482.5c2.887 3.01 5.644 6.148 8.265 9.4zm-3.356 5.227c.112.068.248.088.376.056.129-.031.239-.111.308-.223s.091-.247.061-.375c-.03-.13-.109-.241-.22-.312l-.912-.575-16.414-10.362-.912-.576c-.168-.106-.371-.14-.564-.095-.194.046-.362.17-.468.34-.105.172-.139.377-.093.57.046.194.168.36.339.462l.925.555 16.649 9.98zm-3.218 3.509c.126.04.264.029.383-.03.119-.06.21-.164.253-.29.042-.125.034-.262-.024-.382s-.16-.214-.285-.26l-.636-.229-11.453-4.137-.636-.23c-.187-.067-.392-.056-.571.031-.178.088-.316.246-.381.438-.065.191-.053.4.035.579s.244.312.433.373l.644.206 11.593 3.725zm141.299 193.409c.031-.123.018-.255-.042-.368s-.161-.198-.281-.237-.252-.028-.366.03c-.115.057-.202.157-.248.275q-.307.788-.622 1.572c-.84 2.09-1.723 4.154-2.648 6.2-3.24 7.158-7.547 13.835-12.766 19.744q-.56.633-1.132 1.254c-.086.092-.133.214-.13.34s.055.246.146.333c.09.087.212.135.338.133s.246-.053.335-.142q.608-.603 1.199-1.223c5.528-5.776 10.072-12.517 13.376-19.821.945-2.087 1.744-4.239 2.387-6.435q.241-.824.454-1.655m.636 9.35c.03-.12.02-.249-.036-.361-.055-.113-.15-.199-.266-.24-.116-.042-.244-.036-.358.016-.114.051-.204.144-.257.256l-.348.73q-.692 1.456-1.36 2.917c-1.56 3.41-3.439 6.679-5.566 9.792q-.229.333-.46.664c-.073.104-.105.231-.086.357.018.125.085.239.186.314s.228.109.353.092c.126-.017.24-.082.32-.18q.258-.32.511-.644c2.361-3.022 4.398-6.315 6.001-9.82q.687-1.505 1.15-3.095.116-.398.216-.798"/>
  <defs>
    <linearGradient id="a" x1="458.226" x2="508.706" y1="202.946" y2="489.326" gradientUnits="userSpaceOnUse">
      <stop offset=".061" stop-color="#fff"/>
      <stop offset="1" stop-color="#CBEAFF"/>
    </linearGradient>
  </defs>
</svg>
