<svg width="24" height="24" viewBox="0 0 24 24" fill="none" xmlns="http://www.w3.org/2000/svg">
<path d="M16.25 7C16.25 4.65279 14.3472 2.75 12 2.75C9.65279 2.75 7.75 4.65279 7.75 7V13C7.75 14.2426 8.75736 15.25 10 15.25H14C15.2426 15.25 16.25 14.2426 16.25 13V7ZM17.75 13C17.75 15.0711 16.0711 16.75 14 16.75H10C7.92893 16.75 6.25 15.0711 6.25 13V7C6.25 3.82436 8.82436 1.25 12 1.25C15.1756 1.25 17.75 3.82436 17.75 7V13Z" fill="#783B13"/>
<path d="M4 12C4 10.3431 5.34315 9 7 9H17C18.6569 9 20 10.3431 20 12V18C20 19.6569 18.6569 21 17 21H7C5.34315 21 4 19.6569 4 18V12Z" fill="#FFC95C"/>
<path d="M19.25 12C19.25 10.7574 18.2426 9.75 17 9.75H7C5.75736 9.75 4.75 10.7574 4.75 12V18C4.75 19.2426 5.75736 20.25 7 20.25H17C18.2426 20.25 19.25 19.2426 19.25 18V12ZM20.75 18C20.75 20.0711 19.0711 21.75 17 21.75H7C4.92893 21.75 3.25 20.0711 3.25 18V12C3.25 9.92893 4.92893 8.25 7 8.25H17C19.0711 8.25 20.75 9.92893 20.75 12V18Z" fill="#B66A1F"/>
<path d="M13.0318 9.70802C13.2148 9.71207 13.3985 9.71669 13.5816 9.7217C13.6686 9.72418 13.7537 9.75712 13.8179 9.8174C13.8821 9.87767 13.9204 9.9601 13.9243 10.0469C13.9282 10.1338 13.8971 10.2194 13.8384 10.2852C13.7797 10.351 13.6975 10.3913 13.6109 10.4014C13.4291 10.4225 13.2468 10.4427 13.065 10.4629C10.9892 10.6931 8.91087 10.8609 6.82961 10.9658C6.70074 10.9728 6.57602 11.0073 6.46242 11.0654C6.20946 11.1944 6.01413 11.4342 5.94582 11.7246C5.84296 12.2293 5.72546 12.7322 5.59231 13.2324C5.54502 13.4101 5.49595 13.5876 5.44485 13.7647C5.41922 13.853 5.36588 13.9334 5.28957 13.9873C5.21336 14.0412 5.12092 14.064 5.03078 14.0508C4.94058 14.0375 4.85882 13.9886 4.80129 13.9151C4.74369 13.8415 4.71542 13.7492 4.71633 13.6572C4.71837 13.473 4.72317 13.2891 4.72903 13.1055C4.74552 12.5881 4.77696 12.0725 4.82375 11.5596C4.88772 10.9047 5.31027 10.2865 5.90871 9.98537C6.1766 9.84782 6.4762 9.7694 6.7759 9.75783C8.85844 9.67867 10.9437 9.66187 13.0318 9.70802Z" fill="#FFEAB8"/>
<path d="M12 12C10.8954 12 10 12.8954 10 14C10 14.5762 10.2459 15.0931 10.6357 15.458L10.3105 16.7578C10.153 17.3888 10.6308 18 11.2812 18H12.7188C13.3692 18 13.847 17.3888 13.6895 16.7578L13.3652 15.458C13.7548 15.0931 14 14.5759 14 14C14 12.8954 13.1046 12 12 12Z" fill="#783B13"/>
</svg>
