<svg width="12" height="12" viewBox="0 0 12 12" fill="none" xmlns="http://www.w3.org/2000/svg">
<g clip-path="url(#clip0_324_630)">
<path fill-rule="evenodd" clip-rule="evenodd" d="M8.2373 2.2373C9.07978 2.2373 9.76267 2.92027 9.7627 3.7627C9.7627 4.60516 9.07977 5.28809 8.2373 5.28809C7.39488 5.28806 6.71191 4.60517 6.71191 3.7627C6.71194 2.92027 7.39488 2.23733 8.2373 2.2373ZM8.2373 3.2373C7.94715 3.23732 7.71193 3.47254 7.71191 3.7627C7.71191 4.05285 7.94712 4.28807 8.2373 4.28809C8.52749 4.28809 8.7627 4.05288 8.7627 3.7627C8.76268 3.47251 8.52746 3.2373 8.2373 3.2373Z" fill="black" fill-opacity="0.84"/>
<path fill-rule="evenodd" clip-rule="evenodd" d="M7.86426 0C10.1483 0 12 1.85172 12 4.13574L11.9941 4.34863C11.8832 6.53363 10.0768 8.27148 7.86426 8.27148C7.64345 8.27148 7.42628 8.25384 7.21582 8.2207C6.9329 8.17641 6.6982 8.24613 6.56348 8.38086L4.69238 10.252C4.52908 10.4153 4.30642 10.5088 4.07324 10.5088H3.79492C3.77501 11.2836 3.18086 11.9151 2.42188 11.9922L2.26562 12H2.09375C0.931084 12 0 11.0406 0 9.89062C6.44533e-05 9.33745 0.2195 8.79822 0.613281 8.4043L3.61328 5.40332L3.66016 5.34863C3.76286 5.21057 3.81242 5.00176 3.77539 4.75586C3.74497 4.55383 3.72852 4.34672 3.72852 4.13574C3.72852 1.85174 5.5803 5.83345e-05 7.86426 0ZM7.86426 1C6.13254 1.00005 4.72852 2.40405 4.72852 4.13574L4.7373 4.37402C4.74326 4.45253 4.75209 4.53052 4.76367 4.60742C4.83355 5.07174 4.75275 5.6161 4.39551 6.0293L4.32031 6.11035L1.32031 9.11133C1.1167 9.31504 1.00005 9.59879 1 9.89062C1 10.501 1.49601 11 2.09375 11H2.26562L2.37305 10.9893C2.615 10.9395 2.79688 10.7251 2.79688 10.4688V10.1963C2.79688 9.81659 3.10468 9.50879 3.48438 9.50879H4.02148L5.85645 7.67383C6.28077 7.2495 6.87302 7.15428 7.37109 7.23242C7.53184 7.25771 7.69745 7.27148 7.86426 7.27148C9.54188 7.27148 10.9121 5.95371 10.9961 4.29688L11 4.13574C11 2.404 9.596 1 7.86426 1Z" fill="black" fill-opacity="0.84"/>
</g>
<defs>
<clipPath id="clip0_324_630">
<rect width="12" height="12" fill="white"/>
</clipPath>
</defs>
</svg>
