<svg width="12" height="12" viewBox="0 0 12 12" fill="none" xmlns="http://www.w3.org/2000/svg">
<path d="M8.14637 3.14669C8.34163 2.95143 8.65814 2.95143 8.8534 3.14669C9.04864 3.34195 9.04865 3.65847 8.8534 3.85372L6.70691 6.00021L8.8534 8.14669L8.88758 8.18478C9.04772 8.38116 9.03644 8.67068 8.8534 8.85372C8.67034 9.03663 8.38078 9.04802 8.18445 8.8879L8.14637 8.85372L5.99988 6.70724L3.8534 8.85372L3.81531 8.8879C3.61894 9.04793 3.32937 9.0367 3.14637 8.85372C2.96336 8.67072 2.95216 8.38116 3.11219 8.18478L3.14637 8.14669L5.29285 6.00021L3.14637 3.85372C2.95116 3.65851 2.95126 3.34197 3.14637 3.14669C3.34163 2.95143 3.65814 2.95143 3.8534 3.14669L5.99988 5.29318L8.14637 3.14669Z" fill="black" fill-opacity="0.96"/>
</svg>
