<svg width="24" height="24" viewBox="0 0 24 24" fill="none" xmlns="http://www.w3.org/2000/svg">
<path d="M16.917 2.875C17.6531 2.87518 18.2498 3.47189 18.25 4.20801V10.875C17.8461 10.793 17.4281 10.75 17 10.75C13.5482 10.75 10.75 13.5482 10.75 17C10.75 18.5812 11.3384 20.0242 12.3066 21.125H7.08301C6.34678 21.1248 5.75 20.5361 5.75 19.7998V4.2002C5.75 3.46392 6.34678 2.87517 7.08301 2.875H16.917Z" fill="#75B6EB"/>
<path d="M11.0283 3.25001C11.7136 3.25003 12.3988 3.33553 13.084 3.50684C13.2435 3.54672 13.403 3.59147 13.5625 3.64063C13.6158 3.65726 13.6674 3.68549 13.7051 3.72755C13.7426 3.7695 13.7637 3.82149 13.7637 3.87501C13.7637 3.92852 13.7426 3.98051 13.7051 4.02247C13.6674 4.06452 13.6158 4.09276 13.5625 4.10938C13.403 4.15854 13.2435 4.20329 13.084 4.24317C12.3988 4.41448 11.7136 4.49999 11.0283 4.50001H8.68655C8.45976 4.49978 8.23786 4.56094 8.04494 4.67676C7.68689 4.88936 7.43183 5.27526 7.39944 5.70606C7.385 5.92348 7.37071 6.14098 7.35647 6.3584C7.34158 6.58567 7.30544 6.81262 7.26662 7.03907C7.23942 7.19773 7.21071 7.35683 7.18752 7.51563C7.17215 7.61883 7.11251 7.71665 7.02834 7.78712C6.94364 7.85762 6.84059 7.8952 6.73635 7.89161C6.63219 7.88793 6.53272 7.84276 6.45315 7.76661C6.37407 7.69051 6.32073 7.58935 6.31252 7.48536C6.30034 7.32549 6.28379 7.16489 6.2676 7.00489C6.24447 6.77632 6.22383 6.54709 6.22463 6.31934C6.2254 6.1013 6.22504 5.8831 6.22561 5.66505C6.22553 4.84544 6.68439 4.02736 7.40237 3.6045C7.78721 3.37274 8.23879 3.24901 8.68655 3.25001H11.0283Z" fill="#CBEAFF"/>
<path d="M15.375 2C17.377 2 19 3.62297 19 5.625V11.0781C18.5999 10.943 18.1818 10.8476 17.75 10.7959V5.625C17.75 4.31332 16.6867 3.25 15.375 3.25H8.625C7.31332 3.25 6.25 4.31332 6.25 5.625V18.375C6.25 19.6867 7.31332 20.75 8.625 20.75H12C12.3556 21.2233 12.7767 21.6444 13.25 22H8.625C6.62297 22 5 20.377 5 18.375V5.625C5 3.62297 6.62297 2 8.625 2H15.375ZM13.375 4C13.7202 4 14 4.27982 14 4.625C14 4.97018 13.7202 5.25 13.375 5.25H10.625C10.2798 5.25 10 4.97018 10 4.625C10 4.27982 10.2798 4 10.625 4H13.375Z" fill="#045EB2"/>
<path d="M21.5 17C21.5 19.4853 19.4853 21.5 17 21.5C14.5147 21.5 12.5 19.4853 12.5 17C12.5 14.5147 14.5147 12.5 17 12.5C19.4853 12.5 21.5 14.5147 21.5 17Z" fill="#96E38A"/>
<path d="M22 17C22 19.7614 19.7614 22 17 22C14.2386 22 12 19.7614 12 17C12 14.2386 14.2386 12 17 12C19.7614 12 22 14.2386 22 17Z" fill="black"/>
<path d="M18.8076 15.3076C19.0516 15.0635 19.4483 15.0635 19.6923 15.3076C19.9364 15.5516 19.9364 15.9483 19.6923 16.1923L16.7236 19.1611C16.4795 19.4052 16.0829 19.4052 15.8388 19.1611L14.3076 17.6298C14.0635 17.3858 14.0635 16.9891 14.3076 16.7451C14.5516 16.501 14.9483 16.501 15.1923 16.7451L16.2812 17.8339L18.8076 15.3076Z" fill="white"/>
</svg>
