<svg width="12" height="12" viewBox="0 0 12 12" fill="none" xmlns="http://www.w3.org/2000/svg">
<g clip-path="url(#clip0_11743_76323)">
<path d="M5.5 3.02539C5.76206 3.02552 5.97435 3.23797 5.97461 3.5V5.02344H7.50293C7.76504 5.0237 7.97754 5.23588 7.97754 5.49805C7.97728 5.75999 7.76488 5.97239 7.50293 5.97266H5.97461V7.5C5.97435 7.76203 5.76206 7.97546 5.5 7.97559C5.23799 7.97559 5.02592 7.76286 5.02539 7.50098V5.97266H3.50195C3.24001 5.97239 3.02761 5.75999 3.02734 5.49805C3.02734 5.23571 3.24059 5.02344 3.50293 5.02344H5.02539V3.50098C5.02539 3.23864 5.23766 3.02539 5.5 3.02539Z" fill="black"/>
<path fill-rule="evenodd" clip-rule="evenodd" d="M5.5 0C8.53757 0 11 2.46243 11 5.5C10.9999 6.8389 10.5208 8.06577 9.72559 9.01953L11.8535 11.1475C12.0485 11.3427 12.0487 11.6593 11.8535 11.8545C11.6583 12.0494 11.3417 12.0494 11.1465 11.8545L9.01758 9.72559C8.06394 10.5203 6.8384 11 5.5 11C2.46252 11 0.000131942 8.53745 0 5.5C0 2.46243 2.46243 0 5.5 0ZM5.5 1C3.01472 1 1 3.01472 1 5.5C1.00013 7.98517 3.0148 10 5.5 10C7.9852 10 9.99987 7.98517 10 5.5C10 3.01472 7.98528 1 5.5 1Z" fill="black"/>
</g>
<defs>
<clipPath id="clip0_11743_76323">
<rect width="12" height="12" fill="white"/>
</clipPath>
</defs>
</svg>
