<svg width="40" height="40" viewBox="0 0 40 40" fill="none" xmlns="http://www.w3.org/2000/svg">
<path d="M20.0108 36.4285C23.2036 36.4285 29.6212 33.9216 33.0443 28.3024C35.8577 23.6865 36.2605 18.7347 36.0069 15.2524C35.6659 10.5551 33.673 9.84071 30.3374 8.75624C27.7371 7.91133 25.7741 6.73916 24.5357 5.51993C23.1717 4.17664 21.5795 3.65259 20.0108 3.65259C18.4421 3.65259 16.8499 4.17664 15.4858 5.51993C14.2475 6.73916 12.2824 7.91133 9.6842 8.75624C6.34857 9.84071 4.35572 10.5573 4.01469 15.2524C3.76106 18.7325 4.16602 23.6865 6.97733 28.3024C10.4003 33.9194 16.818 36.4285 20.0108 36.4285Z" fill="#FFC95C"/>
<path d="M20.7099 11.7558C21.6066 11.7147 22.3668 12.4123 22.4077 13.3138L22.3987 13.3211C22.4 13.3205 22.4072 13.3156 22.4077 13.3158C22.4078 13.3171 22.408 13.3189 22.4081 13.3211C22.4083 13.3256 22.4084 13.3322 22.4088 13.3406C22.4095 13.3574 22.4106 13.382 22.4119 13.4139C22.4146 13.4778 22.4182 13.5716 22.4227 13.6922C22.4317 13.9334 22.4438 14.283 22.4559 14.7193C22.4868 15.8441 22.5033 16.9692 22.505 18.0944C22.5058 18.5669 22.8938 18.9483 23.3661 18.9339C24.3143 18.9049 25.2623 18.8663 26.2097 18.8177C26.6308 18.7962 26.9664 18.7771 27.1957 18.7633C27.3103 18.7564 27.3986 18.7507 27.4576 18.7469C27.4868 18.7451 27.509 18.7437 27.5235 18.7427C27.5308 18.7423 27.5365 18.7419 27.5399 18.7417C27.5414 18.7416 27.5426 18.7414 27.5434 18.7413H27.5444C28.44 18.6807 29.215 19.3613 29.2754 20.2616C29.3358 21.162 28.6587 21.9412 27.7631 22.002C27.7604 22.0022 27.758 22.0022 27.7558 22.0024L27.737 22.0038C27.7204 22.0049 27.6959 22.0063 27.6644 22.0083C27.6014 22.0123 27.5092 22.0182 27.3903 22.0254C27.1522 22.0397 26.8067 22.0594 26.375 22.0815C25.3264 22.1353 24.2772 22.1775 23.2277 22.2078C22.7845 22.2206 22.4263 22.574 22.406 23.0169C22.3358 24.5531 22.2211 26.0999 22.0401 27.5046C21.9248 28.3995 21.1097 29.0309 20.2195 28.915C19.3294 28.7991 18.7011 27.9796 18.8164 27.0847C18.9741 25.8607 19.0789 24.5022 19.1464 23.1279C19.1696 22.6544 18.791 22.2604 18.317 22.2542C16.7111 22.2332 15.0787 22.1701 13.5873 22.0379C12.6932 21.9587 12.0322 21.1657 12.1109 20.2669C12.1897 19.368 12.9785 18.7034 13.8726 18.7825C15.2871 18.9078 16.8564 18.9679 18.416 18.9872C18.8782 18.993 19.2546 18.6197 19.2541 18.1575C19.2529 17.0414 19.237 15.9253 19.2063 14.8096C19.1947 14.385 19.1832 14.0462 19.1746 13.8146C19.1703 13.6988 19.1666 13.6097 19.1641 13.5502C19.1629 13.5205 19.162 13.498 19.1613 13.4833C19.161 13.4761 19.1608 13.4707 19.1607 13.4672C19.1606 13.4655 19.1603 13.4641 19.1603 13.4634V13.4627L19.1589 13.4205C19.1411 12.5375 19.8272 11.7963 20.7099 11.7558Z" fill="#B66A1F"/>
<path fill-rule="evenodd" clip-rule="evenodd" d="M20.0113 2.93848C21.7505 2.93854 23.5279 3.52501 25.0371 5.01123C26.1772 6.13368 28.0345 7.25682 30.5585 8.07694C32.1888 8.60696 33.6889 9.0981 34.785 10.1295C35.9242 11.2016 36.5423 12.7589 36.7196 15.2006C36.9799 18.7747 36.5705 23.8902 33.6546 28.6744L33.6542 28.674C31.8647 31.6117 29.3014 33.7234 26.7841 35.0995C24.2794 36.4687 21.7589 37.1429 20.0113 37.1429C18.2636 37.1429 15.7429 36.4682 13.2381 35.0988C10.7209 33.7224 8.15727 31.611 6.36768 28.6744C3.45408 23.8904 3.04233 18.7728 3.30267 15.2006C3.47998 12.7598 4.09813 11.2029 5.23731 10.1305C6.33331 9.09887 7.83324 8.60739 9.46374 8.07729C11.9859 7.25708 13.8452 6.13357 14.9851 5.01123C16.4945 3.52496 18.2721 2.93848 20.0113 2.93848ZM20.0113 4.36705C18.6132 4.36705 17.2063 4.82884 15.9875 6.02895C14.6508 7.34502 12.5793 8.56617 9.90528 9.43576C8.2003 9.99008 7.03588 10.3991 6.21632 11.1705C5.43998 11.9013 4.89115 13.0501 4.72741 15.3042C4.4805 18.6922 4.87857 23.483 7.58734 27.9308C9.22077 30.6112 11.578 32.5629 13.9235 33.8453C16.2814 35.1345 18.5662 35.7144 20.0113 35.7144C21.4565 35.7143 23.7411 35.1348 26.0988 33.846C28.4441 32.5639 30.8012 30.6122 32.4346 27.9308C35.1454 23.4831 35.5418 18.695 35.2949 15.3045C35.1311 13.0493 34.5821 11.9003 33.806 11.1699C33.0889 10.4951 32.1079 10.0978 30.7315 9.63769L30.117 9.43576C27.4405 8.56609 25.3717 7.34491 24.0351 6.02895C22.8164 4.82888 21.4093 4.36711 20.0113 4.36705Z" fill="#B66A1F"/>
</svg>
