<svg width="24" height="24" viewBox="0 0 24 24" fill="none" xmlns="http://www.w3.org/2000/svg">
<path d="M12 21.375C13.8637 21.375 17.61 19.9409 19.6081 16.7264C21.2505 14.0857 21.4856 11.253 21.3376 9.26086C21.1385 6.57372 19.9752 6.16502 18.028 5.54463C16.5101 5.06129 15.3642 4.39073 14.6414 3.69325C13.8451 2.92479 12.9157 2.625 12 2.625C11.0842 2.625 10.1548 2.92479 9.35856 3.69325C8.63569 4.39073 7.48855 5.06129 5.97189 5.54463C4.02475 6.16502 2.86143 6.57494 2.66236 9.26086C2.51431 11.2517 2.7507 14.0857 4.39178 16.7264C6.38994 19.9397 10.1362 21.375 12 21.375Z" fill="#FFC95C"/>
<path d="M11.9999 2C13.061 2.00002 14.1511 2.35174 15.0752 3.24353C15.7115 3.85751 16.7651 4.48659 18.2175 4.9491H18.2177C19.158 5.2487 20.0818 5.54095 20.762 6.16821C21.4823 6.83255 21.8549 7.78651 21.9607 9.21448C22.1149 11.289 21.8734 14.2673 20.1388 17.0564L20.1387 17.0563C19.0698 18.7758 17.5424 20.0068 16.0487 20.807C14.5654 21.6016 13.0613 22 11.9999 22C11.9753 22 11.9504 21.9995 11.9253 21.999C12.2198 19.8974 12.6146 16.4952 12.7706 13.0625C12.946 9.20329 12.3328 4.54916 11.8843 2.00146C11.9228 2.00053 11.9614 2 11.9999 2Z" fill="#FFEAB8"/>
<path d="M12 2C13.061 2.00004 14.1512 2.35152 15.0752 3.24316C15.7115 3.85715 16.7653 4.48671 18.2178 4.94922C19.1579 5.24877 20.0816 5.54088 20.7617 6.16797C21.4821 6.83231 21.8551 7.78686 21.9609 9.21484C22.1151 11.2894 21.8732 14.2677 20.1387 17.0566L19.9326 17.373C18.8787 18.9279 17.449 20.0565 16.0488 20.8066C14.5656 21.6012 13.0615 22 12 22C10.9385 22 9.43434 21.6013 7.95117 20.8066C6.45755 20.0063 4.92922 18.7755 3.86035 17.0566C2.12723 14.2679 1.88491 11.2884 2.03906 9.21484C2.14487 7.78756 2.51721 6.83338 3.2373 6.16895C3.91745 5.54152 4.8417 5.24889 5.78223 4.94922C7.23361 4.48665 8.28858 3.85703 8.9248 3.24316L9.01172 3.16113C9.91677 2.32989 10.9721 2 12 2ZM12 3.25C11.2297 3.25 10.4604 3.49851 9.79199 4.14355C8.9825 4.92443 7.74262 5.63662 6.16113 6.14062C5.15479 6.46127 4.52295 6.68385 4.08496 7.08789C3.68721 7.45497 3.3784 8.04962 3.28516 9.30762C3.14332 11.2157 3.37319 13.9044 4.92188 16.3965L5.01074 16.5352C5.93572 17.9586 7.23812 19.0069 8.54102 19.7051C9.89636 20.4313 11.1978 20.75 12 20.75C12.8023 20.7499 14.1029 20.431 15.458 19.7051C16.8029 18.9846 18.1479 17.8914 19.0771 16.3965L19.3525 15.9268C20.6543 13.5711 20.8469 11.0969 20.7139 9.30664C20.6206 8.04789 20.3118 7.45373 19.9141 7.08691C19.476 6.68315 18.8444 6.46035 17.8379 6.13965C16.2548 5.6355 15.0163 4.92346 14.207 4.14258C13.5387 3.49777 12.7701 3.25004 12 3.25ZM12.332 7.66797C12.6993 7.64425 13.0161 7.92279 13.04 8.29004C13.1152 9.45229 13.1603 10.4166 13.1758 11.333H16.042C16.41 11.3332 16.708 11.6319 16.708 12C16.708 12.368 16.41 12.6668 16.042 12.667H13.1777C13.1635 13.599 13.1174 14.559 13.04 15.7109C13.0153 16.0783 12.6974 16.3567 12.3301 16.332C11.9629 16.3072 11.6853 15.9893 11.71 15.6221C11.7852 14.5014 11.8296 13.5701 11.8438 12.667H8.70801C8.34 12.6668 8.04202 12.368 8.04199 12C8.04203 11.632 8.34003 11.3332 8.70801 11.333H11.8428C11.8273 10.445 11.7831 9.50831 11.71 8.37598C11.6864 8.00869 11.9647 7.69171 12.332 7.66797Z" fill="#B66A1F"/>
</svg>
