<svg width="96" height="96" viewBox="0 0 96 96" fill="none" xmlns="http://www.w3.org/2000/svg">
<path d="M48.6372 31.999L76.3455 31.999C73.5378 27.1342 69.4987 23.0944 64.6344 20.2857C59.7701 17.4771 54.252 15.9986 48.6351 15.999C43.0182 15.9994 37.5003 17.4787 32.6364 20.288C27.7725 23.0973 23.734 27.1377 20.9269 32.0029L34.7811 55.999L34.7934 55.9958C33.3841 53.5655 32.6403 50.8066 32.6372 47.9972C32.634 45.1878 33.3716 42.4273 34.7754 39.9938C36.1793 37.5603 38.1999 35.5399 40.6335 34.1364C43.0672 32.7328 45.8278 31.9955 48.6372 31.999Z" fill="url(#paint0_linear_5928_6994)"/>
<path d="M21.2882 32L35.1417 56.0001C36.5433 58.4353 38.562 60.4578 40.9942 61.8638C43.4265 63.2698 46.1863 64.0097 48.9956 64.0087C50.0079 64.0084 51.0137 63.9118 52 63.7226C51.3485 65.6965 50.9959 67.8063 50.9959 69.9985V76.5414L48.9996 80C43.3829 80.0016 37.8648 78.5241 33.0001 75.716C28.1355 72.9079 24.0957 68.8683 21.287 64.0033C18.4784 59.1383 16.9998 53.6193 17 48.0015C17.0002 42.3836 18.4792 36.8648 21.2882 32Z" fill="url(#paint1_linear_5928_6994)"/>
<path d="M52.0065 63.718C51.0327 63.9031 50.0277 64 49 64C40.1634 64 33 56.8366 33 48C33 39.1634 40.1634 32 49 32C57.8366 32 65 39.1634 65 48C65 49.0277 64.9031 50.0327 64.718 51.0065C58.7253 52.9875 53.9875 57.7253 52.0065 63.718Z" fill="white"/>
<path d="M53.2855 60.0133C51.8115 60.6491 50.1951 61 48.5 61C41.5964 61 36 55.1797 36 48C36 40.8203 41.5964 35 48.5 35C55.4036 35 61 40.8203 61 48C61 49.7629 60.6626 51.4439 60.0512 52.9769C57.2803 54.7104 54.9523 57.1315 53.2855 60.0133Z" fill="#1A73E8"/>
<path d="M51.0004 76.5446L49.0057 80C50.1276 80.0002 51.0004 79.0638 51.0004 77.9418V76.5446Z" fill="url(#paint2_linear_5928_6994)"/>
<path d="M78.9318 50.0043C80.0592 50.0043 81.0002 49.1272 81 47.9996C80.999 42.3822 79.5193 36.864 76.7097 32L49.0034 32L49 32.0123C51.8092 32.0069 54.5701 32.7424 57.0045 34.1444C59.4389 35.5465 61.4607 37.5657 62.8661 39.9984C64.2715 42.4312 65.0109 45.1915 65.0096 48.0011C65.0091 49.0146 64.9123 50.0217 64.7226 51.0091C66.6966 50.3571 68.8065 50.0043 70.9989 50.0043H78.9318Z" fill="url(#paint3_linear_5928_6994)"/>
<path d="M92.5015 58C92.7989 58 93.0962 58.12 93.3236 58.3539C93.7785 58.8219 93.7785 59.5837 93.3236 60.0517L90.9913 62.4512C90.5364 62.9192 89.7959 62.9192 89.3411 62.4512C88.8863 61.9833 88.8863 61.2215 89.3411 60.7535L91.6735 58.3539C91.9009 58.12 92.1983 58 92.4957 58H92.5015Z" fill="#CCCCCC"/>
<path d="M91.3352 68.7982H94.8338C95.4752 68.7982 96 69.3381 96 69.998C96 70.6579 95.4752 71.1978 94.8338 71.1978H91.3352C90.6938 71.1978 90.169 70.6579 90.169 69.998C90.169 69.3381 90.6938 68.7982 91.3352 68.7982Z" fill="#CCCCCC"/>
<path d="M89.353 77.5518C89.5804 77.3178 89.8778 77.1978 90.1751 77.1978H90.181C90.4783 77.1978 90.7757 77.3178 91.0031 77.5518L93.3355 79.9513C93.7903 80.4193 93.7903 81.1811 93.3355 81.6491C92.8807 82.117 92.1402 82.117 91.6854 81.6491L89.353 79.2495C88.8982 78.7815 88.8982 78.0197 89.353 77.5518Z" fill="#CCCCCC"/>
<path d="M55 70C55 61.1634 62.1634 54 71 54C79.8366 54 87 61.1634 87 70C87 78.8366 79.8366 86 71 86C62.1634 86 55 78.8366 55 70Z" fill="#DE5833"/>
<path d="M74.8174 69.3175C74.7167 69.3804 74.3935 69.344 73.9678 69.2965C70.1937 68.6458 69.826 70.757 71.6445 73.9711C69.9978 74.4521 71.9398 79.107 73.5235 82.6023C71.7915 83.2036 68.6032 83.0741 67.1283 82.5406C67.1258 82.5332 67.1233 82.5245 67.1208 82.5171C66.7971 82.4 66.3954 82.4012 66.2076 82.1502C65.7003 78.7301 58.6229 62.4095 67.2698 61.3406C67.324 61.3253 66.1529 60.9685 64.5758 61.355C62.6044 61.7415 66.4909 56.0926 70.5743 61.0452C75.0114 61.9963 75.329 68.998 74.818 69.3168L74.8174 69.3175Z" fill="white"/>
<path d="M75.9334 80.2227C75.8911 80.5192 75.797 80.7168 75.6295 80.7445C75.3119 80.7972 73.8912 80.4441 73.0837 80.1108C72.9919 80.5692 70.8275 81.0034 70.4848 80.3874C69.6994 81.1246 68.1946 82.1937 67.88 81.9698C67.2775 81.5416 66.7107 78.2438 67.1642 77.5469C67.8531 76.867 69.3013 77.6068 70.3173 77.9975C70.6618 77.3651 72.3298 77.1253 72.6761 77.6444C73.5884 76.8914 75.1111 75.8295 75.2594 76.0232C75.9996 76.9915 76.0938 79.2952 75.9334 80.2227Z" fill="#4CBA3C"/>
<path fill-rule="evenodd" clip-rule="evenodd" d="M68.0609 71.0121C68.3748 68.614 72.5818 69.3643 74.4631 69.0948C75.8341 68.9237 76.8516 68.5605 77.5292 68.2772C79.0852 67.589 79.3503 68.2719 78.5894 69.3438C76.4413 72.0859 71.6638 70.0901 70.8084 71.5081C70.5584 71.9281 70.7518 72.9168 72.7168 73.2285C75.3721 73.6486 77.5533 72.7219 77.8226 73.282C77.2172 76.2751 67.1363 75.2561 68.0597 71.0127L68.0609 71.0121Z" fill="#FFCC33"/>
<path d="M73.6997 64.5007C73.4312 63.835 72.0512 63.8398 71.7874 64.475C71.7633 64.6062 71.8594 64.5716 72.0425 64.5056C72.3634 64.39 72.9514 64.1781 73.6288 64.5928C73.6822 64.6193 73.7339 64.5556 73.6997 64.5007Z" fill="#14307E"/>
<path d="M66.9561 64.6605C66.6999 64.6394 66.2839 64.6051 65.9402 64.8237C65.4358 65.0695 65.2731 65.3343 65.1755 65.5158C65.1395 65.5828 65 65.5761 65 65.4968C65.0343 64.4377 66.6031 63.927 67.1737 64.5853C67.243 64.6841 67.1412 64.6758 66.9561 64.6605Z" fill="#14307E"/>
<path d="M73.2082 68.2112C72.1524 68.2051 72.1524 66.3421 73.2082 66.336C74.2639 66.3421 74.2639 68.2051 73.2082 68.2112Z" fill="#14307E"/>
<path d="M67.8579 67.9222C67.837 69.3593 65.9968 69.3593 65.9759 67.9222C65.9817 66.4919 67.8521 66.4926 67.8579 67.9222Z" fill="#14307E"/>
<path fill-rule="evenodd" clip-rule="evenodd" d="M71 57.9178C64.3272 57.9178 58.9178 63.3272 58.9178 70C58.9178 76.6728 64.3272 82.0822 71 82.0822C77.6728 82.0822 83.0822 76.6728 83.0822 70C83.0822 63.3272 77.6728 57.9178 71 57.9178ZM57 70C57 62.268 63.268 56 71 56C78.732 56 85 62.268 85 70C85 77.732 78.732 84 71 84C63.268 84 57 77.732 57 70Z" fill="white"/>
<defs>
<linearGradient id="paint0_linear_5928_6994" x1="72.8888" y1="30.0022" x2="45.1796" y2="77.9961" gradientUnits="userSpaceOnUse">
<stop stop-color="#D93025"/>
<stop offset="1" stop-color="#EA4335"/>
</linearGradient>
<linearGradient id="paint1_linear_5928_6994" x1="52.4602" y1="78.0017" x2="24.7433" y2="30.0048" gradientUnits="userSpaceOnUse">
<stop stop-color="#1E8E3E"/>
<stop offset="1" stop-color="#34A853"/>
</linearGradient>
<linearGradient id="paint2_linear_5928_6994" x1="78.526" y1="36.0026" x2="23.1115" y2="36.0025" gradientUnits="userSpaceOnUse">
<stop stop-color="#FCC934"/>
<stop offset="1" stop-color="#FBBC04"/>
</linearGradient>
<linearGradient id="paint3_linear_5928_6994" x1="78.526" y1="36.0026" x2="23.1115" y2="36.0025" gradientUnits="userSpaceOnUse">
<stop stop-color="#FCC934"/>
<stop offset="1" stop-color="#FBBC04"/>
</linearGradient>
</defs>
</svg>
