<svg width="128" height="96" viewBox="0 0 128 96" fill="none" xmlns="http://www.w3.org/2000/svg">
<path d="M53.7518 27.8197C54.091 26.8022 55.434 25.0117 58.0929 25.9884C61.4166 27.2093 67.7927 32.3644 73.287 38.8761C74.0047 39.7267 74.7153 40.6469 75.41 41.6092C75.6108 41.5542 75.815 41.4875 76.0211 41.4054C78.8472 40.2796 82.3041 38.1394 85.1498 37.6654C87.9954 37.1914 88.8304 39.3122 89.6195 40.2213C91.0667 41.8884 92.6972 41.3326 93.443 41.7992C93.4957 41.8322 93.5375 41.8787 93.5734 41.9295C93.9285 42.4339 94.5126 43.3046 94.8314 44.1273C94.9666 44.4762 94.7188 44.8332 94.3461 44.8661C93.1107 44.9748 92.148 44.7465 91.1075 43.6122C89.8846 42.2788 88.7632 40.6535 85.8842 41.3678C83.2877 42.012 79.8729 43.9563 77.5939 44.8414C81.2152 50.5379 84.0345 56.6331 84.4791 58.4115C85.0895 60.8533 84.3434 62.3455 83.1903 62.6847C82.2673 62.9561 52.3183 71.4155 36.8082 75.712C32.9166 75.3978 32.2953 72.4712 32.453 71.367L53.7518 27.8197Z" fill="#FFC95C"/>
<path d="M87.7989 47.513C88.7058 47.513 89.441 48.2483 89.441 49.1551C89.441 50.0619 88.7058 50.797 87.7989 50.797C86.8921 50.797 86.1569 50.0619 86.1569 49.1551C86.1569 48.2483 86.8921 47.513 87.7989 47.513Z" fill="#FFC95C"/>
<path fill-rule="evenodd" clip-rule="evenodd" d="M56.2959 28.248C55.9043 31.7447 58.7092 31.087 59.3037 28.8081C59.3076 28.793 59.311 28.7776 59.3149 28.7622C60.569 29.3519 62.0485 30.3328 63.6587 31.6367C63.4813 31.7619 63.2916 31.9027 63.0874 32.0601C61.5263 33.2628 59.3179 36.7008 58.5166 38.291C59.1666 39.5097 60.8715 42.2164 61.6704 43.1914C63.5627 39.6979 66.0098 36.4376 67.3943 35.0164C69.1568 36.7673 70.9825 38.7921 72.7754 41.02C72.9781 41.272 73.1783 41.5241 73.3757 41.7756C72.5709 41.691 71.8979 41.4423 71.4397 41.1956C71.304 41.1225 71.1416 41.2405 71.1938 41.3855C71.3793 41.8992 71.7565 42.7557 72.4114 43.8542C73.2946 44.8038 74.3148 45.5388 75.9831 45.2991C78.4635 48.8667 80.3021 52.213 81.2807 54.855C79.5296 54.7258 77.6406 54.8296 75.6428 55.269C74.6473 55.488 73.9293 55.5432 73.0625 55.8086C73.9324 56.629 75.1592 57.6018 76.3852 58.4604C77.3279 58.2506 77.6671 58.1773 78.6474 58.1243C79.8708 58.0581 81.0095 58.057 82.0703 58.1106C82.1249 59.0697 81.9232 59.7795 81.4336 60.1736C79.169 61.9959 71.6211 56.3753 64.5749 47.6196C57.5288 38.8639 53.6524 30.2886 55.9167 28.4661C56.0301 28.3749 56.1568 28.3025 56.2959 28.248ZM68.5071 43.783C67.5809 43.783 66.8301 44.5338 66.8301 45.46C66.8301 46.3862 67.5809 47.137 68.5071 47.137C69.4333 47.137 70.1841 46.3862 70.1841 45.46C70.1841 44.5338 69.4333 43.783 68.5071 43.783Z" fill="#F5A031"/>
<path d="M36.7497 68.6475C35.4997 70.8141 33.833 73.3141 33.9164 74.7308C32.7497 73.8975 32.2497 71.7308 32.9997 70.3975C33.7497 69.0641 50.9164 33.5641 53.9164 27.6475C53.383 29.3141 53.333 32.3141 54.333 34.8975C48.9441 45.9808 37.7497 66.9141 36.7497 68.6475Z" fill="#FFD885"/>
<path d="M75.6427 55.2697C83.9465 53.4431 90.3695 57.4051 92.8356 59.8669C93.2666 60.276 94.23 61.4906 95.0114 63.3566C95.0829 63.5275 94.8636 63.6592 94.7384 63.5226C92.1771 60.7282 87.7675 57.6315 78.6476 58.1249C77.6672 58.178 77.3279 58.2512 76.3852 58.4611C75.1591 57.6024 73.9324 56.6295 73.0624 55.809C73.9292 55.5436 74.6472 55.4887 75.6427 55.2697Z" fill="#F05F2B"/>
<path d="M54.0507 11.0475C56.2515 10.778 57.2597 12.6516 58.6593 18.0454C59.6276 21.7767 59.9031 26.5107 59.3036 28.8088C58.7041 31.1068 55.8565 31.7562 56.3061 28.1594C56.7557 24.5624 55.5996 19.0646 54.9381 16.8513C54.0506 13.8812 52.3779 11.2524 54.0507 11.0475Z" fill="#F05F2B"/>
<path d="M79.5073 19.154C81.2824 17.0091 82.4658 16.9352 83.3164 17.2681C84.1117 17.5793 85.7798 18.4722 87.4441 19.8262C87.5642 19.9239 87.4941 20.1176 87.3398 20.1316C86.6457 20.1945 85.717 20.5026 84.2778 22.0017C82.5027 23.8509 78.102 30.988 76.3269 33.0591C74.5518 35.13 72.6657 34.6494 71.1494 34.0207C69.6332 33.3921 69.1524 33.6139 68.043 34.4275C66.9335 35.2411 63.9125 39.0526 61.6704 43.1919C60.8715 42.2169 59.1666 39.5102 58.5166 38.2915C59.3179 36.7013 61.5263 33.2633 63.0874 32.0605C65.3432 30.3225 65.824 30.6183 67.5991 31.3579C69.3742 32.0975 70.3728 31.358 71.7781 29.9158C73.1834 28.4735 77.7322 21.299 79.5073 19.154Z" fill="#9F6EB8"/>
<path d="M46.5203 22.0076C47.725 22.0076 48.7017 22.9842 48.7017 24.189C48.7016 25.3937 47.725 26.3704 46.5203 26.3704C45.3155 26.3703 44.3389 25.3937 44.3389 24.189C44.3389 22.9842 45.3155 22.0076 46.5203 22.0076Z" fill="#9F6EB8"/>
<path d="M47.9517 24.1892C47.9517 23.3987 47.3108 22.7578 46.5203 22.7578C45.7297 22.7578 45.0889 23.3987 45.0889 24.1892C45.0889 24.9798 45.7297 25.6206 46.5203 25.6206C47.3108 25.6206 47.9517 24.9798 47.9517 24.1892ZM49.4517 24.1892C49.4517 25.8082 48.1392 27.1206 46.5203 27.1206C44.9013 27.1206 43.5889 25.8082 43.5889 24.1892C43.5889 22.5702 44.9013 21.2578 46.5203 21.2578C48.1392 21.2578 49.4517 22.5702 49.4517 24.1892Z" fill="#521A61"/>
<path fill-rule="evenodd" clip-rule="evenodd" d="M53.9592 10.3031C54.626 10.2214 55.2609 10.2971 55.8489 10.6036C56.4281 10.9055 56.8928 11.3955 57.289 12.0213C58.0628 13.2434 58.6885 15.1717 59.3852 17.8568C60.0857 20.5564 60.4327 23.7621 60.3591 26.2618C61.8699 27.1394 63.6521 28.4341 65.5417 30.0284C66.3688 29.9878 67.0983 30.3368 67.8874 30.6656L68.0229 30.7193C68.6861 30.9691 69.1344 30.933 69.5359 30.7638C70.0269 30.5568 70.5335 30.118 71.2407 29.3922L71.3005 29.3292C71.6111 28.9938 72.1031 28.3496 72.7195 27.4901C73.3658 26.5888 74.117 25.4961 74.8847 24.3746C76.405 22.1537 78.0134 19.7822 78.9292 18.6756C79.8577 17.5536 80.6949 16.8935 81.4844 16.5836C82.3087 16.2601 83.0143 16.3443 83.5896 16.5694C84.4382 16.9015 86.0926 17.7896 87.7563 19.1148L87.9172 19.2445L87.9175 19.2447C88.2539 19.5187 88.3145 19.9376 88.2026 20.2577C88.0935 20.5697 87.8056 20.8421 87.4074 20.8783C86.9444 20.9202 86.1734 21.1098 84.8188 22.5208C83.987 23.3873 82.4871 25.5638 80.9226 27.8683C79.3968 30.1157 77.8192 32.4699 76.896 33.547C75.8908 34.7196 74.7949 35.2252 73.6919 35.3004C72.629 35.3728 71.6447 35.038 70.862 34.7135C70.6646 34.6316 70.4961 34.5697 70.3508 34.5238C71.5352 35.7398 72.7166 37.0367 73.8603 38.3922C74.4793 39.1257 75.0909 39.908 75.6904 40.7213C75.7071 40.7142 75.7239 40.7075 75.7405 40.7003C75.9686 40.603 76.2019 40.5018 76.4324 40.4012C76.7153 40.2771 77.0009 40.1546 77.2886 40.0326C78.2327 39.5922 79.2253 39.0949 80.2607 38.6112C81.8365 37.8749 83.4935 37.1808 85.0266 36.9254C86.6839 36.6494 87.8288 37.1363 88.6518 37.8619C89.0441 38.2078 89.349 38.5946 89.5935 38.9286C89.8603 39.2931 90.0153 39.533 90.1858 39.7293C90.7693 40.4015 91.3673 40.6169 91.9324 40.7227C92.2571 40.7836 92.4971 40.7988 92.8391 40.847C93.1261 40.8875 93.5085 40.9549 93.8408 41.1627C94.0098 41.2684 94.1196 41.4021 94.1867 41.4974C94.5428 42.0031 95.1758 42.9396 95.531 43.856C95.8558 44.6944 95.2656 45.4897 94.488 45.6038L94.4121 45.6126C93.7332 45.6724 93.0664 45.6454 92.4045 45.412C91.7385 45.177 91.1386 44.7545 90.5552 44.1185C89.8901 43.3935 89.4023 42.774 88.7265 42.3619C88.1187 41.9912 87.3266 41.7823 86.0649 42.0953C84.8438 42.3983 83.3995 43.0169 81.9353 43.6947C81.3049 43.9865 80.6667 44.2908 80.0503 44.5792C79.6821 44.7811 79.3075 44.975 78.9194 45.148C78.8546 45.1766 78.7893 45.2041 78.7239 45.2315C80.767 48.5305 82.5209 51.8887 83.6938 54.4244C88.2487 55.3178 91.666 57.6393 93.3655 59.3358C93.8871 59.8369 94.895 61.1368 95.7031 63.0667L95.7033 63.067C95.8996 63.5361 95.6767 63.9913 95.3359 64.1969C95.0025 64.398 94.5149 64.3886 94.1853 64.0291C92.4679 62.1554 89.8756 60.1273 85.3982 59.2581C85.5046 60.1459 85.4347 60.9303 85.2033 61.5858C84.8919 62.4683 84.2841 63.1146 83.4802 63.3795L83.4018 63.4039C82.4698 63.678 52.5173 72.1383 37.0085 76.4344C36.9238 76.4579 36.8354 76.4664 36.7478 76.4593C34.5962 76.2856 33.2538 75.3705 32.4931 74.2591C31.7592 73.1868 31.6065 71.9879 31.7104 71.2606L31.7212 71.203C31.734 71.1457 31.7534 71.09 31.7793 71.0372L53.0591 27.5287C53.3473 26.7142 54.1534 25.4944 55.6174 25.0907C55.4405 22.0336 54.6964 18.6615 54.2195 17.0655C54.0064 16.3527 53.7445 15.6549 53.4892 14.9881C53.2389 14.3344 52.9862 13.6894 52.8164 13.1302C52.6555 12.6004 52.5184 11.9983 52.6233 11.4754C52.6814 11.186 52.8186 10.8935 53.0815 10.6663C53.3379 10.4448 53.6497 10.341 53.9592 10.3031ZM55.74 26.6388C55.038 26.9484 54.6193 27.5887 54.4634 28.0565C54.4528 28.088 54.4401 28.1191 54.4255 28.149L35.5019 66.8392C35.5251 66.9183 35.5507 66.9976 35.5786 67.0755C36.0345 68.2871 36.8266 69.3735 37.6863 70.3431C38.5594 71.3093 39.5546 72.1592 40.738 72.7725C40.8701 72.8406 41.0033 72.9051 41.1404 72.9666C41.222 73.0027 41.2933 73.0634 41.3362 73.1434C41.379 73.2233 41.3904 73.315 41.3672 73.4002C41.3439 73.4854 41.2876 73.5588 41.2102 73.6058C41.1326 73.6529 41.0403 73.6689 40.9516 73.6585C40.7864 73.6376 40.6232 73.6102 40.4594 73.5755C38.9834 73.2649 37.6372 72.4079 36.6338 71.2896C35.8214 70.3739 35.1768 69.2804 34.9013 68.0672L33.1853 71.5763C33.1582 71.9857 33.2634 72.7288 33.7309 73.412C34.2024 74.1008 35.0832 74.788 36.7395 74.9522C41.597 73.6064 47.8433 71.8592 54.1645 70.0858C51.3845 69.1499 48.8373 67.4971 46.7427 65.4239C44.5973 63.2927 42.8251 60.77 41.6767 57.9691C41.5501 57.656 41.432 57.3379 41.3274 57.0221C41.2921 56.9151 41.2958 56.7974 41.3418 56.6934C41.3878 56.5895 41.4718 56.5078 41.5761 56.4662C41.6805 56.4245 41.7976 56.4259 41.9026 56.4696C42.0075 56.5133 42.0913 56.596 42.1394 56.6978C42.2743 56.9819 42.4197 57.2685 42.5715 57.5506C43.9466 60.0744 45.7492 62.3609 47.7778 64.3768C49.8171 66.3894 52.082 68.1689 54.6433 69.5579C54.8052 69.6455 54.9674 69.7309 55.1308 69.8148C59.8783 68.4824 64.6303 67.1458 68.831 65.9622C68.6819 65.9114 68.5331 65.8596 68.3852 65.8062C63.6662 64.0929 59.4302 61.1579 55.8821 57.6136C52.364 54.0487 49.3175 49.8824 47.697 45.0684C47.5227 44.5294 47.3722 43.9819 47.2549 43.4361C47.231 43.3248 47.2495 43.2075 47.3088 43.1095C47.3681 43.0115 47.4632 42.9408 47.5735 42.9129C47.6838 42.8851 47.8011 42.902 47.8999 42.96C47.9986 43.0181 48.0706 43.1125 48.1025 43.2218C48.2507 43.7268 48.4281 44.2344 48.6267 44.735C50.4625 49.2049 53.5215 53.1267 56.924 56.5736C60.361 60.0019 64.2599 63.0087 68.6679 65.129C69.0621 65.3174 69.4627 65.4985 69.8657 65.6707C77.1785 63.6098 82.5963 62.0774 82.9787 61.9649C83.289 61.8736 83.6016 61.6169 83.7888 61.0865C83.9562 60.6121 84.017 59.9213 83.842 59.004C83.3474 58.9382 82.8505 58.881 82.3513 58.8316C82.3219 59.3909 82.1693 60.0123 81.6609 60.4566C81.6072 60.503 81.5506 60.5462 81.4917 60.5858C79.7736 61.456 78.2452 60.5129 76.9272 59.9095C75.5923 59.2097 74.3754 58.3608 73.2014 57.4493C70.8739 55.629 68.7598 53.5646 66.7905 51.3819C65.826 50.3103 64.8987 49.207 64.008 48.076C61.2764 44.5907 58.8258 40.8562 56.9953 36.8101C56.7287 36.2135 56.4775 35.6079 56.2505 34.9969C56.2251 34.9286 56.2254 34.8524 56.2534 34.7845C56.2814 34.7166 56.3344 34.6625 56.4013 34.6339C56.4683 34.6053 56.5441 34.6047 56.6125 34.6314C56.6809 34.6582 56.7362 34.7104 56.768 34.776C57.0474 35.3503 57.3464 35.9191 57.6577 36.4793C57.9067 36.9227 58.1624 37.3621 58.4236 37.7982C58.6448 37.2827 58.8968 36.7822 59.1606 36.2911C60.1126 34.5928 61.0886 32.9385 62.6806 31.533C63.07 31.2225 63.4584 30.9075 63.9192 30.6309C62.5369 29.5015 61.2477 28.5665 60.1216 27.8683C60.0678 28.2304 59.9937 28.5948 59.8916 28.962C59.68 29.6869 59.2648 30.3637 58.6062 30.8272C58.2772 31.0527 57.8721 31.2346 57.3935 31.2281C56.912 31.2331 56.4082 30.9348 56.1628 30.5584C55.6189 29.6934 55.6739 28.8658 55.7104 28.0846C55.7424 27.6072 55.7458 27.1245 55.74 26.6388ZM68.4292 34.9542C66.304 36.8427 64.3853 39.5271 62.656 42.0743C62.4282 42.418 62.2041 42.7652 61.9846 43.1151C62.9999 44.4937 64.0583 45.8409 65.1413 47.1639C66.0396 48.2557 66.9604 49.3285 67.9055 50.3785C69.8345 52.5168 71.8557 54.5765 74.0283 56.4334C76.1404 58.1143 78.7717 60.5326 81.1001 59.9569C81.1365 59.9371 81.1719 59.9153 81.2058 59.8912C81.5209 59.6753 81.6996 59.2466 81.7707 58.7779C80.7479 58.6886 79.7153 58.6281 78.6723 58.5843C78.382 58.5718 78.0901 58.5651 77.7971 58.5641C77.5464 58.5632 77.2946 58.5664 77.0422 58.5736C76.9716 58.5756 76.9003 58.5553 76.8435 58.5116C76.7867 58.4678 76.7489 58.4049 76.7383 58.3355C76.7277 58.2661 76.7451 58.1945 76.7864 58.1358C76.8276 58.0771 76.8896 58.0365 76.9577 58.0174C77.2088 57.948 77.4623 57.8854 77.718 57.8299C78.0168 57.7651 78.3185 57.7101 78.6225 57.6654C80.5444 57.3806 82.5145 57.3245 84.467 57.5894C84.5003 57.5898 84.5337 57.5922 84.5671 57.597C87.9874 58.0898 90.5011 59.1964 92.4043 60.4962C92.3729 60.4634 92.3445 60.4347 92.3191 60.4105C92.3145 60.4062 92.3101 60.4017 92.3056 60.3973C90.7489 58.8432 87.4559 56.6039 83.0454 55.8294C82.9544 55.8134 82.8685 55.781 82.7912 55.735C80.4828 55.3165 78.0972 55.2809 75.7241 55.6412C75.6564 55.6514 75.5884 55.6617 75.5207 55.6722C75.134 55.7323 74.7472 55.7982 74.3606 55.869C74.2897 55.882 74.2152 55.8704 74.1528 55.8329C74.0905 55.7953 74.0454 55.7355 74.0271 55.6661C74.0088 55.5967 74.0189 55.5224 74.0547 55.4591C74.0905 55.3957 74.1493 55.3489 74.2173 55.3253C74.5945 55.1952 74.975 55.0722 75.3586 54.9576C75.4258 54.9375 75.4932 54.9176 75.5605 54.898C77.611 54.2947 79.7922 54.0726 81.9502 54.2415C80.7767 51.7904 79.1355 48.7162 77.2595 45.7174C77.2067 45.7302 77.1538 45.7433 77.1003 45.7552C76.4729 45.8889 75.7925 45.9727 75.0881 45.8382C74.564 45.7303 74.0692 45.5477 73.6081 45.306C73.34 45.1648 73.0825 45.0016 72.8454 44.8077C72.52 44.5399 72.2219 44.2084 72.0583 43.7887C72.0363 43.7299 72.0388 43.663 72.0637 43.6036C72.0887 43.5442 72.134 43.4969 72.1914 43.4715C72.2488 43.4462 72.3144 43.4445 72.3752 43.4662C72.4359 43.4878 72.4871 43.5309 72.5156 43.5868C72.6669 43.8754 72.9223 44.12 73.2138 44.3111C73.4253 44.4495 73.658 44.5612 73.8999 44.6454C74.316 44.7898 74.76 44.8517 75.1889 44.8409C75.674 44.8213 76.1807 44.6398 76.6853 44.4246C77.2006 44.2018 77.7274 43.9354 78.2749 43.6937C78.6393 43.5314 79.0121 43.3794 79.3896 43.2318C79.9958 42.948 80.639 42.6417 81.3052 42.3333C82.7671 41.6566 84.3285 40.9807 85.7038 40.6395C87.1916 40.2704 88.3332 40.4497 89.268 40.9452C89.196 40.8719 89.1243 40.7946 89.0532 40.7127C88.8291 40.4546 88.5838 40.0884 88.3833 39.8145C88.1603 39.51 87.9306 39.2256 87.6599 38.9869C87.1567 38.5433 86.4612 38.207 85.2729 38.4049C83.9605 38.6235 82.4661 39.2363 80.8957 39.9701C79.9146 40.4285 78.8922 40.9399 77.9055 41.3993C77.6239 41.5417 77.3382 41.6792 77.0464 41.8075C76.8037 41.9134 76.5529 42.0161 76.3017 42.1097C76.1642 42.1626 76.0245 42.2092 75.8833 42.2501C75.7907 42.2798 75.6991 42.3077 75.6081 42.3326C75.5515 42.3481 75.4942 42.3567 75.4372 42.3587C74.2462 42.5949 72.9825 42.4276 71.9455 41.8878C71.5723 41.6944 71.2209 41.4627 70.9162 41.1593C70.8744 41.1153 70.8445 41.059 70.8371 40.9976C70.8298 40.9364 70.8449 40.8755 70.8803 40.8272C70.9159 40.779 70.9695 40.7464 71.0303 40.7352C71.091 40.724 71.1536 40.7359 71.208 40.7628C71.5282 40.9113 71.8854 41.0114 72.2356 41.0802C72.8797 41.2044 73.5175 41.2207 74.1325 41.1419C73.6634 40.5206 73.19 39.9235 72.7141 39.3595C71.3664 37.7622 69.9644 36.2471 68.5683 34.8534C68.5233 34.8855 68.477 34.919 68.4292 34.9542ZM90.4372 41.8011C90.911 42.2431 91.3106 42.7232 91.6604 43.1046C92.1175 43.603 92.5193 43.8619 92.9035 43.9974C93.2294 44.1124 93.5861 44.1539 94.0212 44.1353C93.7356 43.5058 93.305 42.8539 92.9949 42.4107C92.935 42.388 92.8272 42.3602 92.6296 42.3324C92.411 42.3015 92.0131 42.2639 91.6562 42.1971C91.2745 42.1256 90.8601 42.0105 90.4372 41.8011ZM83.0429 17.9664C82.7677 17.8587 82.4562 17.8135 82.0324 17.9798C81.5737 18.1599 80.9312 18.6091 80.0847 19.6319C79.2254 20.6702 77.6716 22.9587 76.1225 25.2218C75.3556 26.3421 74.5954 27.4478 73.9382 28.3643C73.2922 29.2652 72.7125 30.0312 72.3152 30.4391C71.6172 31.1554 70.9217 31.8075 70.1184 32.1461C69.2522 32.5111 68.3469 32.4822 67.3105 32.0504C66.2388 31.6038 65.8927 31.4607 65.448 31.547C65.3841 31.5593 65.3197 31.5628 65.2561 31.5587C65.212 31.5721 65.1669 31.5874 65.1206 31.6053C64.6093 31.8016 64.0411 32.1944 63.4939 32.5882C62.1421 33.6361 60.9386 35.2057 59.8203 36.7059C59.465 37.1943 59.1146 37.6947 58.8017 38.2027C58.781 38.2368 58.7531 38.266 58.7202 38.2882C59.6312 39.7754 60.6086 41.2216 61.633 42.6344C61.778 42.3332 61.9275 42.0339 62.0808 41.7369C63.5947 38.9286 65.1465 36.2526 67.6562 33.9002C67.7919 33.8026 67.9306 33.6969 68.0798 33.5919C68.1448 33.4769 68.2399 33.3795 68.3572 33.3116C68.7855 33.0635 69.2317 32.9005 69.7761 32.908C70.2901 32.9152 70.8249 33.0741 71.4365 33.3277C72.17 33.6319 72.8869 33.8517 73.5898 33.8038C74.2525 33.7587 74.9872 33.469 75.7571 32.5709C76.609 31.5769 78.1195 29.3268 79.6816 27.0257C81.2051 24.7816 82.7933 22.4646 83.7365 21.482C84.6448 20.5359 85.3979 20.0022 86.0539 19.7076C84.8778 18.8633 83.8006 18.2872 83.187 18.0255L83.0429 17.9664ZM55.1555 11.9337C54.9081 11.8047 54.6145 11.7463 54.2214 11.7833L54.1416 11.7918C54.1206 11.7944 54.1036 11.798 54.0901 11.8009C54.0748 11.9349 54.1046 12.2101 54.2517 12.6944C54.4019 13.1892 54.6294 13.7709 54.8901 14.4517C55.1458 15.1195 55.426 15.8639 55.6567 16.6361C55.7996 17.1142 55.9639 17.7402 56.1311 18.4649C56.5673 20.1721 56.855 21.9002 57.0053 23.6541C57.0756 24.3396 57.1253 25.0254 57.1457 25.6917C57.1482 25.7715 57.1374 25.8488 57.1164 25.9217C57.1096 26.6903 57.0368 27.4624 56.9013 28.2335C56.7797 28.8729 56.7681 29.5846 57.0251 29.9542C57.346 30.5894 58.5771 29.6613 58.7151 28.6551C58.8294 28.1262 58.8804 27.5602 58.9013 26.9818C58.8576 26.8787 58.8364 26.7654 58.8425 26.6493C58.9692 24.2542 58.6421 20.9648 57.9333 18.2335C57.2305 15.525 56.6521 13.8195 56.0217 12.8238C55.7159 12.3408 55.4281 12.0758 55.1555 11.9337Z" fill="#783B13"/>
<path fill-rule="evenodd" clip-rule="evenodd" d="M87.799 46.7628C89.12 46.7629 90.1909 47.8339 90.1909 49.1549C90.1908 50.4758 89.12 51.5466 87.799 51.5467C86.478 51.5467 85.407 50.4759 85.407 49.1549C85.407 47.8338 86.478 46.7628 87.799 46.7628ZM87.799 48.2628C87.3064 48.2628 86.907 48.6623 86.907 49.1549C86.907 49.6474 87.3065 50.0467 87.799 50.0467C88.2916 50.0466 88.6908 49.6474 88.6909 49.1549C88.6909 48.6623 88.2916 48.2629 87.799 48.2628Z" fill="#783B13"/>
</svg>
