<svg width="16" height="16" viewBox="0 0 16 16" fill="none" xmlns="http://www.w3.org/2000/svg">
<path fill-rule="evenodd" clip-rule="evenodd" d="M8 15.5C12.1421 15.5 15.5 12.1421 15.5 8C15.5 3.85786 12.1421 0.5 8 0.5C3.85786 0.5 0.5 3.85786 0.5 8C0.5 12.1421 3.85786 15.5 8 15.5Z" fill="#4397E0"/>
<path d="M8 0C12.4183 0 16 3.58172 16 8C16 12.4183 12.4183 16 8 16C3.58172 16 0 12.4183 0 8C1.93283e-07 3.58172 3.58172 1.93277e-07 8 0ZM8 1C4.13401 1 1 4.13401 1 8C1 11.866 4.13401 15 8 15C11.866 15 15 11.866 15 8C15 4.13401 11.866 1 8 1Z" fill="#045EB2"/>
<path d="M11.5 11.0001C11.7761 11.0001 12 11.224 12 11.5001C11.9999 11.7762 11.7761 12.0001 11.5 12.0001H4.5C4.2239 12.0001 4.00007 11.7762 4 11.5001C4 11.224 4.22386 11.0001 4.5 11.0001H11.5ZM8 2.50012C8.27614 2.50012 8.5 2.72398 8.5 3.00012V8.79309L10.9463 6.3468C11.1415 6.1516 11.458 6.15174 11.6533 6.3468C11.8483 6.54209 11.8485 6.85866 11.6533 7.05383L9.20215 9.505C8.53835 10.1688 7.46175 10.1686 6.79785 9.505L4.34668 7.05383L4.28223 6.97571C4.15407 6.78164 4.17584 6.51767 4.34668 6.3468C4.51754 6.17594 4.78151 6.15418 4.97559 6.28235L5.05371 6.3468L7.5 8.79309V3.00012C7.5 2.72398 7.72386 2.50012 8 2.50012Z" fill="white"/>
</svg>
