<svg width="128" height="96" viewBox="0 0 128 96" fill="none" xmlns="http://www.w3.org/2000/svg">
<path d="M75.7544 58.4169C78.2948 56.0216 82.5775 58.5251 81.5723 61.8688L79.7276 68.0038L79.7273 68.004L78.8521 70.9154C78.4303 72.318 77.1387 73.2782 75.6741 73.2782H51.6004C51.5575 73.2782 51.5149 73.2772 51.4727 73.2757C51.0192 73.2596 50.6031 73.1574 50.2327 72.9896C50.1633 72.9581 50.0955 72.9245 50.0293 72.8885C49.679 72.6982 49.3755 72.4467 49.127 72.1537C49.0556 72.0694 48.9887 71.9818 48.9266 71.8912C48.212 70.8486 48.1263 69.4133 48.9715 68.2931C49.093 68.132 49.2334 67.9771 49.3943 67.8312C64.4244 54.2018 50.7623 81.9825 75.7544 58.4169Z" fill="#F05F2B"/>
<path d="M62.3672 14.1571C63.3627 13.9611 64.1576 14.8953 64.0728 15.9064C63.5978 21.568 67.0371 25.5174 70.181 26.8573C70.9413 27.1813 71.716 26.6271 71.9073 25.8229C72.7749 22.1734 74.2264 20.7696 77.5274 20.0199C78.3403 19.8353 79.1067 20.4169 79.3235 21.2218C80.4319 25.3365 83.5413 28.8488 87.94 33.7176C92.7152 39.0033 95.3445 49.7482 89.198 58.8299V47.0409C89.1979 42.9174 85.855 39.5746 81.7315 39.5746H48.4654C44.3419 39.5746 40.9992 42.9174 40.9991 47.0409V61.6893C39.5678 59.825 38.4196 57.7197 37.6185 55.3981C32.8295 41.5202 40.7222 32.2161 44.9444 29.287C45.6796 28.777 46.5904 29.2326 47.0184 30.0182C49.1229 33.8821 53.6657 32.6365 52.2442 27.2894C50.7851 21.8013 54.9232 15.6229 62.3672 14.1571Z" fill="#F05F2B"/>
<path d="M48.096 43.2972C48.8331 43.2972 49.4306 43.8948 49.4307 44.6319C49.4307 45.3691 48.8331 45.9667 48.096 45.9667C47.3589 45.9666 46.7613 45.3691 46.7613 44.6319C46.7613 43.8949 47.3589 43.2973 48.096 43.2972Z" fill="#F05F2B"/>
<path d="M52.5452 43.2972C53.2823 43.2972 53.8799 43.8948 53.8799 44.6319C53.8799 45.3691 53.2824 45.9667 52.5452 45.9667C51.8081 45.9666 51.2105 45.3691 51.2105 44.6319C51.2106 43.8949 51.8081 43.2973 52.5452 43.2972Z" fill="#F05F2B"/>
<path d="M56.9939 43.2972C57.7311 43.2972 58.3286 43.8948 58.3287 44.6319C58.3286 45.3691 57.7311 45.9667 56.9939 45.9667C56.2568 45.9666 55.6593 45.3691 55.6592 44.6319C55.6593 43.8949 56.2568 43.2973 56.9939 43.2972Z" fill="#F05F2B"/>
<path fill-rule="evenodd" clip-rule="evenodd" d="M81.7324 39.5742C85.856 39.5742 89.1989 42.917 89.199 47.0405V72.5327C89.199 76.6563 85.856 79.999 81.7324 79.999H48.4663C44.3428 79.999 41 76.6563 41 72.5327V47.0405C41 42.917 44.3428 39.5743 48.4663 39.5742H81.7324ZM81.5732 61.8684C82.5786 58.5247 78.2957 56.0212 75.7554 58.4165C50.7632 81.9822 64.4254 54.2014 49.3953 67.8308C47.2427 69.7828 48.6955 73.2777 51.6013 73.2778H75.6753C77.1399 73.2778 78.4315 72.3176 78.8533 70.915L81.5732 61.8684ZM48.0969 43.2969C47.3598 43.2969 46.7622 43.8945 46.7622 44.6316C46.7622 45.3687 47.3598 45.9663 48.0969 45.9663C48.8341 45.9663 49.4316 45.3687 49.4316 44.6316C49.4316 43.8944 48.8341 43.2969 48.0969 43.2969ZM52.5461 43.2969C51.809 43.2969 51.2114 43.8945 51.2114 44.6316C51.2115 45.3687 51.809 45.9663 52.5461 45.9663C53.2833 45.9663 53.8808 45.3687 53.8809 44.6316C53.8808 43.8944 53.2833 43.2969 52.5461 43.2969ZM56.9949 43.2969C56.2577 43.2969 55.6602 43.8945 55.6602 44.6316C55.6602 45.3687 56.2577 45.9663 56.9949 45.9663C57.732 45.9663 58.3296 45.3687 58.3296 44.6316C58.3296 43.8944 57.732 43.2969 56.9949 43.2969Z" fill="#FFDACC"/>
<path fill-rule="evenodd" clip-rule="evenodd" d="M81.5588 39.5742C85.6824 39.5742 89.0251 42.917 89.0251 47.0405V48.5576H41.1719V47.0405C41.1719 42.917 44.5147 39.5743 48.6382 39.5742H81.5588ZM48.0959 43.2969C47.3588 43.2969 46.7612 43.8945 46.7612 44.6316C46.7613 45.3687 47.3588 45.9663 48.0959 45.9663C48.8331 45.9663 49.4306 45.3687 49.4307 44.6316C49.4306 43.8944 48.8331 43.2969 48.0959 43.2969ZM52.5452 43.2969C51.808 43.2969 51.2105 43.8945 51.2104 44.6316C51.2105 45.3687 51.808 45.9663 52.5452 45.9663C53.2823 45.9663 53.8799 45.3687 53.8799 44.6316C53.8799 43.8944 53.2823 43.2969 52.5452 43.2969ZM56.9939 43.2969C56.2568 43.2969 55.6592 43.8945 55.6592 44.6316C55.6592 45.3687 56.2568 45.9663 56.9939 45.9663C57.731 45.9663 58.3286 45.3687 58.3286 44.6316C58.3286 43.8944 57.731 43.2969 56.9939 43.2969Z" fill="#FFEBE5"/>
<path d="M82.4629 47.7706C82.7833 47.7706 83.1039 47.8972 83.4243 48.1502C83.4599 48.1783 83.4956 48.2081 83.5312 48.2393C83.5799 48.2828 83.6267 48.3265 83.6611 48.3736C83.6955 48.4209 83.715 48.4701 83.7151 48.5206C83.7151 48.5711 83.6955 48.6202 83.6611 48.6676C83.6267 48.7146 83.5799 48.7584 83.5312 48.8018C83.4957 48.833 83.4599 48.8629 83.4243 48.8909C83.1039 49.144 82.7833 49.2706 82.4629 49.2706C82.1424 49.2706 81.8219 49.144 81.5014 48.8909C81.4658 48.8628 81.4301 48.8331 81.3945 48.8018C81.3458 48.7583 81.2991 48.7147 81.2646 48.6676C81.2302 48.6202 81.2109 48.5712 81.2109 48.5206C81.211 48.4701 81.2302 48.4209 81.2646 48.3736C81.2991 48.3265 81.3459 48.2828 81.3945 48.2393C81.4301 48.2081 81.4659 48.1783 81.5014 48.1502C81.8219 47.8972 82.1424 47.7706 82.4629 47.7706Z" fill="#9E2B08"/>
<path fill-rule="evenodd" clip-rule="evenodd" d="M62.2226 13.4215C63.006 13.2672 63.7076 13.5674 64.1741 14.0679C64.6317 14.559 64.8805 15.2541 64.8205 15.9691C64.3754 21.2749 67.5969 24.9408 70.4753 26.1676C70.606 26.2232 70.7306 26.2098 70.8559 26.1302C70.9938 26.0426 71.1245 25.8733 71.1777 25.6497C71.626 23.7643 72.2492 22.3493 73.2698 21.3092C74.2951 20.2641 75.6408 19.6795 77.3616 19.2887C78.653 18.9954 79.7509 19.9245 80.0478 21.0269C81.0997 24.932 84.0605 28.3044 88.4968 33.2149C93.6158 38.8811 96.3451 50.5066 89.2322 60.0784C89.221 60.0935 89.2096 60.1084 89.1985 60.1234V72.5335L89.196 72.7262C89.0939 76.7607 85.7911 79.9998 81.7319 79.9998H48.4658C44.4067 79.9997 41.1041 76.7606 41.0019 72.7262L40.9995 72.5335V62.8917C39.2438 60.7897 37.848 58.3622 36.9096 55.6431C31.9765 41.3476 40.117 31.724 44.5173 28.6712C45.1174 28.2549 45.7984 28.2415 46.374 28.4703C46.9299 28.6914 47.3908 29.1334 47.6775 29.6597C48.6241 31.3976 49.9349 31.7129 50.6711 31.4134C51.3711 31.1286 52.1897 30.0035 51.5195 27.4825C49.9209 21.4695 54.469 14.9483 62.2226 13.4215ZM48.4658 41.075C45.1708 41.0751 42.4996 43.7463 42.4995 47.0413V47.7706C43.0764 47.7768 43.6533 47.7832 44.2302 47.7894C54.7333 47.9019 65.2366 48.0143 75.7397 48.1268C76.3232 48.133 76.9068 48.1393 77.4902 48.1456C77.5885 48.1467 77.6829 48.1872 77.7524 48.2574C77.822 48.3277 77.861 48.4222 77.8611 48.5206C77.8611 48.6189 77.8219 48.7134 77.7524 48.7838C77.6829 48.854 77.5886 48.8945 77.4902 48.8956C76.9068 48.9018 76.3232 48.9081 75.7397 48.9144C65.2366 49.0269 54.7333 49.1393 44.2302 49.2518C43.6533 49.258 43.0764 49.2642 42.4995 49.2703V72.5335C42.4995 75.8286 45.1707 78.4997 48.4658 78.4998H81.7319C85.027 78.4998 87.6985 75.8286 87.6985 72.5335V47.0413C87.6984 43.7463 85.027 41.0751 81.7319 41.075H48.4658ZM63.0766 15.0907C62.918 14.9204 62.7242 14.8514 62.5122 14.8931C55.3779 16.298 51.6498 22.1336 52.9692 27.0968C53.7205 29.9227 52.9784 32.0942 51.2363 32.8031C49.5305 33.4971 47.5179 32.5031 46.3601 30.3775C46.219 30.1184 46.01 29.9398 45.8198 29.8641C45.6492 29.7963 45.5071 29.8099 45.3721 29.9036C41.3281 32.7092 33.683 41.6935 38.3279 55.1536C38.9864 57.062 39.8896 58.8217 40.9995 60.4168V47.0413C40.9996 42.9179 44.3424 39.5751 48.4658 39.575H81.7319C85.8554 39.5751 89.1984 42.9178 89.1985 47.0413V57.4346C94.3124 48.8947 91.793 39.1015 87.3838 34.2208C83.0229 29.3937 79.7645 25.7418 78.5996 21.4176C78.4629 20.9102 78.0281 20.6759 77.6936 20.7518C76.1133 21.1107 75.0827 21.6031 74.3403 22.3597C73.5932 23.1212 73.0565 24.2326 72.6372 25.9964C72.3752 27.0984 71.2093 28.1109 69.8869 27.5474C66.4776 26.0944 62.821 21.8614 63.3259 15.8438C63.3507 15.5479 63.2441 15.2704 63.0766 15.0907Z" fill="#9E2B08"/>
<path d="M48.4156 23.643C48.5169 23.5937 48.6243 23.5783 48.7251 23.6027C48.8261 23.6273 48.915 23.6905 48.983 23.781C49.0509 23.8714 49.0927 23.982 49.1228 24.0939C49.1384 24.1322 49.152 24.1694 49.1631 24.2055C49.1906 24.2947 49.2035 24.3792 49.2 24.466C49.1819 25.0159 49.235 25.6541 49.3279 26.3259C49.3341 26.3692 49.3407 26.4132 49.3475 26.4567C49.3589 26.5227 49.3572 26.5924 49.333 26.6555C49.3088 26.7185 49.2648 26.7697 49.2076 26.7988C49.1503 26.8279 49.0829 26.8336 49.0174 26.8161C48.9518 26.7986 48.894 26.7589 48.847 26.7109C48.813 26.6749 48.7794 26.6375 48.7471 26.5998C48.2489 26.0085 47.9264 25.2581 47.9505 24.4101C47.9558 24.2754 47.9903 24.1387 48.0555 24.0095C48.0818 23.9572 48.1134 23.9059 48.1497 23.8574C48.227 23.7716 48.3143 23.6924 48.4156 23.643Z" fill="#CC3B0A"/>
<path d="M60.3755 9.84493C60.65 9.80606 60.9276 9.81727 61.2105 9.87789C61.3553 9.9119 61.497 9.97513 61.6062 10.0786C61.7155 10.182 61.7835 10.3156 61.7957 10.4575C61.8079 10.5993 61.7636 10.7418 61.6736 10.8613C61.5836 10.9809 61.4549 11.0664 61.3179 11.1232C61.0744 11.2266 60.8382 11.2947 60.5935 11.3293C60.5579 11.3344 60.5221 11.3398 60.4866 11.3452C55.4598 12.0941 50.9832 15.9373 49.1895 20.8347C49.0977 21.1099 49.0182 21.39 48.9556 21.6677C48.9398 21.7385 48.8987 21.8022 48.8387 21.8439C48.7787 21.8857 48.7049 21.9025 48.6333 21.8903C48.5618 21.8781 48.4974 21.8378 48.4541 21.7785C48.4109 21.7192 48.3926 21.6453 48.4004 21.5732C48.4343 21.2686 48.4874 20.9605 48.5547 20.6572C49.8981 15.2825 54.5573 10.7243 60.2554 9.8625C60.2953 9.85648 60.3355 9.8506 60.3755 9.84493Z" fill="#CC3B0A"/>
</svg>
