<svg width="128" height="96" viewBox="0 0 128 96" fill="none" xmlns="http://www.w3.org/2000/svg">
<path d="M52.2447 27.2889C50.7856 21.8008 54.9238 15.6225 62.3678 14.1566C63.3633 13.9606 64.1583 14.8948 64.0735 15.9058C63.5984 21.5676 67.0376 25.5169 70.1815 26.8568C70.9419 27.1809 71.7167 26.6268 71.9079 25.8225C72.7756 22.173 74.2268 20.7692 77.5279 20.0195C78.3409 19.8349 79.1073 20.4164 79.3241 21.2214C80.4324 25.3361 83.5419 28.8483 87.9406 33.7172C92.857 39.1591 95.4989 50.388 88.6306 59.6306C81.7623 68.8732 76.5318 70.4569 64.3996 71.3023C52.2674 72.1476 41.2941 66.0473 37.6191 55.3977C32.8301 41.5197 40.7229 32.2158 44.945 29.2866C45.6802 28.7766 46.5911 29.2321 47.019 30.0178C49.1236 33.8818 53.6663 32.636 52.2447 27.2889Z" fill="#F05F2B"/>
<path d="M41 47.0406C41 42.917 44.3428 39.5742 48.4664 39.5742H81.7325C85.8561 39.5742 89.1989 42.917 89.1989 47.0406V72.5327C89.1989 76.6563 85.8561 79.9991 81.7325 79.9991H48.4664C44.3428 79.9991 41 76.6563 41 72.5327V47.0406Z" fill="#671907"/>
<path d="M41.1719 47.0406C41.1719 42.917 44.5147 39.5742 48.6383 39.5742H81.5589C85.6824 39.5742 89.0253 42.917 89.0253 47.0406V48.5575H41.1719V47.0406Z" fill="#290E0A"/>
<path d="M82.4629 47.7706C82.7833 47.7706 83.1039 47.8972 83.4243 48.1502C83.4599 48.1783 83.4956 48.2081 83.5312 48.2393C83.5799 48.2828 83.6267 48.3265 83.6611 48.3736C83.6955 48.4209 83.715 48.4701 83.7151 48.5206C83.7151 48.5711 83.6955 48.6202 83.6611 48.6676C83.6267 48.7146 83.5799 48.7584 83.5312 48.8018C83.4957 48.833 83.4599 48.8629 83.4243 48.8909C83.1039 49.144 82.7833 49.2706 82.4629 49.2706C82.1424 49.2706 81.8219 49.144 81.5014 48.8909C81.4658 48.8628 81.4301 48.8331 81.3945 48.8018C81.3458 48.7583 81.2991 48.7147 81.2646 48.6676C81.2302 48.6202 81.2109 48.5712 81.2109 48.5206C81.211 48.4701 81.2302 48.4209 81.2646 48.3736C81.2991 48.3265 81.3459 48.2828 81.3945 48.2393C81.4301 48.2081 81.4659 48.1783 81.5014 48.1502C81.8219 47.8972 82.1424 47.7706 82.4629 47.7706Z" fill="#9E2B08"/>
<path fill-rule="evenodd" clip-rule="evenodd" d="M62.2226 13.4215C63.006 13.2672 63.7076 13.5674 64.1741 14.0679C64.6317 14.559 64.8805 15.2541 64.8205 15.9691C64.3754 21.2749 67.5969 24.9408 70.4753 26.1676C70.606 26.2232 70.7306 26.2098 70.8559 26.1302C70.9938 26.0426 71.1245 25.8733 71.1777 25.6497C71.626 23.7643 72.2492 22.3493 73.2698 21.3092C74.2951 20.2641 75.6408 19.6795 77.3616 19.2887C78.653 18.9954 79.7509 19.9245 80.0478 21.0269C81.0997 24.932 84.0605 28.3044 88.4968 33.2149C93.6158 38.8811 96.3451 50.5066 89.2322 60.0784C89.221 60.0935 89.2096 60.1084 89.1985 60.1234V72.5335L89.196 72.7262C89.0939 76.7607 85.7911 79.9998 81.7319 79.9998H48.4658C44.4067 79.9997 41.1041 76.7606 41.0019 72.7262L40.9995 72.5335V62.8917C39.2438 60.7897 37.848 58.3622 36.9096 55.6431C31.9765 41.3476 40.117 31.724 44.5173 28.6712C45.1174 28.2549 45.7984 28.2415 46.374 28.4703C46.9299 28.6914 47.3908 29.1334 47.6775 29.6597C48.6241 31.3976 49.9349 31.7129 50.6711 31.4134C51.3711 31.1286 52.1897 30.0035 51.5195 27.4825C49.9209 21.4695 54.469 14.9483 62.2226 13.4215ZM48.4658 41.075C45.1708 41.0751 42.4996 43.7463 42.4995 47.0413V47.7706C43.0764 47.7768 43.6533 47.7832 44.2302 47.7894C54.7333 47.9019 65.2366 48.0143 75.7397 48.1268C76.3232 48.133 76.9068 48.1393 77.4902 48.1456C77.5885 48.1467 77.6829 48.1872 77.7524 48.2574C77.822 48.3277 77.861 48.4222 77.8611 48.5206C77.8611 48.6189 77.8219 48.7134 77.7524 48.7838C77.6829 48.854 77.5886 48.8945 77.4902 48.8956C76.9068 48.9018 76.3232 48.9081 75.7397 48.9144C65.2366 49.0269 54.7333 49.1393 44.2302 49.2518C43.6533 49.258 43.0764 49.2642 42.4995 49.2703V72.5335C42.4995 75.8286 45.1707 78.4997 48.4658 78.4998H81.7319C85.027 78.4998 87.6985 75.8286 87.6985 72.5335V47.0413C87.6984 43.7463 85.027 41.0751 81.7319 41.075H48.4658ZM63.0766 15.0907C62.918 14.9204 62.7242 14.8514 62.5122 14.8931C55.3779 16.298 51.6498 22.1336 52.9692 27.0968C53.7205 29.9227 52.9784 32.0942 51.2363 32.8031C49.5305 33.4971 47.5179 32.5031 46.3601 30.3775C46.219 30.1184 46.01 29.9398 45.8198 29.8641C45.6492 29.7963 45.5071 29.8099 45.3721 29.9036C41.3281 32.7092 33.683 41.6935 38.3279 55.1536C38.9864 57.062 39.8896 58.8217 40.9995 60.4168V47.0413C40.9996 42.9179 44.3424 39.5751 48.4658 39.575H81.7319C85.8554 39.5751 89.1984 42.9178 89.1985 47.0413V57.4346C94.3124 48.8947 91.793 39.1015 87.3838 34.2208C83.0229 29.3937 79.7645 25.7418 78.5996 21.4176C78.4629 20.9102 78.0281 20.6759 77.6936 20.7518C76.1133 21.1107 75.0827 21.6031 74.3403 22.3597C73.5932 23.1212 73.0565 24.2326 72.6372 25.9964C72.3752 27.0984 71.2093 28.1109 69.8869 27.5474C66.4776 26.0944 62.821 21.8614 63.3259 15.8438C63.3507 15.5479 63.2441 15.2704 63.0766 15.0907Z" fill="#9E2B08"/>
<path d="M75.7549 58.4174C78.2952 56.0221 82.5781 58.5257 81.5728 61.8693L78.8528 70.916C78.431 72.3186 77.1395 73.2788 75.6748 73.2788H51.6008C48.695 73.2787 47.2422 69.7837 49.3948 67.8317C64.425 54.2023 50.7627 81.9831 75.7549 58.4174Z" fill="#CC3B0A"/>
<path d="M48.0964 43.2978C48.8336 43.2978 49.4311 43.8954 49.4312 44.6325C49.4311 45.3697 48.8336 45.9672 48.0964 45.9672C47.3593 45.9672 46.7617 45.3697 46.7617 44.6325C46.7617 43.8954 47.3593 43.2978 48.0964 43.2978Z" fill="#CC3B0A"/>
<path d="M52.5457 43.2978C53.2828 43.2978 53.8804 43.8954 53.8804 44.6325C53.8803 45.3697 53.2828 45.9672 52.5457 45.9672C51.8085 45.9672 51.211 45.3697 51.2109 44.6325C51.211 43.8954 51.8085 43.2978 52.5457 43.2978Z" fill="#CC3B0A"/>
<path d="M56.9944 43.2978C57.7315 43.2978 58.3291 43.8954 58.3291 44.6325C58.3291 45.3697 57.7315 45.9672 56.9944 45.9672C56.2573 45.9672 55.6597 45.3697 55.6597 44.6325C55.6597 43.8954 56.2572 43.2978 56.9944 43.2978Z" fill="#CC3B0A"/>
<path d="M48.417 23.643C48.5183 23.5937 48.6257 23.5783 48.7266 23.6027C48.8275 23.6273 48.9164 23.6905 48.9844 23.781C49.0523 23.8714 49.0941 23.982 49.1243 24.0939C49.1398 24.1322 49.1534 24.1694 49.1646 24.2055C49.1921 24.2947 49.2049 24.3792 49.2014 24.466C49.1834 25.0159 49.2365 25.6541 49.3293 26.3259C49.3356 26.3692 49.3421 26.4132 49.3489 26.4567C49.3603 26.5227 49.3586 26.5924 49.3345 26.6555C49.3103 26.7185 49.2662 26.7697 49.209 26.7988C49.1517 26.8279 49.0843 26.8336 49.0188 26.8161C48.9532 26.7986 48.8954 26.7589 48.8484 26.7109C48.8144 26.6749 48.7809 26.6375 48.7485 26.5998C48.2503 26.0085 47.9278 25.2581 47.9519 24.4101C47.9572 24.2754 47.9917 24.1387 48.0569 24.0095C48.0833 23.9572 48.1148 23.9059 48.1511 23.8574C48.2285 23.7716 48.3157 23.6924 48.417 23.643Z" fill="#CC3B0A"/>
<path d="M60.377 9.84493C60.6515 9.80606 60.929 9.81727 61.2119 9.87789C61.3568 9.9119 61.4984 9.97513 61.6077 10.0786C61.7169 10.182 61.7849 10.3156 61.7971 10.4575C61.8093 10.5993 61.7651 10.7418 61.675 10.8613C61.585 10.9809 61.4563 11.0664 61.3193 11.1232C61.0758 11.2266 60.8396 11.2947 60.595 11.3293C60.5593 11.3344 60.5236 11.3398 60.488 11.3452C55.4612 12.0941 50.9846 15.9373 49.1909 20.8347C49.0991 21.1099 49.0196 21.39 48.957 21.6677C48.9412 21.7385 48.9001 21.8022 48.8401 21.8439C48.7801 21.8857 48.7063 21.9025 48.6348 21.8903C48.5632 21.8781 48.4988 21.8378 48.4556 21.7785C48.4123 21.7192 48.394 21.6453 48.4019 21.5732C48.4357 21.2686 48.4888 20.9605 48.5562 20.6572C49.8996 15.2825 54.5588 10.7243 60.2568 9.8625C60.2967 9.85648 60.3369 9.8506 60.377 9.84493Z" fill="#CC3B0A"/>
</svg>
