<svg width="128" height="96" viewBox="0 0 128 96" fill="none" xmlns="http://www.w3.org/2000/svg">
<path d="M79.4497 20.5941C88.0361 20.1354 95.2497 26.974 95.2497 35.5726V45.1524C97.9612 45.4578 99.8288 48.1438 99.0647 50.8475L92.5603 73.8602C92.0125 75.7981 90.2436 77.1363 88.2297 77.1363H79.8525C76.8996 77.1363 74.7471 74.3401 75.5022 71.4854L76.5083 67.6815L41.7121 67.6358C35.2486 67.6273 30.1214 62.1869 30.4958 55.7342L31.8064 33.1531C32.1384 27.4333 36.716 22.8768 42.4372 22.5711L79.4497 20.5941Z" fill="#F5FBFE"/>
<path d="M76.5564 67.4994H76.1421C76.2344 67.6553 76.3299 67.8171 76.4282 67.9832L75.5022 71.485C74.8411 73.984 76.4083 76.4378 78.79 77.0106C78.3095 77.2347 77.7027 77.3558 76.9895 77.3558L63.1592 77.3829L63.1582 77.3827L50.5676 77.4076C50.3816 77.4079 50.241 77.2391 50.2751 77.0562C50.4986 75.8614 51.5004 74.9681 52.7129 74.8824L58.5017 74.4732C59.3919 74.4103 59.8625 73.3898 59.3323 72.672L55.5103 67.4994H41.106C37.1529 67.4993 33.5356 65.2762 31.75 61.7494H78.0776L76.5564 67.4994Z" fill="#4397E0"/>
<path d="M79.4495 20.5941C88.036 20.1352 95.25 26.9738 95.25 35.5726V45.1519C95.0812 45.1329 94.909 45.1229 94.7341 45.1229H90.9236L91.4773 33.7437C91.8371 26.348 85.7254 20.2628 78.3323 20.6537L79.4495 20.5941Z" fill="#4397E0"/>
<path d="M78.325 20.6541L67.8669 21.2132L78.3323 20.6537C78.3298 20.6538 78.3274 20.654 78.325 20.6541Z" fill="#4397E0"/>
<path d="M97.019 45.123C99.9653 45.1231 102.117 47.9076 101.373 50.7585L94.6499 76.5439C94.1332 78.5257 92.3434 79.9084 90.2954 79.9084H79.0688C76.1225 79.9084 73.971 77.1242 74.7144 74.2732L81.0342 50.0356C81.1912 49.4333 81.4291 48.869 81.7339 48.3528C81.5723 48.6845 81.4409 49.0354 81.3438 49.4026L75.5022 71.4851C74.7471 74.3398 76.8996 77.1357 79.8525 77.1357H88.2297C90.2436 77.1357 92.0125 75.7978 92.5603 73.8599L99.0647 50.8469C99.8763 47.9751 97.7185 45.123 94.7341 45.123H97.019Z" fill="#75B6EB"/>
<path d="M95.0342 65.091C95.0988 65.0562 95.1741 65.0478 95.244 65.068C95.3138 65.0883 95.3731 65.1359 95.409 65.1999C95.4449 65.2639 95.4544 65.3392 95.4376 65.4101C95.365 65.7149 95.2917 66.0197 95.2176 66.3241C94.6356 68.7145 94.006 71.0912 93.3289 73.454C93.265 73.6767 93.1881 73.8953 93.0982 74.1088C92.4427 75.6851 91.0383 76.8919 89.4383 77.3754C88.8899 77.5445 88.3177 77.6307 87.7476 77.6327C86.8733 77.6347 85.9987 77.6354 85.1243 77.6366C84.8113 77.6371 84.4981 77.6374 84.1851 77.6381C84.1124 77.6382 84.0417 77.609 83.9888 77.5578C83.936 77.5064 83.9051 77.4371 83.9031 77.3644C83.9012 77.2917 83.9283 77.221 83.9783 77.1669C84.0284 77.1129 84.0973 77.0796 84.17 77.0758C84.4827 77.0598 84.7955 77.0435 85.1082 77.0273C85.9814 76.9818 86.8547 76.9358 87.7278 76.891C88.2255 76.8648 88.7167 76.7663 89.1819 76.6C90.5457 76.1171 91.6352 75.0238 92.1766 73.7209C92.2514 73.5431 92.3161 73.3614 92.3707 73.1759C93.0641 70.8179 93.8053 68.4734 94.5938 66.143C94.6942 65.8462 94.7956 65.5496 94.8975 65.2533C94.9213 65.1844 94.9696 65.1258 95.0342 65.091Z" fill="#045EB2"/>
<path fill-rule="evenodd" clip-rule="evenodd" d="M79.4097 19.8451C88.4251 19.3638 95.9988 26.5447 95.9991 35.5729V44.3737H96.3721C100.137 44.3738 102.886 47.9315 101.936 51.5744L95.4732 76.36C94.8129 78.8921 92.526 80.659 89.9092 80.6591H79.7161C77.5564 80.6591 75.7313 79.488 74.7466 77.8019L50.7527 77.7812C49.9939 77.7803 49.4304 77.0774 49.595 76.3366C49.8616 75.1382 50.8993 74.2674 52.1258 74.2126L58.4307 73.9313C58.735 73.9175 58.9029 73.5716 58.7254 73.3241L55.1927 68.4037L41.7112 68.3861C34.8168 68.3769 29.3477 62.5737 29.7471 55.6908L31.0574 33.11C31.4117 27.0091 36.295 22.1482 42.3975 21.8222L79.4097 19.8451ZM86.9517 45.8737C84.5624 45.8737 82.4743 47.487 81.8714 49.799L75.6036 73.8368C74.9015 76.5294 76.9335 79.1591 79.7161 79.1591H89.9092C91.8434 79.159 93.5337 77.8531 94.0218 75.9816L100.485 51.196C101.187 48.5034 99.1547 45.8738 96.3721 45.8737H86.9517ZM59.9439 72.4491C60.8163 73.6644 59.9919 75.363 58.4974 75.4298L52.1924 75.7108C51.7845 75.7292 51.4231 75.9495 51.2154 76.2814L74.1336 76.3009C74.0449 75.9473 73.9898 75.5823 73.9708 75.2101C71.8762 75.2306 69.7791 75.1444 67.6805 74.9508C67.4271 74.9275 67.1732 74.9024 66.9197 74.8759C66.8496 74.8684 66.7815 74.8388 66.731 74.788C66.6805 74.7371 66.6513 74.6696 66.65 74.5995C66.6487 74.5295 66.6754 74.461 66.7239 74.4084C66.7725 74.3558 66.8395 74.3234 66.9092 74.3134C67.1615 74.2774 67.4143 74.2429 67.6666 74.2101C69.7931 73.9335 71.9223 73.7678 74.053 73.7128C74.0666 73.7123 74.0799 73.7112 74.0928 73.7099C74.1108 73.6261 74.1303 73.5423 74.1522 73.4584L74.3633 72.6481C73.7181 71.3433 73.1174 70.0138 72.5628 68.6596C72.5311 68.582 72.4995 68.5041 72.4681 68.4264L57.0408 68.4062L59.9439 72.4491ZM73.2977 68.4274C73.8345 69.1994 74.3524 69.9819 74.8519 70.7743L75.4632 68.4301L73.2977 68.4274ZM94.4991 35.5729C94.4988 27.4046 87.6465 20.9077 79.4898 21.3432L42.4776 23.3202C37.1379 23.6055 32.865 27.8586 32.555 33.1969L31.2444 55.7777C30.8949 61.8002 35.6806 66.8781 41.7132 66.8861L75.8541 66.9306L80.42 49.4206C81.1951 46.448 83.8797 44.3737 86.9517 44.3737H90.629C90.7439 42.5269 90.8762 40.6782 91.0425 38.8256C91.0855 38.3514 91.1306 37.8767 91.1783 37.3905C91.1855 37.3187 91.2179 37.2502 91.2718 37.2011C91.3257 37.1521 91.3966 37.1257 91.4686 37.1281C91.5405 37.1307 91.6094 37.1617 91.6597 37.2143C91.7101 37.2669 91.7379 37.3375 91.7403 37.4096C91.7551 37.8973 91.7695 38.3732 91.7828 38.8485C91.8339 40.689 91.8717 42.5312 91.8809 44.3737H94.4991V35.5729Z" fill="#045EB2"/>
<path d="M93.1989 59.8195C93.4387 59.7562 93.6236 59.8966 93.5925 60.1137C93.4185 61.2866 92.8552 62.5179 91.8901 63.6425C89.5174 66.4091 85.6171 67.5039 83.0524 66.164C82.9362 66.1037 82.7625 66.1501 82.6584 66.2728L81.954 67.0958C81.7801 67.2969 81.4744 67.2691 81.4675 67.0499L81.3784 63.9506C81.3731 63.8176 81.4945 63.6726 81.6518 63.6305L85.2062 62.6825C85.4587 62.6151 85.5938 62.8473 85.4199 63.0485L84.7001 63.8864C84.5904 64.0166 84.5954 64.1819 84.7194 64.2418C86.3234 65.0072 88.6982 64.3138 90.1496 62.6198L90.1545 62.6159C90.6342 62.0573 90.9502 61.4584 91.1171 60.8688C91.2032 60.5559 91.4851 60.2785 91.8288 60.1859L93.1989 59.8195Z" fill="#1074CC"/>
<path d="M93.6706 53.9362C93.8559 53.7346 94.1905 53.7613 94.2031 53.9804L94.3715 57.0765C94.3803 57.2094 94.2512 57.3547 94.0805 57.3974L90.2214 58.3573C89.9473 58.4256 89.7946 58.1939 89.9799 57.9923L90.7463 57.1527C90.8632 57.0222 90.854 56.857 90.7172 56.7975C88.9483 56.0385 86.3714 56.7398 84.8256 58.4376L84.8205 58.4413C84.3096 59.001 83.9782 59.6007 83.8095 60.1903C83.7227 60.5032 83.4214 60.7814 83.0483 60.8751L81.561 61.2462C81.3006 61.3103 81.0954 61.1706 81.1245 60.9535C81.2875 59.781 81.8739 58.5487 82.9018 57.4218C85.4287 54.6491 89.6619 53.5416 92.4929 54.8712C92.6211 54.931 92.81 54.884 92.9208 54.7609L93.6706 53.9362Z" fill="#1074CC"/>
<path d="M73.5558 41.1144C74.0517 40.9862 74.5278 41.3465 74.5668 41.8705C74.7658 44.7 74.138 47.6297 72.5737 50.2577C68.7289 56.7233 60.6965 58.9674 54.3937 55.4418C54.1084 55.2832 53.7493 55.3773 53.5812 55.6644L52.4409 57.5878C52.1581 58.0575 51.4722 57.9578 51.3483 57.4247L49.6161 49.8905C49.5385 49.5671 49.7334 49.2275 50.0583 49.142L57.4033 47.2172C57.9249 47.0803 58.3366 47.6587 58.0539 48.1286L56.8874 50.0866C56.7105 50.3911 56.8033 50.793 57.1057 50.9518C61.0117 52.9805 65.8889 51.5489 68.2402 47.5895L68.249 47.5807C69.0267 46.2754 69.4247 44.8546 69.4995 43.4408C69.5336 42.6903 70.0158 42.047 70.7255 41.8588L73.5558 41.1144Z" fill="#1074CC"/>
<path d="M69.2492 29.1498C69.5218 28.6798 70.1827 28.7795 70.3015 29.3126L71.9631 36.8463C72.0375 37.1697 71.8495 37.5092 71.5366 37.5949L64.4619 39.5211C63.9595 39.658 63.5635 39.0799 63.8361 38.61L64.9611 36.6517C65.1317 36.3472 65.0428 35.9452 64.7519 35.7865C60.9922 33.7586 56.294 35.1911 54.0266 39.151L54.0182 39.1598C53.2682 40.4652 52.8839 41.8861 52.8107 43.2999C52.7772 44.0505 52.3122 44.6941 51.6286 44.8825L48.9025 45.6273C48.4249 45.7557 47.9665 45.3952 47.9294 44.8712C47.7402 42.0418 48.3472 39.1118 49.8559 36.4835C53.5638 30.0173 61.3005 27.7717 67.3669 31.296C67.6415 31.4546 67.9875 31.3603 68.1496 31.0731L69.2492 29.1498Z" fill="#1074CC"/>
<path d="M41.3005 19.5001C41.6143 19.4996 41.9285 19.5007 42.2426 19.5033C42.3139 19.504 42.3845 19.5281 42.4391 19.5753C42.4938 19.6225 42.5281 19.6883 42.5346 19.7589C42.5411 19.8295 42.5192 19.9003 42.4741 19.9567C42.4289 20.013 42.3638 20.0497 42.2939 20.0634C41.9855 20.123 41.6768 20.1811 41.3681 20.2377C40.9435 20.3155 40.5186 20.3904 40.0934 20.4623C37.8311 20.85 35.7509 21.8499 34.0683 23.3117C32.0805 25.0339 30.6447 27.3986 30.0676 30.0741C30.0032 30.3712 29.9491 30.671 29.9057 30.976C29.8957 31.0465 29.8624 31.1132 29.8085 31.1613C29.7546 31.2093 29.6848 31.2349 29.614 31.2321C29.5431 31.2292 29.4757 31.1983 29.4257 31.1461C29.3758 31.0939 29.348 31.0247 29.3437 30.9535C29.3253 30.631 29.3212 30.3088 29.3322 29.985C29.4145 27.0659 30.8088 24.1346 33.0854 22.1786C34.9993 20.5067 37.5153 19.5473 40.0063 19.5114C40.4374 19.5047 40.8689 19.5009 41.3005 19.5001Z" fill="#1074CC"/>
</svg>
