<svg width="96" height="96" viewBox="0 0 96 96" fill="none" xmlns="http://www.w3.org/2000/svg">
<path d="M48 16C61.6027 16 68.404 16.0001 73.1013 19.5767C74.3529 20.5297 75.4703 21.6471 76.4233 22.8987C79.9999 27.596 80 34.3973 80 48C80 53.0016 79.9996 57.0837 79.8218 60.4797C78.0371 59.7071 76.0685 59.2788 74 59.2788C65.8998 59.2788 59.3335 65.8454 59.3335 73.9456C59.3335 76.0336 59.7697 78.0196 60.5562 79.8176C57.1449 79.9995 53.0392 80 48 80C34.3973 80 27.596 79.9999 22.8987 76.4233C21.6471 75.4703 20.5297 74.3529 19.5767 73.1013C16.0001 68.404 16 61.6027 16 48C16 34.3973 16.0001 27.596 19.5767 22.8987C20.5297 21.6471 21.6471 20.5297 22.8987 19.5767C27.596 16.0001 34.3973 16 48 16Z" fill="#181718"/>
<path d="M34.1824 26.666C36.2552 26.666 38.1938 27.2398 39.8489 28.2366C38.5834 29.3388 37.542 30.6915 36.8018 32.2175C36.2886 31.3001 35.3082 30.6795 34.1824 30.6794C32.5256 30.6794 31.1825 32.0227 31.1824 33.6794C31.1824 35.3363 32.5255 36.6794 34.1824 36.6794C34.7065 36.6794 35.199 36.5446 35.6277 36.3083C35.5795 36.7543 35.5547 37.2073 35.5547 37.666C35.5547 41.4305 37.2193 44.804 39.8491 47.0942C38.834 47.7056 37.7124 48.1582 36.5183 48.4165V53.6394H38.1851C39.2895 53.6395 40.1851 54.5349 40.1851 55.6394V62.3062C40.185 63.4106 39.2895 64.306 38.1851 64.3062H36.5183V65.9995C36.5183 67.2881 35.4736 68.3326 34.1851 68.3328C32.8964 68.3328 31.8516 67.2882 31.8516 65.9995V48.4177C26.896 47.3485 23.1821 42.9413 23.1821 37.666C23.1822 31.591 28.1073 26.666 34.1824 26.666Z" fill="#FFC95C"/>
<path d="M41.1184 29.1289C43.5978 31.1459 45.1823 34.2207 45.1824 37.666C45.1824 41.1114 43.5978 44.186 41.1182 46.2026C38.6389 44.1858 37.0547 41.1112 37.0547 37.666C37.0547 34.2208 38.639 31.1459 41.1184 29.1289Z" fill="#FFC95C"/>
<path d="M37.8513 64.3054H36.5181V53.6387H37.8513V64.3054Z" fill="#F5A031"/>
<path d="M48.0547 26.666C49.0802 26.666 50.0728 26.8068 51.0146 27.0693C51.0617 27.0824 51.1085 27.0959 51.1553 27.1096C51.2604 27.1404 51.3647 27.1729 51.4685 27.2068C51.5469 27.2324 51.625 27.2588 51.7026 27.2861C51.7235 27.2935 51.7444 27.3007 51.7651 27.3081C51.9153 27.3619 52.0639 27.4191 52.2109 27.4792C52.2861 27.51 52.3609 27.5414 52.4353 27.5737C52.879 27.7667 53.3075 27.9879 53.7185 28.2354C52.4535 29.3368 51.4125 30.6887 50.6721 32.2136C50.6422 32.1603 50.6104 32.1083 50.5774 32.0571C50.5738 32.0516 50.5705 32.046 50.5669 32.0405C50.5515 32.017 50.5358 31.9938 50.5198 31.9707C50.5141 31.9626 50.5084 31.9546 50.5027 31.9465C50.4726 31.904 50.4414 31.8623 50.4092 31.8215C50.4042 31.8152 50.3993 31.8088 50.3943 31.8025C50.3776 31.7817 50.3607 31.7613 50.3435 31.741C50.334 31.7298 50.3243 31.7188 50.3147 31.7078C50.286 31.6749 50.2566 31.6427 50.2266 31.6111C50.2167 31.6007 50.2068 31.5903 50.1968 31.5801C50.1801 31.5631 50.1633 31.5464 50.1462 31.5298C50.1345 31.5184 50.1227 31.5071 50.1108 31.4958C50.0812 31.468 50.051 31.4407 50.0203 31.4141C50.0086 31.4039 49.9969 31.3938 49.9851 31.3838C49.9673 31.3688 49.9493 31.3542 49.9312 31.3396C49.9138 31.3257 49.8963 31.3119 49.8787 31.2983C49.8648 31.2877 49.851 31.2768 49.8369 31.2664C49.8073 31.2445 49.7772 31.2232 49.7468 31.2024C49.7336 31.1933 49.7202 31.1846 49.7068 31.1758C49.6838 31.1606 49.6606 31.1457 49.6372 31.1311C49.6231 31.1223 49.609 31.1133 49.5947 31.1047C49.5641 31.0864 49.533 31.0686 49.5017 31.0513C49.4856 31.0424 49.4692 31.0338 49.4529 31.0251C49.4276 31.0118 49.4022 30.9987 49.3765 30.9861C49.3665 30.9812 49.3567 30.9762 49.3467 30.9714C49.3094 30.9536 49.2717 30.9365 49.2336 30.9202C49.2216 30.915 49.2094 30.9103 49.1973 30.9053C49.1672 30.8929 49.137 30.8811 49.1064 30.8696C49.0957 30.8656 49.085 30.8613 49.0742 30.8574C49.0351 30.8433 48.9957 30.8297 48.9558 30.8171C48.9435 30.8133 48.9311 30.8099 48.9187 30.8062C48.8888 30.7972 48.8587 30.7886 48.8284 30.7805C48.8155 30.7771 48.8027 30.7738 48.7898 30.7705C48.7482 30.76 48.7063 30.7502 48.6641 30.7415C48.6337 30.7352 48.6032 30.7295 48.5725 30.7241C48.568 30.7233 48.5636 30.7227 48.5591 30.7219C48.5365 30.7181 48.5139 30.7145 48.4912 30.7112C48.4778 30.7092 48.4644 30.7073 48.4509 30.7056C48.3935 30.698 48.3355 30.6918 48.2771 30.6875C48.2639 30.6865 48.2506 30.6859 48.2373 30.6851C48.2193 30.684 48.2012 30.6829 48.1831 30.6821C48.1704 30.6816 48.1577 30.6813 48.145 30.6809C48.115 30.68 48.0849 30.6794 48.0547 30.6794C46.3979 30.6794 45.0548 32.0227 45.0547 33.6794C45.0547 35.3363 46.3978 36.6794 48.0547 36.6794C48.0832 36.6794 48.1116 36.6788 48.1399 36.678C48.1536 36.6776 48.1673 36.6771 48.1809 36.6765C48.1961 36.6759 48.2112 36.6752 48.2263 36.6743C48.2408 36.6735 48.2552 36.6727 48.2695 36.6716C48.292 36.67 48.3144 36.6681 48.3367 36.666C48.34 36.6657 48.3434 36.6656 48.3467 36.6653C48.4085 36.6593 48.4696 36.6513 48.5303 36.6416C48.5338 36.641 48.5373 36.6405 48.5408 36.6399C48.5653 36.6359 48.5897 36.6315 48.614 36.627C48.6226 36.6253 48.6311 36.6238 48.6396 36.6221C48.6528 36.6195 48.6659 36.6165 48.679 36.6138C48.7157 36.606 48.7521 36.5977 48.7883 36.5886C48.7951 36.5869 48.8019 36.5855 48.8086 36.5837C48.8469 36.5738 48.8849 36.5627 48.9226 36.5513C48.9403 36.5459 48.958 36.5403 48.9756 36.5347C49.0013 36.5264 49.0268 36.5175 49.0522 36.5085C49.074 36.5009 49.0957 36.493 49.1172 36.4849C49.1428 36.4751 49.1683 36.4652 49.1936 36.4548C49.21 36.4481 49.2264 36.4414 49.2427 36.4343C49.2748 36.4205 49.3066 36.4061 49.3381 36.3911C49.3561 36.3826 49.3738 36.3736 49.3916 36.3647C49.4085 36.3563 49.4252 36.3478 49.4419 36.3391C49.4598 36.3297 49.4779 36.3205 49.4956 36.3108C49.4476 36.7559 49.4231 37.2081 49.4231 37.666C49.4231 41.4313 51.0887 44.8057 53.7192 47.0959C53.6812 47.1189 53.6428 47.1413 53.6045 47.1638C53.5454 47.1984 53.4861 47.2326 53.4263 47.2661C53.3197 47.3259 53.212 47.3837 53.1033 47.4399C52.9509 47.5188 52.7968 47.5947 52.6404 47.6665C52.4731 47.7433 52.3321 47.8562 52.2224 47.9907C52.195 48.0243 52.1696 48.0594 52.1462 48.0955C52.1228 48.1317 52.1013 48.169 52.082 48.2073C52.0628 48.2454 52.0457 48.2845 52.0308 48.3242C52.0233 48.3442 52.0162 48.3643 52.0098 48.3845C51.9843 48.4654 51.9677 48.5486 51.9607 48.6323C51.9572 48.6742 51.9559 48.7162 51.9573 48.7581C51.9586 48.8 51.9624 48.8418 51.9688 48.8833C51.9814 48.9663 52.0043 49.048 52.0378 49.1267C52.0547 49.1661 52.0741 49.2048 52.0964 49.2424C52.1123 49.2692 52.13 49.2951 52.1487 49.3208C52.1694 49.3494 52.1915 49.3775 52.2158 49.4045L52.7952 50.0483L52.8254 50.0833C52.8416 50.103 52.8568 50.1235 52.8713 50.1443C52.9562 50.2656 53.0129 50.4042 53.0376 50.5498C53.0469 50.6048 53.052 50.6608 53.052 50.7173V50.9192C53.052 51.1679 52.9594 51.4071 52.7932 51.5906L52.759 51.6265L51.4258 52.9597C51.3892 52.9963 51.3559 53.035 51.3262 53.0754C51.0386 53.4667 51.0719 54.0199 51.4258 54.3738L52.759 55.7073C52.799 55.7472 52.8349 55.7905 52.8672 55.8359C52.878 55.8512 52.8885 55.8667 52.8984 55.8826C52.9457 55.9578 52.983 56.0387 53.0088 56.1235C53.0183 56.1546 53.0261 56.1863 53.0325 56.2183C53.0389 56.2503 53.0439 56.2827 53.0471 56.3154C53.0504 56.3481 53.052 56.3811 53.052 56.4143V56.5859C53.052 56.6025 53.0516 56.6191 53.0508 56.6355C53.0475 56.7015 53.0377 56.7665 53.0217 56.8298C52.978 57.0037 52.8879 57.1643 52.759 57.2932L51.4258 58.6265C51.4102 58.6421 51.3954 58.6582 51.3811 58.6746C51.3618 58.6966 51.3432 58.719 51.3262 58.7422C51.2766 58.8097 51.2366 58.882 51.2061 58.9573C51.1939 58.9874 51.1832 59.0179 51.1741 59.0488C51.1649 59.0798 51.1575 59.1111 51.1514 59.1426C51.1453 59.174 51.1405 59.2057 51.1375 59.2375C51.1313 59.3013 51.1313 59.3656 51.1375 59.4294C51.1405 59.4613 51.1453 59.4929 51.1514 59.5244C51.1575 59.5559 51.1649 59.5872 51.1741 59.6182C51.1832 59.6491 51.1939 59.6796 51.2061 59.7097C51.2549 59.8301 51.3282 59.9429 51.4258 60.0405L52.759 61.3738C52.9466 61.5613 53.052 61.8158 53.052 62.0811V63.2524C53.052 63.5177 52.9466 63.7722 52.759 63.9597L48.6782 68.0405C48.4907 68.2281 48.2364 68.3335 47.9712 68.3335H47.1641C46.8806 68.3335 46.6105 68.2131 46.4209 68.0024L44.2322 65.5706C43.9017 65.2033 43.7188 64.7267 43.7188 64.2327V48.4368C43.7188 48.4118 43.7179 48.3869 43.7161 48.3623C43.6884 47.9929 43.4562 47.6681 43.1213 47.4998C39.5236 45.6914 37.0547 41.9672 37.0547 37.666C37.0548 31.591 41.9796 26.666 48.0547 26.666Z" fill="#25A74B"/>
<path d="M54.989 29.1274C57.4695 31.1444 59.0546 34.2199 59.0547 37.666C59.0547 41.1122 57.4694 44.1874 54.9888 46.2041C52.5083 44.1873 50.9231 41.1121 50.9231 37.666C50.9231 34.2198 52.5085 31.1444 54.989 29.1274Z" fill="#25A74B"/>
<path d="M48.3879 68.2417C48.258 68.3015 48.1157 68.3337 47.97 68.3337H47.1628C47.1265 68.3337 47.0904 68.3315 47.0547 68.3276V50.3333C47.0547 48.7334 47.9435 48.1112 48.3879 48V68.2417Z" fill="#1B7D37"/>
<path fill-rule="evenodd" clip-rule="evenodd" d="M61.9229 26.666C67.9979 26.666 72.9228 31.591 72.9229 37.666C72.9229 39.0433 72.6696 40.3614 72.2073 41.5764C72.1192 41.8079 72.0236 42.0356 71.9207 42.2593C71.6633 42.8184 71.3605 43.3522 71.0168 43.856C70.5935 44.4766 70.1082 45.0514 69.5701 45.572C69.4092 45.7276 69.2438 45.8785 69.0737 46.0242C68.7225 46.3249 68.3518 46.6035 67.9644 46.8586C67.8422 46.9391 67.7185 47.0176 67.593 47.0933C67.4359 47.1879 67.2763 47.2788 67.1143 47.3657L67.0205 47.4199C66.9914 47.438 66.9627 47.4567 66.9348 47.4763C66.9206 47.4863 66.9071 47.4972 66.8933 47.5076C66.8794 47.518 66.8654 47.5282 66.8518 47.5391C66.8388 47.5494 66.8263 47.5603 66.8137 47.571C66.8 47.5827 66.786 47.5941 66.7727 47.6062C66.7595 47.6182 66.7469 47.6307 66.7341 47.6431C66.7227 47.6541 66.7113 47.665 66.7002 47.6763C66.688 47.6887 66.6763 47.7016 66.6646 47.7144C66.6525 47.7274 66.6405 47.7405 66.6289 47.7539C66.6187 47.7658 66.6087 47.7779 66.5989 47.79C66.5871 47.8045 66.5755 47.8191 66.5642 47.834C66.5549 47.8463 66.546 47.8588 66.5371 47.8713C66.5269 47.8856 66.5168 47.8999 66.5071 47.9146C66.497 47.9297 66.4873 47.9452 66.4778 47.9607C66.4697 47.9738 66.4618 47.9871 66.4541 48.0005C66.4455 48.0155 66.4371 48.0306 66.429 48.0459C66.4209 48.0611 66.4131 48.0765 66.4055 48.092C66.3984 48.1065 66.3914 48.121 66.3848 48.1357C66.3769 48.1533 66.3695 48.1711 66.3623 48.189C66.357 48.2021 66.3516 48.2152 66.3467 48.2285C66.3403 48.2458 66.3344 48.2632 66.3286 48.2808C66.3129 48.3283 66.2991 48.3766 66.2883 48.4258C66.2868 48.4328 66.2854 48.4398 66.2839 48.4468C66.2784 48.4737 66.2737 48.5009 66.2698 48.5283C66.2692 48.532 66.2688 48.5356 66.2683 48.5393C66.2596 48.603 66.2549 48.6678 66.2549 48.7334C66.2549 49.0579 66.1454 49.3707 65.9478 49.6238C65.9116 49.67 65.873 49.7147 65.8311 49.7566L65.7549 49.8328L65.6965 49.894C65.6604 49.9339 65.6264 49.9753 65.5945 50.0181C65.5871 50.028 65.5802 50.0383 65.573 50.0483C65.5636 50.0616 65.554 50.0747 65.5449 50.0881C65.5403 50.095 65.5358 50.1019 65.5312 50.1089C65.5212 50.1244 65.5113 50.14 65.5017 50.1558C65.4959 50.1654 65.4903 50.1753 65.4846 50.1851C65.477 50.1983 65.4695 50.2117 65.4622 50.2251C65.4577 50.2334 65.4533 50.2417 65.449 50.25C65.4407 50.2659 65.4324 50.2819 65.4246 50.2981C65.419 50.3096 65.4137 50.3212 65.4084 50.3328C65.4033 50.344 65.3982 50.3553 65.3933 50.3667C65.3872 50.3809 65.3814 50.3953 65.3757 50.4097C65.3715 50.4202 65.3675 50.4308 65.3635 50.4414C65.3582 50.4555 65.3531 50.4696 65.3481 50.4839C65.344 50.496 65.3401 50.5081 65.3362 50.5203C65.3323 50.5324 65.3283 50.5446 65.3247 50.5569C65.3203 50.5717 65.3165 50.5866 65.3125 50.6016C65.3094 50.6133 65.3061 50.6249 65.3032 50.6367C65.2993 50.6528 65.2959 50.6689 65.2925 50.6851C65.2906 50.6937 65.2886 50.7023 65.2869 50.7109C65.2779 50.7566 65.2711 50.8028 65.2659 50.8494C65.2649 50.8584 65.2636 50.8674 65.2627 50.8765C65.2594 50.9106 65.2576 50.945 65.2563 50.9795C65.2556 50.9996 65.2549 51.0196 65.2549 51.0398V54.9653C65.2549 55.4009 65.1123 55.8239 64.8503 56.1707C64.8392 56.1854 64.8282 56.2002 64.8167 56.2146L64.3599 56.7856L64.3081 56.8533C64.2757 56.8975 64.2451 56.943 64.2166 56.9895C64.2117 56.9974 64.2073 57.0055 64.2026 57.0134C64.1942 57.0276 64.1856 57.0417 64.1775 57.0562C64.1697 57.07 64.1625 57.0841 64.155 57.0981C64.1491 57.1093 64.1431 57.1204 64.1375 57.1316C64.1341 57.1382 64.131 57.145 64.1277 57.1516C64.1196 57.1681 64.1114 57.1845 64.1038 57.2012C64.0967 57.2165 64.0899 57.232 64.0833 57.2476C64.0792 57.257 64.0752 57.2666 64.0713 57.2761C64.0663 57.2883 64.0616 57.3007 64.0569 57.313C64.0516 57.3267 64.0463 57.3404 64.0413 57.3542C64.0365 57.3674 64.0321 57.3806 64.0276 57.3938C64.0236 57.4055 64.0199 57.4172 64.0161 57.429C64.0123 57.4411 64.0083 57.4531 64.0046 57.4653C63.999 57.4842 63.9938 57.5032 63.9888 57.5222C63.987 57.5289 63.9851 57.5355 63.9834 57.5422C63.9789 57.56 63.9747 57.5778 63.9707 57.5957C63.9684 57.6059 63.966 57.616 63.9639 57.6262C63.9605 57.6424 63.9576 57.6586 63.9546 57.6748C63.9526 57.6859 63.9503 57.6969 63.9485 57.708C63.9459 57.7236 63.9439 57.7392 63.9417 57.7549C63.9401 57.7661 63.9382 57.7773 63.9368 57.7886C63.9351 57.8021 63.9338 57.8156 63.9324 57.8291C63.9253 57.8972 63.9216 57.9659 63.9216 58.0349V58.6321L63.9233 58.717C63.9269 58.8001 63.9355 58.8825 63.9492 58.9639C63.9504 58.9711 63.9521 58.9782 63.9534 58.9854C63.9569 59.0051 63.9605 59.0248 63.9646 59.0444C63.9663 59.0524 63.9682 59.0604 63.97 59.0684C63.9744 59.0881 63.9791 59.1077 63.9841 59.1272C63.9854 59.1323 63.9869 59.1374 63.9883 59.1426C63.9939 59.1637 63.9996 59.1847 64.0059 59.2056C64.0079 59.2124 64.0101 59.2192 64.0122 59.2261C64.0183 59.2455 64.0246 59.2649 64.0312 59.2842C64.0337 59.2913 64.0361 59.2984 64.0386 59.3054C64.0448 59.3229 64.0514 59.3402 64.0581 59.3574C64.0618 59.367 64.0654 59.3767 64.0693 59.3862C64.0752 59.4007 64.0814 59.4151 64.0876 59.4294C64.0928 59.4413 64.0981 59.4531 64.1035 59.4648C64.1093 59.4774 64.1153 59.4898 64.1213 59.5022C64.1272 59.5144 64.133 59.5265 64.1392 59.5386C64.1446 59.5492 64.1502 59.5598 64.1558 59.5703C64.1631 59.5841 64.1705 59.5979 64.1782 59.6116C64.1824 59.6189 64.1867 59.6262 64.1909 59.6335C64.2 59.6492 64.209 59.665 64.2185 59.6804C64.2246 59.6903 64.231 59.6999 64.2373 59.7097C64.2454 59.7224 64.2533 59.7351 64.2617 59.7476C64.2832 59.7795 64.3059 59.8107 64.3293 59.8416C64.3394 59.8548 64.3494 59.8683 64.3599 59.8813L64.8167 60.4524C64.8876 60.5411 64.9505 60.6351 65.0049 60.7334C65.0457 60.8071 65.0817 60.8832 65.1128 60.9612C65.175 61.1172 65.2174 61.2808 65.2388 61.4482C65.2432 61.483 65.2464 61.5179 65.249 61.553C65.2527 61.6023 65.2549 61.6519 65.2549 61.7017V62.1702C63.1488 63.7368 61.4774 65.855 60.4546 68.311C60.079 68.2549 59.7262 68.0927 59.438 67.842C59.4031 67.8117 59.3688 67.7807 59.3359 67.7478L59.1741 67.5859C59.1272 67.5391 59.0829 67.49 59.0413 67.4392C58.9788 67.3629 58.9223 67.2824 58.8721 67.1985C58.8218 67.1145 58.7778 67.0272 58.7405 66.937C58.728 66.9069 58.7163 66.8766 58.7053 66.8459C58.6395 66.6622 58.6004 66.4685 58.5906 66.2708C58.5889 66.2378 58.5881 66.2047 58.5881 66.1716V51.0398C58.5881 51.0115 58.5873 50.9832 58.5859 50.9551C58.5831 50.8989 58.5776 50.8431 58.5693 50.7878C58.5157 50.4283 58.3483 50.0929 58.0881 49.8328L58.012 49.7566C57.9611 49.7057 57.9144 49.6514 57.8721 49.5942C57.844 49.5562 57.8179 49.5169 57.7937 49.4766C57.7573 49.4158 57.7255 49.3524 57.6985 49.2871C57.665 49.2062 57.639 49.1223 57.6206 49.0364C57.5994 48.9374 57.5881 48.8357 57.5881 48.7329C57.5881 48.2624 57.3575 47.8336 56.9973 47.5425C56.9142 47.4753 56.8242 47.4154 56.7285 47.364C56.4994 47.2411 56.2754 47.11 56.0564 46.9717C55.6848 46.7368 55.3283 46.4804 54.9885 46.2041C54.1418 45.5157 53.3995 44.7039 52.7888 43.7961C52.7512 43.7403 52.7141 43.6841 52.6775 43.6274C52.5802 43.4769 52.4865 43.3239 52.3965 43.1685C52.362 43.1089 52.3281 43.049 52.2947 42.9888C52.0595 42.5644 51.8517 42.1227 51.6733 41.6663C51.626 41.5451 51.5807 41.4228 51.5376 41.2996C51.5022 41.1985 51.4683 41.0968 51.4358 40.9944C51.1028 39.9444 50.9229 38.8263 50.9229 37.666C50.9229 36.9155 50.9982 36.1826 51.1414 35.4744C51.1461 35.4511 51.1512 35.428 51.156 35.4048C51.2422 34.9923 51.3514 34.5882 51.4824 34.1941C51.4972 34.1498 51.5123 34.1056 51.5276 34.0615C51.6058 33.836 51.6908 33.6138 51.783 33.3953C51.7913 33.3755 51.7997 33.3558 51.8081 33.3362C51.8277 33.2904 51.8477 33.2449 51.8679 33.1995C51.8933 33.1424 51.9195 33.0856 51.9458 33.0291C52.0327 32.8423 52.1247 32.6584 52.2217 32.4775C52.241 32.4415 52.2603 32.4054 52.28 32.3696C52.3064 32.3217 52.3333 32.2741 52.3604 32.2266C52.3748 32.2013 52.3892 32.176 52.4038 32.1509C52.4304 32.105 52.4574 32.0594 52.4846 32.0139C52.5536 31.8989 52.6247 31.7853 52.6978 31.6731C52.7129 31.6498 52.7283 31.6267 52.7437 31.6035C52.781 31.5471 52.8188 31.491 52.8572 31.4353C52.8712 31.4149 52.8855 31.3948 52.8997 31.3745C52.9396 31.3173 52.98 31.2603 53.021 31.2039C53.0342 31.1858 53.0473 31.1677 53.0605 31.1497C53.2054 30.9531 53.3566 30.7615 53.5139 30.5752C53.5201 30.5679 53.5263 30.5605 53.5325 30.5532C53.6874 30.3707 53.8481 30.1932 54.0144 30.0212C54.0379 29.9969 54.0617 29.9728 54.0854 29.9487C54.3788 29.6509 54.6887 29.3695 55.0142 29.1064C55.0196 29.102 55.0251 29.0977 55.0305 29.0933C55.1617 28.9877 55.2954 28.8851 55.4314 28.7854C55.5195 28.7209 55.6086 28.6576 55.6987 28.5957C55.749 28.5611 55.7995 28.5269 55.8503 28.4932C56.4709 28.0815 57.1356 27.7311 57.8359 27.4507C57.8762 27.4345 57.9167 27.4188 57.9573 27.4031C58.0834 27.3543 58.2106 27.3076 58.3389 27.2634C58.3725 27.2518 58.4062 27.2403 58.4399 27.229C58.576 27.1836 58.7132 27.141 58.8516 27.1008C58.8818 27.0921 58.912 27.0832 58.9424 27.0747C59.8903 26.8085 60.8899 26.666 61.9229 26.666ZM61.7524 30.6809C61.7491 30.681 61.7458 30.681 61.7424 30.6812L61.6904 30.6833C61.6795 30.6839 61.6686 30.6846 61.6577 30.6853C61.6482 30.6859 61.6387 30.6863 61.6292 30.687C61.6005 30.689 61.5719 30.6915 61.5435 30.6943C61.5424 30.6944 61.5413 30.6945 61.5403 30.6946C61.5116 30.6975 61.483 30.7009 61.4546 30.7046C61.4409 30.7064 61.4272 30.7085 61.4136 30.7104C61.3978 30.7127 61.3821 30.715 61.3665 30.7175C61.3537 30.7196 61.3409 30.7217 61.3281 30.7239C61.3091 30.7272 61.2901 30.7307 61.2712 30.7344C61.2175 30.7448 61.1643 30.7568 61.1116 30.77C61.1015 30.7726 61.0914 30.7749 61.0813 30.7776C61.0412 30.7881 61.0014 30.7994 60.9619 30.8115C60.9513 30.8148 60.9407 30.8182 60.9302 30.8215C60.8964 30.8324 60.8629 30.844 60.8296 30.856C60.8195 30.8596 60.8094 30.8632 60.7993 30.8669C60.7599 30.8816 60.7208 30.8968 60.6821 30.9131C60.6768 30.9153 60.6716 30.9179 60.6663 30.9202C60.6307 30.9354 60.5954 30.9512 60.5605 30.9678C60.5505 30.9725 60.5405 30.9773 60.5305 30.9822C60.4939 31 60.4576 31.0183 60.4219 31.0376C60.4121 31.0429 60.4026 31.0488 60.3928 31.0542C60.3657 31.0693 60.3386 31.0845 60.312 31.1003C60.3003 31.1073 60.2885 31.1142 60.2769 31.1213C60.2415 31.1431 60.2065 31.1656 60.1721 31.1887C60.1668 31.1923 60.1616 31.1961 60.1562 31.1997C60.1255 31.2207 60.0951 31.2423 60.0652 31.2644C60.0569 31.2705 60.0485 31.2765 60.0403 31.2827C60.0076 31.3074 59.9755 31.3327 59.9438 31.3586C59.9375 31.3638 59.9313 31.3693 59.925 31.3745C59.899 31.3963 59.8732 31.4183 59.8479 31.4409C59.8374 31.4503 59.8268 31.4597 59.8164 31.4692C59.7888 31.4945 59.7617 31.5203 59.7351 31.5466C59.7226 31.559 59.7105 31.5717 59.6982 31.5842C59.6814 31.6015 59.6647 31.619 59.6482 31.6367C59.6362 31.6496 59.6241 31.6624 59.6123 31.6755C59.587 31.7037 59.5623 31.7324 59.5381 31.7615C59.5305 31.7706 59.5231 31.7801 59.5156 31.7893C59.4965 31.8128 59.4776 31.8365 59.4592 31.8606C59.4503 31.8722 59.4413 31.8837 59.4326 31.8955C59.4094 31.9268 59.387 31.9587 59.365 31.991C59.3583 32.0008 59.3518 32.0106 59.3452 32.0205C59.3277 32.0468 59.3106 32.0733 59.2939 32.1001C59.2864 32.1122 59.2788 32.1243 59.2715 32.1365C59.2706 32.1379 59.2699 32.1394 59.269 32.1409C59.2509 32.1712 59.2332 32.2019 59.2161 32.2329C59.2149 32.235 59.2136 32.2371 59.2124 32.2393C59.2073 32.2486 59.2025 32.2582 59.1975 32.2676C59.1954 32.2716 59.1933 32.2755 59.1912 32.2795C59.1782 32.3041 59.1656 32.3288 59.1533 32.3538L59.1372 32.386C59.1366 32.3873 59.1361 32.3886 59.1355 32.3899C59.1179 32.4268 59.1011 32.464 59.085 32.5017C59.0845 32.5029 59.0837 32.504 59.0833 32.5051C59.0808 32.511 59.0784 32.5168 59.0759 32.5227C59.0745 32.5263 59.0732 32.5299 59.0718 32.5334C59.0587 32.565 59.0462 32.5968 59.0342 32.6289L59.0269 32.6479C59.0263 32.6496 59.0257 32.6512 59.0251 32.6528C59.0245 32.6546 59.0238 32.6564 59.0232 32.6582C59.0084 32.6991 58.9945 32.7403 58.9814 32.782C58.9795 32.7881 58.978 32.7944 58.9761 32.8005C58.9658 32.834 58.9564 32.8677 58.9473 32.9016C58.9437 32.9149 58.9397 32.9281 58.9363 32.9414C58.9359 32.9429 58.9357 32.9445 58.9353 32.946C58.9248 32.9878 58.915 33.0298 58.9062 33.0723C58.9061 33.0732 58.9059 33.0741 58.9058 33.075C58.8658 33.2702 58.8447 33.4724 58.8447 33.6794C58.8447 33.8171 58.8541 33.9527 58.8721 34.0854L58.8723 34.0859C58.8741 34.0991 58.8757 34.1123 58.8777 34.1255C58.8781 34.128 58.8785 34.1305 58.8789 34.1331C58.8873 34.1882 58.8974 34.2428 58.9087 34.2969L58.9089 34.2979C58.9178 34.3401 58.9271 34.3822 58.9377 34.4238C58.9403 34.4338 58.9434 34.4437 58.946 34.4536C58.9504 34.4699 58.9551 34.486 58.9597 34.5022C58.9686 34.5333 58.9775 34.5643 58.9873 34.595C58.9876 34.5959 58.988 34.5968 58.9883 34.5977C58.9944 34.6167 59.001 34.6356 59.0076 34.6545C59.0322 34.7261 59.0591 34.7965 59.0889 34.8655C59.0895 34.867 59.0902 34.8686 59.0908 34.8701C59.0925 34.8739 59.0943 34.8776 59.0959 34.8813C59.1381 34.9777 59.1853 35.0713 59.2371 35.1621C59.2438 35.1741 59.2506 35.1861 59.2576 35.198C59.2585 35.1996 59.2596 35.2011 59.2605 35.2026C59.3235 35.3092 59.3928 35.4115 59.468 35.509C59.4751 35.5182 59.4821 35.5273 59.4893 35.5364C59.4905 35.538 59.4919 35.5396 59.4932 35.5413C59.5185 35.5732 59.5445 35.6046 59.571 35.6355C59.5739 35.6389 59.5769 35.6422 59.5798 35.6455C59.8357 35.94 60.1478 36.184 60.4998 36.3608C60.5067 36.3643 60.5136 36.3679 60.5205 36.3713C60.5361 36.379 60.5517 36.3866 60.5674 36.394C60.5975 36.4083 60.6278 36.4221 60.6584 36.4353C60.6719 36.4411 60.6854 36.4466 60.699 36.4521C60.7325 36.466 60.7662 36.4795 60.8003 36.4922C60.8113 36.4963 60.8224 36.5002 60.8335 36.5042C60.8668 36.5161 60.9003 36.5276 60.9341 36.5383C60.9489 36.543 60.9638 36.5475 60.9788 36.552C61.0142 36.5627 61.0499 36.5729 61.0859 36.5823C61.0936 36.5843 61.1012 36.5862 61.1089 36.5881C61.1494 36.5984 61.1903 36.6076 61.2314 36.6162C61.2684 36.6239 61.3056 36.6309 61.343 36.6372C61.3819 36.6438 61.421 36.6497 61.4604 36.6548C61.5041 36.6604 61.5481 36.665 61.5923 36.6687C61.5983 36.6692 61.6043 36.6697 61.6104 36.6702C61.6302 36.6717 61.6502 36.6729 61.6702 36.6741C61.6758 36.6744 61.6814 36.675 61.687 36.6753C61.7 36.676 61.713 36.6763 61.7261 36.6768C61.7654 36.6783 61.805 36.6794 61.8447 36.6794C63.5016 36.6794 64.8447 35.3363 64.8447 33.6794C64.8446 32.0227 63.5015 30.6794 61.8447 30.6794C61.8139 30.6794 61.7831 30.68 61.7524 30.6809Z" fill="#1074CC"/>
<path d="M62.2566 50C62.6247 50.0001 62.9231 50.2986 62.9231 50.6667V64.3318C62.4348 64.8939 61.9888 65.4937 61.5896 66.126V50.6667C61.5896 50.2986 61.8884 50 62.2566 50Z" fill="#0060B5"/>
<path d="M62 74C62 67.3726 67.3726 62 74 62C80.6274 62 86 67.3726 86 74C86 80.6274 80.6274 86 74 86C67.3726 86 62 80.6274 62 74Z" fill="#F05F2B"/>
<path fill-rule="evenodd" clip-rule="evenodd" d="M73.9998 63.5332C68.2191 63.5332 63.533 68.2194 63.533 74C63.533 79.7807 68.2191 84.4669 73.9998 84.4669C79.7805 84.4669 84.4666 79.7807 84.4666 74C84.4666 68.2194 79.7805 63.5332 73.9998 63.5332ZM64.9668 74C64.9668 69.0112 69.011 64.967 73.9998 64.967C78.9886 64.967 83.0328 69.0112 83.0328 74C83.0328 78.4193 79.8593 82.0974 75.6668 82.8796C74.5772 80.3778 73.442 77.3819 74.5531 77.0508C73.2305 74.6663 73.4979 73.1 76.2428 73.5828L76.2471 73.5833C76.5546 73.6183 76.7878 73.6448 76.8608 73.5984C77.2324 73.3618 77.0019 68.1669 73.7747 67.4613C70.8049 63.787 67.9781 67.9779 69.4119 67.6911C70.559 67.4044 71.4108 67.6691 71.3713 67.6805C66.3049 68.3193 68.6607 76.3014 69.9609 80.7073C70.1398 81.3134 70.2987 81.8517 70.4155 82.294C67.2098 80.9068 64.9668 77.7154 64.9668 74Z" fill="white"/>
<path d="M77.9676 81.567C77.9356 81.7729 77.8646 81.9102 77.7384 81.9294C77.4988 81.966 76.4274 81.7207 75.8185 81.4892C75.7493 81.8077 74.1171 82.1092 73.8586 81.6814C73.2663 82.1934 72.1316 82.936 71.8943 82.7805C71.44 82.483 71.0126 80.1924 71.3546 79.7083C71.8741 79.2361 72.9661 79.7499 73.7324 80.0213C73.9921 79.582 75.25 79.4154 75.5111 79.776C76.1991 79.253 77.3474 78.5154 77.4593 78.6499C78.0174 79.3225 78.088 80.9232 77.9671 81.5674L77.9676 81.567Z" fill="#4CBA3C"/>
<path fill-rule="evenodd" clip-rule="evenodd" d="M72.147 74.6523C72.3812 72.9908 75.5198 73.5106 76.9233 73.3239C77.9461 73.2054 78.7052 72.9538 79.2108 72.7575C80.3716 72.2807 80.5693 72.7538 80.0017 73.4964C78.3991 75.3963 74.8349 74.0135 74.1968 74.9959C74.0103 75.287 74.1545 75.972 75.6205 76.1879C77.6014 76.479 79.2287 75.837 79.4296 76.225C78.978 78.2988 71.4572 77.5927 72.1461 74.6528L72.147 74.6523Z" fill="#FFCC33"/>
<path d="M76.1533 69.8598C75.9457 69.41 74.8784 69.4132 74.6743 69.8424C74.6557 69.9311 74.73 69.9077 74.8716 69.8631C75.1198 69.785 75.5746 69.6418 76.0985 69.9221C76.1398 69.9399 76.1798 69.8969 76.1533 69.8598Z" fill="#14307E"/>
<path d="M70.9377 69.9678C70.7395 69.9535 70.4178 69.9303 70.1519 70.078C69.7619 70.2441 69.636 70.423 69.5605 70.5457C69.5327 70.591 69.4248 70.5864 69.4248 70.5329C69.4513 69.8172 70.6647 69.4722 71.106 69.917C71.1596 69.9838 71.0809 69.9781 70.9377 69.9678Z" fill="#14307E"/>
<path d="M75.7732 72.3669C74.9566 72.3628 74.9566 71.104 75.7732 71.0999C76.5898 71.104 76.5898 72.3628 75.7732 72.3669Z" fill="#14307E"/>
<path d="M71.6352 72.1717C71.619 73.1426 70.1957 73.1426 70.1796 72.1717C70.1841 71.2052 71.6307 71.2057 71.6352 72.1717Z" fill="#14307E"/>
</svg>
