<svg width="128" height="96" viewBox="0 0 128 96" fill="none" xmlns="http://www.w3.org/2000/svg">
<path d="M79.4497 20.5941C88.0361 20.1354 95.2497 26.974 95.2497 35.5726V52.6866C95.2497 53.1207 95.231 53.5504 95.1948 53.9752C93.5801 53.3635 91.8293 53.0286 90.0002 53.0286C81.9052 53.0286 75.3418 59.5869 75.3335 67.68L41.7121 67.6358C35.2486 67.6273 30.1214 62.1869 30.4958 55.7342L31.8064 33.1531C32.1384 27.4333 36.716 22.8768 42.4372 22.5711L79.4497 20.5941Z" fill="#F5FBFE"/>
<path d="M76.5889 61.7494C75.782 63.5667 75.3335 65.5784 75.3335 67.6949C75.3335 71.2505 76.5988 74.5105 78.7036 77.0494C78.2375 77.2487 77.6606 77.3558 76.9895 77.3558L63.1592 77.3829L63.1582 77.3827L50.5676 77.4076C50.3816 77.4079 50.241 77.2391 50.2751 77.0562C50.4986 75.8614 51.5004 74.9681 52.7129 74.8824L58.5017 74.4732C59.3919 74.4103 59.8625 73.3898 59.3323 72.672L55.5103 67.4994H41.106C37.1529 67.4993 33.5356 65.2762 31.75 61.7494H76.5889Z" fill="#4397E0"/>
<path d="M79.4495 20.5941C88.036 20.1352 95.25 26.9738 95.25 35.5726V53.9957C93.7788 53.4316 92.1937 53.0977 90.5386 53.0379L91.4773 33.7437C91.8371 26.348 85.7254 20.2628 78.3323 20.6537L79.4495 20.5941Z" fill="#4397E0"/>
<path d="M78.325 20.6541L67.8669 21.2132L78.3323 20.6537C78.3298 20.6538 78.3274 20.654 78.325 20.6541Z" fill="#4397E0"/>
<path d="M79.4095 19.8451C88.4249 19.3638 95.9989 26.5446 95.9991 35.5729V52.6867C95.9991 53.2221 95.9721 53.7512 95.92 54.2729C95.4465 54.0637 94.9599 53.879 94.4617 53.7201C94.4862 53.3789 94.4991 53.0342 94.4991 52.6867V35.5729C94.4989 27.4045 87.6464 20.9077 79.4896 21.3432L42.4774 23.3202C37.1375 23.6055 32.865 27.8585 32.555 33.1969L31.2444 55.7777C30.8949 61.8003 35.6803 66.8781 41.713 66.8861L75.3528 66.9301C75.3398 67.1836 75.3333 67.4388 75.3333 67.6955C75.3333 67.9417 75.3394 68.1866 75.3514 68.4298L73.2974 68.4274C74.1698 69.6818 74.9934 70.9629 75.7669 72.2712C76.368 73.2433 75.867 74.6836 74.7637 75.0788C74.5438 75.1634 74.3094 75.2063 74.0806 75.2094C71.9493 75.234 69.8157 75.1479 67.6802 74.9508C67.4268 74.9275 67.173 74.9024 66.9195 74.8759C66.8493 74.8685 66.7813 74.8389 66.7308 74.788C66.6802 74.7371 66.6511 74.6697 66.6497 74.5995C66.6485 74.5295 66.6752 74.461 66.7237 74.4084C66.7723 74.3557 66.8391 74.3234 66.909 74.3134C67.1613 74.2774 67.4139 74.243 67.6663 74.2101C69.793 73.9335 71.922 73.7678 74.0528 73.7128C74.1165 73.7105 74.1732 73.6985 74.2259 73.6784C74.4859 73.5854 74.6526 73.2357 74.5147 72.9543C73.8114 71.5515 73.1605 70.1198 72.5626 68.6596C72.5308 68.582 72.4993 68.5042 72.4678 68.4264L57.0408 68.4062L59.9439 72.4491C60.8163 73.6644 59.9919 75.363 58.4974 75.4298L52.1924 75.7109C51.7844 75.7291 51.4231 75.9494 51.2154 76.2814L76.9459 76.3036C77.3847 76.3036 77.7448 76.2578 78.0374 76.183C78.3448 76.6154 78.6749 77.0305 79.0262 77.4264C78.4293 77.6853 77.715 77.8038 76.9456 77.8039L50.7527 77.7812C49.9938 77.7805 49.4304 77.0775 49.595 76.3366C49.8616 75.138 50.8992 74.2673 52.1258 74.2126L58.4307 73.9313C58.735 73.9175 58.9029 73.5717 58.7254 73.3241L55.1927 68.4037L41.711 68.3861C34.8165 68.377 29.3477 62.5737 29.7471 55.6908L31.0574 33.11C31.4117 27.009 36.2946 22.1482 42.3973 21.8222L79.4095 19.8451Z" fill="#045EB2"/>
<path d="M91.4683 37.1281C91.5403 37.1306 91.6091 37.1616 91.6595 37.2143C91.7099 37.267 91.7377 37.3374 91.7401 37.4096C91.7549 37.8974 91.7693 38.3732 91.7825 38.8485C91.9021 43.1579 91.9507 47.4757 91.7249 51.7878C91.703 52.2328 91.6789 52.6771 91.6531 53.121C91.1636 53.0661 90.6668 53.0354 90.1639 53.0299C90.184 52.5915 90.2051 52.153 90.2266 51.714C90.4515 47.4208 90.6555 43.1342 91.0423 38.8256C91.0853 38.3514 91.1304 37.8767 91.178 37.3905C91.1853 37.3187 91.2177 37.2503 91.2715 37.2011C91.3255 37.152 91.3963 37.1257 91.4683 37.1281Z" fill="#045EB2"/>
<path d="M73.5558 41.1144C74.0517 40.9861 74.528 41.3465 74.5671 41.8705C74.766 44.6999 74.1382 47.6298 72.5739 50.2577C68.7291 56.7232 60.6967 58.9676 54.394 55.442C54.1086 55.2834 53.7495 55.3775 53.5815 55.6647L52.4411 57.5875C52.1584 58.0573 51.4725 57.9578 51.3486 57.4247L49.6164 49.8905C49.5388 49.5671 49.7336 49.2275 50.0585 49.142L57.4035 47.2172C57.9251 47.0803 58.3368 47.6587 58.0541 48.1286L56.8876 50.0863C56.7107 50.3909 56.8035 50.7933 57.1059 50.952C61.0119 52.9807 65.8892 51.5488 68.2404 47.5895L68.2492 47.5807C69.0269 46.2755 69.4247 44.8548 69.4995 43.4411C69.5336 42.6905 70.016 42.0468 70.7258 41.8585L73.5558 41.1144Z" fill="#1074CC"/>
<path d="M69.2497 29.1498C69.5223 28.6799 70.1831 28.7794 70.3019 29.3124L71.9633 36.8463C72.0378 37.1697 71.85 37.5092 71.537 37.5949L64.4623 39.5211C63.96 39.658 63.5641 39.0799 63.8366 38.61L64.9619 36.6517C65.1324 36.3471 65.0431 35.9452 64.7521 35.7865C60.9925 33.7586 56.2945 35.1912 54.027 39.151L54.0185 39.1598C53.2685 40.4652 52.8844 41.8862 52.8112 43.2999C52.7777 44.0504 52.3129 44.694 51.6293 44.8825L48.903 45.6273C48.4254 45.7557 47.9671 45.3952 47.9299 44.8712C47.7407 42.0419 48.3478 39.112 49.8564 36.4838C53.5643 30.0175 61.301 27.7717 67.3674 31.296C67.642 31.4546 67.988 31.3603 68.1501 31.0731L69.2497 29.1498Z" fill="#1074CC"/>
<path d="M41.3005 19.5001C41.6143 19.4996 41.9285 19.5007 42.2426 19.5033C42.3139 19.504 42.3845 19.5281 42.4391 19.5753C42.4938 19.6225 42.5281 19.6883 42.5346 19.7589C42.5411 19.8295 42.5192 19.9003 42.4741 19.9567C42.4289 20.013 42.3638 20.0497 42.2939 20.0634C41.9855 20.123 41.6768 20.1811 41.3681 20.2377C40.9435 20.3155 40.5186 20.3904 40.0934 20.4623C37.8311 20.85 35.7509 21.8499 34.0683 23.3117C32.0805 25.0339 30.6447 27.3986 30.0676 30.0741C30.0032 30.3712 29.9491 30.671 29.9057 30.976C29.8957 31.0465 29.8624 31.1132 29.8085 31.1613C29.7546 31.2093 29.6848 31.2349 29.614 31.2321C29.5431 31.2292 29.4757 31.1983 29.4257 31.1461C29.3758 31.0939 29.348 31.0247 29.3437 30.9535C29.3253 30.631 29.3212 30.3088 29.3322 29.985C29.4145 27.0659 30.8088 24.1346 33.0854 22.1786C34.9993 20.5067 37.5153 19.5473 40.0063 19.5114C40.4374 19.5047 40.8689 19.5009 41.3005 19.5001Z" fill="#1074CC"/>
<path d="M90 80C96.6274 80 102 74.6274 102 68C102 61.3726 96.6274 56 90 56C83.3726 56 78 61.3726 78 68C78 74.6274 83.3726 80 90 80Z" fill="black"/>
<path d="M89.9988 61.334C90.5511 61.334 90.9988 61.7817 90.9988 62.334V67.0005H95.6653C96.2176 67.0005 96.6653 67.4482 96.6653 68.0005C96.6653 68.5528 96.2176 69.0005 95.6653 69.0005H90.9988V73.6672C90.9988 74.2195 90.5511 74.6672 89.9988 74.6672C89.4465 74.6672 88.9988 74.2195 88.9988 73.6672V69.0005H84.332C83.7797 69.0005 83.332 68.5528 83.332 68.0005C83.332 67.4482 83.7797 67.0005 84.332 67.0005H88.9988V62.334C88.9988 61.7817 89.4465 61.334 89.9988 61.334Z" fill="white"/>
</svg>
