<svg width="12" height="12" viewBox="0 0 12 12" fill="none" xmlns="http://www.w3.org/2000/svg">
<g clip-path="url(#clip0_11276_90070)">
<path d="M6 0C9.31371 0 12 2.68629 12 6C12 9.31371 9.31371 12 6 12C2.68629 12 0 9.31371 0 6C0 2.68629 2.68629 0 6 0ZM6 1C3.23858 1 1 3.23858 1 6C1 8.76142 3.23858 11 6 11C8.76142 11 11 8.76142 11 6C11 3.23858 8.76142 1 6 1ZM5.58447 7.875C5.91252 7.87508 6.29492 8.07211 6.29492 8.55322C6.29485 8.93597 6.03246 9.40625 5.40918 9.40625C5.07018 9.40621 4.6875 9.24178 4.6875 8.73877C4.68761 8.32324 5.02681 7.875 5.58447 7.875ZM6.35156 2.625C7.45783 2.625 8.12158 3.18994 8.12158 3.93994C8.12136 5.52794 5.82959 5.53693 5.82959 6.21631C5.82968 6.39268 6.00661 6.51607 6.27197 6.51611C6.53748 6.51611 6.68799 7.33691 5.83838 7.33691C4.98881 7.33689 4.5 6.89006 4.5 6.28125C4.5 4.94896 6.5994 4.7956 6.59961 4.09863C6.59961 3.89569 6.42255 3.73682 6.04199 3.73682C5.64374 3.73682 4.9602 3.90111 4.5 4.21875V3.09375C4.99555 2.81143 5.77632 2.62504 6.35156 2.625Z" fill="black"/>
</g>
<defs>
<clipPath id="clip0_11276_90070">
<rect width="12" height="12" fill="white"/>
</clipPath>
</defs>
</svg>
