<svg width="128" height="96" viewBox="0 0 128 96" fill="none" xmlns="http://www.w3.org/2000/svg">
<path d="M79.1883 20.6133C83.6355 20.5996 87.2519 24.1937 87.2657 28.6409L87.3142 44.3748C87.3404 44.3745 87.3667 44.3741 87.3929 44.3741H97.0196C99.9659 44.3741 102.117 47.1586 101.374 50.0096L94.6504 75.795C94.1337 77.7767 92.3439 79.1597 90.2959 79.1597H79.0694C76.6873 79.1597 74.825 77.3396 74.5918 75.1358L48.7217 75.2159C44.2745 75.2296 40.6581 71.6355 40.6443 67.1883L40.5254 28.7854C40.5117 24.3382 44.1058 20.7218 48.553 20.708L79.1883 20.6133Z" fill="#C19EDB"/>
<path fill-rule="evenodd" clip-rule="evenodd" d="M73.8037 52.5847C74.7394 52.5847 75.498 53.3434 75.4981 54.2791V58.6358C75.498 59.5714 74.7394 60.3299 73.8037 60.3299H69.447C68.5114 60.3298 67.753 59.5714 67.753 58.6358V54.2791C67.753 53.3435 68.5114 52.5848 69.447 52.5847H73.8037ZM70.6573 54.521C70.1226 54.5211 69.6893 54.9547 69.6892 55.4893V57.4256C69.6893 57.9602 70.1226 58.3935 70.6573 58.3936H72.5935C73.1282 58.3936 73.5618 57.9602 73.5618 57.4256V55.4893C73.5618 54.9546 73.1282 54.521 72.5935 54.521H70.6573Z" fill="#FBF7FF"/>
<path fill-rule="evenodd" clip-rule="evenodd" d="M58.4707 52.3975C59.4064 52.3975 60.165 53.1559 60.1651 54.0916V58.4483C60.165 59.3839 59.4064 60.1424 58.4707 60.1424H54.114C53.1784 60.1423 52.42 59.3839 52.4199 58.4483V54.0916C52.42 53.156 53.1784 52.3976 54.114 52.3975H58.4707ZM55.3242 54.3335C54.7896 54.3336 54.3563 54.7672 54.3562 55.3018V57.2381C54.3562 57.7727 54.7896 58.206 55.3242 58.2061H57.2605C57.7952 58.2061 58.2288 57.7727 58.2288 57.2381V55.3018C58.2288 54.7671 57.7952 54.3335 57.2605 54.3335H55.3242Z" fill="#FBF7FF"/>
<path fill-rule="evenodd" clip-rule="evenodd" d="M58.4707 36.9073C59.4064 36.9073 60.165 37.6657 60.1651 38.6013V42.958C60.1651 43.8937 59.4064 44.6524 58.4707 44.6524H54.114C53.1784 44.6523 52.4199 43.8937 52.4199 42.958V38.6013C52.42 37.6658 53.1785 36.9073 54.114 36.9073H58.4707ZM55.3242 38.8435C54.7897 38.8436 54.3563 39.277 54.3562 39.8116V41.7478C54.3562 42.2825 54.7896 42.716 55.3242 42.7161H57.2605C57.7952 42.7161 58.2288 42.2825 58.2288 41.7478V39.8116C58.2287 39.2769 57.7952 38.8435 57.2605 38.8435H55.3242Z" fill="#FBF7FF"/>
<path fill-rule="evenodd" clip-rule="evenodd" d="M77.9439 23.5918C81.0569 23.5822 83.5882 26.098 83.5979 29.211L83.6477 45.3831C84.5816 44.7418 85.7076 44.3736 86.9021 44.3736H94.7337C97.718 44.3736 99.8759 47.2256 99.0642 50.0974L92.5598 73.1104C92.0121 75.0483 90.2434 76.3862 88.2295 76.3863H79.8521C77.0787 76.3862 75.0113 73.9199 75.3958 71.2549L49.4444 71.3352C46.3314 71.3448 43.8 68.8291 43.7903 65.7161L43.6778 29.3345C43.6682 26.2215 46.1839 23.6901 49.2969 23.6804L77.9439 23.5918ZM69.447 50.1646C67.1747 50.1647 65.3326 52.0067 65.3325 54.2791V58.6358C65.3326 60.9081 67.1747 62.7502 69.447 62.7503H73.8037C76.0761 62.7503 77.9182 60.9081 77.9182 58.6358V54.2791C77.9182 52.0067 76.0761 50.1646 73.8037 50.1646H69.447ZM54.114 49.9771C51.8417 49.9772 49.9996 51.8193 49.9995 54.0916V58.4483C49.9996 60.7206 51.8417 62.5627 54.114 62.5628H58.4707C60.7431 62.5628 62.5852 60.7207 62.5852 58.4483V54.0916C62.5852 51.8192 60.7431 49.9771 58.4707 49.9771H54.114ZM54.114 34.4868C51.8417 34.4869 49.9996 36.3291 49.9995 38.6013V42.958C49.9995 45.2304 51.8417 47.0725 54.114 47.0725H58.4707C60.7431 47.0725 62.5852 45.2305 62.5852 42.958V38.6013C62.5851 36.329 60.7431 34.4868 58.4707 34.4868H54.114ZM66.7 42.7161C66.0317 42.7161 65.4898 43.258 65.4898 43.9263V45.6204C65.4898 46.2887 66.0316 46.8306 66.7 46.8306C66.7407 46.8306 66.7811 46.8287 66.8208 46.8247C66.8606 46.8287 66.9011 46.8306 66.9419 46.8306H70.5725C71.2408 46.8305 71.7825 46.2887 71.7825 45.6204C71.7824 44.9521 71.2408 44.4102 70.5725 44.4102H67.9102V43.9263C67.9102 43.258 67.3683 42.7161 66.7 42.7161ZM76.4915 40.4666C75.8232 40.4667 75.2816 41.0085 75.2815 41.6768V44.3391H74.7974C74.1291 44.3392 73.5872 44.881 73.5872 45.5493C73.5872 46.2177 74.1291 46.7595 74.7974 46.7595H76.4915C77.1598 46.7595 77.7017 46.2177 77.7017 45.5493C77.7017 45.5085 77.6998 45.468 77.6958 45.4282C77.6998 45.3885 77.7017 45.3482 77.7017 45.3074V41.6768C77.7016 41.0085 77.1598 40.4666 76.4915 40.4666ZM71.0564 38.8435C70.3881 38.8436 69.8462 39.3855 69.8462 40.0537V41.5059C69.8462 42.1742 70.3881 42.716 71.0564 42.7161H72.5088C73.1771 42.716 73.7188 42.1742 73.7188 41.5059V40.0537C73.7187 39.3854 73.1771 38.8436 72.5088 38.8435H71.0564ZM66.7 34.7288C66.0317 34.7288 65.4898 35.2707 65.4898 35.939V39.5696C65.4898 40.2379 66.0317 40.7798 66.7 40.7798C67.3683 40.7798 67.9102 40.2379 67.9102 39.5696V37.1492H68.6363C69.3046 37.1491 69.8462 36.6073 69.8462 35.939C69.8461 35.2707 69.3045 34.7288 68.6363 34.7288H66.7ZM72.9927 34.7288C72.3244 34.7289 71.7826 35.2707 71.7825 35.939C71.7825 36.6073 72.3244 37.1491 72.9927 37.1492H75.6551V37.6333C75.6551 38.3016 76.197 38.8435 76.8653 38.8435C77.5336 38.8435 78.0755 38.3017 78.0755 37.6333V35.939C78.0754 35.2707 77.5336 34.7288 76.8653 34.7288H72.9927Z" fill="#FBF7FF"/>
<path fill-rule="evenodd" clip-rule="evenodd" d="M64.007 13.8265C66.4566 13.7828 68.3826 15.6045 68.4264 18.0541C68.4393 18.7771 68.2784 19.4626 67.9823 20.0711L70.1294 19.6462C72.753 19.1268 75.2077 21.1068 75.2554 23.7809L75.266 24.3728C75.2801 25.1629 74.651 25.8149 73.8608 25.829L54.4021 26.1764C53.6119 26.1905 52.9598 25.5614 52.9457 24.7712L52.9351 24.1793C52.8874 21.5052 55.27 19.4388 57.9104 19.8643L60.0712 20.2123C59.7537 19.6148 59.5684 18.9354 59.5555 18.2125C59.5118 15.7629 61.5574 13.8702 64.007 13.8265ZM63.7633 16.168C62.8151 16.185 62.0601 16.9675 62.077 17.9157C62.0939 18.8639 62.8763 19.6189 63.8246 19.602C64.7728 19.5851 65.5278 18.8026 65.5109 17.8544C65.4939 16.9061 64.7115 16.1511 63.7633 16.168Z" fill="#EADAFD"/>
<path d="M95.0347 64.3404C95.0993 64.3056 95.1746 64.2972 95.2444 64.3174C95.3143 64.3377 95.3735 64.3853 95.4095 64.4493C95.4454 64.5132 95.4548 64.5886 95.438 64.6595C95.3655 64.9643 95.2922 65.2691 95.2181 65.5735C94.6361 67.9639 94.0064 70.3406 93.3294 72.7034C93.2655 72.9261 93.1885 73.1447 93.0987 73.3582C92.4432 74.9345 91.0387 76.1412 89.4388 76.6248C88.8904 76.7939 88.3181 76.8801 87.7481 76.8821C86.8738 76.8841 85.9991 76.8848 85.1248 76.886C84.8118 76.8865 84.4986 76.8868 84.1856 76.8875C84.1128 76.8876 84.0421 76.8584 83.9893 76.8072C83.9365 76.7558 83.9056 76.6865 83.9036 76.6138C83.9017 76.5411 83.9288 76.4704 83.9788 76.4163C84.0288 76.3623 84.0978 76.329 84.1705 76.3252C84.4831 76.3092 84.796 76.2929 85.1087 76.2766C85.9818 76.2312 86.8551 76.1852 87.7283 76.1404C88.226 76.1142 88.7172 76.0157 89.1824 75.8494C90.5461 75.3664 91.6357 74.2732 92.177 72.9702C92.2518 72.7925 92.3165 72.6108 92.3711 72.4253C93.0646 70.0673 93.8057 67.7228 94.5943 65.3924C94.6947 65.0956 94.796 64.799 94.898 64.5027C94.9217 64.4339 94.9701 64.3752 95.0347 64.3404Z" fill="#682A7A"/>
<path d="M44.0481 39.0335C44.1198 39.0333 44.1894 39.0617 44.2417 39.1121C44.294 39.1627 44.3248 39.232 44.3304 39.3037C44.3806 39.9677 44.4272 40.6322 44.47 41.2962C44.7048 44.9365 44.8276 48.5776 44.8389 52.2185L44.8807 65.7127C44.8771 67.093 45.4951 68.4506 46.5323 69.3601C47.4196 70.1471 48.5693 70.6255 49.7828 70.6885C50.6487 70.7299 51.5153 70.7854 52.3814 70.8548C53.0457 70.9079 53.7105 70.9692 54.3748 71.0389C54.4453 71.0463 54.5134 71.0769 54.5635 71.1285C54.6135 71.1801 54.6418 71.2486 54.6421 71.3191C54.6424 71.3898 54.6145 71.4582 54.5647 71.5103C54.5149 71.5624 54.4471 71.5934 54.3765 71.6014C53.7126 71.6751 53.0483 71.7406 52.3843 71.7979C51.5187 71.8726 50.6526 71.9333 49.7869 71.98C48.2655 72.0626 46.6934 71.5143 45.5386 70.4839C44.1864 69.3004 43.3749 67.5156 43.3807 65.7173L43.3389 52.2232C43.3276 48.5822 43.4282 44.9403 43.6404 41.2986C43.6791 40.6344 43.7217 39.9697 43.7679 39.3055C43.773 39.2337 43.8031 39.1642 43.855 39.1133C43.907 39.0625 43.9764 39.0338 44.0481 39.0335Z" fill="#682A7A"/>
<path fill-rule="evenodd" clip-rule="evenodd" d="M63.7632 16.1685C64.7113 16.1517 65.4935 16.9067 65.5105 17.8548C65.5274 18.8029 64.7726 19.5853 63.8245 19.6023C62.8764 19.6191 62.0937 18.8642 62.0767 17.916C62.0599 16.968 62.8152 16.1855 63.7632 16.1685ZM63.7898 17.6682C63.67 17.6705 63.5744 17.7696 63.5765 17.8894C63.5787 18.0092 63.6778 18.1046 63.7976 18.1026C63.9175 18.1004 64.0129 18.0015 64.0108 17.8816C64.0086 17.7617 63.9096 17.6662 63.7898 17.6682Z" fill="#682A7A"/>
<path fill-rule="evenodd" clip-rule="evenodd" d="M63.98 12.3272C67.2408 12.269 69.8669 14.7331 69.9258 18.0279C69.9266 18.0716 69.9265 18.1154 69.9263 18.159C71.945 17.7908 73.8812 18.5153 75.1731 19.8787L79.0662 19.8667C83.9275 19.8518 87.8805 23.7807 87.8958 28.6419L87.9422 43.6231H96.3726C100.137 43.6232 102.886 47.1809 101.937 50.8238L95.4737 75.6094C94.8134 78.1415 92.5265 79.9084 89.9097 79.9085H79.7166C77.0874 79.9085 74.9538 78.1733 74.2293 75.8858L48.9739 75.9641C44.1126 75.979 40.1594 72.0501 40.1443 67.1888L40.0254 28.7901C40.0106 23.9289 43.9394 19.9757 48.8006 19.9605L53.1922 19.9468C54.4299 18.7467 56.1936 18.0989 58.0596 18.3706C58.0579 18.3272 58.0562 18.2835 58.0555 18.2398C57.9953 14.8649 60.8028 12.384 63.98 12.3272ZM86.9522 45.1231C84.5629 45.1231 82.4748 46.7364 81.8719 49.0484L75.604 73.0862C74.9019 75.7788 76.9339 78.4085 79.7166 78.4085H89.9097C91.8438 78.4084 93.5342 77.1025 94.0223 75.231L100.485 50.4453C101.187 47.7528 99.1551 45.1232 96.3726 45.1231H86.9522ZM48.8052 21.4605C44.7725 21.4732 41.5131 24.7527 41.5254 28.7854L41.6443 67.1841C41.6568 71.217 44.9364 74.4764 48.9693 74.4641L73.9676 74.3865C73.9467 73.8377 74.0051 73.2738 74.1526 72.7078L74.3609 71.9082C71.7486 71.8717 69.136 71.8211 66.5237 71.7542C64.5998 71.7049 62.6755 71.6473 60.7515 71.5816C60.6784 71.579 60.6078 71.5493 60.556 71.4971C60.5042 71.4448 60.4747 71.3743 60.4744 71.3013C60.4743 71.2283 60.5033 71.1576 60.5547 71.105C60.6063 71.0524 60.6767 71.0221 60.7498 71.0191C62.6733 70.9414 64.5972 70.872 66.5208 70.8108C69.2477 70.7241 71.9749 70.6546 74.7019 70.6009L80.4205 48.67C80.8529 47.0117 81.8794 45.6328 83.2361 44.7378L83.1883 29.1746C83.2443 26.5724 80.8883 24.2307 78.2864 24.303L76.7649 24.3076L76.7657 24.3465C76.7945 25.9649 75.5057 27.3002 73.8872 27.3291L54.4288 27.6765C52.8105 27.7053 51.4745 26.4169 51.4456 24.7984L51.4356 24.2425C50.8369 24.2361 50.2379 24.2303 49.6392 24.2232C46.9523 24.1186 44.4317 26.5143 44.4402 29.2945C44.4381 29.4121 44.436 29.5301 44.4339 29.6477C44.3991 31.5717 44.3604 33.496 44.3182 35.42C44.3165 35.4936 44.287 35.5643 44.2347 35.6165C44.1823 35.6687 44.1115 35.6983 44.0379 35.6985C43.9644 35.6987 43.8933 35.6695 43.8406 35.6177C43.7881 35.5658 43.7577 35.4951 43.7557 35.4217C43.7015 33.498 43.651 31.5741 43.6043 29.6504C43.6014 29.5328 43.5988 29.4148 43.596 29.2972C43.4404 26.0734 46.3176 23.0378 49.6355 23.0601C50.268 23.0486 50.9008 23.0379 51.5332 23.0274C51.6379 22.4677 51.8227 21.9381 52.0747 21.45L48.8052 21.4605ZM76.1997 21.3755C76.412 21.8225 76.5689 22.3026 76.6609 22.8079L78.2818 22.803C81.6842 22.7107 84.7593 25.7671 84.6883 29.17L84.7339 43.9973C85.2776 43.8081 85.8508 43.6871 86.4419 43.6426L86.3958 28.6465C86.3831 24.6137 83.1037 21.3543 79.0708 21.3667L76.1997 21.3755ZM64.0069 13.8269C61.5574 13.8708 59.5116 15.7634 59.5552 18.2129C59.5681 18.9358 59.7536 19.6154 60.0711 20.2129L60.0696 20.2127L60.0701 20.2134L58.3174 19.9309L58.3218 19.9307L57.9102 19.8645C57.3122 19.7682 56.7273 19.8001 56.181 19.9375H56.1824C55.4846 20.1127 54.8491 20.4605 54.3291 20.9356C54.2947 20.9671 54.261 20.9996 54.2276 21.0323C54.1906 21.0683 54.1544 21.1052 54.1187 21.1426C54.0949 21.1675 54.0713 21.1926 54.0481 21.2181C53.9999 21.2711 53.9531 21.3255 53.9075 21.3809C53.5142 21.8592 53.2212 22.425 53.0643 23.0479C53.0392 23.1471 53.0178 23.2479 52.9998 23.3499C52.9742 23.4952 52.9557 23.6432 52.9451 23.7935C52.9446 23.8009 52.9439 23.8085 52.9434 23.816C52.9356 23.9358 52.9327 24.0572 52.9349 24.1797L52.9454 24.7715C52.9595 25.5616 53.6118 26.1908 54.4019 26.1768L73.8604 25.8294C74.6505 25.8153 75.2799 25.1634 75.2659 24.3733L75.2647 24.312L75.2637 24.3123L75.2544 23.7818C75.2484 23.4467 75.2044 23.1225 75.1272 22.8128L75.1285 22.8125C74.9978 22.288 74.771 21.805 74.4703 21.3806L74.469 21.3809C73.9987 20.7176 73.3468 20.1973 72.5948 19.8868L72.597 19.8865C71.847 19.5765 70.9972 19.4747 70.1292 19.6465L68.8577 19.8982H68.8587L67.9812 20.0721C68.0087 20.0157 68.0345 19.9583 68.0596 19.9007L68.0601 19.9004C68.3057 19.3356 68.4378 18.7105 68.4261 18.0545C68.3822 15.605 66.4564 13.7833 64.0069 13.8269Z" fill="#682A7A"/>
<path fill-rule="evenodd" clip-rule="evenodd" d="M94.5845 57.7981L93.0693 62.9843C92.7441 64.0976 91.5302 65 90.3579 65L81.8677 65C80.6954 65 80.0088 64.0976 80.334 62.9843L81.8491 57.7981C82.1506 56.7661 83.276 55.9295 84.3628 55.9295L84.689 55.9295C85.2344 55.9295 85.8184 55.6369 86.1977 55.1736C86.5769 54.7104 87.161 54.4177 87.7064 54.4177L90.7023 54.4177C91.2477 54.4177 91.6608 54.7104 91.7694 55.1736C91.878 55.6369 92.2911 55.9295 92.8365 55.9295L93.1627 55.9295C94.2494 55.9295 94.886 56.7661 94.5845 57.7981ZM86.5545 63.4882C84.7961 63.4882 83.7661 62.1346 84.2539 60.4647C84.7418 58.7949 86.5627 57.4412 88.3211 57.4412C90.0794 57.4412 91.1094 58.7949 90.6216 60.4647C90.1338 62.1346 88.3128 63.4882 86.5545 63.4882Z" fill="#9F6EB8"/>
</svg>
