<svg width="12" height="12" viewBox="0 0 12 12" fill="none" xmlns="http://www.w3.org/2000/svg">
<path fill-rule="evenodd" clip-rule="evenodd" d="M9.5 7C10.8806 7 11.9999 8.1194 12 9.5C11.9999 10.8807 10.8807 12 9.5 12C8.11944 11.9999 7.00007 10.8806 7 9.5C7.00013 8.11948 8.11948 7.00013 9.5 7ZM9.33301 7.75C9.14936 7.7503 9.00031 7.89936 9 8.08301V9H8.08301C7.89951 9.00043 7.75037 9.1495 7.75 9.33301V9.66699C7.75021 9.85064 7.89941 9.99957 8.08301 10H9V10.917C9.00014 11.1008 9.14926 11.2497 9.33301 11.25H9.66602C9.85002 11.25 9.99986 11.101 10 10.917V10H10.918C11.1018 9.99982 11.2508 9.8508 11.251 9.66699V9.33301C11.2506 9.14934 11.1017 9.00018 10.918 9H10V8.08301C9.99969 7.89917 9.84992 7.75 9.66602 7.75H9.33301Z" fill="black"/>
<path fill-rule="evenodd" clip-rule="evenodd" d="M9 1C10.6569 1 12 2.34315 12 4V5.5C12 5.77614 11.7761 6 11.5 6C11.2239 6 11 5.77614 11 5.5V5H1V8L1.01074 8.2041C1.113 9.21278 1.96435 10 3 10H5.5C5.77614 10 6 10.2239 6 10.5C6 10.7761 5.77614 11 5.5 11H3C1.39489 11 0.0842144 9.73944 0.00390625 8.1543L0 8V4C9.79821e-08 2.34315 1.34315 1 3 1H9ZM3 2C1.89543 2 1 2.89543 1 4H11C11 2.89543 10.1046 2 9 2H3Z" fill="black"/>
</svg>
