<svg fill="none" viewBox="0 0 16 16" xmlns="http://www.w3.org/2000/svg">
  <path fill="#EEE" d="M12 1.5c1.933 0 3.5 1.567 3.5 3.5v2.727C14.497 6.664 13.076 6 11.5 6 8.462 6 6 8.462 6 11.5c0 1.107.328 2.137.891 3H4C2.067 14.5.5 12.933.5 11V5C.5 3.067 2.067 1.5 4 1.5z"/>
  <path fill="#CCC" d="M12.5 1.5c1.657 0 3 1.343 3 3v1H.5v-1c0-1.657 1.343-3 3-3z"/>
  <path fill="#888" d="M12 1c2.21 0 4 1.79 4 4v3.34c-.284-.404-.62-.77-1-1.083V6H1v5c0 1.657 1.343 3 3 3h2.602c.182.357.402.693.655 1H4c-2.21 0-4-1.79-4-4V5c0-2.21 1.79-4 4-4zM4 2C2.343 2 1 3.343 1 5h14c0-1.657-1.343-3-3-3z"/>
  <path fill="#38B26A" d="M16 11.5c0 2.485-2.015 4.5-4.5 4.5S7 13.985 7 11.5 9.015 7 11.5 7 16 9.015 16 11.5"/>
  <path fill="#fff" d="M13.361 9.896c.195-.195.512-.195.708 0 .195.196.195.512 0 .707l-3 3c-.196.196-.513.196-.708 0l-1.5-1.5c-.195-.195-.195-.511 0-.707.196-.195.512-.195.707 0l1.147 1.147z"/>
</svg>
