<svg width="24" height="24" viewBox="0 0 24 24" fill="none" xmlns="http://www.w3.org/2000/svg">
<path d="M15 2.625C18.5208 2.625 21.375 5.47918 21.375 9C21.375 10.0583 21.1146 11.0551 20.6582 11.9336C19.6296 11.1896 18.3664 10.75 17 10.75C13.5544 10.75 10.76 13.5382 10.75 16.9814L9.73926 18.0059C9.50592 18.242 9.18744 18.375 8.85547 18.375H7.87012C7.45864 18.3751 7.12508 18.7086 7.125 19.1201V19.8848C7.1249 20.7078 6.45776 21.3749 5.63477 21.375H4.6123C3.51477 21.375 2.625 20.4852 2.625 19.3877V18.8555C2.62508 18.0674 2.93723 17.3115 3.49316 16.7529L8.56836 11.6533C8.84105 11.3792 8.92371 10.973 8.82715 10.5986C8.69541 10.0877 8.625 9.55207 8.625 9C8.625 5.47918 11.4792 2.625 15 2.625ZM15.5 6.66699C14.4875 6.667 13.667 7.48749 13.667 8.5C13.667 9.51252 14.4875 10.333 15.5 10.333C16.5125 10.333 17.333 9.51252 17.333 8.5C17.333 7.48749 16.5125 6.66699 15.5 6.66699Z" fill="#FFC95C"/>
<path d="M15.0908 2.00098C18.915 2.0496 22 5.16433 22 9C22 10.2071 21.6942 11.3427 21.1562 12.334C20.8416 12.0535 20.4986 11.8047 20.1318 11.5918C20.5261 10.8128 20.75 9.93279 20.75 9C20.75 5.84918 18.2156 3.29078 15.0742 3.25098L15 3.25C11.8244 3.25 9.25 5.82436 9.25 9L9.25098 9.09375C9.25841 9.55958 9.32115 10.0119 9.43262 10.4434C9.57539 10.9968 9.46376 11.6406 9.01172 12.0947L3.93652 17.1934C3.4971 17.6348 3.25008 18.2326 3.25 18.8555V19.3877L3.25195 19.458C3.28851 20.1777 3.88347 20.75 4.6123 20.75H5.63477C6.09754 20.7499 6.47557 20.3866 6.49902 19.9297L6.5 19.8848V19.1201C6.50009 18.3635 7.11344 17.7501 7.87012 17.75H8.85645L8.88672 17.749C9.03021 17.7418 9.1666 17.6848 9.27246 17.5879L9.29492 17.5664L10.8281 16.0127C10.7771 16.3343 10.75 16.664 10.75 17C10.75 17.2768 10.7698 17.5491 10.8047 17.8164L10.1846 18.4453C9.8447 18.7894 9.38446 18.987 8.90234 18.999L8.85645 19H7.87012C7.80386 19.0001 7.75008 19.0538 7.75 19.1201V19.8848L7.74902 19.9395C7.71992 21.0824 6.7846 21.9999 5.63477 22H4.6123C3.19216 22 2.03674 20.8667 2.00098 19.4551L2 19.3877V18.8555C2.00008 17.9021 2.37822 16.9872 3.05078 16.3115L8.12598 11.2129C8.21934 11.1191 8.27286 10.9509 8.22266 10.7559L8.19531 10.6494C8.06738 10.12 8 9.56743 8 9C8 5.13401 11.134 2 15 2L15.0908 2.00098ZM15.5 6.04199C16.8577 6.04199 17.958 7.1423 17.958 8.5C17.958 9.53043 17.324 10.4118 16.4248 10.7773C16.0784 10.809 15.7399 10.8673 15.4121 10.9531C14.0952 10.9068 13.042 9.82824 13.042 8.5C13.042 7.1423 14.1423 6.04199 15.5 6.04199ZM15.5 7.29199C14.8327 7.29199 14.292 7.83266 14.292 8.5C14.292 9.16734 14.8327 9.70801 15.5 9.70801C16.1673 9.70801 16.708 9.16734 16.708 8.5C16.708 7.83266 16.1673 7.29199 15.5 7.29199Z" fill="#B66A1F"/>
<circle cx="17" cy="17" r="5" fill="#38B26A"/>
<path fill-rule="evenodd" clip-rule="evenodd" d="M17 12C19.7614 12 22 14.2386 22 17C22 19.7614 19.7614 22 17 22C14.2386 22 12 19.7614 12 17C12 14.2386 14.2386 12 17 12ZM17 13.25C14.9289 13.25 13.25 14.9289 13.25 17C13.25 19.0711 14.9289 20.75 17 20.75C19.0711 20.75 20.75 19.0711 20.75 17C20.75 14.9289 19.0711 13.25 17 13.25Z" fill="#138356"/>
<path d="M18.4331 15.4643C18.6771 15.2202 19.0728 15.2202 19.3168 15.4643C19.5609 15.7084 19.5609 16.104 19.3168 16.3481L16.9731 18.6918C16.729 18.9359 16.3334 18.9359 16.0893 18.6918L14.6831 17.2856C14.439 17.0415 14.439 16.6459 14.6831 16.4018C14.9195 16.1654 15.2982 16.1579 15.5435 16.3796L15.5668 16.4018L16.5312 17.3662L18.4331 15.4643Z" fill="white"/>
</svg>
