<svg width="24" height="24" viewBox="0 0 24 24" fill="none" xmlns="http://www.w3.org/2000/svg">
<path d="M17 2C19.2091 2 21 3.79086 21 6V10.2751C21 11.0383 20.0659 11.4987 19.3592 11.2105C18.6313 10.9136 17.8347 10.75 17 10.75C13.5482 10.75 10.75 13.5482 10.75 17C10.75 18.291 11.1415 19.4905 11.8122 20.4863C12.1879 21.0441 11.8251 22 11.1527 22H7C4.79086 22 3 20.2091 3 18V6C3 3.79086 4.79086 2 7 2H17Z" fill="#F5F5F5"/>
<path d="M17 2C19.2091 2 21 3.79086 21 6V10.4287C21 11.1309 20.1434 11.5527 19.5 11.2715V6C19.5 4.61929 18.3807 3.5 17 3.5H7C5.61929 3.5 4.5 4.61929 4.5 6V18C4.5 19.3807 5.61929 20.5 7 20.5H11.8213C12.1954 21.0525 11.8362 22 11.169 22H7L6.89648 21.999C4.76958 21.945 3.055 20.2304 3.00098 18.1035L3 18V6C3 3.79086 4.79086 2 7 2H17Z" fill="#686868"/>
<path d="M11.0791 15C10.867 15.6281 10.75 16.3003 10.75 17C10.75 17.6997 10.867 18.3719 11.0791 19H7C6.44772 19 6 18.5523 6 18V16C6 15.4477 6.44772 15 7 15H11.0791Z" fill="#CCCCCC"/>
<path d="M17 5C17.5523 5 18 5.44772 18 6V6.5C18 7.05228 17.5523 7.5 17 7.5H7C6.44772 7.5 6 7.05228 6 6.5V6C6 5.44772 6.44772 5 7 5H17Z" fill="#F05F2B"/>
<path d="M12.333 12C12.5664 12 12.7716 12.1092 12.9092 12.2764C12.4957 12.6348 12.129 13.0456 11.8213 13.5H6.75C6.33579 13.5 6 13.1642 6 12.75C6 12.3358 6.33579 12 6.75 12H12.333ZM11.25 9C11.6642 9 12 9.33579 12 9.75C12 10.1642 11.6642 10.5 11.25 10.5H6.75C6.33579 10.5 6 10.1642 6 9.75C6 9.33579 6.33579 9 6.75 9H11.25Z" fill="#888888"/>
<circle cx="17" cy="17" r="5" fill="black"/>
<path d="M14.25 17L19.75 17" stroke="white" stroke-width="1.25" stroke-linecap="round"/>
</svg>
