<svg width="128" height="96" viewBox="0 0 128 96" fill="none" xmlns="http://www.w3.org/2000/svg">
<path d="M85.8222 24.0262C88.7759 23.9411 91.4417 25.8046 92.2658 28.6422C93.6604 33.4438 94.7348 38.5587 95.4235 43.8981C95.8954 47.5562 96.1655 51.1585 96.2468 54.6717C94.3515 53.7782 92.2339 53.2784 89.9997 53.2784C81.8996 53.2785 75.3332 59.8451 75.3332 67.9452C75.3332 68.1871 75.339 68.4276 75.3505 68.6666C72.5012 69.1334 69.6172 69.5562 66.7019 69.9322C58.2593 71.0212 49.9715 71.6665 41.9333 71.8988C38.9793 71.9842 36.313 70.1207 35.489 67.2826C34.0957 62.4836 33.0222 57.3717 32.3339 52.0358C31.6452 46.6957 31.3864 41.4747 31.517 36.4757C31.5942 33.5217 33.7003 31.043 36.5791 30.3761C44.4131 28.5613 52.5936 27.0827 61.0361 25.9938C69.4848 24.904 77.7785 24.2582 85.8222 24.0262Z" fill="#F05F2B"/>
<path d="M85.8005 23.2765C89.0811 23.182 92.0626 25.2534 92.9861 28.4328C94.3916 33.2721 95.4739 38.4251 96.1674 43.8022C96.6606 47.6256 96.9346 51.3892 97.0046 55.0561C96.5152 54.7896 96.0089 54.5504 95.4878 54.34C95.3977 50.9639 95.1325 47.5053 94.6797 43.9941C93.9958 38.6923 92.929 33.615 91.5454 28.851C90.8204 26.3554 88.4703 24.7003 85.8437 24.7761C77.8252 25.0073 69.5563 25.6509 61.1321 26.7375C52.7139 27.8233 44.5579 29.2975 36.7483 31.1066C34.1883 31.6997 32.3348 33.8971 32.2668 36.4951C32.1372 41.4548 32.3939 46.6372 33.0779 51.9396C33.7612 57.2379 34.8269 62.3119 36.2092 67.0732C36.9339 69.5693 39.2846 71.225 41.9116 71.1491C49.9247 70.9175 58.1877 70.2742 66.6059 69.1884C69.5483 68.8089 72.4585 68.3815 75.3332 67.9094C75.3332 67.9212 75.3332 67.9331 75.3332 67.945C75.3332 68.4419 75.358 68.9332 75.4062 69.4174C72.5698 69.8813 69.6992 70.3017 66.7978 70.676C58.3308 71.7681 50.0182 72.4153 41.9548 72.6484C38.6737 72.7432 35.6918 70.6714 34.7685 67.4914C33.3644 62.6548 32.2832 57.5051 31.5901 52.1315C30.8964 46.7538 30.6357 41.4942 30.7673 36.456C30.8538 33.1461 33.2125 30.3859 36.4099 29.6452C44.2684 27.8247 52.4733 26.342 60.9402 25.2499C69.4132 24.1571 77.7317 23.5092 85.8005 23.2765Z" fill="#9E2B08"/>
<path d="M57.1156 43.7072C56.9488 42.4136 58.2219 41.4096 59.441 41.8734L69.5141 45.7056C70.8018 46.1955 71.0246 47.9226 69.9033 48.7233L61.1323 54.9861C60.0708 55.744 58.5846 55.0959 58.4177 53.8023L57.1156 43.7072Z" fill="#671907"/>
<path d="M50.4485 23.4438C50.5263 23.4401 50.6051 23.4612 50.6687 23.5082C50.7322 23.5552 50.7752 23.6237 50.7883 23.6999C50.8014 23.7761 50.7839 23.855 50.7397 23.9206C50.6955 23.9862 50.628 24.0325 50.5534 24.0551C50.3116 24.128 50.0699 24.1998 49.8279 24.2704C47.6504 24.9059 45.4629 25.4466 43.2571 25.8949C41.051 26.3433 38.8334 26.7333 36.5974 27.0668C36.349 27.1038 36.1 27.1401 35.8513 27.1757C35.7409 27.1914 35.6263 27.1698 35.5312 27.1088C35.4362 27.0479 35.3687 26.9537 35.3432 26.8456C35.3178 26.7375 35.3361 26.6228 35.394 26.5258C35.4519 26.4288 35.5448 26.3583 35.6506 26.3232C35.89 26.2438 36.1301 26.1657 36.3703 26.0893C38.5335 25.4009 40.7291 24.8305 42.949 24.3793C45.1687 23.9281 47.4198 23.6301 49.6907 23.4862C49.943 23.4702 50.1955 23.456 50.4485 23.4438Z" fill="#CC3B0A"/>
<path d="M102 68C102 74.6274 96.6274 80 90 80C83.3726 80 78 74.6274 78 68C78 61.3726 83.3726 56 90 56C96.6274 56 102 61.3726 102 68Z" fill="#FAB341"/>
<path d="M90.0002 72C90.7366 72 91.3334 72.5969 91.3335 73.3333C91.3335 74.0696 90.7366 74.6667 90.0002 74.6667C89.2638 74.6667 88.6669 74.0696 88.6669 73.3333C88.667 72.5969 89.2639 72 90.0002 72Z" fill="black"/>
<path d="M90.0004 61C90.3785 61 90.7391 61.1404 90.9887 61.3904C91.2392 61.6404 91.3581 61.9797 91.3337 62.3333C91.3254 62.4555 91.3171 62.5778 91.3088 62.7C91.1588 64.8999 91.0088 67.0999 90.8588 69.2998C90.8505 69.422 90.842 69.5443 90.8337 69.6665C90.8194 69.8729 90.7192 70.0711 90.5632 70.217C90.4067 70.363 90.2072 70.445 90.0004 70.4451C89.7937 70.4451 89.5942 70.363 89.4377 70.217C89.2817 70.0711 89.1815 69.873 89.1672 69.6665C89.1589 69.5443 89.1504 69.422 89.142 69.2998C88.992 67.0999 88.8421 64.8999 88.6921 62.7C88.6838 62.5777 88.6755 62.4555 88.6672 62.3333C88.6428 61.9796 88.7617 61.6404 89.0122 61.3904C89.2618 61.1404 89.6224 61 90.0004 61Z" fill="black"/>
</svg>
