<svg fill="none" viewBox="0 0 24 24" xmlns="http://www.w3.org/2000/svg">
  <path fill="#888" d="M14.75 4.75c0-.69-.56-1.25-1.25-1.25h-3c-.69 0-1.25.56-1.25 1.25v.5h-1.5v-.5C7.75 3.231 8.981 2 10.5 2h3c1.519 0 2.75 1.231 2.75 2.75v.5h-1.5z"/>
  <path fill="#3969EF" d="M21.625 17c0 2.554-2.07 4.625-4.625 4.625-2.554 0-4.625-2.07-4.625-4.625 0-2.554 2.07-4.625 4.625-4.625 2.554 0 4.625 2.07 4.625 4.625"/>
  <path fill="url(#a)" d="M17 12c2.761 0 5 2.239 5 5s-2.239 5-5 5-5-2.239-5-5 2.239-5 5-5m0 1.25c-2.071 0-3.75 1.679-3.75 3.75s1.679 3.75 3.75 3.75 3.75-1.679 3.75-3.75-1.679-3.75-3.75-3.75"/>
  <path fill="#fff" d="M14.603 17.344c-.16-.243-.133-.573.08-.786.244-.244.64-.244.885 0l.807.807v-2.24l.013-.126c.058-.285.31-.499.612-.499s.554.214.613.5l.012.125v2.24l.808-.807.099-.08c.242-.16.572-.134.786.08.213.213.24.543.08.786l-.08.098-1.876 1.875c-.244.244-.64.244-.884 0l-1.875-1.875z"/>
  <path fill="#FFC95C" d="M21 9.5v1.394c0 .508-.535.839-.99.611-.664-.332-1.397-.505-2.14-.505H17c-3.314 0-6 2.709-6 6.023 0 .645.104 1.289.308 1.9l.253.76c.216.648-.266 1.317-.948 1.317H6c-1.657 0-3-1.343-3-3V9.5c0-1.657 1.343-3 3-3h12c1.657 0 3 1.343 3 3"/>
  <path fill="#FFE8A3" d="M8.76 21H6.876V6.5h1.886zm9.115-10H17q-.517 0-1.01.087V6.5h1.885z"/>
  <path stroke="#B66A1F" stroke-linecap="round" stroke-width="1.5" d="M21.5 11V9c0-1.657-1.343-3-3-3H6C4.343 6 3 7.343 3 9v8.5c0 1.657 1.343 3 3 3h4.5"/>
  <defs>
    <linearGradient id="a" x1="17" x2="17" y1="12" y2="22" gradientUnits="userSpaceOnUse">
      <stop stop-color="#2B55CA"/>
      <stop offset="1" stop-color="#1E42A4"/>
    </linearGradient>
  </defs>
</svg>
