<svg fill="none" viewBox="0 0 16 16" xmlns="http://www.w3.org/2000/svg">
  <g clip-path="url(#Compose-16_svg__a)">
    <path fill="#000" d="M8.072 1a.625.625 0 0 1 0 1.25H4.044a2.75 2.75 0 0 0-2.75 2.727l-.05 6a2.75 2.75 0 0 0 2.75 2.773h8a2.75 2.75 0 0 0 2.75-2.727l.025-3.028a.625.625 0 0 1 1.25.01l-.025 3.028a4 4 0 0 1-4 3.967h-8a4 4 0 0 1-4-4.033l.05-6a4 4 0 0 1 4-3.967zm4.091-.294a2.249 2.249 0 0 1 3.18 3.18l-6.55 6.552a2.6 2.6 0 0 1-.883.58l-2.124.844c-1.006.4-2.01-.581-1.634-1.596l.714-1.926c.131-.353.337-.673.603-.939zm2.297.884a1 1 0 0 0-1.413 0L6.353 8.285a1.4 1.4 0 0 0-.314.49L5.324 10.7l2.125-.844c.172-.068.329-.171.46-.302l6.55-6.551a1 1 0 0 0 0-1.413"/>
  </g>
  <defs>
    <clipPath id="Compose-16_svg__a">
      <path fill="#fff" d="M0 0h16v16H0z"/>
    </clipPath>
  </defs>
</svg>
