<svg width="24" height="24" viewBox="0 0 24 24" fill="none" xmlns="http://www.w3.org/2000/svg">
<path d="M16.25 7.75C16.25 5.40279 14.3472 3.5 12 3.5C9.65279 3.5 7.75 5.40279 7.75 7.75V13.75C7.75 14.9926 8.75736 16 10 16H14C15.2426 16 16.25 14.9926 16.25 13.75V7.75ZM17.75 13.75C17.75 15.8211 16.0711 17.5 14 17.5H10C7.92893 17.5 6.25 15.8211 6.25 13.75V7.75C6.25 4.57436 8.82436 2 12 2C15.1756 2 17.75 4.57436 17.75 7.75V13.75Z" fill="#783B13"/>
<path d="M4 12.75C4 11.0931 5.34315 9.75 7 9.75H17C18.6569 9.75 20 11.0931 20 12.75V18.75C20 20.4069 18.6569 21.75 17 21.75H7C5.34315 21.75 4 20.4069 4 18.75V12.75Z" fill="#FFC95C"/>
<path d="M19.25 12.75C19.25 11.5074 18.2426 10.5 17 10.5H7C5.75736 10.5 4.75 11.5074 4.75 12.75V18.75C4.75 19.9926 5.75736 21 7 21H17C18.2426 21 19.25 19.9926 19.25 18.75V12.75ZM20.75 18.75C20.75 20.8211 19.0711 22.5 17 22.5H7C4.92893 22.5 3.25 20.8211 3.25 18.75V12.75C3.25 10.6789 4.92893 9 7 9H17C19.0711 9 20.75 10.6789 20.75 12.75V18.75Z" fill="#B66A1F"/>
<path d="M13.0322 10.458C13.2153 10.4621 13.399 10.4667 13.5821 10.4717C13.6691 10.4742 13.7542 10.5071 13.8184 10.5674C13.8826 10.6277 13.9209 10.7101 13.9248 10.7969C13.9287 10.8838 13.8976 10.9694 13.8389 11.0352C13.7802 11.101 13.698 11.1413 13.6114 11.1514C13.4296 11.1725 13.2473 11.1927 13.0655 11.2129C10.9897 11.4431 8.91136 11.6109 6.8301 11.7158C6.70122 11.7228 6.57651 11.7573 6.46291 11.8154C6.20995 11.9444 6.01462 12.1842 5.94631 12.4746C5.84345 12.9793 5.72595 13.4822 5.59279 13.9824C5.54551 14.1601 5.49644 14.3376 5.44533 14.5147C5.41971 14.603 5.36637 14.6834 5.29006 14.7373C5.21384 14.7912 5.12141 14.814 5.03127 14.8008C4.94107 14.7875 4.85931 14.7386 4.80178 14.6651C4.74418 14.5915 4.71591 14.4992 4.71682 14.4072C4.71886 14.223 4.72366 14.0391 4.72951 13.8555C4.74601 13.3381 4.77745 12.8225 4.82424 12.3096C4.88821 11.6547 5.31076 11.0365 5.9092 10.7354C6.17708 10.5978 6.47669 10.5194 6.77639 10.5078C8.85893 10.4287 10.9442 10.4119 13.0322 10.458Z" fill="#FFEAB8"/>
<path d="M12 12.75C10.8954 12.75 10 13.6454 10 14.75C10 15.3262 10.2459 15.8431 10.6357 16.208L10.3105 17.5078C10.153 18.1388 10.6308 18.75 11.2812 18.75H12.7188C13.3692 18.75 13.847 18.1388 13.6895 17.5078L13.3652 16.208C13.7548 15.8431 14 15.3259 14 14.75C14 13.6454 13.1046 12.75 12 12.75Z" fill="#783B13"/>
</svg>
