<svg width="12" height="12" viewBox="0 0 12 12" fill="none" xmlns="http://www.w3.org/2000/svg">
<path fill-rule="evenodd" clip-rule="evenodd" d="M9.5 7C10.8807 7 11.9999 8.11934 12 9.5C11.9999 10.8807 10.8807 12 9.5 12C8.11944 11.9999 7.00007 10.8806 7 9.5C7.00007 8.11943 8.11944 7.00013 9.5 7ZM9.33301 7.75C9.14932 7.7503 9.00024 7.8993 9 8.08301V9H8.08301C7.89947 9.00043 7.75031 9.14944 7.75 9.33301V9.66699C7.75021 9.85064 7.89941 9.99957 8.08301 10H9V10.917C9.00014 11.1008 9.14926 11.2497 9.33301 11.25H9.66602C9.85002 11.25 9.99986 11.101 10 10.917V10H10.918C11.1018 9.99982 11.2508 9.8508 11.251 9.66699V9.33301C11.2507 9.14928 11.1017 9.00018 10.918 9H10V8.08301C9.99976 7.89912 9.84996 7.75 9.66602 7.75H9.33301Z" fill="black"/>
<path fill-rule="evenodd" clip-rule="evenodd" d="M4.16895 1C4.83932 1 5.4654 1.33589 5.83594 1.89453L6.08887 2.27637C6.18149 2.41609 6.33822 2.5 6.50586 2.5H9C10.6569 2.5 12 3.84315 12 5.5C12 5.77614 11.7761 6 11.5 6H11V5.99805H1V8C1 9.10457 1.89543 10 3 10H5.5C5.77614 10 6 10.2239 6 10.5C6 10.7761 5.77614 11 5.5 11H3C1.34315 11 6.44256e-08 9.65685 0 8V4C6.44266e-08 2.34315 1.34315 1 3 1H4.16895ZM3 2C1.89543 2 1 2.89543 1 4V4.99805H10.9336C10.7107 4.13678 9.93096 3.5 9 3.5H6.50586C6.00309 3.5 5.53377 3.24806 5.25586 2.8291L5.00293 2.44727C4.81767 2.16786 4.50419 2 4.16895 2H3Z" fill="black"/>
</svg>
