<svg width="128" height="96" viewBox="0 0 128 96" fill="none" xmlns="http://www.w3.org/2000/svg">
<path d="M93.437 20.6075C96.0128 20.6075 97.4398 22.1468 97.4398 24.7227V49.2788C97.4398 50.3308 98.0013 51.605 97.0668 51.0902C94.971 49.9358 92.5626 49.2788 90.0007 49.2788C85.3823 49.2788 81.2624 51.4135 78.574 54.75H52.2676C49.6917 54.75 47.6035 52.6618 47.6035 50.0859L48.1352 24.7227C48.1352 22.1468 49.6917 20.6075 52.2676 20.6075L93.437 20.6075Z" fill="#589D88"/>
<path fill-rule="evenodd" clip-rule="evenodd" d="M93.4559 20.0601C95.9761 20.1239 97.9995 22.187 97.9996 24.7227V50.0859L97.9981 50.2063C97.9866 50.6596 97.9101 51.0967 97.7781 51.509C97.3428 51.2362 96.892 50.9856 96.4275 50.7588C96.4745 50.5419 96.4996 50.3169 96.4996 50.0859V33.1992H49.1026V50.0859C49.1026 51.8333 50.5193 53.2499 52.2666 53.25H79.9644C79.4668 53.717 79.0016 54.2181 78.573 54.75H52.2666C49.7311 54.7499 47.6679 52.7265 47.604 50.2063L47.6026 50.0859V24.7227C47.6026 22.1468 49.6908 20.0587 52.2666 20.0586H93.3355L93.4559 20.0601ZM52.2666 21.5586C50.5193 21.5587 49.1026 22.9753 49.1026 24.7227V26.1033H96.4996V24.7227C96.4995 22.9752 95.0829 21.5586 93.3355 21.5586H52.2666Z" fill="#11604D"/>
<path d="M42.9805 28.9646C43.0195 28.9583 43.0606 28.9653 43.0948 28.9861C43.129 29.0069 43.1536 29.0401 43.1636 29.0781C43.1735 29.1162 43.1681 29.1568 43.1485 29.1917C43.1288 29.2266 43.0965 29.2525 43.0594 29.2661C42.8878 29.3289 42.7247 29.3935 42.5613 29.4622C41.0853 30.076 39.8009 31.0113 38.8916 32.2478C37.9814 33.4798 37.4078 34.9802 37.2378 36.5554C37.2203 36.7269 37.2091 36.9085 37.2059 37.0803C37.2052 37.1198 37.1915 37.1589 37.1651 37.189C37.1387 37.219 37.102 37.2377 37.0628 37.241C37.0236 37.2441 36.9841 37.2317 36.9532 37.2063C36.9223 37.1809 36.9023 37.1445 36.8953 37.1057C36.8631 36.9257 36.841 36.7336 36.8274 36.5508C36.7157 34.8755 37.1982 33.1376 38.2239 31.7527C39.2433 30.3584 40.8139 29.4309 42.4363 29.071C42.6164 29.0298 42.7949 28.9953 42.9805 28.9646Z" fill="#11604D"/>
<path d="M37.0249 29.0139C37.0631 29.0091 37.1031 29.0153 37.137 29.0347C37.1709 29.0541 37.1962 29.085 37.2073 29.1213C37.2183 29.1577 37.2147 29.1974 37.1973 29.2324C37.1799 29.2675 37.1499 29.2947 37.1155 29.312C37.0319 29.3555 36.9515 29.405 36.8748 29.4587C36.1927 29.9559 35.7462 30.7088 35.3553 31.468C34.9783 32.2363 34.6427 33.0517 34.5367 33.907C34.5267 34.003 34.5211 34.0986 34.521 34.1929C34.5216 34.2314 34.511 34.2706 34.4878 34.3022C34.4647 34.3337 34.4313 34.3553 34.3941 34.3623C34.3568 34.3692 34.3176 34.361 34.2847 34.3398C34.2518 34.3187 34.2277 34.2861 34.2144 34.25C34.1777 34.1474 34.149 34.04 34.127 33.9309C33.9468 32.9502 34.1859 31.9616 34.6123 31.0952C35.048 30.2416 35.7252 29.4152 36.6985 29.0881C36.8055 29.0545 36.9153 29.0291 37.0249 29.0139Z" fill="#11604D"/>
<path d="M74.503 36.4282C77.1068 36.0487 78.8252 37.6365 79.2047 40.2404C79.541 42.5482 81.7142 51.7968 80.8912 52.4499C77.5057 55.1366 75.3346 59.2872 75.3346 63.945C75.3346 65.9278 75.7281 67.8187 76.4412 69.5438C76.6433 70.0327 43.3902 74.6258 39.113 75.2492C36.5092 75.6287 34.6001 74.422 34.2205 71.8182L30.5991 47.1659C30.2196 44.562 31.6167 42.5895 34.2206 42.21L74.503 36.4282Z" fill="#FAB341"/>
<path d="M74.4198 35.8389C76.9767 35.5322 79.3259 37.3196 79.6996 39.8826L81.4679 52.0152C80.9941 52.3547 80.5413 52.7216 80.1119 53.1138L78.2152 40.0992C77.9551 38.3151 76.2981 37.0796 74.514 37.3396L34.2787 43.2037C32.4947 43.4637 31.2592 45.1208 31.5192 46.9048L35.1154 71.5787C35.3754 73.3627 37.0322 74.5981 38.8163 74.3382L76.1896 68.8909C76.3646 69.3796 76.5646 69.8565 76.7884 70.3196L39.0326 75.8226C36.4288 76.202 34.0105 74.3988 33.631 71.795L30.0348 47.1211C29.6554 44.5174 31.4586 42.0991 34.0624 41.7195L74.2977 35.8553L74.4198 35.8389Z" fill="#B66A1F"/>
<path d="M60.2902 65.6415C60.3725 65.6308 60.4565 65.6536 60.5231 65.704C60.5896 65.7545 60.6337 65.8286 60.6457 65.9106C60.6576 65.9926 60.6365 66.0763 60.5871 66.1437C60.5376 66.211 60.4636 66.2567 60.3817 66.2699C60.0322 66.3262 59.6825 66.3826 59.3329 66.4389L40.4516 69.4799C40.1021 69.5362 39.7525 69.5926 39.403 69.6489C39.2367 69.6756 39.0671 69.6346 38.932 69.5339C38.7972 69.4332 38.7074 69.2808 38.6828 69.1117C38.6581 68.9426 38.7005 68.7707 38.8012 68.6357C38.9019 68.5006 39.0526 68.4131 39.2196 68.3913C39.5707 68.3455 39.9218 68.2999 40.2729 68.2541L59.2367 65.779C59.5878 65.7332 59.9391 65.6874 60.2902 65.6415Z" fill="#B66A1F"/>
<path d="M42.8861 64.0546C43.0279 64.0369 43.1725 64.0769 43.2873 64.1642C43.402 64.2517 43.4778 64.3794 43.4984 64.5207C43.519 64.6619 43.4826 64.8058 43.3976 64.9223C43.3125 65.0387 43.1855 65.1188 43.0446 65.1423C42.9748 65.1539 42.9049 65.1653 42.8351 65.1769C41.576 65.3864 40.3166 65.5961 39.0575 65.8056C38.9876 65.8172 38.9174 65.8289 38.8476 65.8405C38.6815 65.8681 38.5124 65.8281 38.3774 65.7275C38.2424 65.6268 38.1522 65.4734 38.1274 65.3034C38.1026 65.1334 38.1452 64.9608 38.2458 64.8259C38.3464 64.6908 38.4973 64.6041 38.6645 64.5832C38.7348 64.5744 38.8053 64.5656 38.8756 64.5568C40.1421 64.3982 41.4088 64.2396 42.6752 64.081C42.7454 64.0722 42.8159 64.0634 42.8861 64.0546Z" fill="#B66A1F"/>
<path d="M76.0043 59.5466C75.9525 59.7116 75.9037 59.8779 75.8576 60.0453C75.64 60.0803 75.4225 60.1154 75.205 60.1503C66.2337 61.592 57.2622 63.034 48.2909 64.4758C47.7926 64.5558 47.2941 64.6359 46.7958 64.716C46.6295 64.7427 46.46 64.7018 46.3249 64.6012C46.1897 64.5007 46.0997 64.3483 46.0749 64.1794C46.0501 64.0105 46.0926 63.8391 46.193 63.704C46.2935 63.5689 46.4441 63.4812 46.611 63.4589C47.1113 63.3923 47.6119 63.3258 48.1122 63.2592C57.1192 62.0604 66.1265 60.8613 75.1335 59.6625C75.4237 59.6239 75.714 59.5852 76.0043 59.5466Z" fill="#B66A1F"/>
<path d="M46.7028 46.6401C48.4387 46.3871 50.0511 47.5892 50.3041 49.3251L50.932 53.6342C51.1849 55.37 49.983 56.9822 48.2472 57.2353L40.2961 58.3942C38.5602 58.6472 36.948 57.445 36.695 55.7092L36.0668 51.4001C35.8139 49.6642 37.016 48.052 38.7519 47.799L46.7028 46.6401Z" fill="#B66A1F"/>
<path d="M90 76C96.6274 76 102 70.6274 102 64C102 57.3726 96.6274 52 90 52C83.3726 52 78 57.3726 78 64C78 70.6274 83.3726 76 90 76Z" fill="black"/>
<path d="M89.9988 57.333C90.5511 57.333 90.9988 57.7807 90.9988 58.333V62.9998H95.6653C96.2176 62.9998 96.6653 63.4475 96.6653 63.9998C96.6653 64.552 96.2176 64.9998 95.6653 64.9998H90.9988V69.6663C90.9988 70.2185 90.5511 70.6663 89.9988 70.6663C89.4465 70.6663 88.9988 70.2185 88.9988 69.6663V64.9998H84.332C83.7797 64.9998 83.332 64.552 83.332 63.9998C83.332 63.4475 83.7797 62.9998 84.332 62.9998H88.9988V58.333C88.9988 57.7807 89.4465 57.333 89.9988 57.333Z" fill="white"/>
</svg>
