<svg fill="none" viewBox="0 0 24 24" xmlns="http://www.w3.org/2000/svg">
  <path fill="#FFC95C" d="M8.886 3.2c.201-.071.384.135.308.335-.305.79-.508 1.635-.595 2.519-.519 5.286 3.346 9.991 8.632 10.51.884.087 1.752.05 2.587-.094.21-.036.377.183.267.367-1.802 3.019-5.237 4.894-8.969 4.528-5.153-.506-8.92-5.093-8.415-10.246.366-3.731 2.873-6.736 6.185-7.918"/>
  <path fill="#FFEAB8" d="M7.515 4.578c.108.02.201.075.264.156.062.08.091.184.085.293-.007.109-.049.215-.12.288q-.134.14-.257.286c-.118.14-.233.28-.358.408-.463.471-.862.992-1.223 1.535-.482.722-.851 1.519-1.119 2.357-.164.514-.374 1.019-.64 1.536-.062.122-.126.241-.195.365-.027.048-.062.092-.109.122-.046.03-.1.043-.152.036q-.078-.014-.134-.08c-.036-.042-.057-.095-.069-.149-.028-.142-.05-.28-.065-.423-.067-.605-.01-1.214.174-1.787.298-.935.717-1.843 1.269-2.67.415-.624.929-1.178 1.486-1.667.15-.132.32-.244.492-.348q.182-.109.364-.214c.088-.05.2-.065.307-.044"/>
  <path fill="url(#a)" d="M7.977 5.993q.098-.981.367-1.895C5.63 5.362 3.636 7.987 3.323 11.18c-.472 4.81 3.044 9.091 7.854 9.563 3.193.313 6.154-1.133 7.921-3.55-.63.056-1.275.057-1.928-.007-5.63-.552-9.746-5.564-9.193-11.193m1.244.122c-.485 4.942 3.129 9.342 8.07 9.827.828.081 1.64.047 2.42-.088l.124-.012c.62-.014 1.18.656.787 1.315-1.922 3.219-5.586 5.22-9.567 4.83-5.497-.54-9.515-5.432-8.976-10.929.39-3.981 3.065-7.186 6.596-8.446.77-.275 1.344.515 1.102 1.146-.285.74-.475 1.53-.556 2.357"/>
  <path fill="#045EB2" d="M18.429 3.804C18.268 3.16 18.158 3 17.625 3s-.643.16-.804.804c-.095.38-.246 1.602-.354 2.538-.936.108-2.158.26-2.538.354-.643.161-.804.271-.804.804s.16.643.804.804c.379.094 1.598.245 2.533.353.108.973.263 2.25.36 2.54.16.482.27.803.803.803s.643-.16.804-.804c.094-.379.245-1.598.353-2.533.973-.108 2.25-.263 2.54-.36.482-.16.803-.27.803-.803s-.16-.643-.804-.804c-.38-.095-1.602-.246-2.539-.354-.107-.936-.258-2.158-.353-2.538"/>
  <defs>
    <linearGradient id="a" x1="12.302" x2="10.682" y1="4.545" y2="21.057" gradientUnits="userSpaceOnUse">
      <stop offset=".008" stop-color="#B66A1F"/>
      <stop offset="1" stop-color="#B66A1F"/>
    </linearGradient>
  </defs>
</svg>
