<svg fill="none" viewBox="0 0 128 80" xmlns="http://www.w3.org/2000/svg">
  <rect width="127" height="79" x=".5" y=".5" fill="#A1CFF7" fill-opacity=".08" rx="19.5"/>
  <rect width="127" height="79" x=".5" y=".5" stroke="#75B6EB" rx="19.5"/>
  <path fill="#75B6EB" fill-opacity=".2" d="M41.07 5.77c3.176 0 5.75 2.574 5.75 5.75v7.82c0 2.667 2.163 4.83 4.83 4.83h75.85V59.5c0 11.046-8.954 20-20 20h-87c-11.046 0-20-8.954-20-20V16.753c.317-2.31.833-4.172 1.68-5.833C3.158 9 4.433 7.265 5.947 5.77z"/>
  <path fill="#3D3D3D" fill-rule="evenodd" d="M110 29c5.523 0 10 4.477 10 10s-4.477 10-10 10H18c-5.523 0-10-4.477-10-10s4.477-10 10-10zm-28 2c-4.418 0-8 3.582-8 8s3.582 8 8 8h28c4.418 0 8-3.582 8-8s-3.582-8-8-8z" clip-rule="evenodd"/>
  <rect width="44" height="16" x="74" y="31" fill="#282828" rx="8"/>
  <path fill="#75B6EB" d="M90.4 32.455c3.535 0 6.4 2.93 6.4 6.545s-2.865 6.545-6.4 6.545h-8c-3.535 0-6.4-2.93-6.4-6.545s2.865-6.545 6.4-6.545zm-4.6 1.636c-2.32 0-4.2 1.923-4.2 4.295 0 2.373 1.88 4.296 4.2 4.296 1.016 0 1.947-.37 2.673-.983l2.044 2.09.063.053c.155.105.366.087.503-.053.136-.14.154-.355.051-.514l-.051-.064-2.044-2.09c.6-.743.961-1.696.961-2.735 0-2.372-1.88-4.295-4.2-4.295m21.4 0c2.651 0 4.8 1.957 4.8 4.372 0 1.832-1.237 3.4-2.991 4.051-1.135.533-3.927 1.074-5.52 1.354-.399.07-.656-.405-.391-.718l.777-.915c.168-.197.131-.499-.06-.672-.874-.792-1.415-1.889-1.415-3.1 0-2.415 2.149-4.372 4.8-4.372m0 .818c-2.299 0-4 1.678-4 3.554 0 .952.423 1.833 1.145 2.487.48.435.623 1.245.134 1.821l-.084.1c.587-.111 1.231-.242 1.852-.384 1.044-.238 1.948-.491 2.428-.717l.03-.013.031-.012c1.494-.554 2.464-1.852 2.464-3.282 0-1.876-1.701-3.554-4-3.554m-21.4 0c1.878 0 3.4 1.557 3.4 3.477s-1.522 3.478-3.4 3.478-3.4-1.557-3.4-3.478c0-1.92 1.522-3.477 3.4-3.477m21.172 1.19c.059-.243.397-.244.456 0l.131.538c.176.718.725 1.279 1.427 1.459l.527.134c.237.06.237.405 0 .466l-.527.136c-.702.179-1.251.74-1.427 1.458l-.131.538c-.059.243-.397.243-.456 0l-.132-.538c-.176-.718-.724-1.279-1.426-1.459l-.526-.135c-.238-.06-.238-.405 0-.466l.526-.134c.702-.18 1.25-.741 1.426-1.46z"/>
</svg>
