<svg fill="none" viewBox="0 0 12 12" xmlns="http://www.w3.org/2000/svg">
  <path fill="#000" d="M11.194 7.78a.335.335 0 0 1 .474 0l.233.233a.334.334 0 0 1 0 .473L10.547 9.84l1.354 1.354a.335.335 0 0 1 0 .474l-.233.233a.335.335 0 0 1-.474 0L9.84 10.547 8.486 11.9a.335.335 0 0 1-.473 0l-.234-.233a.336.336 0 0 1 0-.474L9.133 9.84 7.779 8.486a.335.335 0 0 1 0-.473l.234-.234c.13-.13.342-.13.473 0L9.84 9.133l1.354-1.354Z"/>
  <path fill="#000" fill-rule="evenodd" d="M9 1a3 3 0 0 1 3 3v1.5a.5.5 0 0 1-1 0V4.197L7.695 6.462a3 3 0 0 1-3.39 0L1 4.197V8a2 2 0 0 0 2 2h2.5a.5.5 0 0 1 0 1H3a3 3 0 0 1-3-3V4a3 3 0 0 1 3-3zM3 2a2 2 0 0 0-1.797 1.126l3.667 2.51a2 2 0 0 0 2.26 0l3.666-2.51A2 2 0 0 0 9 2z" clip-rule="evenodd"/>
</svg>
