<svg fill="none" viewBox="0 0 12 12" xmlns="http://www.w3.org/2000/svg">
  <path fill="#000" d="M8.343 4.058a.5.5 0 0 1 .258.966l-1.438.382a.5.5 0 0 0-.372.484v.345q0 .098.036.188l.945 2.34a.501.501 0 0 1-.927.376l-.54-1.34a.329.329 0 0 0-.61 0l-.54 1.34a.501.501 0 0 1-.927-.375l.945-2.34a.5.5 0 0 0 .036-.187V5.89a.5.5 0 0 0-.371-.484l-1.439-.382a.501.501 0 0 1 .258-.966l2.18.582.035.008a.5.5 0 0 0 .256 0l.034-.008 2.18-.582ZM6 2a1 1 0 1 1 0 2 1 1 0 0 1 0-2"/>
  <path fill="#000" fill-rule="evenodd" d="M6 0a6 6 0 1 1 0 12A6 6 0 0 1 6 0m0 1a5 5 0 1 0 0 10A5 5 0 0 0 6 1" clip-rule="evenodd"/>
</svg>
