<svg width="12" height="16" viewBox="0 0 12 16" fill="none" xmlns="http://www.w3.org/2000/svg">
<path d="M8.79535 0C9.94758 0.000271057 10.6703 1.2484 10.0943 2.24902L8.07903 5.75H10.4983C11.8361 5.75016 12.5035 7.37107 11.5542 8.31445L4.25933 15.5645C3.97851 15.8435 3.59818 16 3.20242 16H3.15167C1.99393 15.9997 1.2736 14.742 1.85859 13.7422L3.90995 10.2354H1.50239C0.163842 10.2354 -0.504064 8.613 0.446454 7.66992L7.73941 0.43457C8.02023 0.156028 8.4002 0 8.79535 0ZM8.79535 1.25C8.72933 1.25 8.66541 1.27593 8.61871 1.32227L1.32672 8.55762C1.1683 8.7148 1.2793 8.98535 1.50239 8.98535H5.00004C5.22369 8.98551 5.43042 9.10563 5.54167 9.2998C5.6529 9.49408 5.6518 9.73353 5.53874 9.92676L2.93599 14.374C2.83904 14.5405 2.95909 14.7497 3.15167 14.75H3.20242C3.26838 14.75 3.33226 14.7242 3.37906 14.6777L10.674 7.42773C10.8321 7.27054 10.7212 7.00016 10.4983 7H6.9987C6.77566 7 6.56868 6.88073 6.45707 6.6875C6.34575 6.49445 6.34601 6.25668 6.45707 6.06348L9.012 1.625C9.10746 1.45918 8.98819 1.25027 8.79535 1.25Z" fill="black" fill-opacity="0.84"/>
</svg>
