<svg fill="none" viewBox="0 0 24 24" xmlns="http://www.w3.org/2000/svg">
  <path fill="#783B13" d="M13.667 2C14.955 2 16 3.045 16 4.333V8c0 .698-.24 1.338-.64 1.848-1.02.173-1.962.575-2.771 1.152H11c-1.657 0-3-1.343-3-3V4.333c0-1.268 1.013-2.3 2.273-2.332l.06-.001zm-3.334 1.25c-.598 0-1.083.485-1.083 1.083V8c0 .966.784 1.75 1.75 1.75h2c.966 0 1.75-.784 1.75-1.75V4.333c0-.598-.485-1.083-1.083-1.083z"/>
  <path fill="#FFC95C" d="M18 6.25c1.519 0 2.75 1.231 2.75 2.75v2.256c-1.16-.942-2.64-1.506-4.25-1.506-3.728 0-6.75 3.022-6.75 6.75 0 1.178.302 2.286.833 3.25H6c-1.519 0-2.75-1.231-2.75-2.75V9c0-1.519 1.231-2.75 2.75-2.75z"/>
  <path fill="#783B13" d="M6.624 7.587c.06 0 .119.024.163.066.043.043.07.1.072.16l.02.525.35 9.45.02.524c.007.166-.053.326-.17.443s-.283.183-.455.183c-.171 0-.336-.066-.453-.183s-.178-.277-.172-.442l.02-.525.352-9.45.02-.525c.001-.06.029-.117.072-.16.044-.042.102-.066.161-.066m10.75 0c.06 0 .119.024.163.066.043.043.07.1.072.16l.02.525.055 1.517q-.305-.053-.617-.08l.054-1.437.02-.525c.001-.06.029-.117.072-.16.044-.042.102-.066.162-.066"/>
  <path fill="#B66A1F" d="M18 5c2.21 0 4 1.79 4 4v3.588c-.355-.498-.776-.947-1.25-1.332V9c0-1.519-1.231-2.75-2.75-2.75H6C4.481 6.25 3.25 7.481 3.25 9v8c0 1.519 1.231 2.75 2.75 2.75h4.583c.248.45.547.87.888 1.25H6l-.104-.001C3.736 20.944 2 19.174 2 17V9c0-2.21 1.79-4 4-4z"/>
  <path fill="#FFEAB8" d="M9.336 6.25q1.511 0 3.023.257.352.06.703.134c.056.012.11.038.15.08s.061.098.061.154-.022.11-.061.153c-.04.043-.094.07-.15.081q-.352.074-.703.134-1.512.257-3.023.257H5.954c-.366-.001-.725.136-.997.38-.31.274-.502.669-.52 1.087q-.04.982-.084 1.963c-.014.335-.05.668-.088 1.002q-.042.351-.078.702c-.01.108-.066.21-.15.284-.083.075-.188.115-.296.113s-.21-.048-.291-.126c-.08-.077-.132-.182-.138-.29q-.02-.352-.047-.704c-.023-.336-.045-.67-.044-1.005q-.001-.983.001-1.965c.001-.748.339-1.497.903-1.994.496-.446 1.163-.7 1.83-.697z"/>
  <path fill="#000" d="M22 16.5c0 3.038-2.462 5.5-5.5 5.5S11 19.538 11 16.5s2.462-5.5 5.5-5.5 5.5 2.462 5.5 5.5"/>
  <path fill="#000" d="M22 16.5c0 3.038-2.462 5.5-5.5 5.5S11 19.538 11 16.5s2.462-5.5 5.5-5.5 5.5 2.462 5.5 5.5"/>
  <path fill="#fff" d="M13.403 17.107c-.195-.195-.195-.512 0-.708s.512-.195.707 0l1.893 1.894-.001-1.89L16 13.5c0-.276.224-.5.5-.5s.5.224.5.5l.002 2.901v1.892l1.894-1.894c.196-.195.512-.195.707 0 .196.196.196.513 0 .708l-2.746 2.747c-.093.093-.22.146-.353.146s-.26-.053-.355-.146z"/>
</svg>
