<svg fill="none" viewBox="0 0 96 96" xmlns="http://www.w3.org/2000/svg">
  <path fill="#aaa" d="M51.916 65A20 20 0 0 0 51 71v6.091L36 79V65zM19 18.667A2.667 2.667 0 0 1 21.667 16h55.666A2.667 2.667 0 0 1 80 18.667v29.666A2.667 2.667 0 0 1 77.333 51H21.667A2.667 2.667 0 0 1 19 48.333z"/>
  <path fill="#ccc" d="M51 80v-4H27a2 2 0 1 0 0 4z"/>
  <path fill="#ddd" d="M75.137 16H17.863c-1.03 0-1.863.913-1.863 2.04v46.92c0 1.127.834 2.04 1.863 2.04H51.4c1.853-9.129 9.924-16 19.6-16h6V18.04c0-1.127-.834-2.04-1.863-2.04"/>
  <path fill="#ffd65c" d="M72.636 20H20.364C19.61 20 19 20.56 19 21.25v32.5c0 .69.61 1.25 1.364 1.25h38.634A19.9 19.9 0 0 1 71 51h3V21.25c0-.69-.61-1.25-1.364-1.25"/>
  <path fill="#f9be1a" fill-rule="evenodd" d="M60 33.192a9.192 9.192 0 0 1-11.965 8.765L46.5 43.492h-3.21v2.136c0 .56-.453 1.014-1.013 1.014h-2.195v3.344c0 .56-.454 1.014-1.014 1.014H33v-6.537l8.92-8.92A9.192 9.192 0 1 1 60 33.192m-5.884.218a2.852 2.852 0 1 0 0-5.703 2.852 2.852 0 0 0 0 5.703" clip-rule="evenodd"/>
  <path fill="#4cba3c" d="M71 87c8.837 0 16-7.163 16-16s-7.163-16-16-16-16 7.163-16 16 7.163 16 16 16"/>
  <path fill="#fff" d="M73.495 65.46c-2.852-1.473-6.348-.403-7.979 2.512l-.006.006a6.6 6.6 0 0 0-.834 3.043c-.012.55-.35 1.025-.859 1.166l-2.03.557c-.355.096-.705-.167-.742-.551a10.6 10.6 0 0 1 1.3-6.162c2.668-4.76 8.427-6.438 13.033-3.876a.424.424 0 0 0 .582-.166l.791-1.416a.426.426 0 0 1 .792.115l1.373 5.522a.45.45 0 0 1-.306.55l-5.268 1.442c-.374.103-.681-.32-.485-.666l.81-1.441c.122-.224.049-.52-.172-.634M68.024 76.62c2.962 1.472 6.592.403 8.286-2.512l.007-.006c.56-.961.834-2.005.866-3.043.012-.55.363-1.025.891-1.166l2.108-.557a.622.622 0 0 1 .77.55 10.26 10.26 0 0 1-1.35 6.163c-2.77 4.76-8.75 6.438-13.533 3.875a.45.45 0 0 0-.605.167l-.821 1.416a.448.448 0 0 1-.822-.116l-1.426-5.521a.45.45 0 0 1 .318-.551l5.47-1.442a.452.452 0 0 1 .504.667l-.84 1.44a.46.46 0 0 0 .177.635"/>
  <path fill="#ccc" d="M92.502 59c.297 0 .594.12.822.354.454.468.454 1.23 0 1.698l-2.333 2.4a1.145 1.145 0 0 1-1.65 0 1.227 1.227 0 0 1 0-1.698l2.333-2.4c.227-.234.524-.354.822-.354zm-1.167 10.798h3.499c.641 0 1.166.54 1.166 1.2s-.525 1.2-1.166 1.2h-3.499c-.641 0-1.166-.54-1.166-1.2s.525-1.2 1.166-1.2m-1.982 8.754c.227-.234.525-.354.822-.354h.006c.297 0 .595.12.822.354l2.332 2.4c.455.467.455 1.23 0 1.697a1.145 1.145 0 0 1-1.65 0l-2.332-2.4a1.227 1.227 0 0 1 0-1.697"/>
</svg>
