<svg width="24" height="24" viewBox="0 0 24 24" fill="none" xmlns="http://www.w3.org/2000/svg">
<path d="M12 2.625C6.82233 2.625 2.625 6.82233 2.625 12C2.625 12.2048 2.87318 12.3045 3.03126 12.1743C4.11058 11.2851 5.49234 10.75 7 10.75C10.4518 10.75 13.25 13.5482 13.25 17C13.25 18.5077 12.7149 19.8894 11.8257 20.9687C11.6955 21.1268 11.7952 21.375 12 21.375C17.1777 21.375 21.375 17.1777 21.375 12C21.375 6.82233 17.1777 2.625 12 2.625Z" fill="#EEEEEE"/>
<path d="M12 2C6.47715 2 2 6.47715 2 12C2 12.4414 2.55684 12.6269 2.87718 12.3232C3.00942 12.1978 3.13947 12.0827 3.25098 11.999C3.2515 7.16698 7.16784 3.25 12 3.25C16.8325 3.25 20.75 7.16751 20.75 12C20.75 16.8325 16.8325 20.75 12 20.75C11.9006 20.8824 11.7959 21.0105 11.6863 21.1343C11.4036 21.4536 11.5735 22 12 22C17.5228 22 22 17.5228 22 12C22 6.47715 17.5228 2 12 2Z" fill="#888888"/>
<path d="M11.5359 4.80288C11.4468 4.78637 11.3519 4.80001 11.2723 4.84585C11.1928 4.89187 11.1341 4.96613 11.1092 5.05288C11.0845 5.13978 11.0943 5.23446 11.1375 5.31558C11.1809 5.39652 11.2543 5.45823 11.3387 5.49136C11.554 5.57806 11.7611 5.68352 11.9598 5.80581C13.7331 6.95165 14.7565 9.01935 15.3651 11.0675C15.3742 11.0997 15.3835 11.132 15.3924 11.1642C14.3124 11.6142 13.1841 11.9869 12.0594 12.3312C11.8291 12.399 11.5975 12.4643 11.366 12.5294C11.7379 12.8927 12.0653 13.3012 12.3377 13.7472C12.3824 13.7343 12.4279 13.7232 12.4725 13.7101C13.5639 13.3746 14.649 12.9821 15.6893 12.4835C15.9771 14.1366 15.9528 15.8469 15.4666 17.4572C15.3963 17.6868 15.3161 17.9152 15.2254 18.1388C15.1836 18.2409 15.1781 18.3567 15.2147 18.4621C15.2513 18.5673 15.3264 18.6549 15.4246 18.7042C15.5228 18.7533 15.6378 18.7621 15.744 18.7287C15.8502 18.6949 15.9391 18.62 15.9959 18.5255C16.1337 18.2937 16.2604 18.0541 16.3738 17.8087C17.2364 15.928 17.3812 13.7907 17.0067 11.7736C17.5324 11.4556 18.0427 11.103 18.5281 10.7042C18.7282 10.5349 18.9201 10.3572 19.0984 10.1701C19.1805 10.083 19.2305 9.96761 19.2342 9.84683C19.2376 9.72585 19.1939 9.60767 19.1131 9.51968C19.0321 9.43185 18.9185 9.37881 18.7977 9.37222C18.6767 9.36575 18.5574 9.40672 18.4637 9.48159C18.2894 9.61933 18.1036 9.75256 17.909 9.88003C17.5241 10.1241 17.1238 10.3479 16.7137 10.5568C16.0233 8.30027 14.6548 6.03711 12.3387 5.04116C12.0781 4.93657 11.8088 4.85597 11.5359 4.80288Z" fill="#888888"/>
<path d="M8.34943 5.77065C8.25776 5.77889 8.17272 5.8229 8.10919 5.88784C7.91647 6.08835 7.74265 6.30849 7.58966 6.54409C6.79438 7.83645 6.5474 9.30618 6.63458 10.7609C6.75538 10.7539 6.87727 10.7501 6.99982 10.7501C7.33818 10.7502 7.67018 10.7775 7.99396 10.8292C7.79922 9.50459 7.84899 8.16663 8.33966 6.9523C8.43181 6.73781 8.53957 6.53198 8.66583 6.33706C8.71582 6.26139 8.74143 6.16848 8.73028 6.0773C8.71891 5.98641 8.67225 5.90358 8.60236 5.84683C8.53204 5.79014 8.44094 5.76257 8.34943 5.77065Z" fill="#888888"/>
<circle cx="5" cy="5" r="5" transform="matrix(-1 0 0 1 12 12)" fill="#888888"/>
<path fill-rule="evenodd" clip-rule="evenodd" d="M7 13.5C5.96447 13.5 5.125 14.3395 5.125 15.375V16.3975H5.01953C4.5379 16.3975 4.14748 16.7879 4.14746 17.2695V18.9805C4.14748 19.4621 4.5379 19.8525 5.01953 19.8525H8.98047C9.4621 19.8525 9.85252 19.4621 9.85254 18.9805V17.2695C9.85252 16.7879 9.4621 16.3975 8.98047 16.3975H8.875V15.375C8.875 14.3395 8.03553 13.5 7 13.5ZM7 14.5C7.48325 14.5 7.875 14.8918 7.875 15.375V16.3975H6.125V15.375C6.125 14.8918 6.51675 14.5 7 14.5Z" fill="white"/>
</svg>
