<svg width="128" height="96" viewBox="0 0 128 96" fill="none" xmlns="http://www.w3.org/2000/svg">
<path d="M61.5955 21.2704C78.8074 20.3621 93.8091 31.6493 95.103 46.4811C95.3285 49.0657 95.1223 51.5873 94.5379 53.9943C93.1088 53.5297 91.5833 53.2787 89.9993 53.2787C81.8991 53.2787 75.3326 59.8451 75.3325 67.9452C75.3325 69.7271 75.6503 71.4348 76.2322 73.0146C73.1525 74.1115 69.8071 74.7955 66.2808 74.9816C61.93 75.2112 57.7205 74.6614 53.8379 73.4721C52.6165 73.0979 52.0378 71.7556 52.2942 70.5041C52.4882 69.5572 52.5901 68.5774 52.5901 67.5744C52.59 59.4139 45.8541 52.7983 37.5449 52.7983C36.9272 52.7983 36.3182 52.8349 35.72 52.9059C34.418 53.0605 33.0987 52.3184 32.9155 51.0202C32.8572 50.6068 32.8095 50.1902 32.773 49.7709C31.4792 34.939 44.3835 22.1789 61.5955 21.2704Z" fill="#FFC95C"/>
<path d="M55.1884 53.2866C56.3664 52.4234 58.0929 52.5532 59.2011 53.209C60.3535 53.8427 61.1934 54.7665 61.9005 55.7302C62.3388 56.3328 62.7006 56.9869 62.9491 57.6907C63.0931 58.1016 63.1963 58.531 63.2314 58.9695C63.2365 59.0405 63.2176 59.1125 63.1747 59.1704C63.1318 59.2283 63.0689 59.2675 62.9989 59.2791C62.929 59.2906 62.8568 59.2739 62.7975 59.2329C62.7383 59.1919 62.6971 59.1296 62.6791 59.0608C62.5801 58.6919 62.4275 58.3374 62.244 57.9995C61.9286 57.4215 61.5247 56.887 61.0758 56.4075C59.6286 54.806 57.4963 53.4254 56.0251 54.5222C54.3807 55.5706 54.7311 58.2035 56.0614 59.9341C56.9588 61.3096 59.197 62.1028 60.289 60.8516C60.4923 60.5988 60.6094 60.2695 60.6335 59.908C60.6384 59.8286 60.6717 59.7522 60.7292 59.696C60.7866 59.6399 60.8632 59.6082 60.9425 59.6082C61.0219 59.6082 61.0985 59.6399 61.1559 59.696C61.2133 59.7522 61.2464 59.8286 61.2514 59.908C61.2783 60.3676 61.1804 60.863 60.9157 61.2839C59.3814 63.3724 56.3433 62.4039 55.0565 60.7102C53.4306 58.8993 52.4708 55.1573 55.1884 53.2866Z" fill="#F5A031"/>
<path d="M88.9127 34.6389C89.0762 34.8563 89.2365 35.0754 89.3925 35.2971C89.3401 35.3474 89.2755 35.3836 89.2043 35.3997C88.9919 35.4489 88.7704 35.5666 88.5731 35.7195C87.1655 36.8823 86.9356 39.0826 87.2333 40.9707C87.5079 43.5255 89.522 46.1926 91.789 45.6375C92.1882 45.5353 92.5537 45.3489 92.852 45.0916C93.0257 44.942 93.1771 44.7689 93.3029 44.5771C93.3113 44.5645 93.3206 44.5526 93.3297 44.5405C93.4396 45.1384 93.5253 45.7429 93.5858 46.3533C93.1366 46.668 92.6253 46.8832 92.1037 46.9946C88.4062 47.5862 86.3814 43.8566 86.1676 41.1123C85.9417 39.0281 86.174 36.5335 88.0744 35.0432C88.3193 34.8696 88.5977 34.7206 88.9127 34.6389Z" fill="#F5A031"/>
<path d="M42.7663 31.6116C44.6309 30.5398 47.963 29.8803 49.5587 32.4722C50.3852 33.7952 49.9676 35.5251 49.255 36.5864C48.5213 37.7119 47.6795 38.5579 46.5158 39.3293L46.3581 39.4136C44.7104 40.2731 42.8097 40.6841 40.9106 40.0396C40.4383 39.8613 39.9834 39.5823 39.6198 39.208C39.5197 39.1043 39.4644 38.9628 39.4648 38.8167C39.4652 38.6704 39.5213 38.5311 39.622 38.428C39.7227 38.3249 39.8606 38.2656 40.0067 38.2617C40.1529 38.258 40.2957 38.31 40.4018 38.4077C40.654 38.6375 40.9624 38.8005 41.3031 38.9011C42.7143 39.2901 44.4346 38.7869 45.7699 38.0374C47.3923 36.9427 49.2365 34.7274 48.2653 33.2217C47.4646 31.7761 45.1527 31.9612 43.477 32.9302C42.2946 33.5628 41.2982 34.5677 40.9377 35.7512C40.8348 36.0888 40.7874 36.435 40.8041 36.7698C40.8139 36.9684 40.7445 37.1629 40.611 37.3103C40.4774 37.4577 40.2906 37.5459 40.0919 37.5557C39.8933 37.5654 39.6988 37.4958 39.5514 37.3623C39.4041 37.2288 39.3156 37.0423 39.3058 36.8438C39.2799 36.3185 39.3553 35.7994 39.5033 35.3142C40.0315 33.6183 41.3373 32.3823 42.7663 31.6116Z" fill="#F5A031"/>
<path d="M65.7619 22.7891C66.4254 22.831 67.0833 22.8913 67.7348 22.97C67.7189 22.9833 67.7028 22.9965 67.6857 23.0085C67.4931 23.1438 67.3113 23.299 67.1454 23.4695C66.9085 23.7129 66.7033 23.9877 66.5436 24.2803C66.5433 24.2809 66.5422 24.2828 66.5419 24.2834C66.2917 24.7376 66.1067 25.2283 66.0255 25.7107C65.8611 26.647 66.1442 27.4633 66.8788 27.9844C66.8925 27.9945 66.9054 28.0054 66.9181 28.0159C67.8264 28.6726 69.2597 28.3187 70.2209 27.4597C70.4659 27.2451 70.6871 27.0043 70.8705 26.7463C71.297 26.1194 71.5841 25.1172 71.6562 24.228C71.6698 24.0404 71.6723 23.8542 71.6588 23.6777C72.0388 23.7695 72.416 23.867 72.7899 23.9712C72.8012 24.0485 72.8105 24.1257 72.818 24.2026C72.8976 25.3556 72.7644 26.4516 72.1078 27.5742C71.8597 27.9604 71.5579 28.3033 71.2194 28.6001C69.9295 29.761 67.6839 30.4499 65.9872 29.1838C65.9765 29.1759 65.9668 29.1668 65.9567 29.1587C64.8199 28.3707 64.2938 26.7331 64.5688 25.4663C64.685 24.7828 64.927 24.1534 65.2421 23.5718L65.3278 23.4197C65.4574 23.1981 65.6027 22.9876 65.7619 22.7891Z" fill="#F5A031"/>
<path d="M61.5955 21.2709C78.8075 20.3625 93.8095 31.6497 95.1033 46.4816C95.3287 49.0662 95.1223 51.5876 94.5379 53.9946C94.0629 53.8401 93.5772 53.7096 93.0823 53.6037C93.6269 51.3545 93.8178 49.0068 93.6089 46.612C92.4018 32.7735 78.2821 21.8922 61.6746 22.7687C45.0853 23.6443 33.0655 35.8628 34.2674 49.641C34.3016 50.0337 34.3461 50.4238 34.4007 50.811C34.4234 50.9722 34.5104 51.1197 34.7044 51.2433C34.9137 51.3767 35.2189 51.4552 35.5432 51.4167C36.2 51.3387 36.8681 51.2988 37.5449 51.2988C46.657 51.2988 54.0901 58.5604 54.0901 67.5749C54.0901 68.6796 53.9778 69.7601 53.7637 70.8054C53.6992 71.1201 53.7461 71.4282 53.8577 71.655C53.963 71.8688 54.1091 71.9867 54.2774 72.0383C57.9937 73.1766 62.0278 73.7043 66.2017 73.4841C69.6159 73.3039 72.8364 72.6427 75.7881 71.5868C75.9123 72.073 76.0608 72.5495 76.2322 73.0148C73.1525 74.1118 69.8071 74.796 66.2808 74.9821L65.8733 75.0014C61.6673 75.1768 57.5992 74.6244 53.8379 73.4723C52.6165 73.0981 52.0378 71.7558 52.2942 70.5043C52.4761 69.6166 52.577 68.7002 52.5889 67.7626L52.5901 67.5749C52.5901 59.4781 45.9591 52.9023 37.7395 52.8L37.5449 52.7988C36.9273 52.7988 36.3182 52.8351 35.72 52.9062C34.4587 53.0559 33.1809 52.3643 32.9358 51.1406L32.9156 51.0204C32.8718 50.7104 32.8341 50.3985 32.8025 50.0851L32.773 49.7714C31.4893 35.0554 44.1828 22.3789 61.1929 21.2944L61.5955 21.2709Z" fill="#B66A1F"/>
<path d="M68.6386 46.0441C71.5139 45.2682 73.1193 49.2301 73.2704 50.6474C73.397 51.8277 72.9028 52.4445 72.1391 52.8815C71.1466 53.4492 69.7538 53.5636 68.5448 53.5432C67.8067 53.5307 67.2926 53.1281 66.9491 52.6298C67.8942 52.4224 68.8467 52.2491 69.8097 52.1232C69.9257 52.1077 70.0418 52.0926 70.1579 52.0781C70.2184 52.0705 70.2748 52.038 70.3146 51.9897C70.3544 51.9413 70.3745 51.8808 70.3703 51.82C70.366 51.7593 70.3378 51.7023 70.2917 51.6599C70.2455 51.6176 70.1851 51.5933 70.1242 51.5942C70.0058 51.5961 69.8871 51.5983 69.7685 51.6013C68.6943 51.6244 67.6193 51.7064 66.5487 51.8293C66.5257 51.7637 66.5048 51.699 66.4862 51.6357V51.6315C66.0207 50.0345 65.9839 46.763 68.6386 46.0441Z" fill="#47210A"/>
<path d="M57.4738 41.1457C58.5965 41.0971 59.8986 41.4961 60.5893 42.4902C60.6651 42.5981 60.7298 42.7079 60.7882 42.8239C60.816 42.8822 60.8285 42.9488 60.8168 43.0134C60.8052 43.078 60.771 43.135 60.7201 43.173C60.6693 43.211 60.605 43.2278 60.5397 43.2207C60.4744 43.2135 60.4141 43.1827 60.3661 43.1396C60.2846 43.0687 60.2028 43.0063 60.1171 42.947C59.3484 42.4247 58.4402 42.3296 57.515 42.3549C56.599 42.3973 55.6008 42.537 54.7963 42.9382C54.7135 42.9825 54.6317 43.0368 54.5685 43.09C54.5222 43.1358 54.4629 43.1697 54.3974 43.1799C54.332 43.1901 54.2663 43.1763 54.2133 43.1403C54.1604 43.1044 54.1233 43.0486 54.1086 42.9841C54.0938 42.9195 54.1032 42.8519 54.1286 42.7919C54.1908 42.6598 54.2787 42.5393 54.3649 42.4382C55.2062 41.5503 56.3355 41.2043 57.4738 41.1457Z" fill="#47210A"/>
<path d="M73.8988 36.8532C74.8351 36.3309 76.1006 36.1722 77.0819 36.7473C77.1883 36.8097 77.2882 36.8797 77.3825 36.9567C77.4363 37.0031 77.4792 37.0641 77.497 37.1342C77.5148 37.2043 77.5066 37.2769 77.4733 37.3381C77.44 37.3993 77.3833 37.4454 77.3149 37.4685C77.2463 37.4915 77.1719 37.4888 77.1037 37.4687C77.0109 37.4439 76.9191 37.4255 76.8273 37.4121C76.0036 37.3005 75.2237 37.5706 74.506 37.9575C73.7948 38.3563 73.1235 38.8754 72.6747 39.6035C72.6257 39.685 72.5803 39.7699 72.539 39.8579C72.5124 39.9182 72.47 39.9727 72.413 40.008C72.356 40.0433 72.2896 40.0566 72.2262 40.0444C72.1629 40.0321 72.1063 39.9951 72.0666 39.9411C72.0268 39.8871 72.008 39.8207 72.0058 39.7548C72.0045 39.6353 72.0126 39.5143 72.0287 39.3945C72.184 38.301 72.9535 37.3735 73.8988 36.8532Z" fill="#47210A"/>
<path d="M44.5679 70.3646C44.6595 70.3623 44.7496 70.3959 44.8237 70.4583C44.898 70.5208 44.9492 70.6068 44.9832 70.6969C45.0076 70.7626 45.0311 70.8284 45.0532 70.8941C45.253 71.4866 45.3604 72.0816 45.3755 72.6788C45.3906 73.276 45.3264 73.8754 45.1824 74.4766C45.1664 74.5434 45.1493 74.6103 45.1314 74.6771C45.1029 74.7817 45.0516 74.8826 44.9719 74.9581C44.8923 75.0336 44.7918 75.0775 44.6873 75.0802C44.5828 75.0828 44.4803 75.0441 44.397 74.9727C44.3135 74.9014 44.2574 74.8031 44.2236 74.7C44.2023 74.6342 44.1817 74.5684 44.1624 74.5025C43.9881 73.9094 43.8933 73.3141 43.8782 72.7169C43.8631 72.1197 43.9406 71.5201 44.1101 70.9183C44.129 70.8514 44.1488 70.7843 44.1699 70.7174C44.1992 70.6257 44.2464 70.5374 44.3174 70.4713C44.3883 70.4052 44.4763 70.3669 44.5679 70.3646Z" fill="#F5A031"/>
<path d="M39.2302 66.9027C39.3176 66.912 39.3965 66.9504 39.4524 67.0125C39.5083 67.0747 39.538 67.1573 39.5381 67.2452C39.5382 67.3332 39.5081 67.4189 39.4634 67.4935C39.4218 67.5624 39.3793 67.6306 39.3362 67.6978C38.9478 68.3027 38.4959 68.837 37.9805 69.3006C37.465 69.7643 36.8945 70.1672 36.2693 70.5089C36.1998 70.5468 36.1294 70.584 36.0586 70.6204C35.9702 70.6656 35.8696 70.6915 35.7693 70.6815C35.669 70.6715 35.5779 70.6272 35.5134 70.5555C35.449 70.4838 35.4149 70.3884 35.4155 70.2877C35.4162 70.1869 35.4526 70.0896 35.5068 70.0064C35.5505 69.9399 35.5949 69.8742 35.6399 69.8092C36.0457 69.2235 36.5065 68.6989 37.022 68.2352C37.5375 67.7716 38.1165 67.3784 38.759 67.056C38.8304 67.0202 38.9027 66.9851 38.9756 66.951C39.0545 66.9145 39.1428 66.8933 39.2302 66.9027Z" fill="#F5A031"/>
<path d="M32.6697 60.6978C33.4848 60.5758 34.2959 60.5354 35.1025 60.5767C35.9092 60.6181 36.711 60.7552 37.5078 60.9876C37.5963 61.0134 37.6848 61.0405 37.7732 61.0687C37.8594 61.0964 37.941 61.1444 37.9993 61.2154C38.0576 61.2864 38.088 61.3735 38.0835 61.4613C38.079 61.549 38.0398 61.6323 37.9746 61.6969C37.9094 61.7615 37.8234 61.8011 37.7349 61.8199C37.644 61.8389 37.5529 61.8568 37.4622 61.8734C36.6458 62.023 35.8342 62.0771 35.0276 62.0357C34.2209 61.9943 33.4184 61.8712 32.6201 61.6663C32.5315 61.6436 32.4428 61.6198 32.3543 61.5951C32.2543 61.5669 32.1598 61.5129 32.0923 61.4317C32.0248 61.3507 31.9895 61.2502 31.9946 61.1488C31.9999 61.0473 32.0454 60.951 32.1209 60.8773C32.1963 60.8035 32.2957 60.7594 32.398 60.7415C32.4886 60.726 32.5792 60.7114 32.6697 60.6978Z" fill="#F5A031"/>
<path d="M90 80C96.6274 80 102 74.6274 102 68C102 61.3726 96.6274 56 90 56C83.3726 56 78 61.3726 78 68C78 74.6274 83.3726 80 90 80Z" fill="#39B25E"/>
<path d="M94.5401 63.4192C94.8768 62.9815 95.5047 62.8995 95.9424 63.2361C96.3802 63.5729 96.462 64.2007 96.1253 64.6385L89.959 72.6546C89.314 73.4931 88.0611 73.5264 87.3726 72.7232L83.9068 68.6797C83.5474 68.2604 83.5959 67.629 84.0152 67.2696C84.4345 66.9102 85.0659 66.9587 85.4253 67.378L88.6241 71.1099L94.5401 63.4192Z" fill="#FFFBF0"/>
</svg>
