<svg fill="none" viewBox="0 0 96 96" xmlns="http://www.w3.org/2000/svg">
  <path fill="url(#Shield-Alert-96_svg__a)" d="M75.175 50.88c2.392 0 4.488-1.694 4.676-4.08q.149-1.877.1-3.787l-.254-9.748C79.535 27.01 74.25 22.39 68.358 22.63H64l-1.066.693a3.94 3.94 0 0 1-1.693-.91l-.2-.196-2.374-2.502a11.87 11.87 0 0 0-8.663-3.71L50 16h-3.523c-.124.59-.676 3.354-1.221 8H55.84l1.573 1.658.224.228a8.94 8.94 0 0 0 8.938 2.148l.278-.087 6.359 1.673a5.87 5.87 0 0 1 1.487 3.774l.253 9.749a31.2 31.2 0 0 1-.768 7.737z"/>
  <path fill="url(#Shield-Alert-96_svg__b)" d="M51 74.255V70.88c0-11.012 8.9-19.944 19.9-19.998L73 44.88l-1-16-6-4-8 1-12-7-12 7-11.5.5-3.5 5v20l9.5 17.5 17.5 8.5z"/>
  <path fill="url(#Shield-Alert-96_svg__c)" d="M46.104 76.941a3 3 0 0 0 1.304-.441L51 74.255V70.88c0-11.012 8.9-19.944 19.899-19.998l1.9-5.43c.132-.378.188-.779.163-1.179l-.87-13.91a3 3 0 0 0-1.329-2.308l-3.835-2.557a3 3 0 0 0-2.036-.48l-5.885.736a3 3 0 0 1-1.884-.386l-9.612-5.607a3 3 0 0 0-1.629-.405c-1.222 7.873-3.521 28.651.222 57.585"/>
  <path fill="url(#Shield-Alert-96_svg__d)" d="M39.941 78.42a12.4 12.4 0 0 0 7.441 1.286C49.676 79.387 51 77.147 51 74.83V73l-1.92.995a7.41 7.41 0 0 1-6.828-.01l-4.531-2.36a31.19 31.19 0 0 1-16.768-28.333l.213-9.833c.085-3.924 3.93-6.656 7.662-5.446a8.89 8.89 0 0 0 9.07-2.212l2.708-2.745.262-.252a6.913 6.913 0 0 1 9.672.35l2.373 2.503.224.227a8.94 8.94 0 0 0 8.938 2.149l.432-.136c3.753-1.177 7.59 1.564 7.692 5.496l.253 9.748.01.56a31.2 31.2 0 0 1-.79 7.223q.66-.044 1.328-.045h3.794c.458-2.352.688-4.768.668-7.218l-.01-.65-.255-9.748c-.189-7.252-7.266-12.309-14.187-10.137l-.432.136a3.94 3.94 0 0 1-3.837-.85l-.2-.197-2.374-2.502c-4.561-4.806-12.149-4.956-16.895-.39l-.224.221-2.71 2.745a3.89 3.89 0 0 1-3.968.968c-6.92-2.243-14.045 2.82-14.203 10.093L16 41.065v4.873A36.19 36.19 0 0 0 35.411 76.06z"/>
  <path fill="url(#Shield-Alert-96_svg__e)" d="M69.673 50.926q.658-.045 1.327-.046h3.794a36 36 0 0 0 .668-7.218l-.01-.65-.255-9.747c-.188-7.253-7.265-12.31-14.187-10.137l-.432.136a3.94 3.94 0 0 1-3.837-.85l-.2-.197-2.374-2.502a11.86 11.86 0 0 0-7.7-3.673c-.104.507-.439 2.2-.826 4.963a6.9 6.9 0 0 1 4.899 2.151l2.373 2.502.224.228a8.94 8.94 0 0 0 8.938 2.148l.432-.136c3.753-1.177 7.59 1.564 7.692 5.497l.253 9.748.01.56a31.2 31.2 0 0 1-.79 7.223m-23.185 28.87a12 12 0 0 0 1.517-.194c1.896-.362 2.995-2.21 2.995-4.14v-2.461l-1.92.994a7.4 7.4 0 0 1-3.242.824q.295 2.449.65 4.977"/>
  <circle cx="71" cy="71" r="16" fill="#eb102d"/>
  <circle cx="71" cy="77.8" r="2" fill="#fff"/>
  <path fill="#fff" d="M70.961 73.4c-.706 0-1.334-.49-1.412-1.12l-.942-8.75c-.079-.7.55-1.33 1.412-1.33h1.962c.785 0 1.492.63 1.413 1.33l-.942 8.75c-.157.63-.784 1.12-1.49 1.12"/>
  <path fill="#ccc" d="M92.502 59c.297 0 .594.12.822.354.454.468.454 1.23 0 1.698l-2.333 2.4a1.145 1.145 0 0 1-1.65 0 1.227 1.227 0 0 1 0-1.698l2.333-2.4c.227-.234.524-.354.822-.354zm-1.167 10.798h3.499c.641 0 1.166.54 1.166 1.2s-.525 1.2-1.166 1.2h-3.499c-.641 0-1.166-.54-1.166-1.2s.525-1.2 1.166-1.2m-1.982 8.754c.227-.234.525-.354.822-.354h.006c.297 0 .595.12.822.354l2.332 2.4c.455.467.455 1.23 0 1.697a1.145 1.145 0 0 1-1.65 0l-2.332-2.4a1.227 1.227 0 0 1 0-1.697"/>
  <defs>
    <linearGradient id="Shield-Alert-96_svg__a" x1="62.61" x2="62.61" y1="79.82" y2="16" gradientUnits="userSpaceOnUse">
      <stop stop-color="#999"/>
      <stop offset="1" stop-color="#aaa"/>
    </linearGradient>
    <linearGradient id="Shield-Alert-96_svg__b" x1="46" x2="46" y1="77.38" y2="18.88" gradientUnits="userSpaceOnUse">
      <stop stop-color="#fff"/>
      <stop offset="1" stop-color="#f2f2f2"/>
    </linearGradient>
    <linearGradient id="Shield-Alert-96_svg__c" x1="58.513" x2="58.513" y1="19.355" y2="76.941" gradientUnits="userSpaceOnUse">
      <stop stop-color="#f2f2f2"/>
      <stop offset="1" stop-color="#eee"/>
    </linearGradient>
    <linearGradient id="Shield-Alert-96_svg__d" x1="45.732" x2="45.732" y1="79.824" y2="16.002" gradientUnits="userSpaceOnUse">
      <stop stop-color="#ddd"/>
      <stop offset=".461" stop-color="#ddd"/>
      <stop offset="1" stop-color="#ddd"/>
    </linearGradient>
    <linearGradient id="Shield-Alert-96_svg__e" x1="60.552" x2="60.552" y1="79.796" y2="16.042" gradientUnits="userSpaceOnUse">
      <stop stop-color="#ccc"/>
      <stop offset="1" stop-color="#ccc"/>
    </linearGradient>
  </defs>
</svg>
