<svg width="128" height="96" viewBox="0 0 128 96" fill="none" xmlns="http://www.w3.org/2000/svg">
<path d="M36.2417 52.8854C36.3108 52.8727 36.3824 52.8881 36.4412 52.9279C36.5 52.9677 36.5409 53.0288 36.5571 53.0973C36.6713 53.5814 36.7843 54.0659 36.896 54.5504C37.9015 58.9123 38.8076 63.2927 39.6143 67.6911C40.1744 70.7455 40.6839 73.8094 41.1426 76.8825C41.3375 78.2182 41.555 79.5512 42.1897 80.6654C42.4219 81.064 42.7168 81.4211 43.0901 81.6742C43.1437 81.7102 43.1833 81.765 43.1987 81.8283C43.2141 81.8916 43.2044 81.9584 43.1714 82.0138C43.1383 82.0692 43.0843 82.1093 43.0212 82.1259C42.9582 82.1425 42.8912 82.1338 42.834 82.1037C42.3506 81.847 41.9553 81.4533 41.6453 81.0219C40.7991 79.8162 40.4655 78.3958 40.1755 77.059C39.514 74.0241 38.903 70.9787 38.3428 67.9242C37.5361 63.5259 36.8287 59.109 36.2209 54.6742C36.1534 54.1815 36.087 53.6884 36.022 53.1952C36.0128 53.1254 36.0295 53.0538 36.0703 52.9958C36.1112 52.9378 36.1726 52.8981 36.2417 52.8854Z" fill="#F5A031"/>
<path d="M75.6084 70.5404C75.86 71.8208 76.278 73.0415 76.8394 74.1789L50.8635 79.4347C50.8586 79.4357 50.5128 79.5055 50.3328 79.5414C48.2049 79.9658 46.1357 78.5863 45.7112 76.4584C45.3807 74.8019 46.1447 73.179 47.5076 72.3419C47.309 72.8984 47.2549 73.5129 47.3787 74.1349C47.7431 75.9632 50.024 76.0188 51.8525 75.6525L75.6084 70.5404Z" fill="#F5A031"/>
<path d="M76.5457 19.3888C81.0211 18.6004 83.3098 21.4618 83.8516 24.183L89.6704 53.0331C88.6594 53.0553 87.6735 53.1797 86.7229 53.3966L80.7673 24.1042C80.4104 22.3215 78.7512 20.5517 77.0837 20.3888L76.8274 20.1947L76.8022 20.1076L76.5457 19.3888Z" fill="#F5A031"/>
<path d="M75.4291 66.0154C75.3663 66.5666 75.3339 67.1272 75.3339 67.6953C75.3339 68.974 75.4979 70.2143 75.8053 71.3967L52.3307 76.0864C52.322 76.0895 51.3358 76.4399 51.1816 76.4709C49.3531 76.8372 47.5732 75.6512 47.2087 73.823C47.0849 73.2009 47.139 72.5863 47.3376 72.0298C47.7224 71.7928 48.848 71.3251 49.3173 71.2327C49.4988 71.1965 50.7966 70.9353 51.2983 70.8369L75.4291 66.0154Z" fill="#FFFBF0"/>
<path d="M77.6828 21.4102C79.2633 22.0196 80.5061 23.4004 80.863 25.1831L86.5092 53.4465C85.7239 53.6383 84.9636 53.8936 84.2336 54.2061L77.6828 21.4102Z" fill="#FFFBF0"/>
<path d="M69.9421 16.7937C73.1482 16.1546 76.2646 18.2207 76.9294 21.416C76.9326 21.4313 76.9358 21.4467 76.9389 21.4619L76.9858 21.7039L83.5427 54.523C79.1119 56.6989 75.9395 61.0446 75.4109 66.1743L50.603 71.1309C50.1014 71.2293 48.8036 71.4904 48.622 71.5266C48.1528 71.6191 47.7205 71.7933 47.3357 72.0303C45.9727 72.8673 45.2088 74.49 45.5393 76.1465L36.2395 29.5916C35.5955 26.3699 37.6879 23.2375 40.9074 22.595L69.9421 16.7937Z" fill="#FFC95C"/>
<path d="M69.797 16.0571C72.3406 15.5481 74.8352 16.5547 76.3488 18.4521C76.5078 18.4443 76.6973 18.4346 76.89 18.4248C77.1092 18.4136 77.3322 18.4026 77.5092 18.3955C77.5972 18.3919 77.678 18.3892 77.7428 18.3879C77.7675 18.3874 77.823 18.3864 77.8824 18.3889C80.23 18.3263 81.9189 19.2234 83.0748 20.5197C84.2128 21.796 84.8028 23.4193 85.0758 24.79L90.7206 53.0451C90.4822 53.0336 90.2423 53.0278 90.0011 53.0278C89.7295 53.0278 89.4597 53.0352 89.1918 53.0498L83.6049 25.0835L83.6046 25.0832C83.3626 23.8682 82.8547 22.5268 81.9552 21.518C81.0794 20.5359 79.8018 19.8303 77.8937 19.8886C77.8908 19.8887 77.8878 19.8884 77.8849 19.8884C80.0471 20.4839 81.0645 22.4033 81.4357 24.0437L81.4745 24.2256L87.2787 53.28C86.7831 53.373 86.2962 53.4908 85.8195 53.6323L80.0035 24.52C79.7342 23.1748 79.0429 21.8888 77.6952 21.405L84.2472 54.1997C83.7693 54.4037 83.3043 54.6321 82.8541 54.8838L76.2057 21.6057L76.1779 21.4746C75.5571 18.7351 72.8606 16.9737 70.0914 17.5278L41.0565 23.3286L41.0568 23.3288C38.2422 23.892 36.4141 26.6302 36.9769 29.4431L36.9767 29.4433L45.6061 72.6335C46.2731 71.7114 47.2759 71.0287 48.4791 70.7883L75.515 65.3879C75.4341 65.9003 75.3796 66.4214 75.3531 66.9499L48.7731 72.2592C48.0493 72.4039 47.4327 72.7845 46.9862 73.3047C46.9888 73.3227 46.991 73.3409 46.9923 73.3593C47.0584 74.2947 47.4783 74.7743 48.0099 75.031C48.5954 75.3136 49.4037 75.3609 50.2198 75.1975C50.2981 75.1817 50.413 75.1592 50.5077 75.1404C50.555 75.1309 50.5976 75.1225 50.6283 75.1164C50.6436 75.1134 50.6561 75.1108 50.6647 75.1091C50.6688 75.1083 50.6722 75.1076 50.6744 75.1071C50.6755 75.1069 50.6765 75.1065 50.6771 75.1064H50.6779L75.5043 69.9323C75.5806 70.4309 75.682 70.9211 75.8073 71.4018L50.9694 76.5779L50.9686 76.5781C50.9681 76.5782 50.9672 76.5784 50.9662 76.5786C50.964 76.579 50.9604 76.5797 50.9562 76.5805C50.9477 76.5822 50.9354 76.5846 50.9203 76.5876C50.8897 76.5937 50.8469 76.6022 50.7997 76.6115C50.705 76.6304 50.5918 76.6528 50.5155 76.6682L50.515 76.6684C49.5029 76.8712 48.3342 76.8533 47.3575 76.3818C46.9127 76.1671 46.5245 75.8653 46.2184 75.4748C46.2239 75.648 46.2437 75.8232 46.2787 75.9987C46.281 76.0104 46.283 76.0222 46.2848 76.0339C46.6441 77.7348 48.3064 78.8335 50.0165 78.4924C50.1062 78.4745 50.2385 78.4482 50.3485 78.426C50.4033 78.4149 50.4527 78.4048 50.4882 78.3977C50.5058 78.3941 50.5201 78.3911 50.5299 78.3891C50.5348 78.3881 50.5388 78.3875 50.5414 78.3869C50.5426 78.3867 50.5437 78.3863 50.5443 78.3862H50.5448L76.3802 73.1435C76.5722 73.6228 76.7885 74.0897 77.028 74.5424L50.8431 79.8562L50.8426 79.8564H50.8414C50.8408 79.8566 50.8397 79.8569 50.8385 79.8571C50.8359 79.8577 50.8321 79.8584 50.8273 79.8593C50.8173 79.8614 50.8026 79.8645 50.7848 79.8681C50.7492 79.8753 50.6997 79.8851 50.6447 79.8962L50.3099 79.9636C47.7779 80.4686 45.3154 78.8282 44.8075 76.2966L44.807 76.2968C44.7983 76.2549 44.7905 76.2133 44.7833 76.1721L35.506 29.7373L35.5062 29.737C34.7807 26.1103 37.1371 22.5836 40.7621 21.8581L40.7626 21.8579L69.7972 16.0569L69.797 16.0571Z" fill="#B66A1F"/>
<path d="M57.5056 19.3031C57.2659 18.1025 56.0996 17.3259 54.899 17.5657L51.978 18.1501L49.7283 18.6001L42.2158 20.1005C40.958 20.3522 40.142 21.5752 40.3937 22.8329L46.3974 52.856C46.6083 53.9129 47.9933 54.1844 48.5884 53.2869L51.2577 49.2659C52.0499 48.0735 53.6578 47.7531 54.8459 48.5483L58.8565 51.2351C59.7513 51.8355 60.9251 51.0521 60.7141 49.9952C60.7141 49.9952 55.8602 25.7424 54.8439 20.6622C54.7567 20.2234 55.0414 19.7955 55.4802 19.7083L57.5056 19.3031Z" fill="#4397E0"/>
<path d="M54.7513 16.8305C56.3573 16.5098 57.9193 17.5492 58.2403 19.1567C58.3214 19.5627 58.058 19.9575 57.6521 20.0388L55.6266 20.4441L55.6146 20.4479C55.5897 20.4585 55.5728 20.4865 55.5788 20.5166C56.0871 23.0576 57.5543 30.3896 58.8947 37.0869C59.5649 40.436 60.2036 43.6265 60.6745 45.9795C60.91 47.1561 61.1036 48.1234 61.2383 48.7964C61.3057 49.1329 61.3582 49.3959 61.394 49.5748C61.4119 49.6642 61.4256 49.7326 61.4348 49.7787C61.4394 49.8017 61.443 49.8191 61.4454 49.8308C61.4465 49.8366 61.4474 49.8411 61.448 49.844C61.4483 49.8455 61.4483 49.8466 61.4485 49.8473C61.4485 49.8477 61.4488 49.8479 61.4488 49.8481C61.4489 49.8483 61.4488 49.8484 60.7263 49.993L61.4488 49.8481L61.4489 49.8489C61.7906 51.5613 59.889 52.8315 58.4383 51.8587L54.428 49.1718C53.5849 48.6075 52.4443 48.8349 51.8819 49.6812L49.2125 53.7014L49.2127 53.7017C48.2482 55.1563 46.0034 54.7171 45.6611 53.0035L39.6576 22.9805C39.3245 21.3162 40.4045 19.6984 42.0679 19.3655L54.751 16.8307L54.7513 16.8305ZM56.4203 18.7555C56.0858 18.3859 55.5709 18.1967 55.0452 18.3016L55.045 18.3014L49.8747 19.336L42.3619 20.8364L42.3617 20.8362C41.5099 21.0069 40.958 21.8353 41.1283 22.6863L47.1321 52.7093C47.2119 53.1093 47.7368 53.2131 47.9625 52.8728L47.9627 52.8726L50.6323 48.8514C51.6543 47.313 53.7292 46.8994 55.2622 47.9256L59.2731 50.6123L59.2738 50.6127C59.6125 50.8399 60.0578 50.5436 59.9778 50.1426L59.9777 50.1418C59.9776 50.1411 59.9773 50.1399 59.977 50.1385C59.9764 50.1355 59.9756 50.131 59.9744 50.1252C59.9721 50.1135 59.9687 50.0961 59.9641 50.0732C59.9549 50.0271 59.9412 49.9586 59.9233 49.8693C59.8875 49.6904 59.8348 49.4272 59.7674 49.0906C59.6327 48.4176 59.439 47.4504 59.2035 46.274C58.7326 43.9209 58.0942 40.7305 57.4239 37.3814C56.0834 30.6832 54.6159 23.35 54.1078 20.8098L54.1074 20.8088C53.9452 19.9919 54.453 19.1929 55.2549 18.9909L55.3334 18.9731L56.4203 18.7555Z" fill="#045EB2"/>
<path d="M90 79.75C96.6274 79.75 102 74.3774 102 67.75C102 61.1226 96.6274 55.75 90 55.75C83.3726 55.75 78 61.1226 78 67.75C78 74.3774 83.3726 79.75 90 79.75Z" fill="black"/>
<path d="M89.9991 61.0859C90.5503 61.0859 90.9969 61.5326 90.9969 62.0837V71.3289L94.7054 68.3359C95.1343 67.9899 95.7626 68.057 96.1088 68.4858C96.4548 68.9147 96.3876 69.5428 95.9588 69.8889L90.6398 74.1819C90.5967 74.218 90.5513 74.25 90.5038 74.2778C90.4993 74.2804 90.4948 74.2829 90.4903 74.2854C90.4806 74.2909 90.4707 74.2963 90.4608 74.3015C90.4552 74.3044 90.4496 74.3072 90.444 74.3101C90.4361 74.314 90.4282 74.3178 90.4203 74.3215C90.412 74.3254 90.4037 74.3291 90.3954 74.3328C90.3892 74.3354 90.383 74.338 90.3768 74.3406C90.3665 74.3448 90.3562 74.3487 90.3458 74.3525C90.3417 74.3541 90.3375 74.3557 90.3334 74.3572C90.3064 74.3668 90.2793 74.3752 90.2518 74.3823C90.2485 74.3832 90.2452 74.3842 90.2418 74.385C90.2302 74.3879 90.2186 74.3906 90.2069 74.3931C90.2025 74.394 90.1981 74.3949 90.1937 74.3958C90.1809 74.3983 90.168 74.4006 90.1551 74.4026C90.1536 74.4028 90.152 74.4031 90.1505 74.4033C90.1387 74.4051 90.1269 74.4066 90.1151 74.408C90.1082 74.4088 90.1013 74.4095 90.0943 74.4102C90.0868 74.4109 90.0792 74.4116 90.0716 74.4121C90.0629 74.4127 90.0542 74.4132 90.0455 74.4136C90.0386 74.4139 90.0317 74.4141 90.0248 74.4143C90.0161 74.4145 90.0075 74.4148 89.9989 74.4148C89.9901 74.4148 89.9813 74.4145 89.9725 74.4143C89.9658 74.4141 89.9592 74.4139 89.9525 74.4136C89.9435 74.4132 89.9346 74.4128 89.9256 74.4121C89.9183 74.4116 89.911 74.4109 89.9037 74.4102C89.8966 74.4095 89.8895 74.4088 89.8824 74.408C89.8711 74.4066 89.8598 74.405 89.8485 74.4033C89.8461 74.403 89.8438 74.4027 89.8414 74.4023C89.8126 74.3978 89.7839 74.3919 89.7555 74.3848C89.7521 74.3839 89.7488 74.3832 89.7455 74.3823C89.7325 74.3789 89.7196 74.375 89.7067 74.3711C89.7053 74.3707 89.704 74.3703 89.7027 74.3699C89.6893 74.3657 89.676 74.3614 89.6627 74.3567C89.6596 74.3556 89.6565 74.3544 89.6534 74.3533C89.643 74.3494 89.6325 74.3455 89.6222 74.3413C89.6149 74.3383 89.6077 74.3352 89.6004 74.332C89.5929 74.3287 89.5855 74.3253 89.578 74.3218C89.5677 74.317 89.5576 74.312 89.5475 74.3069C89.5449 74.3056 89.5422 74.3043 89.5397 74.303C89.5278 74.2968 89.5161 74.2903 89.5045 74.2837C89.5011 74.2818 89.4976 74.2801 89.4942 74.2781C89.4464 74.2501 89.4006 74.2178 89.3573 74.1814L84.0392 69.8889C83.6104 69.5428 83.5432 68.9147 83.8893 68.4858C84.2354 68.057 84.8637 67.9898 85.2926 68.3359L89.0013 71.3291V62.0837C89.0013 61.5326 89.448 61.086 89.9991 61.0859Z" fill="white"/>
</svg>
