<svg fill="none" viewBox="0 0 12 12" xmlns="http://www.w3.org/2000/svg">
  <path fill="#000" d="M2 4.707c0 .228-.15.423-.338.55-.4.27-.662.725-.662 1.243V9a2 2 0 0 0 2 2h3.5c.518 0 .973-.263 1.243-.662.127-.188.322-.338.55-.338.34 0 .595.316.443.62A2.5 2.5 0 0 1 6.5 12H3a3 3 0 0 1-3-3V6.5a2.5 2.5 0 0 1 1.38-2.236c.304-.152.62.103.62.443"/>
  <path fill="#000" fill-rule="evenodd" d="M9.5 1A2.5 2.5 0 0 1 12 3.5v3A2.5 2.5 0 0 1 9.5 9h-4A2.5 2.5 0 0 1 3 6.5v-3A2.5 2.5 0 0 1 5.5 1zm-4 1A1.5 1.5 0 0 0 4 3.5v3A1.5 1.5 0 0 0 5.5 8h4A1.5 1.5 0 0 0 11 6.5V4H8.756c-.675 0-1.165-.135-1.509-.436-.332-.29-.449-.675-.526-.902-.09-.26-.143-.377-.247-.463-.089-.072-.278-.17-.72-.194L5.552 2zm2.033 0c.058.126.1.243.133.338.093.273.141.388.238.473.086.074.294.189.852.189h2.157A1.5 1.5 0 0 0 9.5 2z" clip-rule="evenodd"/>
</svg>
