<svg fill="none" viewBox="0 0 128 96" xmlns="http://www.w3.org/2000/svg">
  <path fill="#4397E0" d="M64 16.75c17.259 0 31.25 13.991 31.25 31.25 0 2.065-.2 4.084-.583 6.037-1.466-.492-3.035-.758-4.667-.758-8.1 0-14.667 6.566-14.667 14.667 0 2.998.9 5.787 2.445 8.11C73.622 78.1 68.945 79.25 64 79.25c-17.259 0-31.25-13.991-31.25-31.25S46.741 16.75 64 16.75"/>
  <path fill="#4397E0" d="M29.25 47.787c.08 0 .157.032.215.088.057.057.09.134.095.214.031.557.074 1.107.128 1.66.484 4.963 1.928 9.769 4.227 14.125 2.296 4.358 5.47 8.253 9.309 11.407q.64.525 1.304 1.024c.091.068.155.169.175.282s-.006.228-.07.322c-.065.094-.164.158-.277.18-.112.022-.229-.002-.325-.063q-.72-.455-1.415-.947c-4.177-2.952-7.67-6.924-10.07-11.484-2.408-4.554-3.669-9.708-3.654-14.808.001-.568.017-1.131.048-1.698.005-.08.038-.157.095-.214.058-.056.135-.088.215-.088m51.146-30.563c.108-.034.225-.024.327.021q.387.173.77.36c2.292 1.113 4.433 2.567 6.324 4.295 1.893 1.726 3.512 3.752 4.77 5.966q.21.369.406.745c.036.07.05.15.033.228-.017.077-.062.145-.127.188-.064.044-.144.06-.222.046s-.148-.057-.199-.117q-.27-.317-.541-.63c-1.635-1.879-3.353-3.632-5.162-5.284q-2.714-2.48-5.784-4.569-.342-.231-.688-.459c-.093-.061-.165-.154-.195-.263s-.018-.225.036-.323.144-.17.252-.204"/>
  <path fill="#045EB2" d="M64 16c17.673 0 32 14.327 32 32 0 2.155-.214 4.26-.62 6.297q-.7-.276-1.434-.481c.363-1.883.554-3.827.554-5.816 0-16.845-13.655-30.5-30.5-30.5S33.5 31.155 33.5 48 47.155 78.5 64 78.5c4.798 0 9.338-1.109 13.376-3.083q.388.653.839 1.26C73.932 78.804 69.105 80 64 80c-17.673 0-32-14.327-32-32s14.327-32 32-32"/>
  <path fill="#045EB2" fill-rule="evenodd" d="M44.408 27.1c.085-.08.207-.105.317-.065q.165.06.331.124.914.358 1.785.813c2.843 1.55 5.445 3.44 7.906 5.493 2.346-1.797 4.831-3.377 7.393-4.827q.604-.338 1.216-.663c.213-.113.474.015.548.244q.105.316.26.605c.103.19.044.435-.147.536q-.567.3-1.127.615c-2.406 1.356-4.757 2.845-6.956 4.501 1.15 1 2.274 2.032 3.379 3.075 2.371 2.266 4.642 4.636 6.812 7.092l.733.127.026.005c3.745.68 7.449 1.567 11.103 2.633l.292.086c.296.088.43.432.32.721q-.076.198-.127.407c-.075.297-.376.503-.669.413l-.275-.085c-3.24-.983-6.528-1.82-9.845-2.508q.383.452.763.907c2.261 2.72 4.358 5.57 6.286 8.523q.63.968 1.237 1.949c.019.03.026.069.019.105q-.012.056-.058.089c-.03.02-.068.028-.104.022q-.055-.01-.09-.056-.698-.915-1.412-1.816c-2.177-2.753-4.45-5.423-6.817-7.994q-1-1.085-2.015-2.157c-6.194-1.141-12.494-1.905-18.796-2.152-2.85 3.843-5.14 8.12-6.592 12.714q-.301.96-.542 1.929c-.019.077-.069.144-.137.186-.069.042-.15.056-.228.039-.077-.018-.145-.066-.189-.133-.043-.068-.059-.15-.043-.228q.206-.995.466-1.986c1.178-4.436 3.073-8.71 5.614-12.57-2.853-.064-5.718-.055-8.538.331q-.335.048-.67.105c-.16.027-.302-.108-.279-.269.014-.096.085-.173.18-.196q.34-.08.679-.152c3.07-.634 6.215-.854 9.338-.862 1.034-1.472 2.165-2.878 3.389-4.203q1.903-2.058 4.049-3.86l.38-.314c-2.283-2.041-4.64-3.986-7.163-5.683q-.788-.512-1.626-.947-.146-.076-.294-.148c-.199-.098-.244-.365-.082-.516m10.307 8.325q-.275.222-.545.446-2.075 1.74-3.92 3.722-1.433 1.538-2.736 3.198c5.465.117 10.909.643 16.306 1.477q-2.75-2.842-5.602-5.571c-1.16-1.095-2.324-2.193-3.503-3.272" clip-rule="evenodd"/>
  <path fill="#045EB2" d="M82.016 47.052c1.357 0 2.457 1.1 2.457 2.457s-1.1 2.457-2.457 2.457-2.457-1.1-2.457-2.457 1.1-2.457 2.457-2.457M67.398 24.604c1.368 0 2.477 1.109 2.477 2.477s-1.109 2.477-2.477 2.477-2.477-1.109-2.477-2.477 1.109-2.477 2.477-2.477m11.977-.589q.096.002.177.053c.261.17.15.573-.16.6-2.786.255-5.54.898-8.198 1.715-.095.03-.194-.03-.216-.127q-.106-.466-.324-.877c-.082-.157-.001-.358.172-.395 2.821-.585 5.681-.977 8.549-.969"/>
  <path fill="#000" d="M90 80c6.627 0 12-5.373 12-12s-5.373-12-12-12-12 5.373-12 12 5.373 12 12 12"/>
  <path fill="#fff" fill-rule="evenodd" d="M90 60.78c1.84 0 3.334 1.492 3.334 3.332v2c.92 0 1.666.747 1.666 1.667v4.667c0 .92-.746 1.666-1.667 1.666h-6.666c-.92 0-1.667-.746-1.667-1.666v-4.667c0-.92.746-1.666 1.667-1.666v-2c0-1.841 1.492-3.334 3.333-3.334m0 7c-.828 0-1.5.67-1.5 1.5 0 .588.34 1.097.833 1.343v1.073c0 .368.299.666.667.666s.667-.298.667-.666v-1.073c.493-.246.833-.755.833-1.344 0-.828-.672-1.5-1.5-1.5m0-5c-.736 0-1.333.596-1.333 1.332v2h2.666v-2c0-.736-.597-1.333-1.333-1.333" clip-rule="evenodd"/>
</svg>
