<svg fill="none" viewBox="0 0 12 12" xmlns="http://www.w3.org/2000/svg">
  <g fill="#000" fill-rule="evenodd" clip-path="url(#a)" clip-rule="evenodd">
    <path d="M4.645 3c.56 0 1.098.225 1.492.625l1.261 1.281c.386.392.602.92.602 1.469V9.5A2.5 2.5 0 0 1 5.5 12h-3A2.5 2.5 0 0 1 0 9.5v-4A2.5 2.5 0 0 1 2.5 3zM2.5 4A1.5 1.5 0 0 0 1 5.5v4A1.5 1.5 0 0 0 2.5 11h3A1.5 1.5 0 0 0 7 9.5V7H6a2 2 0 0 1-2-2V4zM5 5a1 1 0 0 0 1 1h.932a1.1 1.1 0 0 0-.246-.393l-1.261-1.28A1.1 1.1 0 0 0 5 4.06z"/>
    <path d="M8.645 0c.56 0 1.098.225 1.492.625l1.261 1.281c.386.392.602.92.602 1.469V6.5A2.5 2.5 0 0 1 9.5 9a.5.5 0 0 1 0-1A1.5 1.5 0 0 0 11 6.5V4h-1a2 2 0 0 1-2-2V1H6.5c-.527 0-.99.272-1.257.684-.115.177-.298.316-.51.316h-.378c-.157 0-.276-.145-.226-.295A2.5 2.5 0 0 1 6.5 0zM9 2a1 1 0 0 0 1 1h.932a1.1 1.1 0 0 0-.247-.393l-1.26-1.28A1.1 1.1 0 0 0 9 1.06z"/>
  </g>
  <defs>
    <clipPath id="a">
      <path fill="#fff" d="M0 0h12v12H0z"/>
    </clipPath>
  </defs>
</svg>
