<svg fill="none" viewBox="0 0 16 16" xmlns="http://www.w3.org/2000/svg">
  <g clip-path="url(#Images-16_svg__a)">
    <path fill="#000" d="M14.25 4.63a3.5 3.5 0 0 1 1.613 3.929l-1.294 4.83a3.5 3.5 0 0 1-4.287 2.474l-4.83-1.294a3.5 3.5 0 0 1-1.203-.587C3.783 13.63 4.11 13 4.694 13h.083c.16 0 .314.055.453.135q.251.146.546.227l4.83 1.294a2.25 2.25 0 0 0 2.756-1.591l1.294-4.83a2.25 2.25 0 0 0-.793-2.36 2.2 2.2 0 0 0-.413-.25c-.256-.12-.45-.36-.45-.642 0-.411.395-.723.779-.575q.24.09.471.223M8.5 0A3.5 3.5 0 0 1 12 3.5v5A3.5 3.5 0 0 1 8.5 12h-5A3.5 3.5 0 0 1 0 8.5v-5A3.5 3.5 0 0 1 3.5 0zM5.438 6.888a1.88 1.88 0 0 0-1.875 0L1.25 8.223V8.5a2.25 2.25 0 0 0 2.25 2.25h5c.784 0 1.475-.402 1.877-1.01zM3.5 1.25A2.25 2.25 0 0 0 1.25 3.5v3.28l1.688-.975a3.13 3.13 0 0 1 3.125 0l4.687 2.707V3.5A2.25 2.25 0 0 0 8.5 1.25zM7.938 3a1.063 1.063 0 1 1 0 2.125 1.063 1.063 0 0 1 0-2.125"/>
  </g>
  <defs>
    <clipPath id="Images-16_svg__a">
      <path fill="#fff" d="M0 0h16v16H0z"/>
    </clipPath>
  </defs>
</svg>
