<svg width="12" height="12" viewBox="0 0 12 12" fill="none" xmlns="http://www.w3.org/2000/svg">
<g clip-path="url(#clip0_11782_74756)">
<path fill-rule="evenodd" clip-rule="evenodd" d="M9.5 7C10.8807 7 11.9999 8.11934 12 9.5C11.9999 10.8807 10.8807 12 9.5 12C8.11944 11.9999 7.00007 10.8806 7 9.5C7.00007 8.11943 8.11944 7.00013 9.5 7ZM9.33301 7.75C9.14932 7.7503 9.00024 7.8993 9 8.08301V9H8.08301C7.89947 9.00043 7.75031 9.14944 7.75 9.33301V9.66699C7.75021 9.85064 7.89941 9.99957 8.08301 10H9V10.917C9.00014 11.1008 9.14926 11.2497 9.33301 11.25H9.66602C9.85002 11.25 9.99986 11.101 10 10.917V10H10.918C11.1018 9.99982 11.2508 9.8508 11.251 9.66699V9.33301C11.2507 9.14928 11.1017 9.00018 10.918 9H10V8.08301C9.99976 7.89912 9.84996 7.75 9.66602 7.75H9.33301Z" fill="black"/>
<path fill-rule="evenodd" clip-rule="evenodd" d="M4 1.00391V0.99707H9C10.6568 0.99707 12 2.34122 12 3.99805V5.5C12 5.77614 11.7761 6 11.5 6C11.2583 6 11.0563 5.82855 11.0098 5.60059L10.9902 5.39941C10.9435 5.17158 10.7416 5 10.5 5H8.16113C6.98933 4.99992 5.94055 4.27181 5.53125 3.17383C5.26785 2.46701 4.59317 1.99813 3.83887 1.99805H3C1.89545 1.99805 1.00003 2.89351 1 3.99805V7.99805C1.00026 9.10239 1.89559 9.99805 3 9.99805H5.5C5.77614 9.99805 6 10.2219 6 10.498C6 10.7742 5.77614 10.998 5.5 10.998H3C1.34331 10.998 0.000263921 9.65468 0 7.99805V3.99805C3.30498e-05 2.34122 1.34317 0.997071 3 0.99707H3.83887C3.89288 0.997074 3.94656 1.00084 4 1.00391ZM5.98438 1.99805C6.18779 2.23955 6.3542 2.5169 6.46875 2.82422C6.73224 3.53086 7.40695 3.99992 8.16113 4H10.5C10.6755 4 10.8435 4.03151 11 4.08691V3.99805C11 2.89351 10.1045 1.99805 9 1.99805H5.98438Z" fill="black"/>
</g>
<defs>
<clipPath id="clip0_11782_74756">
<rect width="12" height="12" fill="white"/>
</clipPath>
</defs>
</svg>
