<svg width="24" height="24" viewBox="0 0 24 24" fill="none" xmlns="http://www.w3.org/2000/svg">
<path d="M21.375 12C21.375 17.1777 17.1777 21.375 12 21.375C6.82233 21.375 2.625 17.1777 2.625 12C2.625 6.82233 6.82233 2.625 12 2.625C17.1777 2.625 21.375 6.82233 21.375 12Z" fill="#4397E0"/>
<path d="M12 2C17.5228 2 22 6.47715 22 12C22 17.5228 17.5228 22 12 22C6.47715 22 2 17.5228 2 12C2 6.47715 6.47715 2 12 2ZM12 3.25C7.16751 3.25 3.25 7.16751 3.25 12C3.25 16.8325 7.16751 20.75 12 20.75C16.8325 20.75 20.75 16.8325 20.75 12C20.75 7.16751 16.8325 3.25 12 3.25Z" fill="#045EB2"/>
<path d="M12.0001 15.375C12.6214 15.375 13.1251 15.8787 13.1251 16.5C13.125 17.1213 12.6214 17.625 12.0001 17.625C11.3788 17.625 10.8751 17.1213 10.8751 16.5C10.8751 15.8787 11.3788 15.375 12.0001 15.375ZM12.1988 6.375C12.7678 6.37501 13.2183 6.85613 13.181 7.42395L12.8068 13.1187C12.7789 13.5442 12.4255 13.875 11.9991 13.875C11.5726 13.875 11.2193 13.544 11.1915 13.1184L10.8186 7.42371C10.7814 6.85597 11.2319 6.37502 11.8009 6.375H12.1988Z" fill="white"/>
</svg>
