<svg width="16" height="16" viewBox="0 0 16 16" fill="none" xmlns="http://www.w3.org/2000/svg">
<g clip-path="url(#clip0_13193_106664)">
<path d="M15.5 12C15.5 13.933 13.933 15.5 12 15.5C10.067 15.5 8.5 13.933 8.5 12C8.5 10.067 10.067 8.5 12 8.5C13.933 8.5 15.5 10.067 15.5 12Z" fill="#F05F2B"/>
<path d="M15 12C15 10.3431 13.6569 9 12 9C10.3431 9 9 10.3431 9 12C9 13.6569 10.3431 15 12 15C13.6569 15 15 13.6569 15 12ZM16 12C16 14.2091 14.2091 16 12 16C9.79086 16 8 14.2091 8 12C8 9.79086 9.79086 8 12 8C14.2091 8 16 9.79086 16 12Z" fill="#9E2B08"/>
<path d="M8 1C11.866 1 15 4.13401 15 8C14.1643 7.37223 13.1257 7 12 7C9.23858 7 7 9.23858 7 12C7 13.1257 7.37223 14.1643 8 15C4.13401 15 1 11.866 1 8C1 4.13401 4.13401 1 8 1Z" fill="#FFC95C"/>
<path d="M7.66309 9.51074C7.24144 10.2438 7 11.0936 7 12C7 13.1279 7.37386 14.1683 8.00391 15.0049L8.00098 15.0059C5.87864 15.0059 3.97611 14.0609 2.69238 12.5693C3.64868 10.8345 5.50338 9.62559 7.66309 9.51074ZM8 3.5C9.38071 3.5 10.5 4.61929 10.5 6C10.5 6.51073 10.3459 6.98508 10.083 7.38086C9.47834 7.63209 8.93391 7.99878 8.47656 8.45312C8.3222 8.48294 8.16306 8.5 8 8.5C6.61931 8.5 5.50003 7.38068 5.5 6C5.5 4.61929 6.61929 3.5 8 3.5Z" fill="#F5A031"/>
<path d="M8 0C12.4183 0 16 3.58172 16 8C16 8.34147 15.5633 8.47744 15.3076 8.25108C15.2086 8.16339 15.106 8.0796 15 8C15 4.13401 11.866 1 8 1C4.13401 1 1 4.13401 1 8C1 9.55117 1.50545 10.9842 2.35938 12.1445C2.86848 11.2895 3.58198 10.5607 4.44238 10.0195L4.64258 9.89844C5.65515 9.31113 6.81564 9.00018 7.99902 9C7.7608 9.3172 7.55955 9.66384 7.40137 10.0332C6.60301 10.1166 5.83249 10.3647 5.14453 10.7637L4.97461 10.8662C4.14691 11.3868 3.48513 12.1095 3.05469 12.9541C4.32109 14.2183 6.06924 15 8 15C8.0796 15.106 8.16339 15.2086 8.25108 15.3076C8.47744 15.5633 8.34147 16 8 16C3.58172 16 0 12.4183 0 8C0 3.58172 3.58172 0 8 0ZM8 3C9.65685 3 11 4.34315 11 6C11 6.40846 10.9174 6.79744 10.7695 7.15234C9.64668 7.43648 8.67446 8.10085 7.99902 9C6.34217 9 5 7.65685 5 6C5 4.34315 6.34315 3 8 3ZM8 4C6.89543 4 6 4.89543 6 6C6 7.10457 6.89543 8 8 8C9.10457 8 10 7.10457 10 6C10 4.89543 9.10457 4 8 4Z" fill="#B66A1F"/>
<path d="M13.5 11.5L13.6006 11.5098C13.8286 11.5563 14 11.7583 14 12C14 12.2417 13.8286 12.4437 13.6006 12.4902L13.5 12.5H10.5C10.2239 12.5 10 12.2761 10 12C10 11.7239 10.2239 11.5 10.5 11.5H13.5Z" fill="white"/>
</g>
<defs>
<clipPath id="clip0_13193_106664">
<rect width="16" height="16" fill="white"/>
</clipPath>
</defs>
</svg>
