<svg fill="none" viewBox="0 0 24 24" xmlns="http://www.w3.org/2000/svg">
  <path fill="#000" d="M17 3c2.761 0 5 2.239 5 5v8c0 2.761-2.239 5-5 5H7c-2.761 0-5-2.239-5-5V8c0-2.761 2.239-5 5-5zM3.5 15.5v.5c0 1.933 1.567 3.5 3.5 3.5h10c1.933 0 3.5-1.567 3.5-3.5v-.5zm13.283-8.277c-.291-.295-.767-.297-1.061-.005l-2.842 2.817c-.487.483-1.273.483-1.76 0L8.278 7.218c-.294-.292-.769-.29-1.06.005-.292.294-.29.769.004 1.06l2.843 2.817c1.071 1.062 2.8 1.062 3.872 0l2.841-2.817c.294-.291.296-.766.005-1.06"/>
</svg>
