<svg width="12" height="12" viewBox="0 0 12 12" fill="none" xmlns="http://www.w3.org/2000/svg">
<g clip-path="url(#clip0_10482_76998)">
<path d="M6.5625 0C7.35641 0 8 0.643591 8 1.4375V2H11C11.2761 2 11.5 2.22386 11.5 2.5C11.5 2.75884 11.3033 2.97189 11.0513 2.99756L11 3V9C11 10.6569 9.65685 12 8 12H4C2.34315 12 1 10.6569 1 9V3C0.723858 3 0.5 2.77614 0.5 2.5C0.5 2.22386 0.723858 2 1 2H4V1.4375C4 0.643591 4.64359 0 5.4375 0H6.5625ZM2 3V9C2 10.1046 2.89543 11 4 11H8C9.10457 11 10 10.1046 10 9V3H2ZM4.5 4C4.77614 4 5 4.22386 5 4.5V8.5C5 8.77614 4.77614 9 4.5 9C4.22386 9 4 8.77614 4 8.5V4.5C4 4.22386 4.22386 4 4.5 4ZM7.5 4C7.77614 4 8 4.22386 8 4.5V8.5C8 8.77614 7.77614 9 7.5 9C7.22386 9 7 8.77614 7 8.5V4.5C7 4.22386 7.22386 4 7.5 4ZM5.4375 1C5.19588 1 5 1.19588 5 1.4375V2H7V1.4375C7 1.19588 6.80412 1 6.5625 1H5.4375Z" fill="black"/>
</g>
<defs>
<clipPath id="clip0_10482_76998">
<rect width="12" height="12" fill="white"/>
</clipPath>
</defs>
</svg>
