<svg width="24" height="24" viewBox="0 0 24 24" fill="none" xmlns="http://www.w3.org/2000/svg">
<path fill-rule="evenodd" clip-rule="evenodd" d="M12 21.375C11.6277 21.375 11.3364 21.0729 11.2892 20.7036C10.7581 16.5405 7.45957 13.242 3.29645 12.7108C2.92713 12.6637 2.625 12.3723 2.625 12C2.625 6.82233 6.82233 2.625 12 2.625C17.1777 2.625 21.375 6.82233 21.375 12C21.375 17.1777 17.1777 21.375 12 21.375Z" fill="#FFC95C"/>
<path d="M11.8939 21.9994C11.2168 21.9923 10.6904 21.6387 10.3555 21.1718C10.0279 20.7151 9.86708 20.1353 9.87451 19.5747C9.87484 19.5499 9.875 19.5249 9.875 19.5C9.875 16.4624 7.41257 14 4.375 14C4.36393 14 4.35285 14.0001 4.3418 14.0001C3.7937 14.0034 3.23033 13.8392 2.78906 13.5132C2.33789 13.1798 2 12.6605 2 12C2 6.47715 6.47715 2 12 2C17.5228 2 22 6.47715 22 12C22 17.5228 17.5228 22 12 22C11.9646 22 11.9292 21.9998 11.8939 21.9994ZM12 20.75C16.8325 20.75 20.75 16.8325 20.75 12C20.75 7.16751 16.8325 3.25 12 3.25C7.16751 3.25 3.25 7.16751 3.25 12C3.25 12.1958 3.34054 12.3666 3.53186 12.5079C3.73308 12.6566 4.02631 12.7519 4.33447 12.7501C4.34797 12.75 4.36148 12.75 4.375 12.75C8.10292 12.75 11.125 15.7721 11.125 19.5C11.125 19.5305 11.1248 19.5609 11.1244 19.5913C11.1201 19.9166 11.2168 20.228 11.3712 20.4432C11.5182 20.6482 11.6982 20.7473 11.9069 20.7495C11.9378 20.7498 11.9689 20.75 12 20.75ZM11.6666 7.66663C11.1144 7.66659 10.6666 7.21889 10.6666 6.66662C10.6666 6.11438 11.1144 5.66666 11.6666 5.66663C12.2189 5.66663 12.6666 6.11435 12.6666 6.66663C12.6666 7.21891 12.2189 7.66663 11.6666 7.66663ZM16.25 9.66663C15.6977 9.66663 15.25 9.21891 15.25 8.66663C15.25 8.11435 15.6977 7.66663 16.25 7.66663C16.8023 7.66663 17.25 8.11435 17.25 8.66663C17.25 9.21891 16.8023 9.66663 16.25 9.66663ZM7.58325 9.75C7.031 9.74997 6.58325 9.30226 6.58325 8.75C6.58325 8.19773 7.031 7.75003 7.58325 7.75C8.13554 7.75 8.58325 8.19771 8.58325 8.75C8.58325 9.30228 8.13554 9.75 7.58325 9.75ZM12.25 13.3334C11.6977 13.3334 11.25 12.8856 11.25 12.3334C11.25 11.7811 11.6977 11.3334 12.25 11.3334C12.8023 11.3334 13.25 11.7811 13.25 12.3334C13.25 12.8856 12.8023 13.3334 12.25 13.3334ZM17.3333 14.25C16.781 14.25 16.3333 13.8023 16.3333 13.25C16.3333 12.6977 16.781 12.25 17.3333 12.25C17.8855 12.25 18.3333 12.6977 18.3333 13.25C18.3333 13.8023 17.8855 14.25 17.3333 14.25ZM14.25 18.25C13.6977 18.25 13.25 17.8023 13.25 17.25C13.25 16.6977 13.6977 16.25 14.25 16.25C14.8023 16.25 15.25 16.6977 15.25 17.25C15.25 17.8023 14.8023 18.25 14.25 18.25Z" fill="url(#paint0_linear_13193_122944)"/>
<defs>
<linearGradient id="paint0_linear_13193_122944" x1="12.0327" y1="20.2662" x2="12.0327" y2="2.92876" gradientUnits="userSpaceOnUse">
<stop offset="0.00833332" stop-color="#B66A1F"/>
<stop offset="1" stop-color="#B66A1F"/>
</linearGradient>
</defs>
</svg>
