<svg width="96" height="96" viewBox="0 0 96 96" fill="none" xmlns="http://www.w3.org/2000/svg">
<path d="M63.4497 20.5941C72.0361 20.1354 79.2497 26.974 79.2497 35.5726V52.6866C79.2497 53.1207 79.231 53.5504 79.1948 53.9752C77.5801 53.3635 75.8293 53.0286 74.0002 53.0286C65.9052 53.0286 59.3418 59.5869 59.3335 67.68L25.7121 67.6358C19.2486 67.6273 14.1214 62.1869 14.4958 55.7342L15.8064 33.1531C16.1384 27.4333 20.716 22.8768 26.4372 22.5711L63.4497 20.5941Z" fill="#F5FBFE"/>
<path d="M60.5889 61.7494C59.782 63.5667 59.3335 65.5784 59.3335 67.6949C59.3335 71.2505 60.5988 74.5105 62.7036 77.0494C62.2375 77.2487 61.6606 77.3558 60.9895 77.3558L47.1592 77.3829L47.1582 77.3827L34.5676 77.4076C34.3816 77.4079 34.241 77.2391 34.2751 77.0562C34.4986 75.8614 35.5004 74.9681 36.7129 74.8824L42.5017 74.4732C43.3919 74.4103 43.8625 73.3898 43.3323 72.672L39.5103 67.4994H25.106C21.1529 67.4993 17.5356 65.2762 15.75 61.7494H60.5889Z" fill="#4397E0"/>
<path d="M63.4495 20.5941C72.036 20.1352 79.25 26.9738 79.25 35.5726V53.9957C77.7788 53.4316 76.1937 53.0977 74.5386 53.0379L75.4773 33.7437C75.8371 26.348 69.7254 20.2628 62.3323 20.6537L63.4495 20.5941Z" fill="#4397E0"/>
<path d="M62.325 20.6541L51.8669 21.2132L62.3323 20.6537C62.3298 20.6538 62.3274 20.654 62.325 20.6541Z" fill="#4397E0"/>
<path d="M63.4095 19.8451C72.4249 19.3638 79.9989 26.5446 79.9991 35.5729V52.6867C79.9991 53.2221 79.9721 53.7512 79.92 54.2729C79.4465 54.0637 78.9599 53.879 78.4617 53.7201C78.4862 53.3789 78.4991 53.0342 78.4991 52.6867V35.5729C78.4989 27.4045 71.6464 20.9077 63.4896 21.3432L26.4774 23.3202C21.1375 23.6055 16.865 27.8585 16.555 33.1969L15.2444 55.7777C14.8949 61.8003 19.6803 66.8781 25.713 66.8861L59.3528 66.9301C59.3398 67.1836 59.3333 67.4388 59.3333 67.6955C59.3333 67.9417 59.3394 68.1866 59.3514 68.4298L57.2974 68.4274C58.1698 69.6818 58.9934 70.9629 59.7669 72.2712C60.368 73.2433 59.867 74.6836 58.7637 75.0788C58.5438 75.1634 58.3094 75.2063 58.0806 75.2094C55.9493 75.234 53.8157 75.1479 51.6802 74.9508C51.4268 74.9275 51.173 74.9024 50.9195 74.8759C50.8493 74.8685 50.7813 74.8389 50.7308 74.788C50.6802 74.7371 50.6511 74.6697 50.6497 74.5995C50.6485 74.5295 50.6752 74.461 50.7237 74.4084C50.7723 74.3557 50.8391 74.3234 50.909 74.3134C51.1613 74.2774 51.4139 74.243 51.6663 74.2101C53.793 73.9335 55.922 73.7678 58.0528 73.7128C58.1165 73.7105 58.1732 73.6985 58.2259 73.6784C58.4859 73.5854 58.6526 73.2357 58.5147 72.9543C57.8114 71.5515 57.1605 70.1198 56.5626 68.6596C56.5308 68.582 56.4993 68.5042 56.4678 68.4264L41.0408 68.4062L43.9439 72.4491C44.8163 73.6644 43.9919 75.363 42.4974 75.4298L36.1924 75.7109C35.7844 75.7291 35.4231 75.9494 35.2154 76.2814L60.9459 76.3036C61.3847 76.3036 61.7448 76.2578 62.0374 76.183C62.3448 76.6154 62.6749 77.0305 63.0262 77.4264C62.4293 77.6853 61.715 77.8038 60.9456 77.8039L34.7527 77.7812C33.9938 77.7805 33.4304 77.0775 33.595 76.3366C33.8616 75.138 34.8992 74.2673 36.1258 74.2126L42.4307 73.9313C42.735 73.9175 42.9029 73.5717 42.7254 73.3241L39.1927 68.4037L25.711 68.3861C18.8165 68.377 13.3477 62.5737 13.7471 55.6908L15.0574 33.11C15.4117 27.009 20.2946 22.1482 26.3973 21.8222L63.4095 19.8451Z" fill="#045EB2"/>
<path d="M75.4683 37.1281C75.5403 37.1306 75.6091 37.1616 75.6595 37.2143C75.7099 37.267 75.7377 37.3374 75.7401 37.4096C75.7549 37.8974 75.7693 38.3732 75.7825 38.8485C75.9021 43.1579 75.9507 47.4757 75.7249 51.7878C75.703 52.2328 75.6789 52.6771 75.6531 53.121C75.1636 53.0661 74.6668 53.0354 74.1639 53.0299C74.184 52.5915 74.2051 52.153 74.2266 51.714C74.4515 47.4208 74.6555 43.1342 75.0423 38.8256C75.0853 38.3514 75.1304 37.8767 75.178 37.3905C75.1853 37.3187 75.2177 37.2503 75.2715 37.2011C75.3255 37.152 75.3963 37.1257 75.4683 37.1281Z" fill="#045EB2"/>
<path fill-rule="evenodd" clip-rule="evenodd" d="M50.342 30.1349C55.4508 30.1623 59.2831 34.1569 59.1667 39.2621C59.05 44.3773 54.4079 48.4834 49.3095 48.4562C48.701 48.4529 47.7217 48.2617 46.8683 48.0538C46.2399 47.9008 45.5865 48.2711 45.4157 48.8795L45.3857 48.9987C45.2135 49.6069 44.5435 49.9427 43.957 49.6998L43.0285 49.3153C42.2714 49.0019 41.4749 49.7159 41.7026 50.504L41.8969 51.1762C41.944 51.3389 41.9864 51.5421 41.9299 51.7472C41.8293 52.1124 41.5577 52.4074 41.2089 52.5416C40.9081 52.6573 40.6022 52.5494 40.3759 52.4367L39.5141 52.0075C38.8126 51.6579 37.9936 52.2485 38.0981 53.0287L38.152 53.4313C38.164 53.5207 38.1715 53.6186 38.1628 53.7194C38.1288 54.1107 37.9874 54.435 37.7485 54.6735C37.5102 54.9112 37.1877 55.0511 36.8134 55.0973C36.6245 55.1206 36.4527 55.1441 36.2932 55.2003L33.9328 56.0336C32.7071 56.4661 31.4626 55.5048 31.5798 54.216L31.8268 51.496C31.8682 51.0414 32.0814 50.6164 32.4228 50.3082L40.1662 43.3168C40.5729 42.9496 40.7748 42.3749 40.7792 41.807C40.7834 41.2749 40.8193 40.641 40.8557 40.0709C40.892 39.5007 40.9282 38.9989 40.935 38.7138C40.8301 36.4737 41.9612 34.3215 43.7182 32.7377C45.4774 31.1519 47.8786 30.1217 50.342 30.1349ZM52.0356 34.3744C50.5688 34.3666 49.3527 35.5491 49.3193 37.0155C49.2859 38.4819 50.4477 39.6771 51.9145 39.6849C53.3813 39.6928 54.5976 38.5103 54.631 37.0438C54.6645 35.5774 53.5023 34.3823 52.0356 34.3744Z" fill="#1074CC"/>
<path d="M25.3005 19.5001C25.6143 19.4996 25.9285 19.5007 26.2426 19.5033C26.3139 19.504 26.3845 19.5281 26.4391 19.5753C26.4938 19.6225 26.5281 19.6883 26.5346 19.7589C26.5411 19.8295 26.5192 19.9003 26.4741 19.9567C26.4289 20.013 26.3638 20.0497 26.2939 20.0634C25.9855 20.123 25.6768 20.1811 25.3681 20.2377C24.9435 20.3155 24.5186 20.3904 24.0934 20.4623C21.8311 20.85 19.7509 21.8499 18.0683 23.3117C16.0805 25.0339 14.6447 27.3986 14.0676 30.0741C14.0032 30.3712 13.9491 30.671 13.9057 30.976C13.8957 31.0465 13.8624 31.1132 13.8085 31.1613C13.7546 31.2093 13.6848 31.2349 13.614 31.2321C13.5431 31.2292 13.4757 31.1983 13.4257 31.1461C13.3758 31.0939 13.348 31.0247 13.3437 30.9535C13.3253 30.631 13.3212 30.3088 13.3322 29.985C13.4145 27.0659 14.8088 24.1346 17.0854 22.1786C18.9993 20.5067 21.5153 19.5473 24.0063 19.5114C24.4374 19.5047 24.8689 19.5009 25.3005 19.5001Z" fill="#1074CC"/>
<path d="M74 80C80.6274 80 86 74.6274 86 68C86 61.3726 80.6274 56 74 56C67.3726 56 62 61.3726 62 68C62 74.6274 67.3726 80 74 80Z" fill="black"/>
<path d="M81 67.0533C81.5523 67.0533 81.9999 67.5011 82 68.0533C82 72.4172 78.4528 75.9498 74.0833 75.9498C72.8745 75.9498 71.7272 75.6789 70.7007 75.1945L70.8943 75.5817C71.1412 76.0757 70.941 76.6764 70.447 76.9232C69.9531 77.17 69.3525 76.9694 69.1055 76.4755L67.772 73.809C67.758 73.781 67.7458 73.7525 67.7346 73.724C67.7295 73.7109 67.7247 73.6978 67.7202 73.6847C67.593 73.3135 67.697 72.9058 67.9731 72.6405C67.9849 72.6292 67.9971 72.6181 68.0095 72.6073C68.0344 72.5857 68.0605 72.5651 68.0879 72.5458C68.1289 72.5168 68.1727 72.4906 68.219 72.4674L70.8857 71.1342C71.3796 70.8872 71.9804 71.0875 72.2275 71.5814C72.4747 72.0754 72.2747 72.676 71.7808 72.923L71.2095 73.2084C72.0596 73.6803 73.0384 73.9498 74.0833 73.9498C77.3537 73.9498 80 71.3071 80 68.0533C80.0001 67.5011 80.4477 67.0533 81 67.0533Z" fill="white"/>
<path d="M77.5637 59.0455C78.0606 58.8049 78.6589 59.0125 78.8999 59.5094L80.2334 62.2596C80.2442 62.2819 80.2537 62.3046 80.2627 62.3273C80.2654 62.3339 80.268 62.3406 80.2705 62.3473C80.2731 62.3542 80.2754 62.3613 80.2778 62.3683C80.2813 62.3784 80.2849 62.3884 80.2881 62.3986C80.2895 62.403 80.2909 62.4075 80.2922 62.412C80.2955 62.4228 80.2987 62.4336 80.3015 62.4445C80.3032 62.4509 80.3046 62.4575 80.3062 62.464C80.3085 62.474 80.3109 62.484 80.313 62.494C80.345 62.6486 80.3389 62.8059 80.2993 62.9537C80.2978 62.9594 80.2963 62.9651 80.2947 62.9708C80.2877 62.9953 80.2796 63.0195 80.2708 63.0433C80.2684 63.0497 80.2662 63.0561 80.2637 63.0624C80.2482 63.1016 80.2303 63.1398 80.21 63.1769C80.2076 63.1811 80.2053 63.1854 80.2029 63.1896C80.1896 63.2129 80.1753 63.2356 80.1602 63.2579C80.1565 63.2633 80.1529 63.2687 80.1492 63.274C80.1345 63.2947 80.119 63.3148 80.1028 63.3343C80.0984 63.3397 80.0939 63.345 80.0894 63.3502C80.0606 63.3834 80.0297 63.415 79.9963 63.4445C79.9935 63.4469 79.9906 63.4493 79.9878 63.4518C79.9401 63.493 79.888 63.5301 79.8315 63.5624C79.829 63.5638 79.8265 63.5651 79.824 63.5665C79.8139 63.5722 79.8038 63.5778 79.7935 63.5831C79.7893 63.5853 79.7852 63.5876 79.781 63.5897L77.1145 64.923C76.6207 65.1699 76.02 64.9698 75.7727 64.4759C75.5255 63.982 75.7251 63.3811 76.219 63.1342L76.8308 62.828C76.8191 62.8225 76.8072 62.8171 76.7957 62.8112C75.9844 62.3933 75.0629 62.1569 74.0833 62.1569C70.7731 62.1569 68.0001 64.7938 68 68.0087C68 68.5609 67.5523 69.0087 67 69.0087C66.4477 69.0087 66 68.5609 66 68.0087C66.0001 63.606 69.7536 60.1569 74.0833 60.1569C75.2374 60.1569 76.3361 60.4042 77.3271 60.8488L77.1003 60.381C76.8594 59.884 77.0669 59.2862 77.5637 59.0455Z" fill="white"/>
</svg>
