<svg fill="none" viewBox="0 0 12 12" xmlns="http://www.w3.org/2000/svg">
  <g fill="#000" clip-path="url(#a)">
    <path d="M7.5 9a.5.5 0 0 1 0 1h-3a.5.5 0 0 1 0-1zm1-4a.5.5 0 1 1 0 1 .5.5 0 0 1 0-1"/>
    <path fill-rule="evenodd" d="M8.25 0C9.216 0 10 .784 10 1.75v1.424c1.165.412 2 1.52 2 2.826v2.25A1.75 1.75 0 0 1 10.25 10H10v.5A1.5 1.5 0 0 1 8.5 12h-5A1.5 1.5 0 0 1 2 10.5V10h-.25A1.75 1.75 0 0 1 0 8.25V6c0-1.306.835-2.414 2-2.826V1.75C2 .784 2.784 0 3.75 0zM3.5 8a.5.5 0 0 0-.5.5v2a.5.5 0 0 0 .5.5h5a.5.5 0 0 0 .5-.5v-2a.5.5 0 0 0-.5-.5zM3 4a2 2 0 0 0-2 2v2.25c0 .414.336.75.75.75H2v-.5A1.5 1.5 0 0 1 3.5 7h5A1.5 1.5 0 0 1 10 8.5V9h.25a.75.75 0 0 0 .75-.75V6a2 2 0 0 0-2-2zm.75-3a.75.75 0 0 0-.75.75V3h6V1.75A.75.75 0 0 0 8.25 1z" clip-rule="evenodd"/>
  </g>
  <defs>
    <clipPath id="a">
      <path fill="#fff" d="M0 0h12v12H0z"/>
    </clipPath>
  </defs>
</svg>
