<svg width="128" height="96" viewBox="0 0 128 96" fill="none" xmlns="http://www.w3.org/2000/svg">
<path d="M80.4988 16.0312C89.0426 16.0313 95.9687 22.9574 95.9688 31.5012V60.5535C94.1222 59.8068 92.0941 59.3975 90.0002 59.3975C82.213 59.3975 75.3335 65.0563 75.3335 72.6946C75.3335 75.4124 76.2264 77.9026 77.7178 79.9688H47.5012C38.9574 79.9687 32.0313 73.0426 32.0312 64.4988V31.5012C32.0313 22.9574 38.9574 16.0313 47.5012 16.0312H80.4988Z" fill="url(#paint0_linear_12697_81897)"/>
<path d="M78.5798 75.9675C78.5956 76.0107 78.6116 76.0538 78.6279 76.0967C78.6241 76.0866 78.6203 76.0765 78.6165 76.0664L78.5798 75.9675Z" fill="url(#paint1_linear_12697_81897)"/>
<path d="M78.0215 73.335L78.0125 73.1814C78.0151 73.2337 78.0182 73.286 78.0217 73.3381C78.0217 73.3371 78.0216 73.336 78.0215 73.335Z" fill="url(#paint2_linear_12697_81897)"/>
<path d="M89.7812 31.5C91.8867 31.5 93.9533 31.6666 95.9688 31.9863V60.5535C94.1222 59.8067 92.0941 59.3975 90.0002 59.3975C82.213 59.3975 75.3335 65.0563 75.3335 72.6946C75.3335 75.4124 76.2264 77.9026 77.7178 79.9688H51.6995C50.9768 76.9934 50.5938 73.8852 50.5938 70.6875C50.5938 49.0448 68.1386 31.5 89.7812 31.5Z" fill="url(#paint3_radial_12697_81897)"/>
<path d="M78.5798 75.9675C78.5956 76.0107 78.6116 76.0538 78.6279 76.0967C78.6241 76.0866 78.6203 76.0765 78.6165 76.0664L78.5798 75.9675Z" fill="url(#paint4_radial_12697_81897)"/>
<path d="M78.0215 73.335L78.0125 73.1814C78.0151 73.2337 78.0182 73.286 78.0217 73.3381C78.0217 73.3371 78.0216 73.336 78.0215 73.335Z" fill="url(#paint5_radial_12697_81897)"/>
<path d="M50.0781 36.6562C65.7772 36.6562 79.1677 46.5382 84.3701 60.4209C79.1769 62.3819 75.3335 66.9853 75.3335 72.6946C75.3335 75.4124 76.2264 77.9026 77.7178 79.9688H47.5012C38.9574 79.9687 32.0313 73.0426 32.0312 64.4988V41.4067C37.3574 38.3832 43.516 36.6562 50.0781 36.6562Z" fill="url(#paint6_radial_12697_81897)"/>
<path d="M78.5798 75.9675C78.5956 76.0107 78.6116 76.0538 78.6279 76.0967C78.6241 76.0866 78.6203 76.0765 78.6165 76.0664L78.5798 75.9675Z" fill="url(#paint7_radial_12697_81897)"/>
<path d="M78.0215 73.335L78.0125 73.1814C78.0151 73.2337 78.0182 73.286 78.0217 73.3381C78.0217 73.3371 78.0216 73.336 78.0215 73.335Z" fill="url(#paint8_radial_12697_81897)"/>
<path d="M64 20.1562C79.3777 20.1562 91.8438 32.6223 91.8438 48C91.8438 52.0652 90.9721 55.9267 89.4062 59.4084C87.5711 59.4763 85.7956 59.8575 84.1594 60.5024C86.4155 56.8724 87.7188 52.5885 87.7188 48C87.7188 34.9005 77.0995 24.2812 64 24.2812C50.9005 24.2812 40.2812 34.9005 40.2812 48C40.2812 61.0995 50.9005 71.7188 64 71.7188C68.421 71.7188 72.5592 70.5088 76.1023 68.4026C75.6054 69.7357 75.3335 71.1761 75.3335 72.6946C75.3335 72.9416 75.3409 73.1868 75.3555 73.4299C71.8876 74.9809 68.0446 75.8438 64 75.8438C48.6223 75.8438 36.1562 63.3777 36.1562 48C36.1562 32.6223 48.6223 20.1562 64 20.1562Z" fill="white"/>
<path d="M91.8438 47.1175C91.8437 45.0861 91.213 43.3574 90.0928 42.0132C88.9915 40.6917 87.5154 39.8573 85.9858 39.4029C82.9923 38.5136 79.4126 38.9644 76.8289 40.5791C75.8183 41.2107 73.978 42.5803 72.4729 43.8404L75.1208 47.0034C76.5453 45.8109 78.2248 44.571 79.0149 44.0772C80.5562 43.1139 82.9061 42.7913 84.811 43.3572C85.7306 43.6304 86.446 44.0808 86.9238 44.6541C87.3826 45.2047 87.7187 45.9808 87.7188 47.1175H91.8438ZM42.7864 59.7512C46.6294 61.7962 51.3629 61.7283 55.3596 60.4217C59.328 59.1243 63.9438 56.0769 67.3875 53.19L64.7375 50.0288C61.474 52.7648 57.3283 55.4383 54.0779 56.501C50.8384 57.5601 47.3221 57.492 44.7241 56.1096C42.2781 54.8081 40.2812 52.1491 40.2812 47.1175H36.1562C36.1562 53.4295 38.7914 57.6254 42.7864 59.7512Z" fill="white"/>
<path d="M42.9355 34.9277C46.8596 32.6964 51.7397 32.7095 55.6965 34.8401C59.2842 36.7719 63.9712 40.6735 68.1177 44.2458C70.2395 46.0738 72.219 47.8164 73.9626 49.2949C75.7258 50.7899 77.0987 51.8853 77.9836 52.4384C79.6016 53.4496 82.2255 53.9616 84.3162 53.3642C85.3109 53.08 86.1202 52.5661 86.6919 51.7968C87.263 51.0284 87.7188 49.8412 87.7188 47.9997H91.8438C91.8438 50.541 91.2038 52.6412 90.0024 54.2575C88.8017 55.873 87.1617 56.8413 85.4495 57.3305C82.1261 58.2801 78.3047 57.5031 75.7976 55.9362C74.6201 55.2003 73.028 53.9109 71.2947 52.4411C69.5418 50.9548 67.4929 49.1524 65.4253 47.3711C61.1929 43.7246 56.8564 40.1497 53.741 38.4721C50.9947 36.9934 47.6247 37.0065 44.9746 38.5134C42.4074 39.9732 40.2813 42.9789 40.2812 47.9997H36.1562C36.1563 41.6769 38.9286 37.2062 42.9355 34.9277Z" fill="white"/>
<path d="M106.645 65.6815C107.52 65.5859 108.41 65.6166 109.314 65.7738C109.385 65.7862 109.456 65.7994 109.528 65.8134C109.595 65.8269 109.662 65.8543 109.714 65.901C109.766 65.9477 109.799 66.0091 109.806 66.0751C109.813 66.1411 109.794 66.2082 109.754 66.265C109.713 66.3218 109.654 66.363 109.59 66.3908C109.524 66.4197 109.457 66.448 109.39 66.4755C108.542 66.824 107.68 67.0458 106.804 67.1415C106.438 67.1815 106.061 67.1268 105.675 66.9767C105.602 66.9484 105.528 66.9165 105.455 66.8815C105.386 66.8483 105.32 66.8098 105.268 66.7584C105.217 66.707 105.184 66.646 105.177 66.5805C105.17 66.515 105.189 66.4486 105.228 66.3873C105.267 66.326 105.323 66.2739 105.383 66.2267C105.447 66.1766 105.512 66.1299 105.577 66.0866C105.923 65.8565 106.279 65.7215 106.645 65.6815Z" fill="#247A64"/>
<path d="M106.822 57.8329C106.893 57.8325 106.961 57.8572 107.012 57.9032C107.062 57.9493 107.093 58.0145 107.1 58.0856C107.106 58.1567 107.087 58.2278 107.053 58.2894C107.008 58.3713 106.963 58.4518 106.916 58.5324C106.325 59.553 105.609 60.4661 104.825 61.2877C104.497 61.6317 104.104 61.91 103.643 62.13C103.555 62.1717 103.466 62.2107 103.374 62.2484C103.303 62.2771 103.227 62.2978 103.152 62.2951C103.076 62.2923 103.007 62.2667 102.955 62.2196C102.904 62.1725 102.872 62.1063 102.862 62.0314C102.852 61.9565 102.865 61.8789 102.887 61.8055C102.916 61.7094 102.948 61.616 102.983 61.5245C103.168 61.0403 103.43 60.6222 103.762 60.2743C104.557 59.4407 105.441 58.72 106.396 58.0551C106.472 58.0025 106.547 57.9506 106.623 57.8986C106.682 57.8592 106.75 57.8333 106.822 57.8329Z" fill="#247A64"/>
<path d="M99.3448 54.3497C99.4055 54.3146 99.4743 54.3023 99.5396 54.316C99.6048 54.3298 99.6629 54.3689 99.7042 54.4254C99.7455 54.4821 99.7663 54.5517 99.7723 54.6207C99.7785 54.6957 99.7837 54.7705 99.7884 54.8451C99.8482 55.7929 99.7839 56.7145 99.5948 57.6097C99.5157 57.984 99.3429 58.3385 99.0767 58.6732C99.0266 58.7362 98.9731 58.7986 98.9163 58.8602C98.8644 58.9158 98.8076 58.9678 98.7425 59.0011C98.6773 59.0344 98.6084 59.0464 98.5433 59.0326C98.4782 59.0188 98.4202 58.98 98.3741 58.9232C98.328 58.8664 98.2973 58.7958 98.2723 58.724C98.2453 58.6447 98.2214 58.5661 98.201 58.4882C98.0929 58.0744 98.0785 57.6803 98.1575 57.306C98.3466 56.4109 98.66 55.5417 99.098 54.6991C99.1325 54.6328 99.1679 54.5666 99.2039 54.5006C99.2373 54.4399 99.2841 54.3848 99.3448 54.3497Z" fill="#247A64"/>
<path d="M82.8069 81.2044C83.1569 81.437 83.2788 81.9031 83.0614 82.2626L81.3039 85.1695C80.9629 85.7334 81.4567 86.4264 82.0982 86.2757C85.6313 85.4456 93.6482 83.4461 96.0959 81.8533C99.6297 80.0035 102 76.5944 102 72.6948C102 66.8238 96.6274 62.0645 90 62.0645C83.3726 62.0645 78 66.8238 78 72.6948C78 76.1754 79.8883 79.2653 82.8069 81.2044Z" fill="#39B25E"/>
<path d="M94.5401 68.1219C94.8768 67.6841 95.5047 67.6021 95.9424 67.9388C96.3802 68.2755 96.462 68.9034 96.1253 69.3411L89.959 77.3572C89.314 78.1958 88.0611 78.2291 87.3726 77.4258L83.9068 73.3824C83.5474 72.9631 83.5959 72.3316 84.0152 71.9722C84.4345 71.6128 85.0659 71.6613 85.4253 72.0806L88.6241 75.8126L94.5401 68.1219Z" fill="white"/>
<defs>
<linearGradient id="paint0_linear_12697_81897" x1="95.9688" y1="48" x2="34.6094" y2="48" gradientUnits="userSpaceOnUse">
<stop stop-color="#FF2365"/>
<stop offset="0.807145" stop-color="#FEAA36"/>
</linearGradient>
<linearGradient id="paint1_linear_12697_81897" x1="95.9688" y1="48" x2="34.6094" y2="48" gradientUnits="userSpaceOnUse">
<stop stop-color="#FF2365"/>
<stop offset="0.807145" stop-color="#FEAA36"/>
</linearGradient>
<linearGradient id="paint2_linear_12697_81897" x1="95.9688" y1="48" x2="34.6094" y2="48" gradientUnits="userSpaceOnUse">
<stop stop-color="#FF2365"/>
<stop offset="0.807145" stop-color="#FEAA36"/>
</linearGradient>
<radialGradient id="paint3_radial_12697_81897" cx="0" cy="0" r="1" gradientUnits="userSpaceOnUse" gradientTransform="translate(89.7812 70.6875) rotate(90) scale(39.1875 53.3105)">
<stop stop-color="#F374EC"/>
<stop offset="1" stop-color="#F472EC" stop-opacity="0"/>
</radialGradient>
<radialGradient id="paint4_radial_12697_81897" cx="0" cy="0" r="1" gradientUnits="userSpaceOnUse" gradientTransform="translate(89.7812 70.6875) rotate(90) scale(39.1875 53.3105)">
<stop stop-color="#F374EC"/>
<stop offset="1" stop-color="#F472EC" stop-opacity="0"/>
</radialGradient>
<radialGradient id="paint5_radial_12697_81897" cx="0" cy="0" r="1" gradientUnits="userSpaceOnUse" gradientTransform="translate(89.7812 70.6875) rotate(90) scale(39.1875 53.3105)">
<stop stop-color="#F374EC"/>
<stop offset="1" stop-color="#F472EC" stop-opacity="0"/>
</radialGradient>
<radialGradient id="paint6_radial_12697_81897" cx="0" cy="0" r="1" gradientUnits="userSpaceOnUse" gradientTransform="translate(50.0781 73.2656) rotate(90) scale(36.6094)">
<stop stop-color="#00BFFF"/>
<stop offset="0.955744" stop-color="#00BFFF" stop-opacity="0"/>
</radialGradient>
<radialGradient id="paint7_radial_12697_81897" cx="0" cy="0" r="1" gradientUnits="userSpaceOnUse" gradientTransform="translate(50.0781 73.2656) rotate(90) scale(36.6094)">
<stop stop-color="#00BFFF"/>
<stop offset="0.955744" stop-color="#00BFFF" stop-opacity="0"/>
</radialGradient>
<radialGradient id="paint8_radial_12697_81897" cx="0" cy="0" r="1" gradientUnits="userSpaceOnUse" gradientTransform="translate(50.0781 73.2656) rotate(90) scale(36.6094)">
<stop stop-color="#00BFFF"/>
<stop offset="0.955744" stop-color="#00BFFF" stop-opacity="0"/>
</radialGradient>
</defs>
</svg>
