<svg width="56" height="56" viewBox="0 0 56 56" fill="none" xmlns="http://www.w3.org/2000/svg">
<path d="M5.06577 29.2229C4.11367 18.1982 13.61 8.7133 26.2762 8.03805C38.9424 7.36289 49.9822 15.7529 50.9343 26.7776C51.2936 30.9389 50.1635 34.8802 47.9369 38.2117C47.5834 38.7407 47.524 39.4285 47.8187 40.0225L50.2487 44.9213C50.5967 45.6228 50.0203 46.383 49.2562 46.2301L41.7561 44.7299C41.3313 44.6449 40.899 44.7181 40.532 44.9215C37.3965 46.6587 33.7181 47.749 29.7237 47.962C17.0577 48.6371 6.01798 40.2474 5.06577 29.2229Z" fill="#4397E0"/>
<path d="M30.5783 27.5446C32.7174 26.7468 35.2201 28.1587 36.1682 30.6979C37.1162 33.2376 36.1501 35.944 34.0109 36.7429C32.6151 37.2637 31.0652 36.843 29.8928 35.7829C31.0309 35.4118 32.2633 35.1993 33.4338 35.3034C33.5105 35.3112 33.5888 35.3214 33.6643 35.3327C33.7711 35.349 33.8838 35.3203 33.9758 35.2575C34.0677 35.1944 34.1322 35.1013 34.1555 34.9958C34.1785 34.8905 34.1594 34.7791 34.1027 34.6833C34.0456 34.5876 33.9547 34.5141 33.8508 34.4841C33.7633 34.4594 33.6735 34.4371 33.5852 34.4167C32.0125 34.0826 30.4493 34.2201 28.9084 34.5895C28.7193 34.2804 28.5542 33.9462 28.4211 33.5895C27.4733 31.0499 28.4391 28.3432 30.5783 27.5446Z" fill="#034180"/>
<path d="M19.5568 22.1931C20.6195 21.7964 21.9036 22.6048 22.424 23.9987C22.9444 25.3928 22.5043 26.8452 21.4416 27.2419C20.3791 27.6384 19.0959 26.8299 18.5754 25.4362C18.055 24.0423 18.4943 22.5899 19.5568 22.1931Z" fill="#034180"/>
<path d="M18.5637 17.3298C18.7013 17.3358 18.8342 17.3489 18.9699 17.3679C19.0809 17.3864 19.1906 17.4311 19.2746 17.5085C19.3582 17.5855 19.4104 17.6871 19.4201 17.7956C19.4296 17.9045 19.3956 18.0146 19.3264 18.1052C19.2571 18.1958 19.1578 18.2591 19.052 18.2966C18.9433 18.337 18.841 18.3801 18.7385 18.4245C17.824 18.8246 17.1228 19.3711 16.4895 20.0212C15.8702 20.6692 15.2597 21.4408 14.8752 22.279C14.8355 22.3687 14.8006 22.4636 14.7746 22.5466C14.7553 22.649 14.712 22.7486 14.6398 22.8259C14.5678 22.9031 14.4739 22.9513 14.3732 22.9597C14.2728 22.968 14.1718 22.9368 14.0881 22.8727C14.0041 22.8084 13.9443 22.7158 13.9084 22.6179C13.8629 22.466 13.8392 22.3092 13.8254 22.1638C13.7416 20.8433 14.2883 19.644 15.1574 18.7292C16.0268 17.8142 17.3296 17.2605 18.5637 17.3298Z" fill="#034180"/>
<path d="M35.5666 17.1716C36.4977 16.8718 37.5717 17.6191 37.965 18.8405C38.3582 20.0619 37.9223 21.2954 36.9914 21.5954C36.0603 21.8952 34.9863 21.1479 34.593 19.9265C34.1997 18.705 34.6355 17.4714 35.5666 17.1716Z" fill="#034180"/>
<path d="M33.2307 12.8015C34.0785 12.305 35.1033 12.1478 36.0764 12.3249C37.0472 12.4977 37.9936 13.0432 38.5647 13.861C38.6284 13.9512 38.687 14.0432 38.7414 14.1384C38.7959 14.2392 38.8231 14.3569 38.8068 14.4724C38.7905 14.5877 38.7327 14.6915 38.6447 14.7624C38.5566 14.8333 38.4427 14.8668 38.3264 14.8581C38.2099 14.8493 38.1008 14.7983 38.0139 14.7233C37.9478 14.6689 37.8815 14.6172 37.8137 14.5681C37.2055 14.1304 36.5281 13.8868 35.8127 13.7536C35.0983 13.6253 34.3438 13.5931 33.5871 13.7145C33.5031 13.7285 33.4185 13.7448 33.3352 13.7634C33.2321 13.7892 33.1204 13.7881 33.0197 13.7487C32.9194 13.7095 32.8384 13.6363 32.7932 13.5427C32.748 13.4489 32.7419 13.34 32.7736 13.237C32.8055 13.1338 32.8729 13.0446 32.9572 12.9802C33.0446 12.9164 33.1369 12.8568 33.2307 12.8015Z" fill="#034180"/>
<path fill-rule="evenodd" clip-rule="evenodd" d="M26.2229 7.03876C39.3016 6.34164 50.9221 15.0116 51.9309 26.6911C52.311 31.0937 51.113 35.2597 48.7688 38.7673C48.6086 39.007 48.5841 39.3137 48.715 39.5778L51.1447 44.4763C51.855 45.9081 50.654 47.5289 49.0607 47.2106L41.5598 45.7106C41.3734 45.6734 41.1818 45.7042 41.0168 45.7956C37.7467 47.6074 33.9205 48.7397 29.7775 48.9606C16.6988 49.6578 5.07831 40.9878 4.06953 29.3083C3.05793 17.5912 13.1317 7.7368 26.2229 7.03876ZM49.9377 26.863C49.0419 16.4936 38.5826 8.38368 26.3293 9.0368C14.0886 9.68954 5.17058 18.8046 6.0627 29.1364C6.95833 39.506 17.4177 47.6157 29.6711 46.9626C33.5162 46.7575 37.0465 45.709 40.0471 44.0466C40.616 43.7314 41.2896 43.6162 41.9523 43.7487L49.2775 45.2145L46.923 40.4665C46.4648 39.5425 46.559 38.474 47.1057 37.6559C49.2145 34.5006 50.2762 30.783 49.9377 26.863Z" fill="#034180"/>
</svg>
