<svg width="128" height="96" viewBox="0 0 128 96" fill="none" xmlns="http://www.w3.org/2000/svg">
<path d="M77.1677 56.8376C75.9988 58.9433 75.333 61.367 75.333 63.946C75.3331 69.1013 77.993 73.6351 82.0152 76.2505H38.4492C33.6972 76.2505 30.48 71.4087 32.3211 67.0278L36.6038 56.8376H77.1677Z" fill="#4397E0"/>
<path d="M85.3208 20.0195C88.5331 20.0195 91.1372 22.6237 91.1372 25.8359V49.3228C90.7619 49.294 90.3825 49.2793 89.9998 49.2793C84.479 49.2793 79.6707 52.3297 77.1682 56.8369H36.6895V25.8359C36.6895 22.6237 39.2936 20.0196 42.5059 20.0195H85.3208Z" fill="#4397E0"/>
<path d="M83.7195 23.0312C86.014 23.0313 87.874 24.8913 87.874 27.1858V49.4314C85.2392 49.8139 82.8314 50.8969 80.8455 52.4854H42.4458C41.0691 52.4853 39.9531 51.3691 39.9531 49.9924V27.1858C39.9531 24.8913 41.8132 23.0312 44.1077 23.0312H83.7195Z" fill="#FBF7FF"/>
<path d="M32.2243 67.5107C33.3408 69.8075 35.8326 72.4852 39.0095 72.9873C41.3095 73.3506 64.6572 73.407 78.6638 73.2519C79.6193 74.4146 80.7503 75.4274 82.0161 76.2505H39.0095C34.3697 76.2505 30.833 71.8235 32.2243 67.5107Z" fill="#1074CC"/>
<path d="M33.591 31.8545C33.6422 31.8545 33.6918 31.8743 33.7392 31.9092C33.7865 31.9441 33.8297 31.9914 33.8723 32.0408C33.891 32.0628 33.9089 32.0851 33.9258 32.1072C34.0775 32.306 34.1535 32.505 34.1535 32.7038C34.1535 32.9027 34.0776 33.1017 33.9258 33.3005C33.9089 33.3226 33.891 33.3449 33.8723 33.3669C33.8297 33.4163 33.7865 33.4636 33.7392 33.4985C33.6918 33.5334 33.6422 33.5532 33.591 33.5532C33.5399 33.5532 33.4903 33.5334 33.4429 33.4985C33.3956 33.4636 33.3524 33.4163 33.3098 33.3669C33.2911 33.3449 33.2732 33.3226 33.2563 33.3005C33.1045 33.1016 33.0286 32.9027 33.0285 32.7038C33.0285 32.505 33.1045 32.3061 33.2563 32.1072C33.2732 32.0851 33.2911 32.0628 33.3098 32.0408C33.3524 31.9914 33.3956 31.9441 33.4429 31.9092C33.4903 31.8743 33.5399 31.8545 33.591 31.8545Z" fill="#1074CC"/>
<path d="M38.8794 17.0869C39.1561 17.0702 39.4311 17.0731 39.7043 17.095C39.7736 17.1011 39.8419 17.1274 39.8943 17.175C39.9466 17.2226 39.9791 17.287 39.9844 17.3555C39.9896 17.4239 39.9674 17.4926 39.9231 17.5476C39.8787 17.6027 39.8153 17.6393 39.7478 17.656C39.5022 17.7179 39.264 17.7898 39.031 17.8716C37.7925 18.3072 36.7313 19.0098 35.8694 19.9009C34.7825 21.021 34.123 22.5426 34.0635 24.1296C34.0056 25.6831 33.9218 27.2366 33.812 28.79C33.7937 29.0493 33.7746 29.3086 33.7549 29.5679C33.7494 29.6396 33.7189 29.7085 33.6667 29.7593C33.6146 29.81 33.5453 29.8385 33.4736 29.8386C33.4019 29.8386 33.3324 29.81 33.2803 29.7593C33.2281 29.7085 33.1979 29.6396 33.1924 29.5679C33.1726 29.3086 33.1534 29.0493 33.135 28.79C33.025 27.2366 32.9409 25.6831 32.8828 24.1296C32.807 22.2434 33.5459 20.3145 34.8801 18.9458C35.9319 17.848 37.4064 17.1692 38.8794 17.0869Z" fill="#1074CC"/>
<path d="M71.8795 62.2188C72.2502 62.2188 72.5759 62.4643 72.6781 62.8206L74.0495 67.6018C74.354 68.6637 73.5568 69.7217 72.4521 69.7217H55.5712C54.4594 69.7217 53.661 68.651 53.9784 67.5854L55.4005 62.8123C55.5055 62.4601 55.8294 62.2188 56.1969 62.2188H71.8795Z" fill="#75B6EB"/>
<path d="M85.1696 19.3984C88.8585 19.3984 91.8881 22.2569 91.8881 25.9885V49.4001C91.3953 49.3368 90.8949 49.2981 90.3881 49.2849V25.9885C90.3881 23.1277 88.073 20.8984 85.1696 20.8984H42.6586C39.7552 20.8985 37.4403 23.1277 37.4403 25.9885V56.8376C37.4403 56.9348 37.4214 57.0311 37.3847 57.1211C36.0358 60.4242 34.734 63.6571 33.2623 66.9307C32.4045 69.2951 32.8824 71.3468 34.2609 72.8274C35.6696 74.3404 38.1073 75.3464 41.2973 75.3464H80.7719C81.4697 75.912 82.2204 76.415 83.0155 76.8464H41.2973C37.8173 76.8464 34.9314 75.749 33.163 73.8496C31.3681 71.9218 30.8139 69.2592 31.8605 66.3965L31.8808 66.3464C33.3247 63.1367 34.603 59.9663 35.9403 56.6904V25.9885C35.9403 22.257 38.9697 19.3985 42.6586 19.3984H85.1696Z" fill="#045EB2"/>
<path d="M34.9791 70.7852C35.053 70.7863 35.1234 70.8166 35.1759 70.8679C35.8538 71.5307 36.6664 72.0448 37.5429 72.3716C38.353 72.6745 39.2169 72.8174 40.0719 72.7937C48.0394 72.5899 56.007 72.488 63.9745 72.488C68.701 72.488 73.4276 72.524 78.1542 72.5957C78.4775 73.0378 78.8251 73.461 79.1947 73.8635C74.1213 73.9462 69.0479 73.988 63.9745 73.988C56.007 73.988 48.0394 73.8862 40.0719 73.6824C39.1021 73.6595 38.142 73.4446 37.2631 73.0574C36.312 72.6395 35.4566 72.0198 34.7697 71.2571C34.7206 71.2025 34.6935 71.1309 34.6955 71.0571C34.6975 70.9833 34.7282 70.9133 34.7811 70.8625C34.8341 70.8118 34.9054 70.784 34.9791 70.7852Z" fill="#045EB2"/>
<path d="M71.2826 61.937C71.8831 61.9079 72.5019 62.1823 72.893 62.668C73.0668 62.8813 73.1972 63.1332 73.2719 63.4019C73.6681 64.7805 74.0566 66.1609 74.4376 67.5432C74.8387 68.854 73.7184 70.374 72.2912 70.3545C69.0679 70.4335 65.8445 70.4731 62.6212 70.4731C60.2713 70.4731 57.9211 70.4212 55.5712 70.3174C54.1172 70.3169 53.0689 68.7084 53.5687 67.4648C53.6281 67.3037 53.6878 67.1426 53.7477 66.9817C53.9309 66.4893 54.1166 65.9975 54.3048 65.5066C54.3306 65.4394 54.3795 65.3821 54.444 65.3484C54.5084 65.3147 54.583 65.3069 54.6517 65.3274C54.7205 65.3479 54.7786 65.395 54.8141 65.4585C54.8496 65.522 54.8591 65.5969 54.8439 65.6672C54.7327 66.1811 54.6192 66.6944 54.5031 67.2068C54.4651 67.3742 54.4268 67.5417 54.3883 67.709C54.2057 68.4829 54.8967 69.2073 55.5712 69.1289C57.9211 69.0251 60.2713 68.9731 62.6212 68.9731C65.8445 68.9731 69.0679 69.0127 72.2912 69.0918C72.9255 69.1431 73.527 68.4763 73.3756 67.7996C73.0842 66.3956 72.8003 64.9899 72.5241 63.5823C72.4926 63.4101 72.4258 63.2436 72.3266 63.0952C72.1037 62.758 71.7095 62.5257 71.2826 62.5032C71.2708 62.5026 71.2588 62.502 71.247 62.5015C71.1742 62.4979 71.1043 62.4676 71.0529 62.4153C71.0015 62.3629 70.9723 62.2929 70.9723 62.2202C70.9723 62.1475 71.0014 62.0773 71.0529 62.0249C71.1043 61.9725 71.1742 61.9426 71.247 61.939C71.2588 61.9384 71.2708 61.9376 71.2826 61.937Z" fill="#045EB2"/>
<path d="M64.976 61.7207C66.4029 61.7207 67.83 61.7725 69.257 61.8762C69.5223 61.8955 69.7878 61.9166 70.0531 61.9395C70.1245 61.9457 70.193 61.9762 70.2435 62.0283C70.294 62.0804 70.3224 62.1493 70.3224 62.2207C70.3224 62.2921 70.2941 62.3612 70.2435 62.4133C70.193 62.4654 70.1245 62.4958 70.0531 62.502C69.7878 62.5248 69.5223 62.5459 69.257 62.5652C67.83 62.6689 66.4029 62.7207 64.976 62.7207C62.2527 62.7207 59.5293 62.6795 56.806 62.5967C56.3205 62.5722 55.8209 62.8525 55.5856 63.3062C55.558 63.3583 55.5336 63.4124 55.5128 63.4683C55.4471 63.6495 55.381 63.8306 55.3148 64.0117C55.2897 64.0804 55.2397 64.1382 55.174 64.1714C55.1083 64.2045 55.0326 64.2107 54.963 64.1885C54.8935 64.1662 54.8353 64.1171 54.8012 64.052C54.767 63.9868 54.7598 63.9108 54.7792 63.8403C54.8306 63.6545 54.8822 63.4684 54.934 63.2827C54.9575 63.2001 54.9865 63.1187 55.0209 63.0396C55.3113 62.3511 56.0341 61.8565 56.806 61.845C59.5293 61.7622 62.2527 61.7207 64.976 61.7207Z" fill="#045EB2"/>
<path d="M56.9457 56.0039C62.0635 56.0039 67.1814 56.1304 72.2992 56.3835C72.8678 56.4117 73.4365 56.4414 74.005 56.4727C74.0776 56.4767 74.1473 56.5068 74.1986 56.5591C74.2499 56.6114 74.2787 56.6814 74.2787 56.7539C74.2787 56.8264 74.2499 56.8964 74.1986 56.9487C74.1473 57.0011 74.0776 57.0311 74.005 57.0352C73.4365 57.0664 72.8678 57.0961 72.2992 57.1243C67.1814 57.3774 62.0635 57.5039 56.9457 57.5039C51.8279 57.5039 46.7099 57.3774 41.5922 57.1243C41.0236 57.0961 40.4547 57.0664 39.8861 57.0352C39.8136 57.0311 39.7438 57.0011 39.6925 56.9487C39.6412 56.8964 39.6124 56.8264 39.6124 56.7539C39.6124 56.6814 39.6412 56.6114 39.6925 56.5591C39.7438 56.5068 39.8136 56.4767 39.8861 56.4727C40.4547 56.4414 41.0236 56.4117 41.5922 56.3835C46.7099 56.1304 51.8279 56.0039 56.9457 56.0039Z" fill="#045EB2"/>
<path d="M44.1088 22.3218C57.3127 22.3708 70.5167 22.4655 83.7206 22.606C85.592 22.599 87.3626 23.8719 87.9655 25.6167C88.146 26.12 88.2343 26.6548 88.2282 27.1868C88.2052 29.1378 88.1814 31.089 88.1564 33.04C88.1554 33.1141 88.1255 33.1854 88.0729 33.2378C88.0203 33.2901 87.9491 33.3195 87.8751 33.3196C87.8011 33.3196 87.7298 33.2902 87.6771 33.2378C87.6245 33.1854 87.5948 33.1141 87.5939 33.04C87.5689 31.089 87.5448 29.1378 87.5219 27.1868C87.5163 26.7366 87.4313 26.2905 87.2709 25.8738C86.7318 24.4271 85.2425 23.4188 83.7206 23.4585C70.5167 23.5989 57.3127 23.6936 44.1088 23.7427C42.2747 23.7061 40.6341 25.3647 40.6852 27.1868C40.6978 32.0981 40.7042 37.0096 40.7042 41.9209C40.7042 44.8887 40.702 47.8567 40.6974 50.8245C40.6831 51.3129 41.125 51.7588 41.6161 51.7478C54.9225 51.7746 68.2289 51.848 81.5353 51.9675C81.0767 52.2922 80.6377 52.6427 80.2201 53.0166C67.3521 53.1293 54.4841 53.1987 41.6161 53.2246C40.337 53.2566 39.1824 52.1063 39.2111 50.8245C39.2065 47.8567 39.2042 44.8887 39.2042 41.9209C39.2042 37.0096 39.2106 32.0981 39.2233 27.1868C39.1669 24.583 41.5171 22.2508 44.1088 22.3218Z" fill="#045EB2"/>
<path d="M87.8751 36.0151C87.9492 36.0152 88.0203 36.0448 88.0729 36.0972C88.1255 36.1495 88.1554 36.2206 88.1564 36.2947C88.1876 38.7364 88.2174 41.1782 88.2455 43.6199C88.2676 45.5386 88.2883 47.4574 88.3085 49.3762C88.0164 49.4098 87.7269 49.452 87.4403 49.5024C87.4609 47.5416 87.4822 45.5807 87.5048 43.6199C87.5329 41.1782 87.5626 38.7364 87.5939 36.2947C87.5949 36.2207 87.6246 36.1495 87.6771 36.0972C87.7298 36.0448 87.8011 36.0152 87.8751 36.0151Z" fill="#045EB2"/>
<path d="M68.5148 32.0887C68.51 32.0794 68.5179 32.0686 68.5286 32.0702C69.0017 32.1385 69.4977 32.293 70.0599 32.5758C70.3785 32.736 70.6759 32.9511 70.9598 33.2211C71.2256 33.4739 71.5183 34.0331 71.2273 34.2582C70.9984 34.4353 70.7466 34.6567 70.4491 34.9666C70.1515 35.2765 69.9226 35.6529 69.6937 36.1399C69.4648 36.6269 69.3732 37.1803 69.3732 37.8223C69.3732 38.575 69.5106 39.1948 69.7852 39.7261C70.0599 40.2574 70.3804 40.6559 70.7466 40.988C71.1129 41.32 71.4333 41.5414 71.708 41.6742C72.0074 41.819 72.1114 42.0925 71.9953 42.3973C71.9329 42.5609 71.8669 42.7315 71.8225 42.8475C71.5936 43.4452 71.2502 44.0651 70.7466 44.7735C70.3117 45.3933 69.831 45.9468 69.3274 46.4781C68.8239 47.0094 68.2058 47.2529 67.5191 47.2529C67.0384 47.2529 66.6493 47.1865 66.3517 47.0536C66.0541 46.9208 65.7337 46.788 65.4132 46.6552C65.0928 46.5223 64.6578 46.4559 64.1085 46.4559C63.5591 46.4559 63.1471 46.5223 62.7809 46.6552C62.4146 46.788 62.0942 46.9208 61.7737 47.0758C61.4532 47.2307 61.087 47.275 60.6521 47.275C59.9883 47.275 59.416 47.0315 58.9353 46.5223C58.4546 46.0132 57.9281 45.4155 57.4246 44.7292C56.8294 43.888 56.3029 42.8918 55.8909 41.6964C55.4789 40.501 55.25 39.2834 55.25 38.0658C55.25 36.7597 55.5018 35.675 56.0054 34.7674C56.509 33.8597 57.1728 33.2177 57.9739 32.7529C58.7751 32.288 59.5991 32.0666 60.469 32.0666C60.9268 32.0666 61.3617 32.133 61.7508 32.288C62.1399 32.4429 62.5291 32.5758 62.8953 32.7307C63.2615 32.8857 63.5591 32.9521 63.8567 32.9521C64.1543 32.9521 64.4518 32.8635 64.8181 32.7086C65.1843 32.5536 65.5963 32.3987 66.0541 32.2437C66.512 32.0887 66.9926 32.0223 67.5191 32.0223C67.7215 32.0223 68.0343 32.0437 68.5009 32.1074C68.5116 32.1088 68.5197 32.0981 68.5148 32.0887ZM65.4476 31.325C65.44 31.3323 65.4312 31.3385 65.4217 31.3433C64.9005 31.6041 64.4017 31.7345 63.9254 31.7345C63.8797 31.7345 63.834 31.7345 63.7883 31.7318C63.7066 31.7269 63.6538 31.655 63.6278 31.5796C63.6049 31.5132 63.6278 31.4468 63.6278 31.3582C63.6278 30.849 63.7422 30.3399 63.9711 29.8529C64.2 29.3658 64.4747 28.9674 64.7723 28.6353C65.1385 28.1926 65.6192 27.8384 66.1915 27.5506C66.6119 27.3392 67.0199 27.1994 67.4064 27.1314C67.6404 27.0902 67.8625 27.2531 67.8625 27.4842C67.8625 27.9933 67.7709 28.5025 67.5649 28.9895C67.3589 29.4765 67.0842 29.9193 66.7637 30.2956C66.4235 30.6905 65.9934 31.0418 65.4733 31.3067C65.4639 31.3115 65.4551 31.3177 65.4476 31.325Z" fill="#682A7A"/>
<path d="M78 64C78 57.3726 83.3726 52 90 52C96.6274 52 102 57.3726 102 64C102 70.6274 96.6274 76 90 76C83.3726 76 78 70.6274 78 64Z" fill="#F05F2B"/>
<path fill-rule="evenodd" clip-rule="evenodd" d="M90 53.5332C84.2194 53.5332 79.5332 58.2194 79.5332 64C79.5332 69.7807 84.2194 74.4669 90 74.4669C95.7807 74.4669 100.467 69.7807 100.467 64C100.467 58.2194 95.7807 53.5332 90 53.5332ZM80.967 64C80.967 59.0112 85.0112 54.967 90 54.967C94.9888 54.967 99.0331 59.0112 99.0331 64C99.0331 68.4193 95.8595 72.0974 91.6671 72.8796C90.5775 70.3778 89.4423 67.3819 90.5533 67.0508C89.2307 64.6663 89.4981 63.1 92.2431 63.5828L92.2473 63.5833C92.5549 63.6183 92.7881 63.6448 92.861 63.5984C93.2327 63.3618 93.0021 58.1669 89.775 57.4613C86.8051 53.787 83.9784 57.9779 85.4122 57.6911C86.5592 57.4044 87.411 57.6691 87.3715 57.6805C82.3052 58.3193 84.6609 66.3014 85.9612 70.7073C86.14 71.3134 86.2989 71.8517 86.4158 72.294C83.21 70.9068 80.967 67.7154 80.967 64Z" fill="white"/>
<path d="M93.9673 71.566C93.9354 71.7719 93.8644 71.9092 93.7381 71.9284C93.4986 71.965 92.4272 71.7197 91.8183 71.4882C91.749 71.8067 90.1168 72.1082 89.8584 71.6804C89.2661 72.1924 88.1313 72.9351 87.8941 72.7795C87.4397 72.4821 87.0123 70.1914 87.3543 69.7073C87.8738 69.2351 88.9659 69.7489 89.7321 70.0203C89.9919 69.581 91.2498 69.4144 91.5109 69.775C92.1989 69.252 93.3471 68.5144 93.459 68.6489C94.0172 69.3216 94.0877 70.9222 93.9669 71.5664L93.9673 71.566Z" fill="#4CBA3C"/>
<path fill-rule="evenodd" clip-rule="evenodd" d="M88.147 64.6533C88.3812 62.9918 91.5198 63.5116 92.9233 63.3249C93.9461 63.2064 94.7052 62.9547 95.2108 62.7584C96.3716 62.2816 96.5693 62.7548 96.0017 63.4974C94.3991 65.3973 90.8349 64.0145 90.1968 64.9969C90.0103 65.2879 90.1545 65.9729 91.6205 66.1889C93.6014 66.4799 95.2287 65.8379 95.4296 66.226C94.978 68.2997 87.4572 67.5937 88.1461 64.6537L88.147 64.6533Z" fill="#FFCC33"/>
<path d="M92.1543 59.8598C91.9467 59.41 90.8793 59.4132 90.6753 59.8424C90.6567 59.9311 90.731 59.9077 90.8726 59.8631C91.1208 59.785 91.5756 59.6418 92.0995 59.9221C92.1408 59.9399 92.1808 59.8969 92.1543 59.8598Z" fill="#14307E"/>
<path d="M86.9387 59.9678C86.7405 59.9535 86.4188 59.9303 86.1529 60.078C85.7628 60.2441 85.637 60.423 85.5615 60.5457C85.5336 60.591 85.4258 60.5864 85.4258 60.5329C85.4523 59.8172 86.6657 59.4722 87.107 59.917C87.1605 59.9838 87.0819 59.9781 86.9387 59.9678Z" fill="#14307E"/>
<path d="M91.7742 62.3669C90.9576 62.3628 90.9576 61.104 91.7742 61.0999C92.5907 61.104 92.5907 62.3628 91.7742 62.3669Z" fill="#14307E"/>
<path d="M87.6362 62.1717C87.62 63.1426 86.1967 63.1426 86.1805 62.1717C86.185 61.2052 87.6317 61.2057 87.6362 62.1717Z" fill="#14307E"/>
</svg>
