<svg width="96" height="96" viewBox="0 0 96 96" fill="none" xmlns="http://www.w3.org/2000/svg">
<path d="M63.4497 20.5941C72.0361 20.1354 79.2497 26.974 79.2497 35.5726V45.1524C81.9612 45.4578 83.8288 48.1438 83.0647 50.8475L76.5603 73.8602C76.0125 75.7981 74.2436 77.1363 72.2297 77.1363H63.8525C60.8996 77.1363 58.7471 74.3401 59.5022 71.4854L60.5083 67.6815L25.7121 67.6358C19.2486 67.6273 14.1214 62.1869 14.4958 55.7342L15.8064 33.1531C16.1384 27.4333 20.716 22.8768 26.4372 22.5711L63.4497 20.5941Z" fill="#F5FBFE"/>
<path d="M60.5564 67.4994H60.1421C60.2344 67.6553 60.3299 67.8171 60.4282 67.9832L59.5022 71.485C58.8411 73.984 60.4083 76.4378 62.79 77.0106C62.3095 77.2347 61.7027 77.3558 60.9895 77.3558L47.1592 77.3829L47.1582 77.3827L34.5676 77.4076C34.3816 77.4079 34.241 77.2391 34.2751 77.0562C34.4986 75.8614 35.5004 74.9681 36.7129 74.8824L42.5017 74.4732C43.3919 74.4103 43.8625 73.3898 43.3323 72.672L39.5103 67.4994H25.106C21.1529 67.4993 17.5356 65.2762 15.75 61.7494H62.0776L60.5564 67.4994Z" fill="#4397E0"/>
<path d="M63.4495 20.5941C72.036 20.1352 79.25 26.9738 79.25 35.5726V45.1519C79.0812 45.1329 78.909 45.1229 78.7341 45.1229H74.9236L75.4773 33.7437C75.8371 26.348 69.7254 20.2628 62.3323 20.6537L63.4495 20.5941Z" fill="#4397E0"/>
<path d="M62.325 20.6541L51.8669 21.2132L62.3323 20.6537C62.3298 20.6538 62.3274 20.654 62.325 20.6541Z" fill="#4397E0"/>
<path d="M81.019 45.123C83.9653 45.1231 86.1167 47.9076 85.3733 50.7585L78.6499 76.5439C78.1332 78.5257 76.3434 79.9084 74.2954 79.9084H63.0688C60.1225 79.9084 57.971 77.1242 58.7144 74.2732L65.0342 50.0356C65.1912 49.4333 65.4291 48.869 65.7339 48.3528C65.5723 48.6845 65.4409 49.0354 65.3438 49.4026L59.5022 71.4851C58.7471 74.3398 60.8996 77.1357 63.8525 77.1357H72.2297C74.2436 77.1357 76.0125 75.7978 76.5603 73.8599L83.0647 50.8469C83.8763 47.9751 81.7185 45.123 78.7341 45.123H81.019Z" fill="#75B6EB"/>
<path d="M79.0342 65.091C79.0988 65.0562 79.1741 65.0478 79.244 65.068C79.3138 65.0883 79.3731 65.1359 79.409 65.1999C79.4449 65.2639 79.4544 65.3392 79.4376 65.4101C79.365 65.7149 79.2917 66.0197 79.2176 66.3241C78.6356 68.7145 78.006 71.0912 77.3289 73.454C77.265 73.6767 77.1881 73.8953 77.0982 74.1088C76.4427 75.6851 75.0383 76.8919 73.4383 77.3754C72.8899 77.5445 72.3177 77.6307 71.7476 77.6327C70.8733 77.6347 69.9987 77.6354 69.1243 77.6366C68.8113 77.6371 68.4981 77.6374 68.1851 77.6381C68.1124 77.6382 68.0417 77.609 67.9888 77.5578C67.936 77.5064 67.9051 77.4371 67.9031 77.3644C67.9012 77.2917 67.9283 77.221 67.9783 77.1669C68.0284 77.1129 68.0973 77.0796 68.17 77.0758C68.4827 77.0598 68.7955 77.0435 69.1082 77.0273C69.9814 76.9818 70.8547 76.9358 71.7278 76.891C72.2255 76.8648 72.7167 76.7663 73.1819 76.6C74.5457 76.1171 75.6352 75.0238 76.1766 73.7209C76.2514 73.5431 76.3161 73.3614 76.3707 73.1759C77.0641 70.8179 77.8053 68.4734 78.5938 66.143C78.6942 65.8462 78.7956 65.5496 78.8975 65.2533C78.9213 65.1844 78.9696 65.1258 79.0342 65.091Z" fill="#045EB2"/>
<path fill-rule="evenodd" clip-rule="evenodd" d="M63.4097 19.8451C72.4251 19.3638 79.9988 26.5447 79.9991 35.5729V44.3737H80.3721C84.1368 44.3738 86.8859 47.9315 85.9361 51.5744L79.4732 76.36C78.8129 78.8921 76.526 80.659 73.9092 80.6591H63.7161C61.5564 80.6591 59.7313 79.488 58.7466 77.8019L34.7527 77.7812C33.9939 77.7803 33.4304 77.0774 33.595 76.3366C33.8616 75.1382 34.8993 74.2674 36.1258 74.2126L42.4307 73.9313C42.735 73.9175 42.9029 73.5716 42.7254 73.3241L39.1927 68.4037L25.7112 68.3861C18.8168 68.3769 13.3477 62.5737 13.7471 55.6908L15.0574 33.11C15.4117 27.0091 20.295 22.1482 26.3975 21.8222L63.4097 19.8451ZM70.9517 45.8737C68.5624 45.8737 66.4743 47.487 65.8714 49.799L59.6036 73.8368C58.9015 76.5294 60.9335 79.1591 63.7161 79.1591H73.9092C75.8434 79.159 77.5337 77.8531 78.0218 75.9816L84.4847 51.196C85.1867 48.5034 83.1547 45.8738 80.3721 45.8737H70.9517ZM43.9439 72.4491C44.8163 73.6644 43.9919 75.363 42.4974 75.4298L36.1924 75.7108C35.7845 75.7292 35.4231 75.9495 35.2154 76.2814L58.1336 76.3009C58.0449 75.9473 57.9898 75.5823 57.9708 75.2101C55.8762 75.2306 53.7791 75.1444 51.6805 74.9508C51.4271 74.9275 51.1732 74.9024 50.9197 74.8759C50.8496 74.8684 50.7815 74.8388 50.731 74.788C50.6805 74.7371 50.6513 74.6696 50.65 74.5995C50.6487 74.5295 50.6754 74.461 50.7239 74.4084C50.7725 74.3558 50.8395 74.3234 50.9092 74.3134C51.1615 74.2774 51.4143 74.2429 51.6666 74.2101C53.7931 73.9335 55.9223 73.7678 58.053 73.7128C58.0666 73.7123 58.0799 73.7112 58.0928 73.7099C58.1108 73.6261 58.1303 73.5423 58.1522 73.4584L58.3633 72.6481C57.7181 71.3433 57.1174 70.0138 56.5628 68.6596C56.5311 68.582 56.4995 68.5041 56.4681 68.4264L41.0408 68.4062L43.9439 72.4491ZM57.2977 68.4274C57.8345 69.1994 58.3524 69.9819 58.8519 70.7743L59.4632 68.4301L57.2977 68.4274ZM78.4991 35.5729C78.4988 27.4046 71.6465 20.9077 63.4898 21.3432L26.4776 23.3202C21.1379 23.6055 16.865 27.8586 16.555 33.1969L15.2444 55.7777C14.8949 61.8002 19.6806 66.8781 25.7132 66.8861L59.8541 66.9306L64.42 49.4206C65.1951 46.448 67.8797 44.3737 70.9517 44.3737H74.629C74.7439 42.5269 74.8762 40.6782 75.0425 38.8256C75.0855 38.3514 75.1306 37.8767 75.1783 37.3905C75.1855 37.3187 75.2179 37.2502 75.2718 37.2011C75.3257 37.1521 75.3966 37.1257 75.4686 37.1281C75.5405 37.1307 75.6094 37.1617 75.6597 37.2143C75.7101 37.2669 75.7379 37.3375 75.7403 37.4096C75.7551 37.8973 75.7695 38.3732 75.7828 38.8485C75.8339 40.689 75.8717 42.5312 75.8809 44.3737H78.4991V35.5729Z" fill="#045EB2"/>
<path fill-rule="evenodd" clip-rule="evenodd" d="M74.7016 55.1688C75.2299 55.1688 75.6343 55.4434 75.7578 55.8817L75.7797 55.9677C75.9032 56.4059 76.3076 56.6805 76.8359 56.6806H77.162C78.2487 56.6806 78.8854 57.5172 78.5839 58.5492L77.0688 63.7355C76.7435 64.8486 75.5295 65.7511 74.3574 65.7511H65.8671C64.695 65.7511 64.0083 64.8486 64.3334 63.7355L65.8486 58.5492C66.1501 57.5173 67.2753 56.6806 68.362 56.6806H68.6884C69.1997 56.6805 69.7449 56.4232 70.1235 56.0094L70.2704 55.84C70.6491 55.4261 71.1944 55.1689 71.7057 55.1688H74.7016ZM72.3205 58.1923C70.5621 58.1923 68.7412 59.5461 68.2534 61.216C67.7657 62.8857 68.7956 64.2394 70.5539 64.2394C72.3122 64.2393 74.1331 62.8857 74.621 61.216C75.1089 59.5462 74.0788 58.1923 72.3205 58.1923Z" fill="#1074CC"/>
<path d="M37.3381 49.9628C37.9037 49.9521 38.3391 50.4016 38.3102 50.9667L38.206 53.0128C38.1771 53.5778 37.6952 54.0446 37.1296 54.0553L35.081 54.0939C34.5155 54.1045 34.0802 53.6552 34.1088 53.0902L34.2133 51.0438C34.2421 50.4788 34.7241 50.0121 35.2897 50.0014L37.3381 49.9628Z" fill="#1074CC"/>
<path fill-rule="evenodd" clip-rule="evenodd" d="M38.8532 45.3344C41.2573 45.2891 43.107 47.1992 42.9846 49.6007L42.7497 54.205C42.6272 56.6065 40.579 58.5901 38.175 58.6354L33.5661 58.7223C31.1621 58.7676 29.3124 56.8574 29.4348 54.4559L29.6694 49.8517C29.7918 47.4502 31.84 45.4666 34.2441 45.4213L38.8532 45.3344ZM34.1137 47.9791C33.1239 47.9978 32.2804 48.8145 32.2299 49.8034L31.9953 54.4076C31.945 55.3964 32.7066 56.1831 33.6965 56.1644L38.3054 56.0775C39.2952 56.0589 40.1386 55.2421 40.1891 54.2533L40.424 49.6491C40.4744 48.6602 39.7127 47.8736 38.7228 47.8922L34.1137 47.9791Z" fill="#1074CC"/>
<path d="M53.5495 49.8551C54.1152 49.8445 54.5505 50.2939 54.5217 50.859L54.4174 52.9054C54.3885 53.4704 53.9066 53.9372 53.341 53.9479L51.2924 53.9865C50.7269 53.9971 50.2918 53.5475 50.3205 52.9826L50.4247 50.9362C50.4536 50.3711 50.9355 49.9044 51.5012 49.8937L53.5495 49.8551Z" fill="#1074CC"/>
<path fill-rule="evenodd" clip-rule="evenodd" d="M55.0646 45.2267C57.4687 45.1814 59.3184 47.0915 59.196 49.4931L58.9611 54.0973C58.8386 56.4988 56.7905 58.4827 54.3864 58.528L49.7775 58.6146C47.3735 58.6599 45.5238 56.7498 45.6462 54.3483L45.8808 49.744C46.0033 47.3425 48.0515 45.359 50.4555 45.3136L55.0646 45.2267ZM50.3251 47.8715C49.3352 47.8902 48.4918 48.7071 48.4413 49.6959L48.2067 54.3002C48.1565 55.2889 48.9181 56.0754 49.9079 56.0568L54.517 55.9699C55.5069 55.9511 56.3501 55.1344 56.4006 54.1456L56.6354 49.5414C56.6858 48.5525 55.9242 47.7659 54.9343 47.7846L50.3251 47.8715Z" fill="#1074CC"/>
<path d="M38.1728 33.5919C38.7384 33.5813 39.1735 34.0308 39.1447 34.5958L39.0405 36.642C39.0116 37.207 38.5297 37.674 37.9641 37.6847L35.9157 37.7233C35.3501 37.7339 34.9148 37.2844 34.9435 36.7194L35.0478 34.673C35.0767 34.108 35.5586 33.6412 36.1242 33.6305L38.1728 33.5919Z" fill="#1074CC"/>
<path fill-rule="evenodd" clip-rule="evenodd" d="M39.6877 28.9635C42.0917 28.9182 43.9414 30.8284 43.819 33.2299L43.5844 37.8344C43.4619 40.2359 41.4137 42.2194 39.0097 42.2648L34.4006 42.3517C31.9966 42.397 30.1469 40.4868 30.2692 38.0853L30.5038 33.4808C30.6264 31.0794 32.6746 29.0958 35.0786 29.0504L39.6877 28.9635ZM34.9482 31.6083C33.9584 31.627 33.1152 32.4438 33.0646 33.4325L32.8298 38.037C32.7794 39.0258 33.5411 39.8124 34.5309 39.7938L39.1401 39.7069C40.1299 39.6882 40.9734 38.8715 41.0239 37.8827L41.2585 33.2782C41.3088 32.2894 40.5472 31.5027 39.5573 31.5214L34.9482 31.6083Z" fill="#1074CC"/>
<path d="M47.9504 37.4965C48.6575 37.4831 49.2015 38.045 49.1655 38.7514L49.1393 39.2631L51.956 39.2099C52.6631 39.1965 53.2071 39.7584 53.1711 40.4647C53.135 41.171 52.5327 41.7544 51.8256 41.7677L47.9848 41.8402C47.9416 41.841 47.899 41.8397 47.8571 41.8363C47.8148 41.8413 47.7719 41.8443 47.7287 41.8451C47.0217 41.8584 46.4777 41.2964 46.5136 40.5902L46.6049 38.7997C46.6409 38.0934 47.2433 37.5099 47.9504 37.4965Z" fill="#1074CC"/>
<path d="M58.4306 34.924C59.1376 34.9106 59.6816 35.4724 59.6457 36.1786L59.4501 40.0158C59.4479 40.0589 59.4438 40.1018 59.4374 40.1439C59.4395 40.1858 59.4394 40.2285 59.4372 40.2716C59.4011 40.9779 58.7987 41.5612 58.0917 41.5746L56.2993 41.6085C55.5923 41.6218 55.0482 41.0599 55.0842 40.3536C55.1202 39.6473 55.7226 39.064 56.4296 39.0507L56.9418 39.0409L57.0851 36.2269C57.1212 35.5207 57.7236 34.9374 58.4306 34.924Z" fill="#1074CC"/>
<path d="M54.3044 33.288C55.0114 33.2746 55.5554 33.8364 55.5195 34.5426L55.4413 36.0775C55.4053 36.7838 54.8029 37.3674 54.0959 37.3807L52.5595 37.4098C51.8525 37.4231 51.3084 36.861 51.3444 36.1547L51.4225 34.62C51.4586 33.9138 52.061 33.3302 52.768 33.3168L54.3044 33.288Z" fill="#1074CC"/>
<path d="M50.4291 29.0167C51.1362 29.0034 51.6801 29.5651 51.6442 30.2714C51.6082 30.9777 51.0058 31.5613 50.2988 31.5746L49.5307 31.589L49.4003 34.1469C49.3643 34.8532 48.7617 35.4368 48.0546 35.4501C47.3476 35.4633 46.8036 34.9015 46.8395 34.1952L47.0353 30.3583C47.0714 29.652 47.6738 29.0687 48.3808 29.0553L50.4291 29.0167Z" fill="#1074CC"/>
<path d="M59.1352 28.8527C59.8422 28.8393 60.3862 29.401 60.3503 30.1073L60.259 31.8978C60.2229 32.6042 59.6206 33.1877 58.9135 33.2011C58.2065 33.2143 57.6624 32.6525 57.6984 31.9462L57.7245 31.4347L54.9079 31.4877C54.2009 31.501 53.6568 30.9391 53.6928 30.2328C53.7289 29.5266 54.3313 28.9432 55.0383 28.9298L59.1352 28.8527Z" fill="#1074CC"/>
<path d="M25.3005 19.5001C25.6143 19.4996 25.9285 19.5007 26.2426 19.5033C26.3139 19.504 26.3845 19.5281 26.4391 19.5753C26.4938 19.6225 26.5281 19.6883 26.5346 19.7589C26.5411 19.8295 26.5192 19.9003 26.4741 19.9567C26.4289 20.013 26.3638 20.0497 26.2939 20.0634C25.9855 20.123 25.6768 20.1811 25.3681 20.2377C24.9435 20.3155 24.5186 20.3904 24.0934 20.4623C21.8311 20.85 19.7509 21.8499 18.0683 23.3117C16.0805 25.0339 14.6447 27.3986 14.0676 30.0741C14.0032 30.3712 13.9491 30.671 13.9057 30.976C13.8957 31.0465 13.8624 31.1132 13.8085 31.1613C13.7546 31.2093 13.6848 31.2349 13.614 31.2321C13.5431 31.2292 13.4757 31.1983 13.4257 31.1461C13.3758 31.0939 13.348 31.0247 13.3437 30.9535C13.3253 30.631 13.3212 30.3088 13.3322 29.985C13.4145 27.0659 14.8088 24.1346 17.0854 22.1786C18.9993 20.5067 21.5153 19.5473 24.0063 19.5114C24.4374 19.5047 24.8689 19.5009 25.3005 19.5001Z" fill="#1074CC"/>
</svg>
