<svg width="96" height="96" viewBox="0 0 96 96" fill="none" xmlns="http://www.w3.org/2000/svg">
<path d="M20.2417 52.8854C20.3109 52.8727 20.3824 52.8881 20.4412 52.9279C20.5 52.9677 20.5409 53.0288 20.5571 53.0973C20.6713 53.5815 20.7843 54.0659 20.896 54.5504C21.9015 58.9123 22.8076 63.2927 23.6143 67.6911C24.1745 70.7456 24.6839 73.8094 25.1426 76.8825C25.3376 78.2182 25.555 79.5512 26.1897 80.6654C26.4219 81.064 26.7168 81.4211 27.0901 81.6742C27.1438 81.7103 27.1834 81.7649 27.1987 81.8283C27.2141 81.8916 27.2045 81.9584 27.1714 82.0138C27.1383 82.0692 27.0843 82.1093 27.0212 82.1259C26.9582 82.1425 26.8912 82.1338 26.834 82.1037C26.3506 81.847 25.9553 81.4533 25.6453 81.0219C24.799 79.8162 24.4655 78.3958 24.1755 77.059C23.514 74.0241 22.903 70.9787 22.3428 67.9242C21.5361 63.5259 20.8287 59.1091 20.221 54.6742C20.1534 54.1815 20.0871 53.6884 20.022 53.1952C20.0128 53.1254 20.0295 53.0538 20.0703 52.9958C20.1112 52.9378 20.1726 52.8981 20.2417 52.8854Z" fill="#F5A031"/>
<path d="M60.5457 19.3888C65.0211 18.6004 67.3098 21.4618 67.8516 24.183L76.0918 65.0385C76.7358 68.2602 74.6454 71.3912 71.4255 72.0356L71.4292 72.0363L34.8635 79.4347C34.8586 79.4357 34.5128 79.5055 34.3328 79.5414C32.2049 79.9658 30.1357 78.5863 29.7112 76.4584C29.3807 74.8019 30.1447 73.179 31.5076 72.342C31.309 72.8985 31.2549 73.5128 31.3787 74.1349C31.7431 75.9632 34.024 76.0188 35.8525 75.6525L69.4749 68.4174C72.244 67.8647 73.1337 65.3017 72.5808 62.5343L64.7673 24.1042C64.4105 22.3215 62.7513 20.5517 61.0837 20.3888L60.8274 20.1947L60.8022 20.1076L60.5457 19.3888Z" fill="#F5A031"/>
<path d="M68.5336 69.654L36.3308 76.0872C36.3308 76.0872 35.3361 76.4407 35.1815 76.4718C33.3529 76.8381 31.573 75.6519 31.2086 73.8237C31.0848 73.2015 31.139 72.5872 31.3376 72.0306C31.7225 71.7937 32.8479 71.3259 33.3172 71.2334C33.4985 71.1973 34.7967 70.936 35.2983 70.8376L64.333 65.0365C67.5544 64.3942 69.6433 61.2611 68.9992 58.0395L61.6828 21.411C63.2633 22.0204 64.5061 23.4011 64.863 25.1838L72.5457 63.6408C73.0986 66.4082 71.3028 69.1013 68.5336 69.654Z" fill="#FFFBF0"/>
<path d="M63.6388 65.3288L34.6041 71.1299C34.1025 71.2283 32.8043 71.4896 32.623 71.5257C32.1537 71.6182 31.7215 71.7922 31.3367 72.0292C29.9737 72.8662 29.2097 74.489 29.5402 76.1455L20.2405 29.5907C19.5964 26.369 21.6889 23.2364 24.9085 22.5939L53.9432 16.7928C57.1493 16.1537 60.2657 18.2196 60.9305 21.415C60.9336 21.4303 60.9368 21.4455 60.9399 21.4608L60.9868 21.703L68.305 58.3318C68.9491 61.5534 66.8602 64.6865 63.6388 65.3288Z" fill="#FFC95C"/>
<path fill-rule="evenodd" clip-rule="evenodd" d="M53.797 16.0571C56.3406 15.5481 58.8352 16.5547 60.3488 18.4521C60.5078 18.4443 60.6973 18.4346 60.89 18.4248C61.1092 18.4136 61.3322 18.4026 61.5092 18.3955C61.5972 18.3919 61.678 18.3892 61.7428 18.3879C61.7675 18.3874 61.823 18.3864 61.8824 18.3889C64.23 18.3263 65.9189 19.2234 67.0748 20.5197C68.2128 21.796 68.8028 23.4193 69.0758 24.79L77.0065 64.487C77.7316 68.1146 75.3783 71.6396 71.7538 72.3659L34.8431 79.8562L34.8427 79.8564H34.8414C34.8408 79.8566 34.8397 79.8569 34.8385 79.8571C34.8359 79.8577 34.8321 79.8584 34.8273 79.8593C34.8173 79.8614 34.8026 79.8645 34.7848 79.8681C34.7492 79.8753 34.6997 79.8851 34.6447 79.8962L34.3099 79.9636C31.7779 80.4686 29.3153 78.8282 28.8075 76.2966L28.807 76.2968C28.7983 76.2549 28.7905 76.2133 28.7833 76.1721L19.506 29.7373L19.5062 29.737C18.7807 26.1103 21.1371 22.5836 24.7621 21.8581L24.7626 21.8579L53.7972 16.0569L53.797 16.0571ZM61.8937 19.8886C61.8908 19.8887 61.8878 19.8884 61.8849 19.8884C64.0472 20.4839 65.0645 22.4033 65.4357 24.0437L65.4745 24.2256L73.1571 62.6828C73.7908 65.8545 71.7342 68.9405 68.5621 69.5769L68.5624 69.5774L34.9694 76.5779L34.9686 76.5781C34.9681 76.5782 34.9672 76.5784 34.9662 76.5786C34.964 76.579 34.9604 76.5797 34.9562 76.5805C34.9477 76.5822 34.9354 76.5846 34.9203 76.5876C34.8897 76.5937 34.8469 76.6022 34.7997 76.6115C34.705 76.6304 34.5918 76.6528 34.5155 76.6682L34.515 76.6684C33.5029 76.8712 32.3342 76.8533 31.3575 76.3818C30.9127 76.1671 30.5245 75.8653 30.2184 75.4748C30.2239 75.648 30.2437 75.8232 30.2787 75.9987C30.281 76.0105 30.283 76.0222 30.2848 76.0339C30.644 77.7349 32.3064 78.8335 34.0165 78.4924C34.1062 78.4745 34.2385 78.4482 34.3485 78.426C34.4033 78.4149 34.4527 78.4048 34.4882 78.3977C34.5058 78.3941 34.5201 78.3911 34.5299 78.3891C34.5348 78.3881 34.5388 78.3875 34.5414 78.3869C34.5426 78.3867 34.5437 78.3863 34.5443 78.3862H34.5448L71.4557 70.8962L71.4576 70.8957C74.2718 70.3326 76.0983 67.5961 75.5355 64.781L67.6049 25.0835L67.6046 25.0832C67.3626 23.8682 66.8547 22.5268 65.9552 21.518C65.0794 20.5359 63.8018 19.8303 61.8937 19.8886ZM69.0433 58.1845C69.769 61.811 67.4142 65.3387 63.7887 66.0642L32.7731 72.2592C32.0493 72.4039 31.4327 72.7845 30.9862 73.3047C30.9888 73.3227 30.991 73.3409 30.9923 73.3593C31.0584 74.2948 31.4783 74.7743 32.0099 75.031C32.5954 75.3136 33.4037 75.3609 34.2198 75.1975C34.2981 75.1817 34.413 75.1592 34.5077 75.1404C34.5551 75.1309 34.5976 75.1225 34.6283 75.1164C34.6436 75.1134 34.6561 75.1108 34.6647 75.1091C34.6688 75.1083 34.6722 75.1076 34.6744 75.1071C34.6755 75.1069 34.6765 75.1065 34.6771 75.1064C34.6774 75.1064 34.6777 75.1064 34.6779 75.1064L68.2565 68.1086C68.2585 68.1082 68.2608 68.1078 68.2628 68.1074C70.6256 67.6358 72.158 65.338 71.6864 62.977L64.0035 24.52C63.7342 23.1747 63.043 21.8888 61.6952 21.405L69.0433 58.1845ZM60.1779 21.4746C59.5571 18.7351 56.8606 16.9737 54.0914 17.5278L25.0565 23.3286L25.0568 23.3288C22.2422 23.892 20.4141 26.6302 20.9769 29.4431L20.9767 29.4433L29.6061 72.6335C30.2731 71.7114 31.2759 71.0287 32.4791 70.7883L63.4945 64.5932L63.6256 64.5652C66.3651 63.9444 68.1265 61.248 67.5724 58.4787L60.2057 21.6057L60.1779 21.4746Z" fill="#B66A1F"/>
<path d="M41.5056 19.3031C41.2659 18.1025 40.0996 17.3259 38.899 17.5657L35.978 18.1501L33.7283 18.6001L26.2158 20.1005C24.958 20.3522 24.142 21.5752 24.3937 22.8329L30.3974 52.856C30.6083 53.9129 31.9933 54.1844 32.5884 53.2869L35.2577 49.2659C36.0499 48.0735 37.6578 47.7531 38.8459 48.5483L42.8565 51.2351C43.7513 51.8355 44.9251 51.0521 44.7141 49.9952C44.7141 49.9952 39.8602 25.7424 38.8439 20.6622C38.7567 20.2234 39.0414 19.7955 39.4802 19.7083L41.5056 19.3031Z" fill="#4397E0"/>
<path d="M38.7513 16.8305C40.3573 16.5098 41.9193 17.5492 42.2403 19.1567C42.3214 19.5627 42.058 19.9575 41.6521 20.0388L39.6266 20.4441L39.6146 20.4479C39.5897 20.4585 39.5728 20.4865 39.5788 20.5166C40.0871 23.0576 41.5543 30.3896 42.8947 37.0869C43.5649 40.436 44.2036 43.6265 44.6745 45.9795C44.91 47.1561 45.1036 48.1234 45.2383 48.7964C45.3057 49.1329 45.3582 49.3959 45.394 49.5748C45.4119 49.6642 45.4256 49.7326 45.4348 49.7787C45.4394 49.8017 45.443 49.8191 45.4454 49.8308C45.4465 49.8366 45.4474 49.8411 45.448 49.844C45.4483 49.8455 45.4483 49.8466 45.4485 49.8473C45.4485 49.8477 45.4488 49.8479 45.4488 49.8481C45.4489 49.8483 45.4488 49.8484 44.7263 49.993L45.4488 49.8481L45.4489 49.8489C45.7906 51.5613 43.889 52.8315 42.4383 51.8587L38.428 49.1718C37.5849 48.6075 36.4443 48.8349 35.8819 49.6812L33.2125 53.7014L33.2127 53.7017C32.2482 55.1563 30.0034 54.7171 29.6611 53.0035L23.6576 22.9805C23.3245 21.3162 24.4045 19.6984 26.0679 19.3655L38.751 16.8307L38.7513 16.8305ZM40.4203 18.7555C40.0858 18.3859 39.5709 18.1967 39.0452 18.3016L39.045 18.3014L33.8747 19.336L26.3619 20.8364L26.3617 20.8362C25.5099 21.0069 24.958 21.8353 25.1283 22.6863L31.1321 52.7093C31.2119 53.1093 31.7368 53.2131 31.9625 52.8728L31.9627 52.8726L34.6323 48.8514C35.6543 47.313 37.7292 46.8994 39.2622 47.9256L43.2731 50.6123L43.2738 50.6127C43.6125 50.8399 44.0578 50.5436 43.9778 50.1426L43.9777 50.1418C43.9776 50.1411 43.9773 50.1399 43.977 50.1385C43.9764 50.1355 43.9756 50.131 43.9744 50.1252C43.9721 50.1135 43.9687 50.0961 43.9641 50.0732C43.9549 50.0271 43.9412 49.9586 43.9233 49.8693C43.8875 49.6904 43.8348 49.4272 43.7674 49.0906C43.6327 48.4176 43.439 47.4504 43.2035 46.274C42.7326 43.9209 42.0942 40.7305 41.4239 37.3814C40.0834 30.6832 38.6159 23.35 38.1078 20.8098L38.1074 20.8088C37.9452 19.9919 38.453 19.1929 39.2549 18.9909L39.3334 18.9731L40.4203 18.7555Z" fill="#045EB2"/>
</svg>
