<svg width="72" height="72" viewBox="0 0 72 72" fill="none" xmlns="http://www.w3.org/2000/svg">
<path d="M38.566 49.404C38.1972 50.706 37.9999 52.08 37.9999 53.5001V55.1155C37.9999 57.005 36.5905 58.6332 34.7013 58.6035C31.1151 58.5471 27.4971 57.6628 24.136 55.8753C23.6377 55.6119 23.022 55.7729 22.7435 56.2559L20.8527 59.4904C20.3836 60.2808 19.1963 60.1198 18.9618 59.227L15.6784 46.6106C15.5318 46.0691 15.8543 45.4983 16.4113 45.3519L29.0025 42.0588C29.8967 41.8246 30.6295 42.7906 30.1605 43.5809L28.2256 46.8741C27.9325 47.3863 28.1084 48.0596 28.6361 48.3231C31.814 49.8926 35.3265 50.199 38.566 49.404Z" fill="#DE5833"/>
<path d="M49.2235 38.9795C49.5196 37.8706 49.6796 36.7431 49.7143 35.6189C49.7436 34.3602 50.5498 33.2771 51.7664 32.9551L56.6183 31.6817C57.4684 31.4622 58.3039 32.0623 58.3919 32.9404C58.4655 33.709 58.5018 34.4821 58.4999 35.257C58.4953 37.1239 56.8795 38.5001 55.0125 38.5001H52.9999C51.6955 38.5001 50.43 38.6666 49.2235 38.9795Z" fill="#DE5833"/>
<path d="M23.4843 28.0746C27.0909 21.9275 34.8193 19.6712 41.1241 22.7786C41.6122 23.0218 41.7749 23.6433 41.5037 24.1161L39.714 27.156C39.2801 27.8855 39.9581 28.7772 40.7851 28.561L52.432 25.5212C52.9473 25.3861 53.2456 24.8592 53.11 24.3593L50.0728 12.7134C49.8559 11.8893 48.7576 11.7407 48.3238 12.4703L46.5747 15.456C46.3171 15.9019 45.7476 16.0505 45.2866 15.8073C35.1041 10.4032 22.3724 13.9429 16.4744 23.981C14.0745 28.0611 13.1797 32.6006 13.6 36.978C13.6813 37.7886 14.4542 38.3425 15.2406 38.1398L19.7285 36.9644C20.8539 36.6672 21.5996 35.6675 21.6267 34.5056C21.6945 32.3169 22.2775 30.1147 23.4707 28.0882L23.4843 28.0746Z" fill="#3969EF"/>
<path d="M45.8068 60.639C46.1567 60.8715 46.2787 61.3377 46.0613 61.6972L44.3037 64.6041C43.9628 65.168 44.4566 65.8609 45.0981 65.7102C48.6312 64.8802 56.6481 62.8806 59.0958 61.2879C62.6296 59.4381 64.9999 56.0289 64.9999 52.1294C64.9999 46.2584 59.6273 41.499 52.9999 41.499C46.3725 41.499 40.9999 46.2584 40.9999 52.1294C40.9999 55.61 42.8882 58.6999 45.8068 60.639Z" fill="#876ECB"/>
<path d="M69.126 44.5C69.349 44.5 69.5721 44.59 69.7426 44.7655C70.0837 45.1164 70.0837 45.6878 69.7426 46.0387L67.9933 47.8384C67.6522 48.1894 67.0968 48.1894 66.7557 47.8384C66.4146 47.4875 66.4146 46.9161 66.7557 46.5651L68.505 44.7655C68.6756 44.59 68.8986 44.5 69.1216 44.5H69.126Z" fill="#CCCCCC"/>
<path d="M68.2513 52.5987H70.8752C71.3563 52.5987 71.7499 53.0036 71.7499 53.4985C71.7499 53.9934 71.3563 54.3984 70.8752 54.3984H68.2513C67.7702 54.3984 67.3767 53.9934 67.3767 53.4985C67.3767 53.0036 67.7702 52.5987 68.2513 52.5987Z" fill="#CCCCCC"/>
<path d="M66.7646 59.1638C66.9352 58.9883 67.1582 58.8984 67.3812 58.8984H67.3856C67.6086 58.8984 67.8317 58.9883 68.0022 59.1638L69.7515 60.9635C70.0926 61.3145 70.0926 61.8859 69.7515 62.2368C69.4104 62.5877 68.855 62.5877 68.5139 62.2368L66.7646 60.4371C66.4235 60.0862 66.4235 59.5148 66.7646 59.1638Z" fill="#CCCCCC"/>
<path d="M52.3085 44.2643C52.4884 43.5447 53.5111 43.5447 53.691 44.2643L54.2848 46.6397C54.7864 48.6461 56.353 50.2127 58.3594 50.7143L60.7349 51.3082C61.4545 51.4881 61.4544 52.5107 60.7349 52.6906L58.3594 53.2845C56.353 53.7861 54.7864 55.3527 54.2848 57.3591L53.691 59.7345C53.5111 60.4541 52.4884 60.4541 52.3085 59.7345L51.7147 57.3591C51.2131 55.3527 49.6465 53.7861 47.6401 53.2845L45.2647 52.6906C44.5451 52.5107 44.5451 51.4881 45.2647 51.3082L47.6401 50.7143C49.6465 50.2127 51.2131 48.6461 51.7147 46.6397L52.3085 44.2643Z" fill="white"/>
</svg>
