<svg width="48" height="48" viewBox="0 0 48 48" fill="none" xmlns="http://www.w3.org/2000/svg">
<path d="M25.7107 32.936C25.4648 33.804 25.3333 34.72 25.3333 35.6667V36.7437C25.3333 38.0033 24.3937 39.0888 23.1342 39.069C20.7434 39.0314 18.3314 38.4419 16.0907 37.2502C15.7584 37.0746 15.348 37.1819 15.1623 37.5039L13.9018 39.6603C13.5891 40.1872 12.7975 40.0799 12.6412 39.4847L10.4522 31.0738C10.3545 30.7127 10.5695 30.3322 10.9408 30.2346L19.335 28.0392C19.9311 27.8831 20.4197 28.5271 20.107 29.054L18.8171 31.2494C18.6217 31.5909 18.7389 32.0397 19.0907 32.2154C21.2093 33.2617 23.551 33.466 25.7107 32.936Z" fill="#DE5833"/>
<path d="M32.8157 25.9863C33.0131 25.247 33.1197 24.4954 33.1429 23.7459C33.1624 22.9068 33.6999 22.1847 34.511 21.9701L37.7455 21.1212C38.3123 20.9748 38.8693 21.3748 38.9279 21.9603C38.977 22.4726 39.0012 22.9881 38.9999 23.5046C38.9968 24.7493 37.9197 25.6667 36.675 25.6667H35.3333C34.4637 25.6667 33.62 25.7777 32.8157 25.9863Z" fill="#DE5833"/>
<path d="M15.6562 18.7164C18.0606 14.6183 23.2129 13.1142 27.4161 15.1857C27.7415 15.3479 27.8499 15.7622 27.6692 16.0774L26.476 18.104C26.1868 18.5903 26.6387 19.1848 27.1901 19.0407L34.9547 17.0141C35.2982 16.9241 35.497 16.5728 35.4066 16.2395L33.3819 8.47562C33.2373 7.9262 32.5051 7.82713 32.2158 8.3135L31.0498 10.304C30.8781 10.6012 30.4984 10.7003 30.1911 10.5382C23.4027 6.93545 14.915 9.29524 10.9829 15.9874C9.38302 18.7074 8.78644 21.7337 9.06666 24.652C9.12089 25.1924 9.63611 25.5617 10.1604 25.4266L13.1523 24.643C13.9026 24.4448 14.3997 23.7783 14.4178 23.0037C14.463 21.5446 14.8517 20.0765 15.6471 18.7254L15.6562 18.7164Z" fill="#3969EF"/>
<path d="M30.5376 40.426C30.7709 40.581 30.8522 40.8918 30.7073 41.1315L29.5356 43.0694C29.3083 43.4453 29.6375 43.9073 30.0651 43.8068C32.4206 43.2535 37.7651 41.9204 39.3969 40.8586C41.7528 39.6254 43.333 37.3526 43.333 34.7529C43.333 30.8389 39.7513 27.666 35.333 27.666C30.9147 27.666 27.333 30.8389 27.333 34.7529C27.333 37.0733 28.5919 39.1333 30.5376 40.426Z" fill="#876ECB"/>
<path d="M46.0838 29.6665C46.2324 29.6665 46.3811 29.7265 46.4948 29.8435C46.7222 30.0774 46.7222 30.4584 46.4948 30.6923L45.3286 31.8921C45.1012 32.1261 44.731 32.1261 44.5036 31.8921C44.2762 31.6582 44.2762 31.2772 44.5036 31.0433L45.6698 29.8435C45.7835 29.7265 45.9321 29.6665 46.0808 29.6665H46.0838Z" fill="#CCCCCC"/>
<path d="M45.5006 35.0656H47.2499C47.5706 35.0656 47.833 35.3356 47.833 35.6655C47.833 35.9955 47.5706 36.2654 47.2499 36.2654H45.5006C45.1799 36.2654 44.9175 35.9955 44.9175 35.6655C44.9175 35.3356 45.1799 35.0656 45.5006 35.0656Z" fill="#CCCCCC"/>
<path d="M44.5095 39.4424C44.6232 39.3254 44.7719 39.2654 44.9206 39.2654H44.9235C45.0722 39.2654 45.2209 39.3254 45.3346 39.4424L46.5008 40.6422C46.7282 40.8761 46.7282 41.2571 46.5008 41.491C46.2734 41.725 45.9031 41.725 45.6757 41.491L44.5095 40.2912C44.2821 40.0573 44.2821 39.6763 44.5095 39.4424Z" fill="#CCCCCC"/>
<path d="M34.8721 29.5097C34.992 29.03 35.6738 29.03 35.7937 29.5097L36.1897 31.0933C36.5241 32.4309 37.5685 33.4753 38.9061 33.8097L40.4897 34.2056C40.9694 34.3255 40.9694 35.0073 40.4897 35.1272L38.906 35.5231C37.5685 35.8575 36.5241 36.9019 36.1897 38.2395L35.7937 39.8232C35.6738 40.3029 34.992 40.3029 34.8721 39.8232L34.4762 38.2395C34.1418 36.9019 33.0974 35.8575 31.7598 35.5231L30.1762 35.1272C29.6965 35.0073 29.6965 34.3255 30.1762 34.2056L31.7598 33.8097C33.0974 33.4753 34.1418 32.4309 34.4762 31.0933L34.8721 29.5097Z" fill="white"/>
</svg>
