<svg width="96" height="96" viewBox="0 0 96 96" fill="none" xmlns="http://www.w3.org/2000/svg">
<path d="M21.0806 33.9151C28.2172 13.6105 58.0345 12.6416 71.9088 33.4815C72.6102 34.5297 73.9885 34.9653 75.0435 34.4378L77.6876 33.2151C79.7471 32.2628 81.9907 34.1186 81.4261 36.3162C80.0713 41.5887 77.9988 49.637 76.411 55.7385C73.991 54.2089 71.0661 53.3316 68.0003 53.3316C64.5565 53.3316 61.2903 54.4383 58.7181 56.3335C55.6579 54.7248 52.7163 53.1599 50.4935 51.9719C48.7058 51.0166 48.5853 48.5056 50.2689 47.3767L54.4078 44.6013C55.5224 44.0391 55.8855 42.6441 55.1265 41.5615C46.8338 29.8348 35.6342 28.4406 25.2772 36.2366C23.2325 37.7756 20.232 36.3295 21.0806 33.9151Z" fill="#FF8D5C"/>
<path d="M19.584 41.5608C35.6812 16.9483 62.5573 29.0191 55.579 43.2587C48.2234 27.6989 29.9288 27.8873 19.584 41.5608Z" fill="#F05F2B"/>
<path d="M32.8261 31.3179C41.0507 28.8727 50.028 31.4522 55.5115 40.6238C56.6789 42.5766 56.3643 44.6772 54.8076 45.6619C53.6402 46.4001 52.7971 46.8611 51.4145 47.7722C50.3108 48.4996 50.1674 49.3866 50.1928 49.9519C50.2228 50.3013 50.3381 50.5971 50.6101 50.9075C50.905 51.2439 51.3989 51.614 52.2209 52.0488C53.5243 52.7383 56.2489 54.1862 59.4204 55.8474C58.9514 56.1527 58.5021 56.4827 58.0752 56.8359C55.178 55.3159 52.7294 54.0154 51.5193 53.3752C50.6288 52.9042 49.9509 52.432 49.4814 51.8962C48.9921 51.3378 48.7499 50.7336 48.696 50.0601C48.6954 50.0525 48.6949 50.0447 48.6946 50.0371C48.6473 49.0782 48.9315 47.6115 50.5888 46.5193C51.9584 45.6168 52.9438 45.0653 54.0056 44.3938C54.6778 43.9686 55.1038 42.8661 54.2236 41.3938C49.1079 32.8373 40.8507 30.4976 33.2534 32.7564C32.1614 33.081 31.2449 33.5343 30.6013 33.9075C30.2805 34.0935 30.0297 34.2581 29.8615 34.3745C29.7776 34.4326 29.7144 34.4789 29.6736 34.5093C29.6533 34.5244 29.6384 34.5356 29.6294 34.5425C29.625 34.5459 29.6217 34.5483 29.6201 34.5496H29.6196L29.6198 34.5498H29.6194L29.6196 34.5501L29.6189 34.5505C29.2938 34.8067 28.8226 34.751 28.5659 34.4263C28.309 34.1012 28.3642 33.6295 28.6892 33.3726L29.1355 33.937C28.6907 33.3742 28.6894 33.3723 28.6894 33.3723L28.6897 33.3721L28.6904 33.3716C28.6909 33.3712 28.6917 33.3706 28.6924 33.3701C28.6938 33.369 28.6958 33.3674 28.698 33.3657C28.7024 33.3623 28.7084 33.3575 28.7158 33.3518C28.7307 33.3404 28.7519 33.3245 28.7785 33.3047C28.8321 33.2649 28.909 33.2091 29.0075 33.1409C29.2045 33.0045 29.4891 32.8178 29.8486 32.6094C30.5662 32.1933 31.5928 31.6845 32.8261 31.3179Z" fill="#9E2B08"/>
<path d="M23.5527 27.5413C34.2813 12.691 59.9475 14.1632 72.531 33.0623C73.0529 33.8422 74.0366 34.0996 74.7065 33.7647L77.0471 32.5693C77.0581 32.5637 77.0693 32.5585 77.0805 32.5535C80.0561 31.2148 83.1328 34.1059 82.3249 37.1494C81.776 39.2172 80.3672 44.1712 78.9372 49.2229C78.2652 51.5971 77.5885 53.9931 76.9927 56.126C76.5675 55.8284 76.1246 55.5518 75.6662 55.2976C76.2339 53.2685 76.8662 51.0292 77.4931 48.8145C78.9263 43.7515 80.33 38.8163 80.8747 36.7642C81.3867 34.8353 79.4248 33.1555 77.7075 33.917L75.3835 35.104C75.3817 35.105 75.3795 35.106 75.3777 35.1069C73.9376 35.827 72.1648 35.2134 71.2839 33.897L71.2829 33.8955C59.1395 15.6554 34.7602 14.622 24.7827 28.4009C23.4716 30.4919 22.798 31.6059 22.0266 33.1604C21.8423 33.5314 21.3918 33.6829 21.0207 33.4988C20.6497 33.3146 20.4982 32.8643 20.6823 32.4932C21.4919 30.8618 22.2019 29.6922 23.5251 27.582L23.5527 27.5413Z" fill="#9E2B08"/>
<path d="M71.7397 25.7441C71.8055 25.7443 71.8703 25.7656 71.9292 25.7954C72.0033 25.8336 72.0764 25.8731 72.148 25.9139C72.7934 26.2815 73.3365 26.7548 73.7631 27.316C74.1898 27.8771 74.5004 28.5264 74.6829 29.2459C74.7032 29.3259 74.7219 29.407 74.7391 29.4887C74.7521 29.5533 74.7554 29.6213 74.7381 29.6848C74.7208 29.7483 74.6845 29.8019 74.6333 29.8362C74.5821 29.8706 74.5187 29.8839 74.4533 29.8758C74.388 29.8677 74.3264 29.8384 74.2716 29.8018C74.2032 29.7558 74.1359 29.7095 74.0699 29.6623C73.4757 29.238 72.9788 28.7638 72.5686 28.2243C72.1583 27.6848 71.8349 27.0797 71.5841 26.3943C71.5562 26.3181 71.5288 26.2408 71.5028 26.1627C71.482 26.1002 71.4705 26.033 71.48 25.9678C71.4896 25.9027 71.5193 25.8452 71.566 25.8049C71.6127 25.7647 71.6739 25.744 71.7397 25.7441Z" fill="#CC3B0A"/>
<path d="M40.9312 14.4381C45.6759 13.1691 50.7869 13.396 55.5185 14.7336C60.2587 16.0746 64.6781 18.5616 68.2088 21.938C68.6018 22.3135 68.9819 22.6979 69.3523 23.0944C69.4017 23.1475 69.4312 23.2173 69.4322 23.2906C69.4331 23.3638 69.4057 23.4343 69.3557 23.4867C69.3057 23.5391 69.2367 23.5697 69.1635 23.5722C69.0903 23.5747 69.0193 23.5485 68.964 23.5016C68.5574 23.157 68.1456 22.8241 67.7255 22.4995C63.9486 19.5851 59.6425 17.4639 55.1096 16.1773C50.5805 14.9027 45.7876 14.4262 41.0863 15.1625C40.5647 15.2455 40.0435 15.3444 39.5283 15.4595C39.4575 15.4754 39.3825 15.4656 39.3188 15.4295C39.2552 15.3933 39.2083 15.3342 39.1884 15.2646C39.1684 15.195 39.1767 15.1199 39.2116 15.0555C39.2464 14.9911 39.305 14.9428 39.3735 14.9188C39.8841 14.7399 40.4055 14.5795 40.9312 14.4381Z" fill="#CC3B0A"/>
<path d="M21.1494 33.0376C21.5587 31.5969 23.0162 30.8844 24.366 31.5334C29.4571 33.9815 38.7429 39.0103 45.0076 42.3886C46.9627 43.443 47.7588 47.3014 45.7578 48.2658L41.7395 50.3506C40.6056 50.9041 40.2133 52.3096 40.9578 53.4138C44.6781 58.8837 49.0661 62.1992 53.7471 63.4504C53.4774 64.4611 53.3333 65.5243 53.3333 66.6289C53.3333 70.4915 55.1367 73.8942 57.8985 76.2737L57.7324 76.5478C46.1162 79.0239 32.0328 74.0888 23.8916 61.3596C23.2045 60.2909 21.8235 59.8326 20.7503 60.352L17.8162 61.624C15.7157 62.5346 13.4938 60.6182 14.1021 58.4111C16.1041 51.1472 19.5701 38.5977 21.1494 33.0376Z" fill="#75B6EB"/>
<path d="M56.5796 69.9018C56.5954 69.945 56.6113 69.9881 56.6277 70.031C56.6239 70.0209 56.62 70.0108 56.6162 70.0007L56.5796 69.9018Z" fill="#75B6EB"/>
<path d="M23.8789 61.1709C23.8789 61.1709 37.8871 75.02 55.0417 72.8669C55.7939 74.1489 56.7655 75.2976 57.8987 76.2739L57.5032 76.928C46.2229 79.446 32.4688 75.0693 23.8789 61.1709Z" fill="#4397E0"/>
<path d="M20.3185 33.1835C20.9092 31.1345 23.0508 30.0632 25.0255 31.0219C30.0888 33.48 39.3465 38.7383 45.5199 42.0643C46.9142 42.8156 47.5891 44.287 47.5968 45.6845C47.6044 47.0782 46.9457 48.5392 45.5094 49.2421L42.0856 51.0199L42.0775 51.0241L42.0692 51.0282C41.3515 51.3786 41.0866 52.2652 41.5804 52.9977C45.4627 58.7557 49.5666 61.8684 53.8766 63.0004C53.7301 63.475 53.6118 63.962 53.5233 64.4601C48.7817 63.2243 44.3803 59.834 40.3365 53.8366C39.3441 52.3646 39.8581 50.4468 41.3986 49.6859L44.818 47.9105L44.828 47.9054L44.838 47.9005C45.657 47.5057 46.1013 46.646 46.0961 45.6928C46.0908 44.7367 45.6313 43.829 44.808 43.3854C38.5705 40.0248 29.3976 34.8125 24.3702 32.3717C23.2889 31.8467 22.1107 32.3841 21.7604 33.5992C20.1656 39.132 16.8959 50.7155 14.8698 57.9074C14.3382 59.794 16.2265 61.4575 18.0372 60.6903L20.4452 59.6698C21.8909 58.9844 23.6368 59.6115 24.5031 60.9274L27.3368 64.7745C34.1948 73.3716 44.043 77.2174 53.0995 76.7003C54.647 76.6119 56.1703 76.3961 57.6512 76.0555C57.7329 76.1293 57.8154 76.2022 57.8988 76.2741L57.024 77.7208C55.765 77.9644 54.482 78.1245 53.1849 78.1986C43.6467 78.7432 33.3225 74.6908 26.1561 65.7008L26.1471 65.6896L26.1385 65.6781L23.288 61.808L23.274 61.7887L23.2611 61.7687C22.7502 60.9742 21.7634 60.6989 21.0778 61.0306L21.0609 61.0387L21.0438 61.046L18.6227 62.0719C15.659 63.3277 12.5509 60.605 13.4254 57.5006C15.4511 50.3103 18.7222 38.7216 20.3185 33.1835Z" fill="#045EB2"/>
<path d="M28.042 73.7313C28.115 73.7304 28.1854 73.7578 28.2399 73.8053C28.5932 74.1138 28.9527 74.4119 29.3194 74.7009C32.6204 77.3014 36.4348 79.1095 40.4342 80.2069C44.437 81.301 48.637 81.7021 52.8351 81.3765C53.3013 81.34 53.7682 81.2939 54.234 81.2388C54.3059 81.2302 54.3796 81.2475 54.4394 81.2896C54.4991 81.3315 54.54 81.3945 54.5532 81.4654C54.5664 81.5363 54.5513 81.6101 54.5107 81.6708C54.4701 81.7316 54.4074 81.774 54.3373 81.7919C53.8744 81.9102 53.4071 82.0164 52.9374 82.1102C48.7075 82.955 44.2417 82.8067 40.0373 81.6539C35.8364 80.5072 31.883 78.3228 28.8265 75.2541C28.4869 74.9138 28.1592 74.564 27.8425 74.2036C27.7948 74.1493 27.767 74.0788 27.7678 74.0058C27.7686 73.9328 27.7974 73.8632 27.8484 73.8121C27.8994 73.7611 27.969 73.7322 28.042 73.7313Z" fill="#1074CC"/>
<path d="M23.5235 68.3225C23.5855 68.325 23.6481 68.3443 23.7086 68.3679C23.7635 68.3896 23.8172 68.4121 23.8696 68.4354C24.3411 68.6443 24.7121 68.9169 24.9904 69.2635C25.2687 69.6102 25.4544 70.031 25.5567 70.5362C25.5681 70.5924 25.5784 70.6497 25.5878 70.7079C25.5978 70.7721 25.6033 70.8373 25.5924 70.8984C25.5814 70.9596 25.5544 71.0121 25.512 71.0491C25.4696 71.0861 25.4139 71.1054 25.3518 71.108C25.2899 71.1105 25.2259 71.0963 25.1638 71.0777C25.1069 71.06 25.051 71.0411 24.9965 71.021C24.5051 70.8402 24.1099 70.5635 23.8202 70.2026C23.5306 69.8418 23.3463 69.3966 23.2756 68.8781C23.2677 68.8206 23.2614 68.7619 23.2563 68.7025C23.2515 68.6378 23.2512 68.5721 23.2671 68.512C23.2829 68.452 23.3139 68.4019 23.3591 68.3684C23.4044 68.335 23.4614 68.3201 23.5235 68.3225Z" fill="#1074CC"/>
<path d="M60.8069 75.139C61.1569 75.3715 61.2788 75.8377 61.0614 76.1972L59.3039 79.1041C58.9629 79.668 59.4567 80.3609 60.0982 80.2102C63.6313 79.3802 71.6482 77.3806 74.0959 75.7879C77.6297 73.9381 80 70.5289 80 66.6294C80 60.7584 74.6274 55.999 68 55.999C61.3726 55.999 56 60.7584 56 66.6294C56 70.11 57.8883 73.1999 60.8069 75.139Z" fill="black"/>
<path d="M67.4433 60.4348C67.5882 59.8551 68.4121 59.8551 68.5571 60.4348L69.0355 62.3486C69.4396 63.9651 70.7018 65.2272 72.3182 65.6313L74.232 66.1098C74.8118 66.2547 74.8118 67.0786 74.232 67.2236L72.3182 67.702C70.7018 68.1061 69.4396 69.3683 69.0355 70.9847L68.5571 72.8985C68.4121 73.4783 67.5882 73.4783 67.4433 72.8985L66.9648 70.9847C66.5607 69.3683 65.2986 68.1061 63.6821 67.702L61.7683 67.2236C61.1886 67.0786 61.1886 66.2547 61.7683 66.1098L63.6821 65.6313C65.2986 65.2272 66.5607 63.9651 66.9648 62.3486L67.4433 60.4348Z" fill="white"/>
</svg>
