<svg width="96" height="96" viewBox="0 0 96 96" fill="none" xmlns="http://www.w3.org/2000/svg">
<path d="M48 16C65.6731 16 80 30.3269 80 48C80 50.1445 79.7883 52.2395 79.386 54.2659C77.699 53.6606 75.876 53.3323 74.0002 53.3323C66.213 53.3323 59.3335 58.9911 59.3335 66.6294C59.3335 70.3303 60.9893 73.6087 63.5571 75.9697C58.9517 78.5368 53.6468 80 48 80C30.3269 80 16 65.6731 16 48C16 30.3269 30.3269 16 48 16Z" fill="#F05F2B"/>
<path d="M62.5798 69.9023C62.5956 69.9455 62.6116 69.9886 62.6279 70.0315C62.6241 70.0214 62.6203 70.0113 62.6165 70.0012L62.5798 69.9023Z" fill="#F05F2B"/>
<path d="M62.0215 67.2698L62.0125 67.1162C62.0151 67.1686 62.0182 67.2208 62.0217 67.2729C62.0217 67.2719 62.0216 67.2708 62.0215 67.2698Z" fill="#F05F2B"/>
<path d="M48 18.625C64.2234 18.625 77.375 31.7766 77.375 48C77.375 49.9102 77.1925 51.7778 76.8442 53.5864C76.0281 53.4393 75.1924 53.3541 74.3447 53.3359C74.6921 51.6113 74.875 49.827 74.875 48C74.875 33.1574 62.8427 21.125 48 21.125C33.1573 21.125 21.125 33.1574 21.125 48C21.125 60.4734 29.6226 70.962 41.1445 73.9927C40.3328 71.4851 38.0643 64.2172 35.8237 55.0325C35.7491 54.7265 35.6745 54.4219 35.6003 54.1189L35.5984 54.1113C32.8862 43.0333 30.6711 33.9851 42.812 31.1426C42.9229 31.1166 42.9771 30.9839 42.9038 30.8967C41.5108 29.2442 38.9012 28.7025 35.6016 29.8408C35.4662 29.8875 35.3485 29.7509 35.4326 29.635C36.0797 28.7432 37.3443 28.0574 37.9685 27.7568C38.0974 27.6947 38.0895 27.5059 37.9529 27.4631C37.5445 27.3353 36.8494 27.1396 36.0674 27.0134C35.8824 26.9836 35.8658 26.6666 36.0515 26.6416C40.7294 26.0123 45.6142 27.4166 48.0654 30.5044C48.0885 30.5335 48.1219 30.5537 48.1582 30.5615C57.1346 32.4893 57.7772 46.6791 56.7432 47.3254C56.5392 47.4528 55.8858 47.3796 55.0242 47.2832C51.5315 46.8924 44.6153 46.1186 50.3235 56.7568C50.3799 56.8619 50.3051 57.001 50.1873 57.0193C46.9795 57.5183 51.0649 67.5366 54.0935 74.1812C56.3453 73.6591 58.4885 72.8537 60.4839 71.8052C60.8379 72.5645 61.2664 73.2848 61.7588 73.9595C57.6543 76.1394 52.9715 77.375 48 77.375C31.7766 77.375 18.625 64.2234 18.625 48C18.625 31.7766 31.7766 18.625 48 18.625Z" fill="white"/>
<path d="M53.0864 64.3629C54.8303 62.9164 57.458 61.032 58.1414 61.3487C58.49 61.5102 59.0593 63.1271 59.4507 64.9271C59.3742 65.482 59.3345 66.0499 59.3345 66.6292C59.3345 67.6507 59.4607 68.64 59.6973 69.5867C59.5863 69.8691 59.4207 70.0474 59.1865 70.0826C58.5205 70.1826 55.5395 69.5125 53.8457 68.8795C53.8308 68.9301 53.8133 68.9747 53.793 69.0123C53.458 69.632 51.2996 69.9418 49.9688 69.9727C49.0888 69.9931 48.6607 69.7787 48.3948 69.4041C46.7469 70.8028 43.5914 72.831 42.9317 72.4068C41.6682 71.5941 40.4791 65.337 41.4304 64.0142C42.3008 62.8042 45.9033 64.0571 48.0447 64.869C48.3789 64.305 49.1279 63.9779 50.4846 63.742C52.0347 63.4725 52.7219 63.8473 53.0864 64.3629Z" fill="#33A055"/>
<path d="M41.9802 63.7436C42.4015 63.0771 45.817 63.9061 47.6919 64.7405C47.6919 64.7405 47.3065 66.486 47.9199 68.5425C48.0993 69.144 43.6064 71.8212 43.02 71.3606C42.3422 70.8279 41.095 65.1447 41.9802 63.7436Z" fill="#39B25E"/>
<path d="M52.9912 64.1992C54.9051 62.7707 58.0984 60.7549 58.4099 61.1233C58.988 61.8071 59.3777 62.8424 59.6223 63.9634C59.4334 64.819 59.3335 65.7099 59.3335 66.6294C59.3335 67.5211 59.4297 68.3883 59.6116 69.2241C58.6274 69.4182 54.5707 68.4538 54.5706 67.9028C54.5706 65.3271 53.9023 64.6204 53.2451 64.5481C53.317 64.6762 53.3747 64.8113 53.4238 64.9487C53.6653 65.624 54.0587 67.7723 53.7612 68.303C53.4637 68.8336 51.5316 69.0898 50.3396 69.1103C49.1476 69.1309 48.8791 68.695 48.6377 68.0198C48.4445 67.4795 48.3495 66.2094 48.3518 65.4822C48.3029 64.4035 48.6972 64.0243 50.5188 63.7295C51.8669 63.5113 52.5798 63.765 52.9912 64.1992Z" fill="#39B25E"/>
<path fill-rule="evenodd" clip-rule="evenodd" d="M43.6344 50.2034C43.9108 49.0017 45.1981 46.7373 49.795 46.7923C52.119 46.7826 55.0058 46.7913 56.9197 46.5739C59.7643 46.2508 61.8758 45.5627 63.2828 45.0264C65.2727 44.2672 65.9788 44.4365 66.2264 44.8908C66.4984 45.3899 66.1779 46.2518 65.4826 47.0451C64.1545 48.5606 61.7669 49.7348 57.5502 50.0834C53.3334 50.4319 50.5398 49.3008 49.3373 51.1423C48.8186 51.9366 49.2196 53.8086 53.2975 54.398C58.808 55.1933 63.3336 53.4398 63.8928 54.4988C64.452 55.5579 61.2309 57.7126 55.7115 57.7577C50.1921 57.8028 46.7446 55.8253 45.522 54.8423C43.9709 53.5951 43.2768 51.7762 43.6344 50.2034Z" fill="#FFC542"/>
<g opacity="0.8">
<path d="M50.663 37.0631C50.9709 36.559 51.6536 36.1699 52.7708 36.1699C53.888 36.1699 54.4136 36.6145 54.7775 37.1102C54.8515 37.2111 54.7394 37.3298 54.6245 37.2801C54.5969 37.2682 54.569 37.256 54.5406 37.2436C54.132 37.0651 53.6303 36.846 52.7708 36.8338C51.8516 36.8207 51.2719 37.0509 50.9069 37.2494C50.7839 37.3162 50.5901 37.1826 50.663 37.0631Z" fill="#0D3C73"/>
<path d="M38.0849 37.7081C39.1698 37.2547 40.0224 37.3133 40.6251 37.4559C40.752 37.4859 40.8403 37.3494 40.7388 37.2675C40.2709 36.8901 39.2239 36.4217 37.8582 36.9309C36.6401 37.3851 36.0659 38.3289 36.0625 38.9494C36.0617 39.0956 36.3626 39.108 36.4404 38.9843C36.6506 38.6498 37.0001 38.1615 38.0849 37.7081Z" fill="#0D3C73"/>
<path fill-rule="evenodd" clip-rule="evenodd" d="M53.7198 43.9595C52.7607 43.9595 51.9828 43.1837 51.9828 42.2289C51.9828 41.2741 52.7607 40.4983 53.7198 40.4983C54.6789 40.4983 55.4568 41.2741 55.4568 42.2289C55.4568 43.1837 54.6789 43.9595 53.7198 43.9595ZM54.9432 41.6556C54.9432 41.4083 54.7407 41.208 54.4934 41.208C54.2462 41.208 54.0459 41.4083 54.0437 41.6556C54.0437 41.9028 54.2462 42.1031 54.4934 42.1031C54.7428 42.1031 54.9432 41.9028 54.9432 41.6556Z" fill="#0D3C73"/>
<path fill-rule="evenodd" clip-rule="evenodd" d="M42.2112 43.4266C42.2112 44.5413 41.3054 45.4449 40.1865 45.4449C39.0697 45.4449 38.1618 44.5413 38.1618 43.4266C38.1618 42.3119 39.0697 41.4083 40.1865 41.4083C41.3033 41.4083 42.2112 42.3119 42.2112 43.4266ZM41.6144 42.7574C41.6144 42.4696 41.38 42.2352 41.0902 42.2352C40.8024 42.2352 40.568 42.4675 40.5659 42.7574C40.5659 43.0451 40.8003 43.2795 41.0902 43.2795C41.38 43.2795 41.6144 43.0451 41.6144 42.7574Z" fill="#0D3C73"/>
</g>
<path d="M66.8069 75.139C67.1569 75.3715 67.2788 75.8377 67.0614 76.1972L65.3039 79.1041C64.9629 79.668 65.4567 80.3609 66.0982 80.2102C69.6313 79.3802 77.6482 77.3806 80.0959 75.7879C83.6297 73.9381 86 70.5289 86 66.6294C86 60.7584 80.6274 55.999 74 55.999C67.3726 55.999 62 60.7584 62 66.6294C62 70.11 63.8883 73.1999 66.8069 75.139Z" fill="black"/>
<path d="M73.9998 71.3333C74.5521 71.3333 74.9998 71.781 74.9998 72.3333C74.9998 72.8855 74.5521 73.3333 73.9998 73.3333C73.4476 73.3332 72.9998 72.8855 72.9998 72.3333C72.9998 71.781 73.4476 71.3333 73.9998 71.3333Z" fill="white"/>
<path d="M74.2828 60C75.9366 60 77.2073 60.8822 77.7354 62.1289C78.2616 63.3711 77.9962 64.8698 76.8299 65.9033C76.378 66.3038 76.0032 66.5842 75.7259 66.7959C75.4297 67.022 75.3034 67.1289 75.2213 67.2273C75.1355 67.3301 75.0001 67.5094 75.0001 68.6667C75 69.219 74.5523 69.6667 74.0001 69.6667C73.4478 69.6667 73.0001 69.219 73.0001 68.6667C73.0001 67.4706 73.1079 66.6387 73.6854 65.9463C73.9349 65.6472 74.2451 65.4102 74.5125 65.2061C74.799 64.9874 75.1153 64.7505 75.5035 64.4065C76.0176 63.9509 76.0899 63.3721 75.8939 62.9092C75.6997 62.4508 75.188 62 74.2828 62C72.8213 62 72.1269 62.9447 71.9823 63.7024C71.8787 64.2448 71.355 64.6005 70.8126 64.4971C70.2701 64.3935 69.9144 63.8699 70.0179 63.3274C70.3184 61.7525 71.7386 60 74.2828 60Z" fill="white"/>
</svg>
