<svg width="44" height="44" viewBox="0 0 44 44" fill="none" xmlns="http://www.w3.org/2000/svg">
<path d="M20.3476 4.95392C31.1624 4.38316 40.5884 11.4752 41.4014 20.7945C42.2143 30.1139 34.1063 38.1314 23.2915 38.7022C20.5578 38.8465 17.9129 38.5009 15.4733 37.7537C14.7058 37.5186 14.3423 36.6751 14.5034 35.8888C14.6253 35.2938 14.6893 34.6782 14.6893 34.048C14.6893 28.9205 10.4569 24.7638 5.23599 24.7638C4.84786 24.7638 4.46519 24.7867 4.08931 24.8314C3.27121 24.9285 2.44217 24.4622 2.32713 23.6464C2.2905 23.3867 2.2606 23.125 2.23762 22.8616C1.42468 13.5423 9.53282 5.52471 20.3476 4.95392Z" fill="#FFC95C"/>
<path d="M18.0838 25.7928C18.8331 25.3456 19.846 25.4449 20.5108 25.8373H20.5116C21.2443 26.2404 21.7773 26.8276 22.2234 27.4356L22.4221 27.728C22.6113 28.0268 22.7702 28.3448 22.8886 28.6802C22.9801 28.9413 23.0465 29.2155 23.069 29.4958L23.0682 29.538C23.0641 29.5795 23.0494 29.6206 23.0237 29.6554C22.9894 29.7016 22.9386 29.7335 22.8817 29.7429C22.825 29.7522 22.7664 29.7381 22.7191 29.7053C22.6836 29.6806 22.6564 29.6466 22.6393 29.6086L22.6255 29.5695C22.5645 29.3425 22.4699 29.123 22.3561 28.9135C22.1603 28.5548 21.909 28.2223 21.6295 27.9236L21.6287 27.9229C21.1768 27.4229 20.6199 26.9594 20.0642 26.7067C19.5084 26.4541 18.963 26.4157 18.5212 26.7451L18.5181 26.7466C18.0212 27.0635 17.8216 27.6224 17.8513 28.2428C17.8775 28.7859 18.0798 29.3716 18.4061 29.8687L18.5542 30.0759L18.5565 30.079H18.5557C18.8304 30.5 19.3127 30.8336 19.8095 30.9652C20.3062 31.0966 20.8072 31.0241 21.1338 30.6499C21.2535 30.5003 21.3242 30.304 21.3387 30.0859C21.3427 30.0247 21.3681 29.9649 21.4131 29.9209C21.4581 29.877 21.519 29.8519 21.5819 29.8519C21.6446 29.8519 21.705 29.8772 21.75 29.9209C21.7838 29.954 21.8073 29.9961 21.8183 30.0406L21.8252 30.0867L21.8275 30.1987C21.8247 30.4632 21.7574 30.7396 21.6065 30.9798L21.605 30.9829L21.5651 30.9537L21.6042 30.9829C21.1087 31.6572 20.3702 31.8368 19.6576 31.7133C18.9481 31.5903 18.2588 31.1667 17.8467 30.6261C17.3292 30.0494 16.9181 29.1669 16.8523 28.2789C16.7865 27.3893 17.0671 26.4892 17.9373 25.8895L18.0838 25.7928ZM37.0883 12.5201C37.1074 12.5151 37.1285 12.5228 37.1405 12.5385C37.2433 12.6752 37.3446 12.8133 37.4428 12.9529C37.4566 12.9726 37.4538 12.9997 37.4366 13.0165C37.3977 13.0539 37.3487 13.0818 37.2947 13.094L37.2939 13.0933C37.1697 13.1223 37.0376 13.1931 36.9179 13.2859L36.9172 13.2851C36.4868 13.6412 36.2347 14.1587 36.1131 14.7361C35.9914 15.3139 36.0011 15.9499 36.0939 16.5384L36.0946 16.5408C36.1798 17.3333 36.5352 18.1442 37.0438 18.7122C37.5527 19.2803 38.2079 19.5987 38.896 19.4304C39.1399 19.368 39.3624 19.2545 39.5436 19.0982C39.6493 19.0072 39.7418 18.9018 39.8183 18.7851L39.8368 18.7598L39.8598 18.7429C39.8684 18.7399 39.8781 18.7393 39.8874 18.7414C39.9062 18.7458 39.9206 18.7615 39.9242 18.7805C39.9935 19.1573 40.048 19.539 40.0861 19.9238C40.0877 19.9412 40.0797 19.9582 40.0654 19.9683C39.7775 20.17 39.4501 20.3083 39.1163 20.3795H39.114C37.9319 20.5686 37.0162 20.066 36.3824 19.3007C35.7504 18.5375 35.3955 17.5109 35.3273 16.6405L35.3043 16.3911C35.2073 15.1308 35.4046 13.6766 36.5435 12.7833L36.5458 12.7818L36.6678 12.7012C36.7944 12.6245 36.9345 12.56 37.0883 12.5201ZM11.9485 10.8459C12.756 10.8619 13.5474 11.1713 14.0593 12.0022C14.5928 12.8562 14.3217 13.9654 13.8683 14.6409L13.8675 14.6402C13.4028 15.353 12.8699 15.8898 12.1334 16.3781L12.1296 16.3804L12.1058 16.3374L12.1288 16.3804L12.0298 16.4333C10.9871 16.9773 9.77838 17.2405 8.56854 16.83L8.56701 16.8293C8.26452 16.715 7.97161 16.5361 7.73756 16.2952C7.6657 16.2206 7.62616 16.119 7.6263 16.0152C7.62671 15.911 7.66688 15.8107 7.73909 15.7366C7.81138 15.6627 7.91046 15.6198 8.01455 15.6169C8.11851 15.6143 8.22137 15.6519 8.29769 15.722C8.44949 15.8602 8.63607 15.9591 8.84324 16.0205C9.71155 16.2599 10.7789 15.9509 11.6132 15.4826C12.1174 15.1418 12.6547 14.6271 12.9905 14.0831C13.328 13.5361 13.4531 12.9747 13.1639 12.5262L13.1624 12.5232C12.9224 12.0903 12.4537 11.896 11.9063 11.8878C11.3589 11.8797 10.7412 12.0584 10.2213 12.359L10.2198 12.3597C9.48459 12.7531 8.87011 13.3757 8.64834 14.103C8.58524 14.3101 8.55614 14.5222 8.56624 14.7261C8.57305 14.8638 8.52457 14.999 8.43196 15.1013C8.33929 15.2035 8.20989 15.2648 8.0721 15.2716C7.93434 15.2783 7.79908 15.2299 7.69689 15.1374C7.59503 15.0448 7.53334 14.9151 7.52655 14.7775C7.51005 14.4414 7.5587 14.1095 7.65316 13.8L7.72145 13.6005C8.09361 12.6214 8.87774 11.9021 9.7264 11.4443C10.318 11.1045 11.1431 10.8299 11.9485 10.8459ZM22.9684 5.89524C23.3862 5.92163 23.8013 5.96005 24.2115 6.00957C24.2306 6.01203 24.2465 6.02566 24.2521 6.0441C24.2577 6.0628 24.2517 6.08293 24.2368 6.0955C24.2268 6.10389 24.2155 6.11357 24.203 6.12236H24.2023C24.0839 6.20547 23.9721 6.30138 23.87 6.40626C23.7242 6.55613 23.5982 6.72541 23.5002 6.90501L23.4994 6.90424L23.4987 6.90654V6.90731C23.3437 7.18857 23.2294 7.49165 23.1795 7.78817V7.78893C23.0853 8.32561 23.2318 8.79237 23.616 9.10792L23.6958 9.16854L23.6966 9.16931C23.7052 9.17563 23.7137 9.18295 23.7204 9.18849C23.9918 9.38471 24.3453 9.4323 24.7079 9.36266C25.0705 9.29298 25.4388 9.10681 25.7346 8.84244H25.7353C25.8866 8.70989 26.023 8.56066 26.1359 8.40201C26.397 8.01721 26.5752 7.39708 26.62 6.84439C26.6284 6.72868 26.6297 6.61433 26.6216 6.50678C26.6205 6.49123 26.6273 6.47545 26.6392 6.46534C26.6511 6.45534 26.6671 6.45185 26.6822 6.45537C26.8016 6.48422 26.9212 6.51364 27.0397 6.54437L27.395 6.63952L27.4188 6.65487C27.4247 6.66173 27.4289 6.67084 27.4303 6.68019C27.4374 6.72933 27.4431 6.7787 27.4479 6.82751V6.82904C27.4984 7.56007 27.4141 8.25974 26.9952 8.97595L26.9945 8.97748C26.836 9.22419 26.6433 9.44349 26.4274 9.63275L26.4267 9.63199C25.6326 10.3463 24.2592 10.7889 23.181 10.0747L23.0782 10.0018C23.0736 9.9984 23.0691 9.99459 23.0659 9.99185C23.0635 9.98981 23.0614 9.98784 23.0598 9.98648C22.3277 9.47851 21.9918 8.42895 22.1682 7.61629C22.2424 7.18145 22.3959 6.78099 22.5955 6.4124H22.5963L22.6508 6.31572C22.7334 6.17455 22.8257 6.0401 22.927 5.91365C22.9369 5.90137 22.9527 5.89441 22.9684 5.89524Z" fill="#F5A031"/>
<path d="M20.3474 4.95411C31.1622 4.38334 40.5884 11.4757 41.4013 20.795C42.214 30.1142 34.1061 38.1314 23.2915 38.7022L23.036 38.7145L22.5411 38.7299C20.2384 38.7765 18.0072 38.477 15.9185 37.8851L15.4735 37.7538C14.754 37.5334 14.3891 36.7781 14.4791 36.0366L14.5036 35.8885C14.6179 35.3309 14.6811 34.7549 14.6885 34.166L14.6893 34.0478C14.6891 28.9605 10.5227 24.8293 5.35819 24.765L5.23619 24.7642C4.84807 24.7642 4.46495 24.7864 4.08908 24.831C3.3461 24.9191 2.59434 24.5429 2.37647 23.8619L2.3404 23.7222L2.32736 23.6463C2.29989 23.4515 2.27581 23.2554 2.256 23.0585L2.23758 22.8613C1.43125 13.615 9.40711 5.65008 20.0949 4.96869L20.3474 4.95411ZM39.7969 20.5441C38.848 12.4459 30.4526 5.99429 20.4302 6.52323L20.4295 6.52247L20.1862 6.53781L20.1855 6.53705C10.1555 7.18076 3.09858 14.5685 3.80211 22.714L3.81975 22.9012C3.83223 23.0251 3.84835 23.1487 3.86426 23.2718C3.87727 23.2724 3.89072 23.2727 3.90416 23.2711C4.34171 23.2191 4.78633 23.1928 5.23619 23.1928H5.24616L5.36816 23.1936H5.37814C11.3753 23.2684 16.2606 28.0731 16.2607 34.0478V34.0585L16.26 34.1759V34.1859C16.2512 34.8749 16.1769 35.5496 16.0428 36.2039C16.0373 36.2306 16.0361 36.2579 16.0382 36.2822C18.2013 36.9321 20.5402 37.2446 22.9616 37.1446L23.2171 37.1323C33.3749 36.5924 40.5522 29.1446 39.836 20.9316L39.7969 20.5441Z" fill="#B66A1F"/>
<path d="M24.5367 19.7457C26.9444 19.096 28.2887 22.4136 28.4154 23.6006C28.5213 24.5889 28.108 25.1061 27.4685 25.472C26.6374 25.9474 25.4708 26.0431 24.4584 26.026C23.8402 26.0156 23.4094 25.6783 23.1218 25.261C23.9131 25.0873 24.7109 24.9421 25.5173 24.8367C25.6143 24.8237 25.7117 24.8112 25.8088 24.7991C25.8595 24.7928 25.9067 24.7651 25.9401 24.7247C25.9733 24.6842 25.9904 24.6336 25.9869 24.5827C25.9833 24.5319 25.9595 24.484 25.9209 24.4485C25.8824 24.4133 25.8321 24.3934 25.7812 24.394C25.6821 24.3956 25.5821 24.3969 25.4827 24.3994C24.5833 24.4187 23.6829 24.4875 22.7865 24.5904C22.7672 24.5356 22.7498 24.4814 22.7343 24.4285V24.4247C22.3445 23.0872 22.3138 20.3477 24.5367 19.7457ZM17.0041 16.856C18.0254 16.7833 19.2572 17.1625 19.8753 18.1152C19.9428 18.2181 19.9995 18.3223 20.0495 18.4321C20.0825 18.5134 20.0984 18.6038 20.0833 18.6914C20.0681 18.779 20.0234 18.8562 19.9567 18.9086C19.8899 18.9608 19.8043 18.9854 19.7157 18.9792C19.627 18.9728 19.5427 18.9356 19.4717 18.884C19.3962 18.8335 19.3218 18.7903 19.2454 18.7505C18.564 18.4091 17.8589 18.401 17.0977 18.4374C16.3497 18.4896 15.5111 18.5857 14.8211 18.8464C14.7502 18.8745 14.6807 18.9088 14.6255 18.94C14.5636 18.993 14.4888 19.034 14.4075 19.0474C14.3265 19.0608 14.2456 19.0465 14.1797 19.0045C14.1137 18.9623 14.0658 18.895 14.0438 18.8157C14.0219 18.7364 14.028 18.6515 14.05 18.5733C14.0995 18.4399 14.1738 18.3178 14.2464 18.2149C14.9595 17.3127 15.9645 16.9365 17.0041 16.856ZM28.6417 13.8943C29.5277 13.464 30.7329 13.4198 31.5805 14.0669C31.6717 14.1368 31.7556 14.2133 31.8329 14.2956C31.8895 14.362 31.934 14.4418 31.9488 14.5288C31.9634 14.6158 31.9475 14.7027 31.9027 14.7736C31.8578 14.8443 31.7865 14.8954 31.7017 14.9194C31.617 14.9434 31.5265 14.938 31.4424 14.9155C31.3626 14.8987 31.2844 14.8874 31.2076 14.8802C30.5222 14.8283 29.9219 15.0492 29.3208 15.3253C28.7276 15.615 28.1398 15.9561 27.658 16.4939C27.6053 16.5545 27.5546 16.6188 27.5061 16.6865C27.4624 16.7546 27.4038 16.8155 27.3312 16.853C27.2586 16.8903 27.1782 16.9013 27.1033 16.8821C27.0282 16.8628 26.9623 16.8142 26.9168 16.7463C26.8714 16.6785 26.85 16.5968 26.8447 16.5161C26.8422 16.4057 26.8487 16.2933 26.8631 16.1823C27.0035 15.166 27.7444 14.3194 28.6417 13.8943Z" fill="#783B13"/>
</svg>
