<svg fill="none" viewBox="0 0 128 80" xmlns="http://www.w3.org/2000/svg">
  <rect width="127" height="79" x=".5" y=".5" fill="#A1CFF7" fill-opacity=".08" rx="19.5"/>
  <rect width="127" height="79" x=".5" y=".5" stroke="#1074CC" rx="19.5"/>
  <path fill="#1074CC" fill-opacity=".2" d="M41.07 5.77c3.176 0 5.75 2.574 5.75 5.75v7.82c0 2.667 2.163 4.83 4.83 4.83h75.85V59.5c0 11.046-8.954 20-20 20h-87c-11.046 0-20-8.954-20-20V16.753c.317-2.31.833-4.172 1.68-5.833C3.158 9 4.433 7.265 5.947 5.77z"/>
  <path fill="#fff" d="M110 29c5.523 0 10 4.477 10 10s-4.477 10-10 10H18c-5.523 0-10-4.477-10-10s4.477-10 10-10z"/>
  <path fill="#1074CC" d="M19.489 34c2.362 0 4.277 1.959 4.277 4.375 0 1.058-.367 2.028-.979 2.785l2.082 2.129.053.065c.104.161.086.381-.053.524-.14.142-.354.16-.512.053l-.064-.053-2.082-2.13c-.74.626-1.688 1.002-2.722 1.002-2.363 0-4.278-1.959-4.278-4.375S17.126 34 19.488 34m0 .833c-1.913 0-3.463 1.586-3.463 3.542s1.55 3.541 3.462 3.541 3.463-1.585 3.463-3.541-1.55-3.542-3.463-3.542"/>
</svg>
