<svg fill="none" viewBox="0 0 12 12" xmlns="http://www.w3.org/2000/svg">
  <g clip-path="url(#a)">
    <path fill="#000" d="M6 0c.653 0 1.326.218 1.895.768.354.343.952.703 1.788.97.544.174 1.117.353 1.541.746.456.422.681 1.02.745 1.877.088 1.185.048 2.634-.9 4.248l-.094.156c-.638 1.03-1.582 1.83-2.494 2.373-.896.534-1.836.862-2.493.862s-1.592-.328-2.483-.863c-.85-.51-1.726-1.245-2.357-2.182l-.123-.19C-.014 7.09-.06 5.585.03 4.361c.064-.856.289-1.455.745-1.877.424-.392.997-.572 1.54-.745.837-.268 1.435-.628 1.789-.97C4.674.218 5.347 0 6 0m0 1c-.42 0-.835.135-1.2.487-.492.477-1.239.904-2.18 1.204-.596.19-.935.314-1.165.528-.2.183-.373.494-.426 1.215C.945 5.55.99 6.814 1.874 8.24c.533.86 1.339 1.557 2.145 2.041.822.493 1.571.72 1.968.72.398 0 1.154-.227 1.982-.72.812-.484 1.622-1.183 2.155-2.041v-.001c.829-1.336.92-2.53.86-3.593l-.014-.21c-.053-.722-.227-1.033-.426-1.217-.23-.213-.57-.336-1.166-.527-.941-.3-1.687-.728-2.18-1.204C6.836 1.135 6.42 1 6 1m0 2.5c.276 0 .5.224.5.5v1.5H8c.276 0 .5.224.5.5s-.224.5-.5.5H6.5V8c0 .276-.224.5-.5.5s-.5-.224-.5-.5V6.5H4c-.276 0-.5-.224-.5-.5s.224-.5.5-.5h1.5V4c0-.276.224-.5.5-.5"/>
  </g>
  <defs>
    <clipPath id="a">
      <path fill="#fff" d="M0 0h12v12H0z"/>
    </clipPath>
  </defs>
</svg>
