<svg width="96" height="96" viewBox="0 0 96 96" fill="none" xmlns="http://www.w3.org/2000/svg">
<path fill-rule="evenodd" clip-rule="evenodd" d="M48 80C65.6731 80 80 65.6731 80 48C80 30.3269 65.6731 16 48 16C30.3269 16 16 30.3269 16 48C16 65.6731 30.3269 80 48 80Z" fill="#F05F2B"/>
<path fill-rule="evenodd" clip-rule="evenodd" d="M52.4996 71.875C52.4996 71.625 52.561 71.568 51.7663 69.984C49.6543 65.7547 47.5316 59.792 48.497 55.9467C48.673 55.248 46.5076 30.0747 44.977 29.264C43.2756 28.3573 41.1823 26.9191 39.2677 26.5991C38.2962 26.4437 37.0225 26.5173 36.0268 26.6514C35.8498 26.6752 35.8425 26.9933 36.0116 27.0506C36.6653 27.2721 37.4591 27.6566 37.9269 28.238C38.0154 28.3481 37.8966 28.5211 37.7555 28.5264C37.3145 28.5427 36.5145 28.7276 35.4591 29.624C35.337 29.7277 35.4384 29.9202 35.5955 29.8892C37.8638 29.4404 40.1803 29.6615 41.5455 30.9024C41.6341 30.9829 41.5877 31.1273 41.4722 31.1587C29.6251 34.3783 31.9704 44.6838 35.1242 57.3306C38.0086 68.8969 39.0459 72.4152 39.3491 73.416C39.3653 73.4695 39.4026 73.512 39.4544 73.5332C43.4945 75.1889 52.4996 75.2805 52.4996 72.5V71.875Z" fill="#DDDDDD"/>
<path fill-rule="evenodd" clip-rule="evenodd" d="M77.375 48C77.375 64.2234 64.2234 77.375 48 77.375C31.7766 77.375 18.625 64.2234 18.625 48C18.625 31.7766 31.7766 18.625 48 18.625C64.2234 18.625 77.375 31.7766 77.375 48ZM41.1446 73.9927C40.3329 71.4852 38.0643 64.2173 35.8237 55.0325C35.749 54.7265 35.6744 54.4219 35.6002 54.1188L35.5984 54.1113C32.8862 43.0332 30.671 33.985 42.8119 31.1425C42.9229 31.1165 42.9772 30.9838 42.9037 30.8966C41.5107 29.2441 38.9011 28.7024 35.6014 29.8408C35.4661 29.8875 35.3486 29.751 35.4327 29.6351C36.0797 28.7433 37.3442 28.0575 37.9684 27.7569C38.0975 27.6948 38.0896 27.5059 37.9529 27.4631C37.5446 27.3353 36.8494 27.1397 36.0674 27.0134C35.8823 26.9836 35.8657 26.6665 36.0514 26.6415C40.7293 26.0121 45.6141 27.4166 48.0654 30.5044C48.0885 30.5334 48.1219 30.5538 48.1582 30.5616C57.1346 32.4893 57.7773 46.679 56.7432 47.3253C56.5394 47.4527 55.886 47.3796 55.0242 47.2832C51.5315 46.8924 44.6152 46.1186 50.3234 56.7569C50.3798 56.8619 50.3052 57.001 50.1874 57.0193C46.9794 57.5181 51.065 67.5365 54.0936 74.1812C66.0008 71.4208 74.875 60.7467 74.875 48C74.875 33.1573 62.8427 21.125 48 21.125C33.1573 21.125 21.125 33.1573 21.125 48C21.125 60.4734 29.6226 70.9621 41.1446 73.9927Z" fill="white"/>
<path d="M58.1413 61.3487C57.458 61.032 54.8305 62.9164 53.0866 64.3628C52.7221 63.8472 52.0349 63.4723 50.4847 63.7419C49.128 63.9778 48.379 64.3049 48.0448 64.8689C45.9034 64.057 42.3008 62.804 41.4305 64.0141C40.4791 65.3369 41.6682 71.5943 42.9318 72.4068C43.5915 72.831 46.7471 70.8027 48.3949 69.404C48.6608 69.7786 49.0888 69.993 49.9688 69.9726C51.2995 69.9417 53.458 69.632 53.793 69.0122C53.8134 68.9746 53.8309 68.9301 53.8458 68.8794C55.5395 69.5124 58.5205 70.1824 59.1865 70.0823C60.9219 69.8217 58.9447 61.721 58.1413 61.3487Z" fill="#33A055"/>
<path d="M53.2451 64.5481C53.317 64.6763 53.3747 64.8114 53.4238 64.9488C53.6653 65.6241 54.0587 67.7724 53.7612 68.303C53.4637 68.8337 51.5315 69.0899 50.3395 69.1105C49.1476 69.131 48.8793 68.6951 48.6378 68.0198C48.4446 67.4796 48.3495 66.2095 48.3519 65.4822C48.303 64.4035 48.6971 64.0243 50.5189 63.7295C51.867 63.5113 52.5797 63.765 52.9912 64.1993C54.9051 62.7708 58.0985 60.7549 58.41 61.1233C59.963 62.9604 60.1593 67.3336 59.823 69.093C59.7131 69.6682 54.5706 68.5231 54.5706 67.9028C54.5706 65.327 53.9022 64.6204 53.2451 64.5481Z" fill="#39B25E"/>
<path d="M41.9802 63.7438C42.4014 63.0772 45.8169 63.9062 47.6918 64.7405C47.6918 64.7405 47.3066 66.486 47.92 68.5425C48.0994 69.144 43.6065 71.8214 43.02 71.3607C42.3423 70.8284 41.0949 65.1449 41.9802 63.7438Z" fill="#39B25E"/>
<path fill-rule="evenodd" clip-rule="evenodd" d="M43.6344 50.2034C43.9108 49.0017 45.1981 46.7373 49.795 46.7923C52.119 46.7826 55.0058 46.7913 56.9197 46.5739C59.7643 46.2508 61.8758 45.5627 63.2828 45.0264C65.2727 44.2672 65.9788 44.4365 66.2264 44.8908C66.4984 45.3899 66.1779 46.2518 65.4826 47.0451C64.1545 48.5606 61.7669 49.7348 57.5502 50.0834C53.3334 50.4319 50.5398 49.3008 49.3373 51.1423C48.8186 51.9366 49.2196 53.8086 53.2975 54.398C58.808 55.1933 63.3336 53.4398 63.8928 54.4988C64.452 55.5579 61.2309 57.7126 55.7115 57.7577C50.1921 57.8028 46.7446 55.8253 45.522 54.8423C43.9709 53.5951 43.2768 51.7762 43.6344 50.2034Z" fill="#FFC542"/>
<g opacity="0.8">
<path d="M50.663 37.0636C50.9709 36.5595 51.6536 36.1704 52.7708 36.1704C53.888 36.1704 54.4136 36.615 54.7775 37.1107C54.8515 37.2116 54.7394 37.3303 54.6245 37.2806C54.5969 37.2687 54.569 37.2565 54.5406 37.2441C54.132 37.0656 53.6303 36.8465 52.7708 36.8343C51.8516 36.8212 51.2719 37.0514 50.9069 37.2498C50.7839 37.3167 50.5901 37.1831 50.663 37.0636Z" fill="#0D3C73"/>
<path d="M38.0849 37.7086C39.1698 37.2552 40.0224 37.3138 40.6251 37.4564C40.752 37.4864 40.8403 37.3499 40.7388 37.268C40.2709 36.8906 39.2239 36.4222 37.8582 36.9314C36.6401 37.3856 36.0659 38.3294 36.0625 38.9499C36.0617 39.0961 36.3626 39.1085 36.4404 38.9847C36.6506 38.6503 37.0001 38.1619 38.0849 37.7086Z" fill="#0D3C73"/>
<path fill-rule="evenodd" clip-rule="evenodd" d="M53.7198 43.96C52.7607 43.96 51.9828 43.1842 51.9828 42.2294C51.9828 41.2745 52.7607 40.4987 53.7198 40.4987C54.6789 40.4987 55.4568 41.2745 55.4568 42.2294C55.4568 43.1842 54.6789 43.96 53.7198 43.96ZM54.9432 41.656C54.9432 41.4088 54.7407 41.2085 54.4934 41.2085C54.2462 41.2085 54.0459 41.4088 54.0437 41.656C54.0437 41.9033 54.2462 42.1036 54.4934 42.1036C54.7428 42.1036 54.9432 41.9033 54.9432 41.656Z" fill="#0D3C73"/>
<path fill-rule="evenodd" clip-rule="evenodd" d="M42.2112 43.4271C42.2112 44.5418 41.3054 45.4454 40.1865 45.4454C39.0697 45.4454 38.1618 44.5418 38.1618 43.4271C38.1618 42.3124 39.0697 41.4087 40.1865 41.4087C41.3033 41.4087 42.2112 42.3124 42.2112 43.4271ZM41.6144 42.7579C41.6144 42.4701 41.38 42.2357 41.0902 42.2357C40.8024 42.2357 40.568 42.468 40.5659 42.7579C40.5659 43.0456 40.8003 43.28 41.0902 43.28C41.38 43.28 41.6144 43.0456 41.6144 42.7579Z" fill="#0D3C73"/>
</g>
</svg>
