<svg width="128" height="96" viewBox="0 0 128 96" fill="none" xmlns="http://www.w3.org/2000/svg">
<path d="M64 16C81.6731 16 96 30.3269 96 48C96 50.1445 95.7883 52.2395 95.386 54.2659C93.699 53.6606 91.876 53.3323 90.0002 53.3323C82.213 53.3323 75.3335 58.9911 75.3335 66.6294C75.3335 70.3303 76.9893 73.6087 79.5571 75.9697C74.9517 78.5368 69.6468 80 64 80C46.3269 80 32 65.6731 32 48C32 30.3269 46.3269 16 64 16Z" fill="#F05F2B"/>
<path d="M78.5798 69.9023C78.5956 69.9455 78.6116 69.9886 78.6279 70.0315C78.6241 70.0214 78.6203 70.0113 78.6165 70.0012L78.5798 69.9023Z" fill="#F05F2B"/>
<path d="M78.0215 67.2698L78.0125 67.1162C78.0151 67.1686 78.0182 67.2208 78.0217 67.2729C78.0217 67.2719 78.0216 67.2708 78.0215 67.2698Z" fill="#F05F2B"/>
<path d="M64 18.625C80.2234 18.625 93.375 31.7766 93.375 48C93.375 49.9102 93.1925 51.7778 92.8442 53.5864C92.0281 53.4393 91.1924 53.3541 90.3447 53.3359C90.6921 51.6113 90.875 49.827 90.875 48C90.875 33.1574 78.8427 21.125 64 21.125C49.1573 21.125 37.125 33.1574 37.125 48C37.125 60.4734 45.6226 70.962 57.1445 73.9927C56.3328 71.4851 54.0643 64.2172 51.8237 55.0325C51.7491 54.7265 51.6745 54.4219 51.6003 54.1189L51.5984 54.1113C48.8862 43.0333 46.6711 33.9851 58.812 31.1426C58.9229 31.1166 58.9771 30.9839 58.9038 30.8967C57.5108 29.2442 54.9012 28.7025 51.6016 29.8408C51.4662 29.8875 51.3485 29.7509 51.4326 29.635C52.0797 28.7432 53.3443 28.0574 53.9685 27.7568C54.0974 27.6947 54.0895 27.5059 53.9529 27.4631C53.5445 27.3353 52.8494 27.1396 52.0674 27.0134C51.8824 26.9836 51.8658 26.6666 52.0515 26.6416C56.7294 26.0123 61.6142 27.4166 64.0654 30.5044C64.0885 30.5335 64.1219 30.5537 64.1582 30.5615C73.1346 32.4893 73.7772 46.6791 72.7432 47.3254C72.5392 47.4528 71.8858 47.3796 71.0242 47.2832C67.5315 46.8924 60.6153 46.1186 66.3235 56.7568C66.3799 56.8619 66.3051 57.001 66.1873 57.0193C62.9795 57.5183 67.0649 67.5366 70.0935 74.1812C72.3453 73.6591 74.4885 72.8537 76.4839 71.8052C76.8379 72.5645 77.2664 73.2848 77.7588 73.9595C73.6543 76.1394 68.9715 77.375 64 77.375C47.7766 77.375 34.625 64.2234 34.625 48C34.625 31.7766 47.7766 18.625 64 18.625Z" fill="white"/>
<path d="M69.0864 64.3629C70.8303 62.9164 73.458 61.032 74.1414 61.3487C74.49 61.5102 75.0593 63.1271 75.4507 64.9271C75.3742 65.482 75.3345 66.0499 75.3345 66.6292C75.3345 67.6507 75.4607 68.64 75.6973 69.5867C75.5863 69.8691 75.4207 70.0474 75.1865 70.0826C74.5205 70.1826 71.5395 69.5125 69.8457 68.8795C69.8308 68.9301 69.8133 68.9747 69.793 69.0123C69.458 69.632 67.2996 69.9418 65.9688 69.9727C65.0888 69.9931 64.6607 69.7787 64.3948 69.4041C62.7469 70.8028 59.5914 72.831 58.9317 72.4068C57.6682 71.5941 56.4791 65.337 57.4304 64.0142C58.3008 62.8042 61.9033 64.0571 64.0447 64.869C64.3789 64.305 65.1279 63.9779 66.4846 63.742C68.0347 63.4725 68.7219 63.8473 69.0864 64.3629Z" fill="#33A055"/>
<path d="M57.9802 63.7436C58.4015 63.0771 61.817 63.9061 63.6919 64.7405C63.6919 64.7405 63.3065 66.486 63.9199 68.5425C64.0993 69.144 59.6064 71.8212 59.02 71.3606C58.3422 70.8279 57.095 65.1447 57.9802 63.7436Z" fill="#39B25E"/>
<path d="M68.9912 64.1992C70.9051 62.7707 74.0984 60.7549 74.4099 61.1233C74.988 61.8071 75.3777 62.8424 75.6223 63.9634C75.4334 64.819 75.3335 65.7099 75.3335 66.6294C75.3335 67.5211 75.4297 68.3883 75.6116 69.2241C74.6274 69.4182 70.5707 68.4538 70.5706 67.9028C70.5706 65.3271 69.9023 64.6204 69.2451 64.5481C69.317 64.6762 69.3747 64.8113 69.4238 64.9487C69.6653 65.624 70.0587 67.7723 69.7612 68.303C69.4637 68.8336 67.5316 69.0898 66.3396 69.1103C65.1476 69.1309 64.8791 68.695 64.6377 68.0198C64.4445 67.4795 64.3495 66.2094 64.3518 65.4822C64.3029 64.4035 64.6972 64.0243 66.5188 63.7295C67.8669 63.5113 68.5798 63.765 68.9912 64.1992Z" fill="#39B25E"/>
<path fill-rule="evenodd" clip-rule="evenodd" d="M59.6344 50.2034C59.9108 49.0017 61.1981 46.7373 65.795 46.7923C68.119 46.7826 71.0058 46.7913 72.9197 46.5739C75.7643 46.2508 77.8758 45.5627 79.2828 45.0264C81.2727 44.2672 81.9788 44.4365 82.2264 44.8908C82.4984 45.3899 82.1779 46.2518 81.4826 47.0451C80.1545 48.5606 77.7669 49.7348 73.5502 50.0834C69.3334 50.4319 66.5398 49.3008 65.3373 51.1423C64.8186 51.9366 65.2196 53.8086 69.2975 54.398C74.808 55.1933 79.3336 53.4398 79.8928 54.4988C80.452 55.5579 77.2309 57.7126 71.7115 57.7577C66.1921 57.8028 62.7446 55.8253 61.522 54.8423C59.9709 53.5951 59.2768 51.7762 59.6344 50.2034Z" fill="#FFC542"/>
<g opacity="0.8">
<path d="M66.663 37.0636C66.9709 36.5595 67.6536 36.1704 68.7708 36.1704C69.888 36.1704 70.4136 36.615 70.7775 37.1107C70.8515 37.2116 70.7394 37.3303 70.6245 37.2806C70.5969 37.2687 70.569 37.2565 70.5406 37.2441C70.132 37.0656 69.6303 36.8465 68.7708 36.8343C67.8516 36.8212 67.2719 37.0514 66.9069 37.2498C66.7839 37.3167 66.5901 37.1831 66.663 37.0636Z" fill="#0D3C73"/>
<path d="M54.0849 37.7086C55.1698 37.2552 56.0224 37.3138 56.6251 37.4564C56.752 37.4864 56.8403 37.3499 56.7388 37.268C56.2709 36.8906 55.2239 36.4222 53.8582 36.9314C52.6401 37.3856 52.0659 38.3294 52.0625 38.9499C52.0617 39.0961 52.3626 39.1085 52.4404 38.9847C52.6506 38.6503 53.0001 38.1619 54.0849 37.7086Z" fill="#0D3C73"/>
<path fill-rule="evenodd" clip-rule="evenodd" d="M69.7198 43.96C68.7607 43.96 67.9828 43.1842 67.9828 42.2294C67.9828 41.2745 68.7607 40.4987 69.7198 40.4987C70.6789 40.4987 71.4568 41.2745 71.4568 42.2294C71.4568 43.1842 70.6789 43.96 69.7198 43.96ZM70.9432 41.656C70.9432 41.4088 70.7407 41.2085 70.4934 41.2085C70.2462 41.2085 70.0459 41.4088 70.0437 41.656C70.0437 41.9033 70.2462 42.1036 70.4934 42.1036C70.7428 42.1036 70.9432 41.9033 70.9432 41.656Z" fill="#0D3C73"/>
<path fill-rule="evenodd" clip-rule="evenodd" d="M58.2112 43.4271C58.2112 44.5418 57.3054 45.4454 56.1865 45.4454C55.0697 45.4454 54.1618 44.5418 54.1618 43.4271C54.1618 42.3124 55.0697 41.4087 56.1865 41.4087C57.3033 41.4087 58.2112 42.3124 58.2112 43.4271ZM57.6144 42.7579C57.6144 42.4701 57.38 42.2357 57.0902 42.2357C56.8024 42.2357 56.568 42.468 56.5659 42.7579C56.5659 43.0456 56.8003 43.28 57.0902 43.28C57.38 43.28 57.6144 43.0456 57.6144 42.7579Z" fill="#0D3C73"/>
</g>
<path d="M82.8069 75.139C83.1569 75.3715 83.2788 75.8377 83.0614 76.1972L81.3039 79.1041C80.9629 79.668 81.4567 80.3609 82.0982 80.2102C85.6313 79.3802 93.6482 77.3806 96.0959 75.7879C99.6297 73.9381 102 70.5289 102 66.6294C102 60.7584 96.6274 55.999 90 55.999C83.3726 55.999 78 60.7584 78 66.6294C78 70.11 79.8883 73.1999 82.8069 75.139Z" fill="#FAB341"/>
<path d="M90.0002 70.667C90.7366 70.667 91.3334 71.2639 91.3335 72.0002C91.3335 72.7366 90.7366 73.3337 90.0002 73.3337C89.2638 73.3337 88.667 72.7366 88.667 72.0002C88.667 71.2639 89.2639 70.667 90.0002 70.667Z" fill="black"/>
<path d="M90.0004 59.667C90.3785 59.667 90.7391 59.8074 90.9887 60.0574C91.2392 60.3074 91.3581 60.6466 91.3337 61.0002C91.3254 61.1225 91.3171 61.2447 91.3088 61.3669C91.1588 63.5669 91.0088 65.7668 90.8588 67.9668C90.8505 68.089 90.842 68.2113 90.8337 68.3335C90.8194 68.5399 90.7192 68.7381 90.5632 68.884C90.4067 69.03 90.2072 69.112 90.0004 69.1121C89.7937 69.1121 89.5942 69.03 89.4377 68.884C89.2817 68.738 89.1815 68.5399 89.1672 68.3335C89.1589 68.2113 89.1504 68.089 89.142 67.9668C88.9921 65.7668 88.8421 63.5669 88.6921 61.3669C88.6838 61.2447 88.6755 61.1225 88.6672 61.0002C88.6427 60.6466 88.7617 60.3074 89.0122 60.0574C89.2618 59.8074 89.6224 59.667 90.0004 59.667Z" fill="black"/>
</svg>
