<svg width="12" height="12" viewBox="0 0 12 12" fill="none" xmlns="http://www.w3.org/2000/svg">
<path fill-rule="evenodd" clip-rule="evenodd" d="M9.1543 1.00488C10.7394 1.08521 12 2.39588 12 4.00098V8.00098C11.9996 9.65749 10.6566 11.001 9 11.001H3C1.34339 11.001 0.000395826 9.65749 0 8.00098V4.00098C6.44266e-08 2.34412 1.34315 1 3 1H9L9.1543 1.00488ZM1 8.00098C1.0004 9.10521 1.89567 10.001 3 10.001H9C10.1043 10.001 10.9996 9.10521 11 8.00098V6.00098H1V8.00098ZM1 5.00098H11V4.00098H1V5.00098ZM3 2.00098C2.25999 2.00098 1.61544 2.40354 1.26953 3.00098H10.7305C10.4168 2.45939 9.85764 2.078 9.2041 2.01172L9 2.00098H3Z" fill="black" fill-opacity="0.84"/>
</svg>
