<svg width="96" height="96" viewBox="0 0 96 96" fill="none" xmlns="http://www.w3.org/2000/svg">
<path fill-rule="evenodd" clip-rule="evenodd" d="M47.3602 10.8543C48.3883 10.669 49.1278 11.8493 48.8438 12.8546C47.3573 18.1163 51.408 23.9435 54.9803 25.5633C55.6197 25.8532 56.2747 25.3746 56.4266 24.6893C57.4585 20.0323 60.14 17.9817 64.4876 17.1007C65.3074 16.9346 66.0075 17.6647 66.0313 18.5008C66.1663 23.2401 70.1736 27.2846 75.2107 32.8285C80.8291 39.012 83.8464 51.7729 75.9937 62.2784C70.9652 69.0056 66.7051 72.1634 60.6499 73.8177C60.9551 74.5193 61.0315 75.3353 60.7686 76.2022L59.6878 79.7657C59.2403 81.241 57.8803 82.2498 56.3387 82.2498H39.1331C36.061 82.2498 34.4976 78.5358 36.8943 76.6139C37.8434 75.8528 38.6166 75.3454 39.2554 75.0335C29.2487 73.1352 21.0017 66.8481 17.6868 57.4791C12.1348 41.7871 21.4836 31.8614 26.076 28.7452C26.8106 28.2468 27.6854 28.8206 27.9595 29.6651C29.6361 34.8316 38.5004 32.3823 35.1846 25.9542C31.8141 19.42 37.5978 12.6148 47.3602 10.8543ZM51.0159 75.3375C50.1431 75.4132 49.2369 75.4829 48.2942 75.5484C46.2142 75.6929 44.1657 75.659 42.1717 75.4566C43.4934 77.2197 43.827 80.7493 51.0159 75.3375Z" fill="#F05F2B"/>
<path fill-rule="evenodd" clip-rule="evenodd" d="M47.2276 10.1158C48.0915 9.96006 48.8031 10.3965 49.2095 10.9779C49.608 11.5479 49.7735 12.3253 49.5664 13.0582C48.8924 15.4441 49.4627 18.0107 50.6731 20.2132C51.8882 22.4241 53.6855 24.1524 55.2906 24.8802C55.3548 24.9093 55.4099 24.9068 55.4808 24.8612C55.5662 24.8062 55.659 24.6893 55.6951 24.5265C56.2368 22.0819 57.2292 20.2525 58.7137 18.9205C60.1903 17.5956 62.0888 16.8213 64.3392 16.3653C65.7444 16.0806 66.7485 17.3199 66.7815 18.4793C66.8429 20.6342 67.7839 22.6838 69.3929 24.9254C71.0088 27.1768 73.2286 29.5307 75.7666 32.3241C81.5892 38.7324 84.6946 51.8919 76.5953 62.7274C72.6253 68.0385 69.0745 71.2216 64.7068 73.1761C64.3845 73.3204 64.0578 73.4573 63.7268 73.5882L63.7359 78.2349C63.7438 82.3827 60.3836 85.7494 56.2359 85.7494H39.7647C35.617 85.7493 32.2568 82.3827 32.2647 78.2349L32.2732 73.6869C25.1965 70.6424 19.6006 65.1339 16.9805 57.7288C11.2708 41.5912 20.9072 31.3463 25.6553 28.1244C26.2859 27.6965 26.9924 27.741 27.5481 28.0418C28.0795 28.3295 28.4837 28.8477 28.6739 29.4337C29.3048 31.3774 31.1989 32.0292 32.8433 31.567C33.3239 30.3125 34.1317 29.2203 35.1622 28.3944C35.1208 27.7922 34.9294 27.0934 34.5188 26.2974C32.6787 22.73 33.3596 19.0761 35.7681 16.1383C38.1536 13.2286 42.2195 11.0189 47.2276 10.1158ZM60.2644 73.1439C59.0448 71.4669 56.4048 70.799 54.554 72.4271C45.1847 80.6699 43.8871 78.3146 42.6819 76.2562L42.5354 76.0079C42.535 76.0071 42.5344 76.0065 42.534 76.0057C42.5059 75.959 42.4777 75.9128 42.4493 75.867C42.1331 75.3576 41.7891 74.9144 41.2803 74.7242C41.2329 74.7065 41.1842 74.691 41.1338 74.6778C40.8444 74.6021 40.5042 74.6036 40.0921 74.7115C40.0151 74.7317 39.9355 74.7555 39.8533 74.7833C39.8062 74.7992 39.7582 74.8165 39.7093 74.835C39.6257 74.8667 39.5394 74.9022 39.4505 74.9417C39.3914 74.968 39.3311 74.9959 39.2696 75.0257C39.1815 75.0685 39.0909 75.1152 38.9976 75.1656C38.7748 75.2859 38.5367 75.4281 38.282 75.5948C37.8664 75.8668 37.4061 76.2033 36.8948 76.6134C34.4981 78.5353 36.0615 82.2493 39.1336 82.2494H56.3389C57.8806 82.2494 59.2408 81.2406 59.6883 79.7652L60.7691 76.2017C60.9466 75.6162 60.9689 75.0541 60.8711 74.5345L60.8518 74.439C60.7481 73.9647 60.5437 73.5278 60.2644 73.1439ZM26.8343 29.3607C26.7005 29.2883 26.6021 29.295 26.4981 29.3656C22.0614 32.3762 13.0003 41.9829 18.3946 57.2288C20.7827 63.9784 25.8249 69.1037 32.2764 72.0504L32.3489 34.2349C32.3496 33.8728 32.3765 33.5167 32.4268 33.1683C30.3567 33.4011 28.0726 32.4395 27.2471 29.8958C27.1632 29.6374 26.9925 29.4464 26.8343 29.3607ZM47.98 11.837C47.8307 11.6234 47.6582 11.5623 47.4942 11.5919C42.7401 12.4492 39.0324 14.5229 36.9283 17.0894C34.8473 19.6278 34.3218 22.6438 35.8521 25.6104C36.1926 26.2705 36.4216 26.9068 36.5491 27.5128C37.545 27.0241 38.6649 26.7494 39.8489 26.7494H56.1517C60.2881 26.7494 63.6437 30.0985 63.6517 34.2349L63.7237 71.9679C63.8477 71.9151 63.9712 71.8618 64.0938 71.807C68.1456 69.9938 71.511 67.0232 75.3936 61.8289C82.9996 51.6534 80.0707 39.2912 74.6565 33.3324C72.1574 30.5819 69.8548 28.1415 68.1741 25.7999C66.4864 23.4485 65.3559 21.1059 65.2823 18.5216C65.276 18.3011 65.1787 18.0976 65.0425 17.9683C64.9138 17.8461 64.7749 17.8077 64.6375 17.8355C62.5405 18.2605 60.9244 18.9522 59.7154 20.0369C58.5143 21.1147 57.6497 22.6394 57.1595 24.8516C57.0437 25.3739 56.733 25.8393 56.2933 26.1224C55.839 26.4148 55.2467 26.5067 54.6717 26.2459C52.7044 25.3539 50.6901 23.3585 49.3584 20.9354C48.0222 18.5039 47.3106 15.5258 48.1231 12.65C48.2 12.3777 48.1374 12.0621 47.98 11.837Z" fill="#9E2B08"/>
<path d="M48.1243 29.25C49.4368 29.25 50.7493 29.3765 52.0618 29.6296C52.2076 29.6578 52.3535 29.6875 52.4993 29.7188C52.5663 29.7333 52.6306 29.7652 52.678 29.8164C52.7254 29.8675 52.752 29.9328 52.752 30C52.752 30.0672 52.7254 30.1325 52.678 30.1836C52.6306 30.2348 52.5663 30.2667 52.4993 30.2812C52.3535 30.3125 52.2076 30.3422 52.0618 30.3704C50.7493 30.6235 49.4368 30.75 48.1243 30.75C46.8118 30.75 45.4993 30.6235 44.1868 30.3704C44.041 30.3422 43.8951 30.3125 43.7493 30.2812C43.6823 30.2667 43.618 30.2348 43.5706 30.1836C43.5232 30.1325 43.4966 30.0672 43.4966 30C43.4966 29.9328 43.5232 29.8675 43.5706 29.8164C43.618 29.7652 43.6823 29.7333 43.7493 29.7188C43.8951 29.6875 44.041 29.6578 44.1868 29.6296C45.4993 29.3765 46.8118 29.25 48.1243 29.25Z" fill="#671907"/>
<path fill-rule="evenodd" clip-rule="evenodd" d="M56.1507 26C60.7008 26 64.3919 29.684 64.4007 34.2341L64.4849 78.2341C64.4936 82.7966 60.7974 86.5 56.2349 86.5H39.7637C35.2012 86.5 31.505 82.7966 31.5137 78.2341L31.5979 34.2341C31.6067 29.684 35.2978 26 39.8479 26H56.1507ZM39.8479 27.5C36.1251 27.5 33.1051 30.5142 33.0979 34.2371L33.0137 78.2371C33.0065 81.97 36.0307 85 39.7637 85H56.2349C59.9678 85 62.992 81.97 62.9849 78.2371L62.9007 34.2371C62.8935 30.5142 59.8735 27.5 56.1507 27.5H39.8479Z" fill="#671907"/>
<path d="M41.5005 43.9999C42.605 43.9999 43.5004 44.8954 43.5005 45.9999V49.2499C43.5005 50.3544 42.6051 51.2499 41.5005 51.2499H38.2505C37.1459 51.2499 36.2505 50.3544 36.2505 49.2499V45.9999C36.2505 44.8954 37.146 43.9999 38.2505 43.9999H41.5005Z" fill="#CC3B0A"/>
<path d="M49.7505 43.9999C50.855 43.9999 51.7504 44.8954 51.7505 45.9999V49.2499C51.7505 50.3544 50.8551 51.2499 49.7505 51.2499H46.2505C45.1459 51.2499 44.2505 50.3544 44.2505 49.2499V45.9999C44.2505 44.8954 45.146 43.9999 46.2505 43.9999H49.7505Z" fill="#CC3B0A"/>
<path d="M41.5005 35.7499C42.605 35.7499 43.5004 36.6454 43.5005 37.7499V41.2499C43.5005 42.3544 42.6051 43.2499 41.5005 43.2499H38.2505C37.1459 43.2499 36.2505 42.3544 36.2505 41.2499V37.7499C36.2505 36.6454 37.146 35.7499 38.2505 35.7499H41.5005Z" fill="#CC3B0A"/>
<path d="M49.7505 35.7499C50.855 35.7499 51.7504 36.6454 51.7505 37.7499V41.2499C51.7505 42.3544 50.8551 43.2499 49.7505 43.2499H46.2505C45.1459 43.2499 44.2505 42.3544 44.2505 41.2499V37.7499C44.2505 36.6454 45.146 35.7499 46.2505 35.7499H49.7505Z" fill="#CC3B0A"/>
<path d="M58.0005 35.7499C59.105 35.7499 60.0004 36.6454 60.0005 37.7499V41.2499C60.0005 42.3544 59.1051 43.2499 58.0005 43.2499H54.7505C53.6459 43.2499 52.7505 42.3544 52.7505 41.2499V37.7499C52.7505 36.6454 53.646 35.7499 54.7505 35.7499H58.0005Z" fill="#CC3B0A"/>
<path d="M30.1772 24.3981C30.2496 24.3765 30.3281 24.3845 30.3958 24.42C30.4634 24.4556 30.5146 24.5161 30.541 24.587C30.5566 24.6286 30.5726 24.6704 30.5886 24.7118C30.7331 25.0845 30.8962 25.4476 31.0759 25.8031C31.2557 26.1587 31.4486 26.5086 31.6541 26.8561C31.6769 26.8947 31.6999 26.9332 31.7231 26.9718C31.7602 27.0332 31.7759 27.1066 31.7634 27.1781C31.7509 27.2496 31.7117 27.3131 31.6538 27.3551C31.596 27.397 31.5235 27.4145 31.4517 27.4042C31.3798 27.3939 31.315 27.3561 31.2681 27.3019C31.2369 27.2656 31.2061 27.229 31.1758 27.192C30.9033 26.8594 30.6646 26.496 30.4692 26.1095C30.2739 25.7231 30.1187 25.315 30.0107 24.8956C29.9988 24.8491 29.9874 24.8022 29.9766 24.7555C29.9597 24.6816 29.9692 24.6029 30.0063 24.536C30.0435 24.4692 30.1049 24.4197 30.1772 24.3981Z" fill="#CC3B0A"/>
<path d="M41.074 7.05749C41.2002 7.03325 41.3326 7.0547 41.4434 7.12219C41.5541 7.18966 41.6342 7.29695 41.6658 7.42126C41.6973 7.54555 41.6781 7.67783 41.613 7.78991C41.5479 7.90205 41.4418 7.98419 41.3193 8.02307C41.003 8.12371 40.6983 8.22919 40.3889 8.34436C37.8617 9.285 35.562 10.7405 33.772 12.6713C31.6592 14.9396 30.2439 17.8746 30.0371 21.0692C30.0154 21.3963 30.0062 21.7245 30.0095 22.0558C30.0103 22.1273 29.9868 22.1984 29.9402 22.2538C29.8935 22.3092 29.8279 22.3442 29.7571 22.3514C29.6862 22.3587 29.6148 22.3377 29.5579 22.2928C29.5009 22.248 29.4637 22.1829 29.45 22.1127C29.3845 21.7719 29.3346 21.4289 29.3008 21.0822C28.9469 17.6902 30.2744 14.1375 32.6411 11.6224C34.6343 9.46887 37.2833 7.99832 40.0576 7.28699C40.3973 7.19909 40.7304 7.12448 41.074 7.05749Z" fill="#CC3B0A"/>
</svg>
