<svg width="96" height="96" viewBox="0 0 96 96" fill="none" xmlns="http://www.w3.org/2000/svg">
<path fill-rule="evenodd" clip-rule="evenodd" d="M47.3602 10.8553C48.3883 10.67 49.1278 11.8503 48.8438 12.8556C47.3573 18.1173 51.408 23.9444 54.9803 25.5643C55.6197 25.8542 56.2747 25.3756 56.4266 24.6903C57.4585 20.0333 60.14 17.9826 64.4876 17.1017C65.3074 16.9355 66.0075 17.6656 66.0313 18.5018C66.1663 23.2411 70.1736 27.2856 75.2107 32.8294C80.8291 39.013 83.8464 51.7739 75.9937 62.2794C70.9652 69.0065 66.7051 72.1643 60.6499 73.8187C60.9551 74.5203 61.0315 75.3363 60.7686 76.2032L59.6878 79.7667C59.2403 81.242 57.8803 82.2508 56.3387 82.2508H39.1331C36.061 82.2508 34.4976 78.5368 36.8943 76.6148C37.8434 75.8538 38.6166 75.3464 39.2554 75.0345C29.2487 73.1362 21.0017 66.8491 17.6868 57.4801C12.1348 41.7881 21.4836 31.8624 26.076 28.7462C26.8106 28.2478 27.6854 28.8215 27.9595 29.6661C29.6361 34.8325 38.5004 32.3832 35.1846 25.9552C31.8141 19.421 37.5978 12.6158 47.3602 10.8553ZM51.0159 75.3385C50.1431 75.4142 49.2369 75.4839 48.2942 75.5494C46.2142 75.6939 44.1657 75.66 42.1717 75.4576C43.4934 77.2207 43.827 80.7503 51.0159 75.3385Z" fill="#F05F2B"/>
<path fill-rule="evenodd" clip-rule="evenodd" d="M56.1506 26.75C60.2872 26.75 63.6427 30.0991 63.6506 34.2356L63.7349 78.2356C63.7428 82.3833 60.3826 85.75 56.2349 85.75H39.7637C35.616 85.75 32.2557 82.3833 32.2637 78.2356L32.3479 34.2356C32.3559 30.0991 35.7114 26.75 39.8479 26.75H56.1506ZM60.7681 76.2024C61.8358 72.6818 57.3152 69.9978 54.553 72.4277C38.2335 86.7852 46.4035 68.9881 36.8938 76.614C34.4971 78.536 36.0604 82.25 39.1326 82.25H56.3379C57.8796 82.25 59.2398 81.2412 59.6873 79.7659L60.7681 76.2024Z" fill="#FFDACC"/>
<path d="M30.1772 24.3971C30.2496 24.3755 30.3281 24.3836 30.3958 24.4191C30.4635 24.4546 30.5146 24.5151 30.541 24.5861C30.5566 24.6277 30.5726 24.6694 30.5886 24.7108C30.7331 25.0835 30.8962 25.4466 31.0759 25.8021C31.2557 26.1577 31.4486 26.5077 31.6541 26.8551C31.6769 26.8938 31.6999 26.9322 31.7231 26.9708C31.7602 27.0323 31.7759 27.1056 31.7634 27.1771C31.7509 27.2486 31.7117 27.3122 31.6538 27.3541C31.596 27.396 31.5235 27.4135 31.4517 27.4032C31.3798 27.3929 31.315 27.3552 31.2681 27.3009C31.2369 27.2646 31.2061 27.2281 31.1758 27.191C30.9033 26.8584 30.6646 26.4951 30.4692 26.1085C30.2739 25.7222 30.1187 25.3141 30.0107 24.8947C29.9988 24.8481 29.9874 24.8013 29.9766 24.7545C29.9597 24.6807 29.9692 24.6019 30.0063 24.535C30.0435 24.4682 30.1049 24.4187 30.1772 24.3971Z" fill="#CC3B0A"/>
<path d="M41.074 7.05652C41.2002 7.03227 41.3326 7.05373 41.4434 7.12122C41.5541 7.18869 41.6342 7.29597 41.6658 7.42029C41.6973 7.54458 41.6781 7.67685 41.613 7.78894C41.5479 7.90108 41.4418 7.98322 41.3193 8.02209C41.003 8.12274 40.6983 8.22821 40.3889 8.34338C37.8617 9.28402 35.562 10.7395 33.772 12.6703C31.6592 14.9386 30.2439 17.8736 30.0371 21.0682C30.0154 21.3954 30.0062 21.7235 30.0095 22.0548C30.0103 22.1263 29.9868 22.1974 29.9402 22.2528C29.8935 22.3082 29.8279 22.3432 29.7571 22.3505C29.6862 22.3577 29.6148 22.3367 29.5579 22.2919C29.5009 22.247 29.4637 22.182 29.45 22.1117C29.3845 21.7709 29.3346 21.428 29.3008 21.0812C28.9469 17.6892 30.2744 14.1365 32.6411 11.6215C34.6343 9.4679 37.2833 7.99735 40.0576 7.28601C40.3973 7.19812 40.7304 7.12351 41.074 7.05652Z" fill="#CC3B0A"/>
<path d="M41.5 44C42.6046 44 43.5 44.8954 43.5 46V49.25C43.5 50.3546 42.6046 51.25 41.5 51.25H38.25C37.1454 51.25 36.25 50.3546 36.25 49.25V46C36.25 44.8954 37.1454 44 38.25 44H41.5Z" fill="#FFB294"/>
<path d="M49.75 44C50.8546 44 51.75 44.8954 51.75 46V49.25C51.75 50.3546 50.8546 51.25 49.75 51.25H46.25C45.1454 51.25 44.25 50.3546 44.25 49.25V46C44.25 44.8954 45.1454 44 46.25 44H49.75Z" fill="#FFB294"/>
<path d="M41.5 35.75C42.6046 35.75 43.5 36.6454 43.5 37.75V41.25C43.5 42.3546 42.6046 43.25 41.5 43.25H38.25C37.1454 43.25 36.25 42.3546 36.25 41.25V37.75C36.25 36.6454 37.1454 35.75 38.25 35.75H41.5Z" fill="#FFB294"/>
<path d="M49.75 35.75C50.8546 35.75 51.75 36.6454 51.75 37.75V41.25C51.75 42.3546 50.8546 43.25 49.75 43.25H46.25C45.1454 43.25 44.25 42.3546 44.25 41.25V37.75C44.25 36.6454 45.1454 35.75 46.25 35.75H49.75Z" fill="#FFB294"/>
<path d="M58 35.75C59.1046 35.75 60 36.6454 60 37.75V41.25C60 42.3546 59.1046 43.25 58 43.25H54.75C53.6454 43.25 52.75 42.3546 52.75 41.25V37.75C52.75 36.6454 53.6454 35.75 54.75 35.75H58Z" fill="#FFB294"/>
<path d="M48.1253 29.2494C49.4378 29.2494 50.7503 29.3759 52.0628 29.629C52.2086 29.6571 52.3545 29.6869 52.5003 29.7181C52.5673 29.7326 52.6316 29.7646 52.679 29.8158C52.7264 29.8669 52.7529 29.9322 52.753 29.9994C52.753 30.0666 52.7264 30.1318 52.679 30.1829C52.6316 30.2341 52.5673 30.2661 52.5003 30.2806C52.3544 30.3119 52.2086 30.3416 52.0628 30.3697C50.7503 30.6228 49.4378 30.7494 48.1253 30.7494C46.8128 30.7493 45.5003 30.6228 44.1878 30.3697C44.042 30.3416 43.8961 30.3118 43.7503 30.2806C43.6833 30.2661 43.619 30.2341 43.5716 30.1829C43.5242 30.1318 43.4976 30.0666 43.4976 29.9994C43.4976 29.9322 43.5242 29.8669 43.5716 29.8158C43.619 29.7646 43.6833 29.7326 43.7503 29.7181C43.8961 29.6869 44.0419 29.6571 44.1878 29.629C45.5003 29.3759 46.8128 29.2494 48.1253 29.2494Z" fill="#9E2B08"/>
<path fill-rule="evenodd" clip-rule="evenodd" d="M47.2276 10.1158C48.0915 9.96006 48.803 10.3965 49.2095 10.9779C49.608 11.5479 49.7735 12.3253 49.5664 13.0582C48.8925 15.444 49.4627 18.0108 50.6731 20.2132C51.8882 22.4241 53.6856 24.1524 55.2906 24.8802C55.3548 24.9093 55.4099 24.9067 55.4807 24.8612C55.5662 24.8062 55.659 24.6893 55.6951 24.5265C56.2368 22.082 57.2292 20.2525 58.7137 18.9205C60.1902 17.5956 62.0888 16.8213 64.3391 16.3653C65.7444 16.0806 66.7485 17.3199 66.7815 18.4793C66.8429 20.6342 67.784 22.6838 69.3929 24.9254C71.0088 27.1768 73.2286 29.5307 75.7666 32.3241C81.5892 38.7324 84.6946 51.8919 76.5952 62.7274C72.6253 68.0384 69.0745 71.2216 64.7068 73.1761C64.6303 73.2104 64.5534 73.244 64.4764 73.2774L64.4859 78.2335C64.4946 82.796 60.7984 86.4994 56.2359 86.4994H39.7647C35.2022 86.4993 31.506 82.7959 31.5147 78.2335L31.524 73.3536C24.8023 70.249 19.5074 64.8706 16.9805 57.7288C11.2708 41.5913 20.9071 31.3464 25.6553 28.1244C26.2858 27.6965 26.9923 27.741 27.5481 28.0418C28.0795 28.3295 28.4837 28.8477 28.6739 29.4337C29.1987 31.0504 30.5975 31.7725 31.9995 31.7039C32.5448 30.0213 33.616 28.5758 35.0191 27.5609C34.9146 27.1711 34.7522 26.7499 34.5188 26.2974C32.6787 22.7301 33.3597 19.0761 35.7681 16.1383C38.1536 13.2286 42.2195 11.019 47.2276 10.1158ZM39.8489 27.4994C36.1261 27.4994 33.1061 30.5136 33.0989 34.2364L33.0147 78.2364C33.0076 81.9693 36.0318 84.9993 39.7647 84.9994H56.2359C59.9688 84.9994 62.993 81.9693 62.9859 78.2364L62.9016 34.2364C62.8945 30.5136 59.8745 27.4994 56.1516 27.4994H39.8489ZM26.8343 29.3607C26.7005 29.2883 26.602 29.295 26.4981 29.3656C22.0613 32.3763 13.0003 41.9829 18.3946 57.2288C20.6894 63.7147 25.4353 68.7003 31.5271 71.6947L31.5989 34.2335C31.5996 33.8831 31.6223 33.5378 31.6653 33.1991C29.8229 33.1435 27.9723 32.1302 27.2471 29.8958C27.1632 29.6374 26.9925 29.4464 26.8343 29.3607ZM65.0425 17.9683C64.9138 17.8461 64.7749 17.8077 64.6375 17.8355C62.5405 18.2605 60.9243 18.9522 59.7154 20.0369C58.5143 21.1147 57.6497 22.6394 57.1595 24.8516C57.0584 25.3074 56.8088 25.7197 56.4546 26.0055C60.8645 26.1647 64.393 29.7848 64.4016 34.2335L64.4732 71.6327C68.3573 69.805 71.6328 66.8602 75.3936 61.8289C82.9996 51.6534 80.0707 39.2912 74.6565 33.3324C72.1575 30.5819 69.8548 28.1415 68.1741 25.7999C66.4864 23.4485 65.3559 21.1059 65.2823 18.5216C65.276 18.3011 65.1786 18.0976 65.0425 17.9683ZM47.98 11.837C47.8307 11.6234 47.6582 11.5623 47.4942 11.5919C42.7401 12.4492 39.0324 14.5229 36.9283 17.0894C34.8473 19.6278 34.3218 22.6439 35.8521 25.6104C36.0574 26.0084 36.2218 26.3979 36.3482 26.7772C37.411 26.2784 38.5974 25.9994 39.8489 25.9994H54.179C52.3734 25.0173 50.579 23.1563 49.3584 20.9354C48.0222 18.5039 47.3107 15.5258 48.1231 12.65C48.2 12.3777 48.1374 12.0621 47.98 11.837Z" fill="#9E2B08"/>
</svg>
