<svg width="56" height="56" viewBox="0 0 56 56" fill="none" xmlns="http://www.w3.org/2000/svg">
<path d="M5.06577 29.2229C4.11367 18.1982 13.61 8.7133 26.2762 8.03805C38.9424 7.36289 49.9822 15.7529 50.9343 26.7776C51.2936 30.9389 50.1635 34.8802 47.9369 38.2117C47.5834 38.7407 47.524 39.4285 47.8187 40.0225L50.2487 44.9213C50.5967 45.6228 50.0203 46.383 49.2562 46.2301L41.7561 44.7299C41.3313 44.6449 40.899 44.7181 40.532 44.9215C37.3965 46.6587 33.7181 47.749 29.7237 47.962C17.0577 48.6371 6.01798 40.2474 5.06577 29.2229Z" fill="#4397E0"/>
<path fill-rule="evenodd" clip-rule="evenodd" d="M26.2229 7.03876C39.3016 6.34164 50.9221 15.0116 51.9309 26.6911C52.311 31.0937 51.113 35.2597 48.7688 38.7673C48.6086 39.007 48.5841 39.3137 48.715 39.5778L51.1447 44.4763C51.855 45.9081 50.654 47.5289 49.0607 47.2106L41.5598 45.7106C41.3734 45.6734 41.1818 45.7042 41.0168 45.7956C37.7467 47.6074 33.9205 48.7397 29.7775 48.9606C16.6988 49.6578 5.07831 40.9878 4.06953 29.3083C3.05793 17.5912 13.1317 7.7368 26.2229 7.03876ZM49.9377 26.863C49.0419 16.4936 38.5826 8.38368 26.3293 9.0368C14.0886 9.68954 5.17058 18.8046 6.0627 29.1364C6.95833 39.506 17.4177 47.6157 29.6711 46.9626C33.5162 46.7575 37.0465 45.709 40.0471 44.0466C40.616 43.7314 41.2896 43.6162 41.9523 43.7487L49.2775 45.2145L46.923 40.4665C46.4648 39.5426 46.559 38.474 47.1057 37.6559C49.2145 34.5006 50.2762 30.783 49.9377 26.863Z" fill="#034180"/>
<path d="M39.7898 26.5C39.8911 26.5176 39.9869 26.5643 40.0632 26.6358C40.1641 26.7308 40.2235 26.8624 40.2302 27.001C40.2351 27.1056 40.2095 27.2074 40.1618 27.2959L40.1071 27.3799C39.8856 27.6634 39.6526 27.9428 39.4099 28.2149C37.7007 30.1385 35.5075 31.6899 33.0681 32.6417L32.5778 32.8243C28.9349 34.1283 24.9413 34.1348 21.3005 33.2305V33.2296C21.1242 33.1865 20.9507 33.1431 20.778 33.0967L20.2575 32.9512C20.1094 32.9075 19.977 32.8105 19.8943 32.6749C19.8118 32.5393 19.7845 32.3758 19.82 32.2217L19.8581 32.1104C19.9063 32.0038 19.9855 31.9118 20.0857 31.8477C20.2203 31.762 20.3821 31.7348 20.5339 31.7608C20.8776 31.8202 21.2095 31.871 21.5515 31.918H21.5525C25.0875 32.4084 28.6657 32.1926 31.9392 31.0245L32.3825 30.8624C34.5872 30.0266 36.6583 28.8214 38.5339 27.3008C38.7997 27.0852 39.062 26.8641 39.3171 26.6387C39.4168 26.5504 39.5479 26.4946 39.6872 26.4922L39.7898 26.5ZM18.1667 21.7617C19.3292 21.6786 20.7543 22.1146 21.4675 23.2324L21.5749 23.416L21.6677 23.6045L21.6696 23.6094C21.7125 23.7192 21.7352 23.8473 21.7126 23.9756C21.6899 24.1043 21.6238 24.2214 21.5212 24.3018C21.4441 24.3618 21.3515 24.3972 21.2556 24.4072L21.1579 24.4092C21.028 24.3999 20.9097 24.3468 20.8142 24.2793V24.2783C20.7369 24.2287 20.6604 24.186 20.5818 24.1465L20.3093 24.0322C19.6734 23.8007 19.0185 23.8026 18.2907 23.8369C17.4739 23.8937 16.5687 23.9931 15.8259 24.2578C15.7555 24.2841 15.6849 24.3166 15.6286 24.3457C15.5476 24.4094 15.4481 24.4631 15.3357 24.4815C15.2154 24.5009 15.0902 24.4805 14.986 24.4141C14.8825 24.3478 14.8101 24.2432 14.7771 24.125C14.7441 24.0065 14.754 23.8851 14.7819 23.7803L14.7849 23.7695H14.7859C14.8454 23.606 14.9342 23.4595 15.0173 23.3399L15.0212 23.334C15.8361 22.2868 16.987 21.8531 18.1657 21.7617H18.1667ZM34.4167 17.6904C35.3845 17.1106 36.7737 16.9344 37.8239 17.6113L37.8249 17.6123C37.9384 17.6858 38.0447 17.7684 38.1423 17.8574L38.1472 17.8623L38.2058 17.9277C38.262 17.9977 38.3094 18.0805 38.3337 18.1748C38.366 18.3002 38.355 18.4337 38.2956 18.5488C38.236 18.664 38.1336 18.7498 38.0134 18.7959C37.8952 18.841 37.7694 18.8425 37.657 18.8252V18.8262C37.5733 18.8176 37.492 18.8145 37.4128 18.8154C36.6938 18.8383 36.0929 19.1271 35.4695 19.4814L35.4704 19.4824C34.8574 19.8516 34.2627 20.2601 33.7898 20.8672C33.7391 20.9344 33.6897 21.0054 33.6443 21.0791L33.6433 21.0781C33.5925 21.1699 33.5209 21.2636 33.4196 21.3271C33.3169 21.3914 33.1944 21.4205 33.0739 21.4004C32.9533 21.38 32.8471 21.3135 32.7712 21.2197C32.6945 21.1249 32.6562 21.01 32.6384 20.9043L32.6374 20.8984C32.622 20.77 32.6165 20.639 32.6208 20.5088V20.5078C32.6696 19.3155 33.4352 18.2656 34.4167 17.6904Z" fill="#034180"/>
</svg>
