<svg width="12" height="12" viewBox="0 0 12 12" fill="none" xmlns="http://www.w3.org/2000/svg">
<g clip-path="url(#clip0_11782_74616)">
<path d="M4.92383 0.0222691C5.07305 -0.0243203 5.23593 0.00192131 5.36328 0.0925816C5.94356 0.505851 6.23409 1.0792 6.41309 1.64043C6.50202 1.9194 6.56703 2.20658 6.62402 2.47637C6.68256 2.75351 6.73197 3.00558 6.79395 3.25274C6.80343 3.29053 6.85322 3.43811 6.96094 3.56524C7.05636 3.67775 7.18961 3.77032 7.41211 3.77032L7.55664 3.75762C7.68482 3.73337 7.76722 3.67755 7.82617 3.6209C7.91636 3.53417 7.97221 3.4226 8.00293 3.34063C8.026 3.27849 8.05165 3.1392 8.08301 2.95391C8.09574 2.87867 8.11073 2.78653 8.12695 2.71758C8.13313 2.69132 8.1492 2.62461 8.18066 2.55938C8.18933 2.54134 8.24142 2.42783 8.36621 2.34649C8.44489 2.29523 8.56479 2.24927 8.70898 2.26836C8.81247 2.2821 8.89206 2.3245 8.94727 2.36602L8.99414 2.40606L8.99609 2.40801C9.01542 2.42682 9.03023 2.4445 9.0332 2.44805C9.03889 2.45481 9.04472 2.46143 9.04883 2.4666C9.05724 2.47722 9.06662 2.48999 9.07617 2.50274C9.09553 2.52857 9.12027 2.56275 9.14941 2.6043C9.20819 2.68811 9.28742 2.80592 9.37988 2.95391C9.56499 3.25024 9.80613 3.67213 10.0449 4.18926C10.2063 4.53869 10.3679 4.93474 10.5112 5.36816C10.6158 5.68453 10.3726 5.99981 10.0394 5.99981C9.81347 5.99981 9.61586 5.85032 9.54419 5.63606C9.41931 5.26269 9.27949 4.91741 9.13672 4.60821C9.02584 4.36809 8.91391 4.15118 8.80957 3.96075C8.62657 4.2805 8.26629 4.69597 7.59766 4.76153L7.41211 4.77032C6.84072 4.77032 6.44405 4.50288 6.19727 4.21172C5.96321 3.93542 5.85798 3.63515 5.82324 3.49688C5.75513 3.2253 5.69978 2.93937 5.64551 2.68243C5.58964 2.41799 5.53274 2.17243 5.45996 1.94414C5.39751 1.74838 5.32432 1.57329 5.23535 1.41778C4.63021 2.73303 3.85273 3.63468 3.2373 4.44317C2.51501 5.39207 2.00004 6.22616 2 7.56914L2.00391 7.76836C2.0473 8.74745 2.41133 9.45043 2.91406 9.95391C3.10732 10.1474 3.32558 10.3132 3.55859 10.4559C3.49997 10.2211 3.4707 9.97779 3.4707 9.73418C3.47102 9.01368 3.83967 8.38781 4.25586 7.86407C4.66718 7.3465 5.2145 6.82519 5.63574 6.37774C5.73022 6.27742 5.86219 6.22051 6 6.22051C6.13781 6.22051 6.26978 6.27742 6.36426 6.37774C6.47595 6.49638 6.59472 6.61998 6.71664 6.74718C6.87699 6.91447 6.87201 7.17691 6.73016 7.36015C6.72631 7.36514 6.72246 7.37013 6.71863 7.37514C6.54362 7.60375 6.1964 7.64994 5.99707 7.44219C5.64872 7.79912 5.31989 8.13278 5.03906 8.48614C4.66634 8.95516 4.47096 9.35736 4.4707 9.73418C4.47071 10.3225 4.70628 10.8087 5.11035 11.0721C5.31244 11.204 5.39112 11.4618 5.29785 11.6844C5.20443 11.9071 4.96534 12.0312 4.72949 11.9793C3.85173 11.7862 2.92207 11.377 2.20605 10.66C1.47962 9.93237 1.00001 8.91342 1 7.56914C1.00004 5.89616 1.67596 4.84456 2.44238 3.8377C3.20543 2.8353 4.03904 1.89042 4.60254 0.329886L4.6543 0.226371C4.71708 0.130238 4.81201 0.057256 4.92383 0.0222691Z" fill="black"/>
<path fill-rule="evenodd" clip-rule="evenodd" d="M9.50028 7.00016C10.8809 7.00029 12.0003 8.11953 12.0003 9.50016C12.0002 10.8807 10.8808 12 9.50028 12.0002C8.11961 12.0002 7.00034 10.8808 7.00028 9.50016C7.00028 8.11945 8.11957 7.00016 9.50028 7.00016ZM8.33524 9.00016C8.15024 9.00018 8.00028 9.15012 8.00028 9.33512V9.6652C8.00037 9.85012 8.1503 10.0001 8.33524 10.0002H10.6653C10.8501 9.99992 11.0002 9.84999 11.0003 9.6652V9.33512C11.0003 9.15025 10.8501 9.00039 10.6653 9.00016H8.33524Z" fill="black"/>
</g>
<defs>
<clipPath id="clip0_11782_74616">
<rect width="12" height="12" fill="white"/>
</clipPath>
</defs>
</svg>
