<svg fill="none" viewBox="0 0 12 12" xmlns="http://www.w3.org/2000/svg">
  <g clip-path="url(#a)">
    <path fill="#000" d="M5.5 1c.842 0 1.64.19 2.354.527-.104.053-.213.098-.329.127l-.486.122c-.222.056-.379.189-.47.353Q6.055 2 5.5 2c-.728 0-1.414.173-2.022.48.805-.051 1.613.212 2.028.742q.01.008.017.011c1.482.318 1.753 2.417 1.663 2.997.52-.062.911-.19 1.17-.289.373-.142.504-.11.55-.026.05.096-.009.256-.14.404-.247.283-.695.505-1.484.569-.272.022-.514.01-.721.002-.394-.018-.67-.029-.816.196-.096.149-.02.498.742.608.544.079 1.038.024 1.398-.016.32-.036.535-.06.585.033.104.2-.498.603-1.532.612q-.118 0-.232-.006c-.64-.032-1.112-.207-1.406-.367q-.013-.004-.018-.009c-.052-.029-.155.024-.094.134.036.067.222.24.501.388-.028.233.044.59.17.998l.043-.008.067-.013c.253-.04.387.007.463.088.358-.267.955-.646 1.013-.577.283.337.327 1.12.27 1.466C9.079 9.645 10 8.181 10 6.5q-.002-.554-.13-1.07c.147-.082.27-.214.334-.4l.02-.069.122-.486q.045-.174.126-.33C10.81 4.86 11 5.658 11 6.5 11 9.539 8.539 12 5.5 12S0 9.539 0 6.5 2.461 1 5.5 1M4.336 9.54c-.093.009-.17.038-.21.096-.18.25.041 1.432.282 1.614h.171c.247-.072.68-.332.924-.54.052.072.153.08.276.08.163-.007.391-.03.551-.08l.085.194c.424-.087.825-.234 1.196-.431-.236-.002-.811-.172-.812-.266-.03-.536-.13-.586-.245-.612h-.078l.008.014.027.062c.046.129.118.53.063.629-.056.098-.417.148-.64.151-.221.003-.27-.08-.317-.204-.035-.102-.053-.338-.053-.475q-.003-.06.006-.107c-.067.03-.165.096-.197.14-.009.13-.01.34.06.573.035.11-.757.582-.868.495-.113-.09-.316-.974-.23-1.333M3.277 2.587C1.917 3.361 1 4.822 1 6.5c0 1.85 1.116 3.436 2.71 4.128-.148-.542-.358-1.332-.62-2.38-.591-2.368-1.03-4.298 1.187-4.9.023-.006.032-.033.015-.047-.256-.233-.69-.274-1.115-.19-.02.003-.034-.012-.034-.029q-.002-.009.004-.018c.102-.142.286-.252.412-.319-.081-.073-.188-.123-.282-.158m.762 2.679c-.21 0-.382.169-.379.379 0 .209.17.377.38.377.208 0 .377-.168.377-.377 0-.21-.169-.38-.378-.38m2.532-.17c-.18 0-.326.146-.326.324 0 .177.146.323.326.323s.326-.146.326-.323c0-.18-.145-.323-.326-.323m-2.363.321c.055 0 .099.045.099.1 0 .054-.044.098-.099.098s-.1-.043-.1-.098.045-.1.1-.1m2.509-.19c.046 0 .085.039.085.086s-.039.084-.085.084-.084-.038-.084-.084.037-.085.084-.085M9.26.206c.062-.248.415-.248.477 0l.114.451c.183.735.757 1.309 1.492 1.492l.45.113c.25.062.25.415 0 .477l-.45.114c-.735.183-1.309.757-1.492 1.492l-.114.45c-.062.25-.415.25-.477.001l-.113-.451c-.183-.735-.757-1.309-1.492-1.492l-.45-.114c-.25-.062-.25-.415 0-.477l.45-.113c.735-.183 1.309-.757 1.492-1.492zM4.138 4.491c-.088-.073-.282-.16-.538-.063-.227.084-.335.261-.335.378 0 .026.054.029.069.006.04-.062.105-.154.309-.239.203-.084.364-.073.474-.047.023.006.04-.02.02-.035m2.257-.203c-.21 0-.339.073-.397.166-.01.023.024.046.047.034.07-.037.178-.08.35-.078.163.003.258.045.334.08q.006.001.011.004c.02.009.044-.015.03-.032-.067-.09-.166-.174-.375-.174"/>
  </g>
  <defs>
    <clipPath id="a">
      <path fill="#fff" d="M0 0h12v12H0z"/>
    </clipPath>
  </defs>
</svg>
