<svg fill="none" width="12" height="12" viewBox="0 0 16 16" xmlns="http://www.w3.org/2000/svg">
  <g clip-path="url(#Duck-Ai-16_svg__a)">
    <path fill="#000" d="M12.182 6.726c.082.332.553.332.636 0l.184-.734a2.74 2.74 0 0 1 1.99-1.99l.734-.184c.332-.083.332-.554 0-.636l-.734-.184a2.74 2.74 0 0 1-1.99-1.99l-.184-.734c-.082-.332-.553-.332-.636 0l-.184.734a2.74 2.74 0 0 1-1.99 1.99l-.734.184c-.332.083-.332.553 0 .636l.734.184a2.74 2.74 0 0 1 1.99 1.99zM7.5 16c4.144 0 7.5-3.356 7.5-7.5 0-.971-.185-1.9-.52-2.751a1.5 1.5 0 0 0-.265.546l-.184.735a1.7 1.7 0 0 1-.128.348Q14 7.926 14 8.5a6.5 6.5 0 1 1-5.378-6.403 1.7 1.7 0 0 1 .348-.128l.735-.184c.202-.05.387-.142.547-.264A7.5 7.5 0 0 0 7.5 1 7.5 7.5 0 0 0 0 8.5C0 12.644 3.356 16 7.5 16m2.11-7.839a6 6 0 0 0 1.465-.36q.144-.056.252-.084a1.6 1.6 0 0 1-.338-.614l-.02-.073-.184-.735a1.49 1.49 0 0 0-1.08-1.08L8.97 5.03c-.994-.249-1.368-1.224-1.121-2.02a5.5 5.5 0 0 0-2.553.448c.895.02 1.749.346 2.211.938q.012.01.022.014c1.855.397 2.194 3.025 2.081 3.75m-4.397 5.342c-.178-.656-.423-1.583-.73-2.816-.74-2.963-1.29-5.38 1.486-6.134.03-.007.04-.04.019-.058-.321-.292-.864-.343-1.396-.237-.026.004-.044-.014-.044-.036q-.002-.012.007-.022c.128-.179.358-.317.514-.401a1 1 0 0 0-.198-.131 5.5 5.5 0 0 0 .342 9.835m3.84-7.514c.025.011.054-.018.036-.04-.084-.113-.208-.219-.47-.219-.263 0-.423.092-.496.208-.014.03.03.058.059.044a.85.85 0 0 1 .437-.099 1 1 0 0 1 .42.1zM4.7 6.38c0 .033.07.036.088.007.05-.076.13-.193.386-.298a.94.94 0 0 1 .594-.059c.03.008.05-.025.025-.044-.109-.09-.353-.2-.674-.08-.284.106-.419.328-.419.474m4.14 1.174a.404.404 0 1 0 0-.81.407.407 0 0 0-.408.405c0 .222.182.405.408.405m.182-.434a.106.106 0 1 1 0-.212.106.106 0 0 1 0 .212m-3.352.783a.473.473 0 1 0 0-.947.473.473 0 1 0 0 .948m.211-.51a.123.123 0 0 1-.124-.124c0-.069.055-.124.124-.124.07 0 .124.055.124.124 0 .07-.055.124-.124.124m4.409 5.848a5.5 5.5 0 0 0 2.698-5.089 1.65 1.65 0 0 1-1.246-.11 1 1 0 0 1-.154.233c-.31.354-.871.63-1.859.71a7 7 0 0 1-.903.004c-.493-.022-.837-.037-1.02.245-.121.186-.026.623.928.761.682.098 1.3.03 1.75-.02.402-.045.67-.075.732.042.131.252-.623.755-1.917.765a8 8 0 0 1-.291-.007c-.802-.04-1.392-.259-1.76-.46l-.022-.01c-.066-.036-.193.03-.117.168.044.084.277.299.627.484-.036.292.055.74.211 1.25l.055-.01.084-.015c.317-.051.485.007.58.11.448-.336 1.195-.81 1.267-.722.315.374.393 1.19.357 1.67m-4.147 1.215q.051.03.17 0 .051-.012.113-.035l.003-.001a3 3 0 0 0 .37-.175l.007-.004c.107-.06.218-.126.323-.195l.079-.053c.11-.075.211-.15.295-.222.065.09.191.098.346.098.204-.007.488-.036.689-.098l.052.122a5.5 5.5 0 0 0 1.317-.446c-.334-.062-.782-.213-.783-.306-.036-.671-.16-.733-.307-.766H8.72l.01.018.034.077c.058.16.149.663.08.787-.07.124-.521.186-.802.19-.277.003-.339-.099-.397-.256-.044-.127-.066-.422-.066-.594a.5.5 0 0 1 .008-.135.8.8 0 0 0-.247.175c-.011.164-.011.427.076.718.031.1-.476.435-.813.573l-.008.003-.037.014-.008.003-.037.013-.006.002-.032.01-.012.003-.025.005-.012.002-.02.003-.014.002h-.005l-.029-.002-.009-.002h-.003l-.017-.01-.011-.01-.004-.005-.015-.02-.006-.011-.018-.032c-.143-.286-.33-1.195-.234-1.59-.116.01-.211.047-.262.12-.162.223-.067 1.042.11 1.575l.043.118c.039.098.08.182.123.243q.02.03.04.053a.3.3 0 0 0 .048.041"/>
  </g>
  <defs>
    <clipPath id="Duck-Ai-16_svg__a">
      <path fill="#fff" d="M0 0h16v16H0z"/>
    </clipPath>
  </defs>
</svg>
