<svg width="96" height="96" viewBox="0 0 96 96" fill="none" xmlns="http://www.w3.org/2000/svg">
<path d="M47.9966 16.959C65.258 16.959 79.2497 30.8465 79.2498 47.9795C79.2498 50.051 79.0447 52.0749 78.6545 54.0327C77.1922 53.5437 75.6271 53.2788 74.0003 53.2788C65.9001 53.2788 59.3335 59.8454 59.3335 67.9456C59.3335 70.8705 60.1899 73.5953 61.6653 75.8833C57.5364 77.8794 52.8984 79 47.9966 79C30.7352 78.9999 16.7434 65.1124 16.7434 47.9795C16.7434 45.9464 16.9399 43.9591 17.3179 42.0342C16.9515 41.7278 16.7171 41.2692 16.7188 40.7466L16.7732 30.2764C16.7815 28.7184 18.617 27.8763 19.8169 28.8789L22.0237 30.7205C27.6322 22.421 37.1707 16.959 47.9966 16.959Z" fill="#FAB341"/>
<path d="M48 24.5C60.8402 24.5 71.25 34.9098 71.25 47.75C71.25 49.8081 70.982 51.8035 70.48 53.7039C64.0799 55.2805 59.3335 61.0588 59.3335 67.9456C59.3335 67.982 59.3337 68.0183 59.334 68.0547C55.9807 69.9305 52.1152 71 48 71C35.1598 71 24.75 60.5902 24.75 47.75C24.75 45.7603 25.1095 43.3288 25.5793 41.4854L29.064 40.7939C31.1386 40.5013 31.4874 38.4691 30.2344 37.4158L29.9531 37.1721C28.958 36.3097 28.6993 34.8511 29.4639 33.7791C33.6181 27.9542 40.1962 24.5 48 24.5Z" fill="#FFFBF0"/>
<path d="M14.9131 59.7984C14.9817 59.7751 15.0574 59.7798 15.1245 59.8111C15.1917 59.8424 15.2442 59.8983 15.2759 59.9641C15.3539 60.1267 15.4325 60.2885 15.5115 60.45C16.5136 62.4997 17.5877 64.4704 18.7375 66.3965C19.2183 67.2016 19.6495 68.0367 20.042 68.918C20.1159 69.084 20.1887 69.2518 20.26 69.4212C20.2909 69.4946 20.3044 69.577 20.2888 69.6565C20.2732 69.736 20.2304 69.8057 20.1677 69.8518C20.105 69.8979 20.0258 69.9178 19.9453 69.909C19.8647 69.9001 19.7902 69.8625 19.7292 69.8111C19.5869 69.6897 19.448 69.5649 19.3127 69.437C18.5948 68.7582 17.9775 67.9887 17.4766 67.1497C16.2775 65.1429 15.3844 62.9521 14.8467 60.6873C14.8042 60.5088 14.7641 60.33 14.7261 60.1507C14.7111 60.0792 14.7187 60.003 14.7529 59.9373C14.7871 59.8715 14.8444 59.8217 14.9131 59.7984Z" fill="#F5A031"/>
<path d="M47.9853 28.126C49.2428 28.126 50.2624 29.1382 50.2624 30.3867V45.7193C50.2624 46.5325 49.8295 47.245 49.1804 47.6433C50.1206 47.6067 51.0483 48.079 51.5456 48.9468L57.4048 59.1714C58.1149 60.4109 57.6784 61.9872 56.4297 62.6922C55.1809 63.3971 53.5926 62.9638 52.8823 61.7244L47.0234 51.4998C46.3135 50.2608 46.7492 48.6852 47.9968 47.9798C47.993 47.9798 47.9891 47.9802 47.9853 47.9802C46.7279 47.9802 45.7085 46.9678 45.7085 45.7193V30.3867C45.7085 29.1382 46.7279 28.126 47.9853 28.126Z" fill="#F5A031"/>
<path d="M69.227 19.9361C69.3066 19.9183 69.39 19.9302 69.4641 19.9607C69.6554 20.0405 69.8445 20.1251 70.031 20.2141C71.0209 20.6864 71.9404 21.2869 72.7654 21.9964C73.4918 22.621 74.1826 23.2869 74.833 23.9888C75.9501 25.1941 76.9481 26.507 77.8064 27.8994C77.9133 28.0729 78.0182 28.2477 78.1208 28.4236C78.1577 28.4871 78.1737 28.5624 78.1611 28.6358C78.1485 28.7091 78.1088 28.7741 78.05 28.8174C77.9912 28.8606 77.9172 28.8792 77.8435 28.8694C77.7697 28.8596 77.7027 28.8219 77.6531 28.7678C77.5175 28.6201 77.3814 28.4731 77.2449 28.3269C76.1496 27.1543 75.0237 26.0316 73.8655 24.9524C73.1907 24.3238 72.5052 23.7096 71.8078 23.1099C71.0157 22.4288 70.2561 21.7102 69.5107 20.9424C69.3703 20.7978 69.2302 20.6514 69.0906 20.5032C69.0356 20.4448 68.9946 20.3711 68.9829 20.2903C68.9712 20.2096 68.9888 20.1288 69.0334 20.064C69.0781 19.9992 69.1474 19.9539 69.227 19.9361Z" fill="#F5A031"/>
<path d="M47.9967 51.9524C50.2073 51.9524 51.9993 50.1737 51.9993 47.9796C51.9993 45.7855 50.2073 44.0068 47.9967 44.0068C45.7862 44.0068 43.9941 45.7855 43.9941 47.9796C43.9941 50.1737 45.7862 51.9524 47.9967 51.9524Z" fill="#783B13"/>
<path d="M48.3936 16.2114C48.4039 16.2116 48.4142 16.2118 48.4246 16.2119C48.5487 16.2135 48.6726 16.2157 48.7964 16.2188C48.8282 16.2195 48.8601 16.2203 48.8919 16.2212C48.9834 16.2237 49.0749 16.2267 49.1663 16.23C49.2026 16.2313 49.2389 16.2325 49.2752 16.2339C49.3883 16.2383 49.5012 16.2432 49.614 16.2488C49.6419 16.2502 49.6697 16.2517 49.6975 16.2532C49.8059 16.2588 49.9141 16.265 50.0222 16.2717C50.0354 16.2725 50.0486 16.2731 50.0618 16.2739C50.1782 16.2813 50.2944 16.2895 50.4104 16.2981C50.447 16.3008 50.4837 16.3036 50.5203 16.3064C50.6297 16.3149 50.739 16.3237 50.8482 16.3333C50.8545 16.3338 50.8609 16.3344 50.8672 16.335C50.9913 16.3459 51.1153 16.3578 51.239 16.3701C51.2573 16.3719 51.2757 16.3739 51.294 16.3757C51.4164 16.3882 51.5386 16.401 51.6607 16.4148C51.6771 16.4167 51.6935 16.4188 51.71 16.4207C51.8067 16.4318 51.9033 16.4434 51.9998 16.4553C52.0399 16.4603 52.08 16.4653 52.1201 16.4705C52.232 16.4847 52.3436 16.4995 52.4551 16.5149C52.4711 16.5171 52.4872 16.5192 52.5032 16.5215C52.6197 16.5378 52.736 16.5547 52.8521 16.5723C52.8604 16.5735 52.8687 16.5747 52.877 16.5759C52.987 16.5926 53.0969 16.6101 53.2066 16.6279C53.252 16.6353 53.2974 16.6431 53.3428 16.6506C53.4365 16.6663 53.5301 16.682 53.6235 16.6985C53.6388 16.7012 53.654 16.7038 53.6692 16.7065C53.7851 16.7271 53.9009 16.7484 54.0164 16.7703C54.0414 16.775 54.0665 16.7799 54.0916 16.7847C54.2058 16.8065 54.3198 16.8287 54.4336 16.8518C54.4536 16.8559 54.4736 16.8602 54.4937 16.8643C54.5839 16.8827 54.674 16.9017 54.7639 16.9209C54.8017 16.929 54.8395 16.9369 54.8772 16.9451C54.9811 16.9677 55.0848 16.9908 55.1882 17.0144C55.2226 17.0222 55.2569 17.0304 55.2913 17.0383C55.3772 17.0582 55.463 17.0783 55.5486 17.0989C55.579 17.1062 55.6095 17.1135 55.6399 17.1208C55.7419 17.1457 55.8437 17.171 55.9453 17.1968C55.9913 17.2085 56.0373 17.2203 56.0833 17.2322C56.1657 17.2535 56.2481 17.2752 56.3303 17.2971C56.3481 17.3019 56.366 17.3065 56.3838 17.3113C56.4906 17.34 56.5971 17.3694 56.7034 17.3992C56.742 17.41 56.7806 17.4209 56.8191 17.4319C56.9062 17.4566 56.9933 17.4816 57.0801 17.5071C57.1206 17.519 57.1612 17.5309 57.2017 17.543C57.2818 17.5668 57.3618 17.591 57.4417 17.6155C57.4839 17.6284 57.526 17.6415 57.5681 17.6545C57.666 17.6849 57.7637 17.7158 57.8611 17.7471C57.8877 17.7556 57.9142 17.7643 57.9407 17.7729C58.0213 17.7991 58.1018 17.8255 58.1821 17.8523C58.222 17.8656 58.262 17.8787 58.3018 17.8921C58.3933 17.923 58.4847 17.9544 58.5759 17.9861C58.6217 18.002 58.6675 18.0181 58.7131 18.0342C58.7853 18.0596 58.8573 18.0854 58.9292 18.1113C58.9601 18.1225 58.9909 18.1336 59.0217 18.1448C59.1268 18.1831 59.2316 18.2219 59.3362 18.2612C59.3569 18.269 59.3775 18.2768 59.3982 18.2847C59.4788 18.3152 59.5593 18.346 59.6397 18.3772C59.7178 18.4075 59.7957 18.4383 59.8735 18.4692C59.9143 18.4854 59.9552 18.5015 59.9959 18.5178C60.052 18.5404 60.1081 18.5631 60.1641 18.5859C60.2215 18.6094 60.2787 18.6332 60.3359 18.657C60.4028 18.6847 60.4696 18.7125 60.5361 18.7407C60.6013 18.7683 60.6663 18.7962 60.7312 18.8242C60.7755 18.8433 60.8198 18.8623 60.864 18.8816C60.9543 18.921 61.0444 18.9608 61.1343 19.001C61.1648 19.0146 61.1953 19.0285 61.2258 19.0422C61.2893 19.0709 61.3526 19.0999 61.4158 19.1289C61.5159 19.1749 61.6158 19.2213 61.7153 19.2683C61.7397 19.2798 61.764 19.2912 61.7883 19.3027C61.8489 19.3315 61.9094 19.3603 61.9697 19.3894C62.0185 19.4129 62.0671 19.4367 62.1157 19.4604C62.1736 19.4887 62.2314 19.5173 62.2891 19.5459C62.3545 19.5784 62.4199 19.6111 62.4851 19.644C62.5344 19.6689 62.5837 19.6939 62.6328 19.719C62.6803 19.7433 62.7278 19.7677 62.7752 19.7922C63.0905 19.9555 63.4026 20.1239 63.7117 20.2971C63.7441 20.3153 63.7765 20.3335 63.8088 20.3518C63.8612 20.3814 63.9134 20.4111 63.9656 20.4409C64.041 20.4841 64.1162 20.5275 64.1912 20.5713C64.2446 20.6025 64.2979 20.6338 64.3511 20.6653C64.3934 20.6903 64.4356 20.7155 64.4778 20.7407C64.5432 20.7798 64.6085 20.8191 64.6736 20.8586C64.7305 20.8932 64.7873 20.928 64.844 20.9629C64.8909 20.9918 64.9377 21.0207 64.9844 21.0498C65.0277 21.0768 65.0711 21.1039 65.1143 21.1311C65.2075 21.1898 65.3003 21.249 65.3928 21.3086C65.415 21.3228 65.4372 21.337 65.4592 21.3513C65.6503 21.475 65.8399 21.6007 66.0281 21.7283C66.038 21.735 66.0478 21.7418 66.0576 21.7485C66.4579 22.0206 66.8517 22.3014 67.2385 22.5908C67.2446 22.5953 67.2506 22.6 67.2566 22.6045C67.378 22.6954 67.4986 22.7873 67.6187 22.8799C67.6275 22.8867 67.6364 22.8935 67.6453 22.9004C75.1629 28.7128 79.9997 37.7833 79.9998 47.9795C79.9998 50.141 79.7819 52.2519 79.3677 54.292C78.9008 54.1083 78.4222 53.9482 77.9334 53.8125C78.3047 51.9249 78.4998 49.9748 78.4998 47.9795C78.4998 41.944 76.7193 36.3204 73.6511 31.5979C73.6451 31.5894 73.639 31.5808 73.6333 31.572C68.3944 23.5245 59.4118 18.1023 49.1297 17.7297C48.901 17.7215 48.6718 17.7157 48.4419 17.7124C48.2937 17.7103 48.1453 17.709 47.9966 17.709C38.1101 17.709 29.3253 22.3743 23.7512 29.6084C23.2326 30.2814 22.4312 30.6499 21.6257 30.6382C21.5834 30.6376 21.5409 30.636 21.4985 30.6333C21.4139 30.6278 21.3293 30.6181 21.2451 30.604C21.1188 30.5829 20.9936 30.5519 20.8704 30.511C20.7061 30.4563 20.5456 30.3837 20.3914 30.2925C20.2757 30.2241 20.1636 30.1453 20.0562 30.0557L19.3364 29.4548L19.3359 29.4546C18.6149 28.8522 17.528 29.3673 17.5232 30.2805L17.4688 40.7505C17.4687 40.8038 17.4729 40.8558 17.4812 40.9062C17.5151 41.1115 17.6161 41.2907 17.7617 41.426L17.7991 41.459L17.8023 41.4617C18.0074 41.6351 18.2835 41.7202 18.5754 41.668L18.5764 41.6677L28.96 39.8213C29.8558 39.6615 30.1628 38.5798 29.5391 37.9766L29.4756 37.9197L28.5979 37.1868C27.6492 36.3946 27.391 34.9831 28.1489 33.9294C32.5686 27.7863 39.8122 23.7811 47.9966 23.781C61.4531 23.781 72.3711 34.6095 72.3711 47.9795C72.3711 49.8614 72.1546 51.6929 71.7454 53.4509C71.1898 53.5367 70.6445 53.6538 70.1113 53.8C70.6066 51.9423 70.8711 49.9914 70.8711 47.9795C70.8711 35.4485 60.6353 25.281 47.9966 25.281C40.3123 25.2811 33.5149 29.0396 29.3667 34.8054C29.1038 35.1709 29.1662 35.7071 29.5593 36.0354L30.4365 36.7681C32.1334 38.184 31.3877 40.9124 29.2229 41.2981L29.2227 41.2983L18.8396 43.1443L18.8399 43.1445C18.5115 43.2033 18.1884 43.1936 17.8843 43.1267C17.627 44.7065 17.4934 46.3271 17.4934 47.9795C17.4934 64.6929 31.1441 78.2499 47.9966 78.25C52.756 78.25 57.2599 77.1683 61.2732 75.24C61.5248 75.678 61.7986 76.1015 62.0925 76.5095C57.8392 78.5843 53.0548 79.75 47.9966 79.75C30.3263 79.7499 15.9934 65.5319 15.9934 47.9795C15.9934 46.0334 16.1694 44.1275 16.5088 42.2756L16.5086 42.2754C16.4263 42.174 16.352 42.0659 16.2866 41.9517C16.2844 41.9478 16.2822 41.944 16.28 41.9402C16.2664 41.916 16.2531 41.8915 16.2402 41.8667C16.2351 41.8568 16.2301 41.8469 16.2251 41.8369C16.2136 41.8139 16.2023 41.7908 16.1914 41.7673C16.187 41.7578 16.183 41.7481 16.1787 41.7385C16.158 41.6921 16.1385 41.6449 16.1206 41.5969C16.1169 41.5871 16.1129 41.5773 16.1094 41.5674C16.1025 41.5481 16.0963 41.5286 16.0899 41.509C16.0836 41.49 16.0773 41.4709 16.0715 41.4517C16.0546 41.3954 16.0392 41.3383 16.0264 41.2803C16.0253 41.2753 16.0243 41.2703 16.0232 41.2654C16.0097 41.2027 15.9985 41.1392 15.99 41.0747C15.9891 41.0683 15.9884 41.0619 15.9876 41.0554C15.9843 41.0292 15.9814 41.0028 15.979 40.9763C15.9781 40.9663 15.9774 40.9563 15.9766 40.9463C15.9742 40.9166 15.9725 40.8867 15.9712 40.8567C15.9711 40.8532 15.9708 40.8497 15.9707 40.8462C15.9694 40.8124 15.9687 40.7783 15.9688 40.7441V40.7427L16.0232 30.2725L16.0256 30.1699C16.1155 28.0338 18.6452 26.9226 20.2979 28.3035L21.0173 28.9038C21.1427 29.0084 21.2889 29.0776 21.4429 29.1118C21.477 29.1194 21.5116 29.1252 21.5464 29.1294C21.5813 29.1335 21.6164 29.136 21.6516 29.1367C21.6692 29.1371 21.6868 29.137 21.7044 29.1365C22.0217 29.1272 22.3417 28.9786 22.561 28.6929C28.3872 21.1048 37.4492 16.209 47.9966 16.209C48.1291 16.209 48.2614 16.2098 48.3936 16.2114Z" fill="#B66A1F"/>
<path d="M23.7466 45.5315C23.7885 45.1194 24.1566 44.8193 24.5686 44.8611C24.9807 44.903 25.2809 45.271 25.239 45.6831C25.1623 46.4382 25.1223 47.2042 25.1223 47.9795C25.1223 60.5104 35.358 70.6779 47.9966 70.678C52.1234 70.678 55.9939 69.5937 59.3357 67.6973C59.3343 67.7798 59.3335 67.8627 59.3335 67.9456C59.3335 68.4262 59.3567 68.9014 59.4019 69.3701C55.9983 71.1624 52.1166 72.178 47.9966 72.178C34.5401 72.1779 23.6223 61.3494 23.6223 47.9795C23.6223 47.1526 23.6649 46.336 23.7466 45.5315Z" fill="#B66A1F"/>
<path d="M74 80C80.6274 80 86 74.6274 86 68C86 61.3726 80.6274 56 74 56C67.3726 56 62 61.3726 62 68C62 74.6274 67.3726 80 74 80Z" fill="black"/>
<path d="M72.6805 61.0245C72.8267 60.9775 72.9862 60.9988 73.1152 61.0824C73.8192 61.5386 74.1806 62.1786 74.4063 62.8229C74.5178 63.141 74.5988 63.4679 74.6704 63.7764C74.744 64.0933 74.8057 64.3819 74.8837 64.6649L74.8908 64.687C74.9128 64.7513 74.9773 64.9019 75.1032 65.0372C75.2336 65.1774 75.4352 65.3099 75.774 65.3099C76.0914 65.3099 76.2769 65.2081 76.3926 65.1069C76.5186 64.9967 76.5907 64.8605 76.6291 64.7671L76.6405 64.7359C76.6672 64.6537 76.6963 64.5075 76.7307 64.3223C76.7467 64.2362 76.7658 64.1321 76.7861 64.0536C76.7938 64.0235 76.8134 63.9488 76.8516 63.8766C76.8641 63.853 76.9231 63.7395 77.0549 63.6615C77.1351 63.614 77.249 63.5763 77.3824 63.5925C77.4954 63.6062 77.5816 63.6537 77.6399 63.699L77.6631 63.7182L77.7056 63.7563C78.0428 64.0659 80.1673 66.1488 80.1673 69.5978L80.1661 69.6991C80.1175 71.8206 78.5447 73.5367 76.499 74.3009C76.2777 74.3836 76.0288 74.304 75.8956 74.108C75.7625 73.9119 75.7794 73.6498 75.9364 73.4726C76.2684 73.098 76.4552 72.6011 76.4773 72.0519L76.4794 71.9414C76.4794 71.4523 76.1748 70.8823 75.6054 70.2134C75.141 69.6678 74.5712 69.1339 73.9993 68.5876C73.4231 69.1314 72.8595 69.6392 72.3926 70.1769C71.8312 70.8233 71.5219 71.3951 71.5219 71.9414L71.524 72.0519C71.5461 72.6011 71.7328 73.098 72.0647 73.4726L72.0926 73.5067C72.2234 73.6823 72.2303 73.9242 72.1055 74.108C71.9724 74.304 71.7234 74.3836 71.5021 74.3009C69.4564 73.5366 67.8838 71.8205 67.8352 69.6991L67.834 69.5978C67.834 67.6862 68.6814 66.4892 69.6379 65.3457C70.5956 64.201 71.6494 63.115 72.3596 61.3251L72.371 61.2987C72.4314 61.1683 72.5434 61.0686 72.6805 61.0245Z" fill="white"/>
</svg>
