<svg width="12" height="12" viewBox="0 0 12 12" fill="none" xmlns="http://www.w3.org/2000/svg">
<g clip-path="url(#clip0_11743_75895)">
<path d="M0 6C0 2.68629 2.68629 0 6 0C9.31371 0 12 2.68629 12 6C12 9.31371 9.31371 12 6 12C2.68629 12 0 9.31371 0 6Z" fill="#63C853"/>
<path d="M4.28451 3.4827C4.97256 2.83664 6.0455 2.83863 6.7308 3.48759L7.84408 4.54227C8.04436 4.73209 8.05316 5.04884 7.86361 5.24931C7.6738 5.44959 7.35704 5.45839 7.15658 5.26884L6.0433 4.21415C6.02993 4.20149 6.01434 4.19151 6.00033 4.17997V6.49931C6.00037 7.32768 6.67195 7.99928 7.50033 7.99931H8.00033C8.27623 7.99944 8.50012 8.22342 8.50033 8.49931C8.50029 8.77533 8.27633 8.99917 8.00033 8.99931H7.50033C6.11967 8.99928 5.00037 7.87997 5.00033 6.49931V4.18681C4.99032 4.19529 4.97875 4.20215 4.96908 4.21122L3.8431 5.26981C3.64184 5.45879 3.32511 5.44855 3.13607 5.24735C2.94728 5.04622 2.95677 4.73037 3.15756 4.5413L4.28451 3.4827Z" fill="white"/>
</g>
<defs>
<clipPath id="clip0_11743_75895">
<rect width="12" height="12" fill="white"/>
</clipPath>
</defs>
</svg>
