<svg fill="none" viewBox="0 0 16 16" xmlns="http://www.w3.org/2000/svg">
  <path fill="#8DAB7A" d="M16 8c0 .7-.092 1.395-.273 2.07L8 8z"/>
  <path fill="#A9B273" d="M15.727 10.07c-.18.676-.45 1.325-.799 1.93L8 8z"/>
  <path fill="#D4BE67" d="M14.928 12c-.35.605-.777 1.162-1.271 1.657L8 8z"/>
  <path fill="#EEC460" d="M13.657 13.657c-.495.494-1.052.922-1.657 1.271L8 8z"/>
  <path fill="#FCB251" d="M12 14.928c-.605.35-1.254.618-1.93.8L8 8z"/>
  <path fill="#F9A149" d="M10.071 15.727c-.675.181-1.371.273-2.07.273V8z"/>
  <path fill="#F68C3F" d="M8 16c-.7 0-1.395-.092-2.07-.273L8 8z"/>
  <path fill="#F37434" d="M5.93 15.727c-.676-.18-1.325-.45-1.93-.799L8 8z"/>
  <path fill="#F0602B" d="M4 14.928c-.605-.35-1.162-.777-1.657-1.271L8 8z"/>
  <path fill="#DE634A" d="M2.343 13.657c-.494-.495-.922-1.052-1.271-1.657L8 8z"/>
  <path fill="#C86771" d="M1.072 12c-.35-.605-.618-1.254-.8-1.93L8 8z"/>
  <path fill="#B8698D" d="M.273 10.07C.092 9.396 0 8.7 0 8h8z"/>
  <path fill="#A66DAB" d="M0 8c0-.7.092-1.395.273-2.07L8 8z"/>
  <path fill="#9373BD" d="M.273 5.93c.181-.676.45-1.325.8-1.93L8 8z"/>
  <path fill="#827BC4" d="M1.072 4c.35-.605.777-1.162 1.271-1.657L8 8z"/>
  <path fill="#7083CC" d="M2.343 2.343C2.838 1.85 3.395 1.421 4 1.072L8 8z"/>
  <path fill="#5D8BD5" d="M4 1.072c.605-.35 1.254-.618 1.93-.8L8 8z"/>
  <path fill="#4795DE" d="M5.93.273C6.604.092 7.3 0 8 0v8z"/>
  <path fill="#4798D0" d="M8 0c.7 0 1.395.092 2.07.273L8 8z"/>
  <path fill="#4A99C3" d="M10.07.273c.676.18 1.325.45 1.93.799L8 8z"/>
  <path fill="#4E9AB1" d="M12 1.072c.605.35 1.162.777 1.657 1.271L8 8z"/>
  <path fill="#519BA3" d="M13.657 2.343c.494.495.922 1.052 1.271 1.657L8 8z"/>
  <path fill="#569C8F" d="M14.928 4c.35.605.618 1.254.8 1.93L8 8z"/>
  <path fill="#63A085" d="M15.727 5.93C15.908 6.604 16 7.3 16 8H8z"/>
  <path fill="#000" d="M15 8c0-3.866-3.134-7-7-7S1 4.134 1 8s3.134 7 7 7v1c-4.418 0-8-3.582-8-8s3.582-8 8-8 8 3.582 8 8-3.582 8-8 8v-1c3.866 0 7-3.134 7-7" opacity=".3" style="mix-blend-mode:multiply"/>
</svg>
