<svg width="16" height="16" viewBox="0 0 16 16" fill="none" xmlns="http://www.w3.org/2000/svg">
<path d="M13.2378 1.7002C14.2662 1.7002 15.1001 2.53365 15.1001 3.56201V7.34375C14.1352 6.50727 12.8772 6 11.5 6C8.46243 6 6 8.46243 6 11.5C6 12.5227 6.28035 13.4795 6.7666 14.2998H2.76221C1.73383 14.2998 0.899927 13.4664 0.899902 12.438V3.56201C0.89994 2.53365 1.73384 1.7002 2.76221 1.7002H13.2378Z" fill="#FAB341"/>
<path d="M13.6001 1.6001L15.25 3.2002L12.3789 6.0708C12.0927 6.02482 11.7992 6 11.5 6C9.44402 6 7.65278 7.12881 6.70898 8.7998H6.5L0.799805 3.2002L2.3999 1.6001H13.6001Z" fill="#FFEAB8"/>
<path d="M12 1C14.2091 1 15.9999 2.79095 16 5V8.33936C15.7158 7.93552 15.38 7.57064 15 7.25684V5C15 4.72397 14.9619 4.45649 14.8921 4.20264L12.8774 6.17383C12.4753 6.07013 12.0553 6.01242 11.623 6.00293L14.4355 3.24951C13.8909 2.49304 13.0033 2 12 2H4C2.99633 2 2.10808 2.49309 1.56348 3.25L5.90137 7.49609C6.24832 7.83568 6.65745 8.07342 7.09131 8.21094C6.88822 8.48272 6.71029 8.77423 6.55957 9.08154C6.4446 9.03721 6.33056 8.98896 6.21924 8.93359L2.35986 13.5107C2.83137 13.8194 3.3944 14 4 14H6.60156C6.7844 14.3575 7.00385 14.6931 7.25732 15H4C1.79092 15 9.89562e-05 13.2091 0 11V5C9.90831e-05 2.79095 1.79092 1 4 1H12ZM1.10742 4.20264C1.03763 4.45645 1.00002 4.72401 1 5V11C1.00004 11.6897 1.23326 12.3248 1.62451 12.8315L5.38184 8.37549C5.32072 8.32247 5.26023 8.26778 5.20166 8.21045L1.10742 4.20264Z" fill="#B66A1F"/>
<path d="M16 11.5C16 13.9853 13.9853 16 11.5 16C9.01472 16 7 13.9853 7 11.5C7 9.01472 9.01472 7 11.5 7C13.9853 7 16 9.01472 16 11.5Z" fill="black"/>
<path d="M8.5 14.9531C8.5 14.9145 8.54585 14.8938 8.5752 14.9189C8.60716 14.9464 8.58749 14.9999 8.54541 15C8.52057 15 8.50007 14.9799 8.5 14.9551V14.9531ZM11.5 8C12.6046 8 13.5 8.89543 13.5 10V11H14C14.2761 11 14.5 11.2239 14.5 11.5V13.1636C14.5 13.2545 14.4757 13.3445 14.4258 13.4204C13.8002 14.3717 12.7237 15 11.5 15C10.2763 15 9.19983 14.3717 8.57422 13.4204C8.52428 13.3445 8.5 13.2545 8.5 13.1636V11.5C8.5 11.2239 8.72386 11 9 11H9.5V10C9.5 8.89543 10.3954 8 11.5 8ZM14.4248 14.9189C14.4542 14.8938 14.5 14.9145 14.5 14.9531V14.9551C14.4999 14.9799 14.4794 15 14.4546 15C14.4125 14.9999 14.3928 14.9464 14.4248 14.9189ZM11.5 12C11.2239 12 11 12.2239 11 12.5V13.5C11 13.7761 11.2239 14 11.5 14C11.7761 14 12 13.7761 12 13.5V12.5C12 12.2239 11.7761 12 11.5 12ZM11.5 9C10.9477 9 10.5 9.44772 10.5 10V11H12.5V10C12.5 9.44772 12.0523 9 11.5 9Z" fill="white"/>
</svg>
