<svg width="96" height="96" viewBox="0 0 96 96" fill="none" xmlns="http://www.w3.org/2000/svg">
<path d="M77.3364 20.0586C79.9123 20.0586 82.0005 22.1468 82.0005 24.7227V50.0859C82.0005 50.5823 81.9224 51.0604 81.7788 51.509C79.5242 50.0959 76.8579 49.2788 74.0007 49.2788C69.3823 49.2788 65.2624 51.4135 62.574 54.75H36.2676C33.6917 54.75 31.6035 52.6618 31.6035 50.0859V24.7227C31.6035 22.1468 33.6917 20.0586 36.2676 20.0586H77.3364Z" fill="#589D88"/>
<path fill-rule="evenodd" clip-rule="evenodd" d="M77.4559 20.0601C79.9761 20.1239 81.9995 22.187 81.9996 24.7227V50.0859L81.9981 50.2063C81.9866 50.6596 81.9101 51.0967 81.7781 51.509C81.3428 51.2362 80.892 50.9856 80.4275 50.7588C80.4745 50.5419 80.4995 50.3169 80.4996 50.0859V33.1992H33.1026V50.0859C33.1026 51.8333 34.5193 53.2499 36.2666 53.25H63.9644C63.4668 53.717 63.0016 54.2181 62.573 54.75H36.2666C33.7311 54.7499 31.6679 52.7265 31.604 50.2063L31.6026 50.0859V24.7227C31.6026 22.1468 33.6908 20.0587 36.2666 20.0586H77.3355L77.4559 20.0601ZM36.2666 21.5586C34.5193 21.5587 33.1026 22.9753 33.1026 24.7227V26.1033H80.4996V24.7227C80.4995 22.9752 79.0829 21.5586 77.3355 21.5586H36.2666Z" fill="#11604D"/>
<path d="M26.9805 28.9646C27.0195 28.9583 27.0606 28.9653 27.0948 28.9861C27.129 29.0069 27.1536 29.0401 27.1636 29.0781C27.1735 29.1162 27.1681 29.1568 27.1485 29.1917C27.1288 29.2266 27.0965 29.2525 27.0594 29.2661C26.8878 29.3289 26.7247 29.3935 26.5613 29.4622C25.0853 30.076 23.8009 31.0113 22.8916 32.2478C21.9814 33.4798 21.4078 34.9802 21.2378 36.5554C21.2203 36.7269 21.2091 36.9085 21.2059 37.0803C21.2052 37.1198 21.1915 37.1589 21.1651 37.189C21.1387 37.219 21.102 37.2377 21.0628 37.241C21.0236 37.2441 20.9841 37.2317 20.9532 37.2063C20.9223 37.1809 20.9023 37.1445 20.8953 37.1057C20.8631 36.9257 20.841 36.7336 20.8274 36.5508C20.7157 34.8755 21.1982 33.1376 22.2239 31.7527C23.2433 30.3584 24.8139 29.4309 26.4363 29.071C26.6164 29.0298 26.7949 28.9953 26.9805 28.9646Z" fill="#11604D"/>
<path d="M21.0249 29.0139C21.0631 29.0091 21.1031 29.0153 21.137 29.0347C21.1709 29.0541 21.1962 29.085 21.2073 29.1213C21.2183 29.1577 21.2147 29.1974 21.1973 29.2324C21.1799 29.2675 21.1499 29.2947 21.1155 29.312C21.0319 29.3555 20.9515 29.405 20.8748 29.4587C20.1927 29.9559 19.7462 30.7088 19.3553 31.468C18.9783 32.2363 18.6427 33.0517 18.5367 33.907C18.5267 34.003 18.5211 34.0986 18.521 34.1929C18.5216 34.2314 18.511 34.2706 18.4878 34.3022C18.4647 34.3337 18.4313 34.3553 18.3941 34.3623C18.3568 34.3692 18.3176 34.361 18.2847 34.3398C18.2518 34.3187 18.2277 34.2861 18.2144 34.25C18.1777 34.1474 18.149 34.04 18.127 33.9309C17.9468 32.9502 18.1859 31.9616 18.6123 31.0952C19.048 30.2416 19.7252 29.4152 20.6985 29.0881C20.8055 29.0545 20.9153 29.0291 21.0249 29.0139Z" fill="#11604D"/>
<path d="M58.2977 35.8551C60.9016 35.4756 63.3201 37.2789 63.6996 39.8827L65.4677 52.015C61.7541 54.676 59.3346 59.028 59.3346 63.945C59.3346 66.2295 59.857 68.3921 60.7887 70.3197L23.0329 75.8227C20.429 76.2022 18.0105 74.3989 17.631 71.7951L14.0348 47.1212C13.6553 44.5174 15.4585 42.0989 18.0624 41.7194L58.2977 35.8551Z" fill="#FAB341"/>
<path d="M58.4198 35.8389C60.9767 35.5322 63.3259 37.3196 63.6996 39.8826L65.4679 52.0152C64.9941 52.3547 64.5413 52.7216 64.1119 53.1138L62.2152 40.0992C61.9551 38.3151 60.2981 37.0796 58.514 37.3396L18.2787 43.2037C16.4947 43.4637 15.2592 45.1208 15.5192 46.9048L19.1154 71.5787C19.3754 73.3627 21.0322 74.5981 22.8163 74.3382L60.1896 68.8909C60.3646 69.3796 60.5646 69.8565 60.7884 70.3196L23.0326 75.8226C20.4288 76.202 18.0105 74.3988 17.631 71.795L14.0348 47.1211C13.6554 44.5174 15.4586 42.0991 18.0624 41.7195L58.2977 35.8553L58.4198 35.8389Z" fill="black"/>
<path d="M58.4198 35.8389C60.9767 35.5322 63.3259 37.3196 63.6996 39.8826L65.4679 52.0152C64.9941 52.3547 64.5413 52.7216 64.1119 53.1138L62.2152 40.0992C61.9551 38.3151 60.2981 37.0796 58.514 37.3396L18.2787 43.2037C16.4947 43.4637 15.2592 45.1208 15.5192 46.9048L19.1154 71.5787C19.3754 73.3627 21.0322 74.5981 22.8163 74.3382L60.1896 68.8909C60.3646 69.3796 60.5646 69.8565 60.7884 70.3196L23.0326 75.8226C20.4288 76.202 18.0105 74.3988 17.631 71.795L14.0348 47.1211C13.6554 44.5174 15.4586 42.0991 18.0624 41.7195L58.2977 35.8553L58.4198 35.8389Z" fill="#B66A1F"/>
<path d="M44.2902 65.6415C44.3725 65.6308 44.4565 65.6536 44.5231 65.704C44.5896 65.7545 44.6337 65.8286 44.6457 65.9106C44.6576 65.9926 44.6365 66.0763 44.5871 66.1437C44.5376 66.2111 44.4636 66.2567 44.3817 66.2699C44.0322 66.3262 43.6825 66.3826 43.3329 66.4389L24.4516 69.4799C24.1021 69.5362 23.7525 69.5926 23.403 69.6489C23.2367 69.6756 23.0671 69.6346 22.932 69.5339C22.7972 69.4332 22.7074 69.2808 22.6828 69.1117C22.6581 68.9426 22.7005 68.7707 22.8012 68.6357C22.9019 68.5006 23.0526 68.4131 23.2196 68.3913C23.5707 68.3455 23.9218 68.2999 24.2729 68.2541L43.2367 65.779C43.5878 65.7332 43.9391 65.6874 44.2902 65.6415Z" fill="#B66A1F"/>
<path d="M26.8861 64.0546C27.0279 64.0369 27.1725 64.0769 27.2873 64.1642C27.402 64.2517 27.4778 64.3794 27.4984 64.5207C27.519 64.6619 27.4826 64.8058 27.3976 64.9223C27.3125 65.0387 27.1855 65.1188 27.0446 65.1423C26.9748 65.1539 26.9049 65.1653 26.8351 65.1769C25.576 65.3864 24.3166 65.5961 23.0575 65.8056C22.9876 65.8172 22.9174 65.8289 22.8476 65.8405C22.6815 65.8681 22.5124 65.8281 22.3774 65.7275C22.2424 65.6268 22.1522 65.4734 22.1274 65.3034C22.1026 65.1334 22.1452 64.9608 22.2458 64.8259C22.3464 64.6908 22.4973 64.6041 22.6645 64.5832C22.7348 64.5744 22.8053 64.5656 22.8756 64.5568C24.1421 64.3982 25.4088 64.2396 26.6752 64.081C26.7454 64.0722 26.8159 64.0634 26.8861 64.0546Z" fill="#B66A1F"/>
<path d="M60.0043 59.5466C59.9525 59.7116 59.9037 59.8779 59.8576 60.0453C59.64 60.0803 59.4225 60.1154 59.205 60.1503C50.2337 61.592 41.2622 63.034 32.2909 64.4758C31.7926 64.5558 31.2941 64.6359 30.7958 64.716C30.6295 64.7427 30.46 64.7018 30.3249 64.6012C30.1897 64.5007 30.0997 64.3483 30.0749 64.1794C30.0501 64.0105 30.0926 63.8391 30.193 63.704C30.2935 63.5689 30.4441 63.4812 30.611 63.4589C31.1113 63.3923 31.6119 63.3258 32.1122 63.2592C41.1192 62.0604 50.1265 60.8613 59.1335 59.6625C59.4237 59.6239 59.714 59.5852 60.0043 59.5466Z" fill="#B66A1F"/>
<path d="M30.7028 46.6401C32.4387 46.3871 34.0511 47.5892 34.3041 49.3251L34.932 53.6342C35.1849 55.37 33.983 56.9822 32.2472 57.2353L24.2961 58.3942C22.5602 58.6472 20.948 57.445 20.695 55.7092L20.0668 51.4001C19.8139 49.6642 21.016 48.052 22.7519 47.799L30.7028 46.6401Z" fill="#B66A1F"/>
<path d="M74 76C80.6274 76 86 70.6274 86 64C86 57.3726 80.6274 52 74 52C67.3726 52 62 57.3726 62 64C62 70.6274 67.3726 76 74 76Z" fill="black"/>
<path d="M73.9988 57.333C74.5511 57.333 74.9988 57.7807 74.9988 58.333V62.9998H79.6653C80.2176 62.9998 80.6653 63.4475 80.6653 63.9998C80.6653 64.552 80.2176 64.9998 79.6653 64.9998H74.9988V69.6663C74.9988 70.2185 74.5511 70.6663 73.9988 70.6663C73.4465 70.6663 72.9988 70.2185 72.9988 69.6663V64.9998H68.332C67.7797 64.9998 67.332 64.552 67.332 63.9998C67.332 63.4475 67.7797 62.9998 68.332 62.9998H72.9988V58.333C72.9988 57.7807 73.4465 57.333 73.9988 57.333Z" fill="white"/>
</svg>
