<svg xmlns="http://www.w3.org/2000/svg" width="12" height="12" fill="none" viewBox="0 0 12 12">
  <g clip-path="url(#a)">
    <path fill="#000" d="M11.5 7a.5.5 0 0 1 .5.5v1.468A3.031 3.031 0 0 1 8.967 12H7.499a.5.5 0 0 1 0-1h1.469c1.122 0 2.031-.91 2.031-2.032V7.5a.5.5 0 0 1 .5-.5Z"/>
    <path fill="#000" fill-rule="evenodd" d="M8.652.664a1.905 1.905 0 0 1 2.693 2.696l-7.386 7.375a1.992 1.992 0 0 1-.726.462l-1.896.69a.969.969 0 0 1-1.249-1.221l.59-1.748a1.99 1.99 0 0 1 .48-.771L7.46 1.854a.498.498 0 0 1 .108-.107L8.652.664Zm-6.788 8.19a.992.992 0 0 0-.238.384l-.57 1.686 1.835-.667a.996.996 0 0 0 .362-.23l5.708-5.701a2.983 2.983 0 0 1-1.283-1.278L1.864 8.854Zm8.775-7.482a.906.906 0 0 0-1.28-.001l-.921.918.004.012a1.986 1.986 0 0 0 1.255 1.255l.026.008.915-.912a.905.905 0 0 0 0-1.28Z" clip-rule="evenodd"/>
  </g>
  <defs>
    <clipPath id="a">
      <path fill="#fff" d="M0 0h12v12H0z"/>
    </clipPath>
  </defs>
</svg>
