<svg width="96" height="96" viewBox="0 0 96 96" fill="none" xmlns="http://www.w3.org/2000/svg">
<path fill-rule="evenodd" clip-rule="evenodd" d="M32.3132 19.8726C39.4938 15.1577 48.5058 15.436 55.2614 19.8599C53.7269 22.178 52.8335 24.9575 52.8335 27.9456C52.8335 34.8862 57.6546 40.7004 64.1306 42.223C63.4825 44.9326 62.2966 47.5169 60.6071 49.8001L74.759 71.168C74.9377 71.4378 75.0331 71.7543 75.0332 72.0779V77.9012C75.0331 78.8113 74.2954 79.5491 73.3852 79.5491H63.6264C62.7162 79.5491 61.9785 78.8114 61.9785 77.9012V72.6649C61.9783 71.7549 61.2405 71.0171 60.3305 71.0169H57.1674C56.3483 71.0169 55.6843 70.3529 55.6843 69.5337V64.3213C55.6842 63.4114 54.9463 62.6736 54.0363 62.6734H48.707C48.1563 62.6734 47.6419 62.3985 47.3361 61.9405L45.7685 59.5919C37.4429 61.5766 28.4033 58.29 23.4343 50.7227C17.0945 41.0676 19.7821 28.1011 29.4372 21.7613L32.3132 19.8726ZM44.2109 28.3875C42.2682 25.4289 38.2909 24.6077 35.3322 26.5503C32.3736 28.4931 31.5463 32.4689 33.489 35.4275C35.4317 38.3861 39.409 39.2074 42.3676 37.2647C45.3261 35.322 46.1534 31.3461 44.2109 28.3875Z" fill="#FAB341"/>
<path d="M60.4314 52.5469C60.7043 51.7782 61.7383 51.6519 62.1882 52.3323L74.5579 71.0376C74.6648 71.1994 74.7219 71.3891 74.7219 71.583V74.7451C74.7219 75.725 73.4499 76.1081 72.9087 75.2913L60.6638 56.8091C59.9485 55.7294 59.7825 54.3761 60.2156 53.1555L60.4314 52.5469Z" fill="#FFC95C"/>
<path d="M62.375 41.6919C63.0576 41.9465 63.7641 42.1515 64.4905 42.303C63.5172 46.6121 61.3496 50.0412 59.6003 51.4329C58.495 52.3122 57.7933 52.5152 57.4187 52.2034C57.112 51.9479 57.1366 51.332 57.9912 50.6321C58.7258 50.0305 61.5215 46.7293 62.375 41.6919Z" fill="#FFC95C"/>
<path d="M34.2168 18.6843C37.8438 16.3533 47.2466 15.1398 53.7212 18.6846C54.2946 18.9985 54.8483 19.3307 55.3823 19.6799C54.8411 20.4718 54.3755 21.3194 53.9958 22.2124C48.6436 18.4497 41.5246 17.442 34.2168 18.6843Z" fill="#FFC95C"/>
<path d="M32.1142 19.4734C39.4571 14.6475 48.6603 14.8994 55.5983 19.3719C55.3062 19.7768 55.034 20.1972 54.7836 20.6316C48.3293 16.4716 39.7684 16.2379 32.9382 20.7269L30.081 22.6048C20.8356 28.6812 18.2616 41.1095 24.3327 50.3641C29.1438 57.6978 37.9412 60.8383 45.9875 58.7996C46.051 58.7835 46.1148 58.7767 46.1774 58.7771C46.1945 58.7723 46.212 58.7679 46.2297 58.7642C46.2839 58.7542 46.3436 58.7415 46.4033 58.7278C47.5043 58.4596 48.6449 58.0935 49.7529 57.7068C49.8146 57.6851 49.8764 57.663 49.9379 57.6409C50.0007 57.6186 50.074 57.6231 50.1394 57.6492C50.2048 57.6756 50.2573 57.7216 50.2871 57.7811C50.3167 57.8405 50.3221 57.9102 50.3039 57.9783C50.2855 58.0462 50.2449 58.1073 50.1894 58.1441C50.134 58.1805 50.0783 58.2171 50.0227 58.2532C49.0564 58.876 48.0925 59.4685 47.0439 60.0186L48.0624 61.5271C48.2294 61.7744 48.5085 61.9226 48.8068 61.9227H54.0358C55.36 61.9228 56.4336 62.9964 56.4338 64.3206V69.533L56.4348 69.5706C56.4544 69.958 56.7747 70.266 57.1669 70.2662H60.33C61.6544 70.2662 62.7278 71.34 62.728 72.6641V77.5467C62.7281 78.0425 63.1301 78.4445 63.6259 78.4446H73.1391C73.6351 78.4446 74.0373 78.0424 74.0373 77.5464L74.0371 71.9505C74.037 71.7753 73.9858 71.6037 73.8896 71.4573L60.447 51.0042C59.1293 52.2593 57.778 53.4263 56.2348 54.4341C56.1284 54.4994 56.0206 54.5621 55.9128 54.6194C55.8509 54.6521 55.7761 54.6586 55.7065 54.6397C55.6368 54.6207 55.5777 54.5778 55.541 54.5184C55.5043 54.4589 55.4925 54.3868 55.5068 54.316C55.5212 54.2453 55.5605 54.1813 55.6174 54.1407C55.705 54.0774 55.7949 54.0081 55.8845 53.9356C57.3893 52.644 58.7401 51.0646 59.9677 49.4976C61.6424 47.2574 62.809 44.7107 63.4313 42.0396C63.9086 42.1771 64.3959 42.2912 64.8918 42.3802C64.2756 45.0241 63.1634 47.5545 61.5856 49.8184C61.5693 49.8526 61.5495 49.8855 61.5275 49.917L75.143 70.6334C75.4001 71.0244 75.537 71.4825 75.5371 71.9505L75.5373 77.5464C75.5373 78.8709 74.4635 79.9446 73.1391 79.9446H63.6259C62.3017 79.9445 61.2281 78.871 61.228 77.5467V72.6641C61.2278 72.1837 60.8505 71.7914 60.3762 71.7674L60.33 71.7662H57.1669C55.9337 71.766 54.9339 70.7662 54.9338 69.533V64.3206C54.9337 63.8403 54.5564 63.448 54.082 63.4239L54.0358 63.4227H48.8068C48.0102 63.4226 47.2654 63.0269 46.8195 62.3667L45.5231 60.4468C37.107 62.2241 28.0855 58.819 23.0786 51.1868C16.5536 41.2405 19.3194 27.8828 29.257 21.3514L32.1142 19.4734Z" fill="#B66A1F"/>
<path d="M59.5441 54.9878C59.5936 54.9973 59.6375 55.0257 59.6674 55.0657C59.8915 55.3665 60.1149 55.6681 60.3374 55.97C62.3397 58.6874 64.2755 61.4494 66.1447 64.2554C68.014 67.0614 69.8229 69.9081 71.5708 72.795C71.7649 73.1156 71.9584 73.4369 72.1511 73.7586C72.1802 73.8073 72.1908 73.8659 72.1791 73.9219C72.1674 73.978 72.1343 74.0271 72.0871 74.0586C72.0398 74.0901 71.9818 74.1016 71.9255 74.0909C71.8692 74.0801 71.8194 74.0477 71.7856 74.002C71.563 73.7003 71.3409 73.398 71.1198 73.0953C69.1292 70.3701 67.1991 67.6042 65.3298 64.7981C63.4606 61.9922 61.6578 59.1417 59.9216 56.2471C59.7287 55.9256 59.5364 55.6032 59.3452 55.2806C59.3197 55.2375 59.3104 55.1859 59.3208 55.1365C59.3312 55.0872 59.3603 55.0438 59.4018 55.0162C59.4434 54.9886 59.4947 54.9784 59.5441 54.9878Z" fill="#B66A1F"/>
<path fill-rule="evenodd" clip-rule="evenodd" d="M34.9204 25.9224C38.2246 23.7529 42.6671 24.6694 44.8376 27.9747C47.008 31.2801 46.0832 35.7209 42.779 37.8907C39.4747 40.0604 35.0322 39.1437 32.8618 35.8382C30.6915 32.5327 31.6161 28.0921 34.9204 25.9224ZM43.5837 28.7979C41.8687 26.1863 38.3567 25.4608 35.7438 27.1763C33.1309 28.892 32.4008 32.4031 34.1157 35.0149C35.8307 37.6268 39.3428 38.3525 41.9558 36.6368C44.5686 34.921 45.2987 31.4097 43.5837 28.7979Z" fill="#B66A1F"/>
<path d="M38.5474 27.5061C39.6387 27.4229 40.7372 27.6324 41.7048 28.1006C41.8121 28.1528 41.9184 28.2088 42.0208 28.2676C42.0621 28.2916 42.097 28.3275 42.116 28.3723C42.1349 28.417 42.1369 28.4663 42.1206 28.5105C42.1043 28.5547 42.0708 28.5911 42.0274 28.6128C41.9839 28.6345 41.934 28.6394 41.887 28.6309C41.7771 28.6114 41.6656 28.5932 41.5552 28.5772C40.561 28.4367 39.581 28.4106 38.6238 28.4824C37.6679 28.5599 36.7287 28.7442 35.8626 29.1899C35.7665 29.2398 35.6717 29.2927 35.5779 29.3496C35.5315 29.3782 35.4765 29.3932 35.4214 29.3875C35.3663 29.3817 35.3161 29.3563 35.281 29.3154C35.2459 29.2746 35.2281 29.2211 35.2307 29.1658C35.2333 29.1104 35.2565 29.0582 35.2918 29.0166C35.3713 28.9245 35.4555 28.8362 35.5442 28.7517C36.3477 27.9848 37.4625 27.5886 38.5474 27.5061Z" fill="#F5A031"/>
<path d="M67.5 40C74.1274 40 79.5 34.6274 79.5 28C79.5 21.3726 74.1274 16 67.5 16C60.8726 16 55.5 21.3726 55.5 28C55.5 34.6274 60.8726 40 67.5 40Z" fill="black"/>
<path d="M67.5 21.333C68.0523 21.333 68.5 21.7807 68.5 22.333V26.9998H73.1667C73.719 26.9998 74.1667 27.4475 74.1667 27.9998C74.1667 28.552 73.719 28.9998 73.1667 28.9998H68.5V33.6663C68.5 34.2185 68.0523 34.6663 67.5 34.6663C66.9477 34.6663 66.5 34.2185 66.5 33.6663V28.9998H61.8335C61.2812 28.9998 60.8335 28.552 60.8335 27.9998C60.8335 27.4475 61.2812 26.9998 61.8335 26.9998H66.5V22.333C66.5 21.7807 66.9477 21.333 67.5 21.333Z" fill="white"/>
</svg>
