<svg width="128" height="96" viewBox="0 0 128 96" fill="none" xmlns="http://www.w3.org/2000/svg">
<path d="M34.7863 33.1097C35.3063 25.9621 41.3781 20.5007 48.5407 20.7379L73.4895 21.5643L95.5004 41.8309L94.1035 53.8592C92.8016 53.4807 91.4249 53.2777 90.0009 53.2777C81.9008 53.2778 75.3344 59.8443 75.3344 67.9445C75.3344 70.5778 76.0285 73.049 77.2436 75.1852L45.8168 74.4401C38.1911 74.2591 32.2676 67.7356 32.821 60.1278L34.7863 33.1097Z" fill="#4397E0"/>
<path d="M38.7176 44.3503C40.6873 30.9217 53.4595 21.6803 67.245 23.709C68.8894 23.951 70.474 24.3426 71.9862 24.8672L71.2555 26.5889C66.7396 37.2257 76.9557 48.1855 87.8832 44.427L88.5592 44.1943C88.9702 46.6186 89.0144 49.1417 88.6395 51.6973C88.5565 52.2632 88.4535 52.8215 88.3329 53.3721C81.0182 54.2002 75.3343 60.409 75.3343 67.9451C75.3343 68.5937 75.3767 69.2325 75.4584 69.8589C70.9132 72.17 65.5928 73.1452 60.1122 72.3386C46.3268 70.3098 36.748 57.7789 38.7176 44.3503Z" fill="#A1D0F7"/>
<path d="M48.1253 36.2578C52.9914 29.4749 62.0783 26.528 70.3799 29.4763C68.8883 37.5099 75.17 44.9431 83.0737 45.1767C83.2768 46.9265 83.2295 48.717 82.909 50.498C82.8232 50.9746 82.6813 51.4502 82.4212 51.8611C76.954 60.4953 45.6003 48.716 47.3816 37.9136C47.4808 37.3123 47.7682 36.7555 48.1253 36.2578Z" fill="#75B6EB"/>
<path d="M95.4299 41.8323L87.883 44.4282C76.9556 48.1868 66.7394 37.2269 71.2554 26.5901L73.353 21.6494V28.4846C73.353 35.8563 79.329 41.8323 86.7007 41.8323H95.4299L73.353 21.6494L73.3533 21.6489L95.4299 41.8323Z" fill="#1074CC"/>
<path d="M91.7524 32.4687C92.0865 32.4942 92.3484 32.5964 92.5378 32.7751C93.09 33.2962 93.5495 33.9157 93.916 34.6335C93.9433 34.6871 93.9703 34.7413 93.9966 34.7959C94.025 34.8556 94.0443 34.9214 94.0417 34.9875C94.0392 35.0537 94.0153 35.1146 93.9726 35.1599C93.9299 35.2052 93.8705 35.2326 93.8047 35.239C93.7388 35.2454 93.6718 35.2299 93.6106 35.2051C93.5545 35.182 93.4988 35.1582 93.4438 35.134C92.706 34.8099 92.0608 34.3872 91.5085 33.8662C91.3191 33.6875 91.2018 33.4319 91.157 33.0998C91.1472 33.0277 91.1408 32.9517 91.1379 32.8723C91.1361 32.8066 91.1353 32.7428 91.1435 32.6863C91.152 32.6296 91.1706 32.5828 91.2038 32.5476C91.2371 32.5124 91.2825 32.4909 91.3386 32.4792C91.3945 32.4678 91.4585 32.4652 91.5242 32.4631C91.6036 32.4614 91.6798 32.4632 91.7524 32.4687Z" fill="#1074CC"/>
<path d="M78.81 21.0825C78.8746 21.0746 78.9411 21.0868 79.0034 21.1072C79.2427 21.1868 79.4708 21.279 79.6872 21.3835C80.1286 21.5967 80.5227 21.8618 80.8691 22.1787C83.5824 24.6609 86.2023 27.2455 88.7287 29.9319C88.887 30.1002 89.0451 30.2689 89.2026 30.438C89.2515 30.4906 89.2817 30.5595 89.2839 30.6321C89.2861 30.7047 89.2604 30.775 89.2121 30.8279C89.1638 30.8807 89.0959 30.9124 89.0234 30.9167C88.9509 30.921 88.8795 30.8971 88.8227 30.853C88.6404 30.7112 88.4582 30.5687 88.2766 30.426C85.3766 28.148 82.5699 25.7678 79.8567 23.2856C79.5102 22.9687 79.211 22.5997 78.9595 22.1789C78.8361 21.9726 78.7241 21.7536 78.6235 21.5222C78.5977 21.4619 78.5796 21.3968 78.5818 21.3318C78.584 21.2668 78.6063 21.2073 78.6472 21.1626C78.6881 21.1179 78.7455 21.0905 78.81 21.0825Z" fill="#1074CC"/>
<path fill-rule="evenodd" clip-rule="evenodd" d="M34.063 32.9792C34.5974 25.4743 40.9941 19.7388 48.5368 19.9904L71.4067 20.7531C72.7742 20.7987 74.0809 21.3307 75.0915 22.2531L94.0566 39.5631C95.4134 40.8016 96.0967 42.6141 95.8955 44.4401L94.8315 54.0929C94.3548 53.9267 93.8668 53.7844 93.3691 53.6674L94.4045 44.2758C94.4681 43.6982 94.4116 43.1224 94.248 42.581H86.426C78.4096 42.581 72.0065 35.9053 72.3405 27.8959L72.5666 22.4706C72.179 22.3406 71.7717 22.2662 71.3569 22.2524L48.4868 21.4894C41.7447 21.2645 36.0359 26.3904 35.5591 33.0856L33.6198 60.3224C33.114 67.4276 38.6718 73.5183 45.8291 73.6881L76.8381 74.4233C77.0973 74.9489 77.3871 75.4567 77.705 75.9445L45.7937 75.1877C37.7863 74.9977 31.5567 68.1814 32.1237 60.216L34.063 32.9792ZM73.8391 27.9584C73.5406 35.1156 79.2626 41.081 86.426 41.081H93.4372C93.3165 40.9369 93.1861 40.7995 93.0454 40.6711L74.0803 23.361C74.0645 23.3466 74.0484 23.3326 74.0324 23.3185L73.8391 27.9584Z" fill="#045EB2"/>
<path d="M42.3108 38.8798C47.1473 27.8799 59.8597 22.6124 71.2751 26.5397L71.2544 26.5888C71.0624 27.041 70.8973 27.494 70.7575 27.9462C60.0593 24.2718 48.1956 29.2219 43.6916 39.4655C38.9779 50.1863 44.0876 62.6977 55.1511 67.392C62.0514 70.3197 69.6172 69.5062 75.478 65.8786C75.3943 66.4722 75.3461 67.0771 75.3357 67.6913C69.205 71.1001 61.5449 71.734 54.5473 68.765C42.7506 63.7596 37.251 50.3878 42.3108 38.8798Z" fill="#045EB2"/>
<path d="M65.6386 28.1276C65.706 28.0989 65.7825 28.0948 65.8518 28.1191C65.921 28.1434 65.9779 28.1937 66.0095 28.2587C66.041 28.3238 66.0451 28.3994 66.0212 28.4687C65.9972 28.538 65.9468 28.5954 65.8823 28.6303C65.2934 28.9489 64.7276 29.3098 64.1838 29.6999C62.7779 30.7427 61.5022 31.9275 60.3408 33.2167C60.594 33.3946 60.848 33.5723 61.1028 33.7484C63.3113 35.2718 65.643 36.6318 68.0693 37.8595C68.5645 38.1098 69.064 38.3546 69.5674 38.5932C69.8352 38.7201 70.1047 38.8454 70.375 38.9689C70.44 38.9987 70.4941 39.0507 70.5237 39.1164C70.5531 39.182 70.5559 39.2561 70.5312 39.3229C70.5065 39.3897 70.4559 39.4448 70.3904 39.4767C70.3247 39.5086 70.2493 39.5143 70.1799 39.4963C69.8879 39.4199 69.5965 39.3392 69.3066 39.2546C68.7619 39.0956 68.2207 38.9219 67.6845 38.7345C65.057 37.8158 62.5347 36.5634 60.2336 34.9757C59.9414 34.7739 59.6539 34.5642 59.3716 34.3483C57.175 37.043 55.419 40.1146 53.9782 43.2658C54.5498 43.5053 55.12 43.7489 55.6882 43.996C58.8383 45.366 61.9379 46.8521 64.9863 48.454C65.3242 48.6316 65.6621 48.8109 65.9987 48.9914C66.0618 49.0253 66.1129 49.0806 66.1384 49.1483C66.1638 49.2162 66.1617 49.2909 66.133 49.3564C66.1043 49.4219 66.0506 49.4741 65.9834 49.5016C65.9161 49.5291 65.8408 49.5295 65.7729 49.5065C65.4112 49.3832 65.0496 49.2581 64.6892 49.132C61.4374 47.9939 58.236 46.7398 55.0859 45.3698C54.5218 45.1245 53.9592 44.875 53.3984 44.6222C52.1889 47.6725 51.3018 50.9013 50.9128 54.1728C51.2221 54.2229 51.5306 54.2789 51.8371 54.3417C54.5528 54.8997 57.1915 55.7663 59.7109 56.8759C62.4624 58.0942 65.0989 59.6006 67.4804 61.422C68.6689 60.1764 69.823 58.8844 70.9563 57.5483C71.1176 57.3578 71.2786 57.1663 71.4389 56.9738C71.4842 56.9195 71.5467 56.8791 71.6172 56.8647C71.6877 56.8503 71.7605 56.8627 71.8198 56.8996C71.879 56.9366 71.9216 56.9961 71.9387 57.0651C71.9557 57.1341 71.9455 57.2073 71.9153 57.2709C71.8057 57.4996 71.6923 57.7267 71.5752 57.9521C70.7638 59.5115 69.7735 60.9884 68.6186 62.3337C69.478 63.0543 70.2991 63.8196 71.0732 64.6315C71.4252 65.0032 71.7663 65.3851 72.0942 65.7773C72.1407 65.8331 72.1651 65.9051 72.1604 65.9782C72.1555 66.0513 72.1223 66.1198 72.0676 66.1686C72.0128 66.2174 71.9404 66.2431 71.8667 66.2401C71.7929 66.237 71.7233 66.2053 71.6723 66.1535C71.3216 65.7972 70.96 65.4512 70.5898 65.1154C69.7642 64.3717 68.9008 63.6734 68.0066 63.018C67.8527 63.1829 67.6964 63.3458 67.5373 63.506C65.909 65.1403 63.9993 66.553 61.8381 67.4396C61.5978 67.5375 61.3548 67.628 61.1115 67.7094C61.0442 67.7317 60.9697 67.7331 60.9026 67.7082C60.8355 67.6831 60.781 67.6342 60.7509 67.5714C60.721 67.5087 60.7169 67.4356 60.7397 67.3678C60.7626 67.3001 60.8105 67.2432 60.8703 67.205C61.0777 67.072 61.2837 66.9341 61.4868 66.7929C63.3052 65.5176 64.9122 64.022 66.4677 62.4638C66.5698 62.3609 66.6715 62.2575 66.7729 62.154C64.3867 60.5551 61.8104 59.2341 59.1533 58.1447C56.6825 57.1381 54.1263 56.3395 51.5193 55.8039C51.2702 55.7529 51.0207 55.7028 50.7715 55.6535C50.6296 57.6362 50.6791 59.6275 50.9592 61.5968C51.0662 62.2493 51.2093 62.8961 51.4011 63.5285C51.4221 63.5978 51.4169 63.6737 51.3845 63.7397C51.352 63.8055 51.295 63.8563 51.226 63.881C51.1571 63.9056 51.0809 63.9024 51.0141 63.872C50.9474 63.8415 50.8954 63.7859 50.8679 63.7189C50.607 63.0798 50.3985 62.4205 50.2304 61.7521C49.7549 59.6711 49.5615 57.5503 49.6081 55.4301C48.4362 55.2126 47.2576 55.0179 46.0642 54.859C45.5649 54.7929 45.0625 54.7332 44.5571 54.6823C44.4869 54.6752 44.4188 54.6464 44.3681 54.5966C44.3175 54.5467 44.2879 54.48 44.2863 54.4106C44.2849 54.3411 44.3115 54.2731 44.3598 54.2201C44.4082 54.1672 44.4748 54.1341 44.5446 54.1227C45.059 54.0408 45.5781 53.9816 46.0984 53.944C47.2906 53.8583 48.489 53.884 49.675 54.0075C49.92 50.5912 50.7649 47.1987 52.0329 43.9975C49.9411 43.027 47.8718 42.0042 45.8261 40.9286C45.4883 40.751 45.1508 40.5718 44.8142 40.3913C44.751 40.3573 44.7 40.3019 44.6745 40.234C44.6492 40.1662 44.6508 40.0915 44.6794 40.026C44.7082 39.9606 44.7623 39.9083 44.8296 39.8808C44.8968 39.8533 44.9721 39.8531 45.04 39.8761C45.4017 39.9993 45.7633 40.1241 46.1237 40.2502C48.303 41.0123 50.4595 41.8272 52.5927 42.6942C54.0954 39.4328 56.0156 36.2803 58.4416 33.5949C57.4196 32.7179 56.4822 31.7429 55.6653 30.6754C55.4811 30.4346 55.3029 30.1885 55.133 29.9399C55.0938 29.8821 55.0725 29.8117 55.0786 29.7409C55.0848 29.67 55.1173 29.6042 55.1699 29.5578C55.2224 29.5115 55.2919 29.4871 55.3635 29.4892C55.4352 29.4913 55.5035 29.5204 55.5569 29.5658C55.7816 29.7569 56.0093 29.9467 56.2375 30.1335C57.2794 30.9842 58.3432 31.7866 59.4223 32.5636C60.7341 31.2536 62.1816 30.0781 63.7768 29.0861C64.3757 28.7268 64.9969 28.4028 65.6386 28.1276Z" fill="#045EB2"/>
<path d="M86.7107 44.7741C87.1613 47.7187 87.0228 50.773 86.2268 53.7685C85.6336 53.9259 85.0552 54.1196 84.4941 54.3471C85.4693 51.2729 85.6849 48.1058 85.227 45.0607C85.7181 44.994 86.2132 44.8989 86.7107 44.7741Z" fill="#045EB2"/>
<path d="M77.4914 46.5282C77.5551 46.5062 77.6223 46.5064 77.6811 46.5302C77.7399 46.5541 77.7874 46.6007 77.8166 46.6606C77.8457 46.7204 77.8538 46.7889 77.8493 46.8549C77.8427 46.951 77.8339 47.0485 77.8232 47.1449C77.7286 48.0105 77.4958 48.8341 77.1203 49.5963C76.7445 50.3571 76.2254 51.0643 75.5498 51.654C75.4749 51.7189 75.3972 51.7835 75.3188 51.8444C75.2656 51.885 75.2032 51.917 75.1364 51.9267C75.0698 51.9362 75.0041 51.9231 74.9511 51.8886C74.8983 51.8539 74.8605 51.7993 74.8435 51.735C74.8265 51.6706 74.8319 51.6014 74.8491 51.5373C74.8729 51.446 74.8975 51.3537 74.9221 51.2633C75.1426 50.4475 75.406 49.6816 75.7673 48.9508C76.127 48.2207 76.5798 47.5261 77.1384 46.8629C77.2006 46.7889 77.2642 46.7151 77.3283 46.6432C77.3727 46.5934 77.4277 46.5504 77.4914 46.5282Z" fill="#045EB2"/>
<path d="M90 80C96.6274 80 102 74.6274 102 68C102 61.3726 96.6274 56 90 56C83.3726 56 78 61.3726 78 68C78 74.6274 83.3726 80 90 80Z" fill="black"/>
<path d="M89.9995 61.334C90.5518 61.334 90.9995 61.7817 90.9995 62.334V71.5747L94.7048 68.5842C95.1346 68.2374 95.7642 68.3047 96.1111 68.7344C96.4579 69.1641 96.3909 69.7937 95.9612 70.1406L90.6392 74.4355C90.6094 74.4603 90.5785 74.483 90.5466 74.5039C90.5445 74.5053 90.5422 74.5067 90.54 74.5081C90.5153 74.5239 90.4901 74.5387 90.4644 74.5522C90.4572 74.556 90.45 74.5594 90.4429 74.563C90.4359 74.5664 90.4291 74.57 90.4221 74.5732C90.3977 74.5847 90.3729 74.5949 90.3479 74.6042C90.3429 74.6061 90.3378 74.6078 90.3328 74.6096C90.3209 74.6138 90.309 74.6176 90.2971 74.6213C90.2951 74.6219 90.2932 74.6227 90.2913 74.6233C90.2796 74.6269 90.2679 74.6302 90.2561 74.6333C90.2503 74.6348 90.2446 74.6363 90.2388 74.6377C90.2298 74.6399 90.2209 74.6421 90.2119 74.644C90.206 74.6453 90.2 74.6465 90.1941 74.6477C90.1671 74.653 90.14 74.6573 90.1128 74.6604C90.1078 74.661 90.1029 74.6614 90.0979 74.6619C90.0885 74.6628 90.0792 74.6634 90.0698 74.6641C90.0623 74.6646 90.0549 74.6652 90.0474 74.6655C90.0399 74.6659 90.0324 74.6661 90.0249 74.6663C90.0164 74.6665 90.008 74.6667 89.9995 74.6667C89.991 74.6667 89.9824 74.6665 89.9739 74.6663C89.9664 74.6661 89.9589 74.6659 89.9514 74.6655C89.9439 74.6652 89.9364 74.6646 89.9289 74.6641C89.9196 74.6634 89.9102 74.6628 89.9009 74.6619C89.896 74.6614 89.8911 74.661 89.8862 74.6604C89.8588 74.6573 89.8314 74.6531 89.8042 74.6477C89.7987 74.6466 89.7933 74.6455 89.7878 74.6443C89.7784 74.6423 89.7691 74.64 89.7598 74.6377C89.7536 74.6362 89.7475 74.6347 89.7414 74.6331C89.7301 74.63 89.7188 74.6267 89.7075 74.6233C89.7055 74.6227 89.7036 74.6219 89.7017 74.6213C89.6897 74.6176 89.6778 74.6138 89.666 74.6096C89.661 74.6078 89.6559 74.6061 89.6509 74.6042C89.6259 74.5949 89.6011 74.5847 89.5767 74.5732C89.5697 74.57 89.5628 74.5664 89.5559 74.563C89.5487 74.5594 89.5415 74.556 89.5344 74.5522C89.5086 74.5387 89.4834 74.5239 89.4587 74.5081C89.4566 74.5067 89.4543 74.5053 89.4521 74.5039C89.4202 74.483 89.3892 74.4602 89.3594 74.4353L84.0378 70.1406C83.6081 69.7937 83.5411 69.1641 83.8879 68.7344C84.2348 68.3047 84.8644 68.2374 85.2942 68.5842L88.9995 71.5747V62.334C88.9995 61.7817 89.4472 61.334 89.9995 61.334Z" fill="white"/>
</svg>
