<svg width="128" height="96" viewBox="0 0 128 96" fill="none" xmlns="http://www.w3.org/2000/svg">
<path d="M63.8638 16.7051C81.1165 16.7051 95.1025 30.8321 95.1025 48.0552C95.1025 50.086 94.9077 52.0715 94.5364 53.9941C93.108 53.53 91.5834 53.2793 90.0002 53.2793C81.9001 53.2793 75.3335 59.8459 75.3335 67.946C75.3335 70.9212 76.2193 73.6895 77.7417 76.0015C73.5608 78.0745 68.8486 79.2402 63.8638 79.2402C46.6111 79.2402 32.6251 65.2782 32.625 48.0552C32.625 30.8321 46.6111 16.7051 63.8638 16.7051Z" fill="#AED5C2"/>
<path d="M74.5657 18.7188C82.6245 21.4644 89.3945 28.7554 92.3179 35.0298C92.2931 35.0527 82.6197 44.0077 71.2903 47.1653C71.3242 47.4535 71.3423 47.7467 71.3423 48.0439C71.3423 52.1813 67.9611 55.5354 63.7903 55.5354C59.6194 55.5354 56.2383 52.1813 56.2383 48.0439C56.2383 43.9067 59.6195 40.5527 63.7903 40.5527C64.1033 40.5527 64.4118 40.5719 64.7148 40.6086C67.2439 28.7278 74.546 18.7457 74.5657 18.7188Z" fill="#589D88"/>
<path d="M81.5491 32.1126C81.5491 34.1638 79.8841 35.8267 77.8302 35.8267C75.7763 35.8267 74.1113 34.1638 74.1113 32.1126C74.1113 30.0613 75.7763 28.3984 77.8302 28.3984C79.8841 28.3984 81.5491 30.0613 81.5491 32.1126Z" fill="#FFD885"/>
<path d="M94.9693 32.0508C95.0311 32.0163 95.0813 31.9559 95.1095 31.8827C95.1376 31.8096 95.141 31.7298 95.1224 31.6589C95.0279 31.2994 94.9166 30.9415 94.7923 30.5882C93.6575 27.4399 91.7667 24.8039 89.5923 22.6024C87.4019 20.4189 84.8503 18.6366 81.984 17.6979C81.6666 17.5959 81.3419 17.5046 81.0197 17.4288C80.9561 17.414 80.8865 17.4246 80.8249 17.4629C80.7633 17.5012 80.715 17.5634 80.6901 17.6365C80.6653 17.7096 80.6656 17.7887 80.6909 17.857C80.7163 17.9254 80.7648 17.9768 80.8241 18.0045C81.1145 18.1408 81.4058 18.2882 81.6896 18.442C84.2455 19.8445 86.5118 21.7561 88.6173 23.8516C90.7045 25.9674 92.6742 28.2716 94.1711 30.9971C94.336 31.3044 94.4918 31.6162 94.6353 31.9307C94.6647 31.9956 94.714 32.0461 94.7761 32.0689C94.8381 32.0917 94.9075 32.0853 94.9693 32.0508Z" fill="#247A64"/>
<path d="M63.9504 16.1152C81.5743 16.1152 95.8618 30.3961 95.8618 48.0132C95.8618 50.1465 95.6515 52.2308 95.252 54.2468C94.7841 54.0673 94.3047 53.9111 93.8152 53.7795C94.1739 51.9125 94.3618 49.9848 94.3618 48.0132C94.3618 31.2252 80.7465 17.6152 63.9504 17.6152C47.1544 17.6153 33.5391 31.2252 33.5391 48.0132C33.5391 64.8012 47.1544 78.4114 63.9504 78.4114C68.7481 78.4114 73.2861 77.3004 77.3215 75.3225C77.576 75.759 77.8524 76.1811 78.1492 76.5874C73.8727 78.7147 69.0514 79.9114 63.9504 79.9114C46.3266 79.9114 32.0391 65.6303 32.0391 48.0132C32.0391 30.3961 46.3266 16.1153 63.9504 16.1152Z" fill="#11604D"/>
<path d="M47.5828 63.4758C47.7817 63.4755 47.9707 63.5561 48.1094 63.6987C48.3711 63.9682 48.6396 64.2312 48.9148 64.4873C50.5253 65.9867 52.3591 67.2501 54.3357 68.2385C57.3566 69.7534 60.7291 70.5944 64.145 70.6721C65.3664 70.7013 66.5923 70.6356 67.8071 70.4717C68.1866 70.4205 68.565 70.3597 68.9419 70.2896C69.0136 70.2762 69.0886 70.2923 69.1499 70.3333C69.2112 70.3743 69.2538 70.437 69.2688 70.5083C69.2838 70.5797 69.2698 70.6541 69.2302 70.7163C69.1906 70.7785 69.1286 70.8235 69.0576 70.8401C68.6751 70.9293 68.2901 71.0091 67.9033 71.0793C66.6652 71.3044 65.4072 71.4314 64.145 71.4604C60.6165 71.546 57.0471 70.8403 53.7991 69.3674C51.674 68.4068 49.6935 67.1187 47.9336 65.5747C47.6328 65.3109 47.3381 65.0396 47.0503 64.7612C46.9072 64.623 46.826 64.4343 46.8257 64.2354C46.8253 64.0365 46.9059 63.8435 47.0486 63.7004C47.1912 63.5573 47.3839 63.4761 47.5828 63.4758Z" fill="#11604D"/>
<path d="M48.979 44.0327C49.1442 43.922 49.349 43.8818 49.5466 43.9209C49.7443 43.96 49.9182 44.0752 50.0288 44.2405C50.1395 44.4057 50.1778 44.6076 50.1367 44.8022C50.047 45.2273 49.974 45.6352 49.9119 46.064C49.5202 48.744 49.7207 51.5182 50.6724 54.0413C52.3466 58.7097 56.8419 62.1153 61.8428 62.8657C62.274 62.9367 62.7008 62.9906 63.1387 63.0293C63.2114 63.0358 63.2792 63.0714 63.3271 63.1274C63.3751 63.1836 63.3994 63.2555 63.3945 63.3284C63.3896 63.4013 63.3559 63.4694 63.3008 63.5186C63.2457 63.5676 63.1738 63.5937 63.1008 63.5903C62.648 63.5688 62.2049 63.5321 61.7554 63.4773C56.5634 62.9327 51.5162 59.5501 49.51 54.5015C48.3786 51.7839 48.1039 48.7618 48.457 45.8718C48.513 45.4091 48.5806 44.9693 48.6653 44.5112C48.7014 44.3156 48.8137 44.1434 48.979 44.0327Z" fill="#11604D"/>
<path d="M44.376 56.9868C45.6946 56.9868 46.7636 58.0472 46.7637 59.3552C46.7637 60.6633 45.6946 61.7239 44.376 61.7239C43.0573 61.7239 41.9883 60.6633 41.9883 59.3552C41.9883 58.0472 43.0573 56.9868 44.376 56.9868Z" fill="#11604D"/>
<path d="M64.2517 23.6079C64.4506 23.6064 64.6416 23.684 64.7822 23.8247C64.9228 23.9653 65.0017 24.1575 65.0017 24.3579C65.0017 24.5584 64.9228 24.7505 64.7822 24.8911C64.6416 25.0318 64.4506 25.1095 64.2517 25.1079C63.5559 25.1024 62.8658 25.1279 62.1755 25.1843C57.6559 25.5449 53.2585 27.2977 49.7014 30.1406C44.413 34.3069 41.0855 40.9216 41.0356 47.7454C41.0181 49.0023 41.1027 50.262 41.2915 51.5073C41.3971 52.2042 41.5351 52.8967 41.7053 53.5815C41.7231 53.653 41.7116 53.729 41.6738 53.7927C41.636 53.8564 41.5751 53.9027 41.5039 53.9214C41.4327 53.9401 41.3567 53.9298 41.2925 53.8928C41.2283 53.8558 41.181 53.7951 41.1614 53.7241C40.969 53.0271 40.8088 52.3208 40.6814 51.6082C40.4537 50.3347 40.3313 49.0412 40.314 47.7454C40.1689 40.7152 43.4246 33.6797 48.9124 29.1711C52.6003 26.0962 57.2454 24.1735 62.0452 23.7219C62.7782 23.6514 63.5116 23.6135 64.2517 23.6079Z" fill="#11604D"/>
<path d="M63.7893 43.6587C66.2308 43.6587 68.21 45.6221 68.21 48.0439C68.2099 50.4658 66.2308 52.429 63.7893 52.429C61.3479 52.4289 59.3687 50.4658 59.3687 48.0439C59.3687 45.6221 61.3478 43.6587 63.7893 43.6587Z" fill="#11604D"/>
<path d="M52.5645 35.3745C53.8831 35.3745 54.9521 36.4349 54.9521 37.7429C54.9521 39.051 53.8831 40.1116 52.5645 40.1116C51.2458 40.1116 50.1768 39.051 50.1768 37.7429C50.1768 36.4349 51.2458 35.3745 52.5645 35.3745Z" fill="#11604D"/>
<path d="M90 80C96.6274 80 102 74.6274 102 68C102 61.3726 96.6274 56 90 56C83.3726 56 78 61.3726 78 68C78 74.6274 83.3726 80 90 80Z" fill="#39B25E"/>
<path d="M94.5401 63.4197C94.8768 62.982 95.5047 62.8999 95.9424 63.2366C96.3802 63.5734 96.462 64.2012 96.1253 64.639L89.959 72.6551C89.314 73.4936 88.0611 73.5269 87.3726 72.7237L83.9068 68.6802C83.5474 68.2609 83.5959 67.6295 84.0152 67.2701C84.4345 66.9107 85.0659 66.9592 85.4253 67.3785L88.6241 71.1104L94.5401 63.4197Z" fill="white"/>
</svg>
