<svg fill="none" viewBox="0 0 128 80" xmlns="http://www.w3.org/2000/svg">
  <rect width="127" height="79" x=".5" y=".5" fill="#A1CFF7" fill-opacity=".08" rx="19.5"/>
  <rect width="127" height="79" x=".5" y=".5" stroke="#1074CC" rx="19.5"/>
  <path fill="#1074CC" fill-opacity=".2" d="M94.645 14.727c10.69 0 19.355 9.978 19.355 22.286V78c-1.547.458-3.329 1-5 1H19c-1.67 0-3.453-.542-5-1V37.013c0-12.308 8.666-22.286 19.355-22.286z"/>
  <path fill="#fff" d="M25.429 46C21.879 46 19 48.93 19 52.545v4.91C19 61.069 21.878 64 25.429 64h77.142c3.551 0 6.429-2.93 6.429-6.545v-4.91c0-3.614-2.878-6.545-6.429-6.545z"/>
  <rect width="44" height="17.091" x="42" y="23" fill="#fff" rx="8.545"/>
  <path fill="#1074CC" d="M58.4 25c3.535 0 6.4 2.93 6.4 6.546 0 3.614-2.865 6.545-6.4 6.545h-8c-3.535 0-6.4-2.93-6.4-6.546S46.865 25 50.4 25zm-4.6 1.636c-2.32 0-4.2 1.924-4.2 4.296s1.88 4.295 4.2 4.295c1.016 0 1.947-.369 2.673-.982l2.044 2.09.063.052c.155.105.366.087.503-.052.136-.14.154-.356.051-.515l-.051-.064-2.044-2.09c.6-.743.961-1.695.961-2.734 0-2.372-1.88-4.296-4.2-4.296m21.4 0c2.651 0 4.8 1.958 4.8 4.373 0 1.831-1.237 3.4-2.991 4.05-1.135.533-3.927 1.074-5.52 1.354-.398.07-.656-.405-.39-.717l.776-.915c.168-.198.131-.5-.06-.673-.874-.792-1.415-1.888-1.415-3.1 0-2.414 2.149-4.372 4.8-4.372m0 .819c-2.299 0-4 1.677-4 3.554 0 .951.423 1.833 1.145 2.487.48.434.623 1.244.134 1.82l-.085.1c.588-.111 1.232-.242 1.853-.384 1.044-.238 1.948-.49 2.428-.716l.03-.014.03-.012c1.495-.554 2.465-1.851 2.465-3.281 0-1.877-1.701-3.555-4-3.555m-21.4 0c1.878 0 3.4 1.556 3.4 3.477s-1.522 3.477-3.4 3.477-3.4-1.557-3.4-3.477 1.522-3.477 3.4-3.477m21.172 1.189c.06-.243.397-.243.456 0l.131.538c.176.718.725 1.28 1.427 1.459l.526.134c.237.061.237.406 0 .467l-.526.135c-.702.18-1.251.74-1.427 1.458l-.13.539c-.06.242-.398.242-.457 0l-.132-.539c-.176-.718-.724-1.279-1.426-1.458l-.526-.135c-.238-.06-.238-.406 0-.467l.526-.134c.702-.18 1.25-.74 1.426-1.459z"/>
  <path fill="#1074CC" d="M94.4 13.09c11.487 0 20.8 9.525 20.8 21.274V77.56c-1.03.372-2.099.631-3.2.82V34.364c0-9.942-7.88-18-17.6-18H33.6c-9.72 0-17.6 8.058-17.6 18V78.38c-1.102-.189-2.17-.452-3.2-.824V34.364c0-11.75 9.312-21.273 20.8-21.273z"/>
</svg>
