<svg width="128" height="96" viewBox="0 0 128 96" fill="none" xmlns="http://www.w3.org/2000/svg">
<path d="M63.3747 16.75C66.3661 16.75 69.4022 17.7493 72.0034 20.3108C74.3648 22.6357 78.1081 24.871 83.0666 26.4822C89.4272 28.5501 93.2274 29.9126 93.8777 38.8696C94.1752 42.9543 93.9982 48.0991 92.5698 53.5032C91.7355 53.3557 90.8768 53.2788 90.0002 53.2788C81.9 53.2788 75.3335 59.8454 75.3335 67.9456C75.3335 70.3964 75.9349 72.7067 76.9978 74.7373C71.9115 77.8091 66.7168 79.25 63.3747 79.25C57.2863 79.25 45.0487 74.4654 38.5215 63.7544C33.1607 54.9523 32.3884 45.5059 32.872 38.8696C33.5223 29.9166 37.3224 28.5501 43.6831 26.4822C48.6375 24.871 52.3849 22.6357 54.7463 20.3108C57.3475 17.7493 60.3834 16.75 63.3747 16.75Z" fill="#FFC95C"/>
<path d="M63.3747 16C66.5451 16 69.7761 17.0647 72.5298 19.7764C74.788 21.9997 78.42 24.1837 83.2983 25.7688L83.8823 25.9592C86.776 26.9064 89.2791 27.8068 91.1274 29.5461C93.1444 31.4442 94.2934 34.2386 94.6257 38.8149L94.6477 39.1328C94.9169 43.2141 94.7138 48.3043 93.3061 53.6528C92.8207 53.541 92.326 53.4534 91.8235 53.3911C93.245 48.0577 93.4243 42.9698 93.1296 38.9241C92.8116 34.5436 91.7353 32.178 90.0996 30.6387C88.5234 29.1555 86.3472 28.3469 83.4284 27.3892L82.8347 27.1953C77.9537 25.6093 74.1839 23.414 71.7124 21.0723L71.4773 20.8452C69.0286 18.4339 66.187 17.5 63.3747 17.5C60.6065 17.5 57.81 18.405 55.3877 20.7332L55.2724 20.8452C52.8078 23.2718 48.9491 25.5583 43.915 27.1953C40.6956 28.242 38.3316 29.0575 36.6504 30.6401C35.0145 32.18 33.9381 34.5454 33.6201 38.9238C33.1435 45.4634 33.9085 54.7386 39.1618 63.3643L39.312 63.6079C42.4867 68.7033 46.9975 72.414 51.4726 74.8608C56.0318 77.3536 60.4894 78.5 63.3747 78.5C66.2602 78.5 70.7179 77.3546 75.2771 74.8623C75.7402 74.6091 76.2034 74.3417 76.6657 74.0613C76.8758 74.5185 77.1083 74.9631 77.3625 75.3936C76.9075 75.6679 76.4519 75.9297 75.9968 76.1785C71.2833 78.7551 66.5777 80 63.3747 80C60.1717 80 55.4663 78.7541 50.7529 76.177C46.0263 73.5927 41.2267 69.6348 37.8811 64.1448L37.8808 64.1445C32.4126 55.166 31.6333 45.5478 32.124 38.8149C32.4563 34.2406 33.6052 31.4464 35.622 29.5479C37.5936 27.6921 40.31 26.79 43.4511 25.7688C48.3258 24.1836 51.9619 21.9996 54.2199 19.7764C56.9736 17.0647 60.2044 16 63.3747 16Z" fill="#B66A1F"/>
<path d="M37.3735 39.2368C37.4433 39.2417 37.5089 39.2743 37.5571 39.3271C37.6053 39.3801 37.6316 39.4492 37.6357 39.5195C37.6647 40.0032 37.6952 40.4954 37.728 40.9766C37.8589 42.9174 38.0173 44.8273 38.206 46.7363C38.7205 51.953 40.1518 57.0842 42.6592 61.7178C43.357 63.0097 44.1591 64.2502 45.0532 65.4275C45.345 65.8117 45.6467 66.1895 45.9575 66.5601C46.0044 66.616 46.0297 66.688 46.0259 66.7615C46.022 66.8349 45.9896 66.9039 45.9358 66.9531C45.8819 67.0023 45.8105 67.0283 45.737 67.0256C45.6636 67.0229 45.594 66.9916 45.5425 66.9399C45.1945 66.5905 44.8554 66.2311 44.5261 65.8625C43.5171 64.7332 42.5997 63.5146 41.7934 62.2214C38.9155 57.6191 37.2426 52.2872 36.7134 46.8843C36.5175 44.9063 36.558 42.9109 36.8286 40.9443C36.8961 40.4568 36.9785 39.9618 37.0747 39.4805C37.0886 39.4113 37.1241 39.3465 37.1792 39.3008C37.2342 39.2551 37.3037 39.232 37.3735 39.2368Z" fill="#B66A1F"/>
<path d="M81.1299 30.5093C81.1936 30.4755 81.268 30.4676 81.3376 30.4827C81.9405 30.6144 82.5431 30.7565 83.1389 30.9114C84.7834 31.4158 86.5967 31.6532 88.0569 33.2805C88.6182 33.9863 88.8917 34.7623 89.0996 35.5107C89.4107 36.6818 89.545 37.8459 89.6262 39.0046C89.953 43.8353 89.4702 48.7644 88.0857 53.4028C87.6799 53.4557 87.2794 53.525 86.8847 53.6104C88.1377 48.8961 88.5083 43.9565 88.1443 39.1113C88.059 38.0118 87.9226 36.9178 87.6513 35.9014C87.4762 35.254 87.2444 34.621 86.9145 34.1685C86.1324 33.0993 84.3555 32.4706 82.8423 31.7612C82.2873 31.5146 81.724 31.2671 81.1623 31.0173C81.0974 30.9883 81.0424 30.938 81.011 30.873C80.9796 30.8081 80.974 30.7341 80.9961 30.6667C81.0181 30.5995 81.0661 30.5431 81.1299 30.5093Z" fill="#B66A1F"/>
<path d="M64.0789 31.2533C65.7887 31.1749 67.238 32.5046 67.3162 34.2235V34.224L67.2988 34.2379C67.3003 34.2376 67.3157 34.2273 67.3164 34.2279C67.3165 34.2303 67.3167 34.2337 67.3169 34.2379C67.3173 34.2465 67.3177 34.259 67.3184 34.275C67.3198 34.3071 67.3219 34.354 67.3245 34.4149C67.3295 34.5368 67.3367 34.7155 67.3452 34.9454C67.3624 35.4054 67.3853 36.0719 67.4082 36.9039C67.4681 39.0825 67.4995 41.2619 67.502 43.4413C67.5029 44.287 68.1978 44.9697 69.0432 44.9442C70.885 44.8886 72.7262 44.8139 74.5664 44.7196C75.3695 44.6784 76.0093 44.6417 76.4465 44.6153C76.6651 44.6022 76.8334 44.5915 76.9458 44.5843C77.0018 44.5807 77.0442 44.5781 77.072 44.5763C77.0858 44.5754 77.0962 44.5745 77.1028 44.5741C77.106 44.5739 77.1084 44.5739 77.1099 44.5738L77.1113 44.5736C78.8191 44.4578 80.2971 45.7559 80.4124 47.4728C80.5275 49.1895 79.2363 50.6752 77.5286 50.7911H77.5259C77.446 50.7963 77.4929 50.7932 77.5176 50.7916C77.5197 50.7915 77.5217 50.7914 77.5232 50.7914C77.4499 50.7962 77.4901 50.7935 77.5149 50.7919L77.5147 50.7921C77.5063 50.7927 77.4941 50.7933 77.4785 50.7943C77.447 50.7964 77.4006 50.7995 77.3406 50.8033C77.2205 50.811 77.0443 50.8221 76.8174 50.8358C76.3634 50.8631 75.705 50.9008 74.8818 50.943C72.8514 51.047 70.8198 51.1281 68.7876 51.1861C67.9943 51.2088 67.3534 51.8418 67.3176 52.6346C67.1842 55.5942 66.9645 58.5774 66.6157 61.2843C66.3958 62.9907 64.8415 64.1947 63.1441 63.9737C61.4466 63.7527 60.2485 62.1902 60.4683 60.4837C60.7729 58.1196 60.9739 55.4922 61.1023 52.8368C61.1433 51.9894 60.4659 51.2842 59.6177 51.2735C56.5227 51.2348 53.3726 51.1145 50.4971 50.8597C48.792 50.7087 47.5314 49.1966 47.6816 47.4825C47.832 45.7684 49.336 44.5012 51.041 44.6522C53.768 44.8938 56.7964 45.0085 59.8027 45.044C60.6299 45.0538 61.3038 44.3857 61.3032 43.5585C61.3018 41.3974 61.2713 39.2365 61.2119 37.0763C61.1896 36.2664 61.1673 35.6204 61.1509 35.1788C61.1427 34.9582 61.1358 34.7884 61.1311 34.6749C61.1288 34.6183 61.127 34.5755 61.1257 34.5475C61.1251 34.5336 61.1246 34.5231 61.1243 34.5165C61.1241 34.5132 61.1243 34.5106 61.1243 34.5091L61.124 34.5079L61.1213 34.4276C61.0873 32.7437 62.3956 31.3305 64.0789 31.2533Z" fill="#F5A031"/>
<path d="M77.5244 50.7914H77.5232C77.5238 50.7913 77.5243 50.7912 77.5249 50.7911L77.5244 50.7914Z" fill="#F5A031"/>
<path d="M40.1292 22.8941C40.2225 22.8699 40.323 22.8785 40.4099 22.9227C40.4967 22.9669 40.5628 23.0422 40.5938 23.1332C40.6247 23.2242 40.6183 23.3242 40.5764 23.4122C40.5346 23.5002 40.4605 23.5683 40.3718 23.6061C40.0715 23.7333 39.782 23.8559 39.4837 23.9815C36.8491 25.1043 34.1488 26.1812 32.4363 28.2147C30.704 30.2321 30.0071 33.0391 29.5628 35.8368C29.5143 36.1473 29.4695 36.4555 29.4268 36.7796C29.4122 36.8887 29.359 36.9907 29.2744 37.0626C29.1899 37.1345 29.0814 37.1708 28.9719 37.1632C28.8625 37.1556 28.7599 37.1047 28.686 37.0218C28.6122 36.9389 28.5736 36.8306 28.5742 36.7206C28.5772 36.3861 28.5844 36.0665 28.5977 35.7428C28.731 32.8472 29.2626 29.6957 31.3259 27.2657C33.4105 24.8315 36.4488 23.9135 39.1936 23.1434C39.5081 23.0572 39.8132 22.9768 40.1292 22.8941Z" fill="#F5A031"/>
<path d="M102 68C102 74.6274 96.6274 80 90 80C83.3726 80 78 74.6274 78 68C78 61.3726 83.3726 56 90 56C96.6274 56 102 61.3726 102 68Z" fill="#EC434F"/>
<path d="M90.0002 72C90.7366 72 91.3334 72.5969 91.3335 73.3333C91.3335 74.0696 90.7366 74.6667 90.0002 74.6667C89.2638 74.6667 88.667 74.0696 88.667 73.3333C88.667 72.5969 89.2639 72 90.0002 72Z" fill="white"/>
<path d="M90.0004 61C90.3785 61 90.7391 61.1404 90.9887 61.3904C91.2392 61.6404 91.3581 61.9797 91.3337 62.3333C91.3254 62.4555 91.3171 62.5777 91.3088 62.7C91.1588 64.8999 91.0088 67.0999 90.8588 69.2998C90.8505 69.422 90.842 69.5443 90.8337 69.6665C90.8194 69.8729 90.7192 70.0711 90.5632 70.217C90.4067 70.363 90.2072 70.445 90.0004 70.4451C89.7937 70.4451 89.5942 70.363 89.4377 70.217C89.2817 70.0711 89.1815 69.873 89.1672 69.6665C89.1589 69.5443 89.1504 69.422 89.142 69.2998C88.9921 67.0999 88.8421 64.8999 88.6921 62.7C88.6838 62.5777 88.6755 62.4555 88.6672 62.3333C88.6427 61.9796 88.7617 61.6404 89.0122 61.3904C89.2618 61.1404 89.6224 61 90.0004 61Z" fill="white"/>
</svg>
