<svg width="24" height="24" viewBox="0 0 24 24" fill="none" xmlns="http://www.w3.org/2000/svg">
<path d="M18.5479 4.125C19.833 4.12524 20.8748 5.16701 20.875 6.45215V11.891C20.875 11.9746 20.7781 12.0218 20.7109 11.9721C19.673 11.2046 18.3899 10.75 17 10.75C13.5482 10.75 10.75 13.5482 10.75 17C10.75 17.9782 10.9755 18.9036 11.3763 19.728C11.4091 19.7954 11.3606 19.875 11.2856 19.875H5.45215C4.16701 19.8748 3.12524 18.833 3.125 17.5479V6.45215C3.12524 5.167 4.16701 4.12524 5.45215 4.125H18.5479Z" fill="#FAB341"/>
<path d="M19 4L21.0625 6L16.2676 10.7939C14.6365 10.9844 13.1975 11.8018 12.1982 13H10.125L3 6L5 4H19Z" fill="#FFD885"/>
<path fill-rule="evenodd" clip-rule="evenodd" d="M17 3C19.7614 3 22 5.23858 22 8V11.4754C22 12.0441 21.2048 12.3406 20.75 11.999V8C20.75 7.72754 20.7202 7.46201 20.665 7.20605L17.0439 10.751C17.0293 10.7509 17.0147 10.75 17 10.75C16.2558 10.75 15.5418 10.8795 14.8799 11.1182L20.1475 5.96289C19.4791 4.9324 18.3197 4.25 17 4.25H7C5.6801 4.25 4.51984 4.93215 3.85156 5.96289L9.37695 11.3711C10.3197 12.2936 11.6273 12.6175 12.8281 12.3467C12.3944 12.7358 12.0164 13.1851 11.7051 13.6807C11.0408 13.6417 10.3828 13.4711 9.77344 13.168L4.81641 19.0479C5.43149 19.4893 6.18512 19.75 7 19.75H11.3867C11.648 20.2824 11.2974 21 10.7044 21H7C4.23858 21 2 18.7614 2 16V8C2 5.23858 4.23858 3 7 3H17ZM3.33398 7.20605C3.27883 7.46195 3.25 7.72761 3.25 8V16C3.25 16.8028 3.503 17.5462 3.93262 18.1562L8.72754 12.4697C8.65126 12.4036 8.57506 12.3362 8.50195 12.2646L3.33398 7.20605Z" fill="url(#paint0_linear_13346_13406)"/>
<circle cx="17" cy="17" r="5" fill="black"/>
<path d="M17 13.5C18.0355 13.5 18.875 14.3395 18.875 15.375V16.3975H18.9805C19.4621 16.3975 19.8525 16.7879 19.8525 17.2695V18.9805C19.8525 19.4621 19.4621 19.8525 18.9805 19.8525H15.0195C14.5379 19.8525 14.1475 19.4621 14.1475 18.9805V17.2695C14.1475 16.7879 14.5379 16.3975 15.0195 16.3975H15.125V15.375C15.125 14.3395 15.9645 13.5 17 13.5ZM17 14.5C16.5168 14.5 16.125 14.8918 16.125 15.375V16.3975H17.875V15.375C17.875 14.8918 17.4832 14.5 17 14.5Z" fill="white"/>
<defs>
<linearGradient id="paint0_linear_13346_13406" x1="11.9673" y1="4.5604" x2="11.9673" y2="20.1641" gradientUnits="userSpaceOnUse">
<stop offset="0.00833332" stop-color="#B66A1F"/>
<stop offset="1" stop-color="#B66A1F"/>
</linearGradient>
</defs>
</svg>
