<svg fill="none" viewBox="0 0 24 24" xmlns="http://www.w3.org/2000/svg">
  <path fill="#FAB341" d="M18.548 4.125c1.285 0 2.327 1.042 2.327 2.327v4.91C19.697 10.356 18.169 9.75 16.5 9.75c-3.728 0-6.75 3.022-6.75 6.75 0 1.23.33 2.382.905 3.375H5.452c-1.285 0-2.327-1.042-2.327-2.327V6.452c0-1.285 1.042-2.327 2.327-2.327z"/>
  <path fill="#FFD885" d="m19 4 2.063 2-3.796 3.795q-.378-.044-.767-.045c-2.446 0-4.589 1.302-5.773 3.25h-.602L3 6l2-2z"/>
  <path fill="url(#a)" d="M17 3c2.761 0 5 2.239 5 5v4.588c-.355-.498-.776-.947-1.25-1.332V8q-.001-.41-.085-.795l-2.752 2.693q-.685-.147-1.413-.148-.114 0-.229.005l3.877-3.793C19.48 4.932 18.32 4.25 17 4.25H7c-1.32 0-2.48.682-3.148 1.712l5.525 5.408c.517.506 1.143.831 1.802.979q-.403.514-.702 1.102-.36-.114-.704-.283l-4.958 5.88c.616.442 1.37.702 2.185.702h3.583c.248.45.547.87.888 1.25H7c-2.761 0-5-2.239-5-5V8c0-2.761 2.239-5 5-5zM3.335 7.205Q3.251 7.59 3.25 8v8c0 .803.253 1.547.683 2.157l4.795-5.687q-.115-.1-.225-.206z"/>
  <path fill="#000" d="M22 16.5c0 3.038-2.462 5.5-5.5 5.5S11 19.538 11 16.5s2.462-5.5 5.5-5.5 5.5 2.462 5.5 5.5"/>
  <path fill="#fff" d="M13 20.913c0-.068.08-.105.133-.064.062.048.027.151-.051.151-.045 0-.082-.036-.082-.081zm6.867-.064c.054-.041.133-.004.133.064v.006c0 .045-.037.081-.082.081-.078 0-.113-.103-.051-.15M16.5 12.125c1.38 0 2.5 1.12 2.5 2.5V16h.375c.345 0 .625.28.625.625v2.091c0 .127-.038.252-.114.353-.776 1.021-2.004 1.681-3.386 1.681s-2.61-.66-3.386-1.681c-.077-.101-.114-.226-.114-.353v-2.091c0-.345.28-.625.625-.625H14v-1.375c0-1.38 1.12-2.5 2.5-2.5m0 5.125c-.276 0-.5.224-.5.5v1c0 .276.224.5.5.5s.5-.224.5-.5v-1c0-.276-.224-.5-.5-.5m0-4.125c-.828 0-1.5.672-1.5 1.5V16h3v-1.375c0-.828-.672-1.5-1.5-1.5"/>
  <defs>
    <linearGradient id="a" x1="11.967" x2="11.967" y1="4.56" y2="20.164" gradientUnits="userSpaceOnUse">
      <stop offset=".008" stop-color="#B66A1F"/>
      <stop offset="1" stop-color="#B66A1F"/>
    </linearGradient>
  </defs>
</svg>
