<svg width="24" height="24" viewBox="0 0 24 24" fill="none" xmlns="http://www.w3.org/2000/svg">
<path d="M11.979 21.375C13.8428 21.375 17.589 19.9409 19.5871 16.7264C21.2295 14.0857 21.4646 11.253 21.3166 9.26086C21.1175 6.57372 19.9542 6.16502 18.007 5.54463C16.4891 5.06129 15.3432 4.39073 14.6204 3.69325C13.8241 2.92479 12.8947 2.625 11.979 2.625C11.0632 2.625 10.1338 2.92479 9.33756 3.69325C8.61469 4.39073 7.46755 5.06129 5.9509 5.54463C4.00375 6.16502 2.84044 6.57494 2.64137 9.26086C2.49331 11.2517 2.72971 14.0857 4.37078 16.7264C6.36894 19.9397 10.1152 21.375 11.979 21.375Z" fill="#38B26A"/>
<path d="M11.979 2C13.04 2.00001 14.1302 2.3516 15.0542 3.24316C15.611 3.78036 16.4872 4.32991 17.6704 4.76855L18.1968 4.94922L18.895 5.17773C19.5833 5.41569 20.2306 5.69767 20.7407 6.16797C21.4611 6.83234 21.8341 7.78675 21.9399 9.21484C22.0941 11.2894 21.8522 14.2677 20.1177 17.0566C19.0489 18.7759 17.5213 20.0065 16.0278 20.8066C14.5446 21.6012 13.0404 22 11.979 22C11.9542 22 11.9291 21.9985 11.9038 21.998C12.1983 19.8963 12.5945 16.4947 12.7505 13.0625C12.9259 9.20354 12.3123 4.54975 11.8638 2.00195C11.9022 2.00102 11.9406 2 11.979 2Z" fill="#5EC987"/>
<path d="M11.9794 2C13.0405 2.00001 14.1306 2.35153 15.0546 3.24316C15.6114 3.78039 16.4875 4.3299 17.6708 4.76855L18.1972 4.94922L18.8954 5.17773C19.5838 5.41571 20.231 5.69761 20.7411 6.16797C21.4616 6.83234 21.8346 7.78674 21.9404 9.21484C22.0945 11.2894 21.8527 14.2677 20.1181 17.0566C19.0493 18.7759 17.5218 20.0065 16.0283 20.8066C14.545 21.6013 13.0409 22 11.9794 22C10.9179 22 9.41381 21.6014 7.9306 20.8066C6.43705 20.0064 4.90962 18.7754 3.84075 17.0566C2.10763 14.2679 1.86433 11.2884 2.01849 9.21484C2.12429 7.78728 2.49741 6.83342 3.21771 6.16895C3.89785 5.54162 4.82119 5.24886 5.76165 4.94922C7.21314 4.48664 8.26799 3.85706 8.90423 3.24316C9.82829 2.35155 10.9184 2 11.9794 2ZM11.9794 3.25C11.2093 3.25 10.4407 3.4978 9.7724 4.14258C8.963 4.92354 7.72307 5.63556 6.14154 6.13965C5.13493 6.46037 4.50244 6.68379 4.06439 7.08789C3.66671 7.45494 3.35883 8.04901 3.26556 9.30664L3.26458 9.30762C3.12274 11.2158 3.35346 13.9043 4.90228 16.3965C5.83151 17.8907 7.17562 18.9845 8.52044 19.7051C9.87579 20.4313 11.1772 20.75 11.9794 20.75C12.7817 20.75 14.0831 20.4311 15.4384 19.7051C16.7831 18.9846 18.1274 17.8912 19.0566 16.3965C20.6064 13.9045 20.8352 11.2173 20.6933 9.30762V9.30664C20.6 8.04801 20.2922 7.45374 19.8945 7.08691C19.4565 6.68301 18.8249 6.46037 17.8183 6.13965V6.14062C16.235 5.63646 14.9959 4.92355 14.1865 4.14258C13.5181 3.49778 12.7496 3.25001 11.9794 3.25Z" fill="#006B4B"/>
<path d="M12.2628 5.74734C12.4787 5.7336 12.6905 5.80199 12.8458 5.93874C13.0014 6.0756 13.0879 6.26953 13.0919 6.47683C13.0957 6.66377 13.0992 6.85145 13.1017 7.03835C13.1387 10.4035 13.0204 13.7474 12.7179 17.0891C12.7003 17.2723 12.6812 17.4629 12.6612 17.6448C12.6531 17.7187 12.6149 17.7873 12.5568 17.8362C12.4986 17.885 12.4258 17.9102 12.3517 17.9055C12.2775 17.9008 12.2078 17.8667 12.1564 17.8108C12.105 17.7548 12.0758 17.6811 12.0773 17.6067C12.0807 17.4269 12.0829 17.2385 12.0841 17.0569C12.0925 13.7379 11.9165 10.4138 11.59 7.12429C11.5714 6.94171 11.5531 6.75866 11.5333 6.57644C11.5109 6.37036 11.5722 6.16748 11.7091 6.01199C11.8458 5.85652 12.0469 5.76113 12.2628 5.74734Z" fill="#006B4B"/>
</svg>
