<svg width="12" height="12" viewBox="0 0 12 12" fill="none" xmlns="http://www.w3.org/2000/svg">
<g clip-path="url(#clip0_11725_72653)">
<path d="M6 6.50001C6.41421 6.50001 6.74999 6.8358 6.75 7.25001C6.75 7.66423 6.41421 8.00001 6 8.00001C5.58579 8.00001 5.25 7.66423 5.25 7.25001C5.25001 6.8358 5.58579 6.50001 6 6.50001Z" fill="black"/>
<path d="M6.01367 2.99806C6.4057 2.99808 6.71061 3.33912 6.66602 3.72853L6.4502 5.59865C6.4237 5.82739 6.22932 6.00001 5.99902 6.00001C5.76892 5.99978 5.57531 5.82723 5.54883 5.59865L5.33398 3.72853C5.28936 3.33907 5.59428 2.99806 5.98633 2.99806H6.01367Z" fill="black"/>
<path fill-rule="evenodd" clip-rule="evenodd" d="M8.97754 0.890637C10.6482 0.895482 12 2.2512 12 3.92189V6.84669C11.9998 8.52967 10.6287 9.89011 8.94629 9.87892C8.27036 9.87442 7.59031 9.87057 7.08887 9.86818C6.83994 9.86699 6.58079 9.97681 6.3584 10.1787C5.5042 10.9542 4.5393 11.4615 3.75488 11.7832C3.26347 11.9847 2.79706 11.7931 2.54297 11.4424C2.30202 11.1097 2.24687 10.6378 2.45898 10.2207C2.5236 10.0937 2.57886 9.97037 2.62305 9.8545C1.1344 9.72696 0.00017042 8.47491 0 6.96388V3.90431C0.000197827 2.227 1.36269 0.868294 3.04004 0.873059L8.97754 0.890637ZM3.03711 1.87306C1.91315 1.86987 1.0002 2.78039 1 3.90431V6.96388C1.00018 8.02189 1.8313 8.86622 2.87402 8.86622C3.09608 8.86623 3.31185 8.95473 3.46777 9.10548C3.62972 9.26235 3.75111 9.51721 3.68262 9.81154C3.61391 10.1065 3.4877 10.4054 3.35059 10.6748C3.31078 10.7534 3.32909 10.8241 3.35254 10.8565C3.35444 10.8591 3.35596 10.8617 3.35742 10.8633C3.36128 10.8624 3.36786 10.8617 3.37598 10.8584C4.09155 10.5649 4.94489 10.1118 5.68652 9.43849C6.05429 9.10461 6.5456 8.86556 7.09375 8.86818C7.59619 8.87058 8.27708 8.87442 8.95312 8.87892C10.0812 8.88639 10.9998 7.97422 11 6.84669V3.92189C11 2.80234 10.0941 1.89387 8.97461 1.89064L3.03711 1.87306Z" fill="black"/>
</g>
<defs>
<clipPath id="clip0_11725_72653">
<rect width="12" height="12" fill="white"/>
</clipPath>
</defs>
</svg>
