<svg width="16" height="16" viewBox="0 0 16 16" fill="none" xmlns="http://www.w3.org/2000/svg">
<path d="M11.3657 0.885629C11.6609 -0.294883 13.3386 -0.294885 13.6338 0.885629L13.77 1.42958C13.8685 1.82356 14.1763 2.13132 14.5703 2.22988L15.1143 2.36611C16.2949 2.66127 16.2949 4.33902 15.1143 4.63419L14.5703 4.77042C14.4059 4.81155 14.2568 4.88951 14.1313 4.99454C14.6856 6.04075 15 7.23356 15 8.49994C15 12.6421 11.6421 16 7.5 16C3.35786 16 0 12.6421 0 8.49994C0.000129564 4.35788 3.35794 0.999888 7.5 0.999887C8.76634 0.999887 9.95917 1.31439 11.0054 1.86855C11.1104 1.74311 11.1884 1.59398 11.2295 1.42958L11.3657 0.885629Z" fill="#F05F2B"/>
<path fill-rule="evenodd" clip-rule="evenodd" d="M8.55469 14.0958C8.55469 14.0372 8.56907 14.0238 8.38282 13.6526C7.88782 12.6613 7.39032 11.2638 7.61657 10.3626C7.65782 10.1988 7.15032 4.29881 6.79157 4.10881C6.39282 3.89631 5.9022 3.55922 5.45345 3.48422C5.22577 3.44779 4.92724 3.46505 4.69387 3.49648C4.65239 3.50206 4.65068 3.57661 4.69032 3.59004C4.84353 3.64195 5.02957 3.73208 5.13921 3.86835C5.15996 3.89414 5.13211 3.93471 5.09903 3.93593C4.99568 3.93976 4.80818 3.98309 4.56081 4.19319C4.5322 4.21749 4.55597 4.26262 4.59279 4.25533C5.12442 4.15016 5.66735 4.20198 5.98731 4.4928C6.00807 4.51167 5.99722 4.54553 5.97015 4.55289C3.19348 5.30746 3.74315 7.72284 4.48233 10.6869C5.14074 13.3272 5.38851 14.1781 5.46663 14.4374C5.4742 14.4625 5.49184 14.4824 5.51621 14.4921C6.47203 14.8727 8.55469 14.8896 8.55469 14.2423V14.0958Z" fill="#DDDDDD"/>
<path d="M8.93519 14.6524C8.59828 14.7842 7.9391 14.8428 7.55824 14.8428C6.99988 14.8428 6.19594 14.7549 5.90297 14.6231C5.72204 14.0663 5.18054 12.3402 4.64583 10.1483C4.62833 10.0766 4.61085 10.0052 4.59346 9.93414L4.59303 9.93236C3.95736 7.33595 3.43817 5.21528 6.2837 4.54906C6.30971 4.54297 6.32243 4.51187 6.30521 4.49144C5.97873 4.10412 5.36711 3.97717 4.59374 4.24397C4.56202 4.25491 4.53448 4.22293 4.55419 4.19577C4.70584 3.98674 5.0022 3.82602 5.1485 3.75556C5.17875 3.741 5.17691 3.69672 5.14487 3.6867C5.04917 3.65674 4.88623 3.61089 4.70294 3.58131C4.65958 3.57431 4.65567 3.5 4.6992 3.49414C5.79558 3.34663 6.94047 3.67579 7.51499 4.3995C7.5204 4.40631 7.52822 4.41108 7.53673 4.4129C9.64057 4.86471 9.79121 8.19044 9.54885 8.34191C9.50107 8.37177 9.34794 8.35464 9.14595 8.33204C8.32735 8.24045 6.70635 8.05908 8.04421 10.5524C8.05742 10.5771 8.03993 10.6096 8.01232 10.6139C7.25786 10.7313 8.22465 13.0952 8.93519 14.6524Z" fill="white"/>
<path d="M7.5 2C8.02598 2 8.53727 2.06275 9.02698 2.18087C9.28079 2.2421 9.3108 2.65365 9.1753 2.87682C9.1621 2.89857 9.14966 2.92071 9.13798 2.94321C9.06417 3.08538 8.90726 3.18061 8.75126 3.14417C8.34929 3.05029 7.93054 3 7.5 3C4.46243 3 2 5.46243 2 8.5C2 11.5376 4.46243 14 7.5 14C10.5376 14 13 11.5376 13 8.5C13 8.06945 12.9497 7.65069 12.8558 7.24871C12.8194 7.09273 12.9146 6.93583 13.0567 6.86185C13.0791 6.85019 13.1011 6.83777 13.1228 6.8246C13.3458 6.68882 13.7572 6.71842 13.8185 6.97224C13.9369 7.46217 14 7.97369 14 8.5C14 12.0899 11.0899 15 7.5 15C3.91015 15 1 12.0898 1 8.5C1 4.91015 3.91015 2 7.5 2Z" fill="white"/>
<path d="M9.87627 11.6286C9.7161 11.5544 9.10028 11.996 8.69156 12.335C8.60613 12.2142 8.44507 12.1263 8.08175 12.1895C7.76376 12.2448 7.58822 12.3215 7.50989 12.4537C7.008 12.2634 6.16364 11.9697 5.95965 12.2533C5.73667 12.5633 6.01538 14.0299 6.31152 14.2204C6.46615 14.3198 7.20574 13.8444 7.59195 13.5166C7.65426 13.6044 7.75458 13.6546 7.96082 13.6498C8.27272 13.6426 8.77861 13.57 8.85713 13.4248C8.8619 13.4159 8.866 13.4055 8.8695 13.3936C9.26647 13.542 9.96513 13.699 10.1212 13.6756C10.528 13.6145 10.0646 11.7159 9.87627 11.6286Z" fill="#3CA82B"/>
<path d="M8.7291 12.3785C8.74595 12.4085 8.75949 12.4402 8.771 12.4724C8.82759 12.6307 8.91979 13.1342 8.85007 13.2585C8.78035 13.3829 8.32748 13.443 8.04812 13.4478C7.76875 13.4526 7.70586 13.3504 7.64927 13.1922C7.604 13.0656 7.58171 12.7679 7.58225 12.5974C7.5708 12.3446 7.66318 12.2557 8.09014 12.1866C8.40611 12.1355 8.57316 12.1949 8.6696 12.2967C9.11817 11.9619 9.86663 11.4894 9.93963 11.5758C10.3036 12.0064 10.3496 13.0313 10.2708 13.4437C10.245 13.5785 9.03977 13.3101 9.03977 13.1647C9.03977 12.561 8.88312 12.3954 8.7291 12.3785Z" fill="#38B26A"/>
<path d="M6.0889 12.19C6.18762 12.0337 6.98813 12.228 7.42756 12.4236C7.42756 12.4236 7.33726 12.8327 7.48103 13.3147C7.52308 13.4556 6.47005 14.0831 6.33261 13.9752C6.17376 13.8504 5.88141 12.5183 6.0889 12.19Z" fill="#38B26A"/>
<path fill-rule="evenodd" clip-rule="evenodd" d="M6.4767 9.01643C6.54147 8.73479 6.84318 8.20408 7.92058 8.21696C8.46527 8.2147 9.14186 8.21673 9.59043 8.16578C10.2571 8.09004 10.752 7.92878 11.0818 7.80308C11.5482 7.62515 11.7137 7.66483 11.7717 7.7713C11.8355 7.88827 11.7603 8.09027 11.5974 8.27622C11.2861 8.6314 10.7265 8.90662 9.7382 8.9883C8.74989 9.06999 8.09515 8.80488 7.8133 9.2365C7.69175 9.42266 7.78573 9.8614 8.74148 9.99955C10.033 10.186 11.0937 9.77496 11.2248 10.0232C11.3558 10.2714 10.6009 10.7764 9.30725 10.787C8.01365 10.7975 7.20565 10.3341 6.91911 10.1037C6.55557 9.81137 6.39288 9.38507 6.4767 9.01643Z" fill="#FFC95C"/>
<g opacity="0.8">
<path d="M8.12415 5.93664C8.1963 5.81849 8.35631 5.72729 8.61816 5.72729C8.88001 5.72729 9.00319 5.83149 9.08847 5.94768C9.10582 5.97132 9.07954 5.99914 9.05263 5.9875C9.04616 5.9847 9.0396 5.98184 9.03294 5.97893C8.93718 5.93711 8.81959 5.88575 8.61816 5.88289C8.40271 5.87982 8.26686 5.93378 8.18131 5.98029C8.15248 5.99596 8.10705 5.96464 8.12415 5.93664Z" fill="#034180"/>
<path d="M5.17616 6.0878C5.43042 5.98154 5.63025 5.99528 5.77152 6.0287C5.80126 6.03573 5.82193 6.00373 5.79814 5.98454C5.68849 5.8961 5.44309 5.7863 5.12303 5.90565C4.83752 6.01211 4.70294 6.23331 4.70215 6.37874C4.70196 6.41301 4.77247 6.41592 4.79071 6.3869C4.83999 6.30851 4.9219 6.19406 5.17616 6.0878Z" fill="#034180"/>
<path fill-rule="evenodd" clip-rule="evenodd" d="M8.84057 7.55298C8.61579 7.55298 8.43346 7.37115 8.43346 7.14736C8.43346 6.92358 8.61579 6.74175 8.84057 6.74175C9.06536 6.74175 9.24769 6.92358 9.24769 7.14736C9.24769 7.37115 9.06536 7.55298 8.84057 7.55298ZM9.1273 7.01299C9.1273 6.95505 9.07985 6.90809 9.0219 6.90809C8.96396 6.90809 8.917 6.95505 8.9165 7.01299C8.9165 7.07094 8.96396 7.11789 9.0219 7.11789C9.08035 7.11789 9.1273 7.07094 9.1273 7.01299Z" fill="#034180"/>
<path fill-rule="evenodd" clip-rule="evenodd" d="M6.14325 7.42808C6.14325 7.68933 5.93096 7.90113 5.66871 7.90113C5.40696 7.90113 5.19417 7.68933 5.19417 7.42808C5.19417 7.16683 5.40696 6.95503 5.66871 6.95503C5.93046 6.95503 6.14325 7.16683 6.14325 7.42808ZM6.00339 7.27123C6.00339 7.20379 5.94844 7.14884 5.8805 7.14884C5.81307 7.14884 5.75812 7.20329 5.75762 7.27123C5.75762 7.33866 5.81257 7.39361 5.8805 7.39361C5.94844 7.39361 6.00339 7.33866 6.00339 7.27123Z" fill="#034180"/>
</g>
<path d="M12.264 5.88996C12.3254 6.13548 12.6743 6.13548 12.7357 5.88996L12.8717 5.34588C13.0532 4.62005 13.6199 4.05333 14.3457 3.87187L14.8898 3.73585C15.1353 3.67447 15.1353 3.32555 14.8898 3.26417L14.3457 3.12815C13.6199 2.9467 13.0532 2.37997 12.8717 1.65415L12.7357 1.11007C12.6743 0.864548 12.3254 0.864548 12.264 1.11007L12.128 1.65415C11.9465 2.37997 11.3798 2.9467 10.654 3.12815L10.1099 3.26417C9.8644 3.32555 9.8644 3.67447 10.1099 3.73585L10.654 3.87187C11.3798 4.05333 11.9465 4.62005 12.128 5.34588L12.264 5.88996Z" fill="white"/>
</svg>
