<svg width="16" height="16" viewBox="0 0 16 16" fill="none" xmlns="http://www.w3.org/2000/svg">
<path d="M11 0C13.2091 0 15 1.79086 15 4V6.79845C15 7.29307 14.4175 7.59415 13.9627 7.39985C13.3601 7.14245 12.6967 7 12 7C9.23858 7 7 9.23858 7 12C7 13.151 7.38891 14.2111 8.04249 15.0562C8.30693 15.3982 8.08367 16 7.65141 16H5C2.79086 16 1 14.2091 1 12V4C1 1.79086 2.79086 0 5 0H11Z" fill="#F5F5F5"/>
<path d="M7.41748 10C7.14974 10.6126 7 11.2887 7 12C7 12.7113 7.14974 13.3874 7.41748 14H5C3.89543 14 3 13.1046 3 12V10.5C3 10.2239 3.22386 10 3.5 10H7.41748Z" fill="#EEEEEE"/>
<path d="M11.2061 0.00585938C13.3194 0.113116 15 1.85998 15 4V6.83984C14.9998 7.31738 14.4376 7.60824 14 7.41699V4C14 2.39489 12.7394 1.08421 11.1543 1.00391L11 1H5C3.34315 1 2 2.34315 2 4V12C2 13.6569 3.34315 15 5 15H7.79688C7.92449 15 8.04429 15.0613 8.125 15.1602C8.37109 15.4623 8.17297 16 7.7832 16H5L4.79395 15.9951C2.68057 15.8879 1 14.14 1 12V4C1 1.85998 2.68058 0.113116 4.79395 0.00585938L5 0H11L11.2061 0.00585938Z" fill="#888888"/>
<path d="M3 6.5C3 6.22386 3.22386 6 3.5 6H12.5C12.7761 6 13 6.22386 13 6.5C13 6.77614 12.7761 7 12.5 7H3.5C3.22386 7 3 6.77614 3 6.5Z" fill="#AAAAAA"/>
<path d="M3 8.5C3 8.22386 3.22386 8 3.5 8H6.5C6.77614 8 7 8.22386 7 8.5C7 8.77614 6.77614 9 6.5 9H3.5C3.22386 9 3 8.77614 3 8.5Z" fill="#AAAAAA"/>
<path d="M3 4C3 2.89543 3.89543 2 5 2H11C12.1046 2 13 2.89543 13 4V4.5C13 4.77614 12.7761 5 12.5 5H3.5C3.22386 5 3 4.77614 3 4.5V4Z" fill="#F05F2B"/>
<path d="M15.5 12C15.5 13.933 13.933 15.5 12 15.5C10.067 15.5 8.5 13.933 8.5 12C8.5 10.067 10.067 8.5 12 8.5C13.933 8.5 15.5 10.067 15.5 12Z" fill="#F05F2B"/>
<path d="M15 12C15 10.3431 13.6569 9 12 9C10.3431 9 9 10.3431 9 12C9 13.6569 10.3431 15 12 15C13.6569 15 15 13.6569 15 12ZM16 12C16 14.2091 14.2091 16 12 16C9.79086 16 8 14.2091 8 12C8 9.79086 9.79086 8 12 8C14.2091 8 16 9.79086 16 12Z" fill="#9E2B08"/>
<path d="M13.5 11.5L13.5513 11.5024C13.8033 11.5281 14 11.7412 14 12C14 12.2588 13.8033 12.4719 13.5513 12.4976L13.5 12.5H10.5C10.2239 12.5 10 12.2761 10 12C10 11.7239 10.2239 11.5 10.5 11.5H13.5Z" fill="white"/>
</svg>
