<svg width="128" height="96" viewBox="0 0 128 96" fill="none" xmlns="http://www.w3.org/2000/svg">
<path opacity="0.2" d="M16.912 31.0485C16.3283 30.4648 16.3283 29.5185 16.912 28.9348C17.4956 28.3512 18.4419 28.3512 19.0256 28.9348L20.9579 30.8671L22.8902 28.9348C23.4739 28.3512 24.4202 28.3512 25.0038 28.9348C25.5875 29.5185 25.5875 30.4648 25.0038 31.0485L23.0716 32.9808L25.0039 34.9131C25.5876 35.4968 25.5876 36.4431 25.0039 37.0268C24.4203 37.6105 23.474 37.6105 22.8903 37.0268L20.9579 35.0944L19.0255 37.0268C18.4419 37.6105 17.4955 37.6105 16.9119 37.0268C16.3282 36.4431 16.3282 35.4968 16.9119 34.9131L18.8443 32.9808L16.912 31.0485Z" fill="#888888"/>
<path opacity="0.2" d="M0.581701 52.9088C-0.00196867 52.3252 -0.00196968 51.3788 0.581699 50.7952C1.16537 50.2115 2.11168 50.2115 2.69535 50.7952L3.98682 52.0866L5.27829 50.7952C5.86196 50.2115 6.80827 50.2115 7.39194 50.7952C7.97561 51.3788 7.97561 52.3252 7.39194 52.9088L6.10047 54.2003L7.39233 55.4921C7.976 56.0758 7.976 57.0221 7.39233 57.6058C6.80866 58.1895 5.86235 58.1895 5.27868 57.6058L3.98682 56.3139L2.69496 57.6058C2.11129 58.1895 1.16497 58.1895 0.581305 57.6058C-0.00236316 57.0221 -0.00236201 56.0758 0.581308 55.4921L1.87316 54.2003L0.581701 52.9088Z" fill="#888888"/>
<path opacity="0.2" d="M105.554 37.4581C104.971 36.8745 104.971 35.9282 105.554 35.3445C106.138 34.7608 107.084 34.7608 107.668 35.3445L108.959 36.636L110.251 35.3445C110.835 34.7608 111.781 34.7608 112.365 35.3445C112.948 35.9282 112.948 36.8745 112.365 37.4581L111.073 38.7496L112.365 40.0415C112.949 40.6251 112.949 41.5714 112.365 42.1551C111.781 42.7388 110.835 42.7388 110.251 42.1551L108.959 40.8633L107.668 42.1551C107.084 42.7388 106.138 42.7388 105.554 42.1551C104.97 41.5714 104.97 40.6251 105.554 40.0415L106.846 38.7496L105.554 37.4581Z" fill="#888888"/>
<path opacity="0.2" d="M124.5 54C123.675 54 123 53.325 123 52.5C123 51.675 123.675 51 124.5 51C125.325 51 126 51.675 126 52.5C126 53.325 125.325 54 124.5 54Z" fill="#888888"/>
<path opacity="0.2" d="M24 67C22.9 67 22 66.1 22 65C22 63.9 22.9 63 24 63C25.1 63 26 63.9 26 65C26 66.1 25.1 67 24 67Z" fill="#888888"/>
<circle cx="87" cy="71" r="16" fill="#FFCC33"/>
<circle cx="87" cy="77.7998" r="2" fill="#92540C"/>
<path d="M86.9612 73.4002C86.2548 73.4002 85.627 72.9102 85.5485 72.2802L84.6067 63.5302C84.5282 62.8302 85.1561 62.2002 86.0194 62.2002H87.9814C88.7663 62.2002 89.4726 62.8302 89.3941 63.5302L88.4524 72.2802C88.2954 72.9102 87.6675 73.4002 86.9612 73.4002Z" fill="#92540C"/>
<path d="M108.501 59C108.799 59 109.096 59.12 109.324 59.3539C109.778 59.8219 109.778 60.5837 109.324 61.0517L106.991 63.4512C106.536 63.9192 105.796 63.9192 105.341 63.4512C104.886 62.9833 104.886 62.2215 105.341 61.7535L107.673 59.3539C107.901 59.12 108.198 59 108.496 59H108.501Z" fill="#CCCCCC"/>
<path d="M107.335 69.7982H110.834C111.475 69.7982 112 70.3381 112 70.998C112 71.6579 111.475 72.1978 110.834 72.1978H107.335C106.694 72.1978 106.169 71.6579 106.169 70.998C106.169 70.3381 106.694 69.7982 107.335 69.7982Z" fill="#CCCCCC"/>
<path d="M105.353 78.5518C105.58 78.3178 105.878 78.1978 106.175 78.1978H106.181C106.478 78.1978 106.776 78.3178 107.003 78.5518L109.336 80.9513C109.79 81.4193 109.79 82.1811 109.336 82.6491C108.881 83.117 108.14 83.117 107.685 82.6491L105.353 80.2495C104.898 79.7815 104.898 79.0197 105.353 78.5518Z" fill="#CCCCCC"/>
<path d="M87 49.6667C75.9543 49.6667 67 53.3333 67 71V74C67 76.2091 65.2091 78 63 78H48C40.268 78 34 71.732 34 64V32C34 24.268 40.268 18 48 18H70L94 42V45.6667C94 47.8758 92.2091 49.6667 90 49.6667H87Z" fill="#CCDAFF"/>
<path d="M91.5158 50.9265C80.8465 48.0676 69.8798 54.3993 67.0209 65.0686L66.2445 67.9664C65.6727 70.1002 63.4794 71.3666 61.3455 70.7948L46.8566 66.9125C39.3881 64.9113 34.9559 57.2346 36.9571 49.7661L45.2393 18.8565C47.2405 11.3879 54.9172 6.95578 62.3858 8.95696L83.6361 14.651L100.607 44.0449L99.3126 48.8745C98.7408 51.0084 96.5475 52.2747 94.4136 51.7029L91.5158 50.9265Z" fill="#8FABF9"/>
<rect x="50.1597" y="33.9785" width="20" height="5.33333" rx="2.66667" transform="rotate(15 50.1597 33.9785)" fill="#CCDAFF"/>
<rect x="47.0532" y="45.5698" width="13.3333" height="5.33333" rx="2.66667" transform="rotate(15 47.0532 45.5698)" fill="#CCDAFF"/>
<path opacity="0.04" d="M78.4847 26.5737L83.6357 14.6509L100.606 44.0447L91.3312 44.6975C81.6091 45.3817 74.6193 35.5205 78.4847 26.5737Z" fill="black"/>
<path d="M81.0471 24.3096L83.6353 14.6504L100.606 44.0443L90.9466 41.4561C83.478 39.4549 79.0459 31.7782 81.0471 24.3096Z" fill="#ADC2FC"/>
</svg>
