<svg width="12" height="12" viewBox="0 0 12 12" fill="none" xmlns="http://www.w3.org/2000/svg">
<g clip-path="url(#clip0_11722_72508)">
<path d="M4.50121 0.999948C5.05812 -0.329572 6.94234 -0.329572 7.49925 0.999948L8.26 2.81831C8.31942 2.96025 8.4495 3.06107 8.60179 3.08296L10.5969 3.36714C11.9498 3.56014 12.4746 5.2354 11.4739 6.16596L9.94554 7.58686C9.83994 7.68513 9.78945 7.82993 9.81078 7.9726L10.133 10.1279C10.3403 11.5146 8.8121 12.4957 7.63793 11.7294L6.23949 10.8164C6.09419 10.7215 5.90627 10.7215 5.76097 10.8164L4.36253 11.7294C3.18837 12.4957 1.66014 11.5146 1.86742 10.1279L2.18968 7.9726C2.21101 7.82993 2.16052 7.68513 2.05492 7.58686L0.526597 6.16596C-0.474171 5.2354 0.0506707 3.56014 1.40355 3.36714L3.39867 3.08296C3.55096 3.06107 3.68104 2.96025 3.74046 2.81831L4.50121 0.999948ZM6.5764 1.38667C6.36225 0.875165 5.63821 0.875165 5.42406 1.38667L4.66234 3.20503C4.46688 3.6718 4.04027 4.00172 3.53929 4.07319L1.54418 4.35737C1.02422 4.43186 0.822722 5.07569 1.20726 5.43354L2.73558 6.85444C3.08286 7.17733 3.24807 7.65108 3.17796 8.12006L2.8557 10.2763C2.77622 10.8095 3.36414 11.1862 3.81566 10.8915L5.21507 9.97846C5.69223 9.66737 6.30823 9.66737 6.78539 9.97846L8.1848 10.8915C8.63632 11.1862 9.22424 10.8095 9.14476 10.2763L8.8225 8.12006C8.75239 7.65107 8.9176 7.17733 9.26488 6.85444L10.7932 5.43354C11.1777 5.07569 10.9762 4.43186 10.4563 4.35737L8.46117 4.07319C7.96019 4.00172 7.53358 3.6718 7.33812 3.20503L6.5764 1.38667Z" fill="black"/>
</g>
<defs>
<clipPath id="clip0_11722_72508">
<rect width="12" height="12" fill="white"/>
</clipPath>
</defs>
</svg>
