<svg width="128" height="96" viewBox="0 0 128 96" fill="none" xmlns="http://www.w3.org/2000/svg">
<path d="M64.0002 16.791C81.2699 16.7911 95.2698 30.7638 95.2698 48C95.2698 50.0672 95.0676 52.0874 94.6833 54.0422C93.2129 53.5472 91.6381 53.2788 90.0007 53.2788C81.9006 53.2788 75.334 59.8454 75.334 67.9456C75.334 70.9336 76.2277 73.7128 77.7622 76.0308C73.6094 78.0655 68.9387 79.2087 64.0002 79.2087C46.7305 79.2087 32.7305 65.2362 32.7305 48C32.7305 30.7638 46.7305 16.791 64.0002 16.791Z" fill="#C5C5C5"/>
<path d="M49.5635 40.8911C49.5635 32.7467 56.3338 26.1812 64.562 26.492C72.3147 26.7863 78.4871 33.2444 78.4375 40.9854C78.406 45.8925 75.9163 50.2178 72.136 52.7954C71.2183 53.422 71.4054 54.8109 72.4556 55.178C74.7394 55.9766 76.8751 57.0894 78.8103 58.4649C76.6421 61.0215 75.3345 64.3312 75.3345 67.9461C75.3345 70.9342 76.2282 73.7135 77.7627 76.0315C73.6103 78.0664 68.9394 79.2095 64.0005 79.2095C54.7336 79.2095 46.4076 75.187 40.6841 68.7935C43.545 62.4512 48.929 57.4876 55.5586 55.1729C56.6054 54.8074 56.7859 53.4253 55.8699 52.8003C52.0631 50.2062 49.5635 45.8396 49.5635 40.8911Z" fill="#888888"/>
<path d="M30.9131 59.7984C30.9817 59.7751 31.0574 59.7798 31.1245 59.811C31.1917 59.8424 31.2442 59.8983 31.2759 59.9641C31.3539 60.1267 31.4325 60.2885 31.5115 60.45C32.5136 62.4997 33.5877 64.4704 34.7375 66.3965C35.2183 67.2016 35.6495 68.0367 36.042 68.918C36.1159 69.084 36.1887 69.2518 36.26 69.4212C36.2909 69.4946 36.3044 69.577 36.2888 69.6565C36.2732 69.736 36.2304 69.8057 36.1677 69.8518C36.105 69.8979 36.0258 69.9178 35.9453 69.9089C35.8647 69.9001 35.7902 69.8625 35.7292 69.811C35.5869 69.6897 35.448 69.5649 35.3127 69.437C34.5948 68.7582 33.9775 67.9887 33.4765 67.1497C32.2774 65.1429 31.3844 62.9521 30.8467 60.6873C30.8042 60.5088 30.7641 60.33 30.7261 60.1506C30.7111 60.0792 30.7187 60.003 30.7529 59.9373C30.7871 59.8715 30.8444 59.8217 30.9131 59.7984Z" fill="#888888"/>
<path d="M81.3071 22.0044C89.7242 27.5961 95.2705 37.1509 95.2705 48.0003C95.2705 50.0676 95.0684 52.0879 94.6841 54.043C93.4566 53.6297 92.1566 53.3744 90.8081 53.3013C91.4755 50.764 91.8313 48.1007 91.8313 45.355C91.8313 36.0631 87.7628 27.7201 81.3071 22.0044Z" fill="#888888"/>
<path d="M85.2265 19.936C85.3061 19.9183 85.3895 19.9302 85.4636 19.9607C85.6549 20.0405 85.844 20.1251 86.0305 20.2141C87.0204 20.6864 87.9399 21.2869 88.7649 21.9963C89.4913 22.621 90.1821 23.2869 90.8325 23.9888C91.9496 25.1941 92.9476 26.507 93.8059 27.8994C93.9128 28.0729 94.0178 28.2477 94.1203 28.4236C94.1572 28.487 94.1732 28.5624 94.1606 28.6358C94.148 28.7091 94.1083 28.7741 94.0495 28.8174C93.9908 28.8606 93.9167 28.8792 93.843 28.8694C93.7692 28.8596 93.7022 28.8219 93.6526 28.7678C93.517 28.6201 93.3809 28.4731 93.2444 28.3269C92.1491 27.1543 91.0232 26.0316 89.865 24.9524C89.1903 24.3238 88.5048 23.7096 87.8074 23.1099C87.0152 22.4288 86.2556 21.7102 85.5102 20.9424C85.3698 20.7978 85.2297 20.6514 85.0901 20.5032C85.0351 20.4448 84.9941 20.3711 84.9824 20.2903C84.9707 20.2096 84.9883 20.1288 85.0329 20.064C85.0776 19.9992 85.1469 19.9538 85.2265 19.936Z" fill="#888888"/>
<path d="M64.0002 16.041C81.6828 16.0411 96.0198 30.3482 96.0198 48C96.0198 50.1577 95.8049 52.2653 95.3965 54.303C94.9298 54.1183 94.4514 53.9571 93.9626 53.8203C94.328 51.9363 94.5198 49.9905 94.5198 48C94.5198 31.1794 80.8571 17.5411 64.0002 17.541C47.1433 17.541 33.4805 31.1794 33.4805 48C33.4805 58.966 39.2879 68.579 48.0012 73.9426C51.8456 75.6282 56.0946 76.5635 60.5618 76.5635C66.1956 76.5635 71.4813 75.076 76.0466 72.4736C76.5383 73.99 77.2707 75.3979 78.198 76.6528C73.9192 78.769 69.0988 79.9587 64.0002 79.9587C46.3177 79.9587 31.9805 65.6518 31.9805 48C31.9805 30.3482 46.3177 16.041 64.0002 16.041Z" fill="#484848"/>
<path d="M51.7915 31.874C54.7044 27.8892 59.7046 25.5562 64.5859 25.8823C67.4209 26.0378 70.1846 27.0481 72.4299 28.7178C73.3795 29.4207 74.2398 30.2364 74.9878 31.1389C75.0345 31.1954 75.0589 31.2678 75.0542 31.3413C75.0495 31.4149 75.0161 31.4835 74.9614 31.5322C74.9068 31.5809 74.8348 31.606 74.7612 31.6023C74.6876 31.5985 74.6186 31.566 74.5679 31.5132C73.7866 30.6996 72.9144 29.9803 71.9753 29.373C69.7525 27.9308 67.1481 27.1402 64.5398 27.1008C60.0394 26.9899 55.6276 29.182 52.9961 32.7683C51.2601 35.0955 50.2987 37.981 50.293 40.8906C50.2352 45.3437 52.5241 49.7406 56.2175 52.2915C57.5201 53.0903 57.1985 55.3229 55.75 55.719C51.5186 57.1276 47.6633 59.6939 44.698 63.0803C43.9504 63.9326 43.2584 64.8356 42.6287 65.7822C42.5878 65.8436 42.5247 65.8874 42.4524 65.9033C42.3801 65.9192 42.3045 65.9062 42.2422 65.8667C42.1799 65.8272 42.1356 65.7644 42.1191 65.6921C42.1027 65.6199 42.1154 65.5441 42.1536 65.481C42.7549 64.4863 43.4252 63.5317 44.1582 62.6257C47.0641 59.0261 50.9786 56.2156 55.3687 54.626C55.9456 54.4438 56.0251 53.5925 55.5242 53.3083C51.4398 50.6316 48.8142 45.8186 48.8352 40.8906C48.8107 37.676 49.8651 34.4541 51.7915 31.874Z" fill="#484848"/>
<path d="M76.948 34.5298C77.0146 34.4983 77.0912 34.4945 77.1611 34.519C77.2311 34.5436 77.2887 34.5946 77.321 34.6609C77.6485 35.3335 77.9247 36.032 78.1455 36.7483C78.5678 38.1168 78.7858 39.5507 78.7915 40.9871C78.8302 44.9526 77.1623 48.912 74.2854 51.6912C73.7105 52.2512 73.0921 52.7676 72.436 53.2334C71.8958 53.5873 72.0731 54.4797 72.6528 54.6145C75.008 55.3774 77.2646 56.4863 79.3035 57.9121C78.9669 58.2708 78.6481 58.6462 78.3486 59.0374C76.4787 57.6811 74.4348 56.558 72.2595 55.74C70.8104 55.2936 70.5659 53.0939 71.8372 52.3557C72.4636 51.9471 73.0571 51.486 73.6084 50.9775C76.3679 48.4543 78.0379 44.7602 78.0847 40.9824C78.1094 39.6148 77.9324 38.2421 77.5576 36.9224C77.3617 36.2316 77.1122 35.5551 76.8125 34.9011C76.7818 34.8341 76.7791 34.7571 76.8044 34.6875C76.8299 34.6179 76.8814 34.5613 76.948 34.5298Z" fill="#484848"/>
<path d="M90 80C96.6274 80 102 74.6274 102 68C102 61.3726 96.6274 56 90 56C83.3726 56 78 61.3726 78 68C78 74.6274 83.3726 80 90 80Z" fill="#39B25E"/>
<path d="M94.5401 63.4197C94.8768 62.982 95.5047 62.8999 95.9424 63.2366C96.3802 63.5734 96.462 64.2012 96.1253 64.639L89.959 72.6551C89.314 73.4936 88.0611 73.5269 87.3726 72.7237L83.9068 68.6802C83.5474 68.2609 83.5959 67.6295 84.0152 67.2701C84.4345 66.9107 85.0659 66.9592 85.4253 67.3785L88.6241 71.1104L94.5401 63.4197Z" fill="white"/>
</svg>
