<svg width="24" height="24" viewBox="0 0 24 24" fill="none" xmlns="http://www.w3.org/2000/svg">
<path d="M13.6628 8.6228C13.9575 8.56422 14.263 8.59452 14.5405 8.70947C14.818 8.82443 15.0552 9.01906 15.2222 9.2688C15.3891 9.51854 15.4782 9.81217 15.4783 10.1125V10.5632C15.4784 10.8568 15.5951 11.1386 15.8027 11.3462C16.0104 11.5538 16.2921 11.6705 16.5857 11.6707H16.7178C17.2623 11.6694 17.8016 11.776 18.3047 11.9844C18.8078 12.1928 19.2648 12.499 19.6489 12.885L19.7009 12.9395C19.9532 13.2181 20.0937 13.5813 20.0938 13.959C20.0937 14.3366 19.9532 14.6999 19.7009 14.9785L19.6489 15.0332L17.8711 16.8105L21.749 20.6885C22.0419 20.9814 22.0419 21.4561 21.749 21.749C21.4561 22.0419 20.9814 22.0419 20.6885 21.749L16.8105 17.8711L15.0332 19.6487C14.7597 19.9222 14.392 20.0812 14.0054 20.093C13.6186 20.1049 13.2419 19.9686 12.9521 19.7122C12.9509 19.711 12.9495 19.7099 12.9482 19.7087C12.526 19.3298 12.1924 18.8623 11.9717 18.3396C11.7535 17.8229 11.6509 17.2647 11.6707 16.7043V16.5854L11.6692 16.5305C11.6555 16.257 11.5408 15.9974 11.3462 15.8027C11.1515 15.6081 10.8918 15.4934 10.6182 15.4797L10.5632 15.4783H10.1128C9.81239 15.4782 9.51857 15.3891 9.2688 15.2222C9.01903 15.0552 8.82444 14.8178 8.70947 14.5403C8.59453 14.2627 8.56447 13.9572 8.62305 13.6626C8.68166 13.368 8.82621 13.0972 9.03857 12.8848L12.885 9.03857L12.9255 8.99951C13.1314 8.8084 13.3866 8.67773 13.6628 8.6228ZM12 2C17.4366 2 21.86 5.86393 21.9968 10.6765L22 10.9062C22 11.0488 21.9962 11.1906 21.9888 11.3315C21.9584 11.9046 21.2881 12.1309 20.8591 11.7498L20.6653 11.5774C20.5483 11.4734 20.4878 11.3207 20.4944 11.1643C20.498 11.0786 20.5 10.9925 20.5 10.9062C20.5 6.97455 16.8625 3.5 12 3.5C7.13754 3.5 3.50004 6.97455 3.5 10.9062C3.50002 12.9003 4.40868 14.7413 5.94873 16.1028C6.89111 16.9359 7.16701 18.4864 6.21069 19.584L5.73291 20.1323C7.07644 19.8865 8.59715 19.5899 10.0579 19.2642C10.1644 19.2404 10.2703 19.2164 10.3755 19.1924C10.5707 19.1477 10.7741 19.2229 10.8923 19.3845L10.9949 19.5247C11.3108 19.9563 11.086 20.5698 10.5642 20.6875C8.34846 21.187 5.98395 21.621 4.27686 21.9143C3.44551 22.0571 2.9113 21.0874 3.46533 20.4514L5.07983 18.5984L5.11157 18.5601C5.42584 18.1574 5.34309 17.5694 4.95532 17.2266L4.78613 17.0735C3.06071 15.4732 2.00002 13.3001 2 10.9062L2.00317 10.6765C2.13786 5.94031 6.4241 2.1229 11.7419 2.00293L12 2ZM13.9456 10.0994L10.0994 13.9456L10.0991 13.9453C10.0965 13.948 10.095 13.9516 10.0942 13.9553C10.0935 13.959 10.0938 13.9628 10.0952 13.9663C10.0967 13.9698 10.0991 13.973 10.1023 13.9751C10.1054 13.9772 10.1093 13.9783 10.113 13.9783H10.564C11.2552 13.9786 11.918 14.2532 12.4067 14.7419C12.8955 15.2307 13.1704 15.8937 13.1707 16.585V16.7151C13.1707 16.7251 13.1703 16.7353 13.1699 16.7454C13.156 17.0916 13.2187 17.4368 13.3535 17.7561C13.4877 18.0737 13.69 18.358 13.946 18.5889C13.9497 18.5921 13.9546 18.5939 13.9595 18.5938C13.9643 18.5936 13.969 18.5915 13.9724 18.5881L18.5881 13.9724C18.5917 13.9688 18.5937 13.964 18.5938 13.959C18.5937 13.9539 18.5917 13.9489 18.5881 13.9453L18.5867 13.9438C18.3421 13.6979 18.0511 13.5029 17.7307 13.3701C17.4103 13.2374 17.0666 13.1697 16.7197 13.1707H16.585C15.8938 13.1703 15.2309 12.8955 14.7422 12.4067C14.2534 11.918 13.9786 11.2552 13.9783 10.564V10.113L13.9751 10.1023C13.973 10.0992 13.97 10.0967 13.9666 10.0952C13.963 10.0938 13.9591 10.0935 13.9553 10.0942L13.9456 10.0994Z" fill="#000"/>
</svg>
