<svg width="96" height="96" viewBox="0 0 96 96" fill="none" xmlns="http://www.w3.org/2000/svg">
<path d="M45.5965 21.2706C62.8084 20.3622 77.8101 31.6494 79.104 46.4813C79.3295 49.0658 79.1233 51.5874 78.5388 53.9944C77.1097 53.5298 75.5843 53.2789 74.0003 53.2789C65.9001 53.2789 59.3336 59.8452 59.3335 67.9454C59.3335 69.7272 59.6513 71.4349 60.2332 73.0147C57.1535 74.1117 53.8081 74.7956 50.2818 74.9817C45.931 75.2114 41.7215 74.6615 37.8389 73.4722C36.6174 73.098 36.0388 71.7557 36.2952 70.5042C36.4892 69.5573 36.5911 68.5775 36.5911 67.5745C36.591 59.414 29.8551 52.7985 21.5459 52.7984C20.9282 52.7984 20.3192 52.835 19.721 52.9061C18.419 53.0607 17.0997 52.3186 16.9165 51.0203C16.8582 50.6069 16.8105 50.1903 16.7739 49.771C15.4802 34.9391 28.3845 22.179 45.5965 21.2706Z" fill="#FFC95C"/>
<path d="M39.1874 53.2866C40.3654 52.4234 42.0919 52.5532 43.2001 53.209C44.3525 53.8427 45.1925 54.7665 45.8996 55.7302C46.3378 56.3328 46.6996 56.9869 46.9481 57.6907C47.0921 58.1016 47.1953 58.531 47.2304 58.9695C47.2355 59.0405 47.2166 59.1125 47.1737 59.1704C47.1308 59.2283 47.0679 59.2675 46.998 59.2791C46.928 59.2906 46.8558 59.2739 46.7965 59.2329C46.7373 59.1919 46.6961 59.1296 46.6781 59.0608C46.5791 58.6919 46.4266 58.3374 46.2431 57.9995C45.9276 57.4215 45.5237 56.887 45.0749 56.4075C43.6276 54.806 41.4953 53.4254 40.0241 54.5222C38.3797 55.5706 38.7301 58.2035 40.0605 59.9341C40.9578 61.3096 43.196 62.1028 44.288 60.8516C44.4914 60.5988 44.6084 60.2695 44.6325 59.908C44.6374 59.8286 44.6707 59.7522 44.7282 59.696C44.7856 59.6399 44.8622 59.6082 44.9416 59.6082C45.0209 59.6082 45.0975 59.6399 45.1549 59.696C45.2124 59.7522 45.2455 59.8286 45.2504 59.908C45.2773 60.3676 45.1794 60.863 44.9147 61.2839C43.3804 63.3724 40.3423 62.4039 39.0556 60.7102C37.4296 58.8993 36.4699 55.1573 39.1874 53.2866Z" fill="#F5A031"/>
<path d="M72.9118 34.6389C73.0752 34.8563 73.2355 35.0754 73.3915 35.2971C73.3391 35.3474 73.2745 35.3836 73.2033 35.3997C72.9909 35.4489 72.7694 35.5666 72.5722 35.7195C71.1645 36.8823 70.9347 39.0826 71.2323 40.9707C71.5069 43.5255 73.521 46.1926 75.788 45.6375C76.1873 45.5353 76.5527 45.3489 76.851 45.0916C77.0247 44.942 77.1761 44.7689 77.3019 44.5771C77.3103 44.5645 77.3197 44.5526 77.3288 44.5405C77.4386 45.1384 77.5244 45.7429 77.5849 46.3533C77.1356 46.668 76.6243 46.8832 76.1027 46.9946C72.4052 47.5862 70.3805 43.8566 70.1667 41.1123C69.9407 39.0281 70.173 36.5335 72.0734 35.0432C72.3183 34.8696 72.5967 34.7206 72.9118 34.6389Z" fill="#F5A031"/>
<path d="M26.7653 31.6116C28.6299 30.5398 31.962 29.8803 33.5578 32.4722C34.3842 33.7952 33.9667 35.5251 33.2541 36.5864C32.5203 37.7119 31.6785 38.5579 30.5148 39.3293L30.3571 39.4136C28.7095 40.2731 26.8087 40.6841 24.9096 40.0396C24.4373 39.8613 23.9824 39.5823 23.6188 39.208C23.5187 39.1043 23.4635 38.9628 23.4638 38.8167C23.4642 38.6704 23.5203 38.5311 23.621 38.428C23.7217 38.3249 23.8596 38.2656 24.0058 38.2617C24.1519 38.258 24.2948 38.31 24.4008 38.4077C24.6531 38.6375 24.9615 38.8005 25.3022 38.9011C26.7133 39.2901 28.4336 38.7869 29.7689 38.0374C31.3913 36.9427 33.2355 34.7274 32.2643 33.2217C31.4636 31.7761 29.1518 31.9612 27.476 32.9302C26.2936 33.5628 25.2973 34.5677 24.9367 35.7512C24.8338 36.0888 24.7864 36.435 24.8031 36.7698C24.8129 36.9684 24.7435 37.1629 24.61 37.3103C24.4765 37.4577 24.2896 37.5459 24.091 37.5557C23.8923 37.5654 23.6978 37.4958 23.5504 37.3623C23.4032 37.2288 23.3146 37.0423 23.3048 36.8438C23.2789 36.3185 23.3543 35.7994 23.5023 35.3142C24.0305 33.6183 25.3363 32.3823 26.7653 31.6116Z" fill="#F5A031"/>
<path d="M49.7609 22.7891C50.4244 22.831 51.0823 22.8913 51.7338 22.97C51.7179 22.9833 51.7018 22.9965 51.6847 23.0085C51.4921 23.1438 51.3104 23.299 51.1444 23.4695C50.9075 23.7129 50.7023 23.9877 50.5426 24.2803C50.5423 24.2809 50.5413 24.2828 50.5409 24.2834C50.2907 24.7376 50.1057 25.2283 50.0246 25.7107C49.8602 26.647 50.1432 27.4633 50.8778 27.9844C50.8915 27.9945 50.9044 28.0054 50.9171 28.0159C51.8255 28.6726 53.2587 28.3187 54.2199 27.4597C54.4649 27.2451 54.6861 27.0043 54.8695 26.7463C55.2961 26.1194 55.5831 25.1172 55.6552 24.228C55.6688 24.0404 55.6713 23.8542 55.6579 23.6777C56.0379 23.7695 56.415 23.867 56.789 23.9712C56.8002 24.0485 56.8095 24.1257 56.817 24.2026C56.8966 25.3556 56.7634 26.4516 56.1068 27.5742C55.8587 27.9604 55.557 28.3033 55.2184 28.6001C53.9285 29.761 51.683 30.4499 49.9862 29.1838C49.9755 29.1759 49.9658 29.1668 49.9557 29.1587C48.8189 28.3707 48.2929 26.7331 48.5678 25.4663C48.6841 24.7828 48.926 24.1534 49.2411 23.5718L49.3268 23.4197C49.4564 23.1981 49.6018 22.9876 49.7609 22.7891Z" fill="#F5A031"/>
<path d="M45.5965 21.2708C62.8085 20.3624 77.8105 31.6496 79.1043 46.4815C79.3297 49.066 79.1233 51.5875 78.5388 53.9944C78.0639 53.84 77.5782 53.7094 77.0833 53.6036C77.6278 51.3543 77.8188 49.0067 77.6099 46.6119C76.4027 32.7734 62.2831 21.8921 45.6756 22.7686C29.0863 23.6442 17.0664 35.8627 18.2683 49.6409C18.3026 50.0336 18.347 50.4237 18.4016 50.8108C18.4244 50.9721 18.5114 51.1196 18.7053 51.2432C18.9147 51.3766 19.2199 51.4551 19.5442 51.4166C20.201 51.3386 20.869 51.2986 21.5459 51.2986C30.658 51.2987 38.0911 58.5603 38.0911 67.5748C38.0911 68.6795 37.9788 69.76 37.7647 70.8052C37.7002 71.1199 37.747 71.4281 37.8587 71.6548C37.964 71.8686 38.1101 71.9866 38.2783 72.0381C41.9947 73.1765 46.0288 73.7042 50.2027 73.4839C53.6169 73.3037 56.8374 72.6425 59.7891 71.5867C59.9133 72.0729 60.0618 72.5493 60.2332 73.0147C57.1535 74.1117 53.8081 74.7959 50.2818 74.982L49.8743 75.0013C45.6683 75.1766 41.6001 74.6243 37.8389 73.4722C36.6175 73.098 36.0388 71.7557 36.2952 70.5042C36.4771 69.6165 36.578 68.7 36.5899 67.7625L36.5911 67.5748C36.5911 59.4779 29.9601 52.9022 21.7405 52.7999L21.5459 52.7986C20.9282 52.7986 20.3192 52.835 19.721 52.9061C18.4597 53.0558 17.1819 52.3641 16.9368 51.1404L16.9165 51.0203C16.8728 50.7103 16.835 50.3984 16.8035 50.085L16.774 49.7713C15.4903 35.0552 28.1837 22.3787 45.1939 21.2942L45.5965 21.2708Z" fill="#B66A1F"/>
<path d="M52.6386 46.0441C55.5139 45.2682 57.1193 49.2301 57.2704 50.6474C57.397 51.8277 56.9028 52.4445 56.1391 52.8815C55.1466 53.4492 53.7538 53.5636 52.5448 53.5432C51.8067 53.5307 51.2926 53.1281 50.9491 52.6298C51.8942 52.4224 52.8467 52.2491 53.8097 52.1232C53.9257 52.1077 54.0418 52.0926 54.1579 52.0781C54.2184 52.0705 54.2748 52.038 54.3146 51.9897C54.3544 51.9413 54.3745 51.8808 54.3703 51.82C54.366 51.7593 54.3378 51.7023 54.2917 51.6599C54.2455 51.6176 54.1851 51.5933 54.1242 51.5942C54.0058 51.5961 53.8871 51.5983 53.7685 51.6013C52.6943 51.6244 51.6193 51.7064 50.5487 51.8293C50.5257 51.7637 50.5048 51.699 50.4862 51.6357V51.6315C50.0207 50.0345 49.9839 46.763 52.6386 46.0441Z" fill="#47210A"/>
<path d="M41.4738 41.1457C42.5965 41.0971 43.8986 41.4961 44.5893 42.4902C44.6651 42.5981 44.7298 42.7079 44.7882 42.8239C44.816 42.8822 44.8285 42.9488 44.8168 43.0134C44.8052 43.078 44.771 43.135 44.7201 43.173C44.6693 43.211 44.605 43.2278 44.5397 43.2207C44.4744 43.2135 44.4141 43.1827 44.3661 43.1396C44.2846 43.0687 44.2028 43.0063 44.1171 42.947C43.3484 42.4247 42.4402 42.3296 41.515 42.3549C40.599 42.3973 39.6008 42.537 38.7963 42.9382C38.7135 42.9825 38.6317 43.0368 38.5685 43.09C38.5222 43.1358 38.4629 43.1697 38.3974 43.1799C38.332 43.1901 38.2663 43.1763 38.2133 43.1403C38.1604 43.1044 38.1233 43.0486 38.1086 42.9841C38.0938 42.9195 38.1032 42.8519 38.1286 42.7919C38.1908 42.6598 38.2787 42.5393 38.3649 42.4382C39.2062 41.5503 40.3355 41.2043 41.4738 41.1457Z" fill="#47210A"/>
<path d="M57.8988 36.8532C58.8351 36.3309 60.1006 36.1722 61.0819 36.7473C61.1883 36.8097 61.2882 36.8797 61.3825 36.9567C61.4363 37.0031 61.4792 37.0641 61.497 37.1342C61.5148 37.2043 61.5066 37.2769 61.4733 37.3381C61.44 37.3993 61.3833 37.4454 61.3149 37.4685C61.2463 37.4915 61.1719 37.4888 61.1037 37.4687C61.0109 37.4439 60.9191 37.4255 60.8273 37.4121C60.0036 37.3005 59.2237 37.5706 58.506 37.9575C57.7948 38.3563 57.1235 38.8754 56.6747 39.6035C56.6257 39.685 56.5803 39.7699 56.539 39.8579C56.5124 39.9182 56.47 39.9727 56.413 40.008C56.356 40.0433 56.2896 40.0566 56.2262 40.0444C56.1629 40.0321 56.1063 39.9951 56.0666 39.9411C56.0268 39.8871 56.008 39.8207 56.0058 39.7548C56.0045 39.6353 56.0126 39.5143 56.0287 39.3945C56.184 38.301 56.9535 37.3735 57.8988 36.8532Z" fill="#47210A"/>
<path d="M28.5684 70.3646C28.66 70.3623 28.7501 70.3959 28.8242 70.4583C28.8984 70.5208 28.9497 70.6068 28.9837 70.6969C29.0081 70.7626 29.0315 70.8284 29.0537 70.8941C29.2535 71.4866 29.3609 72.0816 29.376 72.6788C29.3911 73.276 29.3269 73.8754 29.1829 74.4766C29.1669 74.5434 29.1498 74.6103 29.1318 74.6771C29.1034 74.7817 29.0521 74.8826 28.9724 74.9581C28.8928 75.0336 28.7922 75.0775 28.6878 75.0802C28.5833 75.0828 28.4808 75.0441 28.3975 74.9727C28.314 74.9014 28.2579 74.8031 28.2241 74.7C28.2028 74.6342 28.1822 74.5684 28.1629 74.5025C27.9886 73.9094 27.8938 73.3141 27.8787 72.7169C27.8636 72.1197 27.9411 71.5201 28.1106 70.9183C28.1294 70.8514 28.1493 70.7843 28.1704 70.7174C28.1997 70.6257 28.2469 70.5374 28.3179 70.4713C28.3888 70.4052 28.4768 70.3669 28.5684 70.3646Z" fill="#F5A031"/>
<path d="M23.2307 66.9027C23.3181 66.912 23.397 66.9504 23.4529 67.0125C23.5088 67.0747 23.5385 67.1573 23.5386 67.2452C23.5387 67.3332 23.5085 67.4189 23.4639 67.4935C23.4223 67.5624 23.3798 67.6306 23.3367 67.6978C22.9483 68.3027 22.4964 68.837 21.981 69.3006C21.4655 69.7643 20.895 70.1672 20.2698 70.5089C20.2003 70.5468 20.1299 70.584 20.0591 70.6204C19.9707 70.6656 19.8701 70.6915 19.7698 70.6815C19.6695 70.6715 19.5784 70.6272 19.5139 70.5555C19.4495 70.4838 19.4154 70.3884 19.416 70.2877C19.4167 70.1869 19.4531 70.0896 19.5073 70.0064C19.551 69.9399 19.5954 69.8742 19.6404 69.8092C20.0462 69.2235 20.507 68.6989 21.0225 68.2352C21.5379 67.7716 22.117 67.3784 22.7595 67.056C22.8309 67.0202 22.9032 66.9851 22.9761 66.951C23.055 66.9145 23.1433 66.8933 23.2307 66.9027Z" fill="#F5A031"/>
<path d="M16.6702 60.6978C17.4852 60.5758 18.2964 60.5354 19.103 60.5767C19.9097 60.6181 20.7115 60.7552 21.5083 60.9876C21.5968 61.0134 21.6853 61.0405 21.7737 61.0687C21.8599 61.0964 21.9415 61.1444 21.9998 61.2154C22.0581 61.2864 22.0885 61.3735 22.084 61.4613C22.0795 61.549 22.0403 61.6323 21.9751 61.6969C21.9099 61.7615 21.8239 61.8011 21.7354 61.8199C21.6445 61.8389 21.5534 61.8568 21.4627 61.8734C20.6462 62.023 19.8347 62.0771 19.0281 62.0357C18.2214 61.9943 17.4189 61.8712 16.6206 61.6663C16.532 61.6436 16.4433 61.6198 16.3547 61.5951C16.2548 61.5669 16.1603 61.5129 16.0928 61.4317C16.0253 61.3507 15.99 61.2502 15.9951 61.1488C16.0004 61.0473 16.0459 60.951 16.1213 60.8773C16.1968 60.8035 16.2962 60.7594 16.3984 60.7415C16.4891 60.726 16.5797 60.7114 16.6702 60.6978Z" fill="#F5A031"/>
<path d="M74 80C80.6274 80 86 74.6274 86 68C86 61.3726 80.6274 56 74 56C67.3726 56 62 61.3726 62 68C62 74.6274 67.3726 80 74 80Z" fill="#38B26A"/>
<path d="M78.5406 63.4192C78.8773 62.9815 79.5052 62.8995 79.9429 63.2361C80.3807 63.5729 80.4625 64.2007 80.1258 64.6385L73.9595 72.6546C73.3145 73.4931 72.0616 73.5264 71.3731 72.7232L67.9073 68.6797C67.5479 68.2604 67.5964 67.629 68.0157 67.2696C68.435 66.9102 69.0664 66.9587 69.4258 67.378L72.6246 71.1099L78.5406 63.4192Z" fill="#FFFBF0"/>
</svg>
