<svg width="12" height="12" viewBox="0 0 12 12" fill="none" xmlns="http://www.w3.org/2000/svg">
<path d="M3.31738 1C3.61254 1 3.90095 1.0897 4.14355 1.25781L6.78516 3.08887C6.93011 3.18941 7.01142 3.35919 6.99902 3.53516C6.98646 3.71133 6.88161 3.86828 6.72363 3.94727L4.49414 5.06152L6.02734 6.08398C6.1586 6.17149 6.24061 6.3161 6.24902 6.47363C6.25734 6.63093 6.19125 6.78286 6.07031 6.88379L4.57031 8.13379C4.35827 8.31049 4.04304 8.28219 3.86621 8.07031C3.68951 7.85827 3.71781 7.54304 3.92969 7.36621L4.91504 6.54395L3.22266 5.41602C3.07436 5.31715 2.9899 5.14664 3.00098 4.96875C3.01211 4.79093 3.117 4.63242 3.27637 4.55273L5.52051 3.42969L3.57422 2.08008C3.49892 2.02789 3.409 2 3.31738 2H3.06543C1.92496 2 1 2.92496 1 4.06543V7.93457C1 9.07504 1.92496 10 3.06543 10H8.93457C10.075 10 11 9.07504 11 7.93457V4.06543C11 2.99636 10.1876 2.11665 9.14648 2.01074L8.93457 2H7.5C7.22386 2 7 1.77614 7 1.5C7 1.22386 7.22386 1 7.5 1H8.93457L9.09277 1.00391C10.7122 1.08602 12 2.42559 12 4.06543V7.93457C12 9.62732 10.6273 11 8.93457 11H3.06543C1.37268 11 0 9.62732 0 7.93457V4.06543C0 2.37268 1.37268 1 3.06543 1H3.31738Z" fill="black"/>
</svg>
