<svg width="12" height="12" viewBox="0 0 12 12" fill="none" xmlns="http://www.w3.org/2000/svg">
<path d="M4.5 1C4.77614 1 5 1.22386 5 1.5C5 1.77614 4.77614 2 4.5 2H4C2.89543 2 2 2.89543 2 4V8C2 9.10457 2.89543 10 4 10H8C9.10457 10 10 9.10457 10 8V7.5C10 7.22386 10.2239 7 10.5 7C10.7761 7 11 7.22386 11 7.5V8C11 9.65685 9.65685 11 8 11H4C2.34315 11 1 9.65685 1 8V4C1 2.34315 2.34315 1 4 1H4.5Z" fill="black"/>
<path d="M9 1C10.1046 1 11 1.89543 11 3V4.5C11 4.77614 10.7761 5 10.5 5C10.2239 5 10 4.77614 10 4.5V3C10 2.91038 9.98695 2.82386 9.96484 2.74121L5.85352 6.85352C5.65827 7.04877 5.34175 7.04874 5.14648 6.85352C4.95122 6.65825 4.95122 6.34175 5.14648 6.14648L9.25781 2.03418C9.17551 2.01227 9.0892 2 9 2H7.5C7.22386 2 7 1.77614 7 1.5C7 1.22386 7.22386 1 7.5 1H9Z" fill="black"/>
</svg>
