<svg width="16" height="16" viewBox="0 0 16 16" fill="none" xmlns="http://www.w3.org/2000/svg">
<path d="M12.5 9C14.433 9 16 10.567 16 12.5C16 14.433 14.433 16 12.5 16C10.567 16 9 14.433 9 12.5C9 10.567 10.567 9 12.5 9ZM12 1.125C14.2091 1.125 16 2.91586 16 5.125V8C16 8.34518 15.7202 8.625 15.375 8.625C15.0298 8.625 14.75 8.34518 14.75 8V5.125C14.75 3.60622 13.5188 2.375 12 2.375H4C2.48122 2.375 1.25 3.60622 1.25 5.125V11C1.25 12.5188 2.48122 13.75 4 13.75H7.5C7.84518 13.75 8.125 14.0298 8.125 14.375C8.125 14.7202 7.84518 15 7.5 15H4C1.79086 15 0 13.2091 0 11V5.125C0 2.91586 1.79086 1.125 4 1.125H12ZM10.375 11.875C10.0989 11.875 9.875 12.0989 9.875 12.375V12.625C9.875 12.9011 10.0989 13.125 10.375 13.125H14.625C14.9011 13.125 15.125 12.9011 15.125 12.625V12.375C15.125 12.0989 14.9011 11.875 14.625 11.875H10.375ZM8.08398 10.75C7.92784 11.1437 7.8221 11.5628 7.77637 12H3.625C3.27982 12 3 11.7202 3 11.375C3 11.0298 3.27982 10.75 3.625 10.75H8.08398ZM6 5.10059C6.00001 4.54015 6.59277 4.17756 7.0918 4.43262L10.3184 6.08203C10.8632 6.36053 10.8632 7.13947 10.3184 7.41797L7.0918 9.06738C6.59278 9.32244 6.00004 8.95983 6 8.39941V5.10059Z" fill="black"/>
</svg>
