<svg width="12" height="12" viewBox="0 0 12 12" fill="none" xmlns="http://www.w3.org/2000/svg">
<path d="M6.5 8C6.77614 8 7 8.22386 7 8.5C7 8.77614 6.77614 9 6.5 9H2.5C2.22386 9 2 8.77614 2 8.5C2 8.22386 2.22386 8 2.5 8H6.5Z" fill="black"/>
<path d="M6.5 6C6.77614 6 7 6.22386 7 6.5C7 6.77614 6.77614 7 6.5 7H2.5C2.22386 7 2 6.77614 2 6.5C2 6.22386 2.22386 6 2.5 6H6.5Z" fill="black"/>
<path d="M4 3C4.27614 3 4.5 3.22386 4.5 3.5V4.5C4.5 4.77614 4.27614 5 4 5H2.5C2.22386 5 2 4.77614 2 4.5V3.5C2 3.22386 2.22386 3 2.5 3H4Z" fill="black"/>
<path fill-rule="evenodd" clip-rule="evenodd" d="M7.5 1C8.32843 1 9 1.67157 9 2.5H10.5C11.3284 2.5 12 3.17157 12 4V8.96875C12 10.0906 11.0906 11 9.96875 11H3C1.34315 11 6.44255e-08 9.65685 0 8V2.5C4.02663e-09 1.67157 0.671573 1 1.5 1H7.5ZM1.5 2C1.22386 2 1 2.22386 1 2.5V8C1 9.10457 1.89543 10 3 10H8.25586C8.09367 9.71384 8 9.38366 8 9.03125V2.5C8 2.22386 7.77614 2 7.5 2H1.5ZM9 9.03125C9 9.56628 9.43372 10 9.96875 10C10.5383 10 11 9.53829 11 8.96875V4C11 3.72386 10.7761 3.5 10.5 3.5H9V9.03125Z" fill="black"/>
</svg>
