<svg fill="none" viewBox="0 0 12 12" xmlns="http://www.w3.org/2000/svg">
  <g fill="#000" clip-path="url(#a)">
    <path d="M6.251 10.501a.75.75 0 1 1-.001 1.501.75.75 0 0 1 .001-1.501M9.056 7.44c.153-.61.71-.56.897 0 .054.162.14.873.2 1.414.522.06 1.202.143 1.414.196.6.15.554.71 0 .894-.162.054-.874.14-1.417.2-.06.52-.144 1.2-.197 1.41-.149.595-.748.595-.897 0-.053-.211-.137-.892-.198-1.412-.522-.06-1.205-.145-1.418-.198-.586-.146-.586-.748 0-.894.213-.053.896-.138 1.418-.197.06-.521.145-1.202.198-1.414Z"/>
    <path fill-rule="evenodd" d="M9 1a3 3 0 0 1 3 3c0 1.17.042 2.35.017 3.521-.007.306-.32.523-.622.48a.43.43 0 0 1-.378-.39C10.977 7.075 11 6.54 11 6H1v2a2 2 0 0 0 2 2h1.184c.308 0 .5.411.404.704-.054.163-.197.296-.368.296H3a3 3 0 0 1-3-3V4a3 3 0 0 1 3-3zM3 2a2 2 0 0 0-2 2h10a2 2 0 0 0-2-2z" clip-rule="evenodd"/>
  </g>
  <defs>
    <clipPath id="a">
      <path fill="#fff" d="M0 0h12v12H0z"/>
    </clipPath>
  </defs>
</svg>
