<svg fill="none" viewBox="0 0 128 80" xmlns="http://www.w3.org/2000/svg">
  <rect width="127" height="79" x=".5" y=".5" stroke="#fff" stroke-opacity=".32" rx="19.5"/>
  <path fill="#fff" fill-opacity=".08" d="M110 29c5.523 0 10 4.477 10 10s-4.477 10-10 10H18c-5.523 0-10-4.477-10-10s4.477-10 10-10z"/>
  <path fill="#fff" fill-opacity=".48" d="M19.489 34c2.362 0 4.277 1.959 4.277 4.375 0 1.058-.367 2.028-.979 2.785l2.082 2.129.053.065c.104.161.086.381-.053.524-.14.142-.354.16-.512.053l-.064-.053-2.082-2.13c-.74.626-1.688 1.002-2.722 1.002-2.363 0-4.278-1.959-4.278-4.375S17.126 34 19.488 34m0 .833c-1.913 0-3.463 1.586-3.463 3.542s1.55 3.541 3.462 3.541 3.463-1.585 3.463-3.541-1.55-3.542-3.463-3.542"/>
  <path fill="#1C1C1C" d="M106.247.8c2.334 0 7.172.533 8.833 1.38 4.279 1.638 7.823 4.977 9.74 8.74.847 1.661 1.555 3.577 1.871 5.887l.332 3.556.092 3.807H51.65c-2.667 0-4.83-2.163-4.83-4.83v-7.82c0-3.176-2.574-5.75-5.75-5.75H7.364c1.455-1.437 3.218-2.652 5.556-3.59C15.81.8 27.546.8 29.707.8z"/>
</svg>
