<svg width="128" height="96" viewBox="0 0 128 96" fill="none" xmlns="http://www.w3.org/2000/svg">
<g id="Desktop-Mobile-Sync-Feature-128">
<path id="Union" d="M79.4497 20.5941C88.0361 20.1354 95.2497 26.974 95.2497 35.5726V45.1524C97.9612 45.4578 99.8289 48.1438 99.0647 50.8475L92.5603 73.8602C92.0125 75.7981 90.2436 77.1363 88.2297 77.1363H79.8525C76.8996 77.1363 74.7471 74.3401 75.5022 71.4854L76.5083 67.6815L41.7121 67.6358C35.2486 67.6273 30.1214 62.1869 30.4958 55.7342L31.8064 33.1531C32.1384 27.4333 36.716 22.8768 42.4372 22.5711L79.4497 20.5941Z" fill="#F5FBFE"/>
<g id="Subtract">
<path d="M76.5564 67.4998H76.1421C76.2344 67.6558 76.3299 67.8176 76.4282 67.9837L75.5022 71.4854C74.8411 73.9844 76.4083 76.4383 78.79 77.0111C78.3095 77.2352 77.7027 77.3563 76.9895 77.3563L63.1592 77.3834L63.1582 77.3831L50.5676 77.4081C50.3816 77.4084 50.241 77.2396 50.2751 77.0567C50.4986 75.8619 51.5004 74.9686 52.7129 74.8829L58.5017 74.4737C59.3919 74.4108 59.8625 73.3903 59.3323 72.6725L55.5103 67.4998H41.106C37.1529 67.4998 33.5356 65.2767 31.75 61.7498H78.0776L76.5564 67.4998Z" fill="#4397E0"/>
<path d="M79.4495 20.5946C88.036 20.1356 95.25 26.9743 95.25 35.5731V45.1524C95.0812 45.1334 94.909 45.1234 94.7341 45.1234H90.9236L91.4773 33.7442C91.8371 26.3485 85.7254 20.2632 78.3323 20.6541L79.4495 20.5946Z" fill="#4397E0"/>
<path d="M78.325 20.6546L67.8669 21.2137L78.3323 20.6541C78.3298 20.6543 78.3274 20.6545 78.325 20.6546Z" fill="#4397E0"/>
</g>
<path id="Subtract_2" d="M97.019 45.1235C99.9653 45.1236 102.117 47.908 101.373 50.759L94.6499 76.5444C94.1332 78.5262 92.3434 79.9089 90.2954 79.9089H79.0688C76.1225 79.9089 73.971 77.1247 74.7144 74.2737L81.0342 50.0361C81.1912 49.4338 81.4291 48.8695 81.7339 48.3533C81.5723 48.685 81.4409 49.0359 81.3438 49.4031L75.5022 71.4856C74.7471 74.3403 76.8996 77.1362 79.8525 77.1362H88.2297C90.2436 77.1362 92.0125 75.7983 92.5603 73.8604L99.0647 50.8474C99.8763 47.9756 97.7185 45.1235 94.7341 45.1235H97.019Z" fill="#75B6EB"/>
<g id="Union_2">
<path d="M95.0342 65.091C95.0988 65.0562 95.1741 65.0478 95.244 65.068C95.3138 65.0883 95.3731 65.1359 95.409 65.1999C95.4449 65.2638 95.4544 65.3392 95.4376 65.4101C95.365 65.7149 95.2917 66.0197 95.2176 66.3241C94.6356 68.7145 94.006 71.0912 93.3289 73.454C93.265 73.6767 93.1881 73.8953 93.0982 74.1088C92.4427 75.6851 91.0383 76.8919 89.4383 77.3754C88.8899 77.5445 88.3177 77.6307 87.7476 77.6327C86.8733 77.6347 85.9987 77.6354 85.1243 77.6366C84.8113 77.6371 84.4981 77.6374 84.1851 77.6381C84.1124 77.6382 84.0417 77.609 83.9888 77.5578C83.936 77.5064 83.9051 77.4371 83.9031 77.3644C83.9012 77.2917 83.9284 77.221 83.9783 77.1669C84.0284 77.1129 84.0973 77.0796 84.17 77.0758C84.4827 77.0598 84.7955 77.0435 85.1082 77.0273C85.9814 76.9818 86.8547 76.9358 87.7278 76.891C88.2255 76.8648 88.7167 76.7663 89.1819 76.6C90.5457 76.1171 91.6352 75.0238 92.1766 73.7209C92.2514 73.5431 92.3161 73.3614 92.3707 73.1759C93.0641 70.8179 93.8053 68.4734 94.5938 66.143C94.6942 65.8462 94.7956 65.5496 94.8975 65.2533C94.9213 65.1844 94.9696 65.1258 95.0342 65.091Z" fill="#045EB2"/>
<path fill-rule="evenodd" clip-rule="evenodd" d="M79.4097 19.8451C88.4251 19.3638 95.9988 26.5447 95.9991 35.5729V44.3737H96.3721C100.137 44.3738 102.886 47.9315 101.936 51.5744L95.4732 76.36C94.8129 78.8921 92.526 80.659 89.9092 80.6591H79.7161C77.5564 80.6591 75.7313 79.488 74.7466 77.8019L50.7527 77.7812C49.9939 77.7803 49.4304 77.0774 49.595 76.3366C49.8616 75.1382 50.8993 74.2674 52.1258 74.2126L58.4307 73.9313C58.735 73.9175 58.9029 73.5716 58.7254 73.3241L55.1927 68.4037L41.7112 68.3861C34.8168 68.3769 29.3477 62.5737 29.7471 55.6908L31.0574 33.11C31.4117 27.0091 36.295 22.1482 42.3975 21.8222L79.4097 19.8451ZM86.9517 45.8737C84.5624 45.8737 82.4743 47.487 81.8714 49.799L75.6036 73.8368C74.9015 76.5294 76.9335 79.1591 79.7161 79.1591H89.9092C91.8434 79.159 93.5337 77.8531 94.0218 75.9816L100.485 51.196C101.187 48.5034 99.1547 45.8738 96.3721 45.8737H86.9517ZM59.9439 72.4491C60.8163 73.6644 59.9919 75.363 58.4974 75.4298L52.1924 75.7108C51.7845 75.7292 51.4231 75.9495 51.2154 76.2814L74.1336 76.3009C74.0449 75.9473 73.9898 75.5823 73.9708 75.2101C71.8762 75.2306 69.7791 75.1444 67.6805 74.9508C67.4271 74.9275 67.1732 74.9024 66.9197 74.8759C66.8496 74.8684 66.7815 74.8388 66.731 74.788C66.6805 74.7371 66.6513 74.6696 66.65 74.5995C66.6487 74.5295 66.6754 74.461 66.7239 74.4084C66.7725 74.3558 66.8395 74.3234 66.9092 74.3134C67.1615 74.2774 67.4143 74.2429 67.6666 74.2101C69.7931 73.9335 71.9223 73.7678 74.053 73.7128C74.0666 73.7123 74.0799 73.7112 74.0928 73.7099C74.1108 73.6261 74.1303 73.5423 74.1522 73.4584L74.3633 72.6481C73.7181 71.3433 73.1174 70.0138 72.5628 68.6596C72.5311 68.582 72.4996 68.5041 72.4681 68.4264L57.0408 68.4062L59.9439 72.4491ZM73.2977 68.4274C73.8345 69.1994 74.3524 69.9819 74.8519 70.7743L75.4632 68.4301L73.2977 68.4274ZM94.4991 35.5729C94.4988 27.4046 87.6465 20.9077 79.4898 21.3432L42.4776 23.3202C37.1379 23.6055 32.865 27.8586 32.555 33.1969L31.2444 55.7777C30.8949 61.8002 35.6806 66.8781 41.7132 66.8861L75.8541 66.9306L80.42 49.4206C81.1951 46.448 83.8797 44.3737 86.9517 44.3737H90.629C90.7439 42.5269 90.8762 40.6782 91.0425 38.8256C91.0855 38.3514 91.1306 37.8767 91.1783 37.3905C91.1855 37.3187 91.2179 37.2502 91.2718 37.2011C91.3257 37.1521 91.3966 37.1257 91.4686 37.1281C91.5405 37.1307 91.6094 37.1617 91.6597 37.2143C91.7101 37.2669 91.7379 37.3375 91.7403 37.4096C91.7551 37.8973 91.7695 38.3732 91.7828 38.8485C91.8339 40.689 91.8717 42.5312 91.8809 44.3737H94.4991V35.5729Z" fill="#045EB2"/>
</g>
<g id="Union_3">
<path d="M93.1989 59.8185C93.4387 59.7553 93.6236 59.8956 93.5925 60.1127C93.4185 61.2856 92.8552 62.517 91.8901 63.6415C89.5174 66.4081 85.6171 67.503 83.0524 66.163C82.9362 66.1027 82.7625 66.1491 82.6584 66.2719L81.954 67.0949C81.7801 67.2959 81.4744 67.2682 81.4675 67.049L81.3784 63.9496C81.3731 63.8167 81.4945 63.6716 81.6518 63.6295L85.2062 62.6815C85.4587 62.6141 85.5938 62.8464 85.4199 63.0475L84.7001 63.8854C84.5904 64.0156 84.5954 64.1809 84.7194 64.2409C86.3234 65.0062 88.6982 64.3129 90.1496 62.6188L90.1545 62.6149C90.6342 62.0563 90.9502 61.4574 91.1171 60.8678C91.2032 60.5549 91.4851 60.2775 91.8288 60.1849L93.1989 59.8185Z" fill="#1074CC"/>
<path d="M93.6706 53.9352C93.8559 53.7336 94.1905 53.7603 94.2031 53.9794L94.3715 57.0756C94.3803 57.2084 94.2512 57.3537 94.0805 57.3964L90.2214 58.3563C89.9473 58.4246 89.7946 58.1929 89.9799 57.9913L90.7463 57.1517C90.8632 57.0212 90.854 56.856 90.7172 56.7965C88.9483 56.0375 86.3714 56.7388 84.8256 58.4367L84.8205 58.4403C84.3096 59.0001 83.9782 59.5997 83.8095 60.1893C83.7227 60.5023 83.4214 60.7805 83.0483 60.8742L81.561 61.2453C81.3006 61.3094 81.0954 61.1696 81.1245 60.9525C81.2875 59.78 81.8739 58.5478 82.9018 57.4208C85.4287 54.6482 89.6619 53.5406 92.4929 54.8703C92.6211 54.93 92.81 54.883 92.9208 54.7599L93.6706 53.9352Z" fill="#1074CC"/>
<path d="M73.5558 41.1134C74.0517 40.9852 74.5278 41.3456 74.5668 41.8695C74.7658 44.699 74.138 47.6288 72.5737 50.2567C68.7289 56.7223 60.6965 58.9664 54.3937 55.4408C54.1084 55.2822 53.7493 55.3764 53.5812 55.6635L52.4409 57.5868C52.1581 58.0565 51.4722 57.9568 51.3483 57.4237L49.6161 49.8895C49.5385 49.5661 49.7334 49.2266 50.0583 49.141L57.4033 47.2162C57.9249 47.0793 58.3366 47.6577 58.0539 48.1276L56.8874 50.0856C56.7105 50.3902 56.8033 50.7921 57.1057 50.9508C61.0117 52.9796 65.8889 51.5479 68.2402 47.5885L68.249 47.5797C69.0267 46.2745 69.4247 44.8536 69.4995 43.4398C69.5336 42.6893 70.0158 42.046 70.7255 41.8578L73.5558 41.1134Z" fill="#1074CC"/>
<path d="M69.2492 29.1488C69.5218 28.6789 70.1827 28.7785 70.3015 29.3117L71.9631 36.8453C72.0375 37.1687 71.8495 37.5083 71.5366 37.5939L64.4619 39.5202C63.9595 39.6571 63.5635 39.0789 63.8361 38.609L64.9611 36.6508C65.1317 36.3462 65.0428 35.9443 64.7519 35.7855C60.9922 33.7576 56.294 35.1902 54.0266 39.15L54.0182 39.1588C53.2682 40.4643 52.8839 41.8852 52.8107 43.299C52.7772 44.0495 52.3122 44.6931 51.6286 44.8815L48.9025 45.6264C48.4249 45.7547 47.9665 45.3942 47.9294 44.8703C47.7402 42.0408 48.3472 39.1108 49.8559 36.4826C53.5638 30.0163 61.3005 27.7707 67.3669 31.2951C67.6415 31.4537 67.9875 31.3594 68.1496 31.0722L69.2492 29.1488Z" fill="#1074CC"/>
<path d="M41.3005 19.4992C41.6143 19.4986 41.9285 19.4998 42.2426 19.5023C42.3139 19.503 42.3845 19.5272 42.4391 19.5744C42.4938 19.6215 42.5281 19.6873 42.5346 19.7579C42.5411 19.8286 42.5192 19.8994 42.4741 19.9557C42.4289 20.0121 42.3638 20.0488 42.2939 20.0624C41.9855 20.1221 41.6768 20.1802 41.3681 20.2367C40.9435 20.3145 40.5186 20.3894 40.0934 20.4613C37.8311 20.849 35.7509 21.8489 34.0683 23.3107C32.0805 25.033 30.6447 27.3976 30.0676 30.0731C30.0032 30.3703 29.9491 30.6701 29.9057 30.975C29.8957 31.0455 29.8624 31.1123 29.8085 31.1603C29.7546 31.2083 29.6848 31.2339 29.614 31.2311C29.5431 31.2282 29.4757 31.1973 29.4257 31.1452C29.3758 31.093 29.348 31.0237 29.3437 30.9525C29.3253 30.63 29.3212 30.3079 29.3322 29.984C29.4145 27.0649 30.8088 24.1336 33.0854 22.1776C34.9993 20.5057 37.5153 19.5464 40.0063 19.5104C40.4374 19.5037 40.8689 19.4999 41.3005 19.4992Z" fill="#1074CC"/>
</g>
</g>
</svg>
