<svg fill="none" viewBox="0 0 12 12" xmlns="http://www.w3.org/2000/svg">
  <path fill="#000" d="M9.235 3.93c.407.406.432 1.06.076 1.498l-.076.085L7.727 7.02l3.127 3.126a.5.5 0 0 1-.707.707L7.02 7.727 5.513 9.234a1.126 1.126 0 0 1-1.534.047l-.022-.02-.048-.05.708-.708.031.034q.03.023.077.023a.12.12 0 0 0 .081-.033l3.722-3.72a.12.12 0 0 0 .032-.086.12.12 0 0 0-.032-.085l-.023-.021.708-.708.022.022ZM9.646.646a.5.5 0 0 1 .707.707l-9 9a.5.5 0 1 1-.707-.707zM3.93.828c.412-.413.964-.39 1.356-.192.378.193.715.6.715 1.114 0 .153-.011.291-.019.396a2 2 0 0 0-.008.245c.006.08.02.145.13.255a1 1 0 0 0 .068.06l-.71.709-.065-.062a1.34 1.34 0 0 1-.42-.898c-.01-.136 0-.27.007-.378.008-.116.017-.217.017-.327 0-.06-.05-.162-.168-.222a.24.24 0 0 0-.124-.03.1.1 0 0 0-.053.02l-.02.017-3.1 3.102c-.035.035-.07.127-.03.245a.2.2 0 0 0 .061.1.08.08 0 0 0 .054.018c.11 0 .218-.008.348-.016.122-.008.268-.016.416-.008.318.018.661.112.97.42l.06.067-.708.708a1 1 0 0 0-.06-.068c-.09-.09-.176-.12-.317-.129-.082-.004-.175 0-.298.008A6 6 0 0 1 1.62 6c-.566 0-.93-.401-1.064-.802-.13-.392-.088-.908.273-1.269z"/>
</svg>
