<svg width="12" height="12" viewBox="0 0 12 12" fill="none" xmlns="http://www.w3.org/2000/svg">
<g clip-path="url(#clip0_11743_76136)">
<path d="M7.84375 3C8.48223 3.00002 8.99987 3.51779 9 4.15625V5.5C8.99988 5.77598 8.77598 5.9999 8.5 6C8.22403 5.99988 8.00012 5.77597 8 5.5V4.70703L4.70703 8H5.5C5.77613 8.00001 6 8.22386 6 8.5C6 8.77614 5.77613 8.99999 5.5 9H4.15625C3.51777 8.99998 3.00013 8.48221 3 7.84375V6.5C3.00012 6.22402 3.22402 6.0001 3.5 6C3.77597 6.00012 3.99988 6.22403 4 6.5V7.29297L7.29297 4H6.5C6.22387 3.99999 6 3.77613 6 3.5C6 3.22387 6.22387 3.00001 6.5 3H7.84375Z" fill="black"/>
<path fill-rule="evenodd" clip-rule="evenodd" d="M9 0C10.6569 6.03999e-08 12 1.34315 12 3V9C12 10.6569 10.6569 12 9 12H3C1.39489 12 0.0842144 10.7394 0.00390625 9.1543L0 9V3C1.48745e-07 1.34315 1.34315 6.0399e-08 3 0H9ZM3 1C1.89543 1 1 1.89543 1 3V9L1.01074 9.2041C1.113 10.2128 1.96435 11 3 11H9C10.1046 11 11 10.1046 11 9V3C11 1.89543 10.1046 1 9 1H3Z" fill="black"/>
</g>
<defs>
<clipPath id="clip0_11743_76136">
<rect width="12" height="12" fill="white"/>
</clipPath>
</defs>
</svg>
