<svg width="24" height="24" viewBox="0 0 24 24" fill="none" xmlns="http://www.w3.org/2000/svg">
<path d="M18.375 10.5C18.375 14.8492 14.8492 18.375 10.5 18.375C6.15076 18.375 2.625 14.8492 2.625 10.5C2.625 6.15076 6.15076 2.625 10.5 2.625C14.8492 2.625 18.375 6.15076 18.375 10.5Z" fill="#A1D0F7"/>
<path d="M10.5 4C11.27 4 12.0087 4.13395 12.6941 4.37977C13.0548 4.50913 12.8832 5 12.5 5C8.35786 5 5 8.35786 5 12.5C5 12.8832 4.50913 13.0548 4.37977 12.6941C4.13395 12.0087 4 11.27 4 10.5C4 6.91015 6.91015 4 10.5 4Z" fill="#E6F6FF"/>
<path d="M10.5002 2.01953C15.184 2.01953 18.981 5.81644 18.981 10.5002C18.981 12.5609 18.2459 14.4497 17.0239 15.9192L21.7714 20.6665C22.0765 20.9716 22.0765 21.4663 21.7714 21.7714C21.4663 22.0764 20.9716 22.0765 20.6665 21.7714L15.9192 17.0239C14.4497 18.2459 12.5609 18.981 10.5002 18.981C5.81644 18.981 2.01953 15.184 2.01953 10.5002C2.01953 5.81644 5.81644 2.01953 10.5002 2.01953ZM10.5002 3.23096C6.48556 3.23096 3.23096 6.48556 3.23096 10.5002C3.23096 14.5149 6.48556 17.7695 10.5002 17.7695C14.5149 17.7695 17.7695 14.5149 17.7695 10.5002C17.7695 6.48556 14.5149 3.23096 10.5002 3.23096Z" fill="#045EB2"/>
</svg>
