<svg fill="none" viewBox="0 0 12 12" xmlns="http://www.w3.org/2000/svg">
  <path fill="#000" d="M7.97 0A3.03 3.03 0 0 1 11 3.031V8.97l-.004.156A3.03 3.03 0 0 1 7.97 12H4.03A3.03 3.03 0 0 1 1 8.969V2.883A2.883 2.883 0 0 1 3.883 0 2.62 2.62 0 0 1 6.5 2.618v3.674l1.18-1.18a.5.5 0 0 1 .708.706L7.083 7.125a1.53 1.53 0 0 1-2.166 0L3.611 5.818a.5.5 0 0 1 .707-.707l1.183 1.183V2.618C5.501 1.725 4.776 1 3.883 1 2.843 1 2 1.843 2 2.883v6.086c0 1.122.91 2.03 2.031 2.031H7.97c1.051 0 1.916-.8 2.02-1.823l.011-.208V3.03c0-1.12-.91-2.03-2.031-2.03h-.116a.5.5 0 0 1 0-1z"/>
</svg>
