<svg width="128" height="96" viewBox="0 0 128 96" fill="none" xmlns="http://www.w3.org/2000/svg">
<path d="M81.4841 20.5313C85.6127 20.531 88.9594 23.8776 88.9592 28.0061L88.9573 55.8936C89.8364 56.4436 90.4459 57.396 90.5137 58.51L90.8157 63.4797C90.9269 65.3112 89.5326 66.8861 87.7012 66.9976L87.0908 67.0344C85.7209 68.5888 83.7156 69.5699 81.481 69.5701L39.9204 69.5728C35.7919 69.573 32.4451 66.2262 32.4453 62.0977L32.4475 28.0098C32.4478 23.8811 35.795 20.5339 39.9236 20.5337L81.4841 20.5313Z" fill="#4397E0"/>
<path fill-rule="evenodd" clip-rule="evenodd" d="M85.1605 23.7484C89.2815 23.4979 92.8252 26.6355 93.0758 30.7564L95.1446 64.7814C95.3952 68.9023 92.2575 72.4463 88.1366 72.6969L46.6522 75.2191C42.5313 75.4696 38.9875 72.332 38.7369 68.211L36.6683 34.1861C36.4178 30.0651 39.5554 26.5212 43.6764 26.2706L85.1605 23.7484ZM54.2555 60.6564C54.1441 58.8249 52.5691 57.4306 50.7377 57.5419L45.6378 57.8519C43.8063 57.9633 42.4117 59.5382 42.5231 61.3697L42.829 66.3988C42.9403 68.2303 44.5153 69.6248 46.3468 69.5135L51.4466 69.2035C53.2781 69.0921 54.6724 67.5171 54.5611 65.6856L54.2555 60.6564ZM90.515 58.5082C90.4036 56.6767 88.8284 55.2823 86.9969 55.3937L81.9571 55.7001C80.1256 55.8114 78.7311 57.3864 78.8424 59.2179L79.1446 64.1876C79.2561 66.0191 80.8312 67.4135 82.6627 67.3021L87.7025 66.9957C89.534 66.8843 90.9283 65.3094 90.817 63.4779L90.515 58.5082Z" fill="#A1D0F7"/>
<path d="M90.5644 64.9648C91.1075 65.3822 91.4742 66.0229 91.519 66.7603C91.6012 68.1119 90.5721 69.2742 89.2204 69.3564L44.8703 72.053C43.5187 72.1351 42.3563 71.106 42.2741 69.7544C42.2242 68.9326 42.5855 68.1811 43.1799 67.6995C43.7608 68.8452 44.9821 69.5975 46.3459 69.5146L51.4458 69.2046C52.9794 69.1113 54.2063 67.9915 54.4995 66.5544L79.3103 65.0459C79.7764 66.4352 81.1293 67.3964 82.6618 67.3032L87.7016 66.9968C89.007 66.9174 90.0901 66.0942 90.5644 64.9648Z" fill="#CBEAFF"/>
<path d="M57.0008 43.3665C57.3067 41.093 59.3983 39.4938 61.6724 39.7945L75.0754 41.5668C77.3495 41.8675 78.9451 43.9543 78.6393 46.2277L76.8527 59.506C76.5468 61.7795 74.4553 63.3787 72.1811 63.078L58.7782 61.3057C56.504 61.005 54.9084 58.9182 55.2143 56.6447L57.0008 43.3665Z" fill="#F05F2B"/>
<path d="M73.5593 52.3138C74.0481 48.6809 71.4816 45.3354 67.8151 44.8505C64.1485 44.3657 60.7871 46.9273 60.2982 50.5603C59.8094 54.1933 62.3761 57.5388 66.0427 58.0236C69.7093 58.5084 73.0705 55.9468 73.5593 52.3138ZM75.6947 52.5962C75.0462 57.4164 70.5923 60.7961 65.7557 60.1566C60.919 59.5171 57.5142 55.0982 58.1628 50.2779C58.8114 45.4577 63.2654 42.0782 68.102 42.7177C72.9386 43.3573 76.3432 47.7759 75.6947 52.5962Z" fill="#FFB294"/>
<path d="M32.7783 27.9343C32.8509 27.9343 32.9208 27.9634 32.9731 28.0146C33.0254 28.0659 33.0555 28.1355 33.0596 28.208C33.0908 28.7732 33.1204 29.3386 33.1484 29.9038C33.4012 34.9916 33.5274 40.0797 33.5271 45.1675C33.5268 50.2552 33.4002 55.3431 33.1467 60.4309C33.1186 60.9961 33.0887 61.5615 33.0574 62.1267C33.0533 62.1992 33.0233 62.269 32.9709 62.3203C32.9186 62.3716 32.8486 62.4004 32.7761 62.4004C32.7036 62.4004 32.6336 62.3716 32.5813 62.3203C32.529 62.269 32.4989 62.1992 32.4949 62.1267C32.4637 61.5615 32.4341 60.9961 32.406 60.4309C32.1532 55.3431 32.027 50.255 32.0273 45.1672C32.0277 40.0795 32.1545 34.9918 32.408 29.9041C32.4361 29.3388 32.4658 28.7733 32.4971 28.208C32.5011 28.1355 32.5313 28.0659 32.5835 28.0146C32.6358 27.9634 32.7058 27.9343 32.7783 27.9343Z" fill="#1074CC"/>
<path d="M80.6033 34.6394C80.6711 34.646 80.7327 34.6756 80.7764 34.7236C80.82 34.7716 80.8436 34.8355 80.8438 34.9036C80.8439 34.9717 80.8204 35.0381 80.7852 35.0955C80.7257 35.1917 80.6651 35.2869 80.6035 35.3809C80.0497 36.2261 79.4105 36.9779 78.6865 37.6362C77.9625 38.2945 77.1534 38.8593 76.2593 39.3306C76.1599 39.3829 76.0592 39.4343 75.9578 39.4844C75.8973 39.514 75.8291 39.5313 75.7612 39.5247C75.6934 39.5181 75.6318 39.4886 75.5881 39.4407C75.5445 39.3927 75.5212 39.3286 75.521 39.2605C75.5208 39.1924 75.5444 39.1262 75.5796 39.0688C75.639 38.9727 75.6995 38.8776 75.761 38.7837C76.3149 37.9384 76.9542 37.1867 77.6782 36.5283C78.4023 35.87 79.2112 35.3048 80.1055 34.8335C80.2048 34.7811 80.3053 34.73 80.4067 34.6799C80.4672 34.6503 80.5354 34.6328 80.6033 34.6394Z" fill="#1074CC"/>
<path d="M70.7139 28.2717C70.7721 28.2333 70.8409 28.2176 70.9072 28.2285C70.9735 28.2394 71.0335 28.2763 71.0762 28.3313C71.1188 28.3863 71.14 28.4548 71.1433 28.5232C71.1501 28.6723 71.1554 28.8213 71.1592 28.97C71.1928 30.3079 71.1014 31.6254 70.8853 32.9224C70.6691 34.2193 70.3282 35.496 69.8623 36.752C69.8106 36.8914 69.7572 37.0307 69.7024 37.1697C69.6771 37.2334 69.6347 37.2916 69.5764 37.3301C69.5182 37.3685 69.4494 37.3844 69.3831 37.3735C69.3168 37.3626 69.2567 37.3255 69.2141 37.2705C69.1715 37.2155 69.1505 37.1468 69.1472 37.0784C69.1404 36.9293 69.1351 36.7804 69.1313 36.6318C69.0977 35.2939 69.1891 33.9764 69.4053 32.6794C69.6214 31.3825 69.9623 30.1058 70.4282 28.8499C70.48 28.7104 70.5333 28.5711 70.5881 28.4321C70.6134 28.3684 70.6556 28.3102 70.7139 28.2717Z" fill="#1074CC"/>
<path d="M60.2466 20.0293C66.2069 20.0289 72.1674 20.155 78.1277 20.4077C78.7899 20.4358 79.4523 20.4656 80.1145 20.4968C80.1873 20.5003 80.2574 20.5302 80.3088 20.5825C80.3603 20.6349 80.3892 20.7053 80.3892 20.7781C80.3891 20.8509 80.3601 20.9208 80.3086 20.9731C80.2571 21.0255 80.1871 21.0556 80.1143 21.0591C79.4521 21.0904 78.7898 21.1203 78.1277 21.1484C72.1673 21.4019 66.2067 21.5287 60.2463 21.5291C54.2861 21.5294 48.3257 21.4034 42.3655 21.1506C41.7032 21.1226 41.0409 21.0927 40.3787 21.0615C40.3059 21.0581 40.2358 21.0282 40.1843 20.9758C40.1329 20.9235 40.104 20.8533 40.104 20.7805C40.104 20.7077 40.1329 20.6376 40.1843 20.5852C40.2358 20.5328 40.3058 20.5025 40.3787 20.499C41.0409 20.4677 41.7032 20.4381 42.3655 20.4099C48.3258 20.1564 54.2863 20.0297 60.2466 20.0293Z" fill="#1074CC"/>
<path fill-rule="evenodd" clip-rule="evenodd" d="M85.1131 22.9998C89.6475 22.7241 93.5469 26.1765 93.8226 30.711L95.8912 64.7359C96.1668 69.2703 92.7146 73.1696 88.1802 73.4454L46.6961 75.9676C42.1617 76.2433 38.2621 72.7908 37.9864 68.2564L35.9178 34.2315C35.6421 29.697 39.0945 25.7977 43.629 25.522L85.1131 22.9998ZM92.3252 30.802C92.0998 27.0945 88.9117 24.2715 85.2041 24.4969L43.72 27.0191C40.0125 27.2445 37.1897 30.4329 37.4151 34.1404L39.4837 68.1653C39.7091 71.8729 42.8975 74.6957 46.605 74.4703L88.0892 71.948C91.7967 71.7226 94.6193 68.5342 94.3938 64.8267L92.3252 30.802Z" fill="#045EB2"/>
</svg>
