<svg width="16" height="16" viewBox="0 0 16 16" fill="none" xmlns="http://www.w3.org/2000/svg">
<path d="M6 1.5H4C2.067 1.5 0.5 3.067 0.5 5V11C0.5 12.933 2.067 14.5 4 14.5H12C13.933 14.5 15.5 12.933 15.5 11V7C15.5 5.067 13.933 3.5 12 3.5H10C9.21311 3.5 8.47214 3.12951 8 2.5C7.52786 1.87049 6.78689 1.5 6 1.5Z" fill="#A1D0F7"/>
<path d="M6 1.5H4C2.067 1.5 0.5 3.067 0.5 5V6.5H15.5L13.5 3.5H10C9.21311 3.5 8.47214 3.12951 8 2.5C7.52786 1.87049 6.78689 1.5 6 1.5Z" fill="#4397E0"/>
<path d="M6 1C6.94427 1 7.83334 1.44478 8.3999 2.2002C8.77761 2.70376 9.37052 3 10 3H12C14.2091 3 16 4.79086 16 7V11C16 13.2091 14.2091 15 12 15H4C1.79086 15 9.66384e-08 13.2091 0 11V5C9.66416e-08 2.79086 1.79086 1 4 1H6ZM1 7V11C1 12.6569 2.34315 14 4 14H12C13.6569 14 15 12.6569 15 11V7H1ZM4 2C2.34315 2 1 3.34315 1 5V6H14.8286C14.4167 4.83492 13.3061 4 12 4H10C9.05573 4 8.16666 3.55522 7.6001 2.7998C7.22239 2.29624 6.62948 2 6 2H4Z" fill="#045EB2"/>
</svg>
