<svg width="96" height="96" viewBox="0 0 96 96" fill="none" xmlns="http://www.w3.org/2000/svg">
<path d="M47.9951 31.999L75.7034 31.999C72.8957 27.1342 68.8566 23.0944 63.9923 20.2857C59.128 17.4771 53.6099 15.9986 47.993 15.999C42.3761 15.9994 36.8582 17.4787 31.9943 20.288C27.1304 23.0973 23.0919 27.1377 20.2848 32.0029L34.139 55.999L34.1513 55.9958C32.742 53.5655 31.9983 50.8066 31.9951 47.9972C31.9919 45.1878 32.7295 42.4273 34.1333 39.9938C35.5372 37.5603 37.5578 35.5399 39.9914 34.1364C42.4251 32.7328 45.1857 31.9955 47.9951 31.999Z" fill="url(#paint0_linear_12697_79597)"/>
<path d="M75.7117 31.9971C78.5215 36.8606 80.0012 42.3782 80.0022 47.9951C80.0029 52.0386 79.2371 56.031 77.7605 59.7651C76.5606 59.4478 75.3004 59.2786 74.0007 59.2786C65.9006 59.2786 59.334 65.8451 59.334 73.9453C59.334 75.254 59.5056 76.5226 59.8271 77.73C56.0782 79.2201 52.0678 79.9935 48.0056 79.9929L61.8599 55.9968C63.2675 53.5656 64.0095 50.8062 64.0107 47.9968C64.012 45.1875 63.2727 42.4274 61.8672 39.9949C60.4617 37.5624 58.4397 35.5433 56.0051 34.1414C53.5706 32.7394 50.8094 32.0039 48 32.0093L48.0034 31.9971H75.7117Z" fill="url(#paint1_linear_12697_79597)"/>
<path d="M34.1445 56.004L20.2904 32.0078C17.4812 36.8718 16.0022 42.3897 16.002 48.0066C16.0017 53.6236 17.4804 59.1415 20.2892 64.0058C23.098 68.87 27.138 72.9089 32.0029 75.7165C36.8678 78.5241 42.3861 80.0014 48.003 79.9998L61.8572 56.0037L61.8482 55.9946C60.4482 58.4303 58.4308 60.4538 55.9994 61.8613C53.568 63.2687 50.8085 64.0103 47.9991 64.0112C45.1897 64.0121 42.4297 63.2724 39.9973 61.8667C37.565 60.4609 35.5462 58.4387 34.1445 56.004Z" fill="url(#paint2_linear_12697_79597)"/>
<path d="M48 64C56.8366 64 64 56.8366 64 48C64 39.1634 56.8366 32 48 32C39.1634 32 32 39.1634 32 48C32 56.8366 39.1634 64 48 64Z" fill="white"/>
<path d="M48.0007 60.6673C54.9963 60.6673 60.6673 54.9963 60.6673 48.0007C60.6673 41.005 54.9963 35.334 48.0007 35.334C41.005 35.334 35.334 41.005 35.334 48.0007C35.334 54.9963 41.005 60.6673 48.0007 60.6673Z" fill="#1A73E8"/>
<path d="M90.8458 65.619C91.7216 65.5234 92.6115 65.5541 93.515 65.7113C93.5861 65.7237 93.6575 65.7369 93.7288 65.7509C93.7966 65.7644 93.8631 65.7918 93.9151 65.8385C93.9671 65.8852 94.0002 65.9466 94.0074 66.0126C94.0146 66.0786 93.9956 66.1457 93.9549 66.2025C93.9142 66.2593 93.8548 66.3005 93.7916 66.3283C93.725 66.3572 93.6584 66.3855 93.5916 66.413C92.7433 66.7615 91.8811 66.9833 91.0052 67.079C90.6391 67.119 90.2626 67.0643 89.8758 66.9142C89.8029 66.8859 89.7295 66.854 89.6558 66.819C89.5874 66.7858 89.521 66.7473 89.4696 66.6959C89.4181 66.6445 89.3856 66.5835 89.3785 66.518C89.3714 66.4525 89.39 66.3861 89.429 66.3248C89.4682 66.2635 89.5246 66.2114 89.5843 66.1642C89.6486 66.1141 89.7136 66.0674 89.7786 66.0241C90.124 65.794 90.4797 65.659 90.8458 65.619Z" fill="#CC3B0A"/>
<path d="M91.023 57.7704C91.0943 57.77 91.162 57.7947 91.2127 57.8407C91.2634 57.8868 91.2944 57.952 91.3008 58.0231C91.3073 58.0942 91.2881 58.1653 91.2545 58.2269C91.2093 58.3088 91.1637 58.3893 91.117 58.4699C90.5261 59.4905 89.8098 60.4036 89.0264 61.2252C88.6985 61.5692 88.3054 61.8475 87.8438 62.0675C87.7567 62.1092 87.6675 62.1482 87.5753 62.1859C87.5043 62.2146 87.4283 62.2353 87.3529 62.2326C87.2774 62.2298 87.2084 62.2042 87.1566 62.1571C87.1048 62.11 87.073 62.0438 87.0631 61.9689C87.0532 61.894 87.0662 61.8164 87.088 61.743C87.1175 61.6469 87.1494 61.5535 87.1844 61.462C87.3693 60.9778 87.6315 60.5597 87.9632 60.2118C88.7581 59.3782 89.6423 58.6575 90.5972 57.9926C90.6727 57.94 90.748 57.8881 90.8245 57.8361C90.8827 57.7967 90.9516 57.7708 91.023 57.7704Z" fill="#CC3B0A"/>
<path d="M83.546 54.2872C83.6066 54.2521 83.6755 54.2398 83.7408 54.2535C83.806 54.2673 83.864 54.3064 83.9053 54.3629C83.9467 54.4196 83.9675 54.4892 83.9735 54.5582C83.9797 54.6332 83.9849 54.708 83.9896 54.7826C84.0494 55.7304 83.9851 56.652 83.796 57.5472C83.7169 57.9215 83.544 58.276 83.2779 58.6107C83.2278 58.6737 83.1743 58.7361 83.1175 58.7977C83.0656 58.8533 83.0088 58.9053 82.9437 58.9386C82.8785 58.9719 82.8096 58.9839 82.7445 58.9701C82.6794 58.9563 82.6214 58.9175 82.5753 58.8607C82.5292 58.8039 82.4985 58.7333 82.4735 58.6615C82.4465 58.5822 82.4225 58.5036 82.4022 58.4257C82.2941 58.0119 82.2797 57.6178 82.3587 57.2435C82.5478 56.3484 82.8612 55.4792 83.2991 54.6366C83.3336 54.5703 83.3691 54.5041 83.4051 54.4381C83.4385 54.3774 83.4853 54.3223 83.546 54.2872Z" fill="#CC3B0A"/>
<path d="M62 74C62 67.3726 67.3726 62 74 62C80.6274 62 86 67.3726 86 74C86 80.6274 80.6274 86 74 86C67.3726 86 62 80.6274 62 74Z" fill="#F05F2B"/>
<path fill-rule="evenodd" clip-rule="evenodd" d="M74 63.5332C68.2194 63.5332 63.5332 68.2194 63.5332 74C63.5332 79.7807 68.2194 84.4669 74 84.4669C79.7807 84.4669 84.4669 79.7807 84.4669 74C84.4669 68.2194 79.7807 63.5332 74 63.5332ZM64.967 74C64.967 69.0112 69.0112 64.967 74 64.967C78.9888 64.967 83.0331 69.0112 83.0331 74C83.0331 78.4193 79.8595 82.0974 75.6671 82.8796C74.5775 80.3778 73.4423 77.3819 74.5533 77.0508C73.2307 74.6663 73.4981 73.1 76.2431 73.5828L76.2473 73.5833C76.5549 73.6183 76.7881 73.6448 76.861 73.5984C77.2327 73.3618 77.0021 68.1669 73.775 67.4613C70.8051 63.787 67.9784 67.9779 69.4122 67.6911C70.5592 67.4044 71.411 67.6691 71.3715 67.6805C66.3052 68.3193 68.6609 76.3014 69.9612 80.7073C70.14 81.3134 70.2989 81.8517 70.4158 82.294C67.21 80.9068 64.967 77.7154 64.967 74Z" fill="white"/>
<path d="M77.9673 81.567C77.9354 81.7729 77.8644 81.9102 77.7381 81.9294C77.4986 81.966 76.4272 81.7207 75.8183 81.4892C75.749 81.8077 74.1168 82.1092 73.8584 81.6814C73.2661 82.1934 72.1313 82.936 71.8941 82.7805C71.4397 82.483 71.0123 80.1924 71.3543 79.7083C71.8738 79.2361 72.9659 79.7499 73.7321 80.0213C73.9919 79.582 75.2498 79.4154 75.5109 79.776C76.1989 79.253 77.3471 78.5154 77.459 78.6499C78.0172 79.3225 78.0877 80.9232 77.9669 81.5674L77.9673 81.567Z" fill="#4CBA3C"/>
<path fill-rule="evenodd" clip-rule="evenodd" d="M72.147 74.6523C72.3812 72.9908 75.5198 73.5106 76.9233 73.3239C77.9461 73.2054 78.7052 72.9538 79.2108 72.7575C80.3716 72.2807 80.5693 72.7538 80.0017 73.4964C78.3991 75.3963 74.8349 74.0135 74.1968 74.9959C74.0103 75.287 74.1545 75.972 75.6205 76.1879C77.6014 76.479 79.2287 75.837 79.4296 76.225C78.978 78.2988 71.4572 77.5927 72.1461 74.6528L72.147 74.6523Z" fill="#FFCC33"/>
<path d="M76.1543 69.8598C75.9467 69.41 74.8793 69.4132 74.6753 69.8424C74.6567 69.9311 74.731 69.9077 74.8726 69.8631C75.1208 69.785 75.5756 69.6418 76.0995 69.9221C76.1408 69.9399 76.1808 69.8969 76.1543 69.8598Z" fill="#14307E"/>
<path d="M70.9387 69.9678C70.7405 69.9535 70.4188 69.9303 70.1529 70.078C69.7628 70.2441 69.637 70.423 69.5615 70.5457C69.5336 70.591 69.4258 70.5864 69.4258 70.5329C69.4523 69.8172 70.6657 69.4722 71.107 69.917C71.1605 69.9838 71.0819 69.9781 70.9387 69.9678Z" fill="#14307E"/>
<path d="M75.7742 72.3669C74.9576 72.3628 74.9576 71.104 75.7742 71.0999C76.5907 71.104 76.5907 72.3628 75.7742 72.3669Z" fill="#14307E"/>
<path d="M71.6362 72.1717C71.62 73.1426 70.1967 73.1426 70.1805 72.1717C70.185 71.2052 71.6317 71.2057 71.6362 72.1717Z" fill="#14307E"/>
<defs>
<linearGradient id="paint0_linear_12697_79597" x1="72.2467" y1="30.0022" x2="44.5375" y2="77.9961" gradientUnits="userSpaceOnUse">
<stop stop-color="#D93025"/>
<stop offset="1" stop-color="#EA4335"/>
</linearGradient>
<linearGradient id="paint1_linear_12697_79597" x1="77.5282" y1="35.9993" x2="22.1096" y2="35.9993" gradientUnits="userSpaceOnUse">
<stop stop-color="#FCC934"/>
<stop offset="1" stop-color="#FBBC04"/>
</linearGradient>
<linearGradient id="paint2_linear_12697_79597" x1="51.4638" y1="78.0018" x2="23.7545" y2="30.0078" gradientUnits="userSpaceOnUse">
<stop stop-color="#1E8E3E"/>
<stop offset="1" stop-color="#34A853"/>
</linearGradient>
</defs>
</svg>
