<svg width="96" height="96" viewBox="0 0 96 96" fill="none" xmlns="http://www.w3.org/2000/svg">
<path d="M31.6035 24.7227C31.6035 22.1468 33.6917 20.0586 36.2676 20.0586H77.3364C79.9123 20.0586 82.0005 22.1468 82.0005 24.7227V50.0859C82.0005 52.6618 79.9123 54.75 77.3364 54.75H36.2676C33.6917 54.75 31.6035 52.6618 31.6035 50.0859V24.7227Z" fill="#589D88"/>
<path fill-rule="evenodd" clip-rule="evenodd" d="M77.4559 20.0601C79.9761 20.1239 81.9995 22.187 81.9996 24.7227V50.0859L81.9981 50.2063C81.9352 52.6866 79.9361 54.6857 77.4559 54.7485L77.3355 54.75H36.2666C33.731 54.7499 31.6679 52.7265 31.6041 50.2063L31.6026 50.0859V24.7227C31.6026 22.1468 33.6908 20.0586 36.2666 20.0586H77.3355L77.4559 20.0601ZM33.1026 50.0859C33.1026 51.8334 34.5192 53.2499 36.2666 53.25H77.3355C79.0829 53.25 80.4995 51.8334 80.4996 50.0859V33.1992H33.1026V50.0859ZM36.2666 21.5586C34.5192 21.5586 33.1026 22.9752 33.1026 24.7227V26.1033H80.4996V24.7227C80.4995 22.9752 79.0829 21.5586 77.3355 21.5586H36.2666Z" fill="#11604D"/>
<path d="M26.9805 28.9646C27.0195 28.9583 27.0606 28.9653 27.0948 28.9861C27.129 29.0069 27.1537 29.0401 27.1636 29.0781C27.1735 29.1162 27.1681 29.1568 27.1485 29.1917C27.1288 29.2266 27.0965 29.2525 27.0594 29.2661C26.8878 29.3289 26.7247 29.3935 26.5613 29.4622C25.0853 30.076 23.8009 31.0112 22.8916 32.2478C21.9814 33.4798 21.4078 34.9802 21.2378 36.5554C21.2204 36.7269 21.2091 36.9085 21.2059 37.0803C21.2053 37.1198 21.1915 37.1589 21.1651 37.189C21.1387 37.219 21.102 37.2377 21.0628 37.241C21.0236 37.2441 20.9841 37.2317 20.9532 37.2063C20.9223 37.1809 20.9023 37.1446 20.8953 37.1057C20.8631 36.9257 20.841 36.7336 20.8274 36.5508C20.7157 34.8755 21.1982 33.1376 22.2239 31.7527C23.2434 30.3584 24.8139 29.4309 26.4363 29.071C26.6165 29.0298 26.7949 28.9953 26.9805 28.9646Z" fill="#11604D"/>
<path d="M21.0249 29.0139C21.0631 29.0091 21.1031 29.0153 21.137 29.0347C21.1709 29.0541 21.1963 29.085 21.2073 29.1213C21.2183 29.1577 21.2147 29.1974 21.1973 29.2324C21.1799 29.2675 21.1499 29.2947 21.1155 29.312C21.0319 29.3555 20.9516 29.405 20.8748 29.4587C20.1927 29.9559 19.7462 30.7088 19.3553 31.468C18.9783 32.2363 18.6427 33.0517 18.5367 33.907C18.5267 34.003 18.5211 34.0986 18.521 34.1929C18.5216 34.2314 18.511 34.2706 18.4878 34.3022C18.4648 34.3337 18.4314 34.3553 18.3941 34.3623C18.3567 34.3692 18.3176 34.361 18.2847 34.3398C18.2518 34.3187 18.2278 34.2861 18.2144 34.25C18.1777 34.1474 18.149 34.04 18.127 33.9309C17.9468 32.9502 18.1859 31.9616 18.6124 31.0952C19.048 30.2416 19.7251 29.4152 20.6985 29.0881C20.8056 29.0545 20.9153 29.0291 21.0249 29.0139Z" fill="#11604D"/>
<path d="M14.0348 47.1219C13.6553 44.5181 15.4585 42.0996 18.0624 41.7201L58.2978 35.8559C60.9016 35.4764 63.3201 37.2796 63.6996 39.8834L67.2958 64.5572C67.6753 67.1611 65.8721 69.5796 63.2682 69.9591L23.0328 75.8233C20.4289 76.2028 18.0104 74.3996 17.6309 71.7957L14.0348 47.1219Z" fill="#FAB341"/>
<path d="M63.0519 68.4746L63.2682 69.959L23.0327 75.8232L22.8163 74.3388L63.0519 68.4746ZM65.8113 64.7736L62.2152 40.0997C61.9551 38.3157 60.2982 37.0802 58.5141 37.3402L18.2786 43.2044C16.4946 43.4645 15.2592 45.1215 15.5191 46.9055L19.1152 71.5794C19.3753 73.3634 21.0323 74.5988 22.8163 74.3388L23.0327 75.8232C20.4288 76.2026 18.0104 74.3995 17.6309 71.7957L14.0348 47.1218C13.6554 44.518 15.4585 42.0996 18.0622 41.7201L58.2978 35.8559L58.4198 35.8396C60.9767 35.5329 63.3259 37.3203 63.6995 39.8834L67.2957 64.5572C67.6692 67.1204 65.9279 69.5039 63.3898 69.9398L63.2682 69.959L63.0519 68.4746C64.836 68.2146 66.0714 66.5577 65.8113 64.7736Z" fill="black"/>
<path d="M63.0519 68.4746L63.2682 69.959L23.0327 75.8232L22.8163 74.3388L63.0519 68.4746ZM65.8113 64.7736L62.2152 40.0997C61.9551 38.3157 60.2982 37.0802 58.5141 37.3402L18.2786 43.2044C16.4946 43.4645 15.2592 45.1215 15.5191 46.9055L19.1152 71.5794C19.3753 73.3634 21.0323 74.5988 22.8163 74.3388L23.0327 75.8232C20.4288 76.2026 18.0104 74.3995 17.6309 71.7957L14.0348 47.1218C13.6554 44.518 15.4585 42.0996 18.0622 41.7201L58.2978 35.8559L58.4198 35.8396C60.9767 35.5329 63.3259 37.3203 63.6995 39.8834L67.2957 64.5572C67.6692 67.1204 65.9279 69.5039 63.3898 69.9398L63.2682 69.959L63.0519 68.4746C64.836 68.2146 66.0714 66.5577 65.8113 64.7736Z" fill="#B66A1F"/>
<path d="M44.2901 65.6413C44.3723 65.6306 44.4564 65.6535 44.5231 65.7039C44.5896 65.7544 44.6336 65.8285 44.6456 65.9105C44.6576 65.9925 44.6364 66.0762 44.5869 66.1436C44.5375 66.2109 44.4636 66.2567 44.3817 66.2699C44.0322 66.3262 43.6824 66.3825 43.3328 66.4388L24.4516 69.4798C24.102 69.5361 23.7524 69.5924 23.4029 69.6487C23.2366 69.6755 23.0671 69.6346 22.932 69.5339C22.797 69.4332 22.7073 69.2807 22.6826 69.1116C22.658 68.9424 22.7005 68.7706 22.8011 68.6356C22.9018 68.5005 23.0525 68.4131 23.2195 68.3913C23.5706 68.3454 23.9218 68.2997 24.2729 68.2539L43.2367 65.7789C43.5878 65.7331 43.939 65.6872 44.2901 65.6413Z" fill="#B66A1F"/>
<path d="M26.8862 64.0544C27.0279 64.0367 27.1724 64.0769 27.2871 64.1642C27.4019 64.2517 27.4777 64.3792 27.4983 64.5205C27.5189 64.6618 27.4825 64.8057 27.3975 64.9223C27.3124 65.0388 27.1855 65.1186 27.0446 65.1421C26.9747 65.1537 26.9048 65.1652 26.8349 65.1768C25.5758 65.3863 24.3166 65.5959 23.0575 65.8054C22.9876 65.817 22.9175 65.8287 22.8476 65.8403C22.6814 65.868 22.5123 65.828 22.3772 65.7273C22.2422 65.6266 22.1521 65.4733 22.1273 65.3032C22.1025 65.1332 22.1451 64.9607 22.2457 64.8258C22.3463 64.6907 22.4972 64.6041 22.6644 64.5832C22.7347 64.5744 22.8052 64.5655 22.8755 64.5567C24.142 64.3981 25.4086 64.2395 26.675 64.0809C26.7453 64.0721 26.8158 64.0632 26.8862 64.0544Z" fill="#B66A1F"/>
<path d="M60.6343 59.4628C60.6929 59.455 60.7527 59.4711 60.8002 59.5068C60.8477 59.5427 60.8792 59.5955 60.8878 59.654C60.8964 59.7125 60.8815 59.7721 60.8464 59.8201C60.8112 59.868 60.7584 59.9006 60.7 59.9099C60.2016 59.99 59.7031 60.0701 59.2048 60.1502C50.2335 61.5919 41.2621 63.0338 32.2908 64.4755C31.7924 64.5556 31.294 64.6357 30.7956 64.7158C30.6293 64.7425 30.4599 64.7018 30.3247 64.6012C30.1896 64.5007 30.0996 64.3483 30.0748 64.1793C30.05 64.0104 30.0925 63.8389 30.193 63.7038C30.2935 63.5687 30.444 63.481 30.611 63.4587C31.1113 63.3921 31.6119 63.3256 32.1122 63.259C41.1192 62.0602 50.1264 60.8613 59.1334 59.6625C59.6337 59.5959 60.1341 59.5293 60.6343 59.4628Z" fill="#B66A1F"/>
<path d="M30.7028 46.6401C32.4387 46.3871 34.051 47.5892 34.304 49.3251L34.932 53.634C35.185 55.3699 33.9829 56.9822 32.247 57.2352L24.296 58.394C22.5602 58.647 20.9479 57.4449 20.6949 55.709L20.0668 51.4001C19.8138 49.6642 21.0159 48.0519 22.7518 47.7989L30.7028 46.6401Z" fill="#B66A1F"/>
</svg>
