<svg width="12" height="12" viewBox="0 0 12 12" fill="none" xmlns="http://www.w3.org/2000/svg">
<g clip-path="url(#clip0_9653_44560)">
<path d="M6.375 0.125C6.72018 0.125 7 0.404822 7 0.75V7.05955L9.35522 5.14048C9.62282 4.92244 10.0165 4.96261 10.2345 5.2302C10.4526 5.4978 10.4124 5.89148 10.1448 6.10952L6.76982 8.85952C6.53994 9.04683 6.2101 9.04683 5.98022 8.85952L2.60522 6.10952C2.33763 5.89148 2.29746 5.4978 2.5155 5.2302C2.73354 4.96261 3.12722 4.92244 3.39482 5.14048L5.75 7.05952V0.75C5.75 0.404822 6.02982 0.125 6.375 0.125Z" fill="black"/>
<path d="M2.375 10.75C2.02982 10.75 1.75 11.0298 1.75 11.375C1.75 11.7202 2.02982 12 2.375 12L10.375 12C10.7202 12 11 11.7202 11 11.375C11 11.0298 10.7202 10.75 10.375 10.75L2.375 10.75Z" fill="black"/>
</g>
<defs>
<clipPath id="clip0_9653_44560">
<rect width="12" height="12" fill="white"/>
</clipPath>
</defs>
</svg>
