<svg width="928" height="928" viewBox="0 0 928 928" fill="none" xmlns="http://www.w3.org/2000/svg">
<path d="M464 0C720.26 0 928 207.74 928 464C928 720.26 720.26 928 464 928C207.74 928 0 720.26 0 464C0 207.74 207.74 0 464 0ZM464 48C234.25 48 48 234.25 48 464C48 647.286 166.535 802.886 331.127 858.326C330.798 857.835 330.539 857.29 330.363 856.703C325.185 839.433 308.831 782.972 265.493 608.394C216.759 412.081 180.521 252.109 363.585 202.134C365.37 201.647 366.085 199.404 364.717 198.154C343.622 178.893 307.826 175.461 272.776 182.427C272.041 182.573 271.385 182.398 270.88 182.042C268.917 182.459 267.337 180.469 268.577 178.763C277.355 166.695 293.434 157.056 303.852 151.69C296.695 145.461 287.263 141.106 279.206 138.364C279.01 138.298 278.831 138.206 278.666 138.098C278.596 138.086 278.526 138.074 278.456 138.062C275.577 137.599 275.317 132.676 278.208 132.288C281.178 131.89 284.154 131.544 287.132 131.25C294.84 130.451 303.17 129.946 311.213 130.003C373.078 129.684 432.799 151.547 465.201 192.257C465.56 192.708 466.08 193.024 466.645 193.146C589.766 219.518 612.155 393.724 604.722 441.595C647.799 436.477 679.872 426.007 701.362 417.815C732.267 406.025 743.235 408.654 747.081 415.709C751.306 423.461 746.327 436.847 735.528 449.169C714.901 472.706 677.819 490.943 612.327 496.356C546.835 501.77 503.447 484.202 484.77 512.804C476.715 525.14 482.943 554.214 546.277 563.369C631.861 575.721 702.151 548.487 710.837 564.935C719.521 581.383 669.493 614.849 583.77 615.55C549.405 615.831 520.212 611.062 496.344 604.265C450.112 615.615 512.049 767.397 558.522 869.212C742.735 826.411 880 661.237 880 464C880 234.25 693.75 48 464 48Z" fill="white"/>
</svg>
