<svg width="128" height="96" viewBox="0 0 128 96" fill="none" xmlns="http://www.w3.org/2000/svg">
<path d="M57.9512 17.7809C63.407 17.7448 76.7234 17.6526 82.6826 17.7281C83.8301 17.7427 84.4671 18.9854 83.8438 19.9488L71.2334 39.4332C70.312 40.8573 71.1701 42.7576 72.8477 43.0084L82.4502 44.443C84.5648 44.7591 85.3327 47.4124 83.7139 48.8092L48.1358 79.5065C47.053 80.4407 45.4588 79.2465 46.0508 77.9449L56.1621 55.732C56.8011 54.3283 55.9266 52.7018 54.4033 52.4606L40.7451 50.3004C39.0115 50.0259 38.0928 48.0967 38.9727 46.5778L41.8008 41.6959H53.0117C57.6484 41.6953 60.5245 36.6508 58.1641 32.6598L52.541 23.1539L54.4903 19.7897C55.2055 18.5549 56.5243 17.7904 57.9512 17.7809Z" fill="#FFC95C"/>
<path d="M88.1169 45.2769C89.9789 45.541 90.6433 47.8893 89.1958 49.0898L59.5264 73.6985C58.4964 74.5528 57.36 75.2701 56.1458 75.8325L48.0212 79.5955C48.0598 79.5682 48.0983 79.5389 48.1357 79.5066L83.7136 48.8088C85.2354 47.4958 84.6482 45.0732 82.8157 44.5249L88.1169 45.2769ZM85.0835 27.2246C85.416 29.8474 84.5997 32.4861 82.8445 34.4631L74.9756 43.3267L72.8479 43.0088C71.1702 42.758 70.3123 40.8575 71.2339 39.4333L83.8435 19.949C83.9787 19.7401 84.0542 19.5179 84.0786 19.2981L85.0835 27.2246Z" fill="#FAB341"/>
<path d="M78.9608 20.555C79.8999 19.0507 79.1461 18.2265 77.9772 18.2265C78.1663 17.6248 79.608 17.6442 80.9196 17.5535C81.5836 17.4996 84.0418 17.8631 83.9987 18.8967C83.9557 19.9304 83.263 20.9066 82.922 21.2655C79.3688 26.6851 72.0901 37.8364 71.401 39.0854C70.5396 40.6466 71.0815 42.1751 72.7505 43.3595C70.597 43.0903 66.07 40.9322 67.9747 37.8847C69.2253 35.8837 78.0881 21.9529 78.9608 20.555Z" fill="#FFD885"/>
<path d="M57.9471 17.0307C63.3988 16.9946 76.7251 16.9023 82.6932 16.9779L82.8202 16.9828C84.0825 17.0667 84.9052 18.1501 84.8329 19.2807L85.828 27.1303C86.1876 29.9676 85.3039 32.8226 83.4052 34.9613L76.4579 42.7865C78.493 43.0862 80.5278 43.3879 82.5624 43.6908C82.7346 43.7125 82.9046 43.7508 83.0702 43.8031L88.2225 44.5346C90.7288 44.8903 91.6231 48.0513 89.6747 49.6674L60.0057 74.2758C58.9259 75.1714 57.7337 75.9235 56.4608 76.5131L48.3915 80.2504C46.715 81.3536 44.4822 79.5834 45.369 77.6342L55.4794 55.4213C55.913 54.4686 55.3197 53.3641 54.286 53.2006L40.6288 51.0414C38.375 50.6849 37.1807 48.1773 38.3241 46.2026L40.9345 41.6957H42.6679L39.622 46.9545C39.0066 48.0177 39.6496 49.368 40.8632 49.56L54.5204 51.7192C56.5336 52.0376 57.689 54.1874 56.8446 56.0424L46.7343 78.2553C46.4891 78.7944 47.1189 79.3165 47.5887 78.9838L47.6454 78.9467C47.6651 78.9353 47.6862 78.9251 47.7069 78.9155L55.8309 75.1518C56.9864 74.6166 58.0676 73.9334 59.0477 73.1205L88.7177 48.5121C89.6636 47.727 89.2288 46.1927 88.0116 46.0199L85.0702 45.602C85.128 45.734 85.1763 45.8703 85.2137 46.0092C85.5781 47.1872 85.1638 48.6004 84.2108 49.3842C75.1653 57.1724 66.0683 64.9017 56.9208 72.5717C56.0836 73.2736 55.2461 73.9753 54.4081 74.6762C54.3192 74.7505 54.2046 74.7885 54.0887 74.7797C53.9728 74.7708 53.8647 74.7161 53.7889 74.6283C53.7133 74.5406 53.6753 74.4259 53.6835 74.31C53.6918 74.1942 53.7455 74.0862 53.8319 74.0092C54.6481 73.2829 55.4651 72.5568 56.2821 71.8315C65.2093 63.9062 74.1875 56.0399 83.2167 48.2328C83.7398 47.7913 83.9415 47.0851 83.7499 46.433C83.5637 45.7793 83.0157 45.289 82.3378 45.1957C79.971 44.8407 77.6043 44.484 75.2382 44.1244C75.1744 44.1147 75.1106 44.1049 75.0468 44.0951L74.8651 44.0678C74.8573 44.0666 74.8494 44.0653 74.8417 44.0639C74.141 43.9554 73.4404 43.8423 72.7411 43.725C70.6236 43.4637 69.5028 40.7337 70.7313 39.1078C71.3223 38.2578 71.9151 37.4087 72.5067 36.559C73.1313 35.662 73.7551 34.7641 74.3729 33.8627C74.4301 33.7794 74.5196 33.7217 74.62 33.7016C74.7203 33.6816 74.8234 33.7006 74.9081 33.7553C74.9929 33.8102 75.0532 33.8967 75.0761 33.9965C75.0988 34.0963 75.0827 34.2022 75.0302 34.2885C74.461 35.2212 73.8963 36.157 73.3339 37.0942C72.8011 37.9819 72.2696 38.8709 71.7362 39.7582C71.0881 40.7756 71.8487 42.2131 72.955 42.2924C73.5308 42.368 74.1065 42.4464 74.6815 42.5278L82.2841 33.9653C83.8956 32.15 84.6449 29.7269 84.3397 27.3188L83.5653 21.2143C82.4618 23.2818 81.2765 25.2967 80.0077 27.2572C79.2325 28.4551 78.4084 29.6216 77.537 30.7572C77.4031 30.9317 77.2679 31.1057 77.1317 31.2787C77.0497 31.3827 76.9333 31.4579 76.8016 31.4838C76.6701 31.5096 76.5344 31.4851 76.4237 31.4135C76.3131 31.3419 76.2343 31.2286 76.204 31.0981C76.1737 30.9673 76.1954 30.8298 76.2567 30.7123C76.3587 30.5173 76.462 30.3229 76.5663 30.1293C77.2453 28.8692 77.9727 27.6397 78.7479 26.4418C80.1173 24.3258 81.5834 22.2721 83.1454 20.2807C83.2316 20.1708 83.3184 20.0611 83.4052 19.9516L83.3348 19.392C83.3274 19.3334 83.3274 19.274 83.3339 19.2153C83.3751 18.8432 83.1164 18.5047 82.7137 18.4789L82.6737 18.4779C76.7238 18.4025 63.4173 18.4946 57.9569 18.5307C56.795 18.5384 55.7212 19.1612 55.1395 20.1654L52.9794 23.894L52.1034 22.4125L53.8417 19.4135C54.6906 17.948 56.2551 17.0419 57.9471 17.0307ZM44.4061 38.6947V38.6957H42.6727V38.6947H44.4061Z" fill="#B66A1F"/>
<path d="M77.4741 63.3697C77.544 63.3796 77.6069 63.4146 77.6499 63.4681C77.6928 63.5218 77.7132 63.591 77.7075 63.6615C77.7018 63.7321 77.67 63.7979 77.6235 63.8497C77.4955 63.9921 77.3663 64.1333 77.2363 64.2733C76.0665 65.5333 74.8176 66.6946 73.4897 67.7569C72.1618 68.8193 70.7548 69.7829 69.2688 70.6476C69.1037 70.7436 68.9375 70.8384 68.7705 70.932C68.7097 70.9659 68.6384 70.9827 68.5683 70.9728C68.4983 70.9628 68.4355 70.9278 68.3925 70.8741C68.3497 70.8205 68.3292 70.7515 68.3349 70.681C68.3407 70.6105 68.3725 70.5446 68.4189 70.4928C68.5469 70.3503 68.6761 70.2092 68.8061 70.0692C69.9759 68.8092 71.2248 67.6479 72.5527 66.5856C73.8806 65.5232 75.2876 64.5596 76.7736 63.6949C76.9388 63.5989 77.1049 63.5039 77.2719 63.4103C77.3327 63.3763 77.404 63.3598 77.4741 63.3697ZM81.7744 59.6402C81.8358 59.6099 81.9062 59.595 81.9751 59.6053C82.0438 59.6157 82.1053 59.6499 82.1472 59.7023C82.1891 59.7547 82.2091 59.8223 82.2041 59.8917C82.1991 59.9612 82.169 60.0265 82.1259 60.0797C82.0863 60.1284 82.046 60.1768 82.0056 60.2245C81.6413 60.654 81.2431 61.0415 80.8115 61.3868C80.3798 61.7322 79.9141 62.0356 79.415 62.2967C79.3596 62.3257 79.3038 62.3545 79.2475 62.3824C79.1861 62.4128 79.1157 62.4277 79.0468 62.4173C78.978 62.407 78.9166 62.3728 78.8747 62.3204C78.8328 62.268 78.8128 62.2004 78.8178 62.131C78.8229 62.0615 78.8529 61.9962 78.896 61.943C78.9356 61.8942 78.9759 61.8459 79.0163 61.7982C79.3806 61.3687 79.7787 60.9812 80.2104 60.6358C80.6421 60.2905 81.1078 59.9871 81.6069 59.7259C81.6623 59.6969 81.7181 59.6682 81.7744 59.6402Z" fill="#B66A1F"/>
<path d="M41.3005 18.7946C42.4423 16.8133 45.2959 16.7971 46.4602 18.7653L55.5825 34.1865C56.7605 36.1779 55.325 38.6949 53.0112 38.6949H35.024C32.7157 38.6949 31.2722 36.197 32.4247 34.197L41.3005 18.7946Z" fill="#FAB341"/>
<path d="M44.0002 33C44.7366 33 45.3334 33.5969 45.3335 34.3333C45.3335 35.0696 44.7366 35.6667 44.0002 35.6667C43.2638 35.6667 42.667 35.0696 42.667 34.3333C42.667 33.5969 43.2639 33 44.0002 33Z" fill="black"/>
<path d="M44.0004 22C44.3785 22 44.7391 22.1404 44.9887 22.3904C45.2392 22.6404 45.3581 22.9797 45.3337 23.3333C45.3254 23.4555 45.3171 23.5777 45.3088 23.7C45.1588 25.8999 45.0088 28.0999 44.8588 30.2998C44.8505 30.422 44.842 30.5443 44.8337 30.6665C44.8194 30.8729 44.7192 31.0711 44.5632 31.217C44.4067 31.363 44.2072 31.445 44.0004 31.4451C43.7937 31.4451 43.5942 31.363 43.4377 31.217C43.2817 31.0711 43.1815 30.873 43.1672 30.6665C43.1589 30.5443 43.1504 30.422 43.142 30.2998C42.9921 28.0999 42.8421 25.8999 42.6921 23.7C42.6838 23.5777 42.6755 23.4555 42.6672 23.3333C42.6427 22.9796 42.7617 22.6404 43.0122 22.3904C43.2618 22.1404 43.6224 22 44.0004 22Z" fill="black"/>
</svg>
