<svg width="128" height="96" viewBox="0 0 128 96" fill="none" xmlns="http://www.w3.org/2000/svg">
<path opacity="0.2" d="M105.629 38.1999L107.171 37.7999C107.457 37.7427 107.743 37.457 107.8 37.1713L108.2 35.6284C108.314 35.2284 108.657 34.9999 109 34.9999C109.4 34.9999 109.743 35.2856 109.8 35.6284L110.2 37.1713C110.257 37.457 110.543 37.7427 110.829 37.7999L112.371 38.1999C112.771 38.3142 113 38.657 113 38.9999C113 39.3999 112.714 39.7427 112.371 39.7999L110.829 40.1999C110.543 40.257 110.257 40.5427 110.2 40.8284L109.8 42.3713C109.686 42.7713 109.343 42.9999 109 42.9999C108.6 42.9999 108.257 42.7142 108.2 42.3713L107.8 40.8284C107.743 40.5427 107.457 40.257 107.171 40.1999L105.629 39.7999C105.229 39.6856 105 39.3427 105 38.9999C105 38.5999 105.286 38.257 105.629 38.1999Z" fill="#888888"/>
<path opacity="0.2" d="M15.9428 31.7999L18.2571 31.1999C18.6857 31.1142 19.1143 30.6856 19.2 30.257L19.8 27.9427C19.9714 27.3427 20.4857 26.9999 21 26.9999C21.6 26.9999 22.1143 27.4284 22.2 27.9427L22.8 30.257C22.8857 30.6856 23.3143 31.1142 23.7429 31.1999L26.0572 31.7999C26.6572 31.9713 27 32.4856 27 32.9999C27 33.5999 26.5714 34.1142 26.0572 34.1999L23.7429 34.7999C23.3143 34.8856 22.8857 35.3142 22.8 35.7427L22.2 38.057C22.0286 38.657 21.5143 38.9999 21 38.9999C20.4 38.9999 19.8857 38.5713 19.8 38.057L19.2 35.7427C19.1143 35.3142 18.6857 34.8856 18.2571 34.7999L15.9428 34.1999C15.3428 34.0285 15 33.5142 15 32.9999C15 32.3999 15.4286 31.8856 15.9428 31.7999Z" fill="#888888"/>
<path opacity="0.2" d="M0.628557 53.1999L2.17142 52.7999C2.45714 52.7427 2.74287 52.457 2.80001 52.1713L3.19999 50.6284C3.31427 50.2284 3.65714 49.9999 4 49.9999C4.4 49.9999 4.74287 50.2856 4.80001 50.6284L5.19999 52.1713C5.25713 52.457 5.54286 52.7427 5.82858 52.7999L7.37144 53.1999C7.77144 53.3142 8 53.657 8 53.9999C8 54.3999 7.7143 54.7427 7.37144 54.7999L5.82858 55.1999C5.54286 55.257 5.25713 55.5427 5.19999 55.8284L4.80001 57.3713C4.68573 57.7713 4.34286 57.9999 4 57.9999C3.6 57.9999 3.25713 57.7142 3.19999 57.3713L2.80001 55.8284C2.74287 55.5427 2.45714 55.257 2.17142 55.1999L0.628557 54.7999C0.228557 54.6856 0 54.3427 0 53.9999C0 53.5999 0.2857 53.257 0.628557 53.1999Z" fill="#888888"/>
<path opacity="0.2" d="M126.5 51.9999C125.675 51.9999 125 51.3249 125 50.4999C125 49.6749 125.675 48.9999 126.5 48.9999C127.325 48.9999 128 49.6749 128 50.4999C128 51.3249 127.325 51.9999 126.5 51.9999Z" fill="#888888"/>
<path opacity="0.2" d="M23 70C21.9 70 21 69.1 21 68C21 66.9 21.9 66 23 66C24.1 66 25 66.9 25 68C25 69.1 24.1 70 23 70Z" fill="#888888"/>
<path d="M67.9156 65C67.3207 66.8941 67 68.9096 67 71V76L56 79V65H67.9156Z" fill="#AAAAAA"/>
<path d="M35 18.6667C35 17.1939 36.1939 16 37.6667 16H93.3333C94.8061 16 96 17.1939 96 18.6667V48.3333C96 49.8061 94.8061 51 93.3333 51H37.6667C36.1939 51 35 49.8061 35 48.3333V18.6667Z" fill="#888888"/>
<path d="M63 80C65.2091 80 67 78.2091 67 76H47C45.8954 76 45 76.8954 45 78C45 79.1046 45.8954 80 47 80H63Z" fill="#888888"/>
<path d="M91.1374 16H33.8626C32.8339 16 32 16.9133 32 18.04V64.96C32 66.0867 32.8339 67 33.8626 67H67.4001C69.2532 57.871 77.3242 51 87 51H93V18.04C93 16.9133 92.1661 16 91.1374 16Z" fill="#CCCCCC"/>
<path d="M88.6364 20H36.3636C35.6105 20 35 20.6876 35 21.5357V61.4643C35 62.3124 35.6105 63 36.3636 63H68.6642C71.7504 55.9364 78.7987 51 87 51H90V21.5357C90 20.6876 89.3895 20 88.6364 20Z" fill="#FFD65C"/>
<path d="M70.1999 44.9487C67.7435 49.1749 62.4797 50.726 58.1856 48.5897C57.8532 48.4225 57.7424 47.9953 57.9271 47.6702L59.146 45.5803C59.4415 45.0787 58.9798 44.4657 58.4165 44.6143L50.484 46.7042C50.1331 46.7971 49.9299 47.1593 50.0222 47.503L52.0908 55.5095C52.2385 56.0761 52.9866 56.1783 53.2821 55.6767L54.4733 53.624C54.6488 53.3175 55.0366 53.2153 55.3506 53.3825C62.2858 57.0978 70.9571 54.6643 74.9742 47.7631C76.6087 44.958 77.2182 41.8371 76.9319 38.8277C76.8765 38.2704 76.3501 37.8896 75.8145 38.0289L72.7579 38.837C71.9914 39.0413 71.4835 39.7286 71.465 40.5274C71.4188 42.0321 71.0217 43.5461 70.2091 44.9394L70.1999 44.9487Z" fill="#F9BE1A"/>
<path d="M54.5483 36.0513C56.9137 31.8251 61.9825 30.274 66.1175 32.4103C66.4377 32.5775 66.5444 33.0047 66.3665 33.3298L65.1927 35.4197C64.9082 35.9213 65.3528 36.5343 65.8952 36.3857L73.534 34.2958C73.8719 34.2029 74.0675 33.8407 73.9786 33.497L71.9866 25.4905C71.8444 24.9239 71.1241 24.8217 70.8395 25.3233L69.6924 27.376C69.5234 27.6825 69.1499 27.7847 68.8476 27.6175C62.1692 23.9022 53.8191 26.3357 49.9508 33.2369C48.3768 36.042 47.7899 39.1629 48.0656 42.1723C48.1189 42.7296 48.6258 43.1104 49.1416 42.9711L52.085 42.163C52.8231 41.9587 53.3122 41.2714 53.33 40.4726C53.3744 38.9679 53.7568 37.4539 54.5394 36.0606L54.5483 36.0513Z" fill="#F9BE1A"/>
<path d="M87 87C95.8366 87 103 79.8366 103 71C103 62.1634 95.8366 55 87 55C78.1634 55 71 62.1634 71 71C71 79.8366 78.1634 87 87 87Z" fill="#557FF3"/>
<path d="M108.766 59.0518C109.072 59.0518 109.378 59.1718 109.612 59.406C110.08 59.8742 110.08 60.6367 109.612 61.1049L107.211 63.5063C106.743 63.9745 105.98 63.9745 105.512 63.5063C105.044 63.038 105.044 62.2756 105.512 61.8073L107.913 59.406C108.147 59.1718 108.453 59.0518 108.76 59.0518H108.766Z" fill="#CCCCCC"/>
<path d="M107.565 69.8579H111.167C111.827 69.8579 112.368 70.3982 112.368 71.0586C112.368 71.719 111.827 72.2593 111.167 72.2593H107.565C106.905 72.2593 106.364 71.719 106.364 71.0586C106.364 70.3982 106.905 69.8579 107.565 69.8579Z" fill="#CCCCCC"/>
<path d="M105.524 78.6179C105.758 78.3837 106.064 78.2637 106.371 78.2637H106.377C106.683 78.2637 106.989 78.3837 107.223 78.6179L109.624 81.0192C110.093 81.4875 110.093 82.2499 109.624 82.7182C109.156 83.1865 108.394 83.1865 107.925 82.7182L105.524 80.3168C105.056 79.8486 105.056 79.0861 105.524 78.6179Z" fill="#CCCCCC"/>
<path fill-rule="evenodd" clip-rule="evenodd" d="M90 62.6667C90 62.2985 89.7015 62 89.3333 62H84.6667C84.2985 62 84 62.2985 84 62.6667V67.3333C84 67.7015 83.7015 68 83.3333 68H78.6667C78.2985 68 78 68.2985 78 68.6667V73.3333C78 73.7015 78.2985 74 78.6667 74H83.3333C83.7015 74 84 74.2985 84 74.6667V79.3333C84 79.7015 84.2985 80 84.6667 80H89.3333C89.7015 80 90 79.7015 90 79.3333V74.6667C90 74.2985 90.2985 74 90.6667 74H95.3333C95.7015 74 96 73.7015 96 73.3333V68.6667C96 68.2985 95.7015 68 95.3333 68H90.6667C90.2985 68 90 67.7015 90 67.3333V62.6667Z" fill="white"/>
</svg>
