<svg width="12" height="12" viewBox="0 0 12 12" fill="none" xmlns="http://www.w3.org/2000/svg">
<g clip-path="url(#clip0_11726_72959)">
<path fill-rule="evenodd" clip-rule="evenodd" d="M7.78125 6.00003C8.88582 6.00003 9.78125 6.89546 9.78125 8.00003V10.0625C9.78125 11.1671 8.88582 12.0625 7.78125 12.0625H4.21875C3.11418 12.0625 2.21875 11.1671 2.21875 10.0625V8.00003C2.21875 6.89546 3.11418 6.00003 4.21875 6.00003H7.78125ZM4.21875 7.00003C3.66647 7.00003 3.21875 7.44775 3.21875 8.00003V10.0625C3.21875 10.6148 3.66647 11.0625 4.21875 11.0625H7.78125C8.33353 11.0625 8.78125 10.6148 8.78125 10.0625V8.00003C8.78125 7.44775 8.33353 7.00003 7.78125 7.00003H4.21875Z" fill="black"/>
<path d="M4.71289 0.0244477C4.84862 -0.0195515 4.99701 -0.00372276 5.12012 0.0683931C5.80554 0.470573 6.16466 1.04058 6.38965 1.62113C6.49983 1.9055 6.5795 2.19748 6.64941 2.46976C6.72153 2.75066 6.78123 3.00193 6.85645 3.24906C6.88186 3.33233 7.07671 3.79691 7.72559 3.79691L7.83984 3.793C8.0923 3.77376 8.24712 3.69161 8.34473 3.61429C8.46402 3.51969 8.53039 3.40506 8.56445 3.33011C8.58936 3.27492 8.61927 3.14353 8.6582 2.95414C8.67351 2.87965 8.69216 2.78442 8.71289 2.71195C8.72079 2.68435 8.7426 2.61091 8.78418 2.54007C8.80032 2.51259 8.86146 2.4092 8.98926 2.34085C9.06524 2.30027 9.16789 2.27126 9.28516 2.28421C9.37142 2.29378 9.44256 2.32374 9.49707 2.35746L9.5459 2.39164L9.6748 2.50003C10.1837 2.94911 11.9999 4.75128 12 7.61917L11.9941 7.82035C11.9565 8.49802 11.7292 9.12154 11.3623 9.67288C11.0804 10.0965 10.5004 9.84952 10.5 9.34085C10.5 9.22156 10.5372 9.10523 10.5986 9.00296C10.833 8.61265 10.9715 8.19237 10.9961 7.7598L11 7.61917C11 5.76281 10.0962 4.42253 9.48145 3.72464C9.47878 3.73083 9.47736 3.73806 9.47461 3.74417C9.40082 3.9065 9.25068 4.17164 8.96582 4.39749C8.70954 4.60064 8.36637 4.75401 7.92188 4.7891L7.72559 4.79691C6.43369 4.79691 5.98202 3.81142 5.89941 3.54007C5.81563 3.26479 5.74662 2.97469 5.68066 2.71781C5.6125 2.45233 5.54468 2.20868 5.45703 1.98246C5.35366 1.71573 5.2248 1.48099 5.04395 1.28031C4.29003 2.70554 3.28787 3.6583 2.50488 4.50589C1.61333 5.47103 1.00004 6.29906 1 7.61917L1.00391 7.7598C1.02853 8.19234 1.16703 8.61261 1.40137 9.00296C1.4628 9.1053 1.5 9.2215 1.5 9.34085C1.49971 9.84991 0.919792 10.0976 0.637695 9.67386C0.270819 9.12227 0.0434918 8.49818 0.00585938 7.82035L0 7.61917C4.5704e-05 5.90223 0.842581 4.83168 1.77051 3.82718C2.7054 2.81516 3.72306 1.86439 4.40918 0.298862L4.46191 0.207065C4.52353 0.121877 4.61117 0.0574482 4.71289 0.0244477Z" fill="black"/>
</g>
<defs>
<clipPath id="clip0_11726_72959">
<rect width="12" height="12" fill="white"/>
</clipPath>
</defs>
</svg>
