<svg width="96" height="96" viewBox="0 0 96 96" fill="none" xmlns="http://www.w3.org/2000/svg">
<path d="M60.553 47.4003C57.1269 48.6664 58.7523 41.8978 57.9595 35.3907C56.679 24.8964 50.5492 17.906 44.4026 16.6487C43.9035 16.5466 43.4925 17.0037 43.5573 17.509C44.2609 22.9952 41.6149 30.1717 39.1958 33.7382C38.8467 34.253 38.0952 34.0546 37.9201 33.4577C37.0907 30.6298 35.3447 28.2112 32.2132 27.523C31.7513 27.4215 31.3516 27.818 31.3685 28.2906C31.6069 34.9708 27.7311 40.3463 25.5834 46.9029C23.6547 52.7789 22.3517 61.1662 27.0733 68.2525C34.4993 79.4061 47.7022 80.4501 55.4815 78.9561C64.9647 77.1365 71.0905 70.6756 73.3286 63.6327C77.4688 50.6034 69.3498 42.7723 68.8433 38.0735C68.7868 37.5495 68.3187 37.0822 67.8196 37.2517C62.6072 39.0216 63.0618 46.4651 60.5525 47.3935L60.553 47.4003Z" fill="#F05F2B"/>
<path fill-rule="evenodd" clip-rule="evenodd" d="M42.8135 17.6044C42.7005 16.7233 43.4034 15.7511 44.4504 15.8963L44.553 15.9139L44.7068 15.9464C51.166 17.3608 57.3118 24.5741 58.6726 35.0499L58.7041 35.2999L58.7402 35.6131C58.913 37.1786 58.9554 38.7424 58.9673 40.1842C58.9801 41.7417 58.9584 43.1196 59.0178 44.2718C59.0472 44.8426 59.0956 45.3304 59.1723 45.7315C59.2504 46.1393 59.3495 46.4119 59.4534 46.5814C59.5472 46.7346 59.6244 46.7741 59.685 46.7904C59.7528 46.8086 59.8898 46.819 60.1325 46.7489L60.2922 46.69C60.6111 46.572 60.946 46.1965 61.3315 45.3541C61.7133 44.5197 62.0208 43.535 62.4731 42.3673C63.3319 40.1505 64.6259 37.5439 67.5784 36.5414C68.1296 36.3542 68.6433 36.5374 68.9878 36.8351C69.3211 37.1231 69.5409 37.5464 69.5891 37.993C69.6996 39.0179 70.238 40.2723 71.0161 41.8924C71.7742 43.4711 72.7275 45.3382 73.53 47.4642C75.1476 51.7495 76.1776 57.1427 74.0432 63.8597C71.7259 71.1522 65.3888 77.8185 55.6228 79.6925C47.7031 81.2134 34.1156 80.1832 26.449 68.6681C21.5311 61.2871 22.9209 52.6096 24.8708 46.669C25.952 43.3685 27.5023 40.2748 28.675 37.3629C29.8682 34.4002 30.7325 31.5018 30.6189 28.3172C30.589 27.4769 31.2983 26.6196 32.2785 26.7726L32.3742 26.7904L32.5368 26.8277C35.9208 27.6413 37.7713 30.3012 38.6343 33.2286C39.776 31.5187 40.9855 28.9459 41.8291 26.1283C42.6885 23.2576 43.1469 20.2047 42.8135 17.6044ZM44.3013 17.4134C44.6713 20.2993 44.1585 23.5777 43.2661 26.5585C42.3725 29.5433 41.0763 32.3015 39.8164 34.159C39.452 34.6963 38.8493 34.8696 38.3203 34.7447C37.8093 34.624 37.3652 34.2307 37.2004 33.6688C36.4221 31.0152 34.8459 28.8978 32.1179 28.2704C32.2412 31.7634 31.2876 34.8908 30.0664 37.9232C28.824 41.0081 27.3626 43.8804 26.2961 47.1363L26.2959 47.1368C24.4033 52.9027 23.1913 60.9186 27.5925 67.6771L27.6975 67.8365C34.8827 78.6286 47.7011 79.6866 55.3401 78.2196L55.769 78.1334C64.7244 76.2584 70.4888 70.0927 72.6138 63.4054C74.6195 57.0932 73.6601 52.0562 72.1267 47.994C71.3537 45.9463 70.4412 44.1602 69.664 42.5419C68.9067 40.965 68.2404 39.4784 68.0976 38.1539C68.094 38.1198 68.0829 38.0818 68.0642 38.0458C68.0483 38.0151 68.0299 37.9925 68.0149 37.9776C65.7862 38.7564 64.7104 40.7443 63.8718 42.909C63.4726 43.9395 63.0971 45.1005 62.6955 45.9781C62.3782 46.6718 61.9641 47.3863 61.3347 47.8229L61.341 47.9086L60.813 48.1039C60.3014 48.2929 59.7842 48.3702 59.2956 48.2389C58.7863 48.1019 58.4222 47.7694 58.1743 47.3646C57.9363 46.976 57.7931 46.504 57.6992 46.0135C57.604 45.5164 57.5508 44.9519 57.5198 44.349C57.4582 43.154 57.4799 41.6988 57.4675 40.1966C57.4549 38.6749 57.408 37.0655 57.2151 35.4815L57.1528 35.0018C55.7762 25.0107 49.9236 18.574 44.3013 17.3937C44.3004 17.3995 44.3003 17.4061 44.3013 17.4134Z" fill="#9E2B08"/>
<path d="M62.0402 66.2959C62.125 66.2847 62.2103 66.306 62.2779 66.3559C62.3456 66.4059 62.391 66.481 62.4052 66.5654C62.4195 66.6499 62.4009 66.7364 62.3578 66.8091C62.0967 67.2381 61.7961 67.6199 61.4724 67.9898C59.605 70.0728 57.1735 71.6367 54.4673 72.5319C53.0851 72.9833 51.6458 73.2314 50.2034 73.2981C45.6004 73.4638 41.0292 72.0941 37.4276 69.3008C37.0537 68.9813 36.6763 68.6442 36.3872 68.1811C36.345 68.1081 36.328 68.0217 36.3436 67.9378C36.3593 67.854 36.4058 67.7799 36.4742 67.7314C36.5425 67.6828 36.6279 67.6631 36.7122 67.6759C36.7965 67.6887 36.8724 67.7335 36.9274 67.7973C37.1835 68.074 37.5759 68.3343 37.9554 68.5568C41.6721 70.5454 45.9982 71.4341 50.1097 71.2813C51.4044 71.2212 52.6828 71.0396 53.9306 70.7141C56.38 70.0659 58.772 68.9182 60.8273 67.3173C61.1826 67.0335 61.5224 66.7377 61.8216 66.4132C61.8783 66.3506 61.9553 66.3071 62.0402 66.2959Z" fill="#FAB341"/>
<path d="M21.6269 48.9335C21.6904 48.8963 21.7652 48.885 21.8356 48.9023C21.9061 48.9196 21.9671 48.9644 22.0061 49.0268C22.0451 49.0892 22.0583 49.1644 22.0463 49.2363C21.9876 49.5937 21.9308 49.9566 21.8745 50.3168C21.8349 50.5714 21.795 50.8268 21.7592 51.0773C21.3485 53.9657 21.1924 56.8621 21.437 59.7194C21.7128 62.9922 22.5707 66.2087 24.1047 69.1586C24.271 69.4795 24.4418 69.7929 24.6235 70.1083C24.6649 70.1803 24.6802 70.2656 24.6628 70.3476C24.6454 70.4296 24.5972 70.5013 24.5283 70.5473C24.4594 70.5932 24.3748 70.6101 24.2924 70.5947C24.21 70.5792 24.1369 70.5323 24.0864 70.4665C23.8588 70.1687 23.6429 69.8697 23.4326 69.5595C21.4872 66.7117 20.3454 63.2926 20.0595 59.8373C19.8004 56.8179 20.1624 53.7844 20.9484 50.9089C21.0183 50.6539 21.0912 50.4055 21.1657 50.1559C21.2715 49.8032 21.3796 49.452 21.4941 49.1003C21.5168 49.0311 21.5634 48.9707 21.6269 48.9335Z" fill="#CC3B0A"/>
<path d="M58.4533 26.0368C58.5228 25.9991 58.6051 25.9902 58.6838 26.0109C58.7625 26.0317 58.8306 26.0808 58.8801 26.1437C58.974 26.2641 59.0656 26.3865 59.1547 26.5107C59.9585 27.6282 60.5597 28.8995 60.9226 30.2311C61.2872 31.5634 61.4119 32.9525 61.3183 34.3188C61.308 34.4712 61.2951 34.622 61.2795 34.7741C61.2713 34.8504 61.2415 34.9252 61.1884 34.9824C61.1354 35.0395 61.0642 35.0746 60.9887 35.0798C60.9133 35.0849 60.8381 35.0598 60.7778 35.0104C60.7174 34.961 60.6777 34.891 60.6591 34.8166C60.6232 34.6716 60.5871 34.5286 60.5512 34.3847C60.2288 33.0943 59.9105 31.8417 59.5712 30.6003C59.232 29.3587 58.8676 28.1269 58.4514 26.872C58.4051 26.7326 58.3583 26.593 58.3107 26.4531C58.2849 26.3773 58.2806 26.2933 58.3061 26.216C58.3316 26.1387 58.3839 26.0745 58.4533 26.0368Z" fill="#CC3B0A"/>
</svg>
