<svg fill="none" viewBox="0 0 56 56" xmlns="http://www.w3.org/2000/svg">
  <path fill="#F05F2B" d="M52 28c0 13.255-10.745 24-24 24S4 41.255 4 28 14.745 4 28 4s24 10.745 24 24"/>
  <path fill="#9E2B08" d="M32.17 28.333c2.742-.426 5.69.177 7.921 1.788q.442.317.843.678c.103.095.177.222.198.363.02.14-.012.282-.092.395s-.202.192-.342.219-.284 0-.407-.065q-.43-.224-.87-.409c-2.223-.93-4.614-1.121-6.919-.775-3.18.482-6.227 2.16-8.139 4.86q-.274.388-.515.801c-.084.144-.215.258-.375.312s-.332.045-.482-.026c-.15-.072-.265-.2-.323-.358-.059-.157-.054-.331.005-.487q.196-.504.442-.987c1.714-3.399 5.27-5.752 9.055-6.31m-16.667-5.605c1.897-.46 3.923-.433 5.863.57.46.252.91.579 1.296 1.008.745.714.387 1.698-.621 1.92-.959.157-2.354.648-3.462 1.169q-.25.12-.473.257c-.103.07-.226.113-.352.111-.127-.002-.246-.048-.334-.132s-.14-.201-.149-.327c-.008-.127.03-.252.095-.358q.192-.295.416-.547c.518-.549 1.041-1.021 1.637-1.418-1.132-.46-2.479-.775-3.819-.975q-.282-.039-.56-.061c-.126-.007-.252-.046-.352-.125-.101-.079-.168-.189-.188-.31-.02-.122.01-.247.08-.354s.177-.183.294-.23q.311-.116.63-.198m20.216-3.383c1.518-1.735 3.57-2.343 5.572-2.229q.336.028.664.096c.125.03.244.09.332.186.088.095.138.216.138.341s-.05.246-.137.342c-.088.095-.208.156-.333.186q-.266.07-.524.16c-.93.34-1.836.816-2.59 1.36.698.19 1.35.501 1.994.9q.284.192.54.427c.098.097.174.22.2.358s.003.277-.069.391c-.07.115-.185.197-.32.234s-.279.024-.409-.021q-.252-.08-.511-.13c-1.247-.242-2.837-.185-3.706.09-1.122.334-1.97-.566-1.48-1.629.165-.406.39-.757.639-1.062"/>
  <path fill="#9E2B08" fill-rule="evenodd" d="M28 4c13.255 0 24 10.745 24 24S41.255 52 28 52 4 41.255 4 28 14.745 4 28 4m0 2C15.85 6 6 15.85 6 28s9.85 22 22 22 22-9.85 22-22S40.15 6 28 6" clip-rule="evenodd"/>
</svg>
