<svg fill="none" viewBox="0 0 16 16" xmlns="http://www.w3.org/2000/svg">
  <path fill="#000" d="M10.25 0C11.769 0 13 1.231 13 2.75v10.5c0 1.519-1.231 2.75-2.75 2.75h-4.5C4.231 16 3 14.769 3 13.25V2.75C3 1.231 4.231 0 5.75 0zm-4.5 1.25c-.828 0-1.5.672-1.5 1.5v10.5c0 .828.672 1.5 1.5 1.5h4.5c.828 0 1.5-.672 1.5-1.5V2.75c0-.828-.672-1.5-1.5-1.5zM10 12c.414 0 .75.336.75.75s-.336.75-.75.75H6c-.414 0-.75-.336-.75-.75S5.586 12 6 12zM8 3.25c.345 0 .625.28.625.625V8.49l.808-.807c.244-.244.64-.244.884 0s.244.64 0 .884L8.796 10.09c-.44.44-1.153.44-1.592 0L5.683 8.567c-.244-.244-.244-.64 0-.884s.64-.244.884 0l.808.807V3.875c0-.345.28-.625.625-.625"/>
</svg>
