<svg width="96" height="96" viewBox="0 0 96 96" fill="none" xmlns="http://www.w3.org/2000/svg">
<path opacity="0.53" d="M48.0022 20.9141C52.0504 20.9141 56.059 21.6782 59.7991 23.1628C63.5391 24.6475 66.9373 26.8238 69.7998 29.5671C72.6623 32.3105 74.933 35.5673 76.4822 39.1516C78.0313 42.7359 78.8286 46.5777 78.8286 50.4573C78.8286 53.5848 78.3101 56.6874 77.2976 59.6506C76.238 59.4073 75.1346 59.2788 74.0012 59.2788C65.901 59.2788 59.3345 65.8454 59.3345 73.9456C59.3345 75.2573 59.5068 76.5288 59.8298 77.7388C59.8195 77.7429 59.8094 77.7474 59.7991 77.7515C56.059 79.2361 52.0504 80.0002 48.0022 80.0002C43.954 80.0002 39.9454 79.2361 36.2053 77.7515C32.4653 76.2668 29.0671 74.0907 26.2046 71.3474C23.3421 68.6041 21.0714 65.3473 19.5222 61.7629C17.9731 58.1786 17.1758 54.3369 17.1758 50.4573C17.1758 42.622 20.4236 35.1075 26.2046 29.5671C31.9857 24.0267 39.8265 20.9141 48.0022 20.9141Z" fill="black"/>
<path d="M48 16C52.2023 16 56.3634 16.8238 60.2458 18.4243C64.1283 20.0248 67.656 22.3708 70.6274 25.3281C73.5989 28.2855 75.9561 31.7964 77.5642 35.6604C79.1723 39.5244 80 43.6658 80 47.8481C80 51.9259 79.2127 55.9644 77.6829 59.7451C76.5061 59.4408 75.2721 59.2788 74.0002 59.2788C65.9001 59.2788 59.3335 65.8454 59.3335 73.9456C59.3335 75.1596 59.481 76.3391 59.759 77.4673C56.0165 78.939 52.0273 79.6963 48 79.6963C39.5131 79.6963 31.3737 76.3408 25.3726 70.3682C19.3714 64.3955 16 56.2948 16 47.8481C16 39.4015 19.3714 31.3008 25.3726 25.3281C31.3737 19.3554 39.5131 16 48 16Z" fill="url(#paint0_linear_12697_79650)"/>
<path d="M48 15.8242C52.2252 15.8242 56.4091 16.6525 60.3127 18.2617C64.2164 19.871 67.7636 22.23 70.7515 25.2036C73.7392 28.1772 76.1093 31.7075 77.7263 35.5928C79.3434 39.4782 80.1758 43.6426 80.1758 47.8481C80.1758 51.941 79.387 55.9949 77.8542 59.7905C77.7403 59.7596 77.6258 59.7299 77.5107 59.7017C79.0381 55.9354 79.8242 51.9113 79.8242 47.8481C79.8242 43.689 79.0011 39.5704 77.4019 35.7278C75.8026 31.8852 73.4585 28.3937 70.5034 25.4526C67.5483 22.5116 64.0401 20.1787 60.179 18.5869C56.3178 16.9952 52.1793 16.1758 48 16.1758C39.5594 16.1758 31.4647 19.5128 25.4966 25.4526C19.5285 31.3924 16.1758 39.4484 16.1758 47.8481C16.1758 56.2479 19.5285 64.3039 25.4966 70.2437C31.4647 76.1834 39.5594 79.5205 48 79.5205C52.0134 79.5205 55.9889 78.7643 59.7175 77.2947C59.7445 77.41 59.7728 77.5249 59.8025 77.6392C56.0455 79.1136 52.0418 79.8721 48 79.8721C39.4667 79.8721 31.2827 76.4982 25.2485 70.4927C19.2144 64.4871 15.8242 56.3416 15.8242 47.8481C15.8242 39.3546 19.2144 31.2092 25.2485 25.2036C31.2827 19.1981 39.4667 15.8242 48 15.8242Z" fill="#CDCDCD"/>
<path d="M48.0002 18.4961C55.8221 18.4961 63.3238 21.5886 68.8547 27.0933C74.3856 32.5979 77.4929 40.0639 77.4929 47.8486C77.4929 51.8301 76.6796 55.7279 75.1455 59.3228C74.7679 59.2936 74.3863 59.2788 74.0012 59.2788C65.901 59.2788 59.3345 65.8454 59.3345 73.9456C59.3345 74.2773 59.3455 74.6066 59.3672 74.9329C55.8002 76.4157 51.9409 77.2012 48.0002 77.2012C40.1784 77.2011 32.6769 74.1086 27.146 68.604C21.6151 63.0993 18.5078 55.6334 18.5078 47.8486C18.5078 40.0639 21.6151 32.5979 27.146 27.0933C32.6769 21.5886 40.1784 18.4961 48.0002 18.4961Z" fill="url(#paint1_radial_12697_79650)"/>
<path d="M47.9998 69.8772C48.238 69.8772 48.4297 70.0681 48.4297 70.3052V75.2415C48.4297 75.4785 48.238 75.6694 47.9998 75.6694C47.7615 75.6694 47.5698 75.4785 47.5698 75.2415V70.3052C47.5698 70.0681 47.7616 69.8772 47.9998 69.8772Z" fill="#F4F2F3"/>
<path d="M50.6816 72.5752C50.881 72.5945 51.045 72.7505 51.0667 72.9568L51.2832 75.022C51.3079 75.2577 51.137 75.4673 50.9001 75.4919C50.6632 75.5166 50.4525 75.3466 50.4277 75.1108L50.2109 73.0457C50.1862 72.8099 50.3571 72.6003 50.594 72.5757C50.6236 72.5723 50.6531 72.5721 50.6816 72.5752Z" fill="#F4F2F3"/>
<path d="M45.3879 72.5735C45.6248 72.5983 45.7954 72.8082 45.7705 73.0439L45.5525 75.1089C45.5276 75.3447 45.3167 75.5146 45.0798 75.4897C44.8429 75.4649 44.6723 75.2553 44.6973 75.0195L44.9153 72.9543C44.9371 72.7481 45.1014 72.5924 45.3008 72.5732C45.3293 72.5706 45.3583 72.5704 45.3879 72.5735Z" fill="#F4F2F3"/>
<path d="M52.6707 69.3901C52.8709 69.3886 53.0505 69.5266 53.0938 69.7295L54.1211 74.5586C54.1704 74.7905 54.0225 75.0168 53.7896 75.0659C53.5565 75.115 53.3291 74.9678 53.2798 74.7358L52.2524 69.9065C52.2032 69.6746 52.3512 69.4485 52.5842 69.3994C52.6133 69.3933 52.6421 69.3904 52.6707 69.3901Z" fill="#F4F2F3"/>
<path d="M43.3135 69.3872C43.3421 69.3872 43.3713 69.3904 43.4004 69.3965C43.6333 69.4457 43.7812 69.6722 43.7317 69.9041L42.7009 74.7327C42.6514 74.9645 42.4239 75.1116 42.1909 75.0623C41.958 75.013 41.8102 74.7868 41.8596 74.5549L42.8904 69.7263C42.9337 69.5234 43.1132 69.3852 43.3135 69.3872Z" fill="#F4F2F3"/>
<path d="M55.8894 71.4734C56.0564 71.4875 56.206 71.5987 56.2612 71.7678L56.9062 73.7427C56.9798 73.9681 56.8566 74.2084 56.6301 74.2817C56.4036 74.355 56.1618 74.2326 56.0881 74.0071L55.4434 72.0322C55.3698 71.8068 55.4932 71.5662 55.7197 71.4929C55.7763 71.4743 55.8338 71.4683 55.8894 71.4734Z" fill="#F4F2F3"/>
<path d="M40.1067 71.4724C40.1624 71.4677 40.22 71.4739 40.2766 71.4922C40.5031 71.5655 40.6261 71.8061 40.5525 72.0315L39.9077 74.0061C39.834 74.2315 39.5922 74.3541 39.3657 74.2808C39.1392 74.2075 39.0162 73.9669 39.0898 73.7415L39.7346 71.7668C39.7898 71.5978 39.9397 71.4866 40.1067 71.4724Z" fill="#F4F2F3"/>
<path d="M57.1572 67.9414C57.3248 67.9382 57.4853 68.0334 57.5579 68.1958L59.4182 72.3611C59.3858 72.6625 59.3627 72.9666 59.3489 73.2732C59.1324 73.3657 58.8824 73.2688 58.7864 73.054L56.772 68.5432C56.6753 68.3266 56.7727 68.0748 56.9902 67.9785C57.0446 67.9544 57.1014 67.9424 57.1572 67.9414Z" fill="#F4F2F3"/>
<path d="M38.8149 67.929C38.8708 67.9301 38.9276 67.9421 38.9819 67.9663C39.1995 68.0629 39.2965 68.315 39.1995 68.5315L37.1787 73.0393C37.0817 73.2558 36.8284 73.3524 36.6108 73.2559C36.3933 73.1593 36.2963 72.9072 36.3933 72.6907L38.4141 68.1826C38.4869 68.0203 38.6474 67.9249 38.8149 67.929Z" fill="#F4F2F3"/>
<path d="M35.2642 69.3228C35.3467 69.3171 35.432 69.335 35.5093 69.3794C35.7155 69.4979 35.7856 69.7586 35.6665 69.9639L34.6235 71.7622C34.5044 71.9675 34.2424 72.0372 34.0361 71.9187C33.8298 71.8001 33.7596 71.5395 33.8787 71.3342L34.9219 69.5361C34.9963 69.4078 35.1266 69.3319 35.2642 69.3228Z" fill="#F4F2F3"/>
<path d="M34.7405 65.5808C34.8232 65.5837 34.9061 65.6104 34.9783 65.6626C35.1708 65.8021 35.2129 66.0688 35.0728 66.2605L32.1553 70.2522C32.0151 70.4439 31.7471 70.4859 31.5544 70.3464C31.3619 70.207 31.3198 69.9402 31.46 69.7485L34.3774 65.7568C34.465 65.637 34.6027 65.5758 34.7405 65.5808Z" fill="#F4F2F3"/>
<path d="M30.9741 66.2151C31.0838 66.2094 31.1956 66.2455 31.2842 66.3247C31.4612 66.4833 31.4756 66.7533 31.3162 66.9294L29.9199 68.4724C29.7605 68.6486 29.4897 68.6628 29.3127 68.5042C29.1357 68.3455 29.1216 68.0758 29.281 67.8997L30.677 66.3567C30.7567 66.2686 30.8644 66.2212 30.9741 66.2151Z" fill="#F4F2F3"/>
<path d="M61.2351 65.5986C61.3729 65.594 61.5102 65.6555 61.5977 65.7754L61.7131 65.9336C61.5437 66.1928 61.3823 66.4578 61.2292 66.728L60.9014 66.2781C60.7615 66.0862 60.8043 65.8194 60.9971 65.6802C61.0694 65.6279 61.1524 65.6017 61.2351 65.5986Z" fill="#F4F2F3"/>
<path d="M31.2412 62.4338C31.351 62.4397 31.4588 62.4873 31.5383 62.5754C31.6976 62.7518 31.683 63.0214 31.5059 63.1799L27.8174 66.48C27.6402 66.6384 27.3694 66.624 27.2102 66.4478C27.051 66.2715 27.0653 66.002 27.2424 65.8435L30.9309 62.5435C31.0195 62.4642 31.1315 62.4278 31.2412 62.4338Z" fill="#F4F2F3"/>
<path d="M27.417 62.2717C27.5548 62.2671 27.6924 62.3288 27.7798 62.4487C27.9195 62.6406 27.8769 62.9072 27.6841 63.0464L25.9954 64.2656C25.8026 64.4049 25.5347 64.3625 25.3948 64.1707C25.2549 63.9788 25.2977 63.7122 25.4905 63.573L27.179 62.3535C27.2513 62.3013 27.3342 62.2748 27.417 62.2717Z" fill="#F4F2F3"/>
<path d="M64.748 62.4458C64.792 62.4435 64.8362 62.448 64.8792 62.4592C64.6964 62.6046 64.5171 62.7542 64.3416 62.908C64.3324 62.7949 64.3683 62.6785 64.4509 62.5872C64.5306 62.4991 64.6383 62.4519 64.748 62.4458Z" fill="#F4F2F3"/>
<path d="M28.4883 58.6499C28.6258 58.6595 28.7558 58.7348 28.8303 58.863C28.9494 59.0684 28.8794 59.3295 28.6731 59.448L24.3779 61.9158C24.1717 62.0343 23.9097 61.9645 23.7905 61.7593C23.6714 61.554 23.7415 61.2931 23.9478 61.1746L28.2432 58.7065C28.3205 58.662 28.4058 58.6438 28.4883 58.6499Z" fill="#F4F2F3"/>
<path d="M67.5115 58.6499C67.594 58.6442 67.679 58.6621 67.7563 58.7065L69.8096 59.8862C69.4435 59.9952 69.0834 60.118 68.73 60.2542L67.3264 59.4478C67.1202 59.3292 67.0498 59.0683 67.1689 58.863C67.2434 58.7347 67.3739 58.6591 67.5115 58.6499Z" fill="#F4F2F3"/>
<path d="M24.7773 57.7061C24.9448 57.7028 25.1053 57.7979 25.178 57.9602C25.2749 58.1768 25.1778 58.429 24.9602 58.5254L23.0542 59.3696C22.8366 59.4661 22.5833 59.3694 22.4863 59.1528C22.3895 58.9363 22.4867 58.6843 22.7043 58.5879L24.6104 57.7432C24.6648 57.7191 24.7215 57.7071 24.7773 57.7061Z" fill="#F4F2F3"/>
<path d="M71.2153 57.7224C71.2712 57.7235 71.328 57.7356 71.3823 57.7598L73.2876 58.6057C73.5051 58.7023 73.6022 58.9544 73.5051 59.1709C73.4848 59.2161 73.4572 59.2557 73.425 59.2898C73.2163 59.2978 73.0087 59.3105 72.8022 59.3271L71.032 58.5413C70.8144 58.4447 70.7175 58.1928 70.8145 57.9763C70.8872 57.814 71.0478 57.7184 71.2153 57.7224Z" fill="#F4F2F3"/>
<path d="M69.4177 54.3789C69.4734 54.3742 69.5311 54.3803 69.5876 54.3987L74.3035 55.928C74.53 56.0014 74.6529 56.2421 74.5791 56.4675C74.5053 56.6929 74.2634 56.8153 74.0369 56.7419L69.3213 55.2126C69.0947 55.1392 68.9719 54.8985 69.0457 54.6731C69.101 54.504 69.2507 54.3928 69.4177 54.3789Z" fill="#F4F2F3"/>
<path d="M26.5771 54.3638C26.7441 54.3779 26.8939 54.4891 26.9492 54.6582C27.0229 54.8837 26.8996 55.1242 26.6731 55.1975L21.9565 56.7236C21.73 56.7969 21.4882 56.6744 21.4146 56.449C21.3409 56.2235 21.4639 55.983 21.6904 55.9097L26.4072 54.3835C26.4639 54.3648 26.5215 54.3587 26.5771 54.3638Z" fill="#F4F2F3"/>
<path d="M72.8584 52.6782C72.8869 52.6782 72.916 52.6817 72.9451 52.6877L74.9858 53.1194C75.2188 53.1687 75.3667 53.3953 75.3171 53.6272C75.2676 53.8591 75.0401 54.0058 74.8071 53.9565L72.7664 53.5249C72.5334 53.4756 72.3858 53.2492 72.4353 53.0173C72.4787 52.8145 72.6581 52.6762 72.8584 52.6782Z" fill="#F4F2F3"/>
<path d="M23.1406 52.6743C23.3409 52.6726 23.5204 52.8103 23.5637 53.0132C23.6132 53.2451 23.4654 53.4714 23.2324 53.5208L21.1917 53.9521C20.9586 54.0014 20.7312 53.8542 20.6816 53.6223C20.6322 53.3904 20.78 53.1641 21.0129 53.1147L23.0537 52.6833C23.0828 52.6772 23.112 52.6746 23.1406 52.6743Z" fill="#F4F2F3"/>
<path d="M70.4849 49.7834L75.417 50.3025C75.6538 50.3274 75.8243 50.5375 75.7993 50.7732C75.7743 51.0089 75.5633 51.1787 75.3264 51.1538L70.3943 50.6348C70.1574 50.6099 69.987 50.4 70.012 50.1643C70.0339 49.958 70.198 49.8022 70.3975 49.7832C70.4259 49.7805 70.4553 49.7804 70.4849 49.7834Z" fill="#F4F2F3"/>
<path d="M25.5996 49.7529C25.799 49.7723 25.963 49.9282 25.9846 50.1345C26.0093 50.3703 25.8385 50.5799 25.6016 50.6045L20.6685 51.1169C20.4316 51.1415 20.221 50.9714 20.1963 50.7356C20.1716 50.4998 20.3424 50.2902 20.5793 50.2656L25.5122 49.7532C25.5418 49.7498 25.5711 49.7499 25.5996 49.7529Z" fill="#F4F2F3"/>
<path d="M22.5886 47.4199C22.8268 47.42 23.0188 47.6109 23.0188 47.8479C23.0188 48.0849 22.8268 48.2758 22.5886 48.2759H20.5022C20.264 48.2759 20.0723 48.085 20.0723 47.8479C20.0723 47.6108 20.264 47.4199 20.5022 47.4199H22.5886Z" fill="#F4F2F3"/>
<path d="M75.4973 47.4199C75.7355 47.42 75.9272 47.6108 75.9272 47.8479C75.9272 48.085 75.7355 48.2758 75.4973 48.2759H73.4109C73.1727 48.2758 72.981 48.085 72.981 47.8479C72.981 47.6108 73.1727 47.42 73.4109 47.4199H75.4973Z" fill="#F4F2F3"/>
<path d="M75.4185 44.5786C75.6178 44.5979 75.7816 44.7539 75.8032 44.9602C75.8279 45.196 75.6571 45.4056 75.4202 45.4302L70.4873 45.9426C70.2504 45.9672 70.0399 45.7971 70.0151 45.5613C69.9905 45.3255 70.1613 45.1159 70.3982 45.0913L75.3311 44.5789C75.3606 44.5755 75.39 44.5756 75.4185 44.5786Z" fill="#F4F2F3"/>
<path d="M20.6731 44.542L25.6052 45.061C25.8421 45.0859 26.0128 45.296 25.9878 45.5317C25.9627 45.7675 25.7518 45.9373 25.5149 45.9124L20.5825 45.3933C20.3457 45.3684 20.1752 45.1584 20.2002 44.9226C20.2221 44.7164 20.3863 44.5608 20.5857 44.5417C20.6142 44.5391 20.6435 44.5389 20.6731 44.542Z" fill="#F4F2F3"/>
<path d="M74.8948 41.7339C75.095 41.7322 75.2748 41.8699 75.3181 42.0728C75.3676 42.3047 75.2196 42.531 74.9866 42.5803L72.946 43.0117C72.713 43.061 72.4856 42.9138 72.436 42.6819C72.3865 42.45 72.5343 42.2239 72.7673 42.1746L74.8081 41.7432C74.8372 41.7381 74.8662 41.7341 74.8948 41.7339Z" fill="#F4F2F3"/>
<path d="M21.1057 41.7297C21.1343 41.7297 21.1635 41.7334 21.1926 41.7395L23.2332 42.1711C23.4661 42.2204 23.614 42.4468 23.5645 42.6787C23.5149 42.9105 23.2874 43.0576 23.0544 43.0083L21.0137 42.5767C20.7807 42.5273 20.6328 42.301 20.6824 42.0691C20.7257 41.8662 20.9054 41.7277 21.1057 41.7297Z" fill="#F4F2F3"/>
<path d="M74.2131 38.9526C74.3801 38.9668 74.5299 39.078 74.5852 39.2471C74.6588 39.4725 74.5356 39.713 74.3091 39.7864L69.5923 41.3125C69.3658 41.3857 69.1242 41.2632 69.0505 41.0378C68.9769 40.8124 69.0999 40.5718 69.3264 40.4985L74.0432 38.9724C74.0999 38.9537 74.1575 38.9476 74.2131 38.9526Z" fill="#F4F2F3"/>
<path d="M21.7927 38.9343C21.8483 38.9297 21.9061 38.9357 21.9626 38.9541L26.6785 40.4834C26.905 40.5568 27.0278 40.7975 26.9541 41.0229C26.8803 41.2483 26.6386 41.3707 26.4121 41.2974L21.6963 39.7681C21.4698 39.6946 21.3469 39.4539 21.4207 39.2285C21.476 39.0594 21.6257 38.9483 21.7927 38.9343Z" fill="#F4F2F3"/>
<path d="M73.1123 36.2891C73.2799 36.2857 73.4403 36.3808 73.5129 36.5432C73.6098 36.7598 73.5128 37.0118 73.2952 37.1082L71.3894 37.9526C71.1718 38.049 70.9185 37.9523 70.8215 37.7358C70.7247 37.5192 70.8219 37.2671 71.0396 37.1707L72.9453 36.3264C72.9997 36.3023 73.0565 36.2901 73.1123 36.2891Z" fill="#F4F2F3"/>
<path d="M22.8955 36.2715C22.9513 36.2726 23.0079 36.2846 23.0623 36.3088L24.9675 37.1545C25.1851 37.2511 25.2823 37.5032 25.1853 37.7197C25.0883 37.9363 24.835 38.0329 24.6174 37.9363L22.7119 37.0903C22.4944 36.9937 22.3973 36.7417 22.4944 36.5251C22.5672 36.3628 22.7279 36.2674 22.8955 36.2715Z" fill="#F4F2F3"/>
<path d="M24.1328 33.7236C24.2153 33.718 24.3006 33.7359 24.3779 33.7803L28.6731 36.2483C28.8794 36.3668 28.9494 36.6277 28.8303 36.833C28.7112 37.0382 28.4494 37.108 28.2432 36.9895L23.9478 34.5215C23.7415 34.4029 23.6714 34.1421 23.7905 33.9368C23.865 33.8085 23.9952 33.7328 24.1328 33.7236Z" fill="#F4F2F3"/>
<path d="M71.8667 33.7236C72.0043 33.7332 72.1348 33.8085 72.2092 33.9368C72.3283 34.1421 72.2581 34.4029 72.0518 34.5215L67.7563 36.9895C67.5501 37.108 67.2881 37.0383 67.1689 36.833C67.0498 36.6277 67.1201 36.3668 67.3264 36.2483L71.6216 33.7803C71.6989 33.7358 71.7842 33.7175 71.8667 33.7236Z" fill="#F4F2F3"/>
<path d="M70.2419 31.3486C70.3798 31.3439 70.5173 31.4055 70.6047 31.5254C70.7446 31.7173 70.702 31.9838 70.5093 32.123L68.8206 33.3425C68.6277 33.4817 68.3599 33.4395 68.22 33.2476C68.0801 33.0556 68.1229 32.7889 68.3157 32.6497L70.0042 31.4304C70.0764 31.3782 70.1592 31.3517 70.2419 31.3486Z" fill="#F4F2F3"/>
<path d="M25.769 31.333C25.8517 31.336 25.9349 31.3628 26.0071 31.415L27.6948 32.6355C27.8875 32.7749 27.9298 33.0416 27.7898 33.2334C27.6498 33.4251 27.3821 33.4672 27.1895 33.3279L25.5015 32.1074C25.3088 31.9681 25.2663 31.7016 25.4062 31.5098C25.4937 31.39 25.6312 31.328 25.769 31.333Z" fill="#F4F2F3"/>
<path d="M68.4927 29.1067C68.6024 29.1125 68.7099 29.1602 68.7896 29.2483C68.9487 29.4246 68.9344 29.694 68.7573 29.8525L65.0686 33.1526C64.8914 33.311 64.6204 33.2967 64.4612 33.1204C64.302 32.9441 64.3166 32.6746 64.4937 32.5161L68.1821 29.2161C68.2707 29.1368 68.3829 29.1006 68.4927 29.1067Z" fill="#F4F2F3"/>
<path d="M27.5203 29.092C27.63 29.0863 27.742 29.1226 27.8306 29.2019L31.5168 32.5044C31.6939 32.663 31.708 32.9327 31.5486 33.1089C31.3892 33.285 31.1185 33.2992 30.9414 33.1406L27.2551 29.8379C27.0782 29.6793 27.064 29.4098 27.2234 29.2336C27.3031 29.1455 27.4105 29.0981 27.5203 29.092Z" fill="#F4F2F3"/>
<path d="M64.2073 25.2671C64.29 25.27 64.3729 25.2969 64.4451 25.3491C64.6375 25.4886 64.6798 25.7551 64.5398 25.9468L61.6221 29.9385C61.4819 30.1301 61.2141 30.1721 61.0215 30.0327C60.8288 29.8932 60.7864 29.6265 60.9265 29.4348L63.8445 25.4431C63.9321 25.3234 64.0695 25.262 64.2073 25.2671Z" fill="#F4F2F3"/>
<path d="M31.823 25.2451C31.9608 25.2404 32.0983 25.3022 32.1858 25.4221L35.0981 29.4175C35.2381 29.6094 35.1954 29.8759 35.0027 30.0151C34.8099 30.1543 34.5417 30.1121 34.4019 29.9202L31.4897 25.9246C31.3498 25.7326 31.3924 25.4661 31.5852 25.3269C31.6575 25.2748 31.7403 25.2482 31.823 25.2451Z" fill="#F4F2F3"/>
<path d="M66.3767 27.082C66.4865 27.0763 66.5982 27.1126 66.6868 27.1919C66.8637 27.3505 66.8781 27.6202 66.7188 27.7964L65.3225 29.3394C65.1631 29.5154 64.8923 29.5297 64.7153 29.3711C64.5383 29.2125 64.5242 28.9428 64.6836 28.7666L66.0796 27.2236C66.1593 27.1355 66.2669 27.0881 66.3767 27.082Z" fill="#F4F2F3"/>
<path d="M29.626 27.0791C29.7357 27.0848 29.8434 27.1323 29.9231 27.2205L31.3188 28.7637C31.4782 28.9399 31.4639 29.2095 31.2869 29.3682C31.1098 29.5268 30.839 29.5126 30.6797 29.3364L29.2839 27.793C29.1245 27.6168 29.1386 27.3473 29.3157 27.1887C29.4042 27.1094 29.5162 27.073 29.626 27.0791Z" fill="#F4F2F3"/>
<path d="M59.2219 22.4016C59.2778 22.4028 59.3344 22.4151 59.3887 22.4392C59.6062 22.5358 59.7032 22.7879 59.6062 23.0044L57.5857 27.5122C57.4886 27.7287 57.2354 27.8253 57.0178 27.7288C56.8003 27.6322 56.7033 27.3801 56.8003 27.1636L58.8208 22.6555C58.8936 22.4932 59.0544 22.3986 59.2219 22.4016Z" fill="#F4F2F3"/>
<path d="M36.8123 22.3865C36.9798 22.3832 37.1403 22.4785 37.2129 22.6409L39.2275 27.1516C39.3243 27.3683 39.2268 27.6203 39.0093 27.7166C38.7916 27.8129 38.5384 27.7159 38.4417 27.4993L36.4272 22.9885C36.3305 22.7719 36.428 22.5201 36.6455 22.4238C36.6999 22.3997 36.7564 22.3875 36.8123 22.3865Z" fill="#F4F2F3"/>
<path d="M34.281 23.7195C34.4186 23.7291 34.5491 23.8045 34.6235 23.9329L35.6665 25.731C35.7856 25.9363 35.7156 26.1971 35.5093 26.3157C35.303 26.4342 35.041 26.3643 34.9219 26.1589L33.8787 24.3608C33.7596 24.1555 33.8298 23.8947 34.0361 23.7761C34.1135 23.7316 34.1985 23.7134 34.281 23.7195Z" fill="#F4F2F3"/>
<path d="M61.7185 23.7195C61.801 23.7138 61.8863 23.7317 61.9636 23.7761C62.1699 23.8947 62.2399 24.1553 62.1208 24.3606L61.0779 26.1589C60.9588 26.3643 60.6968 26.434 60.4905 26.3154C60.2842 26.1969 60.2139 25.9363 60.333 25.731L61.3762 23.9329C61.4507 23.8045 61.5809 23.7286 61.7185 23.7195Z" fill="#F4F2F3"/>
<path d="M53.7219 20.6235C53.7505 20.6235 53.7797 20.6267 53.8088 20.6328C54.0418 20.6821 54.1894 20.9085 54.1399 21.1404L53.1094 25.969C53.0599 26.2008 52.8324 26.3479 52.5994 26.2986C52.3664 26.2493 52.2185 26.0229 52.2681 25.791L53.2988 20.9626C53.3421 20.7597 53.5216 20.6215 53.7219 20.6235Z" fill="#F4F2F3"/>
<path d="M42.2971 20.6194C42.4974 20.6178 42.6767 20.7556 42.72 20.9585L43.7473 25.7878C43.7966 26.0198 43.6486 26.2461 43.4155 26.2952C43.1825 26.3442 42.9551 26.197 42.9058 25.9651L41.8787 21.136C41.8293 20.9041 41.9772 20.6775 42.2102 20.6284C42.2393 20.6223 42.2685 20.6196 42.2971 20.6194Z" fill="#F4F2F3"/>
<path d="M47.9998 20.0254C48.238 20.0254 48.4297 20.2163 48.4297 20.4534V25.3896C48.4296 25.6267 48.2379 25.8174 47.9998 25.8174C47.7616 25.8174 47.5699 25.6267 47.5698 25.3896V20.4534C47.5698 20.2163 47.7615 20.0254 47.9998 20.0254Z" fill="#F4F2F3"/>
<path d="M56.4639 21.3943C56.5195 21.3896 56.5774 21.3955 56.634 21.4138C56.8605 21.4871 56.9835 21.7277 56.9099 21.9531L56.2649 23.928C56.1912 24.1534 55.9495 24.2759 55.7229 24.2026C55.4964 24.1293 55.3734 23.8888 55.447 23.6633L56.092 21.6887C56.1473 21.5196 56.2969 21.4085 56.4639 21.3943Z" fill="#F4F2F3"/>
<path d="M39.5393 21.3933C39.7063 21.4074 39.8562 21.5186 39.9114 21.6877L40.5559 23.6624C40.6295 23.8878 40.5066 24.1284 40.28 24.2017C40.0535 24.2749 39.812 24.1524 39.7383 23.927L39.0935 21.9521C39.0199 21.7267 39.1431 21.4864 39.3696 21.4131C39.4262 21.3944 39.4837 21.3882 39.5393 21.3933Z" fill="#F4F2F3"/>
<path d="M50.9197 20.2048C51.1565 20.2296 51.3274 20.4393 51.3025 20.675L51.0842 22.7402C51.0593 22.976 50.8487 23.1459 50.6118 23.1211C50.3749 23.0963 50.2041 22.8864 50.229 22.6506L50.4473 20.5857C50.4691 20.3794 50.6332 20.2235 50.8325 20.2043C50.861 20.2018 50.8901 20.2018 50.9197 20.2048Z" fill="#F4F2F3"/>
<path d="M45.1868 20.2024C45.3861 20.2217 45.5501 20.3777 45.5718 20.584L45.7883 22.6489C45.8131 22.8847 45.6422 23.0945 45.4053 23.1191C45.1684 23.1437 44.9578 22.9736 44.9331 22.7378L44.7163 20.6729C44.6916 20.437 44.8624 20.2272 45.0994 20.2026C45.129 20.1992 45.1583 20.1993 45.1868 20.2024Z" fill="#F4F2F3"/>
<g opacity="0.409" filter="url(#filter0_f_12697_79650)">
<path d="M68.1536 30.7305L44.6283 44.3339L29.7539 67.6392L51.5139 51.5983L68.1536 30.7305Z" fill="black"/>
</g>
<path d="M51.3721 51.3614L44.6289 44.3333L68.5494 28.3184L51.3721 51.3614Z" fill="#FF5150"/>
<path d="M51.3717 51.3621L44.6285 44.334L27.4512 67.3771L51.3717 51.3621Z" fill="#F1F1F1"/>
<path opacity="0.243" d="M27.4512 67.3764L51.3717 51.3614L68.5491 28.3184L27.4512 67.3764Z" fill="black"/>
<path d="M90.8458 65.619C91.7216 65.5234 92.6115 65.5541 93.515 65.7113C93.5861 65.7237 93.6575 65.7369 93.7288 65.7509C93.7966 65.7644 93.8631 65.7918 93.9151 65.8385C93.9671 65.8852 94.0002 65.9466 94.0074 66.0126C94.0146 66.0786 93.9956 66.1457 93.9549 66.2025C93.9142 66.2593 93.8548 66.3005 93.7916 66.3283C93.725 66.3572 93.6584 66.3855 93.5916 66.413C92.7433 66.7615 91.8811 66.9833 91.0052 67.079C90.6391 67.119 90.2626 67.0643 89.8758 66.9142C89.8029 66.8859 89.7295 66.854 89.6558 66.819C89.5874 66.7858 89.521 66.7473 89.4696 66.6959C89.4181 66.6445 89.3856 66.5835 89.3785 66.518C89.3714 66.4525 89.39 66.3861 89.429 66.3248C89.4682 66.2635 89.5246 66.2114 89.5843 66.1642C89.6486 66.1141 89.7136 66.0674 89.7786 66.0241C90.124 65.794 90.4797 65.659 90.8458 65.619Z" fill="#CC3B0A"/>
<path d="M91.023 57.7709C91.0943 57.7705 91.162 57.7952 91.2127 57.8412C91.2634 57.8873 91.2944 57.9525 91.3008 58.0236C91.3073 58.0947 91.2881 58.1658 91.2545 58.2274C91.2093 58.3093 91.1637 58.3898 91.117 58.4703C90.5261 59.4909 89.8098 60.4041 89.0264 61.2257C88.6985 61.5697 88.3054 61.848 87.8438 62.068C87.7567 62.1097 87.6675 62.1487 87.5753 62.1864C87.5043 62.2151 87.4283 62.2357 87.3529 62.233C87.2774 62.2303 87.2084 62.2047 87.1566 62.1576C87.1048 62.1105 87.073 62.0442 87.0631 61.9694C87.0532 61.8945 87.0662 61.8169 87.088 61.7435C87.1175 61.6474 87.1494 61.554 87.1844 61.4625C87.3693 60.9783 87.6315 60.5602 87.9632 60.2123C88.7581 59.3787 89.6423 58.6579 90.5972 57.993C90.6727 57.9405 90.748 57.8886 90.8245 57.8366C90.8827 57.7972 90.9516 57.7713 91.023 57.7709Z" fill="#CC3B0A"/>
<path d="M83.546 54.2872C83.6066 54.2521 83.6755 54.2398 83.7408 54.2535C83.806 54.2673 83.864 54.3064 83.9053 54.3629C83.9467 54.4196 83.9675 54.4892 83.9735 54.5582C83.9797 54.6332 83.9849 54.708 83.9896 54.7826C84.0494 55.7304 83.9851 56.652 83.796 57.5472C83.7169 57.9215 83.544 58.276 83.2779 58.6107C83.2278 58.6737 83.1743 58.7361 83.1175 58.7977C83.0656 58.8533 83.0088 58.9053 82.9437 58.9386C82.8785 58.9719 82.8096 58.9839 82.7445 58.9701C82.6794 58.9563 82.6214 58.9175 82.5753 58.8607C82.5292 58.8039 82.4985 58.7333 82.4735 58.6615C82.4465 58.5822 82.4225 58.5036 82.4022 58.4257C82.2941 58.0119 82.2797 57.6178 82.3587 57.2435C82.5478 56.3484 82.8612 55.4792 83.2991 54.6366C83.3336 54.5703 83.3691 54.5041 83.4051 54.4381C83.4385 54.3774 83.4853 54.3223 83.546 54.2872Z" fill="#CC3B0A"/>
<path d="M62 74C62 67.3726 67.3726 62 74 62C80.6274 62 86 67.3726 86 74C86 80.6274 80.6274 86 74 86C67.3726 86 62 80.6274 62 74Z" fill="#F05F2B"/>
<path fill-rule="evenodd" clip-rule="evenodd" d="M74 63.5332C68.2194 63.5332 63.5332 68.2194 63.5332 74C63.5332 79.7807 68.2194 84.4669 74 84.4669C79.7807 84.4669 84.4669 79.7807 84.4669 74C84.4669 68.2194 79.7807 63.5332 74 63.5332ZM64.967 74C64.967 69.0112 69.0112 64.967 74 64.967C78.9888 64.967 83.0331 69.0112 83.0331 74C83.0331 78.4193 79.8595 82.0974 75.6671 82.8796C74.5775 80.3778 73.4423 77.3819 74.5533 77.0508C73.2307 74.6663 73.4981 73.1 76.2431 73.5828L76.2473 73.5833C76.5549 73.6183 76.7881 73.6448 76.861 73.5984C77.2327 73.3618 77.0021 68.1669 73.775 67.4613C70.8051 63.787 67.9784 67.9779 69.4122 67.6911C70.5592 67.4044 71.411 67.6691 71.3715 67.6805C66.3052 68.3193 68.6609 76.3014 69.9612 80.7073C70.14 81.3134 70.2989 81.8517 70.4158 82.294C67.21 80.9068 64.967 77.7154 64.967 74Z" fill="white"/>
<path d="M77.9673 81.567C77.9354 81.7729 77.8644 81.9102 77.7381 81.9294C77.4986 81.966 76.4272 81.7207 75.8183 81.4892C75.749 81.8077 74.1168 82.1092 73.8584 81.6814C73.2661 82.1934 72.1313 82.936 71.8941 82.7805C71.4397 82.483 71.0123 80.1924 71.3543 79.7083C71.8738 79.2361 72.9659 79.7499 73.7321 80.0213C73.9919 79.582 75.2498 79.4154 75.5109 79.776C76.1989 79.253 77.3471 78.5154 77.459 78.6499C78.0172 79.3225 78.0877 80.9232 77.9669 81.5674L77.9673 81.567Z" fill="#4CBA3C"/>
<path fill-rule="evenodd" clip-rule="evenodd" d="M72.147 74.6523C72.3812 72.9908 75.5198 73.5106 76.9233 73.3239C77.9461 73.2054 78.7052 72.9538 79.2108 72.7575C80.3716 72.2807 80.5693 72.7538 80.0017 73.4964C78.3991 75.3963 74.8349 74.0135 74.1968 74.9959C74.0103 75.287 74.1545 75.972 75.6205 76.1879C77.6014 76.479 79.2287 75.837 79.4296 76.225C78.978 78.2988 71.4572 77.5927 72.1461 74.6528L72.147 74.6523Z" fill="#FFCC33"/>
<path d="M76.1543 69.8598C75.9467 69.41 74.8793 69.4132 74.6753 69.8424C74.6567 69.9311 74.731 69.9077 74.8726 69.8631C75.1208 69.785 75.5756 69.6418 76.0995 69.9221C76.1408 69.9399 76.1808 69.8969 76.1543 69.8598Z" fill="#14307E"/>
<path d="M70.9387 69.9678C70.7405 69.9535 70.4188 69.9303 70.1529 70.078C69.7628 70.2441 69.637 70.423 69.5615 70.5457C69.5336 70.591 69.4258 70.5864 69.4258 70.5329C69.4523 69.8172 70.6657 69.4722 71.107 69.917C71.1605 69.9838 71.0819 69.9781 70.9387 69.9678Z" fill="#14307E"/>
<path d="M75.7742 72.3669C74.9576 72.3628 74.9576 71.104 75.7742 71.0999C76.5907 71.104 76.5907 72.3628 75.7742 72.3669Z" fill="#14307E"/>
<path d="M71.6362 72.1717C71.62 73.1426 70.1967 73.1426 70.1805 72.1717C70.185 71.2052 71.6317 71.2057 71.6362 72.1717Z" fill="#14307E"/>
<defs>
<filter id="filter0_f_12697_79650" x="27.2091" y="28.1856" width="43.4896" height="41.9984" filterUnits="userSpaceOnUse" color-interpolation-filters="sRGB">
<feFlood flood-opacity="0" result="BackgroundImageFix"/>
<feBlend mode="normal" in="SourceGraphic" in2="BackgroundImageFix" result="shape"/>
<feGaussianBlur stdDeviation="1.27242" result="effect1_foregroundBlur_12697_79650"/>
</filter>
<linearGradient id="paint0_linear_12697_79650" x1="47.9988" y1="79.6956" x2="47.9988" y2="15.9998" gradientUnits="userSpaceOnUse">
<stop stop-color="#BDBDBD"/>
<stop offset="1" stop-color="white"/>
</linearGradient>
<radialGradient id="paint1_radial_12697_79650" cx="0" cy="0" r="1" gradientUnits="userSpaceOnUse" gradientTransform="translate(48.1333 43.5686) scale(31.9999 31.848)">
<stop stop-color="#06C2E7"/>
<stop offset="0.25" stop-color="#0DB8EC"/>
<stop offset="0.5" stop-color="#12AEF1"/>
<stop offset="0.75" stop-color="#1F86F9"/>
<stop offset="1" stop-color="#107DDD"/>
</radialGradient>
</defs>
</svg>
