<svg width="32" height="32" viewBox="0 0 32 32" fill="none" xmlns="http://www.w3.org/2000/svg">
<path d="M15.7394 29.0212C18.2762 29.0212 23.3752 27.0293 26.0949 22.5647C28.3303 18.8971 28.6504 14.9628 28.4489 12.196C28.1779 8.46383 26.5945 7.89619 23.9442 7.03453C21.8782 6.36323 20.3185 5.43189 19.3346 4.46317C18.2508 3.39587 16.9858 2.97949 15.7394 2.97949C14.493 2.97949 13.2279 3.39587 12.1441 4.46317C11.1602 5.43189 9.59884 6.36323 7.5345 7.03453C4.88421 7.89619 3.30082 8.46553 3.02986 12.196C2.82834 14.9611 3.1501 18.8971 5.38379 22.5647C8.1035 27.0276 13.2025 29.0212 15.7394 29.0212Z" fill="#589D88"/>
<path d="M15.7401 2.4082C17.1228 2.40832 18.5363 2.87449 19.7362 4.05608C20.6415 4.94729 22.1164 5.83993 24.1212 6.49135C25.4163 6.91238 26.6096 7.3029 27.4812 8.12305C28.3871 8.97585 28.8782 10.2145 29.0191 12.1549C29.2259 14.9951 28.9006 19.0605 26.5833 22.8624C25.161 25.1971 23.1234 26.8749 21.1229 27.9685C19.1326 29.0565 17.1294 29.5928 15.7401 29.5929C14.3507 29.5929 12.3471 29.0561 10.3567 27.9679C8.35629 26.8741 6.31866 25.1962 4.89635 22.8624V22.8619C2.5809 19.06 2.25366 14.993 2.46052 12.1543C2.60146 10.2146 3.09294 8.97652 3.99903 8.1236C4.87059 7.30326 6.06315 6.91246 7.3584 6.49135C9.36178 5.83983 10.8383 4.94724 11.7434 4.05608C12.9435 2.87437 14.3573 2.4082 15.7401 2.4082ZM15.7401 3.55106C14.6302 3.55106 13.5129 3.91742 12.5453 4.87026C11.4828 5.91644 9.83663 6.88679 7.71164 7.57785C6.3567 8.01836 5.43238 8.34339 4.78195 8.95564C4.16613 9.53535 3.73008 10.447 3.60003 12.2374C3.4039 14.9289 3.72058 18.7345 5.87235 22.2676L5.99568 22.4651C7.28674 24.4924 9.09994 25.9783 10.9047 26.9651C12.7777 27.9892 14.5928 28.4501 15.7401 28.4501C16.8876 28.4499 18.7022 27.9894 20.5749 26.9657C22.4379 25.9473 24.3099 24.3972 25.6073 22.2676L25.8043 21.9355C27.7802 18.498 28.0696 14.8466 27.8796 12.2374C27.7496 10.4462 27.3133 9.53454 26.6977 8.95508C26.0473 8.34307 25.123 8.01838 23.768 7.57785V7.5784C21.6412 6.88733 19.9968 5.91629 18.9343 4.87026C17.9668 3.91756 16.8499 3.55117 15.7401 3.55106ZM15.9644 4.59682C16.1183 4.58739 16.2695 4.6383 16.383 4.73856C16.4965 4.83892 16.5633 4.98061 16.5699 5.13198C16.5848 5.47266 16.5987 5.81592 16.6112 6.15709C16.8134 12.3091 16.7717 18.4443 16.3255 24.5868C16.2957 24.9186 16.2624 25.2743 16.2122 25.6124C16.2037 25.6675 16.1729 25.7177 16.1279 25.7514C16.0829 25.7849 16.0268 25.8001 15.9717 25.7927C15.9165 25.7853 15.8662 25.7561 15.8316 25.7118C15.7971 25.6674 15.7807 25.6109 15.787 25.5555C15.8228 25.2359 15.8448 24.8816 15.8623 24.5538C16.0924 18.4437 15.92 12.3105 15.5057 6.2168C15.4815 5.87888 15.4559 5.53936 15.4293 5.20229C15.4173 5.05129 15.4662 4.90228 15.5665 4.78878C15.6668 4.67539 15.8107 4.60636 15.9644 4.59682Z" fill="#11604D"/>
</svg>
