<svg fill="none" viewBox="0 0 12 12" xmlns="http://www.w3.org/2000/svg">
  <path fill="#000" d="M3.93.828c.412-.412.964-.39 1.356-.191C5.664.829 6 1.236 6 1.75c0 .153-.011.291-.019.397a2 2 0 0 0-.007.244c.005.08.019.145.13.256.247.247.453.228 1.043.282.277.026.606.074.967.223.362.15.734.39 1.12.777.407.407.433 1.062.077 1.5l-.077.084L7.727 7.02l3.127 3.127a.5.5 0 0 1-.707.707L7.02 7.727 5.513 9.235a1.127 1.127 0 0 1-1.557.025c-.425-.425-.69-.816-.851-1.19a2.8 2.8 0 0 1-.222-.985c-.034-.587.011-.733-.236-.981-.091-.091-.177-.121-.318-.13-.082-.004-.175 0-.298.008A6 6 0 0 1 1.62 6c-.566 0-.93-.4-1.064-.802-.13-.391-.089-.908.272-1.269zm.778.67a.1.1 0 0 0-.052.02l-.02.017-3.1 3.101c-.036.035-.07.128-.031.246a.2.2 0 0 0 .061.1A.08.08 0 0 0 1.62 5c.11 0 .218-.008.348-.016.123-.008.268-.016.416-.008.318.018.661.112.97.42.583.585.504 1.237.527 1.63.012.212.043.417.142.649.1.231.28.515.625.862a.12.12 0 0 0 .077.023.12.12 0 0 0 .08-.032h.001l3.721-3.722a.12.12 0 0 0 .033-.085.12.12 0 0 0-.033-.085c-.304-.304-.567-.466-.795-.56a2.2 2.2 0 0 0-.676-.151c-.427-.04-1.096-.008-1.66-.571a1.34 1.34 0 0 1-.42-.899c-.009-.136 0-.27.008-.378.008-.116.016-.216.016-.327 0-.06-.05-.162-.167-.222a.24.24 0 0 0-.125-.03"/>
</svg>
