<svg width="96" height="96" viewBox="0 0 96 96" fill="none" xmlns="http://www.w3.org/2000/svg">
<path fill-rule="evenodd" clip-rule="evenodd" d="M32.8132 19.8727C42.4683 13.5329 55.4348 16.2206 61.7746 25.8757C66.7206 33.4081 66.1719 42.9558 61.1071 49.8002L75.259 71.1682C75.4377 71.438 75.5331 71.7544 75.5332 72.0781V77.9013C75.5331 78.8115 74.7954 79.5492 73.8852 79.5493H64.1264C63.2162 79.5493 62.4785 78.8115 62.4785 77.9013V72.665C62.4783 71.755 61.7405 71.0171 60.8305 71.017H57.6674C56.8483 71.017 56.1843 70.353 56.1843 69.5339V64.3215C56.1842 63.4115 55.4463 62.6737 54.5363 62.6735H49.207C48.6563 62.6735 48.1419 62.3986 47.8361 61.9406L46.2685 59.592C37.9429 61.5767 28.9033 58.2902 23.9343 50.7228C17.5945 41.0677 20.2821 28.1012 29.9372 21.7614L32.8132 19.8727ZM44.7109 28.3876C42.7682 25.429 38.7909 24.6078 35.8322 26.5505C32.8736 28.4932 32.0463 32.469 33.989 35.4277C35.9317 38.3862 39.909 39.2075 42.8676 37.2648C45.8262 35.3221 46.6534 31.3463 44.7109 28.3876Z" fill="#4397E0"/>
<path d="M60.9314 52.5469C61.2042 51.7781 62.2383 51.6519 62.6882 52.3323L75.0579 71.0376C75.1648 71.1994 75.2219 71.3891 75.2219 71.583V74.7451C75.2219 75.725 73.9499 76.1081 73.4087 75.2913L61.1638 56.8091C60.4485 55.7294 60.2825 54.3761 60.7156 53.1555L60.9314 52.5469Z" fill="#75B6EB"/>
<path d="M34.7168 18.6844C38.3438 16.3533 47.7466 15.1397 54.2212 18.6846C60.6958 22.2295 64.6907 28.0283 65.4246 35.9749C66.0793 43.0646 62.6466 49.4073 60.1003 51.4329C58.995 52.3122 58.2933 52.5152 57.9187 52.2034C57.6119 51.9479 57.6366 51.332 58.4912 50.6321C59.7279 49.6193 66.8074 40.9547 60.6238 29.2349C55.6768 19.8591 45.3984 16.8685 34.7168 18.6844Z" fill="#75B6EB"/>
<path d="M60.0432 54.9881C60.0927 54.9975 60.1366 55.0259 60.1665 55.066C60.3906 55.3668 60.6139 55.6684 60.8364 55.9703C62.8387 58.6877 64.7745 61.4496 66.6438 64.2557C68.5131 67.0617 70.3219 69.9083 72.0698 72.7952C72.264 73.1159 72.4575 73.4372 72.6501 73.7588C72.6793 73.8076 72.6899 73.8661 72.6782 73.9222C72.6665 73.9782 72.6334 74.0274 72.5862 74.0589C72.5389 74.0904 72.4808 74.1019 72.4245 74.0911C72.3683 74.0803 72.3184 74.048 72.2846 74.0022C72.062 73.7005 71.84 73.3982 71.6189 73.0955C69.6282 70.3703 67.6981 67.6044 65.8288 64.7984C63.9596 61.9924 62.1568 59.142 60.4206 56.2474C60.2277 55.9258 60.0355 55.6035 59.8442 55.2808C59.8187 55.2377 59.8094 55.1861 59.8198 55.1368C59.8302 55.0874 59.8593 55.0441 59.9009 55.0164C59.9424 54.9888 59.9937 54.9786 60.0432 54.9881Z" fill="#045EB2"/>
<path fill-rule="evenodd" clip-rule="evenodd" d="M35.4194 25.9227C38.7237 23.753 43.1662 24.6695 45.3366 27.9749C47.5071 31.2804 46.5823 35.7212 43.2781 37.8909C39.9737 40.0606 35.5313 39.1439 33.3608 35.8384C31.1905 32.533 32.1152 28.0923 35.4194 25.9227ZM44.0827 28.7981C42.3677 26.1865 38.8558 25.4609 36.2429 27.1766C33.6299 28.8923 32.8998 32.4034 34.6147 35.0152C36.3297 37.627 39.8418 38.3528 42.4548 36.637C45.0677 34.9212 45.7977 31.41 44.0827 28.7981Z" fill="#045EB2"/>
<path fill-rule="evenodd" clip-rule="evenodd" d="M32.6133 19.4737C42.5514 12.942 55.8978 15.7113 62.4231 25.658C67.3984 33.2421 66.971 42.8075 62.0847 49.8186C62.0683 49.8529 62.0486 49.8857 62.0266 49.9173L75.6421 70.6336C75.8991 71.0247 76.0361 71.4827 76.0361 71.9507L76.0364 77.5467C76.0364 78.8711 74.9626 79.9449 73.6382 79.9449H64.125C62.8007 79.9447 61.7271 78.8712 61.727 77.5469V72.6644C61.7269 72.1839 61.3496 71.7916 60.8752 71.7676L60.8291 71.7664H57.666C56.4328 71.7662 55.4329 70.7665 55.4328 69.5332V64.3208C55.4328 63.8404 55.0555 63.4482 54.581 63.4241L54.5349 63.4229H49.3059C48.5092 63.4229 47.7645 63.0272 47.3186 62.367L46.0222 60.4471C37.6061 62.2243 28.5845 58.8192 23.5776 51.1871C17.0527 41.2407 19.8184 27.8831 29.7561 21.3516L32.6133 19.4737ZM61.1689 26.4808C55.098 17.2267 42.6822 14.6511 33.4372 20.7271L30.5801 22.605C21.3347 28.6814 18.7606 41.1098 24.8318 50.3643C29.6429 57.698 38.4402 60.8386 46.4865 58.7999C46.5501 58.7838 46.6138 58.7769 46.6765 58.7774C46.6936 58.7725 46.711 58.7681 46.7287 58.7645C46.783 58.7544 46.8426 58.7417 46.9023 58.7281C48.0034 58.4598 49.1439 58.0938 50.2519 57.7071C50.3136 57.6853 50.3754 57.6632 50.437 57.6412C50.4998 57.6188 50.5731 57.6234 50.6384 57.6495C50.7038 57.6758 50.7563 57.7218 50.7861 57.7813C50.8158 57.8408 50.8211 57.9104 50.803 57.9786C50.7846 58.0464 50.744 58.1076 50.6885 58.1443C50.633 58.1808 50.5774 58.2173 50.5217 58.2535C49.5555 58.8762 48.5916 59.4687 47.5429 60.0188L48.5615 61.5274C48.7285 61.7746 49.0076 61.9229 49.3059 61.9229H54.5349C55.8592 61.923 56.9328 62.9965 56.9328 64.3208V69.5332L56.9338 69.5708C56.9534 69.9582 57.2738 70.2663 57.666 70.2664H60.8291C62.1535 70.2664 63.2269 71.3401 63.227 72.6644V77.5469C63.2271 78.0428 63.6291 78.4447 64.125 78.4449H73.6382C74.1342 78.4449 74.5364 78.0427 74.5364 77.5467L74.5361 71.9507C74.5361 71.7755 74.4848 71.604 74.3886 71.4576L60.946 51.0044C59.6283 52.2596 58.2771 53.4265 56.7339 54.4344C56.6274 54.4997 56.5197 54.5623 56.4118 54.6197C56.35 54.6523 56.2752 54.6588 56.2055 54.6399C56.1358 54.6209 56.0767 54.578 56.04 54.5186C56.0034 54.4591 55.9916 54.387 56.0058 54.3162C56.0202 54.2455 56.0595 54.1815 56.1164 54.1409C56.204 54.0777 56.2939 54.0084 56.3835 53.9358C57.8884 52.6443 59.2391 51.0648 60.4668 49.4978C65.3761 42.9309 65.9251 33.7309 61.1689 26.4808Z" fill="#045EB2"/>
<path d="M39.0474 27.5061C40.1387 27.4229 41.2372 27.6324 42.2048 28.1006C42.3121 28.1528 42.4184 28.2088 42.5208 28.2676C42.5621 28.2916 42.597 28.3275 42.616 28.3723C42.6349 28.417 42.6369 28.4663 42.6206 28.5105C42.6043 28.5547 42.5708 28.5911 42.5274 28.6128C42.4839 28.6345 42.434 28.6394 42.387 28.6309C42.2771 28.6114 42.1656 28.5932 42.0552 28.5772C41.061 28.4367 40.081 28.4106 39.1238 28.4824C38.1679 28.5599 37.2287 28.7442 36.3626 29.1899C36.2665 29.2398 36.1717 29.2927 36.0779 29.3496C36.0315 29.3782 35.9765 29.3932 35.9214 29.3875C35.8663 29.3817 35.8161 29.3563 35.781 29.3154C35.7459 29.2746 35.7281 29.2211 35.7307 29.1658C35.7333 29.1104 35.7565 29.0582 35.7918 29.0166C35.8713 28.9245 35.9555 28.8362 36.0442 28.7517C36.8477 27.9848 37.9625 27.5886 39.0474 27.5061Z" fill="#1074CC"/>
</svg>
