<svg width="24" height="24" viewBox="0 0 24 24" fill="none" xmlns="http://www.w3.org/2000/svg">
<path d="M12 3.25C16.8324 3.25 20.7497 7.16731 20.7499 11.9996C19.7053 11.215 18.407 10.75 17 10.75C13.5482 10.75 10.75 13.5482 10.75 17C10.75 18.407 11.215 19.7053 11.9996 20.7499C7.16731 20.7497 3.25 16.8324 3.25 12C3.25 7.16751 7.16751 3.25 12 3.25Z" fill="#FFD885"/>
<path d="M11.0581 15.0562C10.8581 15.668 10.75 16.3214 10.75 17C10.75 18.4102 11.2173 19.7112 12.0051 20.757C12.0035 20.757 12.0018 20.7571 12.0001 20.7571C9.56901 20.7571 7.36938 19.7654 5.78369 18.1648C6.9656 16.4907 8.86464 15.3196 11.0581 15.0562ZM12 6.875C13.7259 6.875 15.125 8.27411 15.125 10C15.125 10.3882 15.0539 10.7598 14.9246 11.1028C13.8001 11.4985 12.8231 12.2068 12.0974 13.1233C12.0651 13.1243 12.0326 13.125 12 13.125C10.2741 13.125 8.875 11.7259 8.875 10C8.875 8.27411 10.2741 6.875 12 6.875Z" fill="#F5A031"/>
<path d="M12 2C17.078 2 21.2719 5.78491 21.9146 10.6875C21.9586 11.0231 21.9856 11.3609 21.9957 11.6992C22.0116 12.2359 21.3252 12.4569 20.9063 12.121C20.8548 12.0798 20.8027 12.0393 20.7499 11.9996C20.7497 7.16731 16.8324 3.25 12 3.25C7.16751 3.25 3.25 7.16751 3.25 12C3.25 14.0326 3.94314 15.9032 5.10583 17.3887C5.8157 16.4594 6.71096 15.6817 7.7384 15.106L7.85693 15.0408C8.98312 14.4326 10.2308 14.0819 11.5088 14.0127C11.2856 14.4221 11.1068 14.8592 10.979 15.3176C10.0569 15.4426 9.16424 15.7398 8.34949 16.1964C7.40297 16.7268 6.58839 17.4571 5.96204 18.333C7.53222 19.8305 9.65857 20.7498 11.9996 20.7499C12.0393 20.8027 12.0798 20.8548 12.121 20.9063C12.4569 21.3252 12.2359 22.0116 11.6992 21.9956C11.4587 21.9885 11.2184 21.9728 10.979 21.9485C5.93575 21.4371 2 17.1782 2 12C2 6.47715 6.47715 2 12 2ZM12 6C14.2091 6 16 7.79086 16 10C16 10.2898 15.9688 10.5724 15.9103 10.8447C15.3887 10.9364 14.8894 11.0928 14.4209 11.3053C14.6307 10.9169 14.75 10.4724 14.75 10C14.75 8.48122 13.5188 7.25 12 7.25C10.4812 7.25 9.25 8.48122 9.25 10C9.25 11.5188 10.4812 12.75 12 12.75C12.1542 12.75 12.3054 12.737 12.4526 12.7126C12.0957 13.0911 11.7857 13.5142 11.5314 13.9725C9.54307 13.7405 8 12.0506 8 10C8 7.79086 9.79086 6 12 6Z" fill="#B66A1F"/>
<path d="M22 17C22 19.7614 19.7614 22 17 22C14.2386 22 12 19.7614 12 17C12 14.2386 14.2386 12 17 12C19.7614 12 22 14.2386 22 17Z" fill="black"/>
<path d="M19.75 16.375C20.0952 16.375 20.375 16.6548 20.375 17C20.375 17.3452 20.0952 17.625 19.75 17.625L14.25 17.625C13.9048 17.625 13.625 17.3452 13.625 17C13.625 16.6548 13.9048 16.375 14.25 16.375L19.75 16.375Z" fill="white"/>
</svg>
