<svg width="12" height="12" viewBox="0 0 12 12" fill="none" xmlns="http://www.w3.org/2000/svg">
<g clip-path="url(#clip0_10792_95455)">
<path d="M5.25 0C8.14949 0 10.5 2.3505 10.5 5.25C10.5 6.5197 10.049 7.68392 9.29883 8.5918L11.8535 11.1465L11.918 11.2246C12.0461 11.4187 12.0244 11.6827 11.8535 11.8535C11.6827 12.0244 11.4187 12.0461 11.2246 11.918L11.1465 11.8535L8.5918 9.29883C7.68392 10.049 6.5197 10.5 5.25 10.5C2.3505 10.5 0 8.14949 0 5.25C0 2.3505 2.3505 0 5.25 0ZM5.25 1C2.90279 1 1 2.90279 1 5.25C1 7.59721 2.90279 9.5 5.25 9.5C7.59721 9.5 9.5 7.59721 9.5 5.25C9.5 2.90279 7.59721 1 5.25 1Z" fill="black"/>
</g>
<defs>
<clipPath id="clip0_10792_95455">
<rect width="12" height="12" fill="white"/>
</clipPath>
</defs>
</svg>
