<svg width="24" height="24" viewBox="0 0 24 24" fill="none" xmlns="http://www.w3.org/2000/svg">
<path d="M10.75 1.99988C15.1294 1.99988 18.7574 4.87547 19.3992 8.62927C20.9914 9.86681 21.9999 11.6997 22 13.7457C22 15.4799 21.2755 17.0612 20.0852 18.2565L19.9685 18.371C19.5993 18.7251 19.5163 19.3044 19.8235 19.7052L19.8545 19.7433L20.5298 20.5331C21.076 21.1717 20.5383 22.1313 19.7112 21.983C17.181 21.5293 13.3443 20.758 11.7119 19.9982C10.7602 19.6482 9.90663 19.1258 9.198 18.4745C7.46988 18.8577 5.6678 19.1938 4.28223 19.4357C3.45282 19.5804 2.918 18.6152 3.46851 17.9781L4.61084 16.6564L4.64209 16.618C4.95337 16.216 4.87032 15.6318 4.49023 15.284C2.94955 13.8744 2.00002 11.9464 2 9.82018C2.00004 5.50116 5.91753 1.99988 10.75 1.99988ZM19.4363 10.7655C19.0502 13.6286 16.9335 16.0153 14.0481 17.0655C13.3418 17.391 12.2827 17.7179 11.0786 18.0277C11.4327 18.2484 11.8173 18.4385 12.2297 18.5902L12.2883 18.6119L12.345 18.6383C13.0039 18.945 14.2315 19.2989 15.7151 19.6444C16.5904 19.8482 17.5099 20.0391 18.3772 20.2079C17.8738 19.1885 18.1965 17.9921 18.9302 17.2884C19.9241 16.3352 20.5 15.0881 20.5 13.7457C20.5 12.6668 20.1131 11.6293 19.4363 10.7655ZM10.75 3.49988C6.58308 3.49988 3.50004 6.48358 3.5 9.82018C3.50002 11.4814 4.23871 13.0207 5.50293 14.1774C6.41021 15.0075 6.69549 16.5378 5.74561 17.6371L5.73608 17.6483C6.83574 17.4419 8.03763 17.2011 9.18774 16.9405C11.0191 16.5256 12.5813 16.0898 13.4204 15.7032L13.4768 15.6771L13.5352 15.6559C16.2425 14.6704 18 12.3634 18 9.82018C18 6.48358 14.9169 3.49988 10.75 3.49988Z" fill="black"/>
</svg>
