<svg width="24" height="24" viewBox="0 0 24 24" fill="none" xmlns="http://www.w3.org/2000/svg">
<path d="M5.125 5.75C5.125 4.02411 6.52411 2.625 8.25 2.625H11.9556C12.7844 2.625 13.5792 2.95424 14.1653 3.54029L17.9597 7.33471C18.5458 7.92076 18.875 8.71562 18.875 9.54442V18.25C18.875 19.9759 17.4759 21.375 15.75 21.375H8.25C6.52411 21.375 5.125 19.9759 5.125 18.25V5.75Z" fill="white"/>
<path d="M12.7859 2.625C13.2832 2.62501 13.7601 2.82257 14.1117 3.17419L18.3258 7.38831C18.6774 7.73993 18.875 8.21684 18.875 8.71411V8.875H15.125C13.7443 8.875 12.625 7.75571 12.625 6.375V2.625H12.7859Z" fill="#DADADA"/>
<path d="M12.2681 2C13.2626 2 14.2164 2.39513 14.9197 3.09839L18.4016 6.58032C19.1049 7.28358 19.5 8.23738 19.5 9.23193V18.25C19.5 20.3211 17.8211 22 15.75 22H8.25C6.17893 22 4.5 20.3211 4.5 18.25V5.75C4.5 3.67893 6.17893 2 8.25 2H12.2681ZM8.25 3.25C6.86929 3.25 5.75 4.36929 5.75 5.75V18.25C5.75 19.6307 6.86929 20.75 8.25 20.75H15.75C17.1307 20.75 18.25 19.6307 18.25 18.25V9.5H15.75C13.6789 9.5 12 7.82107 12 5.75V3.25H8.25ZM13.25 5.75C13.25 7.13071 14.3693 8.25 15.75 8.25H18.049C17.9248 7.95931 17.7457 7.69195 17.5178 7.46411L14.0359 3.98218C13.808 3.75433 13.5407 3.57507 13.25 3.45093V5.75Z" fill="#686868"/>
</svg>
