<svg width="128" height="96" viewBox="0 0 128 96" fill="none" xmlns="http://www.w3.org/2000/svg">
<path opacity="0.2" d="M105.629 38.2L107.171 37.8C107.457 37.7429 107.743 37.4571 107.8 37.1714L108.2 35.6286C108.314 35.2286 108.657 35 109 35C109.4 35 109.743 35.2857 109.8 35.6286L110.2 37.1714C110.257 37.4571 110.543 37.7429 110.829 37.8L112.371 38.2C112.771 38.3143 113 38.6571 113 39C113 39.4 112.714 39.7429 112.371 39.8L110.829 40.2C110.543 40.2571 110.257 40.5429 110.2 40.8286L109.8 42.3714C109.686 42.7714 109.343 43 109 43C108.6 43 108.257 42.7143 108.2 42.3714L107.8 40.8286C107.743 40.5429 107.457 40.2571 107.171 40.2L105.629 39.8C105.229 39.6857 105 39.3429 105 39C105 38.6 105.286 38.2571 105.629 38.2Z" fill="#888888"/>
<path opacity="0.2" d="M15.9428 31.8L18.2571 31.2C18.6857 31.1143 19.1143 30.6857 19.2 30.2571L19.8 27.9429C19.9714 27.3429 20.4857 27 21 27C21.6 27 22.1143 27.4286 22.2 27.9429L22.8 30.2571C22.8857 30.6857 23.3143 31.1143 23.7429 31.2L26.0572 31.8C26.6572 31.9714 27 32.4857 27 33C27 33.6 26.5714 34.1143 26.0572 34.2L23.7429 34.8C23.3143 34.8857 22.8857 35.3143 22.8 35.7429L22.2 38.0571C22.0286 38.6571 21.5143 39 21 39C20.4 39 19.8857 38.5714 19.8 38.0571L19.2 35.7429C19.1143 35.3143 18.6857 34.8857 18.2571 34.8L15.9428 34.2C15.3428 34.0286 15 33.5143 15 33C15 32.4 15.4286 31.8857 15.9428 31.8Z" fill="#888888"/>
<path opacity="0.2" d="M0.628557 53.2L2.17142 52.8C2.45714 52.7429 2.74287 52.4571 2.80001 52.1714L3.19999 50.6286C3.31427 50.2286 3.65714 50 4 50C4.4 50 4.74287 50.2857 4.80001 50.6286L5.19999 52.1714C5.25713 52.4571 5.54286 52.7429 5.82858 52.8L7.37144 53.2C7.77144 53.3143 8 53.6571 8 54C8 54.4 7.7143 54.7429 7.37144 54.8L5.82858 55.2C5.54286 55.2571 5.25713 55.5429 5.19999 55.8286L4.80001 57.3714C4.68573 57.7714 4.34286 58 4 58C3.6 58 3.25713 57.7143 3.19999 57.3714L2.80001 55.8286C2.74287 55.5429 2.45714 55.2571 2.17142 55.2L0.628557 54.8C0.228557 54.6857 0 54.3429 0 54C0 53.6 0.2857 53.2571 0.628557 53.2Z" fill="#888888"/>
<path opacity="0.2" d="M126.5 52C125.675 52 125 51.325 125 50.5C125 49.675 125.675 49 126.5 49C127.325 49 128 49.675 128 50.5C128 51.325 127.325 52 126.5 52Z" fill="#888888"/>
<path opacity="0.2" d="M23 70C21.9 70 21 69.1 21 68C21 66.9 21.9 66 23 66C24.1 66 25 66.9 25 68C25 69.1 24.1 70 23 70Z" fill="#888888"/>
<path fill-rule="evenodd" clip-rule="evenodd" d="M76.5 40H51.5V26C51.5 21.5817 55.0817 18 59.5 18H68.5C72.9183 18 76.5 21.5817 76.5 26V40ZM59.5 23C57.8431 23 56.5 24.3431 56.5 26V35H71.5V26C71.5 24.3431 70.1569 23 68.5 23H59.5Z" fill="#888888"/>
<path d="M86 50C74.9543 50 66 58.9543 66 70C66 72.7614 63.7614 75 61 75H46C41.5817 75 38 71.4183 38 67V36C38 31.5817 41.5817 28 46 28H88C92.4183 28 96 31.5817 96 36V46C96 48.2091 94.2091 50 92 50H86Z" fill="#C18010"/>
<path d="M86 50C74.9543 50 66 58.9543 66 70V71C66 73.2091 64.2091 75 62 75H40C35.5817 75 32 71.4183 32 67V36C32 31.5817 35.5817 28 40 28H82C86.4183 28 90 31.5817 90 36V50H86Z" fill="#E2A412"/>
<path fill-rule="evenodd" clip-rule="evenodd" d="M58.3926 56.1859C59.8275 57.0144 61.6622 56.5227 62.4907 55.0878L67.9907 45.5616C68.8191 44.1267 68.3275 42.2919 66.8926 41.4635L53.9022 33.9635C51.0324 32.3066 47.3629 33.2899 45.706 36.1596L43.206 40.4898C41.5492 43.3595 42.5324 47.0291 45.4022 48.6859L58.3926 56.1859ZM48.8202 38.7437C48.0391 37.9627 46.7728 37.9627 45.9917 38.7437C45.2107 39.5248 45.2107 40.7911 45.9917 41.5721C46.7728 42.3532 48.0391 42.3532 48.8202 41.5721C49.6012 40.7911 49.6012 39.5248 48.8202 38.7437Z" fill="#FFE8A3"/>
<path d="M42 28H47V75H42V28Z" fill="#F9BE1A"/>
<path d="M80 28H75V53.294C76.5324 52.283 78.2121 51.4772 80 50.9156V28Z" fill="#F9BE1A"/>
<path d="M86 86C94.8366 86 102 78.8366 102 70C102 61.1634 94.8366 54 86 54C77.1634 54 70 61.1634 70 70C70 78.8366 77.1634 86 86 86Z" fill="#557FF3"/>
<path fill-rule="evenodd" clip-rule="evenodd" d="M88 61C88.5523 61 89 61.4477 89 62V70.9777C89 71.3938 89.4785 71.6278 89.807 71.3724L92.6967 69.1248C93.138 68.7815 93.7751 68.8668 94.1106 69.3142L95.9103 71.7138C96.2376 72.1502 96.1548 72.7684 95.7242 73.1032L87.453 79.5343C86.5837 80.1552 85.416 80.1552 84.5468 79.5343L76.2758 73.1032C75.8452 72.7684 75.7623 72.1502 76.0896 71.7138L77.8894 69.3142C78.2249 68.8668 78.862 68.7815 79.3033 69.1248L82.193 71.3724C82.5215 71.6278 83 71.3938 83 70.9777V62C83 61.4477 83.4477 61 84 61H88Z" fill="white"/>
<path d="M107.501 58C107.799 58 108.096 58.12 108.324 58.3539C108.778 58.8219 108.778 59.5837 108.324 60.0517L105.991 62.4512C105.536 62.9192 104.796 62.9192 104.341 62.4512C103.886 61.9833 103.886 61.2215 104.341 60.7535L106.673 58.3539C106.901 58.12 107.198 58 107.496 58H107.501Z" fill="#CCCCCC"/>
<path d="M106.335 68.7982H109.834C110.475 68.7982 111 69.3381 111 69.998C111 70.6579 110.475 71.1978 109.834 71.1978H106.335C105.694 71.1978 105.169 70.6579 105.169 69.998C105.169 69.3381 105.694 68.7982 106.335 68.7982Z" fill="#CCCCCC"/>
<path d="M104.353 77.5518C104.58 77.3178 104.878 77.1978 105.175 77.1978H105.181C105.478 77.1978 105.776 77.3178 106.003 77.5518L108.336 79.9513C108.79 80.4193 108.79 81.1811 108.336 81.6491C107.881 82.117 107.14 82.117 106.685 81.6491L104.353 79.2495C103.898 78.7815 103.898 78.0197 104.353 77.5518Z" fill="#CCCCCC"/>
</svg>
