<svg width="24" height="24" viewBox="0 0 24 24" fill="none" xmlns="http://www.w3.org/2000/svg">
<path d="M8.16113 18.25C8.45283 18.4777 8.79391 18.6521 9.17383 18.7539L10.6992 19.1621C11.0023 19.7916 11.4251 20.3575 11.9463 20.8252C11.9502 20.8287 11.9541 20.8325 11.958 20.8359C12.1092 20.9697 12.2741 21.084 12.4463 21.1836L8.78613 20.2031C7.65633 19.9004 6.75115 19.1784 6.19141 18.25H8.16113ZM12.6562 2C15.0552 2 16.9999 3.94488 17 6.34375V10.1777C16.993 10.1774 16.9855 10.1771 16.9785 10.1768V10.1123C16.9784 9.51532 16.8005 8.93188 16.4688 8.43555C16.2174 8.05944 15.8858 7.74676 15.5 7.51758V6.34375C15.4999 4.7733 14.2267 3.5 12.6562 3.5H6.34375C4.77327 3.5 3.50013 4.7733 3.5 6.34375V10.5469L5.6875 9.28418C6.88637 8.59206 8.36363 8.59206 9.5625 9.28418L10.168 9.63281L9.06934 10.7314L8.8125 10.583C8.07773 10.1588 7.17227 10.1588 6.4375 10.583L3.5 12.2783V12.6562C3.50026 14.2266 4.77335 15.5 6.34375 15.5H7.51758C7.7468 15.8859 8.05957 16.2184 8.43555 16.4697C8.93169 16.8012 9.51564 16.9783 10.1123 16.9785H10.1699C10.1701 16.9857 10.1707 16.9928 10.1709 17H6.34375C3.94492 17 2.00026 15.055 2 12.6562V6.34375C2.00013 3.94488 3.94485 2 6.34375 2H12.6562ZM18.7656 7.34766C21.0827 7.96858 22.4576 10.3508 21.8369 12.668L21.5713 13.6553C21.5122 13.0666 21.2873 12.5081 20.9131 12.0498L20.7139 11.8291C20.6384 11.7532 20.5609 11.6797 20.4814 11.6084C20.5114 10.3271 19.6698 9.14333 18.377 8.79688L18.25 8.7627V7.20996L18.7656 7.34766Z" fill="black" fill-opacity="0.84"/>
<path fill-rule="evenodd" clip-rule="evenodd" d="M13.6631 8.62305C13.9575 8.56458 14.2627 8.59423 14.54 8.70898C14.8174 8.8239 15.0547 9.01895 15.2217 9.26855C15.3885 9.51825 15.4784 9.81197 15.4785 10.1123V10.5635C15.4787 10.8569 15.5952 11.1382 15.8027 11.3457C16.0103 11.5533 16.2923 11.6708 16.5859 11.6709H16.7178C17.2622 11.6697 17.8016 11.776 18.3047 11.9844C18.8076 12.1928 19.2643 12.4989 19.6484 12.8848L19.7012 12.9395C19.9533 13.2181 20.0937 13.5814 20.0937 13.959C20.0937 14.3365 19.9533 14.6999 19.7012 14.9785L19.6484 15.0332L17.8711 16.8105L21.749 20.6885C22.0417 20.9814 22.0418 21.4562 21.749 21.749C21.4562 22.0418 20.9814 22.0418 20.6885 21.749L16.8105 17.8711L15.0332 19.6484C14.7597 19.922 14.3915 20.0809 14.0049 20.0928C13.6182 20.1045 13.2418 19.9683 12.9521 19.7119C12.9509 19.7108 12.9494 19.7101 12.9482 19.709C12.526 19.3301 12.1924 18.8624 11.9717 18.3398C11.7534 17.8231 11.6511 17.2645 11.6709 16.7041V16.585L11.6689 16.5303C11.6552 16.2568 11.5403 15.9973 11.3457 15.8027C11.1511 15.6082 10.8917 15.4932 10.6181 15.4795L10.5635 15.4785H10.1123C9.81199 15.4784 9.51821 15.3885 9.26853 15.2217C9.01889 15.0548 8.82389 14.8175 8.70896 14.54C8.59411 14.2626 8.56445 13.9567 8.62303 13.6621C8.68167 13.3678 8.82591 13.0971 9.03807 12.8848L12.8847 9.03809L12.9258 8.99902C13.1316 8.80812 13.387 8.67794 13.6631 8.62305ZM13.9453 10.0996L10.0996 13.9453H10.0986C10.0961 13.9479 10.0945 13.9515 10.0937 13.9551C10.093 13.9586 10.0934 13.9625 10.0947 13.9658C10.0962 13.9693 10.0994 13.9725 10.1025 13.9746C10.1057 13.9767 10.1095 13.9785 10.1133 13.9785H10.5635C11.2546 13.9788 11.9175 14.2535 12.4062 14.7422C12.895 15.231 13.1706 15.8937 13.1709 16.585V16.7148C13.1709 16.7248 13.1703 16.7351 13.1699 16.7451C13.156 17.0914 13.2187 17.4366 13.3535 17.7559C13.4876 18.0735 13.6902 18.358 13.9463 18.5889C13.9498 18.5919 13.9543 18.5938 13.959 18.5938C13.9638 18.5936 13.9692 18.5913 13.9726 18.5879L18.5879 13.9727C18.5914 13.9691 18.5937 13.964 18.5937 13.959C18.5937 13.9539 18.5915 13.9489 18.5879 13.9453L18.5869 13.9434C18.3423 13.6974 18.0509 13.5029 17.7304 13.3701C17.4101 13.2374 17.0665 13.17 16.7197 13.1709H16.5849C15.8937 13.1706 15.2309 12.895 14.7422 12.4062C14.2535 11.9175 13.9788 11.2546 13.9785 10.5635V10.1133L13.9746 10.1025C13.9725 10.0995 13.9702 10.0962 13.9668 10.0947C13.9633 10.0933 13.9588 10.093 13.9551 10.0938L13.9453 10.0996ZM10.9219 5.5C11.6553 5.50007 12.25 6.09466 12.25 6.82812C12.2499 7.56153 11.6553 8.15618 10.9219 8.15625C10.1884 8.15625 9.5938 7.56157 9.59373 6.82812C9.59373 6.09462 10.1884 5.5 10.9219 5.5Z" fill="black" fill-opacity="0.84"/>
</svg>
