<svg width="24" height="24" viewBox="0 0 24 24" fill="none" xmlns="http://www.w3.org/2000/svg">
<path d="M12 21.375C13.8637 21.375 17.61 19.9409 19.6081 16.7264C21.2505 14.0857 21.4856 11.253 21.3376 9.26086C21.1385 6.57372 19.9752 6.16502 18.028 5.54463C16.5101 5.06129 15.3642 4.39073 14.6414 3.69325C13.8451 2.92479 12.9157 2.625 12 2.625C11.0842 2.625 10.1548 2.92479 9.35856 3.69325C8.63569 4.39073 7.48855 5.06129 5.97189 5.54463C4.02475 6.16502 2.86143 6.57494 2.66236 9.26086C2.51431 11.2517 2.7507 14.0857 4.39178 16.7264C6.38994 19.9397 10.1362 21.375 12 21.375Z" fill="#269B61"/>
<path d="M12.0005 2C13.0614 2.00012 14.1518 2.35167 15.0757 3.24316C15.6325 3.78031 16.5087 4.32997 17.6919 4.76855L18.2183 4.94922L18.9165 5.17773C19.6047 5.41568 20.2521 5.69771 20.7622 6.16797C21.4824 6.83233 21.8556 7.78691 21.9614 9.21484C22.1156 11.2893 21.8736 14.2678 20.1392 17.0566C19.0704 18.7758 17.5427 20.0065 16.0493 20.8066C14.5662 21.6012 13.0619 21.9999 12.0005 22C11.9753 22 11.95 21.9985 11.9243 21.998C12.2188 19.8964 12.615 16.4948 12.771 13.0625C12.9464 9.20351 12.3328 4.54974 11.8843 2.00195C11.9231 2.00101 11.9618 2 12.0005 2Z" fill="#38B26A"/>
<path d="M11.9999 2C13.061 2.00001 14.1511 2.35153 15.0751 3.24316C15.6319 3.78039 16.508 4.3299 17.6913 4.76855L18.2177 4.94922L18.916 5.17773C19.6043 5.41571 20.2515 5.69761 20.7617 6.16797C21.4821 6.83234 21.8551 7.78674 21.9609 9.21484C22.115 11.2894 21.8732 14.2677 20.1386 17.0566C19.0698 18.7759 17.5423 20.0065 16.0488 20.8066C14.5655 21.6013 13.0614 22 11.9999 22C10.9384 22 9.43432 21.6014 7.95111 20.8066C6.45756 20.0064 4.93013 18.7754 3.86126 17.0566C2.12814 14.2679 1.88484 11.2884 2.039 9.21484C2.1448 7.78728 2.51791 6.83342 3.23822 6.16895C3.91835 5.54162 4.8417 5.24886 5.78216 4.94922C7.23365 4.48664 8.28849 3.85706 8.92474 3.24316C9.8488 2.35155 10.9389 2 11.9999 2ZM11.9999 3.25C11.2298 3.25 10.4612 3.4978 9.7929 4.14258C8.98351 4.92354 7.74358 5.63556 6.16204 6.13965C5.15544 6.46037 4.52295 6.68379 4.0849 7.08789C3.68722 7.45494 3.37934 8.04901 3.28607 9.30664L3.28509 9.30762C3.14325 11.2158 3.37397 13.9043 4.92279 16.3965C5.85202 17.8907 7.19613 18.9845 8.54095 19.7051C9.8963 20.4313 11.1977 20.75 11.9999 20.75C12.8023 20.75 14.1037 20.4311 15.4589 19.7051C16.8036 18.9846 18.1479 17.8912 19.0771 16.3965C20.627 13.9045 20.8557 11.2173 20.7138 9.30762V9.30664C20.6205 8.04801 20.3127 7.45374 19.915 7.08691C19.477 6.68301 18.8454 6.46037 17.8388 6.13965V6.14062C16.2555 5.63646 15.0164 4.92355 14.207 4.14258C13.5386 3.49778 12.7701 3.25001 11.9999 3.25Z" fill="#006B4B"/>
<path d="M15.463 9.47633C15.7522 9.18008 16.2272 9.17376 16.5236 9.46266C16.8198 9.75185 16.8262 10.2268 16.5373 10.5232L11.4123 15.7732C11.1274 16.065 10.6614 16.076 10.3634 15.7976L7.48843 13.1101C7.18591 12.8273 7.16965 12.3532 7.4523 12.0505C7.73509 11.748 8.20927 11.7318 8.51187 12.0144L10.8507 14.2L15.463 9.47633Z" fill="#006B4B"/>
<path d="M15.463 8.60133C15.7522 8.30508 16.2272 8.29876 16.5236 8.58766C16.8198 8.87685 16.8262 9.35177 16.5373 9.6482L11.4123 14.8982C11.1274 15.19 10.6614 15.201 10.3634 14.9226L7.48843 12.2351C7.18591 11.9523 7.16965 11.4782 7.4523 11.1755C7.73509 10.873 8.20927 10.8568 8.51187 11.1394L10.8507 13.325L15.463 8.60133Z" fill="white"/>
</svg>
