<svg width="16" height="16" viewBox="0 0 16 16" fill="none" xmlns="http://www.w3.org/2000/svg">
<path d="M10.0001 13.9947C10.3453 13.9947 10.6251 14.2744 10.6251 14.6194V14.7505C10.6251 15.4414 10.064 16.0012 9.37276 16L6.62285 15.995C5.93383 15.9937 5.37577 15.4353 5.37516 14.7466L5.37503 14.62C5.37473 14.275 5.65427 13.995 5.99943 13.9947C6.34459 13.9944 6.62471 14.2738 6.62505 14.6188L6.62517 14.7455L9.37507 14.7505V14.6194C9.37507 14.2744 9.6549 13.9947 10.0001 13.9947Z" fill="black"/>
<path fill-rule="evenodd" clip-rule="evenodd" d="M8.00006 0C11.3138 2.46072e-05 14 2.68531 14 5.99771C14 7.92748 13.0875 9.64444 11.6731 10.7404C11.4432 10.9185 11.3334 11.1422 11.3333 11.3363V11.4123C11.3333 12.4704 10.4753 13.3282 9.4167 13.3282H6.5833C5.52476 13.3281 4.66665 12.4704 4.66665 11.4123V11.3363C4.66663 11.1422 4.55682 10.9185 4.32693 10.7404C2.91251 9.64444 2.00001 7.92745 2 5.99771C2.00002 2.6853 4.68635 2.1899e-05 8.00006 0ZM8.00006 1.33274C5.42274 1.33277 3.33329 3.4214 3.33327 5.99771L3.33388 6.06787C3.35557 7.53949 4.05836 8.8459 5.14383 9.68698C5.61922 10.0553 5.9999 10.6382 5.99992 11.3363V11.4123C5.99992 11.7343 6.26115 11.9954 6.5833 11.9954H9.4167C9.73887 11.9954 10.0001 11.7343 10.0001 11.4123V11.3363C10.0001 10.6382 10.3808 10.0553 10.8562 9.68698C11.9589 8.83257 12.6667 7.49796 12.6667 5.99771L12.6651 5.87727C12.6022 3.39663 10.6021 1.39722 8.12055 1.33433L8.00006 1.33274Z" fill="black"/>
</svg>
