<svg width="24" height="24" viewBox="0 0 24 24" fill="none" xmlns="http://www.w3.org/2000/svg">
<path d="M16.917 2.875C17.6531 2.87518 18.2498 3.47189 18.25 4.20801V10.875C17.8461 10.793 17.4281 10.75 17 10.75C13.5482 10.75 10.75 13.5482 10.75 17C10.75 18.5812 11.3384 20.0242 12.3066 21.125H7.08301C6.34678 21.1248 5.75 20.5361 5.75 19.7998V4.2002C5.75 3.46392 6.34678 2.87517 7.08301 2.875H16.917Z" fill="#CCDAFF"/>
<path d="M16.1875 2C17.7408 2 19 3.2592 19 4.8125V11.0781C18.5999 10.943 18.1818 10.8476 17.75 10.7959V4.8125C17.75 3.94956 17.0504 3.25 16.1875 3.25H7.8125C6.94956 3.25 6.25 3.94956 6.25 4.8125V19.1875C6.25 20.0504 6.94956 20.75 7.8125 20.75H12C12.3556 21.2233 12.7767 21.6444 13.25 22H7.8125C6.2592 22 5 20.7408 5 19.1875V4.8125C5 3.2592 6.2592 2 7.8125 2H16.1875Z" fill="url(#paint0_linear_12585_7343)"/>
<path d="M13.375 4C13.7202 4 14 4.27982 14 4.625C14 4.97018 13.7202 5.25 13.375 5.25H10.625C10.2798 5.25 10 4.97018 10 4.625C10 4.27982 10.2798 4 10.625 4H13.375Z" fill="url(#paint1_linear_12585_7343)"/>
<path d="M21.625 17C21.625 19.5543 19.5543 21.625 17 21.625C14.4457 21.625 12.375 19.5543 12.375 17C12.375 14.4457 14.4457 12.375 17 12.375C19.5543 12.375 21.625 14.4457 21.625 17Z" fill="#F5F5F5"/>
<path d="M17 12C19.7614 12 22 14.2386 22 17C22 19.7614 19.7614 22 17 22C14.2386 22 12 19.7614 12 17C12 14.2386 14.2386 12 17 12ZM17 13.25C14.9289 13.25 13.25 14.9289 13.25 17C13.25 19.0711 14.9289 20.75 17 20.75C19.0711 20.75 20.75 19.0711 20.75 17C20.75 14.9289 19.0711 13.25 17 13.25Z" fill="url(#paint2_linear_12585_7343)"/>
<path d="M18.4331 15.4643C18.6771 15.2202 19.0728 15.2202 19.3168 15.4643C19.5609 15.7084 19.5609 16.104 19.3168 16.3481L16.9731 18.6918C16.729 18.9359 16.3334 18.9359 16.0893 18.6918L14.6831 17.2856C14.439 17.0415 14.439 16.6459 14.6831 16.4018C14.9271 16.1577 15.3228 16.1577 15.5668 16.4018L16.5312 17.3662L18.4331 15.4643Z" fill="#888888"/>
<defs>
<linearGradient id="paint0_linear_12585_7343" x1="12" y1="2" x2="12" y2="22" gradientUnits="userSpaceOnUse">
<stop stop-color="#557FF3"/>
<stop offset="1" stop-color="#2B55CA"/>
</linearGradient>
<linearGradient id="paint1_linear_12585_7343" x1="12" y1="2" x2="12" y2="22" gradientUnits="userSpaceOnUse">
<stop stop-color="#557FF3"/>
<stop offset="1" stop-color="#2B55CA"/>
</linearGradient>
<linearGradient id="paint2_linear_12585_7343" x1="17" y1="12" x2="17" y2="22" gradientUnits="userSpaceOnUse">
<stop stop-color="#AAAAAA"/>
<stop offset="1" stop-color="#666666"/>
</linearGradient>
</defs>
</svg>
