<svg width="24" height="24" viewBox="0 0 24 24" fill="none" xmlns="http://www.w3.org/2000/svg">
<path d="M2 8C2 5.23858 4.23858 3 7 3H17C19.7614 3 22 5.23858 22 8V16C22 18.7614 19.7614 21 17 21H7C4.23858 21 2 18.7614 2 16V8Z" fill="#75B6EB"/>
<path d="M17 19.75V21H7V19.75H17ZM20.75 16V8C20.75 5.92893 19.0711 4.25 17 4.25H7C4.92893 4.25 3.25 5.92893 3.25 8V16C3.25 18.0711 4.92893 19.75 7 19.75V21C4.28171 21 2.07002 18.8308 2.00159 16.129L2 16V8C2 5.28172 4.16918 3.07002 6.87097 3.00159L7 3H17L17.129 3.00159C19.8308 3.07002 22 5.28171 22 8V16L21.9984 16.129C21.9311 18.7879 19.7879 20.9311 17.129 20.9984L17 21V19.75C19.0711 19.75 20.75 18.0711 20.75 16Z" fill="#045EB2"/>
<path d="M3.25 13.5H20.75V16C20.75 18.0711 19.0711 19.75 17 19.75H7C4.92893 19.75 3.25 18.0711 3.25 16V13.5Z" fill="#E6F6FF"/>
<path d="M4.75 15.875C4.75 15.2537 5.25368 14.75 5.875 14.75H6.875C7.49632 14.75 8 15.2537 8 15.875H4.75Z" fill="#F5A031"/>
<path d="M8.25 14.5C8.25 13.1193 9.36929 12 10.75 12H13.25C14.6307 12 15.75 13.1193 15.75 14.5V17C15.75 18.3807 14.6307 19.5 13.25 19.5H10.75C9.36929 19.5 8.25 18.3807 8.25 17V14.5Z" fill="#E6F6FF"/>
<path d="M4.75 15.875H8V17.0714C8 17.5843 7.58426 18 7.07143 18H6.875C5.70139 18 4.75 17.0486 4.75 15.875Cnan nan nan nan 4.75 15.875L-nan -nanL4.75 15.875Z" fill="#F5A031"/>
<path d="M16 15.75C16 15.1977 16.4477 14.75 17 14.75H18.25C18.8023 14.75 19.25 15.1977 19.25 15.75V15.875C19.25 17.0486 18.2986 18 17.125 18H17C16.4477 18 16 17.5523 16 17V15.75Z" fill="#589D88"/>
<path d="M9.75 14.75C9.75 14.0596 10.3096 13.5 11 13.5H13C13.6904 13.5 14.25 14.0596 14.25 14.75V16.75C14.25 17.4404 13.6904 18 13 18H11C10.3096 18 9.75 17.4404 9.75 16.75V14.75Z" fill="#CC3B0A"/>
<path d="M10.75 15C10.75 14.7239 10.9739 14.5 11.25 14.5H12.75C13.0261 14.5 13.25 14.7239 13.25 15V16.5C13.25 16.7761 13.0261 17 12.75 17H11.25C10.9739 17 10.75 16.7761 10.75 16.5V15Z" fill="#FF8D5C"/>
<path d="M11.375 8.625L11.375 6.75C11.375 6.40482 11.6548 6.125 12 6.125C12.3452 6.125 12.625 6.40482 12.625 6.75L12.625 8.625C12.625 8.97018 12.3452 9.25 12 9.25C11.6548 9.25 11.375 8.97018 11.375 8.625Z" fill="white" fill-opacity="0.84"/>
<path d="M14.683 9.43307L15.9331 8.18303C16.1771 7.93895 16.5729 7.93895 16.8169 8.18303C17.061 8.42711 17.061 8.82284 16.8169 9.06691L15.5669 10.317C15.3228 10.561 14.9271 10.561 14.683 10.317C14.439 10.0729 14.439 9.67715 14.683 9.43307Z" fill="white" fill-opacity="0.84"/>
<path d="M8.43319 10.317L7.18315 9.06694C6.93907 8.82286 6.93907 8.42714 7.18315 8.18306C7.42723 7.93898 7.82296 7.93898 8.06704 8.18306L9.31708 9.4331C9.56111 9.67718 9.56114 10.0729 9.31708 10.317C9.07301 10.561 8.67727 10.561 8.43319 10.317Z" fill="white" fill-opacity="0.84"/>
</svg>
