<svg width="24" height="24" viewBox="0 0 24 24" fill="none" xmlns="http://www.w3.org/2000/svg">
<path d="M15.875 3.625C18.3603 3.625 20.375 5.63972 20.375 8.125V10.75C20.375 11 20.031 11.5305 19.8512 11.4381C18.9963 10.9986 18.0274 10.75 17 10.75C13.5482 10.75 10.75 13.5482 10.75 17C10.75 18.0189 10.995 18.9802 11.428 19.8298C11.5235 20.0171 11 20.375 10.75 20.375H8.125C5.63972 20.375 3.625 18.3603 3.625 15.875V8.125C3.625 5.63972 5.63972 3.625 8.125 3.625H15.875Z" fill="#F05F2B"/>
<path d="M16.2568 3.00684C18.8989 3.14053 21 5.32472 21 8V10.9158C21 11.4246 20.3879 11.7222 19.9391 11.4826C19.8767 11.4493 19.8136 11.417 19.75 11.3857V8C19.75 5.92893 18.0711 4.25 16 4.25H8C5.92893 4.25 4.25 5.92893 4.25 8V16C4.25 18.0711 5.92893 19.75 8 19.75H11.3867C11.4179 19.8136 11.4502 19.8766 11.4835 19.9389C11.7231 20.3878 11.4254 21 10.9166 21H8L7.74316 20.9932C5.18618 20.8638 3.13622 18.8138 3.00684 16.2568L3 16V8C3 5.32472 5.10111 3.14053 7.74316 3.00684L8 3H16L16.2568 3.00684Z" fill="#CC3B0A"/>
<path d="M12 5.75C15.0607 5.75 17.6058 7.95045 18.1436 10.8555C17.7727 10.7869 17.3907 10.75 17 10.75C13.5482 10.75 10.75 13.5482 10.75 17C10.75 17.3907 10.7869 17.7727 10.8555 18.1436C7.95045 17.6058 5.75 15.0607 5.75 12C5.75 8.54822 8.54822 5.75 12 5.75Z" fill="#FF8D5C"/>
<path d="M12 5.75C15.0607 5.75 17.6058 7.95045 18.1436 10.8555C17.7727 10.7869 17.3907 10.75 17 10.75C16.9474 10.75 16.895 10.7516 16.8428 10.7529C16.2887 8.59497 14.3308 7 12 7C9.23858 7 7 9.23858 7 12C7 14.3308 8.59497 16.2887 10.7529 16.8428C10.7516 16.895 10.75 16.9474 10.75 17C10.75 17.3907 10.7869 17.7727 10.8555 18.1436C7.95045 17.6058 5.75 15.0607 5.75 12C5.75 8.54822 8.54822 5.75 12 5.75Z" fill="#FFB294"/>
<path d="M22 17C22 19.7614 19.7614 22 17 22C14.2386 22 12 19.7614 12 17C12 14.2386 14.2386 12 17 12C19.7614 12 22 14.2386 22 17Z" fill="#38B26A"/>
<path d="M22 17C22 19.7614 19.7614 22 17 22C14.2386 22 12 19.7614 12 17C12 14.2386 14.2386 12 17 12C19.7614 12 22 14.2386 22 17Z" fill="black"/>
<path d="M17 13.625C17.3452 13.625 17.625 13.9048 17.625 14.25V16.375H19.75C20.0952 16.375 20.375 16.6548 20.375 17C20.375 17.3452 20.0952 17.625 19.75 17.625H17.625V19.75C17.625 20.0952 17.3452 20.375 17 20.375C16.6548 20.375 16.375 20.0952 16.375 19.75V17.625H14.25C13.9048 17.625 13.625 17.3452 13.625 17C13.625 16.6548 13.9048 16.375 14.25 16.375H16.375V14.25C16.375 13.9048 16.6548 13.625 17 13.625Z" fill="white"/>
</svg>
