<svg width="24" height="24" viewBox="0 0 24 24" fill="none" xmlns="http://www.w3.org/2000/svg">
<g clip-path="url(#clip0_4262_8730)">
<path d="M12 0C17.101 0 19.6516 0.000216722 21.4131 1.34143C21.8823 1.69874 22.3013 2.11766 22.6586 2.58691C23.9998 4.34842 24 6.89901 24 12C24 17.101 23.9998 19.6516 22.6586 21.4131C22.3012 21.8824 21.8824 22.3016 21.4131 22.6589C19.6516 24.0001 17.101 24 12 24C6.89903 24 4.34842 24.0001 2.58691 22.6589C2.1176 22.3016 1.69878 21.8824 1.34143 21.4131C0.000216722 19.6516 0 17.101 0 12C0 6.89901 0.000216722 4.34842 1.34143 2.58691C1.69874 2.11766 2.11766 1.69874 2.58691 1.34143C4.34842 0.000216722 6.89901 0 12 0Z" fill="#181718"/>
<path d="M6.75009 4.125C7.52739 4.12501 8.25438 4.34017 8.87503 4.71396C8.40048 5.12728 8.00995 5.63456 7.73236 6.20682C7.53994 5.86278 7.17228 5.63005 6.75009 5.63004C6.1288 5.63004 5.62513 6.13375 5.62509 6.75504C5.62509 7.37636 6.12877 7.88004 6.75009 7.88004C6.94663 7.88003 7.13131 7.82946 7.29208 7.74088C7.27402 7.90811 7.26471 8.07797 7.26471 8.25C7.26471 9.66169 7.88896 10.9267 8.87512 11.7856C8.49445 12.0148 8.07386 12.1846 7.62607 12.2814V14.24H8.2511C8.66527 14.2401 9.0011 14.5758 9.0011 14.99V17.4901C9.00108 17.9042 8.66527 18.24 8.2511 18.2401H7.62607V18.8751C7.62607 19.3583 7.23431 19.75 6.7511 19.75C6.26785 19.75 5.87604 19.3583 5.87604 18.8751V12.2819C4.01772 11.8809 2.625 10.2282 2.625 8.25C2.62503 5.97185 4.47194 4.125 6.75009 4.125Z" fill="#FFC95C"/>
<path d="M9.3511 5.04858C10.2809 5.80494 10.8751 6.95802 10.8751 8.25C10.8751 9.54202 10.2809 10.695 9.35101 11.4512C8.42128 10.6949 7.82721 9.54193 7.82721 8.25C7.82723 6.95803 8.42134 5.80494 9.3511 5.04858Z" fill="#FFC95C"/>
<path d="M8.12595 18.2399H7.62598V14.2399H8.12595V18.2399Z" fill="#F5A031"/>
<path d="M11.9521 4.125C12.3367 4.125 12.709 4.1778 13.0621 4.27625C13.0798 4.28116 13.0973 4.28621 13.1149 4.29135C13.1543 4.30291 13.1934 4.3151 13.2323 4.32779C13.2617 4.33739 13.291 4.3473 13.3201 4.35754C13.3279 4.36029 13.3358 4.36299 13.3436 4.36578C13.3999 4.38597 13.4556 4.40742 13.5107 4.42996C13.5389 4.44148 13.567 4.45327 13.5949 4.46539C13.7613 4.53775 13.922 4.62072 14.0761 4.7135C13.6017 5.12655 13.2113 5.6335 12.9337 6.20535C12.9225 6.18537 12.9105 6.16587 12.8982 6.14667C12.8968 6.1446 12.8956 6.1425 12.8942 6.14044C12.8885 6.13162 12.8826 6.1229 12.8766 6.11426C12.8744 6.11122 12.8723 6.10821 12.8701 6.10519C12.8588 6.08926 12.8472 6.07363 12.8351 6.05832C12.8332 6.05595 12.8314 6.05353 12.8295 6.05118C12.8233 6.0434 12.8169 6.03571 12.8105 6.02811C12.8069 6.02391 12.8033 6.0198 12.7997 6.01566C12.7889 6.00333 12.7779 5.99124 12.7666 5.9794C12.7629 5.97551 12.7592 5.97161 12.7554 5.96777C12.7492 5.96141 12.7429 5.95513 12.7365 5.94891C12.7321 5.94464 12.7277 5.94039 12.7232 5.93619C12.7121 5.92573 12.7008 5.91553 12.6892 5.90552C12.6849 5.90171 12.6805 5.8979 12.6761 5.89417C12.6694 5.88855 12.6626 5.88305 12.6558 5.87759C12.6493 5.87237 12.6428 5.86721 12.6361 5.86212C12.6309 5.85812 12.6258 5.85404 12.6205 5.85013C12.6094 5.84192 12.5981 5.83395 12.5867 5.82614C12.5817 5.82275 12.5767 5.81948 12.5717 5.81616C12.5631 5.81046 12.5544 5.80488 12.5456 5.79941C12.5403 5.79611 12.535 5.79274 12.5297 5.78952C12.5182 5.78263 12.5065 5.77596 12.4948 5.76947C12.4887 5.76613 12.4826 5.76291 12.4765 5.75967C12.467 5.75467 12.4575 5.74977 12.4478 5.74503C12.4441 5.7432 12.4404 5.74132 12.4366 5.73953C12.4227 5.73285 12.4085 5.72642 12.3943 5.72031C12.3897 5.71837 12.3852 5.7166 12.3806 5.71472C12.3694 5.71008 12.358 5.70564 12.3466 5.70135C12.3425 5.69984 12.3385 5.69824 12.3345 5.69678C12.3198 5.69147 12.305 5.68638 12.2901 5.68167C12.2855 5.68022 12.2808 5.67894 12.2762 5.67755C12.2649 5.67418 12.2536 5.67097 12.2423 5.66794C12.2375 5.66666 12.2326 5.6654 12.2278 5.66418C12.2122 5.66025 12.1965 5.65656 12.1807 5.65329C12.1693 5.65094 12.1578 5.64879 12.1463 5.64679C12.1447 5.6465 12.143 5.64625 12.1413 5.64597C12.1328 5.64453 12.1244 5.64318 12.1158 5.64194C12.1108 5.6412 12.1058 5.6405 12.1007 5.63983C12.0792 5.63699 12.0575 5.63466 12.0356 5.63306C12.0306 5.63269 12.0256 5.63244 12.0206 5.63214C12.0139 5.63174 12.0071 5.63133 12.0003 5.63104C11.9956 5.63084 11.9908 5.63073 11.986 5.63058C11.9748 5.63025 11.9635 5.63004 11.9521 5.63004C11.3309 5.63004 10.8272 6.13375 10.8271 6.75504C10.8271 7.37636 11.3308 7.88004 11.9521 7.88004C11.9628 7.88004 11.9735 7.87978 11.9841 7.87949C11.9892 7.87934 11.9944 7.87915 11.9995 7.87894C12.0052 7.8787 12.0108 7.87843 12.0165 7.87811C12.0219 7.87781 12.0273 7.87749 12.0327 7.87711C12.0411 7.87651 12.0495 7.87578 12.0579 7.875C12.0591 7.87488 12.0604 7.87485 12.0616 7.87473C12.0848 7.87249 12.1078 7.86947 12.1305 7.86584C12.1318 7.86564 12.1331 7.86542 12.1344 7.8652C12.1436 7.86371 12.1528 7.86207 12.1619 7.86035C12.1651 7.85975 12.1683 7.85915 12.1715 7.85852C12.1764 7.85755 12.1813 7.85645 12.1862 7.85541C12.2 7.85249 12.2137 7.8494 12.2273 7.84598C12.2298 7.84534 12.2323 7.8448 12.2349 7.84415C12.2492 7.84042 12.2635 7.83625 12.2776 7.83197C12.2843 7.82996 12.2909 7.82787 12.2975 7.82574C12.3071 7.82263 12.3167 7.81931 12.3262 7.81595C12.3344 7.81307 12.3425 7.81013 12.3506 7.80707C12.3602 7.80342 12.3698 7.79971 12.3792 7.79581C12.3854 7.79328 12.3915 7.79075 12.3976 7.78812C12.4097 7.78291 12.4216 7.77752 12.4334 7.77191C12.4402 7.76872 12.4468 7.76535 12.4535 7.76202C12.4598 7.75887 12.4661 7.75568 12.4724 7.75241C12.4791 7.74889 12.4858 7.74544 12.4925 7.74179C12.4745 7.90872 12.4653 8.07829 12.4653 8.25C12.4653 9.662 13.0899 10.9274 14.0764 11.7862C14.0621 11.7948 14.0477 11.8032 14.0333 11.8117C14.0112 11.8246 13.9889 11.8375 13.9665 11.85C13.9265 11.8725 13.8861 11.8941 13.8454 11.9152C13.7882 11.9448 13.7304 11.9733 13.6718 12.0002C13.609 12.029 13.5562 12.0713 13.515 12.1218C13.5048 12.1344 13.4953 12.1475 13.4865 12.161C13.4777 12.1746 13.4696 12.1886 13.4624 12.203C13.4552 12.2173 13.4488 12.2319 13.4432 12.2468C13.4404 12.2543 13.4377 12.2618 13.4353 12.2694C13.4257 12.2998 13.4195 12.331 13.4169 12.3624C13.4156 12.3781 13.4151 12.3938 13.4156 12.4095C13.4161 12.4252 13.4175 12.4409 13.4199 12.4565C13.4247 12.4876 13.4332 12.5182 13.4458 12.5478C13.4521 12.5625 13.4594 12.577 13.4678 12.5912C13.4737 12.6012 13.4804 12.6109 13.4874 12.6205C13.4952 12.6313 13.5035 12.6418 13.5126 12.6519L13.7298 12.8934L13.7412 12.9065C13.7473 12.9139 13.7529 12.9215 13.7584 12.9294C13.7902 12.9749 13.8115 13.0268 13.8207 13.0814C13.8242 13.1021 13.8261 13.123 13.8261 13.1442V13.2199C13.8261 13.3132 13.7914 13.4029 13.7291 13.4717L13.7163 13.4852L13.2163 13.9851C13.2026 13.9989 13.1901 14.0134 13.179 14.0285C13.0711 14.1753 13.0836 14.3827 13.2163 14.5154L13.7163 15.0155C13.7313 15.0304 13.7447 15.0467 13.7568 15.0637C13.7609 15.0695 13.7648 15.0753 13.7686 15.0812C13.7863 15.1094 13.8003 15.1398 13.8099 15.1716C13.8135 15.1832 13.8164 15.1951 13.8188 15.2071C13.8212 15.2191 13.8231 15.2313 13.8243 15.2435C13.8255 15.2558 13.8261 15.2682 13.8261 15.2806V15.345C13.8261 15.3512 13.826 15.3574 13.8257 15.3636C13.8245 15.3883 13.8208 15.4127 13.8148 15.4364C13.7984 15.5016 13.7646 15.5619 13.7163 15.6102L13.2163 16.1102C13.2105 16.116 13.2049 16.1221 13.1996 16.1282C13.1923 16.1365 13.1854 16.1449 13.179 16.1536C13.1604 16.1789 13.1454 16.206 13.1339 16.2342C13.1293 16.2455 13.1253 16.257 13.1219 16.2686C13.1185 16.2802 13.1157 16.2919 13.1134 16.3037C13.1111 16.3155 13.1093 16.3274 13.1082 16.3393C13.1059 16.3632 13.1059 16.3874 13.1082 16.4113C13.1093 16.4232 13.1111 16.4351 13.1134 16.4469C13.1157 16.4587 13.1185 16.4705 13.1219 16.4821C13.1253 16.4936 13.1293 16.5051 13.1339 16.5164C13.1522 16.5615 13.1797 16.6038 13.2163 16.6404L13.7163 17.1404C13.7866 17.2107 13.8261 17.3062 13.8261 17.4056V17.8449C13.8261 17.9444 13.7866 18.0398 13.7163 18.1101L12.186 19.6404C12.1156 19.7108 12.0203 19.7503 11.9208 19.7503H11.6182C11.5119 19.7503 11.4106 19.7052 11.3395 19.6262L10.5187 18.7142C10.3948 18.5765 10.3262 18.3978 10.3262 18.2125V12.289C10.3262 12.2797 10.3259 12.2703 10.3252 12.2611C10.3148 12.1226 10.2277 12.0008 10.1021 11.9377C8.75298 11.2595 7.82715 9.86295 7.82715 8.25C7.82718 5.97185 9.67399 4.125 11.9521 4.125Z" fill="#25A74B"/>
<path d="M14.5525 5.04803C15.4827 5.80438 16.0771 6.9577 16.0771 8.25C16.0771 9.54233 15.4827 10.6955 14.5524 11.4518C13.6223 10.6955 13.0278 9.54228 13.0278 8.25C13.0278 6.95768 13.6223 5.80438 14.5525 5.04803Z" fill="#25A74B"/>
<path d="M12.0771 19.716C12.0284 19.7384 11.975 19.7505 11.9204 19.7505H11.6177C11.6041 19.7505 11.5905 19.7497 11.5771 19.7482V13.0003C11.5772 12.4004 11.9104 12.1671 12.0771 12.1254V19.716Z" fill="#1B7D37"/>
<path fill-rule="evenodd" clip-rule="evenodd" d="M17.1523 4.125C19.4305 4.125 21.2773 5.97185 21.2773 8.25C21.2773 8.76649 21.1824 9.26077 21.009 9.7164C20.976 9.8032 20.9401 9.8886 20.9015 9.97247C20.805 10.1821 20.6915 10.3823 20.5626 10.5712C20.4039 10.804 20.2219 11.0195 20.0201 11.2148C19.9597 11.2731 19.8977 11.3297 19.8339 11.3843C19.7022 11.4971 19.5632 11.6016 19.4179 11.6972C19.3721 11.7274 19.3257 11.7568 19.2787 11.7852C19.2198 11.8207 19.1599 11.8548 19.0991 11.8874L19.064 11.9077C19.053 11.9145 19.0423 11.9215 19.0318 11.9289C19.0265 11.9326 19.0215 11.9367 19.0163 11.9406C19.0111 11.9445 19.0058 11.9483 19.0007 11.9524C18.9958 11.9563 18.9912 11.9604 18.9864 11.9644C18.9813 11.9688 18.976 11.973 18.971 11.9776C18.9661 11.9821 18.9614 11.9868 18.9566 11.9914C18.9523 11.9955 18.948 11.9996 18.9438 12.0038C18.9393 12.0085 18.9349 12.0133 18.9305 12.0181C18.926 12.023 18.9215 12.0279 18.9171 12.033C18.9133 12.0374 18.9096 12.042 18.9059 12.0465C18.9014 12.0519 18.8971 12.0574 18.8929 12.063C18.8894 12.0676 18.886 12.0723 18.8827 12.077C18.8789 12.0824 18.8751 12.0877 18.8714 12.0932C18.8676 12.0989 18.864 12.1047 18.8604 12.1105C18.8574 12.1154 18.8544 12.1204 18.8516 12.1254C18.8483 12.1311 18.8452 12.1367 18.8421 12.1425C18.8391 12.1482 18.8362 12.1539 18.8333 12.1598C18.8307 12.1652 18.828 12.1706 18.8256 12.1761C18.8226 12.1827 18.8199 12.1894 18.8171 12.1961C18.8151 12.201 18.8131 12.206 18.8113 12.2109C18.8089 12.2174 18.8067 12.224 18.8045 12.2305C18.7986 12.2484 18.7934 12.2665 18.7894 12.2849C18.7888 12.2875 18.7883 12.2902 18.7878 12.2928C18.7857 12.3029 18.7839 12.3131 18.7824 12.3234C18.7822 12.3247 18.7821 12.3261 18.7819 12.3275C18.7786 12.3514 18.7769 12.3757 18.7769 12.4003C18.7769 12.5219 18.7358 12.6393 18.6617 12.7342C18.6481 12.7515 18.6336 12.7682 18.6179 12.784L18.5894 12.8125L18.5675 12.8355C18.5539 12.8505 18.5412 12.866 18.5292 12.882C18.5264 12.8857 18.5238 12.8896 18.5211 12.8934C18.5176 12.8983 18.514 12.9032 18.5106 12.9083C18.5089 12.9109 18.5072 12.9135 18.5055 12.9161C18.5017 12.9219 18.498 12.9277 18.4944 12.9337C18.4922 12.9373 18.4901 12.941 18.488 12.9446C18.4851 12.9496 18.4823 12.9546 18.4796 12.9597C18.4779 12.9628 18.4763 12.9659 18.4746 12.969C18.4715 12.975 18.4684 12.981 18.4655 12.987C18.4634 12.9913 18.4614 12.9957 18.4594 13C18.4575 13.0043 18.4556 13.0085 18.4538 13.0128C18.4515 13.0181 18.4493 13.0235 18.4472 13.0289C18.4456 13.0328 18.4441 13.0368 18.4426 13.0408C18.4406 13.0461 18.4387 13.0514 18.4368 13.0567C18.4353 13.0612 18.4338 13.0658 18.4323 13.0703C18.4309 13.0749 18.4294 13.0795 18.428 13.0841C18.4264 13.0896 18.4249 13.0952 18.4235 13.1008C18.4223 13.1052 18.4211 13.1096 18.42 13.114C18.4185 13.12 18.4172 13.1261 18.416 13.1321C18.4153 13.1354 18.4145 13.1386 18.4138 13.1418C18.4105 13.159 18.4079 13.1763 18.406 13.1938C18.4056 13.1971 18.4051 13.2005 18.4048 13.2039C18.4036 13.2167 18.4029 13.2296 18.4024 13.2426C18.4021 13.2501 18.4019 13.2576 18.4019 13.2652V14.7372C18.4018 14.9006 18.3484 15.0592 18.2502 15.1892C18.246 15.1948 18.2418 15.2003 18.2375 15.2057L18.0662 15.4199L18.0468 15.4452C18.0347 15.4618 18.0232 15.4789 18.0125 15.4963C18.0107 15.4993 18.009 15.5023 18.0073 15.5053C18.0041 15.5106 18.0009 15.5159 17.9978 15.5213C17.9949 15.5265 17.9922 15.5318 17.9894 15.537C17.9872 15.5412 17.985 15.5454 17.9828 15.5496C17.9816 15.5521 17.9804 15.5546 17.9792 15.5571C17.9761 15.5633 17.9731 15.5694 17.9702 15.5757C17.9675 15.5814 17.965 15.5873 17.9625 15.5931C17.961 15.5966 17.9595 15.6002 17.958 15.6038C17.9561 15.6084 17.9544 15.613 17.9526 15.6176C17.9506 15.6228 17.9486 15.6279 17.9467 15.6331C17.945 15.638 17.9433 15.643 17.9416 15.6479C17.9401 15.6523 17.9387 15.6567 17.9373 15.6611C17.9359 15.6656 17.9344 15.6702 17.933 15.6747C17.9309 15.6818 17.929 15.6889 17.9271 15.6961C17.9264 15.6986 17.9257 15.7011 17.925 15.7036C17.9234 15.7102 17.9218 15.7169 17.9203 15.7236C17.9194 15.7274 17.9185 15.7312 17.9177 15.7351C17.9165 15.7411 17.9154 15.7472 17.9142 15.7533C17.9135 15.7574 17.9126 15.7616 17.912 15.7657C17.911 15.7716 17.9102 15.7775 17.9094 15.7833C17.9088 15.7875 17.9081 15.7917 17.9076 15.796C17.9069 15.801 17.9064 15.8061 17.9059 15.8112C17.9033 15.8367 17.9019 15.8625 17.9019 15.8883V16.1123L17.9025 16.1441C17.9039 16.1753 17.9071 16.2062 17.9122 16.2367C17.9127 16.2394 17.9133 16.2421 17.9138 16.2448C17.9151 16.2522 17.9164 16.2596 17.918 16.2669C17.9186 16.2699 17.9193 16.2729 17.92 16.2759C17.9217 16.2833 17.9234 16.2906 17.9253 16.2979C17.9258 16.2999 17.9264 16.3018 17.9269 16.3037C17.929 16.3116 17.9311 16.3195 17.9335 16.3273C17.9342 16.3299 17.9351 16.3325 17.9359 16.335C17.9381 16.3423 17.9405 16.3496 17.943 16.3568C17.9439 16.3595 17.9448 16.3621 17.9457 16.3648C17.9481 16.3713 17.9505 16.3778 17.9531 16.3843C17.9545 16.3879 17.9558 16.3915 17.9573 16.3951C17.9595 16.4005 17.9618 16.4059 17.9641 16.4113C17.9661 16.4157 17.9681 16.4202 17.9701 16.4246C17.9722 16.4293 17.9745 16.4339 17.9768 16.4386C17.979 16.4431 17.9812 16.4477 17.9835 16.4522C17.9855 16.4562 17.9876 16.4602 17.9897 16.4641C17.9924 16.4693 17.9952 16.4745 17.9981 16.4796C17.9997 16.4823 18.0013 16.4851 18.0029 16.4878C18.0063 16.4937 18.0096 16.4996 18.0132 16.5054C18.0155 16.5091 18.0179 16.5127 18.0203 16.5164C18.0233 16.5211 18.0263 16.5259 18.0294 16.5306C18.0375 16.5426 18.046 16.5543 18.0548 16.5658C18.0586 16.5708 18.0623 16.5759 18.0662 16.5807L18.2375 16.7949C18.2641 16.8281 18.2877 16.8634 18.3081 16.9003C18.3234 16.9279 18.3369 16.9564 18.3486 16.9857C18.3719 17.0442 18.3878 17.1055 18.3958 17.1683C18.3975 17.1814 18.3987 17.1945 18.3997 17.2076C18.401 17.2261 18.4019 17.2447 18.4019 17.2634V18.375C18.4019 18.6602 18.279 18.8194 17.837 19.2465C17.5062 19.5661 17.0617 19.7419 16.6017 19.7419C16.4609 19.7208 16.3286 19.66 16.2205 19.566C16.2075 19.5546 16.1946 19.543 16.1823 19.5307L16.1216 19.47C16.104 19.4524 16.0874 19.434 16.0717 19.4149C16.0483 19.3863 16.0271 19.3562 16.0083 19.3247C15.9895 19.2932 15.973 19.2604 15.959 19.2266C15.9543 19.2154 15.9499 19.204 15.9458 19.1925C15.9211 19.1236 15.9064 19.0509 15.9027 18.9768C15.9021 18.9644 15.9018 18.952 15.9018 18.9396V13.2652C15.9018 13.2545 15.9015 13.244 15.901 13.2334C15.9 13.2123 15.8979 13.1914 15.8948 13.1707C15.8747 13.0359 15.8119 12.9101 15.7143 12.8125L15.6858 12.784C15.6667 12.7649 15.6492 12.7445 15.6333 12.7231C15.6228 12.7088 15.613 12.6941 15.6039 12.679C15.5903 12.6562 15.5784 12.6324 15.5682 12.6079C15.5556 12.5776 15.5459 12.5461 15.539 12.5139C15.531 12.4768 15.5268 12.4386 15.5268 12.4001C15.5268 12.2237 15.4403 12.0628 15.3053 11.9537C15.2741 11.9285 15.2403 11.906 15.2045 11.8867C15.1186 11.8406 15.0345 11.7915 14.9524 11.7396C14.8131 11.6515 14.6794 11.5554 14.552 11.4518C14.2345 11.1936 13.9561 10.8892 13.7271 10.5488C13.713 10.5278 13.6991 10.5068 13.6853 10.4855C13.6489 10.4291 13.6137 10.3717 13.58 10.3134C13.567 10.2911 13.5543 10.2686 13.5418 10.246C13.4536 10.0869 13.3757 9.92125 13.3088 9.75009C13.291 9.70464 13.274 9.6588 13.2579 9.61258C13.2446 9.57468 13.2319 9.53653 13.2197 9.49814C13.0948 9.1044 13.0273 8.68509 13.0273 8.25C13.0273 7.96857 13.0556 7.69373 13.1093 7.42813C13.111 7.41941 13.113 7.41073 13.1148 7.40204C13.1471 7.24734 13.1881 7.09583 13.2372 6.94803C13.2427 6.9314 13.2484 6.91484 13.2541 6.89832C13.2834 6.81376 13.3153 6.73042 13.3499 6.64847C13.353 6.64107 13.3562 6.63369 13.3593 6.62631C13.3667 6.60916 13.3742 6.59208 13.3817 6.57504C13.3913 6.55363 13.4011 6.53236 13.4109 6.51114C13.4436 6.44111 13.4781 6.37215 13.5144 6.30432C13.5217 6.2908 13.5289 6.27728 13.5363 6.26385C13.5462 6.24588 13.5563 6.22802 13.5664 6.21021C13.5718 6.20073 13.5772 6.19126 13.5827 6.18182C13.5927 6.16463 13.6028 6.1475 13.613 6.13046C13.6389 6.08734 13.6655 6.04473 13.6929 6.00266C13.6986 5.99392 13.7044 5.98525 13.7101 5.97656C13.7242 5.9554 13.7383 5.93437 13.7527 5.91348C13.758 5.90585 13.7633 5.89829 13.7686 5.89069C13.7836 5.86922 13.7988 5.84785 13.8141 5.82669C13.8191 5.81991 13.824 5.81312 13.829 5.80637C13.8833 5.73264 13.94 5.66081 13.999 5.59094C14.0013 5.5882 14.0036 5.58544 14.006 5.5827C14.064 5.51426 14.1243 5.44771 14.1867 5.38321C14.1955 5.37409 14.2044 5.36506 14.2133 5.35602C14.3233 5.24433 14.4395 5.13879 14.5616 5.04016C14.5636 5.03851 14.5657 5.03686 14.5677 5.03522C14.6169 4.99561 14.6671 4.95714 14.718 4.91977C14.7511 4.89557 14.7845 4.87186 14.8183 4.84863C14.8371 4.83567 14.8561 4.82284 14.8752 4.81018C15.1079 4.65581 15.3571 4.52442 15.6198 4.41925C15.6349 4.4132 15.65 4.40728 15.6653 4.4014C15.7125 4.38311 15.7602 4.3656 15.8083 4.34903C15.821 4.34468 15.8336 4.34035 15.8463 4.33612C15.8973 4.3191 15.9487 4.30311 16.0006 4.28806C16.0119 4.28476 16.0233 4.28146 16.0347 4.27826C16.3901 4.17843 16.765 4.125 17.1523 4.125ZM17.0884 5.63058C17.0872 5.63062 17.0859 5.63063 17.0847 5.63068L17.0652 5.6315C17.0611 5.63171 17.057 5.63198 17.0529 5.63223C17.0493 5.63245 17.0458 5.63262 17.0422 5.63287C17.0315 5.63364 17.0207 5.63456 17.0101 5.63562L17.0089 5.63571C16.9981 5.6368 16.9874 5.63808 16.9767 5.63947C16.9716 5.64013 16.9665 5.64093 16.9614 5.64166C16.9555 5.64251 16.9496 5.64338 16.9437 5.64432C16.9389 5.64509 16.9341 5.64587 16.9293 5.6467C16.9222 5.64794 16.9151 5.64926 16.908 5.65063C16.8878 5.65454 16.8679 5.65904 16.8481 5.664C16.8443 5.66495 16.8405 5.66585 16.8368 5.66684C16.8217 5.67079 16.8068 5.67502 16.792 5.67957C16.788 5.68079 16.7841 5.68205 16.7801 5.68332C16.7674 5.68738 16.7549 5.69174 16.7424 5.69623C16.7386 5.69759 16.7348 5.69895 16.731 5.70035C16.7162 5.70585 16.7016 5.71155 16.6871 5.71765C16.6851 5.71849 16.6831 5.71945 16.6811 5.72031C16.6678 5.72602 16.6546 5.73195 16.6415 5.73816C16.6377 5.73994 16.634 5.74173 16.6302 5.74356C16.6165 5.75026 16.6029 5.75711 16.5895 5.76434C16.5858 5.76633 16.5822 5.76854 16.5786 5.77057C16.5684 5.77621 16.5583 5.78192 16.5483 5.78787C16.5439 5.79049 16.5395 5.79307 16.5351 5.79575C16.5218 5.8039 16.5087 5.81233 16.4958 5.82101C16.4938 5.82236 16.4919 5.82377 16.4899 5.82513C16.4783 5.83301 16.4669 5.84111 16.4557 5.8494C16.4526 5.85169 16.4495 5.85394 16.4464 5.85626C16.4341 5.86551 16.4221 5.87501 16.4102 5.88474C16.4078 5.88669 16.4055 5.88872 16.4032 5.89069C16.3934 5.89884 16.3837 5.90711 16.3742 5.91559C16.3703 5.91911 16.3663 5.92263 16.3624 5.92621C16.3521 5.9357 16.3419 5.94536 16.3319 5.95523C16.3273 5.95986 16.3227 5.96462 16.3181 5.96933C16.3118 5.97582 16.3055 5.98237 16.2993 5.98901C16.2948 5.99385 16.2903 5.99865 16.2859 6.00357C16.2764 6.01413 16.2671 6.02488 16.2581 6.0358C16.2552 6.03923 16.2525 6.04276 16.2496 6.04623C16.2425 6.05505 16.2354 6.06393 16.2285 6.07297C16.2252 6.07733 16.2218 6.08165 16.2185 6.08606C16.2098 6.0978 16.2014 6.10977 16.1931 6.12186C16.1906 6.12553 16.1882 6.12923 16.1857 6.13293C16.1792 6.14278 16.1727 6.15272 16.1665 6.16278C16.1637 6.16732 16.1608 6.17184 16.1581 6.17642L16.1572 6.17807C16.1504 6.18945 16.1437 6.20095 16.1373 6.21259C16.1369 6.21339 16.1364 6.21416 16.1359 6.21497C16.134 6.21847 16.1322 6.22206 16.1303 6.22559C16.1296 6.22708 16.1288 6.22858 16.128 6.23007C16.1231 6.23927 16.1184 6.24856 16.1138 6.2579L16.1077 6.26999L16.1071 6.27145C16.1005 6.28528 16.0942 6.29926 16.0881 6.31339L16.0875 6.31467C16.0866 6.31686 16.0857 6.31906 16.0847 6.32126C16.0842 6.32259 16.0837 6.32396 16.0832 6.32529C16.0783 6.33712 16.0736 6.34905 16.0691 6.36108L16.0663 6.36823L16.0657 6.37006L16.065 6.37207C16.0594 6.38739 16.0542 6.40287 16.0493 6.41849C16.0486 6.42079 16.048 6.42314 16.0473 6.42545C16.0435 6.43798 16.0399 6.45063 16.0365 6.46335C16.0352 6.46833 16.0336 6.47326 16.0324 6.47827L16.032 6.48001C16.0281 6.49567 16.0244 6.51144 16.0211 6.52734L16.0209 6.52835C16.0059 6.60157 15.9981 6.67738 15.998 6.75504C15.998 6.80667 16.0016 6.8575 16.0083 6.90729C16.009 6.91224 16.0097 6.91737 16.0104 6.9223C16.0105 6.92325 16.0107 6.92419 16.0109 6.92514C16.014 6.94581 16.0178 6.96628 16.022 6.98657L16.0221 6.98694C16.0255 7.0028 16.0289 7.01857 16.0329 7.03418C16.0339 7.03793 16.035 7.04162 16.036 7.04535C16.0377 7.05145 16.0394 7.05751 16.0412 7.06357C16.0445 7.07523 16.0478 7.08685 16.0515 7.09836L16.0519 7.09937C16.0542 7.10652 16.0567 7.11361 16.0591 7.1207C16.0683 7.14753 16.0784 7.17392 16.0896 7.1998L16.0903 7.20154C16.0909 7.20295 16.0916 7.20434 16.0923 7.20575C16.1081 7.24189 16.1258 7.277 16.1452 7.31104C16.1477 7.31554 16.1502 7.32004 16.1529 7.32449L16.154 7.32623C16.1776 7.3662 16.2036 7.40454 16.2318 7.44113C16.2344 7.44456 16.2371 7.44799 16.2397 7.45139C16.2402 7.452 16.2407 7.4526 16.2412 7.45322C16.2507 7.4652 16.2604 7.47698 16.2704 7.48856C16.2715 7.48982 16.2726 7.49105 16.2737 7.49231C16.3697 7.60275 16.4867 7.69423 16.6187 7.76056C16.6213 7.76187 16.6239 7.76321 16.6265 7.7645C16.6323 7.76737 16.6381 7.77023 16.644 7.77301C16.6553 7.77834 16.6667 7.78352 16.6782 7.78848C16.6832 7.79065 16.6883 7.7927 16.6934 7.7948C16.706 7.8 16.7186 7.80506 16.7314 7.80981C16.7355 7.81135 16.7397 7.81281 16.7438 7.8143C16.7563 7.81878 16.7689 7.82308 16.7816 7.82712C16.7871 7.82889 16.7927 7.83056 16.7983 7.83224C16.8116 7.83626 16.825 7.84007 16.8385 7.8436C16.8414 7.84434 16.8442 7.84507 16.8471 7.84579C16.8623 7.84963 16.8776 7.85311 16.8931 7.85632C16.9069 7.8592 16.9209 7.86183 16.9349 7.8642C16.9495 7.86666 16.9642 7.8689 16.9789 7.87079C16.9953 7.87288 17.0118 7.87462 17.0284 7.87601C17.0306 7.8762 17.0329 7.87638 17.0352 7.87656C17.0426 7.87713 17.0501 7.87759 17.0576 7.87802C17.0597 7.87814 17.0618 7.87837 17.0639 7.87848C17.0688 7.87873 17.0737 7.87884 17.0786 7.87903C17.0933 7.8796 17.1081 7.88004 17.123 7.88004C17.7444 7.88004 18.248 7.37636 18.248 6.75504C18.248 6.13375 17.7443 5.63004 17.123 5.63004C17.1115 5.63004 17.0999 5.63024 17.0884 5.63058Z" fill="#1074CC"/>
<path d="M17.2775 12.8754C17.4155 12.8754 17.5274 12.9874 17.5274 13.1254V19.5452C17.437 19.6277 17.2495 19.7403 17.0273 19.7403V13.1254C17.0273 12.9873 17.1394 12.8754 17.2775 12.8754Z" fill="#0060B5"/>
</g>
<defs>
<clipPath id="clip0_4262_8730">
<rect width="24" height="24" rx="4" fill="white"/>
</clipPath>
</defs>
</svg>
