<svg width="16" height="16" viewBox="0 0 16 16" fill="none" xmlns="http://www.w3.org/2000/svg">
<g clip-path="url(#clip0_12635_93959)">
<path d="M12.375 14.9868C14.3771 14.9868 16 13.3638 16 11.3618C16 10.6244 15.7796 9.93871 15.4014 9.36633C15.9041 8.99975 16.1452 8.34119 15.9507 7.71142L14.3946 2.67285C13.8837 1.01882 11.8319 0.449468 10.5418 1.60375L10.2005 1.90905C9.94326 2.13922 9.92138 2.53439 10.1515 2.79162C10.3817 3.04881 10.7768 3.07071 11.034 2.84057L11.3753 2.53527C11.9864 1.98852 12.9584 2.25825 13.2004 3.04174L14.7564 8.08032C14.7977 8.21421 14.7208 8.35591 14.5861 8.39441L14.5705 8.39892C14.5458 8.40597 14.522 8.4146 14.4989 8.42431C13.902 7.99198 13.1684 7.73681 12.375 7.73681C10.931 7.73681 9.68434 8.5812 9.10149 9.8031C8.99253 9.73346 8.87683 9.67423 8.75603 9.62646C8.51556 9.53139 8.25874 9.48279 8.00005 9.48279C7.74135 9.48279 7.48453 9.53139 7.24406 9.62646C7.12323 9.67424 7.00747 9.73343 6.89848 9.8031C6.31562 8.58123 5.06904 7.73681 3.62505 7.73681C2.83039 7.73682 2.09564 7.99278 1.49822 8.42639C1.47366 8.4158 1.4482 8.40647 1.4218 8.39892L1.40618 8.39441C1.27145 8.3559 1.19458 8.2142 1.23589 8.08032L2.79204 3.04174C3.03402 2.25828 4.00588 1.98854 4.61699 2.53527L4.9583 2.84057C5.21554 3.07073 5.6107 3.04885 5.84087 2.79162C6.07102 2.53438 6.04903 2.13921 5.79179 1.90905L5.45049 1.60375C4.16037 0.449471 2.10855 1.01883 1.5977 2.67285L0.0415516 7.71142C-0.153582 8.34335 0.0899079 9.0043 0.596117 9.37012C0.219496 9.94172 4.77433e-05 10.6261 4.77433e-05 11.3618C4.77433e-05 13.3638 1.62303 14.9868 3.62505 14.9868C5.59541 14.9868 7.19859 13.4148 7.24883 11.4565C7.2489 11.4552 7.24912 11.4539 7.24919 11.4525L7.2509 11.3881C7.25477 11.3128 7.27217 11.238 7.30302 11.1669C7.33833 11.0855 7.39095 11.0096 7.45927 10.9443C7.52769 10.879 7.61055 10.8258 7.70366 10.7889C7.79682 10.7521 7.89763 10.7328 8.00005 10.7328C8.10246 10.7328 8.20327 10.7521 8.29643 10.7889C8.38955 10.8258 8.4724 10.879 8.54082 10.9443C8.60914 11.0096 8.66176 11.0855 8.69707 11.1669C8.72792 11.238 8.74532 11.3128 8.74919 11.3881L8.7509 11.4525C8.75103 11.455 8.75123 11.4575 8.75139 11.46C8.8034 13.4166 10.4058 14.9868 12.375 14.9868ZM3.62505 13.7368C2.31339 13.7368 1.25005 12.6735 1.25005 11.3618C1.25005 10.0501 2.31339 8.98683 3.62505 8.98681C4.93672 8.98681 6.00005 10.0501 6.00005 11.3618C6.00005 12.6735 4.93672 13.7368 3.62505 13.7368ZM12.375 13.7368C11.0634 13.7368 10 12.6735 10 11.3618C10 10.0501 11.0634 8.98682 12.375 8.98681C13.6867 8.98681 14.75 10.0501 14.75 11.3618C14.75 12.6735 13.6867 13.7368 12.375 13.7368Z" fill="black"/>
</g>
<defs>
<clipPath id="clip0_12635_93959">
<rect width="16" height="16" fill="white"/>
</clipPath>
</defs>
</svg>
