<svg width="24" height="24" viewBox="0 0 24 24" fill="none" xmlns="http://www.w3.org/2000/svg">
<path d="M3.45536 20.4542C2.90333 21.0907 3.43779 22.0584 4.26818 21.9158C7.58738 21.3456 13.4036 20.2434 15.7679 19.1585C19.4232 17.8333 22 14.6378 22 10.9063C22 5.98747 17.5228 2.00001 12 2.00001C6.47715 2.00001 2 5.98747 2 10.9063C2.00001 13.374 3.12694 15.6073 4.94745 17.2203C5.34642 17.5738 5.4217 18.1869 5.07246 18.5896L3.45536 20.4542Z" fill="#4397E0"/>
<path d="M20.75 10.9063C20.75 14.0243 18.5901 16.8057 15.3419 17.9833L15.2935 18.0009L15.2466 18.0223C14.2003 18.5025 12.2774 19.0258 10.1042 19.5101C8.37622 19.8953 6.56609 20.2395 5.06396 20.5072L6.01685 19.4086C6.86783 18.4273 6.62563 17.0371 5.77637 16.2847C4.21764 14.9036 3.27966 13.0365 3.25073 11.0032L3.25 10.9063C3.25 6.81003 7.02745 3.25001 12 3.25001V2.00001L11.8707 2.00074C6.45048 2.0619 2.06952 5.96373 2.00085 10.7911L2 10.9063C2.00001 13.374 3.12689 15.6074 4.94739 17.2203C5.33389 17.5628 5.41672 18.1489 5.104 18.5513L5.07251 18.5896L3.45532 20.4542C2.90332 21.0908 3.43781 22.0584 4.26819 21.9158C7.5874 21.3456 13.4036 20.2434 15.7679 19.1585C19.4232 17.8333 22 14.6378 22 10.9063L21.9991 10.7911C21.9299 5.92542 17.4797 2.00001 12 2.00001V3.25001C16.9726 3.25001 20.75 6.81003 20.75 10.9063Z" fill="#045EB2"/>
<path d="M11.5405 5.48374C11.6601 5.00542 12.3399 5.00542 12.4595 5.48374L13.0073 7.67509C13.2618 8.69321 14.0568 9.48816 15.0749 9.74269L17.2663 10.2905C17.7446 10.4101 17.7446 11.0899 17.2663 11.2095L15.0749 11.7573C14.0568 12.0118 13.2618 12.8068 13.0073 13.8249L12.4595 16.0163C12.3399 16.4946 11.6601 16.4946 11.5405 16.0163L10.9927 13.8249C10.7382 12.8068 9.94321 12.0118 8.92509 11.7573L6.73374 11.2095C6.25542 11.0899 6.25542 10.4101 6.73374 10.2905L8.92509 9.7427C9.94321 9.48816 10.7382 8.69321 10.9927 7.67509L11.5405 5.48374Z" fill="white"/>
<path d="M10.3497 5.10022C10.8399 3.44024 13.2437 3.46703 13.6721 5.18054L14.22 7.37195C14.3625 7.94219 14.8078 8.38746 15.378 8.53003L17.5695 9.07788C19.3102 9.51309 19.3102 11.9869 17.5695 12.4221L15.378 12.97C14.8078 13.1125 14.3625 13.5578 14.22 14.1281L13.6721 16.3195C13.2369 18.0602 10.7631 18.0602 10.3279 16.3195L9.78003 14.1281C9.63745 13.5578 9.19219 13.1125 8.62194 12.97L6.43054 12.4221C4.68981 11.9869 4.68983 9.51309 6.43054 9.07788L8.62194 8.53003C9.19219 8.38746 9.63745 7.94219 9.78003 7.37195L10.3279 5.18054L10.3497 5.10022ZM12 8.58984C11.5862 9.56123 10.8112 10.3362 9.83984 10.75C10.8112 11.1638 11.5862 11.9387 12 12.91C12.4138 11.9387 13.1887 11.1638 14.16 10.75C13.1887 10.3362 12.4138 9.56119 12 8.58984Z" fill="#4397E0"/>
<path d="M11.5405 5.48374C11.6601 5.00542 12.3399 5.00542 12.4595 5.48374L13.0073 7.67509C13.2618 8.69321 14.0568 9.48816 15.0749 9.74269L17.2663 10.2905C17.7446 10.4101 17.7446 11.0899 17.2663 11.2095L15.0749 11.7573C14.0568 12.0118 13.2618 12.8068 13.0073 13.8249L12.4595 16.0163C12.3399 16.4946 11.6601 16.4946 11.5405 16.0163L10.9927 13.8249C10.7382 12.8068 9.94321 12.0118 8.92509 11.7573L6.73374 11.2095C6.25542 11.0899 6.25542 10.4101 6.73374 10.2905L8.92509 9.7427C9.94321 9.48816 10.7382 8.69321 10.9927 7.67509L11.5405 5.48374Z" fill="white"/>
</svg>
