<svg width="24" height="24" viewBox="0 0 24 24" fill="none" xmlns="http://www.w3.org/2000/svg">
<path d="M3.54297 15.1904C3.99965 15.0013 4.50249 14.9515 4.9873 15.0479C5.47226 15.1443 5.91795 15.3828 6.26758 15.7324C6.61721 16.0821 6.85569 16.5277 6.95215 17.0127C7.04849 17.4975 6.99873 18.0003 6.80957 18.457C6.62033 18.9137 6.2997 19.3045 5.88867 19.5791C5.47763 19.8536 4.9943 20 4.5 20H2.75C2.33579 20 2 19.6642 2 19.25C2 18.8358 2.33579 18.5 2.75 18.5H4.5C4.69778 18.5 4.89122 18.4409 5.05566 18.331C5.21995 18.2212 5.34817 18.0654 5.42383 17.8828C5.49952 17.7001 5.51905 17.4987 5.48047 17.3047C5.44185 17.1108 5.34682 16.9328 5.20703 16.793C5.06724 16.6532 4.88919 16.5582 4.69531 16.5195C4.50133 16.4809 4.29991 16.5005 4.11719 16.5762C3.93461 16.6518 3.77879 16.78 3.66895 16.9443C3.55906 17.1088 3.5 17.3022 3.5 17.5C3.5 17.9142 3.16421 18.25 2.75 18.25C2.33579 18.25 2 17.9142 2 17.5C2 17.0057 2.14636 16.5224 2.4209 16.1113C2.69554 15.7003 3.08629 15.3797 3.54297 15.1904ZM16.25 16.5C16.6642 16.5 17 16.8358 17 17.25C17 17.6642 16.6642 18 16.25 18H9.75C9.33579 18 9 17.6642 9 17.25C9 16.8358 9.33579 16.5 9.75 16.5H16.25ZM3.54297 4.19047C3.99965 4.00131 4.50249 3.95155 4.9873 4.04789C5.47226 4.14435 5.91795 4.38283 6.26758 4.73246C6.61721 5.08209 6.85569 5.52778 6.95215 6.01273C7.04849 6.49754 6.99873 7.00038 6.80957 7.45706C6.62033 7.91374 6.2997 8.30449 5.88867 8.57913C5.47763 8.85367 4.9943 9.00002 4.5 9.00002H2.75C2.33579 9.00002 2 8.66424 2 8.25003C2 7.83581 2.33579 7.50003 2.75 7.50003H4.5C4.69778 7.50003 4.89122 7.44096 5.05566 7.33108C5.21995 7.22124 5.34817 7.06542 5.42383 6.88284C5.49952 6.70012 5.51905 6.4987 5.48047 6.30472C5.44185 6.11085 5.34682 5.93279 5.20703 5.793C5.06724 5.65322 4.88919 5.55819 4.69531 5.51957C4.50133 5.48098 4.29991 5.50052 4.11719 5.57621C3.93461 5.65186 3.77879 5.78008 3.66895 5.94437C3.55906 6.10882 3.5 6.30225 3.5 6.50003C3.5 6.91424 3.16421 7.25003 2.75 7.25003C2.33579 7.25003 2 6.91424 2 6.50003C2 6.00573 2.14636 5.52241 2.4209 5.11136C2.69554 4.70034 3.08629 4.3797 3.54297 4.19047ZM21.25 6.00003C21.6642 6.00003 22 6.33582 22 6.75003C22 7.16424 21.6642 7.50003 21.25 7.50003H9.75C9.33579 7.50003 9 7.16424 9 6.75003C9 6.33582 9.33579 6.00003 9.75 6.00003H21.25Z" fill="black"/>
</svg>
