<svg width="12" height="12" viewBox="0 0 16 16" fill="none" xmlns="http://www.w3.org/2000/svg">
<g clip-path="url(#clip0_765_15687)">
<path d="M1.16435 14.7633C0.722726 15.2725 1.15034 16.0467 1.81466 15.9325C4.4693 15.4764 9.12032 14.5947 11.0127 13.7271C13.9377 12.6673 15.9999 10.1108 16 7.12502C16 3.18999 12.4183 1.71661e-05 8 1.71661e-05C3.58172 1.71661e-05 0 3.18999 0 7.12502C3.71645e-05 9.09919 0.901716 10.8856 2.35814 12.176C2.67733 12.4587 2.73756 12.9492 2.45817 13.2714L1.16435 14.7633Z" fill="url(#paint0_linear_765_15687)"/>
<path d="M15 7.12498C15 9.61981 13.2712 11.8453 10.6719 12.7871L10.6333 12.8007L10.5957 12.8178C9.75799 13.2019 8.21986 13.6209 6.48193 14.0083C5.10017 14.3163 3.65283 14.591 2.45166 14.8051L3.21387 13.9267C3.89465 13.1417 3.70093 12.0292 3.02148 11.4272C1.7942 10.3399 1.04788 8.87634 1.00244 7.27977L1 7.12498C1.00001 3.84802 4.02196 1.00001 8 1.00001V1.71661e-05L7.79346 0.00245857C3.53933 0.0984774 0.110334 3.1521 0.00244141 6.9409L0 7.12498C3.60034e-05 9.03747 0.846128 10.7739 2.22314 12.0537L2.35791 12.1757C2.67709 12.4585 2.7374 12.9493 2.45801 13.2714L1.16455 14.7631C0.722973 15.2723 1.15026 16.0465 1.81445 15.9326C4.46909 15.4764 9.12032 14.5947 11.0127 13.727C13.9377 12.6672 15.9999 10.1107 16 7.12498L15.9976 6.9409C15.8879 3.09097 12.3492 1.71661e-05 8 1.71661e-05V1.00001C11.9159 1.00001 14.9051 3.7597 14.9976 6.97166L15 7.12498Z" fill="url(#paint1_linear_765_15687)"/>
</g>
<defs>
<linearGradient id="paint0_linear_765_15687" x1="8" y1="1.71661e-05" x2="8" y2="15.9438" gradientUnits="userSpaceOnUse">
<stop stop-color="#A7B7FD"/>
<stop offset="1" stop-color="#3969EF"/>
</linearGradient>
<linearGradient id="paint1_linear_765_15687" x1="8" y1="15.9438" x2="8" y2="1.71661e-05" gradientUnits="userSpaceOnUse">
<stop stop-color="#2B55CA"/>
<stop offset="1" stop-color="#557FF3"/>
</linearGradient>
<clipPath id="clip0_765_15687">
<rect width="16" height="16" fill="white"/>
</clipPath>
</defs>
</svg>
