<svg width="96" height="96" viewBox="0 0 96 96" fill="none" xmlns="http://www.w3.org/2000/svg">
<path fill-rule="evenodd" clip-rule="evenodd" d="M46.8577 15.9902C51.2552 14.081 56.4049 15.0919 61.1618 18.2228C65.8176 21.2873 70.1177 26.3937 73.016 32.8425L73.0179 32.8366L73.2066 33.2695C76.1051 39.9208 76.9725 46.7142 76.0232 52.3243C75.089 57.845 72.3895 62.2428 68.11 64.1997L67.9049 64.291C63.2644 66.3049 57.7898 65.0689 52.8197 61.5232L29.5723 65.0639C26.0206 65.6056 21.9714 64.5523 20.1633 61.462L20.0786 61.3138C18.297 58.1311 19.2099 53.5469 21.5713 50.7668L38.4153 30.9317C38.791 23.9438 41.707 18.2268 46.8577 15.9902Z" fill="#FF8D5C"/>
<path d="M36.8464 63.956C39.0769 68.0662 40.8761 71.8666 41.8242 75.0845L41.9389 75.5843C42.0727 76.4511 41.8564 77.3588 41.314 78.1981L41.2539 78.2845C40.5749 79.2358 39.4799 80.0699 38.2602 80.4763C37.0359 80.8863 35.7478 80.9168 34.6348 80.5623C33.4119 80.1727 32.505 79.3404 32.1435 78.2764C30.911 74.9435 30.1208 70.0902 29.4395 65.0831C29.4838 65.0769 29.5282 65.0707 29.5724 65.064L36.8464 63.956Z" fill="#F05F2B"/>
<path fill-rule="evenodd" clip-rule="evenodd" d="M50.2304 19.1473C56.6312 15.1095 71.0536 27.3177 72.1969 43.0062C72.292 43.7194 72.3646 44.4738 72.4215 45.2603C72.7969 50.4334 70.7876 55.6879 67.19 57.249C63.2463 58.9604 57.5767 57.3924 53.5467 52.4674C50.7799 50.1105 47.817 46.0704 46.14 39.1636C41.1546 24.2068 47.8077 20.6754 50.2304 19.1473ZM59.7369 39.2158C58.3856 36.6055 55.9568 35.1773 54.312 36.0258C52.6672 36.8744 52.4291 39.6785 53.7804 42.2888C55.1317 44.8991 57.5607 46.3275 59.2055 45.4789C60.8503 44.6303 61.0881 41.8261 59.7369 39.2158Z" fill="#F05F2B"/>
<path d="M35.8284 72.9811C36.6636 72.7256 37.6005 72.7614 38.4009 73.1198C38.4896 73.1594 38.5762 73.2031 38.6607 73.2502C38.7179 73.2837 38.771 73.3278 38.8055 73.3849C38.8398 73.442 38.853 73.5067 38.8418 73.5685C38.8306 73.6304 38.7952 73.6863 38.743 73.7277C38.6907 73.7691 38.6257 73.7921 38.5603 73.8034C38.4749 73.8196 38.3907 73.8366 38.3079 73.8544C37.5626 74.0178 36.9171 74.2209 36.2637 74.4167C36.2163 74.4311 36.1688 74.4456 36.1226 74.4597C35.5173 74.6467 34.9085 74.8282 34.2454 75.0822C34.1661 75.1128 34.0861 75.1447 34.0054 75.1779C33.9445 75.2041 33.8774 75.22 33.8111 75.2138C33.7447 75.2076 33.6846 75.1802 33.6414 75.1345C33.5983 75.0887 33.5741 75.0272 33.5718 74.9606C33.5695 74.894 33.5895 74.828 33.6192 74.7687C33.6641 74.6834 33.7131 74.5997 33.7654 74.5182C34.2023 73.8361 34.8838 73.3138 35.6475 73.041C35.7073 73.0196 35.7677 72.9995 35.8284 72.9811Z" fill="#9E2B08"/>
<path d="M50.0816 18.8017C53.7839 17.2462 57.7782 18.981 60.6573 21.1804C61.8127 22.0588 62.87 23.0545 63.8418 24.1235C63.886 24.1721 63.9089 24.237 63.906 24.3029C63.9031 24.3689 63.8745 24.4309 63.8262 24.4755C63.7779 24.52 63.7139 24.5435 63.648 24.5412C63.582 24.5388 63.5194 24.5108 63.4744 24.4628C62.5036 23.429 61.4532 22.4718 60.3167 21.6359C57.4768 19.5257 53.6499 18.0232 50.3794 19.488C50.3469 19.5024 50.3145 19.5172 50.2823 19.5319C41.7563 23.8299 44.9225 35.3616 48.1448 42.7861C48.2681 43.0681 48.3936 43.3477 48.5215 43.6244C51.856 50.6167 58.1885 60.0081 66.5977 57.1103C66.642 57.0905 66.6864 57.0705 66.7305 57.0497C66.7332 57.0485 66.741 57.0448 66.7437 57.0436C70.6789 55.348 71.9947 50.4934 72.0691 46.3381C72.0986 44.9228 72.0004 43.5079 71.802 42.1005C71.7929 42.0354 71.8101 41.9689 71.8497 41.916C71.8892 41.8631 71.9479 41.828 72.013 41.8183C72.078 41.8087 72.1444 41.8251 72.1976 41.8642C72.2507 41.9033 72.2865 41.962 72.2967 42.027C72.5188 43.4553 72.6388 44.8962 72.6282 46.3461C72.5914 50.5835 71.401 55.718 67.0411 57.7292L67.0542 57.7231C67.0063 57.7466 66.9581 57.7696 66.91 57.7922C57.5666 61.0693 50.8535 51.3079 47.387 44.1489C47.2552 43.8637 47.1258 43.5756 46.9996 43.2848C45.233 39.1795 43.8907 34.7897 43.8008 30.2399C43.614 25.8027 45.5187 20.6105 49.9766 18.8469C50.0114 18.8317 50.0465 18.8166 50.0816 18.8017Z" fill="#9E2B08"/>
<path d="M49.7217 35.7875C51.5152 34.7673 53.7741 34.4909 55.8221 35.089C57.8423 35.6553 59.6371 37.0631 60.6761 38.9118C61.8434 40.9408 62.0664 43.4871 61.2774 45.6603C60.6452 47.4641 59.3467 49.001 57.733 49.9113C57.3379 50.1361 56.9251 50.3254 56.5015 50.4767C56.4336 50.5008 56.3583 50.5004 56.2908 50.4731C56.2233 50.4457 56.169 50.3937 56.1402 50.3278C56.1113 50.2619 56.1096 50.1868 56.1353 50.1186C56.1609 50.0504 56.2122 49.995 56.2759 49.9614C56.6458 49.7653 56.9977 49.5408 57.3274 49.2914C58.6753 48.2765 59.6368 46.8403 60.065 45.2741C60.5967 43.3823 60.3301 41.3283 59.3716 39.6523C58.5114 38.129 57.0977 36.9335 55.4234 36.3408C53.7276 35.7268 51.7863 35.749 50.0442 36.4543C49.6606 36.6085 49.2869 36.7944 48.9283 37.0104C48.8666 37.0478 48.7927 37.0631 48.721 37.05C48.6493 37.0368 48.5858 36.9966 48.5442 36.9379C48.5026 36.8793 48.4858 36.8061 48.4971 36.7341C48.5084 36.6621 48.5472 36.5975 48.6028 36.5517C48.9508 36.2666 49.3256 36.0103 49.7217 35.7875Z" fill="#9E2B08"/>
<path fill-rule="evenodd" clip-rule="evenodd" d="M46.5586 15.3024C51.2645 13.2593 56.6856 14.3792 61.5735 17.5964C66.3647 20.7499 70.7515 25.9753 73.6997 32.5351L73.7005 32.5368L73.8912 32.964L73.8938 32.9699C76.842 39.735 77.7394 46.6758 76.7625 52.4494C75.8024 58.1232 73.0002 62.7879 68.4214 64.8818L68.4148 64.8849L68.2098 64.976L68.2032 64.9792C63.3177 67.0993 57.6684 65.813 52.6343 62.31L38.01 64.5373C39.9418 68.1658 41.5227 71.5641 42.4378 74.5253L42.5428 74.8725L42.5491 74.8942L42.669 75.4164L42.6748 75.4431L42.6792 75.4697C42.845 76.5432 42.5705 77.6339 41.9427 78.6054L41.9429 78.6059L41.8787 78.7028C41.8771 78.7052 41.8754 78.7077 41.8738 78.7101L41.8714 78.7084C41.1004 79.7942 39.871 80.7292 38.4971 81.1872L38.4974 81.1874C37.1389 81.6424 35.687 81.685 34.4063 81.277C33 80.829 31.8929 79.8506 31.439 78.5363C30.236 75.2831 29.4541 70.6597 28.7952 65.9123C25.3415 66.2205 21.5353 65.3019 19.6592 62.3085L19.6512 62.2956L19.6438 62.2824L19.5589 62.1342L19.5572 62.1313L19.5555 62.1281C18.5975 60.4167 18.1428 58.5232 18.3912 56.551C18.6387 54.5854 19.5766 52.6026 21.3008 50.6899L37.6807 30.6445C38.1197 23.6135 41.1079 17.6693 46.5586 15.3024ZM30.2825 65.7143C30.9416 70.4587 31.7038 74.9283 32.8457 78.0163L32.8494 78.0256L32.8526 78.0351C33.1259 78.8395 33.8287 79.5188 34.8616 79.8478C35.8068 80.1489 36.9308 80.1301 38.0208 79.7651L38.022 79.7646C39.1155 79.4002 40.0981 78.6373 40.6802 77.7941C41.1346 77.0928 41.295 76.3745 41.199 75.7184L41.0977 75.2768C40.2053 72.257 38.5359 68.683 36.4358 64.777L30.2825 65.7143ZM60.7491 18.8493C56.1955 15.8522 51.3974 14.9317 47.3482 16.5971L47.156 16.6782C42.3693 18.7568 39.5315 24.1346 39.1639 30.9719L39.1612 31.0224C39.1669 31.43 39.1756 31.8374 39.1866 32.249C39.6368 42.5927 44.1035 53.0184 51.9478 59.8537C52.3203 60.1759 52.6948 60.4845 53.0796 60.7875L53.2549 60.9125C58.0968 64.3667 63.2876 65.4744 67.6011 63.6049L67.8042 63.5146C71.7807 61.6929 74.3755 57.5639 75.2832 52.1994C76.2046 46.7543 75.368 40.1108 72.5213 33.5754L72.3316 33.1501L72.1971 32.8539C69.3514 26.6569 65.1989 21.7782 60.7491 18.8493ZM22.4529 51.6508L22.4412 51.6652L22.4285 51.6791C20.8616 53.4124 20.0826 55.1253 19.8794 56.7385C19.6765 58.3506 20.041 59.9244 20.8645 61.3957L20.9361 61.5214C22.5045 64.0118 26.0281 64.8457 29.4588 64.3224L51.0245 61.0378C51.0052 61.0212 50.9856 61.0049 50.9664 60.9882C42.9204 53.9508 38.3623 43.5362 37.7229 32.9636L22.4529 51.6508Z" fill="#9E2B08"/>
<path d="M79.626 36.2266C80.1138 36.1371 80.5817 36.141 81.0289 36.2384C82.0985 36.4712 83.1412 36.8285 84.1568 37.3099C84.2368 37.3478 84.3169 37.3866 84.3965 37.4261C84.4592 37.4574 84.5158 37.504 84.5516 37.5655C84.5873 37.627 84.5995 37.6976 84.585 37.7642C84.5705 37.8309 84.53 37.8899 84.472 37.931C84.4139 37.9721 84.343 37.9911 84.273 37.9935C84.1842 37.9963 84.0954 37.9983 84.0069 37.9996C82.8831 38.0153 81.7863 37.9067 80.7166 37.6739C80.2694 37.5766 79.8424 37.3858 79.4358 37.1016C79.3592 37.0481 79.2832 36.9909 79.208 36.9307C79.1487 36.8826 79.0938 36.8268 79.0589 36.7603C79.024 36.6938 79.0119 36.6221 79.0267 36.5543C79.0414 36.4865 79.0822 36.4262 79.1416 36.3802C79.201 36.3343 79.2742 36.3065 79.3482 36.2874C79.4415 36.2639 79.5341 36.2435 79.626 36.2266Z" fill="#CC3B0A"/>
<path d="M83.3843 27.5245C83.4522 27.5035 83.5267 27.5004 83.5953 27.5233C83.6638 27.5462 83.7208 27.5925 83.7542 27.6539C83.7876 27.7153 83.7954 27.788 83.7774 27.858C83.7594 27.9281 83.7165 27.9889 83.6619 28.0345C83.5757 28.106 83.4899 28.1765 83.4026 28.2462C82.2983 29.1299 81.1071 29.8639 79.8841 30.4923C79.3723 30.7553 78.8206 30.9349 78.2242 31.0386C78.1115 31.0583 77.998 31.075 77.8819 31.0894C77.8051 31.0986 77.7249 31.0959 77.6524 31.0689C77.58 31.0419 77.5213 30.9933 77.4866 30.9295C77.452 30.8658 77.4433 30.7901 77.46 30.7147C77.4767 30.6392 77.5178 30.5705 77.5672 30.5111C77.6433 30.4208 77.7206 30.3342 77.8003 30.2503C78.2222 29.8062 78.6958 29.4511 79.2124 29.1856C80.4502 28.5498 81.7367 28.0524 83.0682 27.6243C83.1734 27.5905 83.2783 27.5576 83.3843 27.5245Z" fill="#CC3B0A"/>
<path d="M77.1543 20.3096C77.2241 20.2955 77.2948 20.3067 77.3533 20.3419C77.4118 20.3771 77.4549 20.4345 77.4751 20.5028C77.4954 20.5711 77.4902 20.6444 77.4698 20.7115C77.4434 20.7972 77.4164 20.8827 77.3887 20.9676C77.0367 22.046 76.5758 23.0589 76.0059 24.0062C75.7676 24.4022 75.4471 24.7491 75.045 25.0465C74.9693 25.1024 74.8906 25.1568 74.8091 25.2093C74.7446 25.2503 74.6741 25.2847 74.5999 25.2965C74.5256 25.3082 74.4534 25.2964 74.3938 25.2606C74.3343 25.2247 74.2903 25.1664 74.2659 25.0953C74.2416 25.0242 74.2389 24.9459 74.2449 24.8697C74.2531 24.773 74.2641 24.6777 74.2781 24.5845C74.3525 24.09 74.5089 23.6446 74.7471 23.2486C75.3171 22.3013 75.9961 21.4197 76.784 20.6036C76.846 20.5393 76.9088 20.4754 76.9722 20.4119C77.0219 20.3625 77.0845 20.3237 77.1543 20.3096Z" fill="#CC3B0A"/>
</svg>
