<svg width="12" height="12" viewBox="0 0 12 12" fill="none" xmlns="http://www.w3.org/2000/svg">
<path fill-rule="evenodd" clip-rule="evenodd" d="M9.5 7C10.8807 7 11.9999 8.11934 12 9.5C11.9999 10.8807 10.8807 12 9.5 12C8.11944 11.9999 7.00007 10.8806 7 9.5C7.00007 8.11943 8.11944 7.00013 9.5 7ZM10.748 8.31543C10.5084 8.17897 10.2033 8.26252 10.0664 8.50195L9.34668 9.76074L8.80078 9.35156C8.57988 9.18626 8.26615 9.23141 8.10059 9.45215C7.93509 9.67309 7.98029 9.98675 8.20117 10.1523L9.2002 10.9014C9.31477 10.9871 9.4614 11.0201 9.60156 10.9912C9.74186 10.962 9.86351 10.8735 9.93457 10.749L10.9346 8.99805C11.0713 8.75837 10.9876 8.45242 10.748 8.31543Z" fill="black"/>
<path fill-rule="evenodd" clip-rule="evenodd" d="M9 1C10.6569 1 12 2.34315 12 4V6H11V5H1V8L1.01074 8.2041C1.113 9.21278 1.96435 10 3 10H6V11H3C1.39489 11 0.0842144 9.73944 0.00390625 8.1543L0 8V4C9.79821e-08 2.34315 1.34315 1 3 1H9ZM3 2C1.89543 2 1 2.89543 1 4H11C11 2.89543 10.1046 2 9 2H3Z" fill="black"/>
</svg>
