<svg width="96" height="96" viewBox="0 0 96 96" fill="none" xmlns="http://www.w3.org/2000/svg">
<path d="M70.1577 20.3652C72.842 20.06 75.3007 21.895 75.7717 24.5551L80.4102 50.7499C78.4734 49.8072 76.2981 49.2783 73.9993 49.2782C65.8991 49.2782 59.3326 55.8446 59.3325 63.9448C59.3325 66.5374 60.0052 68.973 61.1856 71.0864L29.0237 78.7636C26.1607 79.447 23.313 77.5789 22.7998 74.6806L15.2551 32.0737C14.7409 29.1696 16.783 26.4337 19.7134 26.1005L70.1577 20.3652Z" fill="#75B6EB"/>
<path d="M15.2551 32.0754L16.0743 36.7016L76.417 28.2006L75.7717 24.5568C75.3007 21.8966 72.8419 20.0615 70.1576 20.3667L19.7132 26.1021C16.7828 26.4353 14.7408 29.1712 15.2551 32.0754Z" fill="#4397E0"/>
<path d="M68.1489 39.0055C69.7099 38.7639 71.1706 39.8358 71.4082 41.3973C71.6417 42.932 70.6061 44.372 69.0769 44.639L31.3325 51.2288C29.5717 51.5362 27.8968 50.3529 27.5979 48.5907C27.297 46.8165 28.5061 45.1395 30.2844 44.8643L68.1489 39.0055Z" fill="#CBEAFF"/>
<path d="M21.7517 29.326C22.6644 29.1644 23.5321 29.7538 23.6894 30.6424C23.8468 31.531 23.2342 32.3824 22.3215 32.544C21.4088 32.7056 20.5414 32.1162 20.384 31.2276C20.2267 30.339 20.839 29.4876 21.7517 29.326Z" fill="#CBEAFF"/>
<path d="M27.3054 28.9237C28.1269 28.7782 28.9077 29.3087 29.0493 30.1085C29.1909 30.9082 28.6397 31.6745 27.8184 31.8199C26.9969 31.9653 26.2161 31.4348 26.0745 30.6351C25.9328 29.8353 26.484 29.0691 27.3054 28.9237Z" fill="#CBEAFF"/>
<path d="M32.5144 28.4998C33.2446 28.3706 33.9386 28.8422 34.0644 29.5531C34.1903 30.264 33.7004 30.945 32.9702 31.0743C32.24 31.2035 31.546 30.732 31.4202 30.0211C31.2943 29.3102 31.7842 28.6291 32.5144 28.4998Z" fill="#CBEAFF"/>
<path d="M70.0732 19.62C73.151 19.2702 75.9705 21.3743 76.5107 24.4244L81.2507 51.1937C80.715 50.8885 80.1583 50.616 79.5832 50.379L75.0336 24.6862C74.6317 22.4161 72.5332 20.8499 70.2426 21.1102L19.798 26.8458C17.2975 27.1303 15.555 29.4651 15.9938 31.9432L16.6335 35.5558C17.3191 35.4653 18.005 35.3748 18.6906 35.2843L62.1257 29.5531C62.9299 29.447 63.7345 29.3409 64.5388 29.2347C64.6694 29.2176 64.8021 29.2533 64.9072 29.3334C65.0122 29.4136 65.0812 29.5319 65.0991 29.6625C65.1169 29.7931 65.0825 29.9258 65.0029 30.0314C64.9232 30.1369 64.8048 30.207 64.6743 30.2257C63.8712 30.3401 63.0677 30.4544 62.2646 30.5687L18.8906 36.7457C18.2253 36.8405 17.5598 36.9351 16.8945 37.0299L23.5385 74.5499C23.9765 77.0232 26.4067 78.6175 28.8498 78.0343L60.8266 70.4012C61.0565 70.8694 61.3104 71.3235 61.5871 71.7618L29.1982 79.4933C25.9154 80.2769 22.65 78.1347 22.0615 74.8114L14.5168 32.2047C13.9272 28.8748 16.2686 25.7375 19.6286 25.3554L70.0732 19.62Z" fill="#045EB2"/>
<path d="M68.0664 38.4808C69.8507 38.1839 71.6659 39.568 71.864 41.327C72.1409 43.0483 70.8281 44.794 69.142 45.0192C68.843 45.0658 68.5437 45.1125 68.2446 45.1591C66.7419 45.3929 65.2387 45.6254 63.7355 45.8561C63.6626 45.8673 63.5877 45.8498 63.5273 45.807C63.4669 45.7642 63.4258 45.6995 63.413 45.6268C63.4003 45.5541 63.417 45.4791 63.4594 45.4183C63.5018 45.3576 63.5665 45.3161 63.6389 45.3019C65.1312 45.0096 66.6242 44.7188 68.1171 44.4296C68.4143 44.372 68.7118 44.3144 69.009 44.257C70.2864 44.0357 71.1926 42.6961 70.9494 41.4659C70.7626 40.2021 69.4436 39.2866 68.2287 39.5287C57.9628 41.2654 47.6854 42.9295 37.3972 44.5214C35.0641 44.8824 32.7302 45.2398 30.3959 45.5934C29.0698 45.7582 28.0536 47.1441 28.3029 48.4701C28.4838 49.7974 29.8787 50.8086 31.2138 50.5555C39.0316 49.2532 46.857 47.9925 54.6894 46.7738C56.192 46.54 57.6953 46.3077 59.1984 46.077C59.2713 46.0659 59.3463 46.0833 59.4067 46.1261C59.467 46.1689 59.5082 46.2337 59.5209 46.3063C59.5336 46.3788 59.517 46.4538 59.4748 46.5145C59.4325 46.5752 59.3677 46.617 59.2954 46.6312C57.8029 46.9235 56.3098 47.2143 54.8168 47.5035C47.0349 49.011 39.2453 50.4767 31.4487 51.9005C29.4024 52.3235 27.2024 50.7952 26.8901 48.7096C26.4743 46.6293 28.0541 44.4139 30.1699 44.1334C32.5018 43.765 34.8348 43.4002 37.1679 43.0392C47.4561 41.4473 57.7558 39.928 68.0664 38.4808Z" fill="#045EB2"/>
<path d="M12.4524 28.9188C12.5448 28.9076 12.6375 28.9324 12.7106 28.9883C12.7837 29.0441 12.8319 29.1269 12.8454 29.219C12.8589 29.3112 12.8361 29.4047 12.7855 29.4817C12.361 30.1245 12.064 30.8098 11.9169 31.5334C11.5795 33.2309 11.8932 35.0536 12.2622 36.8395C12.5493 38.2106 12.8 39.5981 13.0403 40.9936C14.9143 51.991 16.7055 63.0186 18.5272 74.0328C18.6585 74.8265 18.7888 75.6151 18.9203 76.4085C18.9375 76.5121 18.9146 76.619 18.8547 76.7058C18.795 76.7925 18.7035 76.8519 18.6004 76.8713C18.4973 76.8907 18.3906 76.8685 18.3034 76.8094C18.2161 76.7503 18.1557 76.659 18.1341 76.5563C17.9685 75.7688 17.8052 74.9858 17.6422 74.1974C15.3792 63.258 13.365 52.2544 11.4913 41.2589C11.2518 39.8672 11.0323 38.464 10.817 37.1112C10.5255 35.2259 10.3155 33.2242 10.9317 31.2655C11.1985 30.4368 11.6591 29.6732 12.2147 29.0459C12.2756 28.9768 12.3599 28.93 12.4524 28.9188Z" fill="#1074CC"/>
<path d="M86 63.75C86 70.3774 80.6274 75.75 74 75.75C67.3726 75.75 62 70.3774 62 63.75C62 57.1226 67.3726 51.75 74 51.75C80.6274 51.75 86 57.1226 86 63.75Z" fill="#FAB341"/>
<path d="M74.0002 67.75C74.7366 67.75 75.3334 68.3469 75.3335 69.0833C75.3335 69.8196 74.7366 70.4167 74.0002 70.4167C73.2638 70.4167 72.667 69.8196 72.667 69.0833C72.667 68.3469 73.2639 67.75 74.0002 67.75Z" fill="black"/>
<path d="M74.0004 56.75C74.3785 56.75 74.7391 56.8904 74.9887 57.1404C75.2392 57.3904 75.3581 57.7297 75.3337 58.0833C75.3254 58.2055 75.3171 58.3277 75.3088 58.45C75.1588 60.6499 75.0088 62.8499 74.8588 65.0498C74.8505 65.172 74.842 65.2943 74.8337 65.4165C74.8194 65.6229 74.7192 65.8211 74.5632 65.967C74.4067 66.113 74.2072 66.195 74.0004 66.1951C73.7937 66.1951 73.5942 66.113 73.4377 65.967C73.2817 65.8211 73.1815 65.623 73.1672 65.4165C73.1589 65.2943 73.1504 65.172 73.142 65.0498C72.9921 62.8499 72.8421 60.6499 72.6921 58.45C72.6838 58.3277 72.6755 58.2055 72.6672 58.0833C72.6427 57.7296 72.7617 57.3904 73.0122 57.1404C73.2618 56.8904 73.6224 56.75 74.0004 56.75Z" fill="black"/>
</svg>
